<svg width="147" height="120" viewBox="0 0 147 120" fill="none" xmlns="http://www.w3.org/2000/svg">
<path d="M26.4744 93.3279H25.68V99.6794C25.68 103.773 28.6235 107.317 33.0272 109.792C37.4558 112.282 43.5205 113.796 50.176 113.796C56.8315 113.796 62.8961 112.282 67.3248 109.792C71.7284 107.317 74.672 103.773 74.672 99.6794V93.3279H73.8776H73.0833C73.0833 96.5921 70.721 99.7094 66.5463 102.056C62.3967 104.388 56.6105 105.856 50.176 105.856C43.7415 105.856 37.9553 104.388 33.8056 102.056C29.631 99.7094 27.2687 96.5921 27.2687 93.3279H26.4744Z" fill="#2E3545" stroke="black" stroke-width="1.58869"/>
<path d="M50.176 107.445C56.8315 107.445 62.8961 105.93 67.3248 103.441C71.7284 100.966 74.672 97.4216 74.672 93.328C74.672 89.2343 71.7284 85.6904 67.3248 83.2151C62.8961 80.7258 56.8315 79.2111 50.176 79.2111C43.5205 79.2111 37.4558 80.7258 33.0272 83.2151C28.6235 85.6904 25.68 89.2343 25.68 93.328C25.68 97.4216 28.6235 100.966 33.0272 103.441C37.4558 105.93 43.5205 107.445 50.176 107.445Z" fill="#5B6170" stroke="black" stroke-width="1.58869"/>
<path d="M47.6973 66.121H46.9029V66.9153C46.9029 76.6392 44.3554 80.8347 41.9612 83.1046C41.0315 83.986 40.1271 84.583 39.2939 85.133C39.0158 85.3165 38.7456 85.4949 38.4851 85.6768C37.5052 86.361 36.5238 87.1925 36.5238 88.6269V92.0724C36.5238 94.4829 38.2536 96.5031 40.6948 97.8753C43.1611 99.2616 46.5148 100.094 50.1759 100.094C53.8369 100.094 57.1906 99.2616 59.6569 97.8753C62.0982 96.5031 63.8279 94.4829 63.8279 92.0724V88.6269C63.8279 87.3527 62.8461 86.6029 61.9954 85.9937C61.8476 85.8878 61.6952 85.781 61.539 85.6716C60.7069 85.0885 59.7641 84.4279 58.8099 83.4135C56.5882 81.052 54.2234 76.6575 54.2234 66.9153V66.121H53.429H47.6973Z" fill="#FBD860" stroke="black" stroke-width="1.58869"/>
<path d="M54.3585 94.8573L54.2108 94.0768V94.0768L54.3585 94.8573ZM60.1161 93.5858C60.4908 93.3576 60.6096 92.8689 60.3815 92.4942C60.1533 92.1195 59.6646 92.0007 59.2899 92.2288L60.1161 93.5858ZM46.1482 94.8573L46.2959 94.0768L46.1482 94.8573ZM41.9655 93.5319L42.306 92.8142L41.9655 93.5319ZM40.1454 91.4743C39.8061 91.1961 39.3056 91.2457 39.0275 91.585C38.7494 91.9243 38.799 92.4248 39.1383 92.7029L40.1454 91.4743ZM54.2108 94.0768C52.9715 94.3113 51.6405 94.4391 50.2534 94.4391V96.0278C51.7372 96.0278 53.1673 95.8911 54.5062 95.6377L54.2108 94.0768ZM59.2899 92.2288C57.9389 93.0514 56.2008 93.7002 54.2108 94.0768L54.5062 95.6377C56.6489 95.2323 58.5739 94.5248 60.1161 93.5858L59.2899 92.2288ZM50.2534 94.4391C48.8663 94.4391 47.5352 94.3113 46.2959 94.0768L46.0005 95.6377C47.3395 95.8911 48.7695 96.0278 50.2534 96.0278V94.4391ZM46.2959 94.0768C44.8079 93.7952 43.4585 93.361 42.306 92.8142L41.6251 94.2496C42.9139 94.861 44.3949 95.3339 46.0005 95.6377L46.2959 94.0768ZM42.306 92.8142C41.4705 92.4179 40.7446 91.9654 40.1454 91.4743L39.1383 92.7029C39.8519 93.2878 40.6911 93.8065 41.6251 94.2496L42.306 92.8142Z" fill="black"/>
<path d="M53.9711 76.6749L49.0139 77.2171C49.0139 78.508 49.3547 81.8644 50.718 84.9627C52.0812 88.0609 54.6682 87.2089 56.6046 86.3569C58.1538 85.6753 58.3397 84.1726 56.6046 83.1812C54.8696 82.1898 54.2809 78.7662 53.9711 76.6749Z" fill="#D0902F" fill-opacity="0.5"/>
<path d="M67.6392 49.2789L66.8953 49.001L66.6172 49.7448C65.559 52.5754 65.6703 55.7105 66.9263 58.4604C68.1822 61.2102 70.4799 63.3495 73.3135 64.408C76.1472 65.4665 79.2852 65.3577 82.0372 64.1051C84.5472 62.9627 86.5487 60.9543 87.6842 58.4624L87.7101 58.4721L87.9882 57.7282L88.2664 56.984L96.6386 34.5887L96.6386 34.5887L96.6414 34.5811C97.7222 31.5966 97.5626 28.3012 96.2458 25.4181L95.5233 25.7481L96.2458 25.4181C94.9098 22.4929 92.4656 20.2172 89.4512 19.0912C86.4369 17.9652 83.0988 18.081 80.1713 19.4134C77.2437 20.7458 74.9665 23.1858 73.8409 26.1968L73.5627 26.9411L74.307 27.2191L79.2581 29.0686L80.0021 29.3464L80.2801 28.6026C80.7678 27.2981 81.7545 26.2407 83.0235 25.6632C84.2925 25.0856 85.7399 25.0352 87.047 25.5235C88.3542 26.0118 89.4137 26.9986 89.9928 28.2663L90.7153 27.9363L89.9928 28.2663C90.5723 29.5352 90.6261 30.9816 90.1389 32.2848L81.8074 54.5713L81.5294 55.3152C81.1111 56.434 80.2648 57.3409 79.1764 57.8364C78.0878 58.3318 76.8463 58.3749 75.7251 57.9561C74.6038 57.5373 73.695 56.6909 73.1983 55.6034C72.7017 54.5161 72.6578 53.2767 73.076 52.1579L73.3542 51.4137L72.6099 51.1356L67.6392 49.2789Z" fill="#FBD860" stroke="#351512" stroke-width="1.58869"/>
<path fill-rule="evenodd" clip-rule="evenodd" d="M90.7574 20.5647C90.2524 20.2813 89.7235 20.0353 89.1743 19.8302C86.3569 18.7778 83.2372 18.8861 80.5013 20.1313C77.7655 21.3765 75.6377 23.6565 74.5859 26.4699L79.5371 28.3193C80.0986 26.8172 81.2347 25.5999 82.6954 24.9351C84.1561 24.2703 85.8218 24.2124 87.326 24.7743C88.0647 25.0503 88.7347 25.4645 89.3043 25.9876L90.7574 20.5647ZM80.8022 57.7181C80.4168 58.0555 79.9812 58.3381 79.5064 58.5542C78.2262 59.1369 76.7664 59.1876 75.4481 58.6951C74.1298 58.2027 73.0609 57.2074 72.4767 55.9284C71.8925 54.6493 71.8408 53.1911 72.3329 51.8747L67.3622 50.0179C66.3779 52.6508 66.4814 55.5671 67.6498 58.1253C68.8182 60.6834 70.9558 62.6739 73.5925 63.6588C75.3557 64.3174 77.2454 64.4903 79.0696 64.1841L80.8022 57.7181Z" fill="#D0902F" fill-opacity="0.5"/>
<path d="M32.2326 47.9134L32.9766 47.6355L33.2547 48.3794C34.3128 51.21 34.2016 54.345 32.946 57.0948C31.6904 59.8446 29.3932 61.9838 26.56 63.0422C23.7267 64.1006 20.5892 63.9915 17.8376 62.7389C15.3279 61.5964 13.3267 59.5879 12.1913 57.096L12.1654 57.1057L11.8873 56.3619C11.8873 56.3619 11.8873 56.3619 11.8873 56.3618L11.6091 55.6176L3.23732 33.2222L3.23728 33.2222L3.2345 33.2145C2.15373 30.2301 2.31314 26.9348 3.62962 24.0517C4.96529 21.1266 7.40896 18.851 10.4229 17.7251C13.4368 16.5993 16.7743 16.7152 19.7015 18.0478C22.6286 19.3803 24.9055 21.8204 26.0311 24.8314L26.3093 25.5756L25.565 25.8536L20.6148 27.7028L19.8708 27.9808L19.5927 27.2369C19.1051 25.9324 18.1185 24.8749 16.8497 24.2973C15.5809 23.7197 14.1339 23.6693 12.827 24.1575C11.5202 24.6457 10.4609 25.6323 9.88199 26.9001C9.3026 28.1689 9.24888 29.6153 9.73606 30.9186L18.0671 53.2051L18.3452 53.949C18.3454 53.9496 18.3456 53.9502 18.3459 53.9507C18.7643 55.0688 19.6102 55.9751 20.6979 56.4703C21.7863 56.9658 23.0275 57.009 24.1485 56.5902C25.2695 56.1715 26.1781 55.3252 26.6746 54.2378C27.1711 53.1505 27.215 51.9111 26.7967 50.7922L26.5185 50.048L27.2628 49.77L32.2326 47.9134Z" fill="#FBD860" stroke="#351512" stroke-width="1.58869"/>
<ellipse cx="50.255" cy="14.0667" rx="30.2994" ry="13.0666" fill="#FBD860"/>
<path fill-rule="evenodd" clip-rule="evenodd" d="M20.7199 14.0127H19.9556V44.6854H19.9603C20.2464 63.7201 33.7003 77.0682 50.2551 77.0682C66.989 77.0682 81.6883 63.4298 80.7588 44.0657C80.7588 43.3525 80.6798 42.6837 80.5264 42.0569V14.0127H79.7906C79.4541 20.9229 66.3595 26.4799 50.2552 26.4799C34.151 26.4799 21.0564 20.9229 20.7199 14.0127Z" fill="#FBD860"/>
<path d="M80.5544 14.0667V40.4701C80.5544 65.6434 66.9889 76.9847 50.255 76.9847C33.5211 76.9847 19.9556 65.6434 19.9556 40.4701V14.0667C19.9556 6.85019 33.9394 1.00006 50.255 1.00006C66.5706 1.00006 80.5544 6.75551 80.5544 13.972" stroke="#351512" stroke-width="1.58869" stroke-linecap="round" stroke-linejoin="round"/>
<path fill-rule="evenodd" clip-rule="evenodd" d="M47.9949 25.5567C57.8691 25.5797 69.2866 25.6062 69.2866 20.5054C69.2866 15.0668 52.1719 4.9769 41.9224 4.9769C31.6729 4.9769 23.364 9.38569 23.364 14.8242C23.364 20.2627 35.8086 25.5537 46.0581 25.5537C46.6944 25.5537 47.3413 25.5552 47.9949 25.5567Z" fill="#D0902F" fill-opacity="0.5"/>
<path d="M77.5247 14.0667C77.5247 20.5841 65.2734 25.8675 50.1606 25.8675C35.0477 25.8675 22.7964 20.5841 22.7964 14.0667" stroke="black" stroke-width="1.58869" stroke-linecap="round"/>
<path opacity="0.5" d="M24.8358 24.7791C24.8358 24.7791 24.8358 35.7779 26.1525 48.7131C27.4693 61.6483 33.0461 65.0564 33.0461 65.0564" stroke="white" stroke-width="1.58869" stroke-linecap="round"/>
<path d="M65.1128 30.2696C65.1128 28.9224 65.9805 27.7245 67.2375 27.2396C68.5092 26.749 70.289 26.017 72.4036 25.0245C76.7591 22.9803 78.5582 17.6648 78.5582 17.6648V40.9197C78.5582 42.4433 78.374 43.9606 77.9672 45.4289C77.0202 48.8472 75.0565 55.413 72.9749 59.2464C72.0361 60.9753 70.6557 63.0023 69.3125 64.842C67.9456 66.7143 65.1128 65.7185 65.1128 63.4003V30.2696Z" fill="#D0902F" fill-opacity="0.5"/>
<path d="M53.1191 34.5025C52.3731 32.991 50.2178 32.991 49.4718 34.5025L46.8395 39.8362C46.7747 39.9676 46.6494 40.0586 46.5044 40.0796L40.6183 40.9349C38.9503 41.1773 38.2843 43.2272 39.4913 44.4037L43.7505 48.5554C43.8554 48.6577 43.9032 48.8049 43.8785 48.9493L42.873 54.8116C42.5881 56.4729 44.3318 57.7398 45.8237 56.9554L51.0884 54.1876C51.218 54.1195 51.3729 54.1195 51.5025 54.1876L56.7672 56.9554C58.2592 57.7398 60.0029 56.4729 59.7179 54.8116L58.7125 48.9493C58.6877 48.8049 58.7356 48.6577 58.8404 48.5554L63.0997 44.4037C64.3067 43.2272 63.6406 41.1773 61.9726 40.9349L56.0865 40.0796C55.9416 40.0586 55.8163 39.9676 55.7515 39.8362L53.1191 34.5025Z" fill="#F4A54B" stroke="black" stroke-width="1.58869"/>
<path opacity="0.5" d="M14.2364 19.5121C10.2861 19.5121 5.80915 22.7033 5.25146 29.2716C5.25146 31.6728 6.16545 33.7021 6.72313 35.0034" stroke="white" stroke-width="1.58869" stroke-linecap="round"/>
<mask id="mask0_1434_69947" style="mask-type:alpha" maskUnits="userSpaceOnUse" x="48" y="31" width="53" height="53">
<ellipse cx="74.3624" cy="57.4023" rx="25.7782" ry="26.149" fill="white"/>
</mask>
<g mask="url(#mask0_1434_69947)">
<path d="M45.1029 73.8395H44.3433V74.5991C44.3433 89.9565 40.3081 96.6865 36.4195 100.367C34.9233 101.782 33.4515 102.752 32.1343 103.62C31.7036 103.904 31.2894 104.176 30.8963 104.45C29.36 105.521 28.0207 106.698 28.0207 108.682V114.091C28.0207 117.621 30.5628 120.662 34.3311 122.776C38.1235 124.904 43.3116 126.196 49.0008 126.196C54.69 126.196 59.878 124.904 63.6705 122.776C67.4388 120.662 69.9809 117.621 69.9809 114.091V108.682C69.9809 106.964 68.671 105.922 67.303 104.944C67.0758 104.782 66.8398 104.617 66.5963 104.447C65.2866 103.531 63.7598 102.464 62.2218 100.832C58.6176 97.0075 54.8764 89.974 54.8764 74.5991V73.8395H54.1168H45.1029Z" fill="#FBD860" stroke="black" stroke-width="1.51913"/>
<path d="M76.2919 47.369L75.5806 47.1038L75.3144 47.8148C73.6956 52.1373 73.8658 56.9248 75.7872 61.124C77.7085 65.323 81.2232 68.5896 85.5578 70.2059C89.8923 71.8221 94.6924 71.6559 98.9022 69.7433C102.881 67.9358 106.024 64.7082 107.724 60.7107L107.74 60.7165L108.002 60.0162C108.003 60.0127 108.005 60.0091 108.006 60.0055L108.272 59.2937L121.61 23.6807L121.61 23.6807L121.612 23.6733C123.268 19.1106 123.024 14.0695 121.005 9.65706C118.958 5.18279 115.213 1.70203 110.594 -0.0201743C105.976 -1.74237 100.861 -1.56527 96.375 0.472723C91.8891 2.51076 88.3995 6.24295 86.6746 10.8487L86.4081 11.5605L87.1201 11.826L94.9064 14.7293L95.6177 14.9945L95.884 14.2835C96.6961 12.1148 98.3395 10.3567 100.453 9.39639C102.567 8.43603 104.978 8.35233 107.156 9.16426C109.333 9.97619 111.098 11.6169 112.062 13.7248C113.027 15.8337 113.117 18.2383 112.305 20.4058L99.0321 55.8482L98.7658 56.5592C98.0627 58.4365 96.6402 59.9585 94.8103 60.7898C92.9804 61.6212 90.8932 61.6937 89.008 60.9907C87.1229 60.2878 85.595 58.8674 84.7601 57.0426C83.9252 55.218 83.8515 53.1384 84.5545 51.2611L84.8211 50.5493L84.109 50.2838L76.2919 47.369Z" fill="#FBD860" stroke="#351512" stroke-width="1.51913"/>
<path fill-rule="evenodd" clip-rule="evenodd" d="M114.796 2.11053C113.647 1.28944 112.385 0.6215 111.034 0.130255C106.819 -1.4031 102.086 -1.08933 97.8766 1.00253C93.6669 3.0944 90.3252 6.793 88.5868 11.2847L95.9943 13.9794C96.9225 11.5812 98.7066 9.60647 100.954 8.4896C103.202 7.37272 105.729 7.2052 107.979 8.02388C109.701 8.65021 111.153 9.81454 112.159 11.3457L114.796 2.11053ZM100.292 52.9149L98.7399 56.9244C97.9264 59.0262 96.3628 60.7569 94.3929 61.7358C92.423 62.7146 90.2083 62.8614 88.2359 62.1439C86.2636 61.4264 84.6951 59.9034 83.8756 57.9098C83.0562 55.9163 83.0528 53.6155 83.8662 51.5137L76.4294 48.8084C74.8025 53.012 74.8093 57.6135 76.4482 61.6006C78.0872 65.5877 81.2241 68.6338 85.1688 70.0688C88.4244 71.2531 92.0101 71.26 95.3782 70.1258L100.292 52.9149Z" fill="#D0902F" fill-opacity="0.5"/>
<path fill-rule="evenodd" clip-rule="evenodd" d="M2.67689 -8.44855H1.47539V38.6897L1.47534 38.7293L1.47539 38.8109V39.702H1.48265C1.93246 69.5831 23.0905 90.5372 49.1253 90.5372C75.4416 90.5372 98.5582 69.1274 97.0965 38.7293C97.0965 37.61 96.9722 36.5605 96.7311 35.5766V-8.44855H95.5734C95.0443 2.3992 74.4513 11.1228 49.1251 11.1228C23.799 11.1228 3.206 2.3992 2.67689 -8.44855Z" fill="#FBD860"/>
<path d="M96.7752 -8.36383V33.0848C96.7752 72.6023 75.4416 90.406 49.1253 90.406C22.8089 90.406 1.47534 72.6023 1.47534 33.0848V-8.36383C1.47534 -19.6924 23.4669 -28.8761 49.1253 -28.8761C74.7837 -28.8761 96.7752 -19.8411 96.7752 -8.51247" stroke="#351512" stroke-width="1.51913" stroke-linecap="round" stroke-linejoin="round"/>
<path d="M72.4907 16.2263C72.4907 14.6152 73.5286 13.1836 75.0369 12.6176C77.0556 11.8601 80.1636 10.6149 83.9565 8.83797C90.8062 5.62896 93.6354 -2.71552 93.6354 -2.71552V34.645C93.6354 36.4692 93.4142 38.283 92.9335 40.0428C91.5504 45.1071 88.3057 56.2166 84.855 62.5601C83.0141 65.9441 80.0937 70.0555 77.5534 73.4175C75.8837 75.6271 72.4907 74.4258 72.4907 71.6563V16.2263Z" fill="#D0902F" fill-opacity="0.5"/>
<path d="M41.0884 58.973L40.7355 58.3004L41.0884 58.973L50.4257 54.0729C50.6357 53.9627 50.8864 53.9627 51.0964 54.0729L60.4337 58.973C62.0778 59.8359 63.9979 58.4394 63.6835 56.6093L61.9015 46.2383C61.8612 46.0039 61.939 45.7647 62.1095 45.5988L69.656 38.2559C70.988 36.9598 70.2542 34.699 68.415 34.4322L57.9812 32.9188C57.7463 32.8847 57.5431 32.7373 57.4379 32.5244L52.7698 23.0828C51.9473 21.4192 49.5748 21.4192 48.7523 23.0828L44.0842 32.5244C43.979 32.7373 43.7758 32.8847 43.5408 32.9188L33.1071 34.4322C31.2678 34.699 30.534 36.9598 31.866 38.2559L39.4126 45.5988C39.5831 45.7647 39.6609 46.0039 39.6206 46.2383L37.8386 56.6093C37.5242 58.4394 39.4442 59.8359 41.0884 58.973Z" fill="#F4A54B" stroke="black" stroke-width="1.51913"/>
</g>
<ellipse cx="71.6356" cy="57.5566" rx="25.7782" ry="26.149" fill="white" fill-opacity="0.6"/>
<mask id="path-27-outside-1_1434_69947" maskUnits="userSpaceOnUse" x="52.5701" y="34.6498" width="54" height="56" fill="black">
<rect fill="white" x="52.5701" y="34.6498" width="54" height="56"/>
<path fill-rule="evenodd" clip-rule="evenodd" d="M72.3293 84.6418C88.2799 84.6418 101.21 71.7344 101.21 55.8124C101.21 48.4561 98.4503 41.7434 93.9074 36.6498C100.677 41.9259 105.029 50.1487 105.029 59.3862C105.029 75.3083 92.0987 88.2156 76.1481 88.2156C67.567 88.2156 59.8599 84.4799 54.5701 78.5489C59.4686 82.3668 65.6328 84.6418 72.3293 84.6418Z"/>
</mask>
<path fill-rule="evenodd" clip-rule="evenodd" d="M72.3293 84.6418C88.2799 84.6418 101.21 71.7344 101.21 55.8124C101.21 48.4561 98.4503 41.7434 93.9074 36.6498C100.677 41.9259 105.029 50.1487 105.029 59.3862C105.029 75.3083 92.0987 88.2156 76.1481 88.2156C67.567 88.2156 59.8599 84.4799 54.5701 78.5489C59.4686 82.3668 65.6328 84.6418 72.3293 84.6418Z" fill="#8D8D8D"/>
<path d="M93.9074 36.6498L94.8412 35.4516L92.7737 37.6609L93.9074 36.6498ZM54.5701 78.5489L55.5039 77.3507L53.4363 79.56L54.5701 78.5489ZM99.6913 55.8124C99.6913 70.8929 87.4435 83.1227 72.3293 83.1227V86.1609C89.1163 86.1609 102.73 72.576 102.73 55.8124H99.6913ZM92.7737 37.6609C97.0782 42.4872 99.6913 48.8436 99.6913 55.8124H102.73C102.73 48.0687 99.8224 40.9995 95.0411 35.6386L92.7737 37.6609ZM92.9735 37.848C99.39 42.849 103.51 50.6374 103.51 59.3862H106.548C106.548 49.66 101.964 41.0028 94.8412 35.4516L92.9735 37.848ZM103.51 59.3862C103.51 74.4667 91.2623 86.6965 76.1481 86.6965V89.7348C92.9351 89.7348 106.548 76.1498 106.548 59.3862H103.51ZM76.1481 86.6965C68.0175 86.6965 60.7173 83.1589 55.7038 77.5377L53.4363 79.56C59.0026 85.8009 67.1164 89.7348 76.1481 89.7348V86.6965ZM72.3293 83.1227C65.9827 83.1227 60.1449 80.9679 55.5039 77.3507L53.6362 79.747C58.7923 83.7658 65.2829 86.1609 72.3293 86.1609V83.1227Z" fill="black" mask="url(#path-27-outside-1_1434_69947)"/>
<mask id="path-29-outside-2_1434_69947" maskUnits="userSpaceOnUse" x="44.0964" y="27.5018" width="53" height="56" fill="black">
<rect fill="white" x="44.0964" y="27.5018" width="53" height="56"/>
<path fill-rule="evenodd" clip-rule="evenodd" d="M58.3708 81.9209C53.0201 76.6882 49.7001 69.3943 49.7001 61.3264C49.7001 45.4043 62.6306 32.4969 78.5812 32.4969C84.7626 32.4969 90.4904 34.4354 95.1879 37.7366C89.979 32.6425 82.8457 29.5018 74.9775 29.5018C59.0269 29.5018 46.0964 42.4091 46.0964 58.3312C46.0964 68.0829 50.9468 76.7037 58.3708 81.9209Z"/>
</mask>
<path fill-rule="evenodd" clip-rule="evenodd" d="M58.3708 81.9209C53.0201 76.6882 49.7001 69.3943 49.7001 61.3264C49.7001 45.4043 62.6306 32.4969 78.5812 32.4969C84.7626 32.4969 90.4904 34.4354 95.1879 37.7366C89.979 32.6425 82.8457 29.5018 74.9775 29.5018C59.0269 29.5018 46.0964 42.4091 46.0964 58.3312C46.0964 68.0829 50.9468 76.7037 58.3708 81.9209Z" fill="#8D8D8D"/>
<path d="M58.3708 81.9209L57.4973 83.1638L59.4329 80.8348L58.3708 81.9209ZM95.1879 37.7366L94.3145 38.9795L96.2501 36.6505L95.1879 37.7366ZM59.4329 80.8348C54.3621 75.8758 51.2192 68.9685 51.2192 61.3264H48.1809C48.1809 69.82 51.6781 77.5005 57.3086 83.007L59.4329 80.8348ZM51.2192 61.3264C51.2192 46.2459 63.467 34.0161 78.5812 34.0161V30.9778C61.7942 30.9778 48.1809 44.5628 48.1809 61.3264H51.2192ZM78.5812 34.0161C84.4401 34.0161 89.8646 35.8523 94.3145 38.9795L96.0614 36.4937C91.1163 33.0185 85.0851 30.9778 78.5812 30.9778V34.0161ZM74.9775 31.0209C82.4333 31.0209 89.1895 33.9952 94.1258 38.8227L96.2501 36.6505C90.7686 31.2898 83.2582 27.9826 74.9775 27.9826V31.0209ZM47.6156 58.3312C47.6156 43.2507 59.8634 31.0209 74.9775 31.0209V27.9826C58.1905 27.9826 44.5773 41.5676 44.5773 58.3312H47.6156ZM59.2442 80.678C52.2071 75.7326 47.6156 67.5666 47.6156 58.3312H44.5773C44.5773 68.5991 49.6866 77.6748 57.4973 83.1638L59.2442 80.678Z" fill="black" mask="url(#path-29-outside-2_1434_69947)"/>
<path d="M97.5641 76.3605L97.0078 75.8434L96.4896 76.3988L93.5647 79.5338L93.0466 80.0892L93.6029 80.6063L106.928 92.9902L107.484 93.5073L108.002 92.9519L110.927 89.8169L111.445 89.2615L110.889 88.7444L97.5641 76.3605Z" fill="#37474F" stroke="black" stroke-width="1.51913"/>
<path d="M97.0429 76.9076L95.5825 78.4729L108.907 90.8568L110.368 89.2915L97.0429 76.9076Z" fill="#263238"/>
<path d="M136.267 108.774L136.254 108.762L136.24 108.751L105.381 83.5439C105.381 83.5434 105.38 83.5429 105.379 83.5424C105.139 83.3456 104.835 83.2402 104.53 83.2488C104.226 83.2573 103.945 83.3783 103.746 83.5864L100.52 86.9226L100.52 86.9228C100.319 87.1306 100.216 87.4098 100.231 87.7023L101.007 87.7163L100.231 87.7023C100.246 87.9947 100.378 88.278 100.6 88.4934C100.6 88.4935 100.6 88.4937 100.601 88.4938L129.064 116.181L129.076 116.193L129.089 116.204C130.053 117.069 131.285 117.033 132.316 116.68C133.356 116.323 134.381 115.595 135.205 114.746C136.029 113.896 136.713 112.863 137.007 111.839C137.299 110.822 137.24 109.639 136.267 108.774Z" fill="#71CBB6" stroke="black" stroke-width="1.51913"/>
<path opacity="0.1" d="M136.275 108.662L136.262 108.65L136.248 108.639L105.452 83.5153C105.451 83.5149 105.451 83.5145 105.45 83.5141C105.211 83.3175 104.906 83.2124 104.602 83.2209C104.298 83.2293 104.017 83.3501 103.818 83.558L102.354 85.0712L101.839 85.6037L102.439 86.1265L134.554 114.138L135.179 114.684L135.675 114.093C136.353 113.285 136.893 112.344 137.09 111.416C137.288 110.48 137.149 109.438 136.275 108.662Z" fill="black" stroke="black" stroke-width="1.51913"/>
<mask id="path-35-outside-3_1434_69947" maskUnits="userSpaceOnUse" x="41.4709" y="25" width="62" height="62" fill="black">
<rect fill="white" x="41.4709" y="25" width="62" height="62"/>
<path d="M101.233 55.8294C101.233 71.7515 88.3027 84.6588 72.3521 84.6588C56.4015 84.6588 43.4709 71.7515 43.4709 55.8294C43.4709 39.9074 56.4015 27 72.3521 27C88.3027 27 101.233 39.9074 101.233 55.8294ZM45.6396 55.8294C45.6396 70.5559 57.5992 82.494 72.3521 82.494C87.1049 82.494 99.0645 70.5559 99.0645 55.8294C99.0645 41.103 87.1049 29.1648 72.3521 29.1648C57.5992 29.1648 45.6396 41.103 45.6396 55.8294Z"/>
</mask>
<path d="M101.233 55.8294C101.233 71.7515 88.3027 84.6588 72.3521 84.6588C56.4015 84.6588 43.4709 71.7515 43.4709 55.8294C43.4709 39.9074 56.4015 27 72.3521 27C88.3027 27 101.233 39.9074 101.233 55.8294ZM45.6396 55.8294C45.6396 70.5559 57.5992 82.494 72.3521 82.494C87.1049 82.494 99.0645 70.5559 99.0645 55.8294C99.0645 41.103 87.1049 29.1648 72.3521 29.1648C57.5992 29.1648 45.6396 41.103 45.6396 55.8294Z" fill="#C4C4C4"/>
<path d="M101.233 55.8294C101.233 71.7515 88.3027 84.6588 72.3521 84.6588C56.4015 84.6588 43.4709 71.7515 43.4709 55.8294C43.4709 39.9074 56.4015 27 72.3521 27C88.3027 27 101.233 39.9074 101.233 55.8294ZM45.6396 55.8294C45.6396 70.5559 57.5992 82.494 72.3521 82.494C87.1049 82.494 99.0645 70.5559 99.0645 55.8294C99.0645 41.103 87.1049 29.1648 72.3521 29.1648C57.5992 29.1648 45.6396 41.103 45.6396 55.8294Z" stroke="black" stroke-width="3.03826" mask="url(#path-35-outside-3_1434_69947)"/>
<ellipse cx="74.3807" cy="57.5568" rx="25.7782" ry="26.149" fill="white" fill-opacity="0.4"/>
<path fill-rule="evenodd" clip-rule="evenodd" d="M55.2461 75.0798L80.128 32.0602C84.0013 32.955 87.5428 34.7345 90.5349 37.1783L64.7215 81.8084C61.0741 80.3121 57.8412 77.9938 55.2461 75.0798Z" fill="white" fill-opacity="0.4"/>
<mask id="path-38-outside-4_1434_69947" maskUnits="userSpaceOnUse" x="41.4709" y="25" width="62" height="62" fill="black">
<rect fill="white" x="41.4709" y="25" width="62" height="62"/>
<path d="M101.233 55.8294C101.233 71.7515 88.3027 84.6588 72.3521 84.6588C56.4015 84.6588 43.4709 71.7515 43.4709 55.8294C43.4709 39.9074 56.4015 27 72.3521 27C88.3027 27 101.233 39.9074 101.233 55.8294ZM45.6396 55.8294C45.6396 70.5559 57.5992 82.494 72.3521 82.494C87.1049 82.494 99.0645 70.5559 99.0645 55.8294C99.0645 41.103 87.1049 29.1648 72.3521 29.1648C57.5992 29.1648 45.6396 41.103 45.6396 55.8294Z"/>
</mask>
<path d="M101.233 55.8294C101.233 71.7515 88.3027 84.6588 72.3521 84.6588C56.4015 84.6588 43.4709 71.7515 43.4709 55.8294C43.4709 39.9074 56.4015 27 72.3521 27C88.3027 27 101.233 39.9074 101.233 55.8294ZM45.6396 55.8294C45.6396 70.5559 57.5992 82.494 72.3521 82.494C87.1049 82.494 99.0645 70.5559 99.0645 55.8294C99.0645 41.103 87.1049 29.1648 72.3521 29.1648C57.5992 29.1648 45.6396 41.103 45.6396 55.8294Z" fill="#E1E1E1"/>
<path d="M101.233 55.8294C101.233 71.7515 88.3027 84.6588 72.3521 84.6588C56.4015 84.6588 43.4709 71.7515 43.4709 55.8294C43.4709 39.9074 56.4015 27 72.3521 27C88.3027 27 101.233 39.9074 101.233 55.8294ZM45.6396 55.8294C45.6396 70.5559 57.5992 82.494 72.3521 82.494C87.1049 82.494 99.0645 70.5559 99.0645 55.8294C99.0645 41.103 87.1049 29.1648 72.3521 29.1648C57.5992 29.1648 45.6396 41.103 45.6396 55.8294Z" stroke="black" stroke-width="3.03826" mask="url(#path-38-outside-4_1434_69947)"/>
</svg>
