<svg width="200" height="160" viewBox="0 0 200 160" fill="none" xmlns="http://www.w3.org/2000/svg">
<mask id="path-1-outside-1_1434_69784" maskUnits="userSpaceOnUse" x="24.2297" y="15.5925" width="147" height="135" fill="black">
<rect fill="white" x="24.2297" y="15.5925" width="147" height="135"/>
<path fill-rule="evenodd" clip-rule="evenodd" d="M41.8806 18.5925C33.7892 18.5925 27.2297 25.1519 27.2297 33.2434V110.372C27.2297 118.464 33.7891 125.023 41.8806 125.023H71.9638L66.7569 144.819C66.2325 146.812 68.4383 148.406 70.1662 147.281L104.369 125.023H153.473C161.565 125.023 168.124 118.464 168.124 110.372V33.2433C168.124 25.1519 161.565 18.5925 153.473 18.5925H41.8806Z"/>
</mask>
<path fill-rule="evenodd" clip-rule="evenodd" d="M41.8806 18.5925C33.7892 18.5925 27.2297 25.1519 27.2297 33.2434V110.372C27.2297 118.464 33.7891 125.023 41.8806 125.023H71.9638L66.7569 144.819C66.2325 146.812 68.4383 148.406 70.1662 147.281L104.369 125.023H153.473C161.565 125.023 168.124 118.464 168.124 110.372V33.2433C168.124 25.1519 161.565 18.5925 153.473 18.5925H41.8806Z" fill="#CFCFCF"/>
<path d="M71.9638 125.023L74.4161 125.668L75.2528 122.487H71.9638V125.023ZM66.7569 144.819L64.3046 144.174L66.7569 144.819ZM70.1662 147.281L71.5492 149.407L71.5492 149.407L70.1662 147.281ZM104.369 125.023V122.487H103.617L102.986 122.898L104.369 125.023ZM29.7655 33.2434C29.7655 26.5523 35.1896 21.1282 41.8806 21.1282V16.0567C32.3887 16.0567 24.694 23.7515 24.694 33.2434H29.7655ZM29.7655 110.372V33.2434H24.694V110.372H29.7655ZM41.8806 122.487C35.1896 122.487 29.7655 117.063 29.7655 110.372H24.694C24.694 119.864 32.3887 127.559 41.8806 127.559V122.487ZM71.9638 122.487H41.8806V127.559H71.9638V122.487ZM69.2092 145.464L74.4161 125.668L69.5115 124.378L64.3046 144.174L69.2092 145.464ZM68.7831 145.156C68.8039 145.142 68.872 145.114 68.9593 145.119C69.031 145.122 69.0765 145.146 69.1017 145.164C69.1269 145.182 69.1632 145.218 69.1892 145.285C69.2208 145.366 69.2155 145.44 69.2092 145.464L64.3046 144.174C63.1903 148.41 67.8776 151.796 71.5492 149.407L68.7831 145.156ZM102.986 122.898L68.7831 145.156L71.5492 149.407L105.752 127.149L102.986 122.898ZM153.473 122.487H104.369V127.559H153.473V122.487ZM165.588 110.372C165.588 117.063 160.164 122.487 153.473 122.487V127.559C162.965 127.559 170.66 119.864 170.66 110.372H165.588ZM165.588 33.2433V110.372H170.66V33.2433H165.588ZM153.473 21.1282C160.164 21.1282 165.588 26.5523 165.588 33.2433H170.66C170.66 23.7514 162.965 16.0567 153.473 16.0567V21.1282ZM41.8806 21.1282H153.473V16.0567H41.8806V21.1282Z" fill="#CFCFCF" mask="url(#path-1-outside-1_1434_69784)"/>
<mask id="path-3-outside-2_1434_69784" maskUnits="userSpaceOnUse" x="31.5635" y="11.3333" width="146" height="134" fill="black">
<rect fill="white" x="31.5635" y="11.3333" width="146" height="134"/>
<path fill-rule="evenodd" clip-rule="evenodd" d="M49.5635 13.3333C40.7269 13.3333 33.5635 20.4968 33.5635 29.3333V104C33.5635 112.837 40.7269 120 49.5635 120L78.3966 120L73.0075 140.489C72.5422 142.258 74.4995 143.671 76.0326 142.674L110.874 120L158.77 120C167.607 120 174.77 112.837 174.77 104V29.3333C174.77 20.4968 167.607 13.3333 158.77 13.3333H49.5635Z"/>
</mask>
<path fill-rule="evenodd" clip-rule="evenodd" d="M49.5635 13.3333C40.7269 13.3333 33.5635 20.4968 33.5635 29.3333V104C33.5635 112.837 40.7269 120 49.5635 120L78.3966 120L73.0075 140.489C72.5422 142.258 74.4995 143.671 76.0326 142.674L110.874 120L158.77 120C167.607 120 174.77 112.837 174.77 104V29.3333C174.77 20.4968 167.607 13.3333 158.77 13.3333H49.5635Z" fill="#F5F5F5"/>
<path d="M49.5635 120V118V120ZM78.3966 120L80.3308 120.509L80.9907 118H78.3966V120ZM73.0075 140.489L74.9417 140.997L73.0075 140.489ZM76.0326 142.674L77.1235 144.35H77.1235L76.0326 142.674ZM110.874 120V118H110.281L109.783 118.324L110.874 120ZM158.77 120V118V120ZM35.5635 29.3333C35.5635 21.6013 41.8315 15.3333 49.5635 15.3333V11.3333C39.6224 11.3333 31.5635 19.3922 31.5635 29.3333H35.5635ZM35.5635 104V29.3333H31.5635V104H35.5635ZM49.5635 118C41.8315 118 35.5635 111.732 35.5635 104H31.5635C31.5635 113.941 39.6224 122 49.5635 122V118ZM78.3966 118L49.5635 118V122L78.3966 122V118ZM74.9417 140.997L80.3308 120.509L76.4624 119.491L71.0733 139.98L74.9417 140.997ZM74.9417 140.997C74.9321 141.004 74.9263 141.006 74.9244 141.007C74.9225 141.008 74.9232 141.008 74.9261 141.007C74.9289 141.006 74.9328 141.005 74.9372 141.005C74.9416 141.004 74.9456 141.004 74.949 141.004C74.9559 141.005 74.9581 141.006 74.9558 141.005C74.9531 141.004 74.9478 141.002 74.9417 140.997C74.9356 140.993 74.9316 140.989 74.9299 140.986C74.9284 140.984 74.9302 140.986 74.9326 140.993C74.9339 140.996 74.9351 141 74.936 141.004C74.937 141.008 74.9375 141.012 74.9376 141.015C74.9378 141.018 74.9376 141.019 74.9378 141.017C74.938 141.015 74.9388 141.008 74.9417 140.997L71.0733 139.98C70.1427 143.518 74.0572 146.345 77.1235 144.35L74.9417 140.997ZM109.783 118.324L74.9417 140.997L77.1235 144.35L111.965 121.676L109.783 118.324ZM158.77 118L110.874 118V122L158.77 122V118ZM172.77 104C172.77 111.732 166.502 118 158.77 118V122C168.711 122 176.77 113.941 176.77 104H172.77ZM172.77 29.3333V104H176.77V29.3333H172.77ZM158.77 15.3333C166.502 15.3333 172.77 21.6014 172.77 29.3333H176.77C176.77 19.3922 168.711 11.3333 158.77 11.3333V15.3333ZM49.5635 15.3333H158.77V11.3333H49.5635V15.3333Z" fill="black" mask="url(#path-3-outside-2_1434_69784)"/>
<path d="M57.7849 60.3145C57.0451 58.8509 54.9549 58.8509 54.2151 60.3145L52.2528 64.1966L47.905 64.8135C46.2497 65.0483 45.5961 67.0898 46.8071 68.2424L49.9223 71.2072L49.1828 75.4172C48.8969 77.0447 50.5959 78.2971 52.0659 77.5426L56 75.5232L59.9341 77.5425C61.4041 78.2971 63.1031 77.0447 62.8172 75.4172L62.0777 71.2072L65.1929 68.2424C66.4039 67.0898 65.7503 65.0483 64.095 64.8135L59.7472 64.1966L57.7849 60.3145Z" fill="#F4A54B" stroke="black" stroke-width="2"/>
<path d="M81.7849 60.3145C81.0451 58.8509 78.9549 58.8509 78.2151 60.3145L76.2528 64.1966L71.905 64.8135C70.2497 65.0483 69.5961 67.0898 70.8071 68.2424L73.9223 71.2072L73.1828 75.4172C72.8969 77.0447 74.5959 78.2971 76.0659 77.5426L80 75.5232L83.9341 77.5425C85.4041 78.2971 87.1031 77.0447 86.8172 75.4172L86.0777 71.2072L89.1929 68.2424C90.4039 67.0898 89.7503 65.0483 88.095 64.8135L83.7472 64.1966L81.7849 60.3145Z" fill="#F4A54B" stroke="black" stroke-width="2"/>
<path d="M105.785 60.3145C105.045 58.8509 102.955 58.8509 102.215 60.3145L100.253 64.1966L95.905 64.8135C94.2497 65.0483 93.5961 67.0898 94.8071 68.2424L97.9223 71.2072L97.1828 75.4172C96.8969 77.0447 98.5959 78.2971 100.066 77.5426L104 75.5232L107.934 77.5425C109.404 78.2971 111.103 77.0447 110.817 75.4172L110.078 71.2072L113.193 68.2424C114.404 67.0898 113.75 65.0483 112.095 64.8135L107.747 64.1966L105.785 60.3145Z" fill="#F4A54B" stroke="black" stroke-width="2"/>
<path d="M129.785 60.3145C129.045 58.8509 126.955 58.8509 126.215 60.3145L124.253 64.1966L119.905 64.8135C118.25 65.0483 117.596 67.0898 118.807 68.2424L121.922 71.2072L121.183 75.4172C120.897 77.0447 122.596 78.2971 124.066 77.5426L128 75.5232L131.934 77.5425C133.404 78.2971 135.103 77.0447 134.817 75.4172L134.078 71.2072L137.193 68.2424C138.404 67.0898 137.75 65.0483 136.095 64.8135L131.747 64.1966L129.785 60.3145Z" fill="#F4A54B" stroke="black" stroke-width="2"/>
<path d="M153.785 60.3145C153.045 58.8509 150.955 58.8509 150.215 60.3145L148.253 64.1966L143.905 64.8135C142.25 65.0483 141.596 67.0898 142.807 68.2424L145.922 71.2072L145.183 75.4172C144.897 77.0447 146.596 78.2971 148.066 77.5426L152 75.5232L155.934 77.5425C157.404 78.2971 159.103 77.0447 158.817 75.4172L158.078 71.2072L161.193 68.2424C162.404 67.0898 161.75 65.0483 160.095 64.8135L155.747 64.1966L153.785 60.3145Z" fill="#F4A54B" stroke="black" stroke-width="2"/>
<path d="M113.624 18.6666H152.287C161.124 18.6666 168.287 25.83 168.287 34.6666V92.4999" stroke="white" stroke-width="3" stroke-linecap="round"/>
</svg>
