<svg width="162" height="160" viewBox="0 0 162 160" fill="none" xmlns="http://www.w3.org/2000/svg">
<ellipse cx="107.671" cy="135.8" rx="47.9" ry="15.6" fill="#BDBDBD"/>
<ellipse rx="34.9495" ry="15.072" transform="matrix(4.37114e-08 1 1 -4.37114e-08 76.2429 98.1494)" fill="#E1E1E1"/>
<path fill-rule="evenodd" clip-rule="evenodd" d="M76.2429 64.0846L76.2429 63.1999L140.886 63.1999L140.9 63.1999C151.757 63.1998 160.559 78.8473 160.559 98.1494C160.559 117.451 151.757 133.099 140.9 133.099L140.873 133.099L76.2429 133.099L76.2429 132.214C84.1847 131.751 90.5613 116.677 90.5613 98.1493C90.5613 79.6219 84.1847 64.548 76.2429 64.0846Z" fill="#E1E1E1"/>
<path d="M101.415 116.716C95.999 116.716 91.1835 120.223 88.8823 125.126C86.5244 130.15 80.3931 132.225 80.3931 132.225L143.443 132.225C143.996 132.225 144.549 132.2 145.084 132.061C146.664 131.648 150.254 130.257 153.121 125.785C155.872 121.495 151.174 116.716 146.078 116.716L101.415 116.716Z" fill="#BDBDBD" fill-opacity="0.5"/>
<path d="M76.2429 133.099L140.899 133.099C151.757 133.099 160.559 117.451 160.559 98.1494C160.559 78.8473 151.757 63.1999 140.899 63.1999L76.2429 63.1999C67.9189 63.1999 61.1709 79.3298 61.1709 98.1494C61.1709 116.969 67.8096 133.099 76.1337 133.099" stroke="#351512" stroke-width="2" stroke-linecap="round" stroke-linejoin="round"/>
<path fill-rule="evenodd" clip-rule="evenodd" d="M84.96 119.777C87.0931 113.863 88.3769 106.244 88.3769 97.931C88.3769 85.35 85.4367 74.3615 81.0626 68.4587C79.8335 67.6005 78.5041 67.1317 77.1166 67.1317C70.8435 67.1317 65.7581 76.7157 65.7581 88.5382C65.7581 100.361 77.3965 120.102 83.6697 120.102C84.1424 120.102 84.5712 119.99 84.96 119.777Z" fill="#BDBDBD" fill-opacity="0.5"/>
<path d="M76.2429 129.604C83.7606 129.604 89.8548 115.472 89.8548 98.0401C89.8548 80.6079 83.7606 66.4763 76.2429 66.4763" stroke="black" stroke-width="2" stroke-linecap="round"/>
<line opacity="0.5" x1="1" y1="-1" x2="54.7008" y2="-1" transform="matrix(1 -2.18557e-07 -8.74228e-09 -1 88.2567 68.4423)" stroke="white" stroke-width="2" stroke-linecap="round"/>
<path d="M133.386 149.423L132.391 149.519L102.639 152.382L102.639 152.382L102.629 152.383C98.673 152.723 94.7429 151.463 91.6855 148.938L92.3222 148.167L91.6855 148.938C88.5835 146.377 86.6251 142.687 86.2405 138.68C85.8559 134.673 87.0766 130.677 89.6344 127.571C90.4826 126.541 91.3203 125.802 92.2309 125.274C93.1426 124.745 94.0795 124.455 95.0857 124.267C97.5443 123.805 99.6408 125.744 99.8626 128.054C99.9881 129.362 99.4134 130.272 98.7133 130.956C98.3804 131.282 98.0027 131.574 97.6595 131.835C97.6246 131.862 97.59 131.888 97.5556 131.915C97.2378 132.156 96.9438 132.38 96.6644 132.626C96.5601 132.718 96.431 132.852 96.2701 133.047C95.163 134.391 94.6343 136.121 94.8009 137.856C94.9674 139.591 95.8154 141.189 97.1578 142.297C98.5014 143.407 100.229 143.939 101.959 143.773L131.566 140.923L132.561 140.828C134.046 140.685 135.413 139.957 136.363 138.804C137.312 137.651 137.765 136.167 137.623 134.679C137.571 134.138 137.548 133.751 137.531 133.437C137.486 132.661 137.468 132.338 137.087 131.249C136.969 130.912 136.761 130.565 136.475 130.174C136.333 129.98 136.182 129.787 136.021 129.582L136.005 129.562C135.852 129.367 135.688 129.159 135.534 128.949C134.926 128.118 134.195 126.901 134.822 125.44L135.731 125.83L134.822 125.44L134.956 125.128C135.375 124.153 136.209 123.299 137.352 123.018C138.256 122.797 139.157 122.723 140.165 123.01C141.144 123.289 142.133 123.885 143.276 124.829C146.325 127.346 146.598 130.196 146.93 133.655L146.935 133.704C147.308 137.586 145.332 141.487 143.018 144.297C140.827 146.958 137.754 148.726 134.378 149.292L134.381 149.327L133.386 149.423Z" fill="#CFCFCF" stroke="#351512" stroke-width="2"/>
<path d="M85.4962 97.3876C86.0416 97.3009 86.4135 96.7885 86.3269 96.243C86.2402 95.6976 85.7278 95.3257 85.1823 95.4124L85.4962 97.3876ZM40.7393 119.9L40.4769 118.935L40.7393 119.9ZM8.13925 113.4L7.3716 114.041L8.13925 113.4ZM4.0393 82.6L4.99478 82.8951L4.0393 82.6ZM35.1393 54.7L35.3739 55.6721L35.1393 54.7ZM76.2393 46.2L77.0022 46.8465L76.2393 46.2ZM72.4939 22.465C71.9776 22.2691 71.4002 22.529 71.2043 23.0453C71.0084 23.5617 71.2682 24.1391 71.7846 24.335L72.4939 22.465ZM76.1436 26.9453C76.5485 27.321 77.1812 27.2973 77.5568 26.8924C77.9324 26.4875 77.9087 25.8548 77.5039 25.4792L76.1436 26.9453ZM79.9763 41.8876C80.187 41.3771 79.944 40.7925 79.4334 40.5818C78.9229 40.3711 78.3383 40.6142 78.1276 41.1247L79.9763 41.8876ZM72.434 47.9948C71.9534 48.2668 71.7843 48.877 72.0564 49.3576C72.3284 49.8383 72.9386 50.0073 73.4192 49.7353L72.434 47.9948ZM60.7628 53.2312C61.3109 53.1633 61.7001 52.6639 61.6322 52.1158C61.5643 51.5677 61.065 51.1784 60.5169 51.2463L60.7628 53.2312ZM52.0613 51.9749C51.5101 52.0095 51.0913 52.4843 51.1258 53.0355C51.1604 53.5867 51.6353 54.0055 52.1865 53.971L52.0613 51.9749ZM39.4681 54.9461C40.0158 54.8751 40.4023 54.3736 40.3313 53.8258C40.2603 53.2781 39.7587 52.8917 39.211 52.9627L39.4681 54.9461ZM30.5937 54.8831C30.0648 55.0422 29.765 55.5998 29.9241 56.1287C30.0831 56.6576 30.6408 56.9574 31.1697 56.7984L30.5937 54.8831ZM19.4687 62.1696C19.9257 61.8595 20.0448 61.2376 19.7346 60.7806C19.4245 60.3237 18.8026 60.2046 18.3456 60.5147L19.4687 62.1696ZM11.5656 66.5077C11.2021 66.9235 11.2444 67.5553 11.6602 67.9188C12.0759 68.2823 12.7077 68.24 13.0712 67.8243L11.5656 66.5077ZM6.44382 78.8152C6.65133 78.3033 6.40464 77.7202 5.89282 77.5127C5.381 77.3052 4.79787 77.5519 4.59036 78.0637L6.44382 78.8152ZM2.15909 85.4999C2.01596 86.0333 2.33235 86.5818 2.86577 86.7249C3.39918 86.868 3.94763 86.5517 4.09076 86.0182L2.15909 85.4999ZM2.4365 95.4953C2.4645 94.9437 2.04006 94.4739 1.48849 94.4459C0.936916 94.4178 0.467074 94.8423 0.439069 95.3939L2.4365 95.4953ZM0.961678 102.189C1.08283 102.728 1.61786 103.067 2.15669 102.946C2.69552 102.824 3.03412 102.289 2.91296 101.751L0.961678 102.189ZM6.9307 110.225C6.60807 109.777 5.98314 109.675 5.5349 109.998C5.08665 110.32 4.98482 110.945 5.30745 111.394L6.9307 110.225ZM9.91404 116.696C10.3233 117.067 10.9557 117.036 11.3265 116.627C11.6974 116.217 11.6662 115.585 11.257 115.214L9.91404 116.696ZM20.0643 120.053C19.5319 119.906 18.9812 120.218 18.8344 120.751C18.6875 121.283 19 121.834 19.5324 121.981L20.0643 120.053ZM26.7741 122.969C27.3263 122.977 27.7808 122.537 27.7892 121.984C27.7977 121.432 27.3568 120.978 26.8046 120.969L26.7741 122.969ZM37.0902 119.777C36.5512 119.897 36.2116 120.431 36.3317 120.97C36.4518 121.509 36.9862 121.849 37.5252 121.729L37.0902 119.777ZM44.3402 119.837C44.862 119.657 45.1384 119.087 44.9576 118.565C44.7767 118.043 44.2071 117.767 43.6852 117.948L44.3402 119.837ZM52.5985 113.539C52.1408 113.848 52.0202 114.469 52.3291 114.927C52.6381 115.385 53.2597 115.505 53.7175 115.196L52.5985 113.539ZM59.1763 110.894C59.5908 110.529 59.6308 109.897 59.2658 109.482C58.9008 109.068 58.2689 109.028 57.8544 109.393L59.1763 110.894ZM65.7619 102.736C65.3117 103.055 65.206 103.68 65.5258 104.13C65.8457 104.58 66.4699 104.686 66.9202 104.366L65.7619 102.736ZM72.6577 101.046C73.1597 100.815 73.38 100.222 73.1497 99.7197C72.9195 99.2177 72.3259 98.9974 71.8239 99.2277L72.6577 101.046ZM81.7577 96.0436C81.2174 96.1579 80.8721 96.6887 80.9864 97.229C81.1008 97.7693 81.6315 98.1146 82.1718 98.0003L81.7577 96.0436ZM71.7846 24.335C73.6144 25.029 75.0438 25.925 76.1436 26.9453L77.5039 25.4792C76.1946 24.2644 74.537 23.2399 72.4939 22.465L71.7846 24.335ZM78.1276 41.1247C77.4296 42.8159 76.5034 44.3416 75.4764 45.5535L77.0022 46.8465C78.1744 45.4633 79.2055 43.7555 79.9763 41.8876L78.1276 41.1247ZM75.4764 45.5535C74.6769 46.4969 73.6549 47.3037 72.434 47.9948L73.4192 49.7353C74.8028 48.9522 76.0216 48.0036 77.0022 46.8465L75.4764 45.5535ZM60.5169 51.2463C57.7887 51.5843 54.9254 51.7952 52.0613 51.9749L52.1865 53.971C55.0595 53.7907 57.9722 53.5769 60.7628 53.2312L60.5169 51.2463ZM39.211 52.9627C37.6806 53.1611 36.2314 53.4077 34.9046 53.7279L35.3739 55.6721C36.6096 55.3738 37.9837 55.1385 39.4681 54.9461L39.211 52.9627ZM34.9046 53.7279C33.5335 54.0589 32.0864 54.4343 30.5937 54.8831L31.1697 56.7984C32.6161 56.3634 34.0254 55.9976 35.3739 55.6721L34.9046 53.7279ZM18.3456 60.5147C15.981 62.1195 13.6869 64.0819 11.5656 66.5077L13.0712 67.8243C15.0721 65.536 17.2354 63.6853 19.4687 62.1696L18.3456 60.5147ZM4.59036 78.0637C4.0479 79.4017 3.54429 80.8139 3.08383 82.3049L4.99478 82.8951C5.43898 81.4567 5.92355 80.0984 6.44382 78.8152L4.59036 78.0637ZM3.08383 82.3049C2.74266 83.4096 2.4345 84.4735 2.15909 85.4999L4.09076 86.0182C4.35908 85.0183 4.66021 83.9784 4.99478 82.8951L3.08383 82.3049ZM0.439069 95.3939C0.314002 97.8572 0.489723 100.09 0.961678 102.189L2.91296 101.751C2.48543 99.8491 2.31951 97.7995 2.4365 95.4953L0.439069 95.3939ZM5.30745 111.394C5.93966 112.272 6.62864 113.151 7.3716 114.041L8.90689 112.759C8.18897 111.899 7.53025 111.058 6.9307 110.225L5.30745 111.394ZM7.3716 114.041C8.18744 115.018 9.03632 115.901 9.91404 116.696L11.257 115.214C10.4498 114.483 9.66497 113.667 8.90689 112.759L7.3716 114.041ZM19.5324 121.981C21.915 122.638 24.3504 122.932 26.7741 122.969L26.8046 120.969C24.521 120.934 22.2574 120.658 20.0643 120.053L19.5324 121.981ZM37.5252 121.729C38.7122 121.464 39.8739 121.172 41.0016 120.865L40.4769 118.935C39.3735 119.235 38.2421 119.52 37.0902 119.777L37.5252 121.729ZM41.0016 120.865C42.1813 120.544 43.2915 120.201 44.3402 119.837L43.6852 117.948C42.6811 118.296 41.6144 118.626 40.4769 118.935L41.0016 120.865ZM53.7175 115.196C55.7645 113.815 57.5191 112.353 59.1763 110.894L57.8544 109.393C56.2246 110.828 54.5431 112.226 52.5985 113.539L53.7175 115.196ZM66.9202 104.366C68.5946 103.177 70.4568 102.055 72.6577 101.046L71.8239 99.2277C69.4971 100.295 67.527 101.482 65.7619 102.736L66.9202 104.366ZM82.1718 98.0003C83.2223 97.7779 84.3286 97.5731 85.4962 97.3876L85.1823 95.4124C83.9829 95.603 82.843 95.8139 81.7577 96.0436L82.1718 98.0003Z" fill="black"/>
<ellipse cx="62.8392" cy="21.7" rx="3.9" ry="3.9" fill="black"/>
<path d="M60.1392 20.259L60.6526 21.1171L61.2374 20.7673L61.1257 20.0951L60.1392 20.259ZM60.1392 20.259C61.1257 20.0951 61.1256 20.0948 61.1256 20.0944L61.1254 20.0936L61.1251 20.0917L61.1242 20.0863L61.1213 20.0697C61.1189 20.0561 61.1155 20.0374 61.1111 20.0139C61.1024 19.9669 61.0894 19.9008 61.072 19.8179C61.037 19.6523 60.9836 19.419 60.908 19.1379C60.7574 18.5782 60.5152 17.8159 60.1482 17.0156C59.4368 15.4642 58.1393 13.52 55.8921 12.9325L55.83 12.9163L55.7663 12.9081C54.1433 12.7001 52.6915 13.0702 51.6261 13.8972C50.5568 14.7272 49.9392 15.9733 49.9392 17.359C49.9392 18.4042 49.967 19.4891 50.5808 20.4148C51.2005 21.3495 52.2799 21.9343 53.823 22.4487C55.4121 22.9784 57.1818 22.5706 58.4152 22.1383C59.0566 21.9135 59.6094 21.6616 60.0018 21.4662C60.1988 21.3682 60.3572 21.2834 60.4683 21.2221C60.5239 21.1914 60.5677 21.1665 60.5988 21.1486L60.6357 21.1271L60.6467 21.1206L60.6503 21.1185L60.6516 21.1177L60.6521 21.1174C60.6523 21.1173 60.6526 21.1171 60.1392 20.259Z" fill="#C4C4C4" stroke="black" stroke-width="2"/>
<path d="M64.4222 18.7005L63.6564 19.3435L64.0946 19.8654L64.7406 19.6484L64.4222 18.7005ZM64.4222 18.7005C64.7406 19.6484 64.7409 19.6483 64.7412 19.6482L64.742 19.648L64.7438 19.6473L64.749 19.6456L64.7649 19.6401C64.778 19.6356 64.7959 19.6293 64.8184 19.6212C64.8634 19.6051 64.9267 19.5818 65.0057 19.5514C65.1637 19.4906 65.3855 19.4009 65.6511 19.2816C66.1798 19.044 66.8939 18.6839 67.6258 18.1945C69.0446 17.246 70.7583 15.6563 70.9816 13.3443L70.9878 13.2804L70.9857 13.2162C70.9335 11.5808 70.3376 10.2062 69.352 9.28546C68.3628 8.36151 67.0345 7.94954 65.6664 8.16948C64.6344 8.33539 63.5676 8.53508 62.7511 9.28794C61.9266 10.0482 61.5206 11.2067 61.2576 12.8119C60.9869 14.4649 61.6705 16.1475 62.293 17.2967C62.6168 17.8942 62.9533 18.4001 63.2084 18.7565C63.3365 18.9354 63.4453 19.0783 63.5235 19.1783C63.5627 19.2283 63.5942 19.2676 63.6168 19.2954L63.6438 19.3284L63.652 19.3383L63.6547 19.3415L63.6556 19.3427L63.656 19.3431C63.6562 19.3433 63.6564 19.3435 64.4222 18.7005Z" fill="#C4C4C4" stroke="black" stroke-width="2"/>
</svg>
