<svg width="269" height="464" viewBox="0 0 269 464" fill="none" xmlns="http://www.w3.org/2000/svg">
<ellipse cx="138.266" cy="422.509" rx="109.325" ry="40.7651" fill="black" fill-opacity="0.1"/>
<path d="M164.616 353.051L162.157 352.815L161.921 355.274C160.906 365.82 164.127 376.336 170.876 384.508C177.624 392.681 187.347 397.841 197.904 398.854C208.461 399.868 218.989 396.652 227.172 389.912C234.717 383.699 239.699 374.96 241.226 365.369L241.302 365.376L241.539 362.917C241.539 362.917 241.539 362.917 241.539 362.917L241.775 360.457L249.906 275.977L249.908 275.964L249.909 275.951C250.861 264.86 247.329 253.839 240.249 245.264C233.066 236.566 222.719 231.074 211.483 229.996C200.247 228.917 189.042 232.34 180.332 239.513C171.623 246.685 166.122 257.02 165.042 268.243L164.805 270.703L167.265 270.939L185.867 272.725L188.325 272.961L188.562 270.502C189.042 265.512 191.488 260.916 195.363 257.725C199.237 254.534 204.223 253.011 209.223 253.491C214.223 253.971 218.827 256.414 222.021 260.283C225.218 264.155 226.753 269.134 226.273 274.121L218.182 358.193L217.945 360.651C217.532 364.944 215.428 368.898 212.095 371.643C208.762 374.388 204.472 375.699 200.171 375.286C195.869 374.873 191.909 372.771 189.16 369.442C186.412 366.114 185.101 361.833 185.514 357.54L185.751 355.08L183.291 354.844L164.616 353.051Z" fill="#E1E1E1" stroke="#351512" stroke-width="4.94123"/>
<path fill-rule="evenodd" clip-rule="evenodd" d="M217.326 233.497C215.342 232.991 213.31 232.635 211.247 232.437C200.662 231.421 190.107 234.646 181.903 241.402C173.699 248.158 168.519 257.892 167.501 268.462L186.103 270.248C186.646 264.604 189.412 259.407 193.792 255.8C198.172 252.193 203.808 250.471 209.459 251.013C212.234 251.28 214.902 252.082 217.326 253.347V233.497ZM217.326 369.491C216.318 370.996 215.089 372.36 213.666 373.533C209.827 376.694 204.888 378.203 199.935 377.727C194.982 377.252 190.421 374.831 187.255 370.998C184.09 367.164 182.579 362.231 183.055 357.285L164.38 355.493C163.428 365.385 166.45 375.25 172.781 382.917C179.112 390.585 188.234 395.426 198.14 396.377C204.764 397.013 211.376 395.874 217.326 393.159V369.491Z" fill="#BDBDBD" fill-opacity="0.5"/>
<path fill-rule="evenodd" clip-rule="evenodd" d="M5.50161 214.977H2.99997V397.758L2.99994 397.802C2.99994 428.503 47.2452 453.391 101.825 453.391C156.404 453.391 200.649 428.503 200.649 397.802V214.977H198.147C196.837 237.434 154.213 255.464 101.825 255.464C49.4357 255.464 6.81223 237.434 5.50161 214.977Z" fill="#E1E1E1"/>
<path d="M154.325 269.465C154.325 264.093 157.787 259.315 162.785 257.345C166.782 255.769 172.018 253.574 178.105 250.717C192.311 244.05 198.178 226.712 198.178 226.712V406.829C198.178 407.17 198.163 407.502 198.106 407.839C197.665 410.452 194.847 422.821 179.968 432.361C175.962 434.93 170.047 436.592 164.908 437.632C159.255 438.776 154.325 434.251 154.325 428.484V269.465Z" fill="#BDBDBD" fill-opacity="0.5"/>
<ellipse cx="101.825" cy="214.977" rx="98.8246" ry="42.6181" fill="#E1E1E1"/>
<path d="M200.649 214.977V397.802C200.649 428.503 156.404 453.391 101.825 453.391C47.2453 453.391 3 428.503 3 397.802V214.977C3 191.44 48.6097 172.359 101.825 172.359C155.039 172.359 200.649 191.131 200.649 214.668" stroke="#351512" stroke-width="4.94123" stroke-linecap="round" stroke-linejoin="round"/>
<path fill-rule="evenodd" clip-rule="evenodd" d="M162.981 239.626C146.256 245.657 124.715 249.288 101.207 249.288C65.6327 249.288 34.561 240.974 17.8702 228.605C15.4435 225.13 14.1177 221.371 14.1177 217.448C14.1177 199.709 41.218 185.33 74.6478 185.33C108.078 185.33 163.899 218.239 163.899 235.977C163.899 237.314 163.582 238.526 162.981 239.626Z" fill="#BDBDBD" fill-opacity="0.5"/>
<path fill-rule="evenodd" clip-rule="evenodd" d="M29.0453 237.124C47.0786 228.816 72.7368 223.624 101.207 223.624C129.677 223.624 155.335 228.816 173.369 237.124C155.716 245.721 129.929 251.14 101.207 251.14C72.485 251.14 46.6982 245.721 29.0453 237.124Z" fill="#724B37"/>
<path d="M190.767 214.977C190.767 236.234 150.808 253.467 101.516 253.467C52.2238 253.467 12.2648 236.234 12.2648 214.977" stroke="black" stroke-width="4.94123" stroke-linecap="round"/>
<line opacity="0.5" x1="22.7649" y1="253.889" x2="22.7649" y2="401.508" stroke="white" stroke-width="9.88246" stroke-linecap="round"/>
<path d="M51.3516 176.645C34.6098 217.432 85.1405 234.819 112.499 238.414C98.656 226.649 73.1944 198.412 82.0885 179.587C93.2061 156.056 155.661 162.919 186.725 154.749C217.789 146.578 257.403 121.932 264.875 93.3066C272.723 63.2391 271.088 35.7866 219.751 13.5628C166.64 -9.4285 73.2042 1.14369 91.5155 13.5628C109.827 25.9819 182.801 53.7615 151.737 93.3066C120.673 132.852 72.2789 125.662 51.3516 176.645Z" fill="#C4C4C4" fill-opacity="0.3"/>
<path d="M78.1646 25.3285C93.2061 27.6162 116.749 33.1721 114.133 53.7617L108.088 62.8248C107.75 63.5226 107.347 64.1026 106.94 64.5467L108.088 62.8248C109.741 59.4147 109.85 53.1901 101.381 46.2449C88.6282 35.7867 57.5643 45.2644 44.8118 37.4208C32.0592 29.5771 51.3515 10.6216 51.3515 13.563C51.3515 16.5043 63.1231 23.0407 78.1646 25.3285Z" fill="#C4C4C4" fill-opacity="0.3"/>
</svg>
