<svg width="99" height="162" viewBox="0 0 99 162" fill="none" xmlns="http://www.w3.org/2000/svg">
<ellipse cx="47.2394" cy="148.145" rx="37.1559" ry="13.8547" fill="#BDBDBD" fill-opacity="0.5"/>
<path d="M56.1887 124.628L55.4424 124.556L55.3705 125.303C55.0278 128.863 56.1155 132.414 58.394 135.173C60.6724 137.932 63.955 139.674 67.5193 140.017C71.0836 140.359 74.6382 139.273 77.4011 136.997C80.164 134.722 81.9089 131.444 82.2516 127.883L85.0955 98.335L85.0955 98.335L85.0962 98.3273C85.4178 94.5816 84.2251 90.8592 81.8333 87.9626C79.4074 85.0247 75.9124 83.1698 72.1173 82.8055C68.3222 82.4412 64.5376 83.5974 61.5959 86.02C58.6541 88.4425 56.7963 91.9331 56.4314 95.724L56.3596 96.4707L57.1063 96.5424L63.4283 97.1492L64.1747 97.2209L64.2465 96.4745C64.412 94.7547 65.2549 93.1708 66.5901 92.0713C67.9253 90.9717 69.6433 90.4467 71.3663 90.6121C73.0894 90.7775 74.6757 91.6196 75.7767 92.9529C76.8783 94.2871 77.4074 96.0029 77.2419 97.7215L74.4115 127.13C74.2688 128.613 73.5421 129.979 72.3909 130.927C71.2397 131.875 69.7583 132.328 68.2727 132.185C66.787 132.042 65.4192 131.316 64.47 130.167C63.5208 129.017 63.0679 127.538 63.2106 126.056L63.2825 125.309L62.5357 125.237L56.1887 124.628Z" fill="#E1E1E1" stroke="#351512" stroke-width="1.5"/>
<path fill-rule="evenodd" clip-rule="evenodd" d="M74.1127 83.9063C73.4383 83.7344 72.7477 83.6133 72.0463 83.546C68.4489 83.2007 64.8615 84.2967 62.0733 86.5928C59.2851 88.889 57.5244 92.1972 57.1787 95.7897L63.5006 96.3966C63.6852 94.4785 64.6253 92.7121 66.114 91.4862C67.6026 90.2603 69.518 89.6751 71.4387 89.8595C72.3821 89.95 73.2888 90.2226 74.1127 90.6526V83.9063ZM74.1127 130.126C73.7703 130.637 73.3524 131.101 72.8683 131.5C71.5636 132.574 69.885 133.087 68.2017 132.925C66.5183 132.764 64.9682 131.941 63.8924 130.638C62.8165 129.335 62.3029 127.659 62.4647 125.978L56.1177 125.368C55.7942 128.731 56.8212 132.083 58.973 134.689C61.1248 137.295 64.225 138.941 67.5916 139.264C69.8431 139.48 72.0905 139.093 74.1127 138.17V130.126Z" fill="#BDBDBD" fill-opacity="0.5"/>
<path fill-rule="evenodd" clip-rule="evenodd" d="M2.11411 77.6119H1.2641V139.748V139.748C1.2641 150.183 16.3016 158.641 34.8513 158.641C53.401 158.641 68.4386 150.183 68.4386 139.748V139.748V77.6119H67.5881C67.1429 85.2442 52.6565 91.3723 34.8511 91.3723C17.0458 91.3723 2.55937 85.2442 2.11411 77.6119Z" fill="#E1E1E1"/>
<path d="M52.6938 96.5011C52.6938 94.4548 54.0129 92.6345 55.913 91.8749C57.2225 91.3514 58.8774 90.6498 60.7758 89.7588C65.6039 87.4928 67.5982 81.6005 67.5982 81.6005V142.795C67.5982 142.925 67.592 143.053 67.5698 143.181C67.4084 144.113 66.4263 148.277 61.4091 151.494C60.1581 152.296 58.3594 152.838 56.7206 153.195C54.5738 153.663 52.6938 151.933 52.6938 149.736V96.5011Z" fill="#BDBDBD" fill-opacity="0.5"/>
<ellipse cx="34.8513" cy="77.6119" rx="33.5872" ry="14.4845" fill="#E1E1E1"/>
<path d="M68.4386 77.6119V139.748C68.4386 150.183 53.401 158.641 34.8513 158.641C16.3016 158.641 1.2641 150.183 1.2641 139.748V77.6119C1.2641 69.6124 16.7654 63.1274 34.8513 63.1274C52.9373 63.1274 68.4386 69.5074 68.4386 77.507" stroke="#351512" stroke-width="1.5" stroke-linecap="round" stroke-linejoin="round"/>
<path fill-rule="evenodd" clip-rule="evenodd" d="M55.6336 85.9895C49.9495 88.0391 42.6288 89.2728 34.6399 89.2728C22.5472 89.2728 11.9853 86.4461 6.31336 82.2413C5.48976 81.0608 5.03986 79.7842 5.03986 78.4517C5.03986 72.4231 14.2503 67.5359 25.612 67.5359C36.9737 67.5359 55.9455 78.7207 55.9455 84.7493C55.9455 85.2037 55.8377 85.6158 55.6336 85.9895Z" fill="#BDBDBD" fill-opacity="0.5"/>
<path fill-rule="evenodd" clip-rule="evenodd" d="M10.117 85.1386C16.2459 82.3153 24.9659 80.5509 34.6415 80.5509C44.3181 80.5509 53.039 82.3156 59.1679 85.1395C53.1683 88.0612 44.4046 89.9029 34.6434 89.9029C24.8812 89.9029 16.1167 88.0608 10.117 85.1386Z" fill="#724B37"/>
<path d="M65.0785 77.6119C65.0785 84.8365 51.4977 90.6932 34.745 90.6932C17.9923 90.6932 4.41156 84.8365 4.41156 77.6119" stroke="black" stroke-width="1.5" stroke-linecap="round"/>
<line opacity="0.5" x1="7.05084" y1="89.9076" x2="7.05084" y2="141.937" stroke="white" stroke-width="1.5" stroke-linecap="round"/>
<mask id="path-12-outside-1_1076_34531" maskUnits="userSpaceOnUse" x="21.2249" y="0" width="78" height="70" fill="black">
<rect fill="white" x="21.2249" width="78" height="70"/>
<path fill-rule="evenodd" clip-rule="evenodd" d="M31.2249 2C26.8066 2 23.2249 5.58172 23.2249 10V49.3573C23.2249 53.7756 26.8066 57.3573 31.2249 57.3573H46.5653L44.3166 65.8799C43.8775 67.5439 45.7174 68.8759 47.1611 67.9393L63.4727 57.3573H88.7359C93.1542 57.3573 96.7359 53.7756 96.7359 49.3573V10C96.7359 5.58172 93.1542 2 88.7359 2H31.2249Z"/>
</mask>
<path fill-rule="evenodd" clip-rule="evenodd" d="M31.2249 2C26.8066 2 23.2249 5.58172 23.2249 10V49.3573C23.2249 53.7756 26.8066 57.3573 31.2249 57.3573H46.5653L44.3166 65.8799C43.8775 67.5439 45.7174 68.8759 47.1611 67.9393L63.4727 57.3573H88.7359C93.1542 57.3573 96.7359 53.7756 96.7359 49.3573V10C96.7359 5.58172 93.1542 2 88.7359 2H31.2249Z" fill="#F5F5F5"/>
<path d="M46.5653 57.3573L48.0157 57.74L48.5124 55.8573H46.5653V57.3573ZM44.3166 65.8799L42.8662 65.4972L42.8662 65.4972L44.3166 65.8799ZM47.1611 67.9393L47.9775 69.1977L47.9775 69.1977L47.1611 67.9393ZM63.4727 57.3573V55.8573H63.0287L62.6563 56.0989L63.4727 57.3573ZM24.7249 10C24.7249 6.41015 27.635 3.5 31.2249 3.5V0.5C25.9781 0.5 21.7249 4.7533 21.7249 10H24.7249ZM24.7249 49.3573V10H21.7249V49.3573H24.7249ZM31.2249 55.8573C27.635 55.8573 24.7249 52.9472 24.7249 49.3573H21.7249C21.7249 54.604 25.9782 58.8573 31.2249 58.8573V55.8573ZM46.5653 55.8573H31.2249V58.8573H46.5653V55.8573ZM45.767 66.2626L48.0157 57.74L45.1149 56.9746L42.8662 65.4972L45.767 66.2626ZM46.3448 66.6809C46.0515 66.8711 45.6778 66.6006 45.767 66.2626L42.8662 65.4972C42.0773 68.4873 45.3832 70.8807 47.9775 69.1977L46.3448 66.6809ZM62.6563 56.0989L46.3448 66.6809L47.9775 69.1977L64.289 58.6157L62.6563 56.0989ZM88.7359 55.8573H63.4727V58.8573H88.7359V55.8573ZM95.2359 49.3573C95.2359 52.9472 92.3258 55.8573 88.7359 55.8573V58.8573C93.9826 58.8573 98.2359 54.604 98.2359 49.3573H95.2359ZM95.2359 10V49.3573H98.2359V10H95.2359ZM88.7359 3.5C92.3258 3.5 95.2359 6.41015 95.2359 10H98.2359C98.2359 4.75329 93.9826 0.5 88.7359 0.5V3.5ZM31.2249 3.5H88.7359V0.5H31.2249V3.5Z" fill="black" mask="url(#path-12-outside-1_1076_34531)"/>
<path d="M65.739 4.76758H81.9608C88.7182 4.76758 94.1961 10.2455 94.1961 17.0029V43.0852" stroke="white" stroke-width="1.5" stroke-linecap="round"/>
<path d="M58.837 16.0436L55.0533 23.8004L46.5877 25.0483C45.0696 25.271 44.4611 27.1633 45.5621 28.2472L51.6867 34.2816L50.2381 42.8059C49.9774 44.3467 51.5824 45.5009 52.9267 44.7803L60.5 40.7554L68.0733 44.7803C69.4176 45.495 71.0226 44.3467 70.7619 42.8059L69.3133 34.2816L75.4379 28.2472C76.5389 27.1633 75.9304 25.271 74.4123 25.0483L65.9467 23.8004L62.163 16.0436C61.485 14.6609 59.5207 14.6434 58.837 16.0436Z" fill="#F4A54B"/>
</svg>
