<svg width="160" height="120" viewBox="0 0 160 120" fill="none" xmlns="http://www.w3.org/2000/svg">
<mask id="path-1-outside-1_2978_83804" maskUnits="userSpaceOnUse" x="30.0244" y="11.3428" width="63" height="65" fill="black">
<rect fill="white" x="30.0244" y="11.3428" width="63" height="65"/>
<path fill-rule="evenodd" clip-rule="evenodd" d="M52.8623 69.7594C71.5791 69.7594 86.752 54.5865 86.752 35.8697C86.752 27.2218 83.5129 19.3305 78.1817 13.3428C86.1258 19.545 91.2334 29.2115 91.2334 40.0709C91.2334 58.7877 76.0605 73.9606 57.3438 73.9606C47.2749 73.9606 38.2316 69.5695 32.0244 62.5979C37.7723 67.0854 45.005 69.7594 52.8623 69.7594Z"/>
</mask>
<path fill-rule="evenodd" clip-rule="evenodd" d="M52.8623 69.7594C71.5791 69.7594 86.752 54.5865 86.752 35.8697C86.752 27.2218 83.5129 19.3305 78.1817 13.3428C86.1258 19.545 91.2334 29.2115 91.2334 40.0709C91.2334 58.7877 76.0605 73.9606 57.3438 73.9606C47.2749 73.9606 38.2316 69.5695 32.0244 62.5979C37.7723 67.0854 45.005 69.7594 52.8623 69.7594Z" fill="#8D8D8D"/>
<path d="M78.1817 13.3428L79.1929 12.0476L76.9545 14.4354L78.1817 13.3428ZM32.0244 62.5979L33.0356 61.3027L30.7972 63.6905L32.0244 62.5979ZM85.1089 35.8697C85.1089 53.679 70.6716 68.1162 52.8623 68.1162V71.4025C72.4865 71.4025 88.3951 55.4939 88.3951 35.8697H85.1089ZM76.9545 14.4354C82.0281 20.1339 85.1089 27.6401 85.1089 35.8697H88.3951C88.3951 26.8036 84.9976 18.5271 79.4089 12.2501L76.9545 14.4354ZM77.1705 14.6379C84.7329 20.5422 89.5903 29.7388 89.5903 40.0709H92.8766C92.8766 28.6841 87.5186 18.5478 79.1929 12.0476L77.1705 14.6379ZM89.5903 40.0709C89.5903 57.8802 75.153 72.3174 57.3438 72.3174V75.6037C76.968 75.6037 92.8766 59.6951 92.8766 40.0709H89.5903ZM57.3438 72.3174C47.7633 72.3174 39.1602 68.1415 33.2516 61.5052L30.7972 63.6905C37.303 70.9975 46.7865 75.6037 57.3438 75.6037V72.3174ZM52.8623 68.1162C45.3843 68.1162 38.5049 65.5728 33.0356 61.3027L31.0132 63.893C37.0397 68.5981 44.6258 71.4025 52.8623 71.4025V68.1162Z" fill="black" mask="url(#path-1-outside-1_2978_83804)"/>
<mask id="path-3-outside-2_2978_83804" maskUnits="userSpaceOnUse" x="20.0811" y="2.94043" width="61" height="65" fill="black">
<rect fill="white" x="20.0811" y="2.94043" width="61" height="65"/>
<path fill-rule="evenodd" clip-rule="evenodd" d="M36.4843 66.5606C30.2056 60.4094 26.3098 51.8352 26.3098 42.351C26.3098 23.6343 41.4827 8.46138 60.1994 8.46138C67.4527 8.46138 74.1737 10.74 79.6858 14.6205C73.5736 8.63238 65.2033 4.94043 55.9707 4.94043C37.254 4.94043 22.0811 20.1133 22.0811 38.8301C22.0811 50.2936 27.7727 60.4277 36.4843 66.5606Z"/>
</mask>
<path fill-rule="evenodd" clip-rule="evenodd" d="M36.4843 66.5606C30.2056 60.4094 26.3098 51.8352 26.3098 42.351C26.3098 23.6343 41.4827 8.46138 60.1994 8.46138C67.4527 8.46138 74.1737 10.74 79.6858 14.6205C73.5736 8.63238 65.2033 4.94043 55.9707 4.94043C37.254 4.94043 22.0811 20.1133 22.0811 38.8301C22.0811 50.2936 27.7727 60.4277 36.4843 66.5606Z" fill="#8D8D8D"/>
<path d="M36.4843 66.5606L35.5384 67.9042L37.6342 65.3869L36.4843 66.5606ZM79.6858 14.6205L78.7399 15.9641L80.8357 13.4467L79.6858 14.6205ZM37.6342 65.3869C31.658 59.532 27.9529 51.3757 27.9529 42.351H24.6666C24.6666 52.2947 28.7533 61.2868 35.3344 67.7343L37.6342 65.3869ZM27.9529 42.351C27.9529 24.5418 42.3902 10.1045 60.1994 10.1045V6.81824C40.5752 6.81824 24.6666 22.7268 24.6666 42.351H27.9529ZM60.1994 10.1045C67.1031 10.1045 73.4957 12.2722 78.7399 15.9641L80.6317 13.2769C74.8518 9.20787 67.8022 6.81824 60.1994 6.81824V10.1045ZM55.9707 6.58357C64.7562 6.58357 72.7184 10.0948 78.5359 15.7942L80.8357 13.4467C74.4288 7.16997 65.6504 3.29729 55.9707 3.29729V6.58357ZM23.7242 38.8301C23.7242 21.0208 38.1615 6.58357 55.9707 6.58357V3.29729C36.3465 3.29729 20.4379 19.2059 20.4379 38.8301H23.7242ZM37.4302 65.217C29.137 59.3787 23.7242 49.7364 23.7242 38.8301H20.4379C20.4379 50.8507 26.4085 61.4767 35.5384 67.9042L37.4302 65.217Z" fill="black" mask="url(#path-3-outside-2_2978_83804)"/>
<path d="M82.4266 60.0758L81.8253 59.5159L81.2654 60.1172L77.8333 63.8025L77.2734 64.4037L77.8747 64.9635L93.5102 79.5212L94.1115 80.081L94.6714 79.4798L98.1036 75.7945L98.6635 75.1932L98.0622 74.6334L82.4266 60.0758Z" fill="#37474F" stroke="black" stroke-width="1.64314"/>
<path d="M81.863 60.6678L80.1494 62.5078L95.785 77.0655L97.4986 75.2254L81.863 60.6678Z" fill="#263238"/>
<path d="M128.383 98.4093L128.368 98.3965L128.353 98.3842L90.8256 68.5997C90.8251 68.5993 90.8245 68.5988 90.824 68.5984C90.5458 68.3766 90.1974 68.2535 89.8523 68.2557L89.9619 69.0432L89.8522 68.2557C89.5082 68.2579 89.1962 68.3843 88.9803 68.6063L85.2761 72.3687L85.2759 72.369C85.0579 72.5906 84.9517 72.8919 84.9786 73.2101C85.0054 73.5279 85.163 73.8401 85.4208 74.0811C85.4213 74.0815 85.4217 74.082 85.4222 74.0824L120.199 106.664L120.212 106.677L120.227 106.689C121.374 107.685 122.805 107.679 124.003 107.301C125.211 106.92 126.392 106.113 127.333 105.16C128.275 104.207 129.041 103.043 129.349 101.885C129.655 100.735 129.539 99.4037 128.383 98.4093Z" fill="#71CBB6" stroke="black" stroke-width="1.64314"/>
<path opacity="0.1" d="M128.399 98.1913L128.384 98.1784L128.369 98.1661L90.984 68.5395C90.9834 68.5391 90.9828 68.5386 90.9822 68.5381C90.7046 68.317 90.3568 68.1944 90.0125 68.1966C89.6692 68.1988 89.3575 68.3248 89.1416 68.5466L87.4634 70.2496L86.9211 70.7999L87.5924 71.3668L126.644 104.344L127.351 104.941L127.875 104.324C128.645 103.417 129.243 102.358 129.439 101.309C129.637 100.254 129.437 99.0823 128.399 98.1913Z" fill="black" stroke="black" stroke-width="1.64314"/>
<mask id="path-9-outside-3_2978_83804" maskUnits="userSpaceOnUse" x="17" y="0" width="72" height="72" fill="black">
<rect fill="white" x="17" width="72" height="72"/>
<path d="M86.7793 35.8897C86.7793 54.6064 71.6064 69.7793 52.8897 69.7793C34.1729 69.7793 19 54.6064 19 35.8897C19 17.1729 34.1729 2 52.8897 2C71.6064 2 86.7793 17.1729 86.7793 35.8897ZM21.5448 35.8897C21.5448 53.201 35.5784 67.2346 52.8897 67.2346C70.201 67.2346 84.2346 53.201 84.2346 35.8897C84.2346 18.5784 70.201 4.54477 52.8897 4.54477C35.5784 4.54477 21.5448 18.5784 21.5448 35.8897Z"/>
</mask>
<path d="M86.7793 35.8897C86.7793 54.6064 71.6064 69.7793 52.8897 69.7793C34.1729 69.7793 19 54.6064 19 35.8897C19 17.1729 34.1729 2 52.8897 2C71.6064 2 86.7793 17.1729 86.7793 35.8897ZM21.5448 35.8897C21.5448 53.201 35.5784 67.2346 52.8897 67.2346C70.201 67.2346 84.2346 53.201 84.2346 35.8897C84.2346 18.5784 70.201 4.54477 52.8897 4.54477C35.5784 4.54477 21.5448 18.5784 21.5448 35.8897Z" fill="#C4C4C4"/>
<path d="M86.7793 35.8897C86.7793 54.6064 71.6064 69.7793 52.8897 69.7793C34.1729 69.7793 19 54.6064 19 35.8897C19 17.1729 34.1729 2 52.8897 2C71.6064 2 86.7793 17.1729 86.7793 35.8897ZM21.5448 35.8897C21.5448 53.201 35.5784 67.2346 52.8897 67.2346C70.201 67.2346 84.2346 53.201 84.2346 35.8897C84.2346 18.5784 70.201 4.54477 52.8897 4.54477C35.5784 4.54477 21.5448 18.5784 21.5448 35.8897Z" stroke="black" stroke-width="3.28627" mask="url(#path-9-outside-3_2978_83804)"/>
<ellipse cx="55.2701" cy="37.9204" rx="30.2486" ry="30.7388" fill="#ECEEF1"/>
<path fill-rule="evenodd" clip-rule="evenodd" d="M32.8174 58.5191L62.0145 7.94824C66.5595 9.0001 70.7151 11.0921 74.226 13.9649L43.9362 66.4285C39.6562 64.6697 35.8626 61.9445 32.8174 58.5191Z" fill="white" fill-opacity="0.4"/>
<mask id="path-12-outside-4_2978_83804" maskUnits="userSpaceOnUse" x="17" y="0" width="72" height="72" fill="black">
<rect fill="white" x="17" width="72" height="72"/>
<path d="M86.7793 35.8897C86.7793 54.6064 71.6064 69.7793 52.8897 69.7793C34.1729 69.7793 19 54.6064 19 35.8897C19 17.1729 34.1729 2 52.8897 2C71.6064 2 86.7793 17.1729 86.7793 35.8897ZM21.5448 35.8897C21.5448 53.201 35.5784 67.2346 52.8897 67.2346C70.201 67.2346 84.2346 53.201 84.2346 35.8897C84.2346 18.5784 70.201 4.54477 52.8897 4.54477C35.5784 4.54477 21.5448 18.5784 21.5448 35.8897Z"/>
</mask>
<path d="M86.7793 35.8897C86.7793 54.6064 71.6064 69.7793 52.8897 69.7793C34.1729 69.7793 19 54.6064 19 35.8897C19 17.1729 34.1729 2 52.8897 2C71.6064 2 86.7793 17.1729 86.7793 35.8897ZM21.5448 35.8897C21.5448 53.201 35.5784 67.2346 52.8897 67.2346C70.201 67.2346 84.2346 53.201 84.2346 35.8897C84.2346 18.5784 70.201 4.54477 52.8897 4.54477C35.5784 4.54477 21.5448 18.5784 21.5448 35.8897Z" fill="#E1E1E1"/>
<path d="M86.7793 35.8897C86.7793 54.6064 71.6064 69.7793 52.8897 69.7793C34.1729 69.7793 19 54.6064 19 35.8897C19 17.1729 34.1729 2 52.8897 2C71.6064 2 86.7793 17.1729 86.7793 35.8897ZM21.5448 35.8897C21.5448 53.201 35.5784 67.2346 52.8897 67.2346C70.201 67.2346 84.2346 53.201 84.2346 35.8897C84.2346 18.5784 70.201 4.54477 52.8897 4.54477C35.5784 4.54477 21.5448 18.5784 21.5448 35.8897Z" stroke="black" stroke-width="3.28627" mask="url(#path-12-outside-4_2978_83804)"/>
</svg>
