<svg width="140" height="98" viewBox="0 0 140 98" fill="none" xmlns="http://www.w3.org/2000/svg">
<path d="M134.48 73.2184L134.475 73.2206L87.2008 96.1711L87.2004 96.1713C86.1281 96.6911 84.8564 96.8896 83.6661 96.8147C82.4829 96.7402 81.2877 96.3889 80.4069 95.7079L3.26259 36.0691C3.26184 36.0686 3.2611 36.068 3.26035 36.0674C2.84099 35.7469 2.50491 35.4008 2.25391 34.9921C2.00134 34.5808 1.85913 34.1456 1.7783 33.6796C1.65892 32.9913 1.66549 32.1411 1.67335 31.1248C1.6754 30.8591 1.67754 30.5821 1.67755 30.2937C1.67755 29.3519 2.03451 28.0745 2.6089 26.9333C3.1792 25.8003 4.05304 24.6237 5.21774 24.0583L5.22128 24.0566L51.2514 1.98072C51.2519 1.98049 51.2524 1.98026 51.2528 1.98003C53.2752 1.00059 55.7302 0.646962 58.0485 2.4412C58.0485 2.44126 58.0486 2.44132 58.0487 2.44138L136.458 63.0894L134.48 73.2184ZM134.48 73.2184C136.621 72.163 137.749 69.9845 138.08 68.4134C138.086 68.385 138.092 68.3562 138.098 68.327M134.48 73.2184L138.098 68.327M138.098 68.327C138.238 67.6661 138.42 66.8039 138.278 65.9072M138.098 68.327L138.278 65.9072M138.278 65.9072C138.121 64.914 137.589 63.9615 136.459 63.0904L138.278 65.9072Z" fill="#53595B" stroke="#5B2929" stroke-width="1.66"/>
<path d="M83.203 89.9002L83.2022 89.8996L4.69625 29.085C3.93891 28.4997 3.52645 27.6565 3.71448 26.7519C3.89333 25.8916 4.56798 25.2154 5.44826 24.7904C5.44912 24.79 5.45003 24.7895 5.45089 24.7891L52.9988 1.66264L83.203 89.9002ZM83.203 89.9002C83.9398 90.4696 84.9293 90.7556 85.8948 90.8171C86.8676 90.879 87.9108 90.7197 88.7949 90.2969L88.7949 90.2969M83.203 89.9002L88.7949 90.2969M88.7949 90.2969L88.7999 90.2945M88.7949 90.2969L88.7999 90.2945M88.7999 90.2945L135.086 67.7757L88.7999 90.2945ZM58.0405 2.00716L58.0415 2.0079L136.061 62.4496C136.062 62.4499 136.062 62.4503 136.063 62.4506C137.024 63.1907 137.504 64.2308 137.274 65.3198C137.053 66.3642 136.226 67.2226 135.087 67.7752L58.0405 2.00716ZM58.0405 2.00716C57.372 1.49084 56.477 1.23462 55.611 1.18095M58.0405 2.00716L55.611 1.18095M55.611 1.18095C54.7385 1.12686 53.7985 1.27167 53.0007 1.66171L55.611 1.18095Z" fill="#A9A9A9" stroke="#5B2929" stroke-width="1.66"/>
<path d="M21.2216 44.2444L21.19 44.2142L21.1554 44.1875L14.9489 39.3926C14.7289 39.1905 14.457 39.0648 14.1785 39.0133C13.8796 38.9581 13.5656 38.9867 13.2797 39.1005L13.257 39.1095L13.2349 39.1198C13.069 39.1974 12.4311 39.5076 12.2468 39.6055L12.2016 39.6295L12.1596 39.6589C11.9511 39.805 11.7698 39.9925 11.6348 40.216C11.5083 40.4254 11.4262 40.6601 11.3992 40.9073C11.3075 41.4138 11.3469 41.931 11.5128 42.4199C11.683 42.9217 11.9791 43.3727 12.3674 43.7452L12.3988 43.7754L12.4333 43.8022L18.6119 48.5946C18.8305 48.7954 19.1003 48.921 19.377 48.9733L19.5299 48.1652L19.377 48.9733C19.6735 49.0294 19.9852 49.0032 20.2699 48.8933L20.3047 48.8799L20.3382 48.8633L21.26 48.4085L21.2882 48.3946L21.3153 48.3786C21.5471 48.2415 21.7525 48.056 21.9083 47.8274C22.0567 47.6098 22.1553 47.3595 22.1891 47.0926C22.2837 46.5831 22.2452 46.0625 22.0783 45.5705C21.9078 45.0681 21.6109 44.6168 21.2216 44.2444Z" fill="#CFCFCF" stroke="#5B2929" stroke-width="1.66"/>
<path d="M19.7298 45.2903L13.5039 40.4692C12.9458 40.0356 12.3624 40.2812 12.2076 41.018C12.1337 41.3946 12.16 41.7804 12.2845 42.1474C12.4091 42.5144 12.6288 42.8536 12.9278 43.1405L19.1537 47.9585C19.7118 48.3921 20.2916 48.1435 20.45 47.4067C20.5235 47.031 20.4971 46.6463 20.3725 46.2803C20.248 45.9143 20.0285 45.5761 19.7298 45.2903Z" fill="#898989"/>
<path d="M31.4677 51.847L31.4361 51.8168L31.4014 51.79L25.195 46.9951C24.975 46.793 24.7031 46.6673 24.4246 46.6159C24.1257 46.5607 23.8117 46.5892 23.5258 46.703L23.5031 46.712L23.481 46.7224C23.3151 46.8 22.6772 47.1102 22.4929 47.208L22.4477 47.232L22.4057 47.2614C22.1972 47.4075 22.0159 47.5951 21.8809 47.8186C21.7544 48.0279 21.6723 48.2627 21.6453 48.5098C21.5535 49.0164 21.593 49.5335 21.7589 50.0224C21.9291 50.5242 22.2252 50.9752 22.6135 51.3478L22.6449 51.378L22.6794 51.4047L28.858 56.1972C29.0766 56.398 29.3464 56.5235 29.6231 56.5759C29.9196 56.632 30.2313 56.6058 30.516 56.4958L30.5508 56.4824L30.5843 56.4659L31.5061 56.0111L31.5343 55.9971L31.5614 55.9811C31.7932 55.844 31.9986 55.6586 32.1544 55.43C32.3028 55.2123 32.4014 54.9621 32.4352 54.6951C32.5298 54.1857 32.4913 53.665 32.3243 53.173C32.1539 52.6706 31.857 52.2193 31.4677 51.847Z" fill="#CFCFCF" stroke="#5B2929" stroke-width="1.66"/>
<path d="M29.9758 52.8928L23.7499 48.0717C23.1917 47.6381 22.6084 47.8837 22.4536 48.6205C22.3797 48.9971 22.406 49.3828 22.5305 49.7499C22.655 50.1169 22.8747 50.4561 23.1737 50.743L29.3997 55.561C29.9578 55.9946 30.5375 55.746 30.696 55.0092C30.7695 54.6335 30.7431 54.2488 30.6185 53.8828C30.494 53.5168 30.2745 53.1786 29.9758 52.8928Z" fill="#898989"/>
<mask id="path-7-inside-1_2254_1311" fill="white">
<path d="M59.6895 5.90948L132.831 62.831C133.914 63.6708 133.654 64.9137 132.254 65.5795L89.3186 86.5567C87.9223 87.2438 85.9127 87.1186 84.8267 86.2757L11.1688 28.9786C10.9676 28.8391 10.8039 28.6648 10.6887 28.4673C10.5735 28.2699 10.5095 28.0539 10.501 27.8339C10.4924 27.6138 10.5396 27.3948 10.6392 27.1914C10.7388 26.988 10.8886 26.805 11.0786 26.6546C11.1435 26.5996 11.2013 26.5477 11.2698 26.4958C11.4187 26.3907 11.5781 26.2967 11.7461 26.2148L23.8221 20.3147L24.6087 19.9299C24.8251 19.8263 25.073 19.7794 25.3209 19.7952C25.5689 19.8109 25.8057 19.8886 26.0014 20.0185C26.2085 20.147 26.4557 20.2212 26.7122 20.2321C26.9687 20.243 27.2233 20.1899 27.4446 20.0795L41.5159 13.2022C41.9741 12.9762 42.086 12.5914 41.7504 12.3227C41.6839 12.2601 41.635 12.1855 41.6075 12.1046C41.58 12.0238 41.5745 11.9386 41.5916 11.8557C41.6086 11.7728 41.6476 11.6942 41.7058 11.6259C41.7639 11.5576 41.8397 11.5014 41.9272 11.4615L53.7399 5.6896L53.9888 5.56744C55.764 4.68792 58.3221 4.85284 59.6895 5.90948Z"/>
</mask>
<path d="M59.6895 5.90948L132.831 62.831C133.914 63.6708 133.654 64.9137 132.254 65.5795L89.3186 86.5567C87.9223 87.2438 85.9127 87.1186 84.8267 86.2757L11.1688 28.9786C10.9676 28.8391 10.8039 28.6648 10.6887 28.4673C10.5735 28.2699 10.5095 28.0539 10.501 27.8339C10.4924 27.6138 10.5396 27.3948 10.6392 27.1914C10.7388 26.988 10.8886 26.805 11.0786 26.6546C11.1435 26.5996 11.2013 26.5477 11.2698 26.4958C11.4187 26.3907 11.5781 26.2967 11.7461 26.2148L23.8221 20.3147L24.6087 19.9299C24.8251 19.8263 25.073 19.7794 25.3209 19.7952C25.5689 19.8109 25.8057 19.8886 26.0014 20.0185C26.2085 20.147 26.4557 20.2212 26.7122 20.2321C26.9687 20.243 27.2233 20.1899 27.4446 20.0795L41.5159 13.2022C41.9741 12.9762 42.086 12.5914 41.7504 12.3227C41.6839 12.2601 41.635 12.1855 41.6075 12.1046C41.58 12.0238 41.5745 11.9386 41.5916 11.8557C41.6086 11.7728 41.6476 11.6942 41.7058 11.6259C41.7639 11.5576 41.8397 11.5014 41.9272 11.4615L53.7399 5.6896L53.9888 5.56744C55.764 4.68792 58.3221 4.85284 59.6895 5.90948Z" fill="#595959"/>
<path d="M59.6895 5.90948L60.709 4.59944L60.7045 4.59594L59.6895 5.90948ZM132.831 62.831L131.812 64.141L131.814 64.1425L132.831 62.831ZM132.254 65.5795L131.541 64.0804L131.533 64.0841L131.525 64.088L132.254 65.5795ZM89.3186 86.5567L88.5899 85.0651L88.5857 85.0672L89.3186 86.5567ZM84.8267 86.2757L83.8074 87.586L83.8089 87.5871L84.8267 86.2757ZM11.1688 28.9786L12.188 27.6683L12.1521 27.6403L12.1146 27.6144L11.1688 28.9786ZM11.0786 26.6546L12.1089 27.9561L12.1303 27.9392L12.1511 27.9216L11.0786 26.6546ZM11.2698 26.4958L10.3128 25.1394L10.2899 25.1555L10.2676 25.1724L11.2698 26.4958ZM11.7461 26.2148L12.4734 27.707L12.4748 27.7063L11.7461 26.2148ZM23.8221 20.3147L24.5509 21.8062L24.5516 21.8058L23.8221 20.3147ZM24.6087 19.9299L23.8918 18.4326L23.8792 18.4388L24.6087 19.9299ZM26.0014 20.0185L25.0837 21.4018L25.1048 21.4157L25.1263 21.4291L26.0014 20.0185ZM27.4446 20.0795L26.7157 18.5881L26.7036 18.5941L27.4446 20.0795ZM41.5159 13.2022L42.2448 14.6936L42.2502 14.691L41.5159 13.2022ZM41.7504 12.3227L40.6132 13.5319L40.6612 13.5771L40.7127 13.6183L41.7504 12.3227ZM41.9272 11.4615L42.6156 12.972L42.6359 12.9627L42.656 12.9529L41.9272 11.4615ZM53.7399 5.6896L54.4687 7.18108L54.4711 7.17986L53.7399 5.6896ZM53.9888 5.56744L54.7201 7.05772L54.7258 7.05488L53.9888 5.56744ZM58.67 7.21952L131.812 64.141L133.851 61.5209L60.709 4.59945L58.67 7.21952ZM131.814 64.1425C131.904 64.2125 131.895 64.2351 131.871 64.1801C131.859 64.1529 131.847 64.1138 131.842 64.0654C131.837 64.017 131.84 63.9704 131.849 63.9298C131.867 63.8464 131.897 63.829 131.863 63.8666C131.826 63.9061 131.732 63.9896 131.541 64.0804L132.967 67.0786C133.957 66.6077 134.853 65.7834 135.098 64.6112C135.362 63.3538 134.771 62.2348 133.849 61.5194L131.814 64.1425ZM131.525 64.088L88.5899 85.0651L90.0473 88.0482L132.983 67.071L131.525 64.088ZM88.5857 85.0672C88.1881 85.2629 87.6332 85.369 87.0598 85.3332C86.4732 85.2965 86.051 85.1246 85.8444 84.9643L83.8089 87.5871C84.6883 88.2696 85.814 88.5818 86.8528 88.6467C87.9047 88.7124 89.0529 88.5375 90.0516 88.0461L88.5857 85.0672ZM85.8459 84.9654L12.188 27.6683L10.1496 30.2888L83.8074 87.5859L85.8459 84.9654ZM12.1146 27.6144C12.0982 27.603 12.1069 27.6041 12.1225 27.6308L9.25487 29.3038C9.5008 29.7254 9.83697 30.0751 10.223 30.3428L12.1146 27.6144ZM12.1225 27.6308C12.1391 27.6592 12.1573 27.7072 12.1597 27.7695L8.84223 27.8983C8.86173 28.4007 9.00795 28.8806 9.25487 29.3038L12.1225 27.6308ZM12.1597 27.7695C12.1622 27.8321 12.1477 27.8854 12.13 27.9215L9.14839 26.4612C8.93144 26.9042 8.82272 27.3955 8.84223 27.8983L12.1597 27.7695ZM12.13 27.9215C12.1131 27.9559 12.0993 27.9637 12.1089 27.9561L10.0483 25.353C9.67793 25.6462 9.36445 26.0201 9.14839 26.4612L12.13 27.9215ZM12.1511 27.9216C12.1725 27.9035 12.1926 27.8862 12.2076 27.8733C12.2241 27.8592 12.235 27.8498 12.2453 27.8411C12.2648 27.8246 12.2711 27.8198 12.272 27.8191L10.2676 25.1724C10.1512 25.2606 10.0253 25.3713 10.0061 25.3875L12.1511 27.9216ZM12.2269 27.8521C12.3011 27.7997 12.3834 27.7508 12.4734 27.707L11.0188 24.7226C10.7727 24.8425 10.5363 24.9817 10.3128 25.1394L12.2269 27.8521ZM12.4748 27.7063L24.5509 21.8062L23.0934 18.8232L11.0174 24.7233L12.4748 27.7063ZM24.5516 21.8058L25.3382 21.421L23.8792 18.4388L23.0927 18.8236L24.5516 21.8058ZM25.3255 21.4271C25.2996 21.4396 25.2779 21.4457 25.2616 21.4488C25.2451 21.4519 25.23 21.4527 25.2156 21.4518L25.4263 18.1385C24.9056 18.1054 24.3735 18.2021 23.8919 18.4326L25.3255 21.4271ZM25.2156 21.4518C25.1909 21.4502 25.1444 21.442 25.0837 21.4018L26.919 18.6352C26.467 18.3353 25.9468 18.1716 25.4263 18.1385L25.2156 21.4518ZM25.1263 21.4291C25.589 21.7161 26.1161 21.8684 26.642 21.8906L26.7824 18.5736C26.7908 18.5739 26.8019 18.5754 26.8161 18.5797C26.8302 18.5839 26.8509 18.592 26.8765 18.6079L25.1263 21.4291ZM26.642 21.8906C27.168 21.9129 27.7031 21.8057 28.1856 21.565L26.7036 18.5941C26.7251 18.5834 26.7419 18.5785 26.7531 18.5762C26.7644 18.5738 26.7739 18.5732 26.7824 18.5736L26.642 21.8906ZM28.1735 21.5709L42.2448 14.6936L40.787 11.7108L26.7157 18.5881L28.1735 21.5709ZM42.2502 14.691C42.7191 14.4597 43.3171 14.0008 43.5318 13.2171C43.7841 12.2962 43.3643 11.4884 42.7881 11.027L40.7127 13.6183C40.6121 13.5377 40.464 13.3827 40.3689 13.1336C40.2695 12.8732 40.2607 12.5923 40.3298 12.3398C40.4579 11.8722 40.7709 11.7187 40.7817 11.7134L42.2502 14.691ZM42.8877 11.1134C43.0049 11.2237 43.1132 11.3763 43.179 11.57L40.036 12.6393C40.1569 12.9947 40.3629 13.2965 40.6132 13.5319L42.8877 11.1134ZM43.179 11.57C43.2457 11.7659 43.2606 11.9805 43.2176 12.1895L39.9655 11.5219C39.8885 11.8968 39.9143 12.2816 40.036 12.6393L43.179 11.57ZM43.2176 12.1895C43.1751 12.3969 43.0818 12.5704 42.9697 12.702L40.4419 10.5497C40.2135 10.818 40.0421 11.1486 39.9655 11.5219L43.2176 12.1895ZM42.9697 12.702C42.8589 12.8322 42.733 12.9185 42.6156 12.972L41.2388 9.95092C40.9463 10.0842 40.669 10.283 40.4419 10.5497L42.9697 12.702ZM42.656 12.9529L54.4687 7.18108L53.0111 4.19812L41.1985 9.96998L42.656 12.9529ZM54.4711 7.17986L54.7201 7.0577L53.2576 4.07718L53.0086 4.19934L54.4711 7.17986ZM54.7258 7.05488C55.3107 6.76509 56.0959 6.62052 56.8904 6.66928C57.6989 6.71891 58.3283 6.95548 58.6745 7.22302L60.7045 4.59594C59.6833 3.80684 58.35 3.43263 57.0938 3.35552C55.8235 3.27755 54.4421 3.49028 53.2519 4.08001L54.7258 7.05488Z" fill="#5B2929" mask="url(#path-7-inside-1_2254_1311)"/>
<mask id="path-9-inside-2_2254_1311" fill="white">
<path d="M25.4378 21.9562C25.2423 21.8274 25.0059 21.7505 24.7586 21.7354C24.5113 21.7202 24.2643 21.7674 24.0488 21.871L23.2643 22.2542L11.2197 28.1302C11.0522 28.2118 10.8932 28.3054 10.7447 28.41C10.6763 28.4587 10.6188 28.5134 10.554 28.5651C10.4892 28.6168 10.5216 28.6047 10.5 28.6229C10.6206 28.8412 10.7905 29.0375 11.0002 29.2008L84.4766 86.2786C85.5562 87.1181 87.5642 87.2428 88.9568 86.5585L131.78 65.6671C132.05 65.5386 132.293 65.3743 132.5 65.1805C132.38 64.9646 132.21 64.7712 132 64.6117L59.0344 7.91102C57.6777 6.85261 55.1263 6.69446 53.363 7.55213L53.1147 7.67683L41.6424 13.273L41.3401 14.7085C41.3126 14.8044 41.2611 14.8942 41.1891 14.9718C41.1171 15.0495 41.0262 15.1132 40.9226 15.1587L26.8881 22.0048C26.6679 22.1192 26.4124 22.1757 26.1542 22.167C25.8959 22.1584 25.6466 22.085 25.4378 21.9562Z"/>
</mask>
<path d="M25.4378 21.9562C25.2423 21.8274 25.0059 21.7505 24.7586 21.7354C24.5113 21.7202 24.2643 21.7674 24.0488 21.871L23.2643 22.2542L11.2197 28.1302C11.0522 28.2118 10.8932 28.3054 10.7447 28.41C10.6763 28.4587 10.6188 28.5134 10.554 28.5651C10.4892 28.6168 10.5216 28.6047 10.5 28.6229C10.6206 28.8412 10.7905 29.0375 11.0002 29.2008L84.4766 86.2786C85.5562 87.1181 87.5642 87.2428 88.9568 86.5585L131.78 65.6671C132.05 65.5386 132.293 65.3743 132.5 65.1805C132.38 64.9646 132.21 64.7712 132 64.6117L59.0344 7.91102C57.6777 6.85261 55.1263 6.69446 53.363 7.55213L53.1147 7.67683L41.6424 13.273L41.3401 14.7085C41.3126 14.8044 41.2611 14.8942 41.1891 14.9718C41.1171 15.0495 41.0262 15.1132 40.9226 15.1587L26.8881 22.0048C26.6679 22.1192 26.4124 22.1757 26.1542 22.167C25.8959 22.1584 25.6466 22.085 25.4378 21.9562Z" fill="#00C89A"/>
<path d="M24.0488 21.871L23.3295 20.3749L23.3201 20.3795L24.0488 21.871ZM23.2643 22.2542L23.9921 23.7462L23.9929 23.7458L23.2643 22.2542ZM11.2197 28.1302L11.9461 29.6228L11.9476 29.6221L11.2197 28.1302ZM10.7447 28.41L9.78859 27.053L9.78216 27.0576L10.7447 28.41ZM10.5 28.6229L9.42847 27.3551L8.38868 28.2339L9.04695 29.4256L10.5 28.6229ZM11.0002 29.2008L9.98048 30.5107L9.98185 30.5117L11.0002 29.2008ZM84.4766 86.2786L85.4955 84.9682L85.4949 84.9677L84.4766 86.2786ZM88.9568 86.5585L88.229 85.0665L88.2248 85.0686L88.9568 86.5585ZM131.78 65.6671L131.065 64.1689L131.059 64.172L131.052 64.1752L131.78 65.6671ZM132.5 65.1805L133.633 66.3934L134.582 65.5072L133.95 64.3731L132.5 65.1805ZM132 64.6117L130.981 65.9225L130.988 65.9281L130.996 65.9336L132 64.6117ZM59.0344 7.91102L58.0134 9.21984L58.0158 9.22178L59.0344 7.91102ZM53.363 7.55213L52.6369 6.05935L52.6275 6.06396L52.6181 6.06868L53.363 7.55213ZM53.1147 7.67683L53.8425 9.16879L53.8511 9.16458L53.8597 9.16028L53.1147 7.67683ZM41.6424 13.273L40.9146 11.781L40.1852 12.1368L40.018 12.9309L41.6424 13.273ZM41.3401 14.7085L42.9358 15.166L42.9522 15.1088L42.9645 15.0506L41.3401 14.7085ZM40.9226 15.1587L40.2555 13.6386L40.2249 13.6521L40.1948 13.6667L40.9226 15.1587ZM26.8881 22.0048L26.1603 20.5129L26.1414 20.5221L26.1228 20.5318L26.8881 22.0048ZM26.351 20.5699C25.899 20.2722 25.3795 20.1103 24.8602 20.0785L24.657 23.3922C24.6322 23.3907 24.5855 23.3825 24.5247 23.3425L26.351 20.5699ZM24.8602 20.0785C24.3407 20.0466 23.8098 20.144 23.3295 20.3749L24.7681 23.3671C24.7418 23.3797 24.7199 23.386 24.7034 23.3891C24.6868 23.3923 24.6715 23.3931 24.657 23.3922L24.8602 20.0785ZM23.3201 20.3795L22.5357 20.7627L23.9929 23.7458L24.7774 23.3626L23.3201 20.3795ZM22.5364 20.7623L10.4919 26.6383L11.9476 29.6221L23.9921 23.7462L22.5364 20.7623ZM10.4933 26.6376C10.2477 26.7571 10.0118 26.8958 9.7886 27.053L11.7008 29.767C11.7747 29.715 11.8566 29.6664 11.9461 29.6228L10.4933 26.6376ZM9.78216 27.0576C9.69039 27.1229 9.61667 27.1846 9.57645 27.2186C9.56604 27.2274 9.55605 27.2359 9.5487 27.2422C9.54059 27.2491 9.5351 27.2537 9.52995 27.2581C9.51977 27.2667 9.5173 27.2686 9.51841 27.2678L11.5896 29.8625C11.623 29.8358 11.6521 29.8115 11.673 29.7938C11.6835 29.7849 11.6935 29.7764 11.7008 29.7702C11.7089 29.7632 11.7144 29.7586 11.7195 29.7543C11.7414 29.7358 11.7306 29.7458 11.7073 29.7625L9.78216 27.0576ZM9.51841 27.2678C9.49706 27.2848 9.47216 27.3052 9.44549 27.3284C9.41952 27.3509 9.38508 27.382 9.34696 27.4201C9.30985 27.4572 9.2566 27.5137 9.19964 27.5876C9.13988 27.665 9.07124 27.7678 9.01036 27.8964C8.98013 27.9603 8.95663 28.0204 8.93823 28.0746C8.92092 28.1255 8.90992 28.1663 8.90751 28.1752C8.90712 28.1766 8.90629 28.1797 8.90685 28.1776C8.90703 28.177 8.90793 28.1736 8.90911 28.1694C8.91146 28.1608 8.9164 28.1432 8.92327 28.121C8.9379 28.0737 8.96106 28.0064 8.99643 27.9283C9.03209 27.8496 9.07339 27.7749 9.11942 27.7048C9.16436 27.6363 9.20923 27.579 9.24917 27.5327C9.28861 27.487 9.3249 27.4501 9.35394 27.4222C9.38305 27.3943 9.40874 27.3718 9.42847 27.3551L11.5715 29.8908C11.594 29.8718 11.6219 29.8472 11.653 29.8174C11.6839 29.7877 11.7218 29.7491 11.7626 29.7019C11.8038 29.6541 11.8497 29.5955 11.8955 29.5257C11.9184 29.4908 11.9407 29.454 11.962 29.4153C11.9833 29.3765 12.0028 29.3376 12.0204 29.2986C12.0381 29.2597 12.0529 29.223 12.0655 29.1891C12.0779 29.1555 12.0876 29.1261 12.0948 29.1027C12.1018 29.08 12.1069 29.0618 12.1094 29.0527C12.1107 29.0482 12.1117 29.0446 12.1119 29.0437C12.1125 29.0413 12.1118 29.0441 12.1115 29.0453C12.1094 29.0531 12.0987 29.0928 12.0818 29.1425C12.0731 29.1681 12.0628 29.1962 12.0508 29.2261C12.0388 29.256 12.0257 29.2862 12.0112 29.3167C11.9821 29.3783 11.9507 29.4346 11.9188 29.4856C11.8873 29.5359 11.8564 29.5791 11.8286 29.6151C11.801 29.6509 11.7753 29.6811 11.7535 29.7055C11.7316 29.7299 11.7119 29.7504 11.6956 29.7667C11.6792 29.7831 11.6646 29.7969 11.6528 29.8078C11.6409 29.8188 11.6306 29.8279 11.6224 29.835C11.6064 29.8489 11.5947 29.8584 11.5896 29.8625L9.51841 27.2678ZM9.04695 29.4256C9.28316 29.8532 9.60529 30.2186 9.98048 30.5107L12.0199 27.8909C11.9757 27.8565 11.958 27.8293 11.9531 27.8203L9.04695 29.4256ZM9.98185 30.5117L83.4582 87.5896L85.4949 84.9677L12.0186 27.8898L9.98185 30.5117ZM83.4576 87.5891C84.3352 88.2715 85.4601 88.5822 86.496 88.6467C87.5455 88.7122 88.6921 88.5381 89.6889 88.0483L88.2248 85.0686C87.829 85.2631 87.2752 85.3689 86.7026 85.3332C86.1164 85.2966 85.6976 85.1253 85.4955 84.9682L83.4576 87.5891ZM89.6847 88.0504L132.508 67.159L131.052 64.1752L88.229 85.0665L89.6847 88.0504ZM132.495 67.1653C132.91 66.9674 133.296 66.7089 133.633 66.3934L131.367 63.9676C131.29 64.0397 131.189 64.1098 131.065 64.1689L132.495 67.1653ZM133.95 64.3731C133.711 63.9435 133.384 63.5787 133.004 63.2899L130.996 65.9336C131.035 65.9638 131.048 65.9857 131.05 65.9879L133.95 64.3731ZM133.018 63.301L60.053 6.60025L58.0158 9.22178L130.981 65.9225L133.018 63.301ZM60.0555 6.60219C59.0368 5.80749 57.7045 5.43486 56.4554 5.35632C55.1916 5.27685 53.8184 5.48471 52.6369 6.05935L54.0891 9.04492C54.671 8.76188 55.4552 8.61998 56.247 8.66977C57.0537 8.72049 57.6753 8.95614 58.0134 9.21984L60.0555 6.60219ZM52.6181 6.06868L52.3698 6.19338L53.8597 9.16028L54.108 9.03558L52.6181 6.06868ZM52.3869 6.18487L40.9146 11.781L42.3701 14.765L53.8425 9.16879L52.3869 6.18487ZM40.018 12.9309L39.7157 14.3665L42.9645 15.0506L43.2667 13.615L40.018 12.9309ZM39.7444 14.2511C39.7931 14.0812 39.8781 13.9443 39.9719 13.8431L42.4063 16.1006C42.6442 15.8441 42.8321 15.5276 42.9358 15.166L39.7444 14.2511ZM39.9719 13.8431C40.0649 13.7428 40.1653 13.6782 40.2555 13.6386L41.5898 16.6787C41.8871 16.5482 42.1693 16.3562 42.4063 16.1006L39.9719 13.8431ZM40.1948 13.6667L26.1603 20.5129L27.6158 23.4968L41.6504 16.6506L40.1948 13.6667ZM26.1228 20.5318C26.1461 20.5196 26.1646 20.514 26.1772 20.5112C26.1898 20.5084 26.2005 20.5076 26.2099 20.5079L26.0985 23.8261C26.6296 23.8439 27.1694 23.7293 27.6534 23.4779L26.1228 20.5318ZM26.2099 20.5079C26.2192 20.5083 26.2312 20.5098 26.2461 20.5142C26.261 20.5186 26.2828 20.527 26.3094 20.5434L24.5663 23.369C25.0342 23.6576 25.5675 23.8083 26.0985 23.8261L26.2099 20.5079Z" fill="#5B2929" mask="url(#path-9-inside-2_2254_1311)"/>
<path d="M27.8501 17.1289L34.1639 14.1234C34.344 14.0349 34.5519 13.9923 34.7613 14.0011C34.9708 14.0099 35.1723 14.0697 35.3405 14.1729C35.6126 14.3794 35.5278 14.6937 35.1532 14.8711L28.8358 17.8766C28.6558 17.9651 28.4479 18.0077 28.2384 17.9989C28.029 17.9901 27.8274 17.9303 27.6593 17.8271C27.3872 17.6206 27.472 17.3063 27.8501 17.1289Z" fill="#263238"/>
<path d="M37.8889 12.2285C38.1065 12.0575 38.3562 11.9796 38.6061 12.0046C38.856 12.0296 39.0949 12.1564 39.2922 12.3688C39.3708 12.4629 39.4304 12.5833 39.4652 12.7183C39.5 12.8534 39.5089 12.9985 39.4909 13.1396C39.473 13.2808 39.4288 13.4132 39.3627 13.5239C39.2966 13.6347 39.2108 13.7201 39.1136 13.7719C38.8953 13.9426 38.6451 14.0204 38.3946 13.9954C38.1442 13.9705 37.9048 13.8438 37.7067 13.6316C37.6282 13.5372 37.5687 13.4164 37.5342 13.2811C37.4996 13.1457 37.4911 13.0004 37.5094 12.8592C37.5278 12.718 37.5723 12.5857 37.6388 12.4752C37.7053 12.3647 37.7915 12.2797 37.8889 12.2285Z" fill="#263238"/>
<path d="M65.2793 60.3448L52.2583 50.525L57.5461 35.4943L77.2052 34.1658L90.9991 43.2287L88.339 59.2644L65.2793 60.3448Z" stroke="white" stroke-width="1.66"/>
<path d="M72.7601 54.5546L81.3081 49.5029" stroke="white" stroke-width="1.66" stroke-linecap="round"/>
<path d="M71.6174 53.0344L71.7614 52.9492" stroke="white" stroke-width="1.66" stroke-linecap="round"/>
<path d="M73.0582 52.183L73.2502 52.0695" stroke="white" stroke-width="1.66" stroke-linecap="round"/>
<path d="M69.48 51.5358C68.8274 50.1217 68.361 47.5781 70.2984 46.3638C72.8465 44.7667 76.3758 46.606 76.726 46.9942" stroke="white" stroke-width="1.66" stroke-linecap="round"/>
<path d="M64.5526 52.4425C63.9162 51.0414 63.4789 48.5154 65.4303 47.2923" stroke="white" stroke-width="1.66" stroke-linecap="round"/>
<path d="M78.3857 43.7718C77.0061 42.8364 74.3884 41.6771 72.7232 42.7208" stroke="white" stroke-width="1.66" stroke-linecap="round"/>
<path d="M65.3243 44.0503C66.5866 44.8946 66.7405 46.463 65.6481 47.5554C64.5557 48.6478 62.6455 48.8357 61.3831 47.9914C60.1208 47.1472 59.9669 45.5788 61.0594 44.4864C62.1518 43.3939 64.0619 43.206 65.3243 44.0503Z" fill="url(#paint0_linear_2254_1311)" stroke="white" stroke-width="1.66"/>
<circle cx="3.59022" cy="3.59022" r="2.76022" transform="matrix(0.707107 -0.707107 0.831223 0.555939 63.9684 42.243)" fill="url(#paint1_linear_2254_1311)" stroke="white" stroke-width="1.66"/>
<path d="M53.6283 49.0313C54.5841 49.6705 54.6963 50.833 53.9039 51.6255C53.1115 52.4179 51.696 52.5586 50.7403 51.9194C49.7846 51.2802 49.6723 50.1177 50.4647 49.3252C51.2571 48.5328 52.6726 48.3921 53.6283 49.0313Z" fill="url(#paint2_linear_2254_1311)" stroke="white" stroke-width="1.66"/>
<path d="M78.5966 32.8897C79.5523 33.5289 79.6646 34.6914 78.8721 35.4839C78.0797 36.2763 76.6642 36.417 75.7085 35.7778C74.7528 35.1386 74.6405 33.9761 75.4329 33.1836C76.2253 32.3912 77.6408 32.2505 78.5966 32.8897Z" fill="url(#paint3_linear_2254_1311)" stroke="white" stroke-width="1.66"/>
<path d="M69.8959 42.6514C71.1583 43.4956 71.3121 45.064 70.2197 46.1565C69.1273 47.2489 67.2171 47.4368 65.9548 46.5925C64.6924 45.7482 64.5386 44.1798 65.631 43.0874C66.7234 41.995 68.6336 41.8071 69.8959 42.6514Z" fill="url(#paint4_linear_2254_1311)" stroke="white" stroke-width="1.66"/>
<path d="M78.1003 49.2028L80.0692 48.0392" stroke="white" stroke-width="1.66" stroke-linecap="round"/>
<path d="M67.7523 59.3019C68.708 59.9411 68.8203 61.1036 68.0279 61.8961C67.2354 62.6885 65.8199 62.8292 64.8642 62.19C63.9085 61.5508 63.7962 60.3883 64.5886 59.5958C65.3811 58.8034 66.7966 58.6627 67.7523 59.3019Z" fill="url(#paint5_linear_2254_1311)" stroke="white" stroke-width="1.66"/>
<path d="M92.6029 42.0146C93.5586 42.6538 93.6709 43.8163 92.8784 44.6087C92.086 45.4011 90.6705 45.5418 89.7148 44.9026C88.7591 44.2634 88.6468 43.1009 89.4392 42.3085C90.2317 41.5161 91.6472 41.3754 92.6029 42.0146Z" fill="url(#paint6_linear_2254_1311)" stroke="white" stroke-width="1.66"/>
<circle cx="2.87217" cy="2.87217" r="2.04217" transform="matrix(0.707107 -0.707107 0.831223 0.555938 53.2241 36.3148)" fill="url(#paint7_linear_2254_1311)" stroke="white" stroke-width="1.66"/>
<path d="M89.377 57.1262C90.3086 57.7492 90.4247 58.9113 89.6117 59.7243C88.7987 60.5373 87.3829 60.6749 86.4514 60.0518C85.5198 59.4288 85.4037 58.2667 86.2167 57.4537C87.0297 56.6407 88.4455 56.5031 89.377 57.1262Z" fill="url(#paint8_linear_2254_1311)" stroke="white" stroke-width="1.66"/>
<defs>
<linearGradient id="paint0_linear_2254_1311" x1="63.1443" y1="41.25" x2="63.7322" y2="50.864" gradientUnits="userSpaceOnUse">
<stop offset="0.0667144" stop-color="#00C89A"/>
<stop offset="1" stop-color="#5288B6"/>
</linearGradient>
<linearGradient id="paint1_linear_2254_1311" x1="7.48568" y1="4.50241e-08" x2="-0.428791" y2="7.18043" gradientUnits="userSpaceOnUse">
<stop offset="0.0667144" stop-color="#00C89A"/>
<stop offset="1" stop-color="#5288B6"/>
</linearGradient>
<linearGradient id="paint2_linear_2254_1311" x1="51.9784" y1="46.6602" x2="52.3966" y2="54.3562" gradientUnits="userSpaceOnUse">
<stop offset="0.0667144" stop-color="#00C89A"/>
<stop offset="1" stop-color="#5288B6"/>
</linearGradient>
<linearGradient id="paint3_linear_2254_1311" x1="76.9466" y1="30.5186" x2="77.3648" y2="38.2146" gradientUnits="userSpaceOnUse">
<stop offset="0.0667144" stop-color="#00C89A"/>
<stop offset="1" stop-color="#5288B6"/>
</linearGradient>
<linearGradient id="paint4_linear_2254_1311" x1="67.716" y1="39.8511" x2="68.3038" y2="49.4651" gradientUnits="userSpaceOnUse">
<stop offset="0.0667144" stop-color="#00C89A"/>
<stop offset="1" stop-color="#5288B6"/>
</linearGradient>
<linearGradient id="paint5_linear_2254_1311" x1="66.1023" y1="56.9308" x2="66.5205" y2="64.6268" gradientUnits="userSpaceOnUse">
<stop offset="0.0667144" stop-color="#00C89A"/>
<stop offset="1" stop-color="#5288B6"/>
</linearGradient>
<linearGradient id="paint6_linear_2254_1311" x1="90.9529" y1="39.6435" x2="91.3711" y2="47.3395" gradientUnits="userSpaceOnUse">
<stop offset="0.0667144" stop-color="#00C89A"/>
<stop offset="1" stop-color="#5288B6"/>
</linearGradient>
<linearGradient id="paint7_linear_2254_1311" x1="5.98854" y1="3.60193e-08" x2="-0.343033" y2="5.74435" gradientUnits="userSpaceOnUse">
<stop offset="0.0667144" stop-color="#00C89A"/>
<stop offset="1" stop-color="#5288B6"/>
</linearGradient>
<linearGradient id="paint8_linear_2254_1311" x1="87.7508" y1="54.7682" x2="88.2273" y2="62.4667" gradientUnits="userSpaceOnUse">
<stop offset="0.0667144" stop-color="#00C89A"/>
<stop offset="1" stop-color="#5288B6"/>
</linearGradient>
</defs>
</svg>
