<svg width="200" height="160" viewBox="0 0 200 160" fill="none" xmlns="http://www.w3.org/2000/svg">
<ellipse cx="100.716" cy="145.921" rx="37.7573" ry="14.079" fill="#BDBDBD" fill-opacity="0.5"/>
<path d="M109.831 121.787L108.836 121.691L108.74 122.686C108.386 126.367 109.511 130.038 111.866 132.891C114.222 135.743 117.615 137.544 121.3 137.898C124.985 138.251 128.659 137.129 131.515 134.777C134.113 132.637 135.841 129.64 136.398 126.346L136.434 126.349L136.529 125.362C136.53 125.359 136.53 125.357 136.53 125.354L136.626 124.359L139.42 95.3277L139.42 95.3277L139.421 95.3175C139.753 91.4477 138.521 87.6036 136.052 84.6132C133.546 81.5791 129.937 79.6635 126.018 79.2873C122.099 78.9111 118.19 80.1051 115.152 82.6069C112.114 85.1088 110.195 88.7137 109.818 92.6288L109.723 93.6245L110.718 93.7201L117.143 94.3367L118.138 94.4322L118.234 93.4371C118.396 91.7523 119.221 90.2006 120.529 89.1234C121.838 88.0461 123.521 87.5318 125.209 87.6938C126.897 87.8558 128.452 88.6809 129.53 89.9871C130.61 91.2945 131.128 92.9756 130.966 94.6587L128.185 123.548L128.089 124.544C127.951 125.987 127.243 127.317 126.122 128.241C125.001 129.164 123.558 129.605 122.111 129.466C120.664 129.327 119.332 128.62 118.407 127.5C117.483 126.381 117.042 124.941 117.181 123.497L117.277 122.501L116.281 122.406L109.831 121.787Z" fill="#E1E1E1" stroke="#351512" stroke-width="2"/>
<path fill-rule="evenodd" clip-rule="evenodd" d="M128.022 80.6424C127.336 80.4678 126.635 80.3448 125.922 80.2764C122.267 79.9255 118.621 81.0392 115.788 83.3725C112.954 85.7058 111.165 89.0676 110.814 92.7183L117.238 93.3349C117.426 91.3858 118.381 89.5909 119.894 88.3451C121.407 87.0993 123.353 86.5047 125.305 86.692C126.263 86.784 127.184 87.0609 128.022 87.4979V80.6424ZM128.022 127.61C127.674 128.13 127.249 128.601 126.757 129.006C125.432 130.098 123.726 130.619 122.015 130.455C120.305 130.291 118.729 129.455 117.636 128.131C116.543 126.807 116.021 125.103 116.185 123.395L109.736 122.776C109.407 126.192 110.451 129.599 112.637 132.247C114.824 134.896 117.974 136.568 121.395 136.896C123.683 137.116 125.967 136.722 128.022 135.785V127.61Z" fill="#BDBDBD" fill-opacity="0.5"/>
<path fill-rule="evenodd" clip-rule="evenodd" d="M54.8639 74.2463H54V137.388C54 147.992 69.2809 156.587 88.1309 156.587C106.981 156.587 122.262 147.992 122.262 137.388V74.2463H121.398C120.945 82.0021 106.224 88.2293 88.1308 88.2293C70.0374 88.2293 55.3166 82.0021 54.8639 74.2463Z" fill="#E1E1E1"/>
<path d="M106.263 93.0658C106.263 91.21 107.459 89.5592 109.186 88.8785C110.566 88.3341 112.374 87.5761 114.476 86.5897C119.382 84.287 121.409 78.2993 121.409 78.2993V140.506C121.409 140.624 121.403 140.738 121.383 140.855C121.231 141.757 120.258 146.029 115.119 149.324C113.736 150.211 111.694 150.785 109.919 151.144C107.966 151.539 106.263 149.976 106.263 147.983V93.0658Z" fill="#BDBDBD" fill-opacity="0.5"/>
<ellipse cx="88.1309" cy="74.2463" rx="34.1309" ry="14.7189" fill="#E1E1E1"/>
<path d="M122.262 74.2463V137.388C122.262 147.991 106.981 156.587 88.1309 156.587C69.2809 156.587 54 147.991 54 137.388V74.2463C54 66.1172 69.7522 59.5273 88.1309 59.5273C106.51 59.5273 122.262 66.0106 122.262 74.1396" stroke="#351512" stroke-width="2" stroke-linecap="round" stroke-linejoin="round"/>
<path fill-rule="evenodd" clip-rule="evenodd" d="M109.252 82.7593C103.476 84.8424 96.0364 86.0961 87.9178 86.0961C75.6311 86.0961 64.8996 83.2245 59.1352 78.9527C58.2973 77.7525 57.8396 76.4544 57.8396 75.0996C57.8396 68.9734 67.1992 64.0071 78.7447 64.0071C90.2903 64.0071 109.569 75.3729 109.569 81.4991C109.569 81.9609 109.46 82.3797 109.252 82.7593Z" fill="#BDBDBD" fill-opacity="0.5"/>
<path fill-rule="evenodd" clip-rule="evenodd" d="M62.9951 81.8951C69.2232 79.0258 78.0848 77.2327 87.9175 77.2327C97.7501 77.2327 106.612 79.0257 112.84 81.895C106.743 84.8642 97.8371 86.736 87.9174 86.736C77.9978 86.736 69.0919 84.8642 62.9951 81.8951Z" fill="#724B37"/>
<path d="M118.849 74.2463C118.849 81.5879 105.048 87.5394 88.0241 87.5394C71.0003 87.5394 57.1997 81.5879 57.1997 74.2463" stroke="black" stroke-width="2" stroke-linecap="round"/>
<line opacity="0.5" x1="60.8268" y1="87.6859" x2="60.8268" y2="138.668" stroke="white" stroke-width="3.41425" stroke-linecap="round"/>
<path d="M70.6994 61.0077C64.9173 75.0943 82.369 81.0991 91.8176 82.3407C87.0368 78.2773 78.2432 68.5251 81.315 62.0236C85.1546 53.8967 106.725 56.267 117.453 53.4452C128.181 50.6234 141.863 42.1116 144.444 32.2251C147.154 21.8408 146.589 12.3595 128.859 4.68416C110.516 -3.2563 78.2466 0.394993 84.5708 4.68416C90.8949 8.97333 116.098 18.5675 105.369 32.2251C94.6409 45.8827 77.927 43.3996 70.6994 61.0077Z" fill="#C4C4C4" fill-opacity="0.3"/>
<path d="M79.9598 8.74764C85.1546 9.53775 93.2857 11.4566 92.3822 18.5676L90.2944 21.6977C90.1776 21.9387 90.0384 22.139 89.8977 22.2924L90.2944 21.6977C90.8653 20.5199 90.9028 18.3702 87.9779 15.9715C83.5736 12.3596 72.8451 15.6329 68.4408 12.9239C64.0364 10.215 70.6994 3.66836 70.6994 4.68422C70.6994 5.70007 74.7649 7.95753 79.9598 8.74764Z" fill="#C4C4C4" fill-opacity="0.3"/>
<g clip-path="url(#clip0_1769_27770)">
<path d="M81.692 117.279H82.9979L83.8957 117.361L85.0383 117.566L86.1402 117.935L86.6707 118.222L86.7115 118.427L86.3034 118.96L85.9361 119.534L85.6913 119.902L85.5688 119.943L84.8343 119.452L84.2221 119.165L83.4468 118.96L82.9571 118.919L82.1409 119.001L81.5287 119.206L81.0798 119.493L80.7942 119.738L80.4677 120.271L80.2637 120.886L80.182 121.747L80.3045 122.649L80.5085 123.305L80.835 123.961L81.1615 124.371L81.4471 124.699L81.9776 125.068L82.5898 125.314L83.2019 125.437H83.7732L84.4262 125.273L85.0383 124.945L85.3648 124.658L85.7321 124.125L85.9769 123.633L86.181 122.854L86.2626 122.116L86.3034 121.296L86.4258 120.558L86.6299 119.984L86.9563 119.411L87.3236 118.96L87.6093 118.673L88.1806 118.263L88.7927 117.935L89.8946 117.566L90.9964 117.361L91.7718 117.279H93.445L94.3427 117.402L95.1997 117.648L95.8527 117.976L96.2608 118.263L96.5056 118.468L96.8729 118.919L97.1586 119.411L97.4034 120.148L97.5258 121.009V121.993L97.3626 123.141L97.1586 123.838L96.7913 124.699L96.3424 125.478L96.0159 125.888L95.6486 126.298L95.3222 126.626L94.7916 127.036L94.1387 127.404L93.5674 127.65L93.0369 127.814L92.3839 127.937L91.9758 127.978H91.2413L90.5883 127.896L89.8538 127.691L88.9152 127.241L88.4255 126.872L88.3846 126.79V126.544L88.9968 125.314L89.3232 124.494L89.4049 124.412L89.6089 124.453L90.0578 124.822L90.4659 125.109L90.9148 125.314L91.4045 125.437L91.935 125.478L92.5063 125.396L93.0369 125.191L93.445 124.945L93.853 124.617L94.1795 124.248L94.4244 123.838L94.6692 123.305L94.8733 122.608L94.9141 122.321V121.337L94.7916 120.722L94.5876 120.23L94.3019 119.82L93.9755 119.493L93.2817 119.124L92.792 119.001L92.5063 118.96H91.5677L90.8332 119.124L90.2619 119.37L89.813 119.697L89.6089 119.861L89.2416 120.394L88.9968 120.968L88.8744 121.624L88.8335 122.526L88.7111 123.469L88.4255 124.453L88.1398 125.109L87.7725 125.724L87.242 126.38L86.9563 126.667L86.2626 127.2L85.6096 127.527L84.7526 127.814L84.0181 127.937H83.0387L82.3041 127.814L81.6104 127.609L80.7942 127.241L80.2229 126.872L79.774 126.503L79.2434 125.97L78.8354 125.437L78.3865 124.699L78.0192 123.838L77.7743 122.977L77.6519 122.28L77.6111 121.87V121.009L77.6927 120.353L77.8559 119.738L78.1824 119.042L78.5089 118.591L78.8354 118.263L79.2434 117.976L79.8964 117.648L80.5901 117.443L81.2839 117.32L81.692 117.279Z" fill="#351512"/>
<path d="M60.0225 112.36H60.7163L61.5325 112.483L62.267 112.688L63.2873 113.098L64.3075 113.63L65.0829 114.163L65.5318 114.532L66.0215 114.983L66.3887 115.352L66.7968 115.885L67.0825 115.721L67.4906 115.475L68.0619 115.27L68.5516 115.188H69.8167L70.6329 115.311L71.4899 115.516L72.3468 115.803L73.2038 116.172L73.8568 116.541L74.3873 116.91L74.8362 117.279L75.2035 117.607L75.6524 118.181L76.0605 118.796L76.3461 119.493L76.5502 120.272L76.6318 120.846L76.6726 121.829V126.257L76.591 126.626L76.4277 126.872L76.1829 127.077L75.8972 127.159H75.3667L74.8362 126.995L74.5913 126.831L74.3465 126.544L74.1832 126.175L74.1424 125.888V122.69L74.1016 120.436L73.9792 119.78L73.816 119.288L73.4895 118.673L73.0814 118.14L72.5101 117.689L71.8979 117.361L71.2858 117.156L70.6737 117.033H69.8575L69.327 117.197L68.8781 117.484L68.6332 117.771L68.3476 118.345L68.1843 118.96L68.1435 119.288L68.1027 122.772L68.0619 124.986L67.8987 125.314L67.6538 125.519L67.3682 125.601H67.0417L66.4704 125.478L66.0215 125.232L65.7358 124.945L65.5726 124.617L65.5318 124.494V119.698L65.4909 118.591L65.3277 117.689L65.1237 117.074L64.838 116.541L64.5115 116.09L64.1442 115.68L63.6954 115.311L63.124 114.983L62.5527 114.737L62.063 114.614L61.4509 114.573L61.002 114.655L60.5123 114.901L60.2266 115.188L59.9817 115.557L59.7369 116.172L59.6145 116.746L59.5736 117.074L59.5328 118.222L59.492 122.608L59.4512 123.059L59.288 123.428L59.1656 123.551L58.9207 123.633H58.3086L57.7781 123.469L57.3292 123.141L57.0843 122.731L57.0027 122.362V121.132L57.0435 117.894L57.0843 116.377L57.2067 115.434L57.4108 114.655L57.6964 113.999L57.9821 113.548L58.3494 113.098L58.8391 112.729L59.3696 112.483L60.0225 112.36Z" fill="#351512"/>
<path d="M109.034 110.023L109.401 110.064L109.646 110.228L109.728 110.433L109.687 112.359L109.646 117.935L109.605 120.025L109.442 121.132L109.238 121.87L108.83 122.854L108.422 123.551L108.014 124.125L107.647 124.535L107.361 124.863L106.994 125.191L106.3 125.683L105.81 125.97L104.912 126.339L104.055 126.544L103.647 126.626L102.79 126.667L102.056 126.585L101.444 126.421L100.791 126.134L100.26 125.765L99.7705 125.314L99.4032 124.863L98.9543 124.084L98.6687 123.346L98.4646 122.485L98.4238 122.198V120.722L98.5463 119.984L98.7503 119.369L99.0768 118.714L99.4441 118.14L99.8113 117.689L100.179 117.32L100.709 116.91L101.484 116.418L102.137 116.09L102.954 115.762L103.892 115.475L104.912 115.27L105.606 115.188H106.463L107.035 115.27L106.994 115.188V113.63L107.035 111.294L107.198 111.007L107.443 110.72L107.973 110.351L108.585 110.105L109.034 110.023ZM104.3 117.197L103.688 117.32L103.035 117.607L102.546 117.894L102.097 118.263L101.811 118.55L101.525 118.96L101.24 119.533L101.036 120.189L100.954 121.009L100.995 121.624L101.158 122.28L101.362 122.813L101.648 123.264L102.015 123.633L102.382 123.879L102.75 124.043L103.198 124.166H103.892L104.423 124.043L104.912 123.838L105.361 123.592L105.851 123.141L106.014 122.977V122.895H106.096L106.382 122.485L106.708 121.829L106.953 121.091L107.075 120.394V119.533L106.994 118.96L106.749 118.304L106.463 117.894L106.137 117.566L105.565 117.279L105.198 117.197H104.3Z" fill="#351512"/>
<path d="M116.461 111.786H117.686L118.134 111.909L118.461 112.073L118.747 112.401L118.828 112.606V113.097L118.665 113.589L118.42 114.04L118.094 114.368L117.808 114.532L117.645 114.573H117.277L116.094 114.368H115.523L114.788 114.491L114.217 114.696L113.645 115.065L113.401 115.393L113.278 115.68V116.049L113.441 116.295L113.768 116.459L114.339 116.582L116.257 116.746L117.073 116.91L117.604 117.115L118.094 117.402L118.461 117.771L118.787 118.427L118.91 118.878L118.951 119.247V119.739L118.828 120.559L118.583 121.296L118.216 121.993L117.849 122.444L117.604 122.731L117.155 123.1L116.461 123.551L115.645 123.92L114.625 124.207L113.972 124.33L113.441 124.371H112.911L112.217 124.289L111.523 124.084L110.911 123.756L110.585 123.387L110.462 122.977L110.544 122.444L110.83 121.87L111.115 121.542L111.523 121.337L111.809 121.255L112.299 121.378L113.197 121.665L113.605 121.747H114.502L115.115 121.583L115.686 121.296L115.931 121.091L116.176 120.722L116.298 120.313L116.257 119.985L116.094 119.739L115.768 119.534L115.115 119.37L113.441 119.165L112.421 118.96L111.768 118.714L111.401 118.468L111.115 118.222L110.83 117.771L110.666 117.361L110.585 116.787L110.626 116.213L110.789 115.598L110.993 115.106L111.279 114.655L111.727 114.081L112.217 113.63L112.748 113.22L113.36 112.852L113.972 112.524L114.788 112.196L115.564 111.95L116.461 111.786Z" fill="#351512"/>
</g>
<defs>
<clipPath id="clip0_1769_27770">
<rect width="62" height="18" fill="white" transform="translate(57 110)"/>
</clipPath>
</defs>
</svg>
