<svg width="151" height="120" viewBox="0 0 151 120" fill="none" xmlns="http://www.w3.org/2000/svg">
<defs>
<linearGradient id="paint0_linear_1434_69915" x1="85.6045" y1="65.3369" x2="85.6045" y2="-16.6208" gradientUnits="userSpaceOnUse">
<stop stop-color="#686666"/>
<stop offset="1" stop-color="#BDBDBD" stop-opacity="0"/>
</linearGradient>
</defs>
<ellipse cx="104.783" cy="100.78" rx="43.3184" ry="16.1382" fill="#BDBDBD" fill-opacity="0.5"/>
<path d="M115.242 73.1L114.085 72.989L113.973 74.1459C113.566 78.37 114.858 82.5819 117.563 85.8552C120.268 89.1283 124.165 91.1946 128.397 91.6004C132.628 92.0062 136.848 90.7183 140.128 88.0195C143.107 85.568 145.09 82.1347 145.733 78.3603L145.775 78.3644L145.887 77.2075C145.887 77.2075 145.887 77.2075 145.887 77.2074L145.998 76.0495L149.202 42.7892L149.202 42.7892L149.204 42.7772C149.585 38.3367 148.17 33.9259 145.334 30.4949L144.438 31.2356L145.334 30.4949C142.457 27.0137 138.312 24.8161 133.812 24.3845C129.312 23.9529 124.824 25.3226 121.335 28.193C117.847 31.0635 115.643 35.1997 115.21 39.6922L115.099 40.8501L116.257 40.9612L123.627 41.668L124.784 41.7789L124.896 40.622C125.081 38.6955 126.026 36.9209 127.524 35.6888C129.021 34.4566 130.949 33.8681 132.882 34.0535C134.815 34.2389 136.594 35.1828 137.829 36.6767C139.065 38.172 139.658 40.0943 139.472 42.0189L136.284 75.1179L136.172 76.2748C136.013 77.9252 135.204 79.4456 133.921 80.5012C132.638 81.5569 130.986 82.0612 129.33 81.9023C127.674 81.7435 126.149 80.9347 125.091 79.6548C124.033 78.375 123.529 76.7289 123.688 75.0786L123.799 73.9206L122.641 73.8096L115.242 73.1Z" fill="#E1E1E1" stroke="#351512" stroke-width="2.32558"/>
<path fill-rule="evenodd" clip-rule="evenodd" d="M136.11 25.9541C135.324 25.7539 134.519 25.613 133.701 25.5346C129.507 25.1324 125.325 26.409 122.074 29.0836C118.823 31.7582 116.771 35.6116 116.368 39.7963L123.738 40.5031C123.953 38.2689 125.049 36.2115 126.785 34.7835C128.52 33.3555 130.754 32.6739 132.993 32.8886C134.092 32.9941 135.149 33.3114 136.11 33.8122V25.9541ZM136.11 79.7922C135.711 80.3877 135.224 80.9277 134.66 81.3917C133.138 82.6433 131.181 83.2406 129.219 83.0524C127.256 82.8642 125.449 81.9059 124.195 80.3882C122.94 78.8705 122.342 76.9178 122.53 74.9597L115.131 74.25C114.753 78.1663 115.951 82.0717 118.46 85.107C120.968 88.1424 124.583 90.0591 128.508 90.4355C131.132 90.6872 133.752 90.2364 136.11 89.1616V79.7922Z" fill="#BDBDBD" fill-opacity="0.5"/>
<path fill-rule="evenodd" clip-rule="evenodd" d="M52.1768 18.6224L51.1862 18.6224V90.9304L51.186 90.9998C51.186 103.154 68.7176 113.006 90.3439 113.006C111.97 113.006 129.502 103.154 129.502 90.9998L129.502 90.9998V18.6224L128.51 18.6224C127.991 27.5126 111.102 34.6506 90.3434 34.6506C69.5851 34.6506 52.6961 27.5126 52.1768 18.6224Z" fill="#E1E1E1"/>
<path d="M111.146 40.247C111.146 38.0885 112.537 36.1689 114.545 35.3766C116.123 34.754 118.181 33.891 120.569 32.7712C126.198 30.1318 128.523 23.2682 128.523 23.2682V94.57C128.523 94.7072 128.516 94.8409 128.493 94.9762C128.317 96.0173 127.197 100.908 121.307 104.681C119.735 105.688 117.42 106.344 115.397 106.756C113.127 107.219 111.146 105.4 111.146 103.084V40.247Z" fill="#BDBDBD" fill-opacity="0.5"/>
<ellipse cx="90.3439" cy="18.6224" rx="39.1579" ry="16.8717" fill="#E1E1E1"/>
<path d="M129.502 18.6224V90.9998C129.502 103.154 111.97 113.006 90.3439 113.006C68.7176 113.006 51.186 103.154 51.186 90.9998V18.6224C51.186 9.30441 69.2583 1.75067 90.3439 1.75067C111.43 1.75067 129.502 9.18215 129.502 18.5002" stroke="#351512" stroke-width="2.32558" stroke-linecap="round" stroke-linejoin="round"/>
<path fill-rule="evenodd" clip-rule="evenodd" d="M114.367 29.7517C111.565 30.6688 108.446 31.4517 105.108 32.0953L87.899 45.8504L90.0997 65.3369L72.9843 56.1668L62.0971 29.2297C59.7653 28.1461 57.7681 26.9269 56.1763 25.6027C55.7912 22.7776 55.5913 20.6626 55.5913 19.6005C55.5913 12.5782 66.3294 6.88553 79.5755 6.88553C92.8216 6.88553 114.94 19.9137 114.94 26.936C114.94 27.5752 114.74 28.535 114.367 29.7517Z" fill="url(#paint0_linear_1434_69915)" fill-opacity="0.5"/>
<path d="M125.586 18.6224C125.586 22.3898 122.413 25.8378 117.155 28.4974C113.866 30.161 109.762 31.5161 105.108 32.4479L87.3255 45.8505L90.1937 66.4832M90.1937 66.4832L72.4108 56.1668M90.1937 66.4832L97.6511 76.2264L92.4883 83.3905M54.8569 18.6224C54.8569 21.9442 57.3239 25.0177 61.5115 27.5214L72.4108 56.1668M72.4108 56.1668L68.3953 61.325V66.4832M87.3255 90.5547L92.4883 83.3905M87.3255 90.5547L79.2945 92.2741M87.3255 90.5547L87.8991 95.7128M92.4883 83.3905L107.977 95.1397" stroke="black" stroke-width="2.32558" stroke-linecap="round"/>
<line opacity="0.5" x1="59.0446" y1="34.0559" x2="59.0446" y2="92.438" stroke="white" stroke-width="3.97005" stroke-linecap="round"/>
<path opacity="0.5" d="M90.7673 46.9967L105.682 35.5341" stroke="white" stroke-width="2.32558" stroke-linecap="round" stroke-linejoin="round"/>
<ellipse cx="31.1085" cy="104.31" rx="18.9302" ry="8.02383" fill="#BDBDBD" fill-opacity="0.5"/>
<ellipse cx="55.2012" cy="115.199" rx="10.8992" ry="4.01192" fill="#BDBDBD" fill-opacity="0.5"/>
<path d="M23.0744 77.8155C22.9142 77.2996 22.4194 76.9621 21.8802 77.001C21.3409 77.0399 20.8995 77.445 20.8147 77.9786C18.5965 91.9434 7.71863 98.834 2.63582 100.511C2.14725 100.672 1.82251 101.134 1.83732 101.648C1.85212 102.162 2.20296 102.605 2.69999 102.738L31.2815 110.351C31.536 110.419 31.806 110.398 32.0473 110.293L45.9272 104.225C46.3478 104.041 46.6209 103.628 46.6246 103.169C46.6282 102.71 46.3617 102.293 45.9441 102.103L28.0905 93.9717L23.0744 77.8155Z" fill="#E1E1E1" stroke="black" stroke-width="2.32558" stroke-linejoin="round"/>
<path opacity="0.5" d="M7.58936 101.444C15.0467 97.4322 19.6359 93.4203 21.9304 83.6771" stroke="white" stroke-width="2.32558" stroke-linecap="round"/>
<path d="M51.6809 108.416C51.3702 108.27 51.0109 108.268 50.6992 108.412L43.2418 111.851C42.8174 112.047 42.5514 112.477 42.5666 112.945C42.5818 113.412 42.8753 113.824 43.3117 113.992L50.769 116.858C50.9661 116.934 51.1801 116.954 51.388 116.918L61.14 115.198C61.6391 115.11 62.0237 114.709 62.0907 114.207C62.1576 113.704 61.8915 113.216 61.4328 113.001L51.6809 108.416Z" fill="#E1E1E1" stroke="black" stroke-width="2.32558" stroke-linejoin="round"/>
</svg>
