<svg width="180" height="120" viewBox="0 0 180 120" fill="none" xmlns="http://www.w3.org/2000/svg">
    <defs>
        <linearGradient id="paint0_linear_1434_69800" x1="100.508" y1="12.6335" x2="39.713" y2="56.5943"
            gradientUnits="userSpaceOnUse">
            <stop offset="0.0667144" stop-color="#00C89A" />
            <stop offset="1" stop-color="#5288B6" />
        </linearGradient>
        <linearGradient id="paint1_linear_1434_69800" x1="91.282" y1="38.4217" x2="9.83324" y2="103.286"
            gradientUnits="userSpaceOnUse">
            <stop offset="0.0667144" stop-color="#00C89A" />
            <stop offset="1" stop-color="#5288B6" />
        </linearGradient>
    </defs>
    <mask id="path-1-inside-1_1434_69800" fill="white">
        <path fill-rule="evenodd" clip-rule="evenodd"
            d="M68.9567 12.6335C85.309 12.6853 98.549 25.9574 98.549 42.3218C98.549 55.3762 90.1235 66.4627 78.4137 70.4398C63.7498 68.3136 52.4761 55.5001 52.4761 40.0109C52.4761 28.0731 59.1726 17.7248 68.9567 12.6335Z" />
    </mask>
    <path fill-rule="evenodd" clip-rule="evenodd"
        d="M68.9567 12.6335C85.309 12.6853 98.549 25.9574 98.549 42.3218C98.549 55.3762 90.1235 66.4627 78.4137 70.4398C63.7498 68.3136 52.4761 55.5001 52.4761 40.0109C52.4761 28.0731 59.1726 17.7248 68.9567 12.6335Z"
        fill="url(#paint0_linear_1434_69800)" />
    <path
        d="M68.9567 12.6335L68.9619 10.9904L68.5572 10.9891L68.1982 11.1759L68.9567 12.6335ZM78.4137 70.4398L78.1779 72.066L78.5685 72.1226L78.9421 71.9957L78.4137 70.4398ZM68.9515 14.2766C84.3986 14.3256 96.9059 26.8631 96.9059 42.3218H100.192C100.192 25.0517 86.2193 11.0451 68.9619 10.9904L68.9515 14.2766ZM96.9059 42.3218C96.9059 54.6512 88.9489 65.1263 77.8853 68.884L78.9421 71.9957C91.298 67.7991 100.192 56.1013 100.192 42.3218H96.9059ZM78.6495 68.8137C64.8016 66.8057 54.1192 54.6919 54.1192 40.0109H50.8329C50.8329 56.3083 62.698 69.8214 78.1779 72.066L78.6495 68.8137ZM54.1192 40.0109C54.1192 28.6998 60.4624 18.906 69.7152 14.0911L68.1982 11.1759C57.8829 16.5437 50.8329 27.4465 50.8329 40.0109H54.1192Z"
        fill="black" mask="url(#path-1-inside-1_1434_69800)" />
    <mask id="path-3-outside-2_1434_69800" maskUnits="userSpaceOnUse" x="60.6992" y="13.4337" width="63" height="65"
        fill="black">
        <rect fill="white" x="60.6992" y="13.4337" width="63" height="65" />
        <path fill-rule="evenodd" clip-rule="evenodd"
            d="M83.5371 71.8503C102.254 71.8503 117.427 56.6774 117.427 37.9607C117.427 29.3128 114.188 21.4215 108.856 15.4337C116.801 21.6359 121.908 31.3024 121.908 42.1619C121.908 60.8786 106.735 76.0515 88.0186 76.0515C77.9497 76.0515 68.9064 71.6605 62.6992 64.6888C68.4471 69.1764 75.6798 71.8503 83.5371 71.8503Z" />
    </mask>
    <path fill-rule="evenodd" clip-rule="evenodd"
        d="M83.5371 71.8503C102.254 71.8503 117.427 56.6774 117.427 37.9607C117.427 29.3128 114.188 21.4215 108.856 15.4337C116.801 21.6359 121.908 31.3024 121.908 42.1619C121.908 60.8786 106.735 76.0515 88.0186 76.0515C77.9497 76.0515 68.9064 71.6605 62.6992 64.6888C68.4471 69.1764 75.6798 71.8503 83.5371 71.8503Z"
        fill="#8D8D8D" />
    <path
        d="M108.856 15.4337L109.868 14.1386L107.629 16.5264L108.856 15.4337ZM62.6992 64.6888L63.7104 63.3937L61.472 65.7815L62.6992 64.6888ZM115.784 37.9607C115.784 55.7699 101.346 70.2072 83.5371 70.2072V73.4935C103.161 73.4935 119.07 57.5849 119.07 37.9607H115.784ZM107.629 16.5264C112.703 22.2248 115.784 29.731 115.784 37.9607H119.07C119.07 28.8946 115.672 20.6181 110.084 14.3411L107.629 16.5264ZM107.845 16.7289C115.408 22.6331 120.265 31.8298 120.265 42.1619H123.551C123.551 30.775 118.193 20.6387 109.868 14.1386L107.845 16.7289ZM120.265 42.1619C120.265 59.9711 105.828 74.4084 88.0186 74.4084V77.6947C107.643 77.6947 123.551 61.7861 123.551 42.1619H120.265ZM88.0186 74.4084C78.4381 74.4084 69.835 70.2325 63.9264 63.5962L61.472 65.7815C67.9778 73.0885 77.4613 77.6947 88.0186 77.6947V74.4084ZM83.5371 70.2072C76.0591 70.2072 69.1797 67.6637 63.7104 63.3937L61.688 65.984C67.7145 70.689 75.3006 73.4935 83.5371 73.4935V70.2072Z"
        fill="black" mask="url(#path-3-outside-2_1434_69800)" />
    <mask id="path-5-outside-3_1434_69800" maskUnits="userSpaceOnUse" x="50.7559" y="5.03174" width="61" height="65"
        fill="black">
        <rect fill="white" x="50.7559" y="5.03174" width="61" height="65" />
        <path fill-rule="evenodd" clip-rule="evenodd"
            d="M67.1591 68.6519C60.8804 62.5007 56.9846 53.9265 56.9846 44.4424C56.9846 25.7256 72.1575 10.5527 90.8742 10.5527C98.1275 10.5527 104.849 12.8313 110.361 16.7118C104.248 10.7237 95.8781 7.03174 86.6455 7.03174C67.9288 7.03174 52.7559 22.2047 52.7559 40.9214C52.7559 52.3849 58.4475 62.519 67.1591 68.6519Z" />
    </mask>
    <path fill-rule="evenodd" clip-rule="evenodd"
        d="M67.1591 68.6519C60.8804 62.5007 56.9846 53.9265 56.9846 44.4424C56.9846 25.7256 72.1575 10.5527 90.8742 10.5527C98.1275 10.5527 104.849 12.8313 110.361 16.7118C104.248 10.7237 95.8781 7.03174 86.6455 7.03174C67.9288 7.03174 52.7559 22.2047 52.7559 40.9214C52.7559 52.3849 58.4475 62.519 67.1591 68.6519Z"
        fill="#8D8D8D" />
    <path
        d="M67.1591 68.6519L66.2132 69.9955L68.309 67.4782L67.1591 68.6519ZM110.361 16.7118L109.415 18.0554L111.51 15.5381L110.361 16.7118ZM68.309 67.4782C62.3328 61.6233 58.6277 53.467 58.6277 44.4424H55.3414C55.3414 54.386 59.4281 63.3781 66.0092 69.8256L68.309 67.4782ZM58.6277 44.4424C58.6277 26.6331 73.065 12.1958 90.8742 12.1958V8.90955C71.25 8.90955 55.3414 24.8181 55.3414 44.4424H58.6277ZM90.8742 12.1958C97.778 12.1958 104.171 14.3635 109.415 18.0554L111.306 15.3682C105.527 11.2992 98.477 8.90955 90.8742 8.90955V12.1958ZM86.6455 8.67487C95.431 8.67487 103.393 12.1861 109.211 17.8855L111.51 15.5381C105.104 9.26127 96.3252 5.3886 86.6455 5.3886V8.67487ZM54.399 40.9214C54.399 23.1121 68.8363 8.67487 86.6455 8.67487V5.3886C67.0213 5.3886 51.1127 21.2972 51.1127 40.9214H54.399ZM68.105 67.3083C59.8118 61.47 54.399 51.8277 54.399 40.9214H51.1127C51.1127 52.942 57.0833 63.568 66.2132 69.9955L68.105 67.3083Z"
        fill="black" mask="url(#path-5-outside-3_1434_69800)" />
    <mask id="path-7-outside-4_1434_69800" maskUnits="userSpaceOnUse" x="20.2273" y="35.4217" width="70" height="81"
        fill="black">
        <rect fill="white" x="20.2273" y="35.4217" width="70" height="81" />
        <path fill-rule="evenodd" clip-rule="evenodd"
            d="M51.9667 38.4217C43.1265 40.0163 36.4213 47.754 36.4213 57.061C36.4213 67.5226 44.8934 76.0014 55.3467 76.0014C60.2687 76.0014 64.7514 74.1217 68.1173 71.0402C58.3212 65.0996 51.7757 54.335 51.7757 42.0417C51.7757 40.8188 51.8404 39.6111 51.9667 38.4217ZM66.1253 80.7365H68.5945C79.5653 80.7365 88.4662 89.6444 88.4662 100.624V106.78C88.4662 110.701 85.2873 113.882 81.3692 113.882H29.3243C25.4062 113.882 22.2273 110.701 22.2273 106.78V100.624C22.2273 89.6444 31.1281 80.7365 42.099 80.7365H44.5681C47.8653 82.2458 51.5025 83.1041 55.3467 83.1041C59.191 83.1041 62.843 82.2458 66.1253 80.7365Z" />
    </mask>
    <path fill-rule="evenodd" clip-rule="evenodd"
        d="M51.9667 38.4217C43.1265 40.0163 36.4213 47.754 36.4213 57.061C36.4213 67.5226 44.8934 76.0014 55.3467 76.0014C60.2687 76.0014 64.7514 74.1217 68.1173 71.0402C58.3212 65.0996 51.7757 54.335 51.7757 42.0417C51.7757 40.8188 51.8404 39.6111 51.9667 38.4217ZM66.1253 80.7365H68.5945C79.5653 80.7365 88.4662 89.6444 88.4662 100.624V106.78C88.4662 110.701 85.2873 113.882 81.3692 113.882H29.3243C25.4062 113.882 22.2273 110.701 22.2273 106.78V100.624C22.2273 89.6444 31.1281 80.7365 42.099 80.7365H44.5681C47.8653 82.2458 51.5025 83.1041 55.3467 83.1041C59.191 83.1041 62.843 82.2458 66.1253 80.7365Z"
        fill="url(#paint1_linear_1434_69800)" />
    <path
        d="M51.9667 38.4217L53.6007 38.5952L53.8321 36.4156L51.675 36.8047L51.9667 38.4217ZM68.1173 71.0402L69.2269 72.2522L70.8438 70.772L68.9694 69.6353L68.1173 71.0402ZM66.1253 80.7365V79.0934H65.7657L65.4389 79.2436L66.1253 80.7365ZM44.5681 80.7365L45.2521 79.2425L44.9263 79.0934H44.5681V80.7365ZM51.675 36.8047C42.0654 38.5381 34.7782 46.946 34.7782 57.061H38.0645C38.0645 48.562 44.1876 41.4946 52.2584 40.0388L51.675 36.8047ZM34.7782 57.061C34.7782 68.4289 43.9847 77.6446 55.3467 77.6446V74.3583C45.8021 74.3583 38.0645 66.6164 38.0645 57.061H34.7782ZM55.3467 77.6446C60.6954 77.6446 65.57 75.6 69.2269 72.2522L67.0078 69.8283C63.9329 72.6433 59.8421 74.3583 55.3467 74.3583V77.6446ZM68.9694 69.6353C59.6439 63.98 53.4188 53.7371 53.4188 42.0417H50.1325C50.1325 54.933 56.9986 66.2191 67.2653 72.4452L68.9694 69.6353ZM53.4188 42.0417C53.4188 40.8769 53.4805 39.7271 53.6007 38.5952L50.3328 38.2482C50.2004 39.4951 50.1325 40.7608 50.1325 42.0417H53.4188ZM68.5945 79.0934H66.1253V82.3797H68.5945V79.0934ZM90.1093 100.624C90.1093 88.7382 80.474 79.0934 68.5945 79.0934V82.3797C78.6566 82.3797 86.8231 90.5507 86.8231 100.624H90.1093ZM90.1093 106.78V100.624H86.8231V106.78H90.1093ZM81.3692 115.525C86.196 115.525 90.1093 111.607 90.1093 106.78H86.8231C86.8231 109.795 84.3786 112.239 81.3692 112.239V115.525ZM29.3243 115.525H81.3692V112.239H29.3243V115.525ZM20.5842 106.78C20.5842 111.607 24.4975 115.525 29.3243 115.525V112.239C26.3149 112.239 23.8704 109.795 23.8704 106.78H20.5842ZM20.5842 100.624V106.78H23.8704V100.624H20.5842ZM42.099 79.0934C30.2194 79.0934 20.5842 88.7382 20.5842 100.624H23.8704C23.8704 90.5507 32.0369 82.3797 42.099 82.3797V79.0934ZM44.5681 79.0934H42.099V82.3797H44.5681V79.0934ZM55.3467 81.4609C51.7507 81.4609 48.3459 80.6587 45.2521 79.2425L43.8842 82.2306C47.3847 83.8329 51.2543 84.7472 55.3467 84.7472V81.4609ZM65.4389 79.2436C62.3627 80.6581 58.9442 81.4609 55.3467 81.4609V84.7472C59.4378 84.7472 63.3232 83.8335 66.8118 82.2294L65.4389 79.2436Z"
        fill="black" mask="url(#path-7-outside-4_1434_69800)" />
    <path
        d="M113.101 62.1671L112.5 61.6072L111.94 62.2084L108.508 65.8937L107.948 66.495L108.549 67.0548L124.185 81.6124L124.786 82.1723L125.346 81.571L128.778 77.8857L129.338 77.2845L128.736 76.7247L113.101 62.1671Z"
        fill="#37474F" stroke="black" stroke-width="1.64314" />
    <path d="M112.538 62.7585L110.824 64.5986L126.46 79.1562L128.173 77.3162L112.538 62.7585Z" fill="#263238" />
    <path
        d="M157.886 99.9222L157.873 99.9097L157.859 99.8977L123.18 70.497C123.18 70.4966 123.179 70.4961 123.178 70.4957C122.924 70.2788 122.595 70.169 122.262 70.1894C121.929 70.2097 121.617 70.3581 121.391 70.6032L117.51 74.7654L117.51 74.7657C117.282 75.0106 117.157 75.334 117.162 75.6686C117.166 76.0027 117.3 76.3222 117.534 76.5607C117.534 76.561 117.534 76.5613 117.535 76.5616L149.332 109.056L149.344 109.069L149.357 109.081C150.406 110.064 151.799 109.984 152.996 109.523C154.202 109.057 155.411 108.145 156.397 107.091C157.382 106.037 158.212 104.769 158.592 103.532C158.97 102.301 158.946 100.906 157.886 99.9222Z"
        fill="#71CBB6" stroke="black" stroke-width="1.64314" />
    <path opacity="0.1"
        d="M157.887 99.9221L157.873 99.9095L157.859 99.8975L123.179 70.5038C123.178 70.5033 123.177 70.5027 123.177 70.5022C122.922 70.2855 122.594 70.1758 122.26 70.1962C121.927 70.2166 121.615 70.3648 121.389 70.61L119.625 72.5038L119.058 73.1118L119.673 73.6714L155.76 106.526L156.401 107.11L156.949 106.438C157.767 105.437 158.427 104.283 158.691 103.163C158.957 102.035 158.84 100.807 157.887 99.9221Z"
        fill="black" stroke="black" stroke-width="1.64314" />
    <mask id="path-13-outside-5_1434_69800" maskUnits="userSpaceOnUse" x="47.675" y="2.09091" width="72" height="72"
        fill="black">
        <rect fill="white" x="47.675" y="2.09091" width="72" height="72" />
        <path
            d="M117.454 37.9806C117.454 56.6973 102.281 71.8703 83.5647 71.8703C64.848 71.8703 49.675 56.6973 49.675 37.9806C49.675 19.2638 64.848 4.09091 83.5647 4.09091C102.281 4.09091 117.454 19.2638 117.454 37.9806ZM52.2198 37.9806C52.2198 55.2919 66.2534 69.3255 83.5647 69.3255C100.876 69.3255 114.91 55.2919 114.91 37.9806C114.91 20.6693 100.876 6.63568 83.5647 6.63568C66.2534 6.63568 52.2198 20.6693 52.2198 37.9806Z" />
    </mask>
    <path
        d="M117.454 37.9806C117.454 56.6973 102.281 71.8703 83.5647 71.8703C64.848 71.8703 49.675 56.6973 49.675 37.9806C49.675 19.2638 64.848 4.09091 83.5647 4.09091C102.281 4.09091 117.454 19.2638 117.454 37.9806ZM52.2198 37.9806C52.2198 55.2919 66.2534 69.3255 83.5647 69.3255C100.876 69.3255 114.91 55.2919 114.91 37.9806C114.91 20.6693 100.876 6.63568 83.5647 6.63568C66.2534 6.63568 52.2198 20.6693 52.2198 37.9806Z"
        fill="#C4C4C4" />
    <path
        d="M117.454 37.9806C117.454 56.6973 102.281 71.8703 83.5647 71.8703C64.848 71.8703 49.675 56.6973 49.675 37.9806C49.675 19.2638 64.848 4.09091 83.5647 4.09091C102.281 4.09091 117.454 19.2638 117.454 37.9806ZM52.2198 37.9806C52.2198 55.2919 66.2534 69.3255 83.5647 69.3255C100.876 69.3255 114.91 55.2919 114.91 37.9806C114.91 20.6693 100.876 6.63568 83.5647 6.63568C66.2534 6.63568 52.2198 20.6693 52.2198 37.9806Z"
        stroke="black" stroke-width="3.28627" mask="url(#path-13-outside-5_1434_69800)" />
    <ellipse cx="85.9454" cy="40.0111" rx="30.2486" ry="30.7388" fill="white" fill-opacity="0.4" />
    <path fill-rule="evenodd" clip-rule="evenodd"
        d="M63.4929 60.6103L92.69 10.0394C97.235 11.0913 101.391 13.1833 104.902 16.0561L74.6117 68.5197C70.3317 66.7609 66.5381 64.0357 63.4929 60.6103Z"
        fill="white" fill-opacity="0.4" />
    <mask id="path-16-outside-6_1434_69800" maskUnits="userSpaceOnUse" x="47.675" y="2.09091" width="72" height="72"
        fill="black">
        <rect fill="white" x="47.675" y="2.09091" width="72" height="72" />
        <path
            d="M117.454 37.9806C117.454 56.6973 102.281 71.8703 83.5647 71.8703C64.848 71.8703 49.675 56.6973 49.675 37.9806C49.675 19.2638 64.848 4.09091 83.5647 4.09091C102.281 4.09091 117.454 19.2638 117.454 37.9806ZM52.2198 37.9806C52.2198 55.2919 66.2534 69.3255 83.5647 69.3255C100.876 69.3255 114.91 55.2919 114.91 37.9806C114.91 20.6693 100.876 6.63568 83.5647 6.63568C66.2534 6.63568 52.2198 20.6693 52.2198 37.9806Z" />
    </mask>
    <path
        d="M117.454 37.9806C117.454 56.6973 102.281 71.8703 83.5647 71.8703C64.848 71.8703 49.675 56.6973 49.675 37.9806C49.675 19.2638 64.848 4.09091 83.5647 4.09091C102.281 4.09091 117.454 19.2638 117.454 37.9806ZM52.2198 37.9806C52.2198 55.2919 66.2534 69.3255 83.5647 69.3255C100.876 69.3255 114.91 55.2919 114.91 37.9806C114.91 20.6693 100.876 6.63568 83.5647 6.63568C66.2534 6.63568 52.2198 20.6693 52.2198 37.9806Z"
        fill="#E1E1E1" />
    <path
        d="M117.454 37.9806C117.454 56.6973 102.281 71.8703 83.5647 71.8703C64.848 71.8703 49.675 56.6973 49.675 37.9806C49.675 19.2638 64.848 4.09091 83.5647 4.09091C102.281 4.09091 117.454 19.2638 117.454 37.9806ZM52.2198 37.9806C52.2198 55.2919 66.2534 69.3255 83.5647 69.3255C100.876 69.3255 114.91 55.2919 114.91 37.9806C114.91 20.6693 100.876 6.63568 83.5647 6.63568C66.2534 6.63568 52.2198 20.6693 52.2198 37.9806Z"
        stroke="black" stroke-width="3.28627" mask="url(#path-16-outside-6_1434_69800)" />

</svg>
