<svg width="201" height="161" viewBox="0 0 201 161" fill="none" xmlns="http://www.w3.org/2000/svg">
<mask id="path-1-outside-1_5716_113786" maskUnits="userSpaceOnUse" x="74.3726" y="54.2" width="105" height="96" fill="black">
<rect fill="white" x="74.3726" y="54.2" width="105" height="96"/>
<path fill-rule="evenodd" clip-rule="evenodd" d="M161.722 57.2C169.813 57.2 176.373 63.7594 176.373 71.8508V117.373C176.373 125.464 169.813 132.024 161.722 132.024L144.923 132.023L148.143 144.263C148.667 146.257 146.461 147.85 144.733 146.726L122.141 132.024H91.971C83.8795 132.024 77.3201 125.464 77.3201 117.373V71.8508C77.3201 63.7594 83.8795 57.2 91.971 57.2H161.722Z"/>
</mask>
<path fill-rule="evenodd" clip-rule="evenodd" d="M161.722 57.2C169.813 57.2 176.373 63.7594 176.373 71.8508V117.373C176.373 125.464 169.813 132.024 161.722 132.024L144.923 132.023L148.143 144.263C148.667 146.257 146.461 147.85 144.733 146.726L122.141 132.024H91.971C83.8795 132.024 77.3201 125.464 77.3201 117.373V71.8508C77.3201 63.7594 83.8795 57.2 91.971 57.2H161.722Z" fill="#757575" fill-opacity="0.5"/>
<path d="M161.722 132.024V134.559H161.722L161.722 132.024ZM144.923 132.023L142.471 132.668L141.634 129.488L144.923 129.488L144.923 132.023ZM148.143 144.263L145.69 144.908L148.143 144.263ZM144.733 146.726L143.35 148.851H143.35L144.733 146.726ZM122.141 132.024V129.488H122.894L123.524 129.898L122.141 132.024ZM173.837 71.8508C173.837 65.1598 168.413 59.7357 161.722 59.7357V54.6642C171.214 54.6642 178.908 62.3589 178.908 71.8508H173.837ZM173.837 117.373V71.8508H178.908V117.373H173.837ZM161.722 129.488C168.413 129.488 173.837 124.064 173.837 117.373H178.908C178.908 126.865 171.214 134.559 161.722 134.559V129.488ZM144.923 129.488L161.722 129.488L161.722 134.559L144.923 134.559L144.923 129.488ZM145.69 144.908L142.471 132.668L147.376 131.378L150.595 143.618L145.69 144.908ZM146.116 144.6C146.096 144.587 146.028 144.559 145.94 144.563C145.869 144.567 145.823 144.59 145.798 144.608C145.773 144.626 145.736 144.662 145.71 144.729C145.679 144.811 145.684 144.884 145.69 144.908L150.595 143.618C151.709 147.855 147.022 151.24 143.35 148.851L146.116 144.6ZM123.524 129.898L146.117 144.6L143.35 148.851L120.758 134.149L123.524 129.898ZM91.971 129.488H122.141V134.559H91.971V129.488ZM79.8559 117.373C79.8559 124.064 85.28 129.488 91.971 129.488V134.559C82.4791 134.559 74.7844 126.865 74.7844 117.373H79.8559ZM79.8559 71.8508V117.373H74.7844V71.8508H79.8559ZM91.971 59.7357C85.28 59.7357 79.8559 65.1598 79.8559 71.8508H74.7844C74.7844 62.3589 82.4791 54.6642 91.971 54.6642V59.7357ZM161.722 59.7357H91.971V54.6642H161.722V59.7357Z" fill="#757575" fill-opacity="0.5" mask="url(#path-1-outside-1_5716_113786)"/>
<mask id="path-3-outside-2_5716_113786" maskUnits="userSpaceOnUse" x="69.9199" y="51.5027" width="104" height="95" fill="black">
<rect fill="white" x="69.9199" y="51.5027" width="104" height="95"/>
<path fill-rule="evenodd" clip-rule="evenodd" d="M155.92 53.5027C164.756 53.5027 171.92 60.6661 171.92 69.5027V112.492C171.92 121.329 164.756 128.492 155.92 128.492L140.401 128.492L143.798 141.408C144.264 143.177 142.306 144.591 140.773 143.593L117.569 128.492L88.6479 128.492C79.8113 128.492 72.6479 121.329 72.6479 112.492V69.5027C72.6479 60.6661 79.8113 53.5027 88.6479 53.5027H155.92Z"/>
</mask>
<path fill-rule="evenodd" clip-rule="evenodd" d="M155.92 53.5027C164.756 53.5027 171.92 60.6661 171.92 69.5027V112.492C171.92 121.329 164.756 128.492 155.92 128.492L140.401 128.492L143.798 141.408C144.264 143.177 142.306 144.591 140.773 143.593L117.569 128.492L88.6479 128.492C79.8113 128.492 72.6479 121.329 72.6479 112.492V69.5027C72.6479 60.6661 79.8113 53.5027 88.6479 53.5027H155.92Z" fill="#D9D9D9"/>
<path d="M155.92 128.492V130.492H155.92L155.92 128.492ZM140.401 128.492L138.467 129.001L137.807 126.492H140.401L140.401 128.492ZM143.798 141.408L141.864 141.917L143.798 141.408ZM140.773 143.593L139.682 145.269L139.682 145.269L140.773 143.593ZM117.569 128.492V126.492H118.162L118.659 126.816L117.569 128.492ZM88.6479 128.492V130.492V128.492ZM169.92 69.5027C169.92 61.7707 163.652 55.5027 155.92 55.5027V51.5027C165.861 51.5027 173.92 59.5615 173.92 69.5027H169.92ZM169.92 112.492V69.5027H173.92V112.492H169.92ZM155.92 126.492C163.652 126.492 169.92 120.224 169.92 112.492H173.92C173.92 122.433 165.861 130.492 155.92 130.492V126.492ZM140.401 126.492L155.92 126.492L155.92 130.492L140.401 130.492L140.401 126.492ZM141.864 141.917L138.467 129.001L142.335 127.983L145.733 140.899L141.864 141.917ZM141.864 141.917C141.874 141.923 141.88 141.926 141.881 141.926C141.883 141.927 141.883 141.927 141.88 141.926C141.877 141.925 141.873 141.924 141.869 141.924C141.864 141.924 141.86 141.924 141.857 141.924C141.85 141.924 141.848 141.925 141.85 141.924C141.853 141.923 141.858 141.921 141.864 141.917C141.87 141.912 141.874 141.908 141.876 141.906C141.878 141.904 141.876 141.905 141.873 141.912C141.872 141.915 141.871 141.919 141.87 141.923C141.869 141.928 141.868 141.931 141.868 141.934C141.868 141.937 141.868 141.938 141.868 141.936C141.868 141.934 141.867 141.928 141.864 141.917L145.733 140.899C146.663 144.437 142.749 147.265 139.682 145.269L141.864 141.917ZM118.659 126.816L141.864 141.917L139.682 145.269L116.478 130.168L118.659 126.816ZM88.6479 126.492L117.569 126.492V130.492L88.6479 130.492V126.492ZM74.6479 112.492C74.6479 120.224 80.9159 126.492 88.6479 126.492V130.492C78.7068 130.492 70.6479 122.433 70.6479 112.492H74.6479ZM74.6479 69.5027V112.492H70.6479V69.5027H74.6479ZM88.6479 55.5027C80.9159 55.5027 74.6479 61.7707 74.6479 69.5027H70.6479C70.6479 59.5616 78.7068 51.5027 88.6479 51.5027V55.5027ZM155.92 55.5027H88.6479V51.5027H155.92V55.5027Z" fill="black" mask="url(#path-3-outside-2_5716_113786)"/>
<path d="M115.635 57.2522H93.2052C84.3687 57.2522 77.2052 64.4156 77.2052 73.2522V109.159" stroke="white" stroke-width="3" stroke-linecap="round"/>
<circle cx="101.5" cy="93.5" r="6" fill="#757575" fill-opacity="0.5"/>
<circle cx="125.5" cy="93.5" r="6" fill="#757575" fill-opacity="0.5"/>
<circle cx="149.5" cy="93.5" r="6" fill="#757575" fill-opacity="0.5"/>
<circle cx="99.5" cy="91.5" r="6" fill="black"/>
<circle cx="123.5" cy="91.5" r="6" fill="black"/>
<circle cx="147.5" cy="91.5" r="6" fill="black"/>
<mask id="path-12-outside-3_5716_113786" maskUnits="userSpaceOnUse" x="25.5" y="18.259" width="107" height="97" fill="black">
<rect fill="white" x="25.5" y="18.259" width="107" height="97"/>
<path fill-rule="evenodd" clip-rule="evenodd" d="M43.1509 21.259C35.0594 21.259 28.5 27.8185 28.5 35.9099V82.6819C28.5 90.7733 35.0594 97.3327 43.1509 97.3327H60.4746L57.1766 109.871C56.6522 111.865 58.858 113.458 60.5858 112.334L83.6372 97.3327H114.557C122.648 97.3327 129.207 90.7733 129.207 82.6819V35.9099C129.207 27.8185 122.648 21.259 114.557 21.259H43.1509Z"/>
</mask>
<path fill-rule="evenodd" clip-rule="evenodd" d="M43.1509 21.259C35.0594 21.259 28.5 27.8185 28.5 35.9099V82.6819C28.5 90.7733 35.0594 97.3327 43.1509 97.3327H60.4746L57.1766 109.871C56.6522 111.865 58.858 113.458 60.5858 112.334L83.6372 97.3327H114.557C122.648 97.3327 129.207 90.7733 129.207 82.6819V35.9099C129.207 27.8185 122.648 21.259 114.557 21.259H43.1509Z" fill="#757575" fill-opacity="0.5"/>
<path d="M60.4746 97.3327L62.9269 97.9778L63.7636 94.797H60.4746V97.3327ZM57.1766 109.871L54.7243 109.226L57.1766 109.871ZM60.5858 112.334L61.9689 114.459L60.5858 112.334ZM83.6372 97.3327V94.797H82.8848L82.2541 95.2074L83.6372 97.3327ZM31.0357 35.9099C31.0357 29.2189 36.4599 23.7948 43.1509 23.7948V18.7233C33.659 18.7233 25.9643 26.418 25.9643 35.9099H31.0357ZM31.0357 82.6819V35.9099H25.9643V82.6819H31.0357ZM43.1509 94.797C36.4599 94.797 31.0357 89.3729 31.0357 82.6819H25.9643C25.9643 92.1738 33.659 99.8685 43.1509 99.8685V94.797ZM60.4746 94.797H43.1509V99.8685H60.4746V94.797ZM59.6289 110.516L62.9269 97.9778L58.0223 96.6877L54.7243 109.226L59.6289 110.516ZM59.2028 110.208C59.2236 110.195 59.2917 110.167 59.379 110.171C59.4506 110.175 59.4962 110.198 59.5214 110.216C59.5466 110.234 59.5829 110.27 59.6088 110.337C59.6405 110.419 59.6352 110.492 59.6289 110.516L54.7243 109.226C53.6099 113.463 58.2973 116.848 61.9689 114.459L59.2028 110.208ZM82.2541 95.2074L59.2027 110.208L61.9689 114.459L85.0203 99.4581L82.2541 95.2074ZM114.557 94.797H83.6372V99.8685H114.557V94.797ZM126.672 82.6819C126.672 89.3729 121.248 94.797 114.557 94.797V99.8685C124.048 99.8685 131.743 92.1738 131.743 82.6819H126.672ZM126.672 35.9099V82.6819H131.743V35.9099H126.672ZM114.557 23.7948C121.248 23.7948 126.672 29.2189 126.672 35.9099H131.743C131.743 26.418 124.048 18.7233 114.557 18.7233V23.7948ZM43.1509 23.7948H114.557V18.7233H43.1509V23.7948Z" fill="#757575" fill-opacity="0.5" mask="url(#path-12-outside-3_5716_113786)"/>
<mask id="path-14-outside-4_5716_113786" maskUnits="userSpaceOnUse" x="22.0273" y="15.5" width="105" height="96" fill="black">
<rect fill="white" x="22.0273" y="15.5" width="105" height="96"/>
<path fill-rule="evenodd" clip-rule="evenodd" d="M40.0273 17.5C31.1908 17.5 24.0273 24.6634 24.0273 33.5V77.7424C24.0273 86.5789 31.1908 93.7424 40.0273 93.7424H108.958C117.795 93.7424 124.958 86.5789 124.958 77.7424V33.5C124.958 24.6634 117.795 17.5 108.958 17.5H40.0273ZM56.0727 93.7424L52.5967 106.958C52.1314 108.727 54.0887 110.14 55.6218 109.143L79.2868 93.7424H56.0727Z"/>
</mask>
<path fill-rule="evenodd" clip-rule="evenodd" d="M40.0273 17.5C31.1908 17.5 24.0273 24.6634 24.0273 33.5V77.7424C24.0273 86.5789 31.1908 93.7424 40.0273 93.7424H108.958C117.795 93.7424 124.958 86.5789 124.958 77.7424V33.5C124.958 24.6634 117.795 17.5 108.958 17.5H40.0273ZM56.0727 93.7424L52.5967 106.958C52.1314 108.727 54.0887 110.14 55.6218 109.143L79.2868 93.7424H56.0727Z" fill="#F5F5F5"/>
<path d="M52.5967 106.958L54.5309 107.466L52.5967 106.958ZM56.0727 93.7424V91.7424H54.5308L54.1385 93.2336L56.0727 93.7424ZM55.6218 109.143L54.5309 107.466H54.5309L55.6218 109.143ZM79.2868 93.7424L80.3776 95.4187L86.0269 91.7424H79.2868V93.7424ZM26.0273 33.5C26.0273 25.768 32.2954 19.5 40.0273 19.5V15.5C30.0862 15.5 22.0273 23.5589 22.0273 33.5H26.0273ZM26.0273 77.7424V33.5H22.0273V77.7424H26.0273ZM40.0273 91.7424C32.2954 91.7424 26.0273 85.4743 26.0273 77.7424H22.0273C22.0273 87.6835 30.0862 95.7424 40.0273 95.7424V91.7424ZM108.958 91.7424H40.0273V95.7424H108.958V91.7424ZM122.958 77.7424C122.958 85.4744 116.69 91.7424 108.958 91.7424V95.7424C118.899 95.7424 126.958 87.6835 126.958 77.7424H122.958ZM122.958 33.5V77.7424H126.958V33.5H122.958ZM108.958 19.5C116.69 19.5 122.958 25.768 122.958 33.5H126.958C126.958 23.5589 118.899 15.5 108.958 15.5V19.5ZM40.0273 19.5H108.958V15.5H40.0273V19.5ZM54.5309 107.466L58.0069 94.2512L54.1385 93.2336L50.6625 106.449L54.5309 107.466ZM54.5309 107.466C54.5213 107.473 54.5155 107.475 54.5136 107.476C54.5117 107.477 54.5124 107.477 54.5153 107.476C54.5181 107.475 54.522 107.474 54.5264 107.474C54.5308 107.473 54.5348 107.473 54.5382 107.473C54.5451 107.474 54.5473 107.475 54.545 107.474C54.5423 107.473 54.5371 107.471 54.5309 107.466C54.5248 107.462 54.5208 107.458 54.5191 107.455C54.5176 107.454 54.5194 107.455 54.5218 107.462C54.5231 107.465 54.5243 107.469 54.5252 107.473C54.5262 107.477 54.5267 107.481 54.5268 107.484C54.527 107.487 54.5268 107.488 54.527 107.486C54.5272 107.484 54.528 107.477 54.5309 107.466L50.6625 106.449C49.7319 109.987 53.6464 112.814 56.7127 110.819L54.5309 107.466ZM78.1959 92.0661L54.5309 107.466L56.7127 110.819L80.3776 95.4187L78.1959 92.0661ZM56.0727 95.7424H79.2868V91.7424H56.0727V95.7424Z" fill="black" mask="url(#path-14-outside-4_5716_113786)"/>
<path d="M81.2524 21.312H104.324C113.161 21.312 120.324 28.4755 120.324 37.312V74.086" stroke="white" stroke-width="3" stroke-linecap="round"/>
<circle cx="53.5" cy="57.5" r="6" fill="#757575" fill-opacity="0.5"/>
<circle cx="77.5" cy="57.5" r="6" fill="#757575" fill-opacity="0.5"/>
<circle cx="101.5" cy="57.5" r="6" fill="#757575" fill-opacity="0.5"/>
<circle cx="50.5" cy="55.5" r="6" fill="black"/>
<circle cx="74.5" cy="55.5" r="6" fill="black"/>
<circle cx="98.5" cy="55.5" r="6" fill="black"/>
</svg>
