<svg width="240" height="160" viewBox="0 0 240 160" fill="none" xmlns="http://www.w3.org/2000/svg">
<path d="M157.17 68.4891V26.5742L7.80835 89.553L157.17 68.4891Z" fill="#ACA8A7" stroke="black" stroke-width="2" stroke-linejoin="round"/>
<path d="M198.994 59.5716C199.072 59.2465 198.981 58.9044 198.754 58.6596C198.527 58.4149 198.192 58.2999 197.862 58.3531L9.3514 88.7786C8.83212 88.8625 8.46653 89.3342 8.515 89.858C8.56346 90.3818 9.00939 90.7785 9.53524 90.7656L190.335 86.3352C191.697 86.3019 192.865 85.3552 193.18 84.0299L198.994 59.5716Z" fill="#CFCFCF" stroke="black" stroke-width="2" stroke-linejoin="round"/>
<path d="M193.979 76.5744L197.17 63.5957L24.8298 90.1915L193.979 76.5744Z" fill="#ACA8A7"/>
<path d="M180.993 37.5214C180.816 37.4755 180.631 37.4788 180.456 37.531L9.22496 88.5948C8.72082 88.7452 8.41937 89.2604 8.53534 89.7736C8.65132 90.2867 9.14505 90.6222 9.66485 90.5412L229.926 56.186C233.142 55.6843 233.369 51.1374 230.218 50.3184L180.993 37.5214Z" fill="#E1E1E1" stroke="black" stroke-width="2" stroke-linejoin="round"/>
<ellipse cx="103.979" cy="138.957" rx="74.8936" ry="14.0425" fill="#BDBDBD" fill-opacity="0.5"/>
<path d="M155.871 27.6571C156.251 27.4929 156.491 27.1109 156.474 26.6968C156.456 26.2827 156.185 25.9222 155.792 25.7906L126.141 15.8626L126.141 15.8626C125.284 15.5758 124.344 15.6903 123.581 16.1741L8.98139 88.8732C8.54087 89.1527 8.38919 89.7238 8.63302 90.185C8.87685 90.6462 9.43425 90.8425 9.91325 90.6358L155.871 27.6571Z" fill="#E1E1E1" stroke="black" stroke-width="2" stroke-linejoin="round"/>
</svg>
