<svg width="203" height="160" viewBox="0 0 203 160" fill="none" xmlns="http://www.w3.org/2000/svg">
<ellipse cx="113.564" cy="131.312" rx="73.1505" ry="12.5076" fill="#BDBDBD" fill-opacity="0.5"/>
<path d="M148.792 61.1901L131.007 28.3653L50.6198 131.69L148.792 61.1901Z" fill="#ACA8A7" stroke="black" stroke-width="2" stroke-linejoin="round"/>
<path d="M130.547 29.816C130.794 29.4881 130.816 29.0423 130.602 28.6919C130.387 28.3414 129.981 28.1577 129.576 28.2286L102.23 33.02C101.35 33.1742 100.586 33.7169 100.151 34.4973L56.7081 112.382L44.2615 119.255C43.9801 119.41 43.7906 119.692 43.7521 120.011C43.7136 120.33 43.8308 120.648 44.0672 120.866L53.7318 129.772C53.9393 129.964 54.218 130.058 54.4992 130.033C54.7803 130.008 55.0376 129.865 55.2076 129.639L130.547 29.816Z" fill="#E1E1E1" stroke="black" stroke-width="2" stroke-linejoin="round"/>
<path d="M177.867 36.4314C177.781 36.1112 177.542 35.8546 177.228 35.7464C176.915 35.6381 176.568 35.6922 176.303 35.8908L60.2394 122.722L54.9054 123.113C54.4779 123.144 54.1179 123.444 54.0104 123.859C53.9028 124.274 54.0716 124.711 54.43 124.946L55.9418 125.938L50.5892 129.942C50.2534 130.193 50.11 130.627 50.2301 131.029C50.3501 131.431 50.7081 131.715 51.1266 131.741L66.4768 132.688C66.9295 132.716 67.3443 132.436 67.4874 132.006C67.6305 131.576 67.4661 131.103 67.0868 130.854L59.4246 125.83L60.969 124.674L86.1308 122.833C86.4717 122.808 86.7762 122.611 86.9383 122.31C87.1003 122.009 87.0975 121.646 86.9308 121.348L83.9545 116.022L106.408 109.924C106.506 109.897 106.6 109.855 106.686 109.8L182.411 61.2568C183.5 60.5588 184.011 59.2358 183.675 57.9868L177.867 36.4314Z" fill="#CFCFCF" stroke="black" stroke-width="2" stroke-linejoin="round"/>
<path d="M180.897 51.6558L175.093 30.1137L49.3801 124.165L64.7303 125.113L65.616 122.026L80.9662 119.752L78.5026 117.477L92.5263 108.815L180.044 53.8334C180.776 53.3737 181.122 52.4902 180.897 51.6558Z" fill="#ACA8A7"/>
<path d="M154.282 26.7238C154.109 26.7664 153.951 26.8543 153.824 26.9784L61.334 117.104L43.8395 119.71C43.4559 119.767 43.1399 120.041 43.0288 120.412C42.9176 120.784 43.0313 121.186 43.3205 121.445L50.6773 128.018L39.2717 129.946C38.7673 130.031 38.4085 130.484 38.4403 130.994C38.4721 131.505 38.8841 131.909 39.3952 131.931L65.7372 133.068C66.1469 133.086 66.5259 132.852 66.6932 132.478C66.8606 132.103 66.7825 131.665 66.4961 131.371L60.5727 125.299H72.7922C73.1816 125.299 73.5356 125.073 73.6994 124.72C73.8632 124.367 73.8071 123.951 73.5556 123.654L70.0685 119.532L199.814 21.3399C202.386 19.3934 200.443 15.3195 197.311 16.0932L154.282 26.7238Z" fill="#E1E1E1" stroke="black" stroke-width="2" stroke-linejoin="round"/>
<line x1="39.0215" y1="110.972" x2="23.8635" y2="89.1161" stroke="black" stroke-width="2" stroke-linecap="round"/>
<line x1="31.2715" y1="119.199" x2="7.50424" y2="107.26" stroke="black" stroke-width="2" stroke-linecap="round"/>
<line x1="27.5977" y1="130.157" x2="0.999979" y2="130.157" stroke="black" stroke-width="2" stroke-linecap="round"/>
</svg>
