<svg width="161" height="52" viewBox="0 0 161 52" fill="none" xmlns="http://www.w3.org/2000/svg">
<g clip-path="url(#clip0_452_49167)">
<path d="M14.037 44.2586L20.8978 37.4556C21.4228 36.9382 21.8395 36.3229 22.1238 35.6452C22.4082 34.9675 22.5545 34.2408 22.5545 33.5068C22.5545 32.7728 22.4082 32.046 22.1238 31.3683C21.8395 30.6906 21.4228 30.0753 20.8978 29.5579L14.037 22.794C13.5215 22.2873 13.1124 21.6844 12.8331 21.02C12.5539 20.3557 12.4101 19.643 12.4101 18.9233C12.4101 18.2036 12.5539 17.491 12.8331 16.8266C13.1124 16.1623 13.5215 15.5593 14.037 15.0526L24.6436 25.5699C26.7649 27.6837 27.9558 30.5443 27.9558 33.5263C27.9558 36.5083 26.7649 39.369 24.6436 41.4827L14.037 52C13.5215 51.4933 13.1124 50.8904 12.8331 50.226C12.5539 49.5617 12.4101 48.8491 12.4101 48.1293C12.4101 47.4096 12.5539 46.697 12.8331 46.0326C13.1124 45.3683 13.5215 44.7654 14.037 44.2586ZM98.535 19.5098C92.108 19.5098 87.889 23.8887 87.8496 30.6135V39.6451C87.8496 40.5444 88.2833 41.6 90.2942 41.6C92.2263 41.6 92.6206 40.5444 92.6206 39.6451V30.6135C92.6206 26.1173 94.8681 23.3414 98.4956 23.3414H98.535C102.163 23.3414 104.41 26.1173 104.41 30.6135V39.6451C104.41 40.5444 104.804 41.6 106.736 41.6C108.747 41.6 109.181 40.5444 109.181 39.6451V30.6135C109.181 23.8887 104.962 19.5098 98.535 19.5098ZM159.06 19.5098H158.941C152.514 19.5098 148.295 23.8887 148.256 30.6135V39.6451C148.256 40.5444 148.69 41.6 150.701 41.6C152.633 41.6 153.027 40.5444 153.027 39.6451V30.6135C153.027 26.1173 155.275 23.3414 158.902 23.3414H158.981C159.245 23.3411 159.506 23.2892 159.75 23.1886C159.993 23.0879 160.214 22.9405 160.4 22.7549C160.577 22.5807 160.716 22.3734 160.811 22.1452C160.906 21.917 160.954 21.6724 160.952 21.4256C160.954 20.9239 160.756 20.4418 160.402 20.0834C160.048 19.725 159.566 19.519 159.06 19.5098ZM51.929 23.185C48.5775 21.7774 45.6597 20.5263 45.6597 17.8677C45.6597 15.4045 47.8284 13.8406 51.2193 13.8406C53.0331 13.8406 54.6103 14.3098 56.5029 15.4045C56.7001 15.5218 56.8972 15.6391 57.0549 15.7173C57.6464 16.0692 58.0012 16.3038 58.435 16.3038C59.5784 16.3038 60.5247 15.0135 60.5247 13.9579C60.5247 13.0195 59.6967 12.3549 58.7504 11.7684C56.4891 10.3833 53.8771 9.66457 51.2193 9.69624C45.1077 9.69624 41.007 13.0977 41.007 18.1414C41.007 23.4586 45.6597 25.4526 49.7604 27.1729C53.3485 28.6977 56.4635 30.0271 56.4635 33.1158C56.4635 35.9308 53.9794 37.8075 50.3124 37.8075C48.3015 37.8075 46.5666 37.2211 44.6345 35.8917L44.1614 35.5789C43.4516 35.1098 43.0573 34.8361 42.4659 34.8361C41.3619 34.8361 40.3761 36.0872 40.3761 37.1429C40.3761 37.9248 40.8887 38.6286 42.0716 39.4887C44.4549 41.1618 47.3139 42.0383 50.2336 41.991C56.7395 41.991 61.1162 38.3158 61.1162 32.8812C61.1162 27.0556 56.2663 24.9835 51.929 23.185ZM69.9485 32.1383H80.5551C82.2506 32.1383 84.0249 31.7865 84.0249 29.0496C84.0249 23.4586 80.2002 19.5098 74.7589 19.5098C68.7656 19.5098 64.9015 23.9278 64.9015 30.7308C64.9015 37.5338 68.9233 41.7564 75.3503 41.7564C77.9921 41.7564 80.2396 41.1308 82.0534 39.9188C83.118 39.2541 83.5912 38.5895 83.5912 37.8075C83.5913 37.2646 83.3765 36.7434 82.9931 36.3559C82.6097 35.9684 82.0882 35.7456 81.5408 35.7353C80.9888 35.7353 80.4762 36.0481 79.8059 36.5173L79.727 36.5955C78.4783 37.3765 77.0233 37.7712 75.5475 37.7293C72.196 37.7293 70.185 36.009 69.5936 32.5684C69.576 32.5142 69.574 32.4561 69.5879 32.4009C69.6019 32.3456 69.6311 32.2953 69.6724 32.2556C69.7072 32.2175 69.7498 32.1872 69.7975 32.167C69.8451 32.1467 69.8966 32.137 69.9485 32.1383ZM69.633 28.0722C70.185 24.9835 71.9594 23.3023 74.6406 23.3023C77.4007 23.3023 79.175 25.1008 79.451 28.1113C79.4474 28.2256 79.4058 28.3355 79.3327 28.4241C79.298 28.4622 79.2554 28.4925 79.2077 28.5127C79.1601 28.533 79.1086 28.5427 79.0567 28.5414H69.9879C69.9356 28.5468 69.8828 28.5389 69.8345 28.5184C69.7861 28.4978 69.7439 28.4654 69.7119 28.4241C69.6712 28.376 69.6428 28.3189 69.6291 28.2577C69.6154 28.1964 69.6167 28.1328 69.633 28.0722ZM116.278 10.2827C115.895 10.2676 115.512 10.3308 115.153 10.4684C114.795 10.6059 114.469 10.815 114.196 11.0825C113.922 11.3501 113.707 11.6704 113.563 12.0238C113.42 12.3772 113.351 12.756 113.361 13.1368C113.361 13.9042 113.668 14.6401 114.215 15.1827C114.762 15.7253 115.505 16.0301 116.278 16.0301C117.052 16.0301 117.794 15.7253 118.342 15.1827C118.889 14.6401 119.196 13.9042 119.196 13.1368C119.206 12.756 119.137 12.3772 118.994 12.0238C118.85 11.6704 118.635 11.3501 118.361 11.0825C118.088 10.815 117.762 10.6059 117.404 10.4684C117.045 10.3308 116.662 10.2676 116.278 10.2827ZM116.239 19.7444C114.346 19.7444 113.992 20.8 113.992 21.6992V39.6451C113.992 40.5444 114.386 41.6 116.357 41.6C118.25 41.6 118.605 40.5444 118.605 39.6451V21.6992C118.605 20.8 118.171 19.7444 116.239 19.7444ZM133.47 19.5098C126.964 19.5098 122.784 23.9278 122.784 30.7308C122.784 37.5338 126.964 41.8737 133.391 41.8737C139.936 41.8737 144.116 37.4556 144.116 30.6526C144.116 23.8496 139.936 19.5098 133.47 19.5098ZM133.47 37.9639C129.882 37.9639 127.555 35.0707 127.555 30.6526C127.555 26.1564 129.803 23.3805 133.43 23.3805C137.058 23.3805 139.305 26.1955 139.305 30.7699C139.305 35.188 137.058 37.9639 133.47 37.9639ZM13.9582 7.74135L7.09738 14.5444C6.57235 15.0618 6.15569 15.6771 5.87137 16.3548C5.58704 17.0325 5.44067 17.7592 5.44067 18.4932C5.44067 19.2272 5.58704 19.954 5.87137 20.6317C6.15569 21.3094 6.57235 21.9247 7.09738 22.4421L13.9582 29.2451C14.4737 29.7518 14.8828 30.3547 15.1621 31.0191C15.4413 31.6834 15.5851 32.396 15.5851 33.1158C15.5851 33.8355 15.4413 34.5481 15.1621 35.2125C14.8828 35.8768 14.4737 36.4798 13.9582 36.9865L3.31213 26.4301C1.19085 24.3163 0 21.4557 0 18.4737C0 15.4917 1.19085 12.631 3.31213 10.5173L13.9582 0C14.9821 1.03252 15.5559 2.42261 15.5559 3.87068C15.5559 5.31874 14.9821 6.70884 13.9582 7.74135Z" fill="#12A885"/>
</g>
<defs>
<clipPath id="clip0_452_49167">
<rect width="160.952" height="52" fill="white"/>
</clipPath>
</defs>
</svg>
