<svg width="120" height="120" viewBox="0 0 120 120" fill="none" xmlns="http://www.w3.org/2000/svg">
<path d="M24.4134 25.9465L24.3739 25.9188L24.3311 25.8965C23.2915 25.3537 22.1405 25.0703 20.9722 25.0703C19.8038 25.0703 18.6529 25.3537 17.6133 25.8965L17.5956 25.9057L17.5783 25.9159L15.1297 27.3654L15.1118 27.376L15.0945 27.3876C14.1191 28.0406 13.3092 28.9191 12.729 29.9505C12.1488 30.9819 11.8142 32.1378 11.7511 33.3247L11.75 33.3446V33.3646V56.3549V56.3741L11.751 56.3933C11.812 57.5812 12.1458 58.7384 12.7264 59.7704C13.3057 60.8001 14.1146 61.6768 15.0887 62.328L34.475 75.8749L34.5146 75.9026L34.5575 75.925C35.597 76.4677 36.748 76.7511 37.9163 76.7511C39.0847 76.7511 40.2357 76.4677 41.2752 75.925L41.293 75.9157L41.3102 75.9055L43.7588 74.4561L43.7774 74.445L43.7954 74.433C44.7684 73.7784 45.5761 72.8995 46.1545 71.8684C46.733 70.8373 47.0665 69.6823 47.1293 68.4965L47.1304 68.4767V68.4569V45.4666V45.447L47.1294 45.4275C47.0676 44.2426 46.7354 43.0881 46.1586 42.0571C45.5827 41.0279 44.7786 40.1498 43.8096 39.4946L24.4134 25.9465Z" fill="#D4EFE9" stroke="#351512" stroke-width="1.5"/>
<path d="M46.3726 68.4773C46.3157 69.5459 46.0131 70.5859 45.4894 71.5133C44.9656 72.4407 44.2354 73.2296 43.3577 73.8161L40.8998 75.2616C40.0481 75.7006 39.1145 75.9499 38.1611 75.9931C37.2077 76.0363 36.2562 75.8724 35.3696 75.5122C36.7952 76.0636 37.8766 75.2449 37.8766 73.4819V50.5557C37.8413 49.4841 37.5366 48.4398 36.9918 47.5228L45.496 42.5098C46.0408 43.4298 46.3455 44.4768 46.3808 45.551L46.3726 68.4773Z" fill="#83C6B5"/>
<path d="M16.078 31.1957L16.058 31.1819L16.0371 31.1694C15.0772 30.5963 14.0204 30.4488 13.1567 30.9535C12.2977 31.4554 11.8916 32.4503 11.8916 33.5873V56.4405V56.4598L11.8926 56.4792C11.9536 57.6613 12.2878 58.8128 12.8687 59.8395C13.4485 60.8642 14.2581 61.7363 15.2325 62.3837L34.4745 75.6327L34.4933 75.6456L34.5129 75.6574C35.4722 76.2351 36.5302 76.3869 37.3957 75.8811C38.2558 75.3786 38.6609 74.3806 38.6609 73.241V50.3878V50.3678L38.6598 50.3478C38.5967 49.1666 38.2617 48.0164 37.6812 46.9904C37.1016 45.9661 36.2933 45.0938 35.3205 44.445L16.078 31.1957Z" fill="#A0DCCE" stroke="#351512" stroke-width="1.5"/>
<g clip-path="url(#clip0_3616_5046)">
<path d="M24.6814 43.0174C19.8934 39.8254 16.0142 41.9016 16.0142 47.6559C16.0142 53.4103 19.8934 60.6588 24.6814 63.8507C29.4693 67.0427 33.3485 64.9665 33.3485 59.2122C33.3485 53.4578 29.4693 46.2093 24.6814 43.0174ZM24.6814 61.8346C20.8265 59.2647 17.6917 53.4072 17.6917 48.7743C17.6917 44.1414 20.8265 42.4636 24.6814 45.0335C28.5362 47.6034 31.671 53.4609 31.671 58.0938C31.671 62.7267 28.5362 64.4045 24.6814 61.8346ZM27.617 57.7685C26.8901 58.334 25.8172 58.2235 24.6814 57.4663C23.5455 56.7091 22.4726 55.3932 21.7457 53.8543C21.4486 53.2278 20.9209 52.8214 20.5644 52.9366C20.208 53.056 20.1625 53.6599 20.4561 54.284C21.5045 56.4951 23.0458 58.3879 24.6814 59.4782C26.3169 60.5686 27.8582 60.7309 28.9066 59.9177C29.2037 59.6873 29.1547 59.0205 28.7983 58.4258C28.4418 57.8353 27.9141 57.5381 27.617 57.7685ZM20.7846 48.9461C21.0537 48.5501 21.4556 48.4862 21.8855 48.7728C22.3153 49.0593 22.7173 49.6591 22.9864 50.4139L23.3184 51.3493C23.3918 51.5537 23.535 51.6912 23.6434 51.7214C23.7692 51.7591 23.8531 51.6722 23.8426 51.5056C23.7273 49.6604 22.7173 47.7564 21.8855 47.2019C21.0537 46.6473 20.0437 47.2047 19.9284 48.8961C19.9179 49.0445 20.0018 49.2475 20.1276 49.3775C20.2464 49.503 20.3862 49.529 20.4526 49.4388L20.7846 48.9461ZM27.4772 50.9297C26.6454 50.3752 25.6354 50.9325 25.5201 52.6239C25.5096 52.7724 25.5935 52.9753 25.7193 53.1054C25.8416 53.2331 25.9779 53.2568 26.0443 53.1666L26.3763 52.6739C26.6454 52.2779 27.0474 52.214 27.4772 52.5006C27.9071 52.7872 28.309 53.3869 28.5781 54.1418L28.9101 55.0771C28.9835 55.2815 29.1268 55.419 29.2351 55.4492C29.3609 55.4869 29.4448 55.4 29.4343 55.2334C29.319 53.3882 28.309 51.4842 27.4772 50.9297Z" fill="#351512"/>
</g>
<path d="M53.6942 46.5031L53.6546 46.4754L53.6118 46.4531C52.5722 45.9104 51.4213 45.627 50.2529 45.627C49.0846 45.627 47.9336 45.9104 46.8941 46.4531L46.8763 46.4624L46.8591 46.4726L44.4105 47.922L44.3926 47.9326L44.3753 47.9442C43.3999 48.5972 42.59 49.4758 42.0098 50.5072C41.4296 51.5385 41.0949 52.6945 41.0318 53.8814L41.0308 53.9013V53.9212V76.9115V76.9307L41.0317 76.95C41.0927 78.1378 41.4266 79.295 42.0072 80.3271C42.5864 81.3568 43.3953 82.2335 44.3695 82.8847L63.7557 96.4315L63.7954 96.4592L63.8382 96.4816C64.8778 97.0243 66.0288 97.3078 67.1971 97.3078C68.3654 97.3078 69.5164 97.0243 70.556 96.4816L70.5737 96.4724L70.5909 96.4622L73.0396 95.0127L73.0582 95.0017L73.0761 94.9896C74.0492 94.3351 74.8568 93.4561 75.4353 92.425C76.0138 91.3939 76.3473 90.239 76.4101 89.0532L76.4111 89.0334V89.0135V66.0232V66.0037L76.4101 65.9842C76.3483 64.7992 76.0162 63.6447 75.4394 62.6138C74.8635 61.5845 74.0594 60.7064 73.0903 60.0512L53.6942 46.5031Z" fill="#FFE7CB" stroke="#351512" stroke-width="1.5"/>
<path d="M75.6524 89.0359C75.5954 90.1045 75.2929 91.1445 74.7691 92.0719C74.2454 92.9993 73.5152 93.7882 72.6374 94.3747L70.1796 95.8202C69.3278 96.2592 68.3943 96.5085 67.4409 96.5517C66.4875 96.5949 65.536 96.431 64.6494 96.0708C66.075 96.6222 67.1564 95.8034 67.1564 94.0405V71.1143C67.1211 70.0427 66.8164 68.9984 66.2716 68.0814L74.7758 63.0684C75.3206 63.9884 75.6252 65.0354 75.6606 66.1096L75.6524 89.0359Z" fill="#CEAA82"/>
<path d="M45.3583 51.7543L45.3383 51.7405L45.3174 51.728C44.3575 51.1549 43.3007 51.0074 42.437 51.5121C41.578 52.014 41.1719 53.0089 41.1719 54.1459V76.9991V77.0184L41.1729 77.0378C41.2339 78.2199 41.5681 79.3713 42.149 80.3981C42.7288 81.4228 43.5383 82.2949 44.5128 82.9423L63.7548 96.1913L63.7736 96.2042L63.7932 96.216C64.7524 96.7937 65.8105 96.9455 66.676 96.4397C67.5361 95.9372 67.9412 94.9392 67.9412 93.7996V70.9464V70.9264L67.9401 70.9064C67.8769 69.7252 67.542 68.575 66.9615 67.549C66.3819 66.5247 65.5736 65.6524 64.6008 65.0036L45.3583 51.7543Z" fill="#F9D2A5" stroke="#351512" stroke-width="1.5"/>
<g clip-path="url(#clip1_3616_5046)">
<path d="M54.6814 64.2674C49.8934 61.0754 46.0142 63.1516 46.0142 68.9059C46.0142 74.6603 49.8934 81.9088 54.6814 85.1007C59.4693 88.2927 63.3485 86.2165 63.3485 80.4622C63.3485 74.7078 59.4693 67.4593 54.6814 64.2674ZM54.6814 83.0846C50.8265 80.5147 47.6917 74.6572 47.6917 70.0243C47.6917 65.3914 50.8265 63.7136 54.6814 66.2835C58.5362 68.8534 61.671 74.7109 61.671 79.3438C61.671 83.9767 58.5362 85.6545 54.6814 83.0846ZM51.8855 72.1481C52.5041 72.5605 53.0038 72.293 53.0038 71.5496C53.0038 70.8061 52.5041 69.8723 51.8855 69.4599C51.2669 69.0475 50.7671 69.315 50.7671 70.0584C50.7671 70.8019 51.2669 71.7357 51.8855 72.1481ZM57.4772 73.1877C56.8586 72.7754 56.3589 73.0428 56.3589 73.7863C56.3589 74.5297 56.8586 75.4635 57.4772 75.8759C58.0958 76.2883 58.5956 76.0208 58.5956 75.2774C58.5956 74.534 58.0958 73.6001 57.4772 73.1877ZM54.6814 76.7002C53.2764 75.7636 51.9554 75.6263 51.0537 76.3231C50.7567 76.5535 50.8056 77.2203 51.1621 77.815C51.5185 78.4055 52.0462 78.7027 52.3433 78.4723C52.9234 78.0232 53.7762 78.1087 54.6814 78.7121C55.5865 79.3156 56.4393 80.3629 57.0194 81.5897C57.3025 82.1858 57.8267 82.6277 58.2007 82.5074C58.5571 82.388 58.6026 81.7841 58.309 81.1599C57.4073 79.2609 56.0863 77.6368 54.6814 76.7002Z" fill="#351512"/>
</g>
<path d="M41.1942 4.12614L41.1546 4.09849L41.1118 4.07615C40.0722 3.53343 38.9213 3.25 37.7529 3.25C36.5846 3.25 35.4336 3.53343 34.3941 4.07615L34.3763 4.08541L34.3591 4.0956L31.9105 5.54506L31.8926 5.55567L31.8753 5.56725C30.8999 6.2203 30.09 7.0988 29.5098 8.13022C28.9296 9.16156 28.5949 10.3175 28.5318 11.5044L28.5308 11.5243V11.5443V34.5346V34.5538L28.5317 34.573C28.5927 35.7609 28.9266 36.918 29.5072 37.9501C30.0864 38.9798 30.8953 39.8565 31.8695 40.5077L51.2557 54.0546L51.2954 54.0823L51.3382 54.1047C52.3778 54.6474 53.5288 54.9308 54.6971 54.9308C55.8654 54.9308 57.0164 54.6474 58.056 54.1047L58.0737 54.0954L58.0909 54.0852L60.5396 52.6357L60.5582 52.6247L60.5761 52.6127C61.5492 51.9581 62.3568 51.0792 62.9353 50.048C63.5138 49.017 63.8473 47.862 63.9101 46.6762L63.9111 46.6564V46.6366V23.6463V23.6267L63.9101 23.6072C63.8483 22.4222 63.5162 21.2678 62.9394 20.2368C62.3635 19.2076 61.5594 18.3294 60.5903 17.6742L41.1942 4.12614Z" fill="#C1E1FB" stroke="#351512" stroke-width="1.5"/>
<path d="M63.1534 46.6579C63.0964 47.7266 62.7938 48.7666 62.2701 49.694C61.7464 50.6214 61.0162 51.4102 60.1384 51.9968L57.6806 53.4422C56.8288 53.8812 55.8953 54.1306 54.9419 54.1738C53.9885 54.217 53.037 54.0531 52.1504 53.6929C53.5759 54.2443 54.6574 53.4255 54.6574 51.6626V28.7363C54.6221 27.6648 54.3174 26.6204 53.7726 25.7035L62.2767 20.6904C62.8216 21.6105 63.1262 22.6575 63.1616 23.7317L63.1534 46.6579Z" fill="#7895AC"/>
<path d="M32.8583 9.37633L32.8383 9.36255L32.8174 9.3501C31.8575 8.77697 30.8007 8.62946 29.937 9.13412C29.078 9.63607 28.6719 10.631 28.6719 11.768V34.6211V34.6405L28.6729 34.6598C28.7339 35.842 29.0681 36.9934 29.649 38.0201C30.2288 39.0449 31.0383 39.917 32.0128 40.5643L51.2548 53.8133L51.2736 53.8263L51.2932 53.8381C52.2524 54.4157 53.3105 54.5675 54.176 54.0618C55.036 53.5593 55.4412 52.5613 55.4412 51.4217V28.5685V28.5485L55.4401 28.5285C55.3769 27.3472 55.042 26.197 54.4615 25.171C53.8819 24.1467 53.0736 23.2745 52.1007 22.6257L32.8583 9.37633Z" fill="#A5C9E7" stroke="#351512" stroke-width="1.5"/>
<g clip-path="url(#clip2_3616_5046)">
<path d="M42.1814 21.7674C37.3934 18.5754 33.5142 20.6516 33.5142 26.4059C33.5142 32.1603 37.3934 39.4088 42.1814 42.6007C46.9693 45.7927 50.8485 43.7165 50.8485 37.9622C50.8485 32.2078 46.9693 24.9593 42.1814 21.7674ZM42.1814 40.5846C38.3265 38.0147 35.1917 32.1572 35.1917 27.5243C35.1917 22.8914 38.3265 21.2136 42.1814 23.7835C46.0362 26.3534 49.171 32.2109 49.171 36.8438C49.171 41.4767 46.0362 43.1545 42.1814 40.5846ZM39.3855 29.6481C40.0041 30.0605 40.5038 29.793 40.5038 29.0496C40.5038 28.3061 40.0041 27.3723 39.3855 26.9599C38.7669 26.5475 38.2671 26.815 38.2671 27.5584C38.2671 28.3019 38.7669 29.2357 39.3855 29.6481ZM44.9772 33.3759C45.5958 33.7883 46.0956 33.5208 46.0956 32.7774C46.0956 32.034 45.5958 31.1001 44.9772 30.6877C44.3586 30.2754 43.8589 30.5428 43.8589 31.2863C43.8589 32.0297 44.3586 32.9635 44.9772 33.3759ZM45.117 36.5185C44.3901 37.084 43.3172 36.9735 42.1814 36.2163C41.0455 35.4591 39.9726 34.1432 39.2457 32.6043C38.9486 31.9778 38.4174 31.5691 38.0644 31.6866C37.708 31.806 37.6625 32.4099 37.9561 33.034C39.0045 35.2451 40.5458 37.1379 42.1814 38.2282C43.8169 39.3186 45.3582 39.4809 46.4066 38.6677C46.7037 38.4373 46.6547 37.7705 46.2983 37.1758C45.9453 36.5877 45.4141 36.2881 45.117 36.5185Z" fill="#351512"/>
</g>
<path d="M82.4442 66.4455L82.4046 66.4178L82.3618 66.3955C81.3222 65.8528 80.1713 65.5693 79.0029 65.5693C77.8346 65.5693 76.6836 65.8528 75.6441 66.3955L75.6263 66.4047L75.6091 66.4149L73.1605 67.8644L73.1426 67.875L73.1253 67.8866C72.1499 68.5396 71.34 69.4181 70.7598 70.4496C70.1796 71.4809 69.8449 72.6368 69.7818 73.8238L69.7808 73.8437V73.8636V96.8539V96.8731L69.7817 96.8923C69.8427 98.0802 70.1766 99.2374 70.7572 100.269C71.3364 101.299 72.1453 102.176 73.1195 102.827L92.5057 116.374L92.5454 116.402L92.5882 116.424C93.6278 116.967 94.7788 117.25 95.9471 117.25C97.1154 117.25 98.2664 116.967 99.306 116.424L99.3237 116.415L99.3409 116.405L101.79 114.955L101.808 114.944L101.826 114.932C102.799 114.277 103.607 113.398 104.185 112.367C104.764 111.336 105.097 110.181 105.16 108.996L105.161 108.976V108.956V85.9656V85.9461L105.16 85.9265C105.098 84.7416 104.766 83.5871 104.189 82.5561C103.613 81.5269 102.809 80.6488 101.84 79.9936L82.4442 66.4455Z" fill="#FFDADD" stroke="#351512" stroke-width="1.5"/>
<path d="M104.403 108.977C104.346 110.046 104.043 111.086 103.52 112.013C102.996 112.941 102.266 113.73 101.388 114.316L98.9301 115.762C98.0783 116.201 97.1448 116.45 96.1914 116.493C95.238 116.536 94.2865 116.372 93.3999 116.012C94.8255 116.564 95.9069 115.745 95.9069 113.982V91.0557C95.8716 89.9841 95.5669 88.9398 95.0221 88.0228L103.526 83.0098C104.071 83.9298 104.376 84.9768 104.411 86.051L104.403 108.977Z" fill="#BD7E83"/>
<path d="M74.1083 71.6957L74.0883 71.6819L74.0674 71.6694C73.1075 71.0963 72.0507 70.9488 71.187 71.4535C70.328 71.9554 69.9219 72.9503 69.9219 74.0873V96.9405V96.9598L69.9229 96.9792C69.9839 98.1613 70.3181 99.3128 70.899 100.339C71.4788 101.364 72.2883 102.236 73.2628 102.884L92.5048 116.133L92.5236 116.146L92.5432 116.157C93.5024 116.735 94.5605 116.887 95.426 116.381C96.286 115.879 96.6912 114.881 96.6912 113.741V90.8878V90.8678L96.6901 90.8478C96.6269 89.6666 96.292 88.5164 95.7115 87.4904C95.1319 86.4661 94.3236 85.5938 93.3507 84.945L74.1083 71.6957Z" fill="#EEB0B5" stroke="#351512" stroke-width="1.5"/>
<path d="M71.1942 25.3146L71.1546 25.287L71.1118 25.2646C70.0722 24.7219 68.9213 24.4385 67.7529 24.4385C66.5846 24.4385 65.4336 24.7219 64.3941 25.2646L64.3763 25.2739L64.3591 25.2841L61.9105 26.7335L61.8926 26.7441L61.8753 26.7557C60.8999 27.4088 60.09 28.2873 59.5098 29.3187C58.9296 30.35 58.5949 31.506 58.5318 32.6929L58.5308 32.7128V32.7327V55.723V55.7423L58.5317 55.7615C58.5927 56.9493 58.9266 58.1065 59.5072 59.1386C60.0864 60.1683 60.8953 61.045 61.8695 61.6962L81.2557 75.2431L81.2954 75.2708L81.3382 75.2931C82.3778 75.8358 83.5288 76.1193 84.6971 76.1193C85.8654 76.1193 87.0164 75.8358 88.056 75.2931L88.0737 75.2839L88.0909 75.2737L90.5396 73.8242L90.5582 73.8132L90.5761 73.8011C91.5492 73.1466 92.3568 72.2676 92.9353 71.2365C93.5138 70.2055 93.8473 69.0505 93.9101 67.8647L93.9111 67.8449V67.825V44.8347V44.8152L93.9101 44.7957C93.8483 43.6107 93.5162 42.4563 92.9394 41.4253C92.3635 40.396 91.5594 39.5179 90.5903 38.8627L71.1942 25.3146Z" fill="#C7CED3" stroke="#351512" stroke-width="1.5"/>
<path d="M93.1534 67.8464C93.0964 68.915 92.7938 69.955 92.2701 70.8825C91.7464 71.8099 91.0162 72.5987 90.1384 73.1853L87.6806 74.6307C86.8288 75.0697 85.8953 75.3191 84.9419 75.3623C83.9885 75.4055 83.037 75.2416 82.1504 74.8814C83.5759 75.4328 84.6574 74.614 84.6574 72.8511V49.9248C84.6221 48.8533 84.3174 47.8089 83.7726 46.8919L92.2767 41.8789C92.8216 42.7989 93.1262 43.846 93.1616 44.9201L93.1534 67.8464Z" fill="#6A6C6E"/>
<path d="M62.8583 30.5648L62.8383 30.551L62.8174 30.5386C61.8575 29.9654 60.8007 29.8179 59.937 30.3226C59.078 30.8245 58.6719 31.8194 58.6719 32.9565V55.8096V55.829L58.6729 55.8483C58.7339 57.0305 59.0681 58.1819 59.649 59.2086C60.2288 60.2334 61.0383 61.1054 62.0128 61.7528L81.2548 75.0018L81.2736 75.0148L81.2932 75.0266C82.2524 75.6042 83.3105 75.756 84.176 75.2503C85.036 74.7477 85.4412 73.7498 85.4412 72.6101V49.757V49.7369L85.4401 49.7169C85.3769 48.5357 85.042 47.3855 84.4615 46.3595C83.8819 45.3352 83.0736 44.463 82.1007 43.8142L62.8583 30.5648Z" fill="#B4B4BB" stroke="#351512" stroke-width="1.5"/>
<g clip-path="url(#clip3_3616_5046)">
<path d="M72.1814 43.0174C67.3934 39.8254 63.5142 41.9016 63.5142 47.6559C63.5142 53.4103 67.3934 60.6588 72.1814 63.8507C76.9693 67.0427 80.8485 64.9665 80.8485 59.2122C80.8485 53.4578 76.9693 46.2093 72.1814 43.0174ZM72.1814 61.8346C68.3265 59.2647 65.1917 53.4072 65.1917 48.7743C65.1917 44.1414 68.3265 42.4636 72.1814 45.0335C76.0362 47.6034 79.171 53.4609 79.171 58.0938C79.171 62.7267 76.0362 64.4045 72.1814 61.8346ZM69.3855 50.8981C70.0041 51.3105 70.5038 51.043 70.5038 50.2996C70.5038 49.5561 70.0041 48.6223 69.3855 48.2099C68.7669 47.7975 68.2671 48.065 68.2671 48.8084C68.2671 49.5519 68.7669 50.4857 69.3855 50.8981ZM74.9772 51.9377C74.3586 51.5254 73.8589 51.7928 73.8589 52.5363C73.8589 53.2797 74.3586 54.2135 74.9772 54.6259C75.5958 55.0383 76.0956 54.7708 76.0956 54.0274C76.0956 53.284 75.5958 52.3501 74.9772 51.9377ZM75.2568 58.1725L69.1059 54.0719C68.6446 53.7644 68.2671 53.9664 68.2671 54.5208C68.2671 55.0752 68.6446 55.7805 69.1059 56.088L75.2568 60.1887C75.7181 60.4962 76.0956 60.2942 76.0956 59.7398C76.0956 59.1853 75.7181 58.4801 75.2568 58.1725Z" fill="#351512"/>
</g>
<g clip-path="url(#clip4_3616_5046)">
<path d="M90.5662 97.9246C90.5662 95.6281 89.8071 92.9196 88.456 90.395C87.1048 87.8704 85.2723 85.7364 83.3615 84.4625C81.4507 83.1886 79.6181 82.8792 78.267 83.6023C76.9158 84.3255 76.1568 86.0219 76.1568 88.3184C76.1568 90.6149 76.9158 93.3234 78.267 95.848C79.6181 98.3726 81.4507 100.507 83.3615 101.78C85.2723 103.054 87.1048 103.364 88.456 102.641C89.8071 101.918 90.5662 100.221 90.5662 97.9246ZM74.4941 87.2099C74.4941 84.3835 75.4284 82.2956 77.0913 81.4056C78.7543 80.5156 81.0097 80.8964 83.3615 82.4643C85.7132 84.0321 87.9687 86.6586 89.6316 89.7658C91.2946 92.8731 92.2288 96.2066 92.2288 99.0331C92.2288 101.86 91.2946 103.947 89.6316 104.837C87.9687 105.727 85.7132 105.347 83.3615 103.779C81.0097 102.211 78.7543 99.5844 77.0913 96.4772C75.4284 93.3699 74.4941 90.0364 74.4941 87.2099ZM84.695 100.355C84.4387 99.8552 84.0023 99.2103 83.3615 98.7831C82.7207 98.3559 82.2842 98.4188 82.0279 98.5768C81.7162 98.7728 81.1897 98.4426 80.8537 97.844C80.5177 97.2453 80.5004 96.601 80.8121 96.405C81.3074 96.0941 82.163 95.9859 83.3615 96.7849C84.56 97.5839 85.4155 98.8328 85.9074 99.7977C86.2191 100.409 86.2018 101.031 85.8658 101.181C85.5298 101.332 85.0033 100.96 84.6916 100.348L84.695 100.355ZM81.8132 92.5597L81.5568 92.6969C80.7394 93.1344 79.6898 93.0841 78.5503 92.5533L78.4637 92.5123C78.1623 92.3738 77.8748 91.9365 77.8263 91.5379C77.7778 91.1392 77.9787 90.9318 78.2835 91.0767L78.3701 91.1178C79.2811 91.5419 80.1228 91.5827 80.7775 91.2365L81.0338 91.0993C81.2486 90.9844 81.6019 91.2199 81.8166 91.6212C82.0314 92.0225 82.0314 92.4471 81.8166 92.562L81.8132 92.5597ZM84.9098 94.6241C84.695 94.2229 84.695 93.7982 84.9098 93.6833C85.1246 93.5684 85.4779 93.8039 85.6926 94.2052L85.9489 94.6841C86.6036 95.9074 87.4453 96.9889 88.3563 97.7752L88.4429 97.8496C88.7442 98.1129 88.9486 98.5905 88.9001 98.9204C88.8516 99.2502 88.5641 99.3042 88.2628 99.045L88.1762 98.9706C87.0366 97.9819 85.9836 96.6305 85.1696 95.1054L84.9133 94.6264L84.9098 94.6241Z" fill="#351512"/>
</g>
<defs>
<clipPath id="clip0_3616_5046">
<rect width="25" height="25" fill="white" transform="matrix(0.83205 0.5547 0 1 14.2808 34)"/>
</clipPath>
<clipPath id="clip1_3616_5046">
<rect width="25" height="25" fill="white" transform="matrix(0.83205 0.5547 0 1 44.2808 55.25)"/>
</clipPath>
<clipPath id="clip2_3616_5046">
<rect width="25" height="25" fill="white" transform="matrix(0.83205 0.5547 0 1 31.7808 12.75)"/>
</clipPath>
<clipPath id="clip3_3616_5046">
<rect width="25" height="25" fill="white" transform="matrix(0.83205 0.5547 0 1 61.7808 34)"/>
</clipPath>
<clipPath id="clip4_3616_5046">
<rect width="25.5722" height="25.5722" fill="white" transform="matrix(0.83205 0.5547 0 1 72.7227 73.2432)"/>
</clipPath>
</defs>
</svg>
