<svg width="328" height="230" viewBox="0 0 328 230" fill="none" xmlns="http://www.w3.org/2000/svg">
<circle cx="164" cy="115" r="115" fill="#D0EEE7"/>
<mask id="mask0_4742_40217" style="mask-type:alpha" maskUnits="userSpaceOnUse" x="49" y="0" width="230" height="230">
<circle cx="164" cy="115" r="115" fill="#D0EEE7"/>
</mask>
<g mask="url(#mask0_4742_40217)">
<path d="M123.169 132.655L124.205 101.884L117.843 103.067L123.169 132.655Z" fill="#0E866A"/>
<path d="M62.5136 91.084C69.331 96.8036 77.8993 102.919 79.9706 105.73C82.0418 108.541 74.9405 109.281 74.2009 114.754C73.4612 120.228 77.0118 150.556 75.6803 150.704C74.3488 150.852 63.037 137.826 59.2589 127.329C55.6824 117.393 54.229 108.689 56.7439 100.404C59.2589 92.1196 62.5136 91.084 62.5136 91.084Z" fill="#0E866A"/>
<rect x="78.639" y="152.479" width="26.6292" height="27.8128" fill="#71CBB6"/>
<path d="M110.89 163.131C102.605 166.386 79.3787 154.847 77.012 151.148L74.6449 140.792C71.4806 141.446 69.7856 141.407 67.3959 138.13C63.1476 131.14 66.5082 125.555 69.9108 127.478C73.3135 129.401 75.5326 135.763 75.5326 135.763C75.5326 135.763 73.6096 117.714 73.3135 114.459C73.0173 111.204 77.7511 107.062 80.5622 106.027C83.3734 104.991 118.435 100.553 118.435 100.553C118.435 100.553 124.796 128.957 122.873 140.792C120.951 152.628 120.359 153.959 119.175 155.882C117.991 157.806 119.175 159.877 110.89 163.131Z" fill="#71CBB6"/>
<path d="M78.7871 153.071C78.7871 153.071 82.4856 155.734 90.1785 159.137C97.8714 162.539 105.268 163.575 105.268 163.575L105.268 164.611C105.268 164.611 98.0193 166.386 89.5867 164.611C81.1542 162.835 78.7871 159.137 78.7871 159.137L78.7871 153.071Z" fill="#41B99D"/>
<path d="M77.7566 173.487C69.7493 174.413 66.0129 175.741 59.9985 178.813H127.755C121.206 175.912 117.371 174.704 110.169 173.487C110.169 173.487 100.31 174.584 93.963 174.584C87.6165 174.584 77.7566 173.487 77.7566 173.487Z" fill="#41B99D"/>
<path d="M65.9165 178.073C100.239 178.073 90.3269 178.073 122.134 178.073C153.941 178.073 150.538 230 150.538 230H38.3996C38.3996 230 31.5944 178.073 65.9165 178.073Z" fill="#41B99D"/>
<path d="M132.194 92.5388C132.194 101.562 118.879 104.663 99.9426 106.854C70.3545 110.277 62.9575 99.5391 62.9575 90.516C62.9575 81.493 79.1256 72 97.4276 72C115.73 72 132.194 83.5157 132.194 92.5388Z" fill="#12A885"/>
<path d="M273.572 130.212C273.572 145.27 272.774 163.598 265.287 173.263C258.189 182.425 244.688 170.156 234.072 170.156C223.455 170.156 212.617 185.236 205.519 176.074C198.032 166.409 194.572 145.27 194.572 130.212C194.572 115.308 198.165 98.4344 205.519 88.7888C212.638 79.4518 223.341 77.1016 234.072 77.1016C246.916 77.1016 259.996 85.0479 267.21 97.8132C272.25 106.73 273.572 118.149 273.572 130.212Z" fill="#12A885"/>
<rect width="26.6292" height="27.8128" transform="matrix(-1 0 0 1 249.711 156.693)" fill="#71CBB6"/>
<path d="M217.46 167.345C225.745 170.6 248.972 159.061 251.338 155.362L253.706 145.006C256.87 145.66 258.565 145.621 260.955 142.343C265.203 135.354 261.842 129.768 258.44 131.692C255.037 133.615 252.818 139.976 252.818 139.976C252.818 139.976 254.741 121.928 255.037 118.673C255.333 115.418 250.599 111.276 247.788 110.24C244.977 109.205 209.916 104.767 209.916 104.767C209.916 104.767 203.554 133.171 205.477 145.006C207.4 156.842 207.992 158.173 209.176 160.096C210.359 162.019 209.176 164.091 217.46 167.345Z" fill="#71CBB6"/>
<path d="M249.563 157.285C249.563 157.285 245.865 159.948 238.172 163.351C230.479 166.753 223.082 167.789 223.082 167.789L223.082 168.824C223.082 168.824 230.331 170.6 238.764 168.824C247.196 167.049 249.563 163.351 249.563 163.351L249.563 157.285Z" fill="#41B99D"/>
<path d="M250.594 177.701C258.601 178.627 262.338 179.955 268.352 183.027H200.595C207.144 180.126 210.979 178.918 218.181 177.701C218.181 177.701 228.041 178.798 234.387 178.798C240.734 178.798 250.594 177.701 250.594 177.701Z" fill="#41B99D"/>
<path d="M260.009 180.364C228.587 180.364 237.661 180.364 208.542 180.364C179.423 180.364 182.537 228.001 182.537 228.001H285.201C285.201 228.001 291.431 180.364 260.009 180.364Z" fill="#41B99D"/>
</g>
<path d="M88.7265 64.3894C88.381 64.3889 88.0363 64.3561 87.6969 64.2914V66.754C87.6969 66.9811 87.5677 67.0924 87.3181 67.0924C87.0685 67.0924 86.9259 66.9811 86.9259 66.754V59.4731C86.9259 59.2104 86.9259 58.9699 87.3716 58.8809C87.791 58.8073 88.216 58.77 88.6418 58.7695C90.5448 58.7695 91.9398 59.6379 91.9398 61.5616C91.9354 63.4097 90.6295 64.3894 88.7265 64.3894ZM88.6908 63.7125C90.2017 63.7125 91.1198 62.9688 91.1198 61.575C91.1198 60.052 90.0368 59.4464 88.6284 59.4464C88.3165 59.4501 88.0053 59.4754 87.6969 59.5221V63.6234C88.025 63.6819 88.3576 63.7117 88.6908 63.7125V63.7125Z" fill="white"/>
<path d="M109.861 66.34C109.907 66.3333 109.954 66.3374 109.998 66.352C110.042 66.3667 110.082 66.3914 110.115 66.4243C110.148 66.4572 110.173 66.4973 110.187 66.5414C110.202 66.5855 110.206 66.6325 110.199 66.6785C110.199 66.9189 110.088 67.0303 109.861 67.0303H106.295C106.006 67.0303 105.881 66.9056 105.881 66.6161V59.1349C105.881 58.9078 106.006 58.792 106.273 58.792C106.54 58.792 106.647 58.9078 106.647 59.1349V66.34H109.861Z" fill="white"/>
<path d="M130.362 66.8703C130.362 67.0084 130.277 67.093 130.01 67.093C129.911 67.1035 129.811 67.0777 129.729 67.0204C129.647 66.9631 129.589 66.8782 129.564 66.7813L128.771 64.6927H125.014L124.207 66.7813C124.182 66.8777 124.124 66.9621 124.042 67.0192C123.96 67.0764 123.861 67.1025 123.762 67.093C123.508 67.093 123.423 67.0084 123.423 66.8703C123.428 66.7702 123.452 66.672 123.494 66.5809L126.351 59.2109C126.476 58.8948 126.605 58.7656 126.904 58.7656C127.202 58.7656 127.349 58.877 127.447 59.2109L130.277 66.5809C130.32 66.6726 130.348 66.7702 130.362 66.8703V66.8703ZM128.499 64.0159L126.904 59.7765L125.277 64.0159H128.499Z" fill="white"/>
<path d="M146.148 66.7542C146.148 66.9814 146.019 67.0927 145.756 67.0927C145.493 67.0927 145.368 66.9814 145.368 66.7542V59.5313H142.886C142.659 59.5313 142.547 59.4155 142.547 59.1795C142.54 59.1335 142.544 59.0865 142.559 59.0424C142.574 58.9983 142.599 58.9582 142.631 58.9253C142.664 58.8924 142.704 58.8677 142.749 58.853C142.793 58.8384 142.84 58.8343 142.886 58.841H148.635C148.681 58.8343 148.728 58.8384 148.772 58.853C148.816 58.8677 148.857 58.8924 148.89 58.9253C148.922 58.9582 148.947 58.9983 148.962 59.0424C148.976 59.0865 148.981 59.1335 148.974 59.1795C148.974 59.4155 148.862 59.5313 148.635 59.5313H146.157L146.148 66.7542Z" fill="white"/>
<path d="M163.597 63.0935H166.556C166.602 63.0868 166.649 63.0909 166.693 63.1055C166.737 63.1202 166.777 63.1449 166.81 63.1778C166.843 63.2107 166.868 63.2508 166.883 63.2949C166.897 63.339 166.901 63.386 166.895 63.432C166.895 63.6724 166.779 63.7838 166.556 63.7838H163.597V66.7763C163.597 67.0034 163.472 67.1147 163.218 67.1147C162.964 67.1147 162.83 67.0034 162.83 66.7763V59.2728C162.83 58.9833 162.955 58.8586 163.245 58.8586H166.81C166.856 58.8519 166.903 58.856 166.947 58.8706C166.991 58.8852 167.032 58.91 167.064 58.9429C167.097 58.9757 167.122 59.0158 167.137 59.06C167.151 59.1041 167.155 59.1511 167.149 59.1971C167.149 59.4331 167.037 59.5489 166.81 59.5489H163.614L163.597 63.0935Z" fill="white"/>
<path d="M184.481 58.707C186.835 58.707 188.381 60.3903 188.381 62.942C188.381 65.4936 186.835 67.1813 184.481 67.1813C182.128 67.1813 180.591 65.498 180.591 62.942C180.591 60.3859 182.128 58.707 184.481 58.707ZM184.481 66.5045C186.344 66.5045 187.566 65.0928 187.566 62.942C187.566 60.7911 186.344 59.3795 184.481 59.3795C182.618 59.3795 181.397 60.7866 181.397 62.942C181.397 65.0973 182.618 66.5045 184.481 66.5045V66.5045Z" fill="white"/>
<path d="M207.911 66.8794C207.911 67.0219 207.808 67.0931 207.559 67.0931C207.433 67.103 207.307 67.0737 207.198 67.0091C207.09 66.9445 207.004 66.8478 206.953 66.7324L204.916 63.8512C204.62 63.8908 204.323 63.9116 204.025 63.9136C203.794 63.9121 203.563 63.8988 203.334 63.8735V66.7547C203.334 66.9818 203.209 67.0931 202.955 67.0931C202.701 67.0931 202.581 66.9818 202.581 66.7547V59.4872C202.581 59.1576 202.581 58.9973 203.026 58.8815C203.437 58.8012 203.855 58.7639 204.274 58.7702C206.186 58.7702 207.483 59.6252 207.483 61.2951C207.499 61.8345 207.331 62.3632 207.007 62.7951C206.683 63.2269 206.223 63.5364 205.7 63.6731L207.701 66.4519C207.849 66.6923 207.911 66.7814 207.911 66.8794ZM204.033 63.2456C205.785 63.2456 206.641 62.5286 206.641 61.3219C206.641 60.0394 205.683 59.4471 204.234 59.4471C203.927 59.4485 203.62 59.4738 203.316 59.5228V63.21C203.53 63.2322 203.793 63.2456 204.02 63.2456H204.033Z" fill="white"/>
<path d="M226.491 65.3823C226.38 65.6494 226.237 65.7608 226.014 65.7608C225.792 65.7608 225.636 65.6494 225.524 65.3823L222.904 59.8248L222.413 66.7538C222.412 66.8027 222.401 66.8508 222.381 66.8951C222.36 66.9393 222.33 66.9787 222.293 67.0107C222.256 67.0426 222.213 67.0664 222.166 67.0804C222.119 67.0945 222.07 67.0985 222.021 67.0923C221.772 67.0923 221.647 66.9809 221.669 66.7538L222.235 59.2948C222.262 58.9564 222.387 58.7827 222.752 58.7827C222.899 58.7769 223.044 58.8226 223.161 58.9121C223.278 59.0015 223.361 59.129 223.394 59.2726L226.023 64.8301L228.657 59.2726C228.796 58.943 228.96 58.7827 229.299 58.7827C229.638 58.7827 229.776 58.9564 229.803 59.2948L230.369 66.7538C230.396 66.9809 230.266 67.0923 230.017 67.0923C229.967 67.0999 229.917 67.0969 229.869 67.0835C229.821 67.0701 229.776 67.0466 229.737 67.0146C229.699 66.9826 229.668 66.9428 229.646 66.8978C229.624 66.8528 229.612 66.8038 229.611 66.7538L229.108 59.8248L226.491 65.3823Z" fill="white"/>
<path d="M94.7387 37.9782C92.3989 37.1855 90.3799 36.4997 90.3799 34.9189C90.3799 33.5206 91.6724 32.6567 93.7493 32.6567C95.2229 32.6682 96.6665 33.0742 97.9298 33.8323L98.2997 34.0371C98.946 34.4023 99.3382 34.625 99.7526 34.625C101.023 34.625 101.616 33.3692 101.616 32.5186C101.616 31.775 101.17 31.156 100.096 30.4435C98.6429 29.4771 96.2852 28.876 93.9409 28.876C89.19 28.876 86.1192 31.3029 86.1192 35.0614C86.1192 39.2339 89.8273 40.5164 93.1031 41.6431C95.5142 42.4758 97.5955 43.1928 97.5955 44.8983C97.5955 46.4436 96.1426 47.4455 93.8919 47.4455C92.3588 47.4455 91.0618 47.0358 89.4351 46.0294C89.2123 45.9047 89.0295 45.7889 88.8646 45.6865C88.5474 45.4338 88.1633 45.2791 87.7593 45.2412C86.5114 45.2412 85.8429 46.4658 85.8429 47.3475C85.8429 48.0868 86.2886 48.7102 87.3181 49.3737C89.2571 50.6441 91.5384 51.292 93.8563 51.2307C98.7588 51.2307 101.919 48.6879 101.919 44.7558C101.905 40.4051 97.9343 39.0469 94.7387 37.9782Z" fill="white"/>
<path d="M137.899 29.1523C131.659 29.1523 127.568 33.4363 127.528 40.0447V48.8752C127.528 49.7659 127.938 50.799 129.894 50.799C131.775 50.799 132.167 49.7525 132.167 48.8752V40.0447C132.167 35.645 134.355 32.9197 137.872 32.9197H137.939C141.46 32.9197 143.648 35.6539 143.648 40.0447V48.8752C143.648 49.7659 144.04 50.799 145.916 50.799C147.873 50.799 148.287 49.7525 148.287 48.8752V40.0447C148.234 33.4363 144.178 29.1613 137.899 29.1523Z" fill="white"/>
<path d="M196.706 29.1523H196.608C190.369 29.1523 186.273 33.4363 186.237 40.0447V48.8752C186.237 49.7659 186.647 50.799 188.604 50.799C190.48 50.799 190.877 49.7525 190.877 48.8752V40.0447C190.877 35.645 193.065 32.9197 196.582 32.9197H196.648C197.158 32.9219 197.648 32.7235 198.012 32.3675C198.187 32.1921 198.325 31.9835 198.417 31.7541C198.51 31.5246 198.555 31.2789 198.552 31.0316V31.0316C198.553 30.5389 198.36 30.0656 198.015 29.7139C197.669 29.3623 197.199 29.1605 196.706 29.1523V29.1523Z" fill="white"/>
<path d="M109.905 41.6074H120.196C121.854 41.6074 123.552 41.2467 123.552 38.5748C123.552 33.0841 119.844 29.25 114.536 29.25C108.724 29.25 104.958 33.5606 104.958 40.2314C104.958 46.9022 108.854 51.0347 115.124 51.0347C117.429 51.1124 119.704 50.4915 121.649 49.2534C122.674 48.5899 123.129 47.9531 123.129 47.1961C123.133 46.6669 122.929 46.1573 122.559 45.7785C122.189 45.3998 121.684 45.1826 121.154 45.1744C120.62 45.1744 120.134 45.4995 119.465 45.9492L119.367 46.0116C118.154 46.7718 116.742 47.1533 115.311 47.107C112.04 47.107 110.088 45.4104 109.518 42.0705C109.508 42.0163 109.51 41.9604 109.525 41.9072C109.539 41.854 109.566 41.8048 109.602 41.7633C109.637 41.7149 109.682 41.6755 109.735 41.6484C109.788 41.6213 109.846 41.6072 109.905 41.6074V41.6074ZM114.442 32.9595C117.116 32.9595 118.868 34.7407 119.113 37.6664C119.118 37.7188 119.111 37.7715 119.094 37.8213C119.077 37.8711 119.05 37.9169 119.015 37.9559C118.98 37.9937 118.937 38.0239 118.889 38.0446C118.842 38.0653 118.791 38.076 118.739 38.0761H109.937C109.883 38.0755 109.83 38.0633 109.781 38.0402C109.733 38.0171 109.69 37.9838 109.656 37.9425C109.621 37.9018 109.596 37.8539 109.582 37.8023C109.568 37.7507 109.566 37.6967 109.576 37.6441C110.115 34.6249 111.844 32.9595 114.442 32.9595Z" fill="white"/>
<path d="M155.093 29.3789C153.275 29.3789 152.891 30.4298 152.891 31.3071V48.8747C152.891 49.7653 153.288 50.7984 155.187 50.7984C157.009 50.7984 157.388 49.752 157.388 48.8747V31.3071C157.388 30.4298 156.992 29.3789 155.093 29.3789Z" fill="white"/>
<path d="M171.86 29.1523C165.544 29.1523 161.462 33.463 161.462 40.1382C161.462 46.8134 165.509 51.0305 171.766 51.0305C178.112 51.0305 182.208 46.7199 182.208 40.0447C182.208 33.3695 178.148 29.1523 171.86 29.1523ZM171.86 47.2231C168.361 47.2231 166.101 44.4043 166.101 40.0447C166.101 35.6851 168.29 32.9197 171.815 32.9197C175.34 32.9197 177.524 35.6895 177.524 40.1471C177.524 44.5067 175.376 47.2231 171.86 47.2231Z" fill="white"/>
<path d="M155.142 20.5086C154.768 20.4919 154.394 20.5525 154.044 20.6865C153.695 20.8205 153.376 21.025 153.109 21.2874C152.842 21.5498 152.631 21.8644 152.491 22.2115C152.351 22.5587 152.284 22.9309 152.294 23.3051C152.294 24.0598 152.594 24.7836 153.128 25.3172C153.662 25.8509 154.387 26.1507 155.142 26.1507C155.897 26.1507 156.622 25.8509 157.156 25.3172C157.69 24.7836 157.99 24.0598 157.99 23.3051C158 22.9311 157.932 22.5591 157.792 22.2123C157.651 21.8655 157.441 21.5512 157.174 21.2889C156.907 21.0267 156.589 20.8221 156.239 20.6878C155.89 20.5536 155.516 20.4926 155.142 20.5086V20.5086Z" fill="white"/>
<path d="M222.409 37.5591C222.36 37.4893 222.295 37.4323 222.219 37.3929C222.144 37.3536 222.06 37.333 221.974 37.333C221.889 37.333 221.805 37.3536 221.729 37.3929C221.654 37.4323 221.589 37.4893 221.54 37.5591L219.458 40.4403C219.37 40.5719 219.322 40.7269 219.322 40.8856C219.322 41.0443 219.37 41.1993 219.458 41.3309L224.232 48.4114C224.81 49.2169 225.571 49.8742 226.453 50.3293C227.334 50.7844 228.311 51.0245 229.304 51.0298C229.537 51.0303 229.766 50.9664 229.965 50.8451C230.164 50.7239 230.326 50.55 230.432 50.3427C230.539 50.1354 230.586 49.9027 230.568 49.6704C230.551 49.438 230.469 49.215 230.333 49.0259L222.409 37.5591Z" fill="white"/>
<path d="M213.299 33.7607C213.347 33.8352 213.413 33.8964 213.491 33.9388C213.569 33.9812 213.656 34.0034 213.745 34.0034C213.833 34.0034 213.921 33.9812 213.999 33.9388C214.076 33.8964 214.142 33.8352 214.191 33.7607L216.272 30.8796C216.361 30.748 216.408 30.5929 216.408 30.4343C216.408 30.2756 216.361 30.1205 216.272 29.9889L211.476 22.8951C210.894 22.089 210.129 21.4325 209.243 20.9796C208.358 20.5267 207.377 20.2904 206.382 20.29C206.149 20.2896 205.92 20.3535 205.721 20.4748C205.522 20.596 205.36 20.7699 205.254 20.9772C205.147 21.1845 205.1 21.4171 205.117 21.6495C205.135 21.8819 205.216 22.1049 205.353 22.2939L213.299 33.7607Z" fill="white"/>
<path d="M229.304 20.29C228.309 20.2904 227.328 20.5267 226.443 20.9796C225.557 21.4325 224.792 22.089 224.21 22.8951L205.357 49.0261C205.221 49.2151 205.139 49.4381 205.122 49.6705C205.104 49.9029 205.152 50.1355 205.258 50.3428C205.365 50.5501 205.526 50.724 205.726 50.8453C205.925 50.9665 206.153 51.0304 206.387 51.03C207.381 51.0289 208.36 50.7923 209.245 50.3394C210.13 49.8865 210.895 49.2304 211.476 48.4249L230.329 22.2939C230.465 22.1052 230.546 21.8826 230.564 21.6506C230.581 21.4186 230.535 21.1863 230.429 20.9792C230.323 20.772 230.162 20.5981 229.963 20.4765C229.765 20.3549 229.536 20.2904 229.304 20.29V20.29Z" fill="white"/>
</svg>
