<svg width="327" height="230" fill="none" xmlns="http://www.w3.org/2000/svg"><circle cx="142" cy="115" r="115" fill="#D0EEE7"/><mask id="a" fill="#fff"><path fill-rule="evenodd" clip-rule="evenodd" d="M82 48c-7.18 0-13 5.82-13 13v99c0 7.18 5.82 13 13 13h99.029L198 189.971 214.971 173H314c7.18 0 13-5.82 13-13V61c0-7.18-5.82-13-13-13H82Z"/></mask><path fill-rule="evenodd" clip-rule="evenodd" d="M82 48c-7.18 0-13 5.82-13 13v99c0 7.18 5.82 13 13 13h99.029L198 189.971 214.971 173H314c7.18 0 13-5.82 13-13V61c0-7.18-5.82-13-13-13H82Z" fill="#fff"/><path d="M82 173v1-1Zm99.029 0 .708-.707-.293-.293h-.415v1ZM198 189.971l-.707.707.707.707.707-.707-.707-.707ZM214.971 173v-1h-.415l-.293.293.708.707ZM314 173v1-1ZM70 61c0-6.627 5.373-12 12-12v-2c-7.732 0-14 6.268-14 14h2Zm0 99V61h-2v99h2Zm12 12c-6.627 0-12-5.373-12-12h-2c0 7.732 6.268 14 14 14v-2Zm99.029 0H82v2h99.029v-2Zm17.678 17.263-16.97-16.97-1.415 1.414 16.971 16.971 1.414-1.415Zm15.556-16.97-16.97 16.97 1.414 1.415 16.971-16.971-1.415-1.414ZM314 172h-99.029v2H314v-2Zm12-12c0 6.627-5.373 12-12 12v2c7.732 0 14-6.268 14-14h-2Zm0-99v99h2V61h-2Zm-12-12c6.627 0 12 5.373 12 12h2c0-7.732-6.268-14-14-14v2ZM82 49h232v-2H82v2Z" fill="#E8F0FE" mask="url(#a)"/><circle cx="107" cy="85" r="21" fill="#41B99D"/><path d="m151 73 2.694 8.292h8.719l-7.054 5.124 2.694 8.292L151 89.584l-7.053 5.124 2.694-8.292-7.054-5.124h8.719L151 73ZM183 73l2.694 8.292h8.719l-7.054 5.124 2.694 8.292L183 89.584l-7.053 5.124 2.694-8.292-7.054-5.124h8.719L183 73ZM215 73l2.694 8.292h8.719l-7.054 5.124 2.694 8.292L215 89.584l-7.053 5.124 2.694-8.292-7.054-5.124h8.719L215 73ZM247 73l2.694 8.292h8.719l-7.054 5.124 2.694 8.292L247 89.584l-7.053 5.124 2.694-8.292-7.054-5.124h8.719L247 73Z" fill="#EEB61B"/><path d="m282 73 2.694 8.292h8.719l-7.054 5.124 2.694 8.292L282 89.584l-7.053 5.124 2.694-8.292-7.054-5.124h8.719L282 73Z" fill="#A0DCCE"/><path fill="#0E866A" d="M86 115h44v4H86z"/><path fill="#71CBB6" d="M86 128h44v4H86zM86 137h44v4H86zM86 146h44v4H86zM218 128h25v4h-25zM218 137h25v4h-25zM218 146h25v4h-25z"/><path fill="#0E866A" d="M139 115h44v4h-44z"/><path fill="#71CBB6" d="M139 128h71v4h-71zM139 137h71v4h-71zM139 146h71v4h-71zM250 128h44v4h-44zM250 137h44v4h-44zM250 146h44v4h-44z"/></svg>
