<svg width="328" height="231" viewBox="0 0 328 231" fill="none" xmlns="http://www.w3.org/2000/svg">
<circle cx="161" cy="115" r="115" fill="#D0EEE7"/>
<mask id="mask0_5211_40713" style="mask-type:alpha" maskUnits="userSpaceOnUse" x="46" y="0" width="230" height="230">
<circle cx="161" cy="115" r="115" fill="#D0EEE7"/>
</mask>
<g mask="url(#mask0_5211_40713)">
<path d="M74.9598 42H71.8172C70.949 42 70.0921 42.1881 69.3041 42.5526C66.9791 43.6281 63.6721 45.164 63 45.5C62.3383 45.8308 57.0705 57.1297 53.194 65.6478C51.935 68.4144 52.9744 71.6616 55.5284 73.3096C57.1643 74.3652 58.5 75.2933 58.5 75.5C58.5 76 58.5 78 58 78C57.5 78 57.5 81.5 57.5 87.5C57.5 92.3 65.1667 102.167 69 106.5C69.7863 107.226 70.9473 106.196 70.3208 105.329L69.2041 103.783C69.0714 103.599 69 103.378 69 103.151V103.081C69 102.263 69.7482 101.65 70.5502 101.81L70.8279 101.866C71.2555 101.951 71.6261 102.215 71.8466 102.591L79.1378 115.029C79.7015 115.991 80.5217 116.776 81.5067 117.298L87.8252 120.643C88.2733 120.88 88.7496 121.059 89.2428 121.177L97.3479 123.107C98.4281 123.364 99.4174 123.913 100.192 124.709C102.453 127.033 105.5 130.329 105.5 131C105.5 131.136 105.626 131.294 105.846 131.465C108.659 133.656 110.775 136.858 109.371 140.135L109 141C108 143.667 105.9 149.2 105.5 150C105 151 103.5 154.5 104 155C104.5 155.5 115.5 169 116.5 171C117.5 173 117 179.5 116.5 180.5C116.121 181.258 113.616 198.842 112.22 208.907C112.075 209.954 112.206 211.016 112.629 211.985C114.329 215.87 117.243 221.649 119 222C119.124 222.025 119.248 222.047 119.371 222.067C121.11 222.353 121.713 220.412 120.396 219.241C119.591 218.526 119.423 217.332 120.021 216.437C121.272 214.567 122.89 212.305 123.5 212C123.89 211.805 123.662 211.207 123.211 210.529C122.383 209.284 122.265 207.625 123.25 206.5L124.275 205.328C124.683 204.862 124.66 204.16 124.222 203.722C123.808 203.308 123.761 202.652 124.112 202.184L124.822 201.237C124.94 201.08 125.076 200.936 125.228 200.81L127.185 199.179C127.712 198.74 128.375 198.5 129.061 198.5C129.672 198.5 130.267 198.309 130.764 197.954L132.335 196.832C133.038 196.33 133.362 195.449 133.153 194.612C132.821 193.285 133.824 192 135.192 192H138C139.304 192 141.803 186.466 143.495 182.163C144.154 180.486 145.485 179.152 147.184 178.553L149.958 177.574C151.858 176.903 153.296 175.326 153.771 173.369C154.584 170.019 155.5 166.093 155.5 165.5C155.5 164.935 156.497 159.185 157.435 153.917C158.013 150.674 155.813 147.587 152.557 147.086C152.187 147.029 151.822 146.936 151.47 146.81L133.765 140.454C132.932 140.155 132.175 139.675 131.55 139.05L129.377 136.877C128.181 135.681 126.538 135.046 124.849 135.125C121.216 135.294 116.629 135.5 116 135.5C113.956 135.5 114.335 131.608 112.345 131.14L110.696 130.752C108.793 130.304 107.398 128.676 107.248 126.726L107.182 125.86C107.073 124.451 106.075 123.269 104.703 122.926C102.754 122.439 101.76 120.325 102.028 118.334C102.233 116.822 102.067 115.427 101 115C98.5 114 98 118 93 118.5C88 119 90 110 90.5 106.5C91 103 100.5 99.5 105.5 104.5L106.987 105.987C108.316 107.316 110.556 106.095 110.162 104.258C110.058 103.772 110.15 103.265 110.418 102.847L117.415 91.9143C117.802 91.3097 118.294 90.7794 118.868 90.3487L128.552 83.0857C129.149 82.6384 130 83.0639 130 83.8095C130 84.5321 130.805 84.9631 131.407 84.5623L132.723 83.6849C133.642 83.0719 133.771 81.7709 132.99 80.9895L131.392 79.3918C131.141 79.1409 130.801 79 130.446 79C128.973 79 128.582 76.9674 129.949 76.4203L138.584 72.9665C139.984 72.4064 140.785 70.927 140.49 69.4481L140.309 68.5452C140.11 67.5484 139.559 66.6566 138.756 66.0325L130.236 59.4058C128.045 57.7018 124.971 57.7228 122.804 59.4567L114.634 65.993C114.226 66.3191 113.956 66.7863 113.877 67.3021C113.58 69.2282 111.017 69.7358 109.894 68.1429C109.529 67.6248 109.214 67.2143 109 67C108.315 66.3153 102.454 64.605 98.3752 63.4993C97.1677 63.1719 96.1166 62.4248 95.4226 61.3838C94.2621 59.6432 94.282 57.3704 95.4729 55.6503L97.2959 53.0171C97.7604 52.3461 98.3569 51.7769 99.049 51.3444L100.837 50.2268C101.589 49.757 102.153 49.04 102.434 48.199C102.792 47.1227 103.612 46.2621 104.669 45.8509L105.111 45.679C108.357 44.4168 109.983 38 106.5 38C106 38 104 42.5 103.5 42.5C103.124 42.5 101.54 40.732 100.659 39.6894C100.553 39.5636 100.437 39.4461 100.312 39.3389L97.5233 36.9485C96.2464 35.8541 94.3134 37.0247 94.6915 38.6633C94.8725 39.4475 94.4928 40.2536 93.773 40.6135L92.075 41.4625C91.3727 41.8136 90.5854 41.9585 89.8041 41.8804L81.8399 41.084C81.2827 41.0283 80.7205 41.0508 80.1695 41.151L76.0323 41.9032C75.6782 41.9676 75.3198 42 74.9598 42Z" fill="#BBDFD9"/>
<path d="M223 30C226.318 27.4191 238.671 22.6576 245.805 20.1008C246.769 19.7551 247.832 20.2047 248.268 21.1319L283.5 96C281 97.3333 275.6 100.2 274 101C272.4 101.8 270.333 99.6667 269.5 98.5C263 99 262.5 94.5 261 93.5C259.5 92.5 259 95 259.5 96.5C260 98 262 99 262.5 100C263 101 264 102.5 266.5 102.5C268.5 102.5 268.667 100.833 268.5 100C268.667 100.333 269.1 101.3 269.5 102.5C270 104 273.5 104.5 273.5 106C273.5 107.5 262.5 114.5 261 115.5C259.5 116.5 254 118 254 116.5C254 115 242.5 94.5 242.5 93.5C242.5 92.5 242.5 91.5 244 88C245.5 84.5 244 87 243.5 85.5C243 84 241 86.5 239 87C237 87.5 234 85.5 233 83.5C232 81.5 233 82.5 235 81.5C237 80.5 237 80 238.5 79C240 78 242 78 243 77.5C244 77 245 79 248 79.5C251 80 250.5 78 250.5 77C250.5 76 246.5 74.5 246 73C245.5 71.5 247.5 70.5 248 69.5C248.5 68.5 242.5 71 242 71.5C241.5 72 244 72.5 244.5 72.5C245 72.5 243 73.5 240.5 73C238 72.5 240 71.5 239 70C238 68.5 235 75.5 234 77C233 78.5 234.5 77.5 235.5 78.5C236.5 79.5 234.5 79.5 232.5 80C230.5 80.5 229.5 80 228 80C226.8 80 228.167 82.6667 229 84C228.167 84 226.3 83.7 225.5 82.5L221.5 76.5C220 74.8333 216.5 71.9 214.5 73.5C212 75.5 220 76.5 221.5 79C223 81.5 219.5 83.5 220 82.5C220.5 81.5 212 75 208.5 75C205 75 194.5 87 190 86.5C185.5 86 188 82.5 188.5 79C189 75.5 191.5 76 194.5 76.5C197.5 77 199 75 199 71.5C199 68 195 72.5 194.5 68.5C194 64.5 209.5 60.5 210.5 59C211.5 57.5 209.5 55 212 54.5C214.5 54 211 57.5 213 59C215 60.5 221.5 60 224 59C226 58.2 228.167 53 229 50.5C232.5 49.8333 238.5 48.5 234.5 48.5C229.5 48.5 227 47 226.5 43.5C226 40 231.5 39 229 37C227 35.4 223.167 40.6667 221.5 43.5L223 48.5L216 56.5L213 49.5C212.167 50.5 210.1 52.5 208.5 52.5C206.5 52.5 205 47.5 206.5 45C207.7 43 208.333 43.1667 208.5 43.5C209.667 42.8333 212.5 41 214.5 39C216.5 37 217 35.8333 217 35.5C217.5 34.8333 219.4 32.8 223 30Z" fill="#BBDFD9"/>
<path d="M182.5 100C182.985 99.5154 186.758 96.2122 189.266 91.4565C189.424 91.1551 189.614 90.8702 189.838 90.6138L190.185 90.2177C191.708 88.4763 194.8 88.2351 197.055 87.7163C197.649 87.5795 198.299 87.3505 199 87C201.922 85.5392 205.343 85.3565 207.058 85.4627C207.353 85.4809 207.648 85.4835 207.942 85.4509L211.73 85.03C211.908 85.0102 212.088 85.0293 212.257 85.0858C212.932 85.3105 213.279 86.0578 213.075 86.7386C212.785 87.7085 212.5 88.954 212.5 90C212.5 91.3954 218.331 93.1457 222.365 94.1233C223.307 94.3515 224.264 93.8412 224.623 92.9418C224.86 92.3503 225.365 91.9057 225.987 91.7666C226.602 91.629 227.251 91.5 227.5 91.5C228 91.5 232 93 234.5 93.5C235.385 93.6771 236.499 93.73 237.582 93.7196C239.554 93.7006 241.441 94.8902 241.878 96.8134C241.953 97.1444 242 97.3938 242 97.5C242 98 240 95.5 240 97C240 98.5 243.5 103 244.5 107.5C245.234 110.804 249.674 114.921 252.332 116.994C252.748 117.319 253 117.812 253 118.341C253 119.257 253.743 120 254.659 120H256.07C256.677 120 257.262 119.805 257.806 119.537C259.435 118.734 261.824 118.296 262.5 121C263.5 125 252 133.5 248 138.5C244 143.5 250 149.5 249.5 152.5C249.271 153.874 247.83 155.203 246.265 156.246C244.792 157.227 244 159.731 244 161.5C244 164 242.5 164 240 165.5C237.5 167 238.5 171.5 236 174C233.5 176.5 225 178 222.5 177C220 176 220.5 172 219.5 168.5C218.5 165 214 157.5 214 154.5C214 151.5 215.5 150.5 216.5 147.5C217.225 145.326 214.174 139.43 212.106 135.986C211.717 135.338 211.5 134.599 211.5 133.843V130.281C211.5 128.745 210.255 127.5 208.719 127.5H208.043C207.404 127.5 206.819 127.139 206.534 126.568C206.214 125.928 205.525 125.559 204.816 125.648L198 126.5H190.012C189.038 126.5 188.097 126.144 187.366 125.499L180.976 119.861C180.342 119.301 179.9 118.556 179.722 117.729C179.389 116.189 179 114.306 179 114C179 113.792 179.181 113.303 179.402 112.788C179.763 111.943 179.889 111.011 179.701 110.112C179.374 108.543 179 106.599 179 106C179 105 182 100.5 182.5 100Z" fill="#BBDFD9"/>
</g>
<path d="M93.4587 154.936L87.4908 161.587L125.074 158.992L93.4587 154.936Z" fill="#A0DCCE"/>
<path d="M88.6057 165.194L87.4865 161.545L124.251 159.052L88.6057 165.194Z" fill="#12A885"/>
<path d="M86.557 176.861L85.4629 165.235L125.022 158.956L86.557 176.861Z" fill="#71CBB6"/>
<path d="M96.0842 174.079L93.447 173.291L124.217 159.063L96.0842 174.079Z" fill="#12A885"/>
<path d="M187.129 70.4117L178.538 72.8693L211.745 90.6619L187.129 70.4117Z" fill="#A0DCCE"/>
<path d="M177.564 76.5168L178.557 72.8312L211.016 90.275L177.564 76.5168Z" fill="#12A885"/>
<path d="M169.623 85.307L174.881 74.8796L211.72 90.6033L169.623 85.307Z" fill="#71CBB6"/>
<path d="M179.171 88.0185L177.357 85.9484L210.981 90.2655L179.171 88.0185Z" fill="#12A885"/>
<path d="M57 159.481C59.5903 161.601 62.404 163.46 65.6761 163.983C68.814 164.485 71.0962 162.54 73.5634 160.734C77.3253 157.982 79.4396 152.933 75.0532 149.132C73.4866 147.774 73.812 157.333 74.2645 158.553C75.4875 161.851 81.3503 167 85 167" stroke="#A0DCCE" stroke-linecap="round" stroke-dasharray="2 2"/>
<path d="M126.781 155.869C126.825 154.06 127.21 152.348 127.21 150.536C127.21 147.704 126.077 146.222 124.353 144.013C121.125 139.877 117.897 135.811 114.449 131.87C111.76 128.798 110.773 124.983 109.735 121.109C108.474 116.408 108.966 109.23 111.782 105.157C114.103 101.801 119.458 99.5937 122.948 97.9194C128.191 95.4041 133.782 93.8943 139.543 93.1577C144.593 92.5121 154.144 92.1927 155.399 98.9194C155.914 101.676 154.406 103.281 151.828 103.133C149.033 102.974 147.461 101.202 146.019 99.0384C143.319 94.989 142.638 92.3041 142.638 87.3961C142.638 82.4587 142.706 76.9941 146.4 73.1586C147.972 71.526 151.492 71.5636 153.542 71.4682C158.539 71.2358 163.585 71.4444 168.589 71.4444C171.465 71.4444 173.298 72.6514 174.779 74.8729" stroke="#A0DCCE" stroke-linecap="round" stroke-dasharray="2 2"/>
<path d="M295.124 46.5351L288.921 52.9679L326.574 51.7198L295.124 46.5351Z" fill="#A0DCCE"/>
<path d="M289.907 56.6123L288.919 52.9254L325.749 51.7503L289.907 56.6123Z" fill="#12A885"/>
<path d="M287.442 68.1988L286.764 56.5408L326.523 51.6816L287.442 68.1988Z" fill="#71CBB6"/>
<path d="M297.062 65.7596L294.455 64.8776L325.714 51.7597L297.062 65.7596Z" fill="#12A885"/>
<path d="M219.349 90.4431C218.5 85.243 212.884 68.4668 222.444 68.1584C228.329 67.9685 232.848 73.4876 236.396 77.5865C239.618 81.31 242.759 80.4077 246.348 78.0151C250.898 74.9814 255.706 70.4266 257.49 65.1585C258.718 61.5312 259.33 55.8563 262.633 53.2543C265.865 50.7075 270.262 51.0025 273.965 52.4924C276.055 53.3331 278.191 54.2533 280.203 55.2066C281.005 55.5862 281.924 55.3052 282.774 55.7304" stroke="#A0DCCE" stroke-linecap="round" stroke-dasharray="2 2"/>
<path d="M157.415 163.582C161.882 161.387 164.957 156.792 164.957 151.478C164.957 144.034 158.922 138 151.478 138C144.034 138 138 144.034 138 151.478C138 156.792 141.075 161.387 145.542 163.582L151.478 169.519L157.415 163.582Z" fill="#71CBB6"/>
<circle cx="151.815" cy="151.141" r="6.40217" fill="#0E866A"/>
<path d="M130.415 67.5821C134.882 65.3869 137.957 60.7917 137.957 55.4783C137.957 48.0344 131.922 42 124.478 42C117.034 42 111 48.0344 111 55.4783C111 60.7917 114.075 65.387 118.542 67.5821L124.478 73.5186L130.415 67.5821Z" fill="#71CBB6"/>
<circle cx="124.815" cy="55.1413" r="6.40217" fill="#0E866A"/>
<path d="M242.415 139.582C246.882 137.387 249.957 132.792 249.957 127.478C249.957 120.034 243.922 114 236.478 114C229.034 114 223 120.034 223 127.478C223 132.792 226.075 137.387 230.542 139.582L236.478 145.519L242.415 139.582Z" fill="#71CBB6"/>
<circle cx="236.815" cy="127.141" r="6.40217" fill="#0E866A"/>
<path d="M196 51.5C196.5 50.5 195 51.5 193.5 52C193.5 53.3333 192.5 53.7 192.5 54.5C192.5 55.5 193 57.5 194 57.5C195 57.5 195.5 59.5 194.5 60.5C193.5 61.5 193 61.5 192 64C191 66.5 193.5 65 196 64.5C198.5 64 198.5 63 200.5 62.5C202.5 62 199 57.5 198 57C197 56.5 195.5 56 196 55.5C196.5 55 196.5 53 195.5 53C194.5 53 195.5 52.5 196 51.5Z" fill="#BBDFD9"/>
<path d="M192 57C191.5 57 190.3 57.2 189.5 58C189.167 58.3333 188.2 59.1 187 59.5C185.8 59.9 187.5 60.3333 188.5 60.5C188.5 60.6667 188.4 61.1 188 61.5C187.5 62 187.5 63 188 63C188.5 63 190 62.5 191 62.5C192 62.5 192.5 59 192.5 58.5C192.5 58.1 192.167 57.3333 192 57Z" fill="#BBDFD9"/>
</svg>
