<svg width="93" height="160" viewBox="0 0 93 160" fill="none" xmlns="http://www.w3.org/2000/svg">
<ellipse cx="47.7165" cy="145.921" rx="37.7573" ry="14.079" fill="#BDBDBD" fill-opacity="0.5"/>
<path d="M56.8313 121.787L55.8361 121.691L55.7404 122.686C55.3861 126.367 56.5106 130.038 58.8661 132.891C61.2216 135.743 64.6151 137.544 68.2998 137.898C71.9845 138.252 75.6592 137.129 78.5155 134.777C81.1133 132.637 82.8406 129.64 83.3985 126.346L83.4342 126.349L83.5293 125.362C83.5295 125.359 83.5298 125.357 83.53 125.354L83.6258 124.359L86.4199 95.3277L86.42 95.3278L86.4209 95.3175C86.7531 91.4477 85.5209 87.6036 83.0516 84.6132C80.5462 81.5791 76.9369 79.6635 73.0177 79.2873C69.0985 78.9111 65.19 80.1051 62.152 82.607C59.114 85.1088 57.1953 88.7138 56.8185 92.6289L56.7226 93.6245L57.7183 93.7201L64.1426 94.3367L65.1378 94.4323L65.2335 93.4371C65.3957 91.7524 66.2214 90.2006 67.5295 89.1234C68.8376 88.0462 70.5209 87.5318 72.2091 87.6938C73.8973 87.8559 75.4516 88.681 76.5301 89.9872C77.6097 91.2946 78.1278 92.9756 77.9658 94.6587L75.1853 123.548L75.0895 124.544C74.9505 125.987 74.2429 127.317 73.1218 128.241C72.0006 129.164 70.5578 129.605 69.1108 129.466C67.6638 129.327 66.3317 128.62 65.4073 127.5C64.4829 126.381 64.0419 124.941 64.1809 123.497L64.2767 122.501L63.281 122.406L56.8313 121.787Z" fill="#E1E1E1" stroke="#351512" stroke-width="2"/>
<path fill-rule="evenodd" clip-rule="evenodd" d="M75.0217 80.6424C74.3365 80.4678 73.6348 80.3448 72.9221 80.2764C69.2665 79.9255 65.6211 81.0392 62.7877 83.3725C59.9544 85.7058 58.1652 89.0676 57.8139 92.7183L64.2381 93.335C64.4257 91.3858 65.381 89.5909 66.8938 88.3451C68.4065 87.0993 70.3529 86.5047 72.3047 86.692C73.2632 86.784 74.1845 87.061 75.0217 87.4979V80.6424ZM75.0217 127.61C74.6738 128.13 74.2492 128.601 73.7575 129.006C72.4317 130.098 70.7258 130.619 69.0153 130.455C67.3047 130.291 65.7295 129.455 64.6362 128.131C63.5429 126.807 63.0211 125.103 63.1855 123.395L56.7358 122.776C56.4069 126.192 57.4506 129.599 59.6372 132.247C61.8238 134.896 64.9742 136.568 68.3954 136.896C70.6832 137.116 72.9668 136.722 75.0217 135.785V127.61Z" fill="#BDBDBD" fill-opacity="0.5"/>
<path fill-rule="evenodd" clip-rule="evenodd" d="M1.86394 74.2462H1V137.388C1 147.991 16.2809 156.587 35.1309 156.587C53.9808 156.587 69.2617 147.991 69.2617 137.388V74.2462H68.3976C67.945 82.002 53.2242 88.2292 35.1308 88.2292C17.0374 88.2292 2.31658 82.002 1.86394 74.2462Z" fill="#E1E1E1"/>
<path d="M53.2629 93.0657C53.2629 91.2099 54.4591 89.5592 56.1856 88.8784C57.566 88.3341 59.374 87.576 61.4757 86.5897C66.382 84.287 68.4085 78.2993 68.4085 78.2993V140.506C68.4085 140.624 68.403 140.738 68.3834 140.855C68.2312 141.757 67.2579 146.029 62.1192 149.324C60.736 150.211 58.6939 150.785 56.9191 151.144C54.9661 151.539 53.2629 149.976 53.2629 147.983V93.0657Z" fill="#BDBDBD" fill-opacity="0.5"/>
<ellipse cx="35.1309" cy="74.2462" rx="34.1309" ry="14.7189" fill="#E1E1E1"/>
<path d="M69.2617 74.2462V137.388C69.2617 147.991 53.9808 156.587 35.1309 156.587C16.2809 156.587 1 147.991 1 137.388V74.2462C1 66.1172 16.7522 59.5273 35.1309 59.5273C53.5096 59.5273 69.2617 66.0105 69.2617 74.1396" stroke="#351512" stroke-width="2" stroke-linecap="round" stroke-linejoin="round"/>
<path fill-rule="evenodd" clip-rule="evenodd" d="M56.2522 82.7592C50.476 84.8423 43.0364 86.096 34.9178 86.096C22.6311 86.096 11.8996 83.2244 6.13524 78.9526C5.29734 77.7524 4.8396 76.4543 4.8396 75.0995C4.8396 68.9733 14.1992 64.007 25.7447 64.007C37.2903 64.007 56.5692 75.3728 56.5692 81.499C56.5692 81.9608 56.4597 82.3795 56.2522 82.7592Z" fill="#BDBDBD" fill-opacity="0.5"/>
<path fill-rule="evenodd" clip-rule="evenodd" d="M9.99512 81.8951C16.2232 79.0258 25.0848 77.2327 34.9175 77.2327C44.7501 77.2327 53.6116 79.0257 59.8398 81.895C53.743 84.8642 44.8371 86.736 34.9174 86.736C24.9978 86.736 16.0919 84.8643 9.99512 81.8951Z" fill="#724B37"/>
<path d="M65.8486 74.2462C65.8486 81.5878 52.048 87.5393 35.0241 87.5393C18.0003 87.5393 4.19971 81.5878 4.19971 74.2462" stroke="black" stroke-width="2" stroke-linecap="round"/>
<line opacity="0.5" x1="7.82675" y1="87.6858" x2="7.82675" y2="138.668" stroke="white" stroke-width="3.41425" stroke-linecap="round"/>
<path d="M17.6994 61.0077C11.9173 75.0943 29.369 81.0991 38.8176 82.3407C34.0368 78.2773 25.2432 68.5251 28.315 62.0236C32.1546 53.8967 53.7245 56.267 64.453 53.4452C75.1815 50.6234 88.8632 42.1116 91.4436 32.2251C94.1539 21.8408 93.5893 12.3595 75.859 4.68416C57.5165 -3.2563 25.2466 0.394993 31.5708 4.68416C37.8949 8.97333 63.0979 18.5675 52.3694 32.2251C41.6409 45.8827 24.927 43.3996 17.6994 61.0077Z" fill="#C4C4C4" fill-opacity="0.3"/>
<path d="M26.9598 8.74764C32.1546 9.53775 40.2857 11.4566 39.3822 18.5676L37.2944 21.6977C37.1776 21.9387 37.0384 22.139 36.8977 22.2924L37.2944 21.6977C37.8653 20.5199 37.9028 18.3702 34.9779 15.9715C30.5736 12.3596 19.8451 15.6329 15.4408 12.9239C11.0364 10.215 17.6994 3.66836 17.6994 4.68422C17.6994 5.70007 21.7649 7.95753 26.9598 8.74764Z" fill="#C4C4C4" fill-opacity="0.3"/>
</svg>
