<svg width="101" height="32" viewBox="0 0 101 32" fill="none" xmlns="http://www.w3.org/2000/svg">
<g clip-path="url(#clip0_7239_201712)">
<path d="M9.61424 27.2361L13.8363 23.0496C14.1594 22.7312 14.4158 22.3526 14.5907 21.9355C14.7657 21.5185 14.8558 21.0712 14.8558 20.6195C14.8558 20.1679 14.7657 19.7206 14.5907 19.3036C14.4158 18.8865 14.1594 18.5079 13.8363 18.1895L9.61424 14.0271C9.29702 13.7152 9.04522 13.3442 8.87339 12.9354C8.70155 12.5266 8.61308 12.088 8.61308 11.6451C8.61308 11.2022 8.70155 10.7637 8.87339 10.3548C9.04522 9.94601 9.29702 9.57498 9.61424 9.26316L16.1414 15.7353C17.4468 17.0361 18.1796 18.7965 18.1796 20.6316C18.1796 22.4667 17.4468 24.2271 16.1414 25.5278L9.61424 32C9.29702 31.6882 9.04522 31.3172 8.87339 30.9083C8.70155 30.4995 8.61308 30.061 8.61308 29.618C8.61308 29.1751 8.70155 28.7366 8.87339 28.3278C9.04522 27.9189 9.29702 27.5479 9.61424 27.2361ZM61.613 12.006C57.6579 12.006 55.0616 14.7008 55.0374 18.8391V24.397C55.0374 24.9504 55.3043 25.6 56.5418 25.6C57.7307 25.6 57.9734 24.9504 57.9734 24.397V18.8391C57.9734 16.0722 59.3564 14.3639 61.5888 14.3639H61.613C63.8454 14.3639 65.2284 16.0722 65.2284 18.8391V24.397C65.2284 24.9504 65.4711 25.6 66.66 25.6C67.8975 25.6 68.1644 24.9504 68.1644 24.397V18.8391C68.1644 14.7008 65.5681 12.006 61.613 12.006ZM98.859 12.006H98.7862C94.8311 12.006 92.2348 14.7008 92.2105 18.8391V24.397C92.2105 24.9504 92.4775 25.6 93.7149 25.6C94.9039 25.6 95.1466 24.9504 95.1466 24.397V18.8391C95.1466 16.0722 96.5296 14.3639 98.762 14.3639H98.8105C98.9729 14.3638 99.1337 14.3318 99.2836 14.2699C99.4335 14.208 99.5696 14.1173 99.684 14.003C99.7925 13.8958 99.8784 13.7683 99.9367 13.6278C99.9951 13.4874 100.025 13.3368 100.024 13.185C100.024 12.8762 99.9027 12.5796 99.6848 12.359C99.4669 12.1385 99.1703 12.0117 98.859 12.006ZM32.9324 14.2677C30.8699 13.4015 29.0744 12.6316 29.0744 10.9955C29.0744 9.4797 30.4089 8.51729 32.4957 8.51729C33.6118 8.51729 34.5824 8.80602 35.7471 9.4797C35.8684 9.55188 35.9897 9.62406 36.0868 9.67218C36.4508 9.88872 36.6691 10.0331 36.9361 10.0331C37.6397 10.0331 38.2221 9.2391 38.2221 8.58947C38.2221 8.01203 37.7125 7.60301 37.1302 7.24211C35.7386 6.3897 34.1312 5.94743 32.4957 5.96692C28.7347 5.96692 26.2112 8.06015 26.2112 11.1639C26.2112 14.4361 29.0744 15.6632 31.5979 16.7218C33.8059 17.6602 35.7228 18.4782 35.7228 20.3789C35.7228 22.1113 34.1942 23.2662 31.9376 23.2662C30.7001 23.2662 29.6324 22.9053 28.4435 22.0872L28.1523 21.8947C27.7155 21.606 27.4729 21.4376 27.1089 21.4376C26.4295 21.4376 25.8229 22.2075 25.8229 22.8571C25.8229 23.3383 26.1384 23.7714 26.8663 24.3008C28.3329 25.3303 30.0923 25.8697 31.889 25.8406C35.8927 25.8406 38.586 23.5789 38.586 20.2346C38.586 16.6496 35.6015 15.3744 32.9324 14.2677ZM44.0213 19.7774H50.5484C51.5918 19.7774 52.6837 19.5609 52.6837 17.8767C52.6837 14.4361 50.33 12.006 46.9816 12.006C43.2934 12.006 40.9154 14.7248 40.9154 18.9113C40.9154 23.0977 43.3904 25.6962 47.3455 25.6962C48.9712 25.6962 50.3543 25.3113 51.4705 24.5654C52.1256 24.1564 52.4168 23.7474 52.4168 23.2662C52.4169 22.9321 52.2847 22.6113 52.0487 22.3729C51.8128 22.1344 51.4919 21.9973 51.155 21.991C50.8153 21.991 50.4999 22.1835 50.0874 22.4722L50.0389 22.5203C49.2704 23.0009 48.375 23.2438 47.4668 23.218C45.4044 23.218 44.1669 22.1594 43.8029 20.0421C43.792 20.0087 43.7908 19.973 43.7994 19.939C43.808 19.905 43.826 19.874 43.8514 19.8496C43.8728 19.8261 43.8991 19.8075 43.9284 19.7951C43.9577 19.7826 43.9894 19.7766 44.0213 19.7774ZM43.8272 17.2752C44.1669 15.3744 45.2588 14.3398 46.9088 14.3398C48.6073 14.3398 49.6992 15.4466 49.869 17.2992C49.8668 17.3696 49.8412 17.4373 49.7962 17.4917C49.7749 17.5152 49.7486 17.5338 49.7193 17.5463C49.69 17.5587 49.6583 17.5648 49.6264 17.5639H44.0455C44.0134 17.5673 43.9809 17.5624 43.9511 17.5498C43.9214 17.5371 43.8954 17.5172 43.8757 17.4917C43.8507 17.4621 43.8332 17.427 43.8248 17.3893C43.8163 17.3516 43.8171 17.3125 43.8272 17.2752ZM72.5321 6.32782C72.2958 6.31852 72.0601 6.3574 71.8397 6.44207C71.6192 6.52673 71.4186 6.65536 71.2502 6.82001C71.0819 6.98466 70.9495 7.18181 70.8611 7.39926C70.7727 7.61672 70.7303 7.84984 70.7365 8.08421C70.7365 8.55642 70.9257 9.00928 71.2624 9.34318C71.5991 9.67708 72.0558 9.86466 72.5321 9.86466C73.0083 9.86466 73.465 9.67708 73.8017 9.34318C74.1385 9.00928 74.3276 8.55642 74.3276 8.08421C74.3338 7.84984 74.2914 7.61672 74.203 7.39926C74.1146 7.18181 73.9822 6.98466 73.8139 6.82001C73.6455 6.65536 73.4449 6.52673 73.2244 6.44207C73.004 6.3574 72.7683 6.31852 72.5321 6.32782ZM72.5078 12.1504C71.3431 12.1504 71.1247 12.8 71.1247 13.3534V24.397C71.1247 24.9504 71.3674 25.6 72.5806 25.6C73.7453 25.6 73.9637 24.9504 73.9637 24.397V13.3534C73.9637 12.8 73.6967 12.1504 72.5078 12.1504ZM83.1114 12.006C79.1077 12.006 76.5357 14.7248 76.5357 18.9113C76.5357 23.0977 79.1077 25.7684 83.0628 25.7684C87.0907 25.7684 89.6628 23.0496 89.6628 18.8632C89.6628 14.6767 87.0907 12.006 83.1114 12.006ZM83.1114 23.3624C80.9033 23.3624 79.4717 21.582 79.4717 18.8632C79.4717 16.0962 80.8548 14.388 83.0871 14.388C85.3194 14.388 86.7025 16.1203 86.7025 18.9353C86.7025 21.6541 85.3194 23.3624 83.1114 23.3624ZM9.56572 4.76391L5.3437 8.95038C5.0206 9.26879 4.76419 9.64742 4.58922 10.0645C4.41425 10.4815 4.32418 10.9288 4.32418 11.3805C4.32418 11.8321 4.41425 12.2794 4.58922 12.6964C4.76419 13.1135 5.0206 13.4921 5.3437 13.8105L9.56572 17.997C9.88294 18.3088 10.1347 18.6798 10.3066 19.0887C10.4784 19.4975 10.5669 19.936 10.5669 20.3789C10.5669 20.8219 10.4784 21.2604 10.3066 21.6692C10.1347 22.0781 9.88294 22.4491 9.56572 22.7609L3.01431 16.2647C1.7089 14.9639 0.976074 13.2035 0.976074 11.3684C0.976074 9.53335 1.7089 7.77295 3.01431 6.47218L9.56572 0C10.1958 0.635395 10.5489 1.49084 10.5489 2.38195C10.5489 3.27307 10.1958 4.12852 9.56572 4.76391Z" fill="#12A885"/>
</g>
<defs>
<clipPath id="clip0_7239_201712">
<rect width="99.0476" height="32" fill="white" transform="translate(0.976074)"/>
</clipPath>
</defs>
</svg>
