<svg width="50" height="17" viewBox="0 0 50 17" fill="none" xmlns="http://www.w3.org/2000/svg">
<path d="M4.79516 13.704L6.90617 11.6108C7.06772 11.4515 7.19592 11.2622 7.28341 11.0537C7.37089 10.8452 7.41593 10.6216 7.41593 10.3957C7.41593 10.1699 7.37089 9.94625 7.28341 9.73772C7.19592 9.5292 7.06772 9.33988 6.90617 9.18067L4.79516 7.09947C4.63655 6.94356 4.51065 6.75805 4.42473 6.55363C4.33881 6.34922 4.29458 6.12995 4.29458 5.90849C4.29458 5.68704 4.33881 5.46777 4.42473 5.26336C4.51065 5.05894 4.63655 4.87343 4.79516 4.71752L8.05873 7.95361C8.71143 8.60399 9.07785 9.48419 9.07785 10.4017C9.07785 11.3193 8.71143 12.1995 8.05873 12.8498L4.79516 16.0859C4.63655 15.93 4.51065 15.7445 4.42473 15.5401C4.33881 15.3357 4.29458 15.1164 4.29458 14.895C4.29458 14.6735 4.33881 14.4542 4.42473 14.2498C4.51065 14.0454 4.63655 13.8599 4.79516 13.704ZM30.7945 6.08895C28.817 6.08895 27.5188 7.43631 27.5067 9.50549V12.2844C27.5067 12.5611 27.6402 12.8859 28.2589 12.8859C28.8534 12.8859 28.9747 12.5611 28.9747 12.2844V9.50549C28.9747 8.12203 29.6663 7.26789 30.7824 7.26789H30.7945C31.9107 7.26789 32.6023 8.12203 32.6023 9.50549V12.2844C32.6023 12.5611 32.7236 12.8859 33.3181 12.8859C33.9368 12.8859 34.0703 12.5611 34.0703 12.2844V9.50549C34.0703 7.43631 32.7721 6.08895 30.7945 6.08895ZM49.4175 6.08895H49.3811C47.4036 6.08895 46.1054 7.43631 46.0933 9.50549V12.2844C46.0933 12.5611 46.2268 12.8859 46.8455 12.8859C47.44 12.8859 47.5613 12.5611 47.5613 12.2844V9.50549C47.5613 8.12203 48.2528 7.26789 49.369 7.26789H49.3933C49.4745 7.26783 49.5549 7.25185 49.6298 7.22088C49.7048 7.18992 49.7728 7.14457 49.83 7.08744C49.8843 7.03384 49.9272 6.97007 49.9564 6.89985C49.9856 6.82963 50.0003 6.75436 49.9999 6.67842C50.0002 6.52405 49.9394 6.37573 49.8304 6.26546C49.7215 6.15518 49.5732 6.09179 49.4175 6.08895ZM16.4542 7.21977C15.423 6.78669 14.5252 6.40173 14.5252 5.58368C14.5252 4.82579 15.1925 4.34458 16.2359 4.34458C16.7939 4.34458 17.2792 4.48895 17.8616 4.82579C17.9222 4.86188 17.9829 4.89797 18.0314 4.92203C18.2134 5.0303 18.3226 5.10248 18.4561 5.10248C18.8079 5.10248 19.0991 4.70549 19.0991 4.38067C19.0991 4.09195 18.8443 3.88744 18.5531 3.70699C17.8573 3.28079 17.0536 3.05965 16.2359 3.0694C14.3554 3.0694 13.0936 4.11601 13.0936 5.66789C13.0936 7.30398 14.5252 7.91752 15.787 8.44684C16.891 8.91601 17.8494 9.32504 17.8494 10.2754C17.8494 11.1416 17.0851 11.719 15.9568 11.719C15.3381 11.719 14.8043 11.5386 14.2098 11.1295L14.0642 11.0333C13.8458 10.8889 13.7245 10.8047 13.5425 10.8047C13.2028 10.8047 12.8995 11.1897 12.8995 11.5145C12.8995 11.7551 13.0572 11.9717 13.4212 12.2363C14.1545 12.7511 15.0342 13.0208 15.9326 13.0062C17.9344 13.0062 19.2811 11.8754 19.2811 10.2032C19.2811 8.41075 17.7888 7.77316 16.4542 7.21977ZM21.9987 9.97466H25.2622C25.7839 9.97466 26.3299 9.86639 26.3299 9.02428C26.3299 7.30398 25.1531 6.08895 23.4788 6.08895C21.6347 6.08895 20.4457 7.44834 20.4457 9.54158C20.4457 11.6348 21.6832 12.9341 23.6608 12.9341C24.4737 12.9341 25.1652 12.7416 25.7233 12.3686C26.0508 12.1641 26.1964 11.9596 26.1964 11.719C26.1965 11.552 26.1304 11.3916 26.0124 11.2724C25.8944 11.1531 25.734 11.0846 25.5656 11.0814C25.3957 11.0814 25.238 11.1777 25.0317 11.322L25.0075 11.3461C24.6232 11.5864 24.1755 11.7078 23.7215 11.695C22.6902 11.695 22.0715 11.1656 21.8895 10.107C21.8841 10.0903 21.8835 10.0724 21.8877 10.0554C21.892 10.0384 21.901 10.0229 21.9137 10.0107C21.9244 9.99901 21.9376 9.9897 21.9522 9.98347C21.9669 9.97724 21.9827 9.97423 21.9987 9.97466ZM21.9016 8.72353C22.0715 7.77316 22.6174 7.25586 23.4424 7.25586C24.2917 7.25586 24.8376 7.80925 24.9225 8.73556C24.9214 8.77074 24.9086 8.80456 24.8861 8.8318C24.8755 8.84354 24.8623 8.85285 24.8477 8.85908C24.833 8.86531 24.8172 8.86832 24.8012 8.86789H22.0108C21.9947 8.86958 21.9785 8.86714 21.9636 8.86082C21.9487 8.85451 21.9357 8.84451 21.9259 8.8318C21.9134 8.81701 21.9046 8.79945 21.9004 8.78061C21.8962 8.76176 21.8966 8.74219 21.9016 8.72353ZM36.2541 3.24985C36.1359 3.2452 36.0181 3.26464 35.9079 3.30697C35.7976 3.3493 35.6973 3.41362 35.6132 3.49594C35.529 3.57827 35.4628 3.67684 35.4186 3.78557C35.3744 3.8943 35.3532 4.01086 35.3563 4.12804C35.3563 4.36415 35.4509 4.59058 35.6192 4.75753C35.7876 4.92448 36.0159 5.01827 36.2541 5.01827C36.4922 5.01827 36.7205 4.92448 36.8889 4.75753C37.0573 4.59058 37.1518 4.36415 37.1518 4.12804C37.1549 4.01086 37.1337 3.8943 37.0895 3.78557C37.0453 3.67684 36.9791 3.57827 36.895 3.49594C36.8108 3.41362 36.7105 3.3493 36.6003 3.30697C36.49 3.26464 36.3722 3.2452 36.2541 3.24985ZM36.2419 6.16113C35.6596 6.16113 35.5504 6.48594 35.5504 6.76263V12.2844C35.5504 12.5611 35.6717 12.8859 36.2783 12.8859C36.8607 12.8859 36.9699 12.5611 36.9699 12.2844V6.76263C36.9699 6.48594 36.8364 6.16113 36.2419 6.16113ZM41.5437 6.08895C39.5419 6.08895 38.2559 7.44834 38.2559 9.54158C38.2559 11.6348 39.5419 12.9701 41.5194 12.9701C43.5334 12.9701 44.8194 11.6108 44.8194 9.51752C44.8194 7.42428 43.5334 6.08895 41.5437 6.08895ZM41.5437 11.7671C40.4397 11.7671 39.7239 10.8769 39.7239 9.51752C39.7239 8.13406 40.4154 7.27992 41.5316 7.27992C42.6477 7.27992 43.3393 8.14609 43.3393 9.55361C43.3393 10.913 42.6477 11.7671 41.5437 11.7671ZM4.7709 2.46789L2.65988 4.56113C2.49834 4.72033 2.37013 4.90965 2.28265 5.11817C2.19516 5.3267 2.15013 5.55031 2.15013 5.77616C2.15013 6.00201 2.19516 6.22563 2.28265 6.43415C2.37013 6.64268 2.49834 6.83199 2.65988 6.9912L4.7709 9.08443C4.92951 9.24034 5.05541 9.42586 5.14132 9.63027C5.22724 9.83469 5.27148 10.054 5.27148 10.2754C5.27148 10.4969 5.22724 10.7161 5.14132 10.9205C5.05541 11.125 4.92951 11.3105 4.7709 11.4664L1.49519 8.21827C0.842489 7.56789 0.476074 6.68768 0.476074 5.77015C0.476074 4.85261 0.842489 3.97241 1.49519 3.32203L4.7709 0.0859375C5.08594 0.403635 5.26249 0.831356 5.26249 1.27691C5.26249 1.72247 5.08594 2.1502 4.7709 2.46789Z" fill="#808080"/>
</svg>
