<svg width="242" height="160" viewBox="0 0 242 160" fill="none" xmlns="http://www.w3.org/2000/svg">
<ellipse cx="184.538" cy="109.665" rx="50.2887" ry="16.3687" fill="#BDBDBD"/>
<ellipse rx="36.6717" ry="15.8236" transform="matrix(4.3736e-08 1 1 -4.36868e-08 151.543 70.1595)" fill="#E1E1E1"/>
<path fill-rule="evenodd" clip-rule="evenodd" d="M151.543 34.4161L151.543 33.4878L219.423 33.4878C230.822 33.4878 240.063 49.9063 240.063 70.1595C240.063 90.4128 230.822 106.831 219.424 106.831L219.4 106.831L151.543 106.831L151.543 105.903C159.88 105.417 166.575 89.5999 166.575 70.1595C166.575 50.7192 159.88 34.9025 151.543 34.4161Z" fill="#E1E1E1"/>
<path d="M177.966 89.6414C172.282 89.6414 167.228 93.3207 164.812 98.4655C162.337 103.737 155.9 105.914 155.9 105.914L222.136 105.914C222.688 105.914 223.24 105.89 223.775 105.753C225.412 105.333 229.219 103.889 232.255 99.157C235.143 94.6559 230.213 89.6414 224.866 89.6414L177.966 89.6414Z" fill="#BDBDBD" fill-opacity="0.5"/>
<path d="M151.543 106.831L219.424 106.831C230.822 106.831 240.063 90.4127 240.063 70.1595C240.063 49.9063 230.822 33.4878 219.424 33.4878L151.543 33.4878C142.803 33.4878 135.719 50.4126 135.719 70.1595C135.719 89.9064 142.689 106.831 151.428 106.831" stroke="#351512" stroke-width="2" stroke-linecap="round" stroke-linejoin="round"/>
<path fill-rule="evenodd" clip-rule="evenodd" d="M160.694 92.8535C162.934 86.6472 164.282 78.6536 164.282 69.9304C164.282 56.7295 161.195 45.1994 156.603 39.0058C155.312 38.1053 153.917 37.6134 152.46 37.6134C145.874 37.6134 140.535 47.6697 140.535 60.0748C140.535 72.4799 152.754 93.194 159.34 93.194C159.836 93.194 160.286 93.0763 160.694 92.8535Z" fill="#BDBDBD" fill-opacity="0.5"/>
<path fill-rule="evenodd" clip-rule="evenodd" d="M165.625 72.9183C159.89 72.702 153.815 72.7007 147.532 72.9425C142.956 73.1185 138.501 73.4144 134.216 73.8157C135.363 90.4253 141.945 103.16 149.892 103.16C157.982 103.16 164.657 89.9644 165.625 72.9183Z" fill="#724B37"/>
<path d="M151.543 103.164C159.435 103.164 165.833 88.3361 165.833 70.0449C165.833 51.7537 159.435 36.9258 151.543 36.9258" stroke="black" stroke-width="2" stroke-linecap="round"/>
<line opacity="0.5" x1="1" y1="-1" x2="57.4785" y2="-1" transform="matrix(1 -2.08175e-07 -9.17824e-09 -1 164.156 38.9886)" stroke="white" stroke-width="2" stroke-linecap="round"/>
<path d="M211.531 123.91L210.535 124.006L179.251 127.015L179.251 127.015L179.24 127.016C175.1 127.372 170.987 126.054 167.787 123.413C164.541 120.734 162.491 116.874 162.088 112.682C161.686 108.491 162.964 104.311 165.641 101.062C166.529 99.9843 167.404 99.2131 168.354 98.6624C169.306 98.111 170.284 97.8087 171.337 97.6115C173.883 97.1345 176.06 99.142 176.291 101.541C176.42 102.894 175.828 103.836 175.099 104.548C174.752 104.887 174.358 105.191 173.998 105.466C173.96 105.495 173.923 105.523 173.886 105.551C173.554 105.804 173.244 106.039 172.95 106.298C172.838 106.397 172.7 106.539 172.53 106.746C171.359 108.166 170.8 109.994 170.976 111.828C171.153 113.661 172.049 115.349 173.469 116.521C174.889 117.693 176.716 118.256 178.546 118.08L209.678 115.085L210.674 114.99C212.246 114.838 213.694 114.068 214.699 112.848C215.704 111.629 216.184 110.059 216.033 108.485C215.882 106.911 215.112 105.461 213.893 104.455C213.055 103.764 212.142 102.834 211.543 101.777C210.944 100.719 210.589 99.3929 211.162 98.0582C211.745 96.7023 213.066 95.8159 214.492 95.6967C215.194 95.6381 215.933 95.5997 216.793 95.865C217.637 96.1254 218.51 96.6489 219.592 97.5416C222.643 100.06 224.57 103.688 224.948 107.627C225.327 111.567 224.126 115.496 221.61 118.549C219.306 121.345 216.073 123.197 212.523 123.781L212.526 123.815L211.531 123.91C211.531 123.91 211.531 123.91 211.531 123.91Z" fill="#CFCFCF" stroke="#351512" stroke-width="2"/>
<path d="M92.2544 73.7801C101.493 74.7127 130.239 73.7801 134.354 73.7801L150.417 103.16C144.853 103.475 129.987 106.455 134.354 110.82C139.813 116.276 131.415 121.837 103.803 124.88C76.1914 127.923 31.9919 126.349 23.9079 116.276C15.8239 106.203 49.4198 103.475 54.4591 103.16C59.4985 102.845 81.0208 99.4873 29.5772 88.365C-21.8663 77.2427 41.7609 65.9945 60.4434 69.8977C79.026 73.7801 81.8607 72.7308 92.2544 73.7801Z" fill="#724B37"/>
<path d="M9.83969 86.6861C4.80032 85.8467 3.22552 85.2172 0.0759152 88.365C-0.309037 89.3443 0.579852 91.324 7.21502 91.4079C15.509 91.5128 14.8791 87.5256 9.83969 86.6861Z" fill="#724B37"/>
<path d="M153.462 115.961C149.367 113.548 139.918 115.436 139.079 119.004C138.412 121.837 147.079 124.04 152.202 122.362C158.606 120.263 157.556 118.374 153.462 115.961Z" fill="#724B37"/>
</svg>
