<svg width="344" height="216" viewBox="0 0 344 216" fill="none" xmlns="http://www.w3.org/2000/svg">
<path d="M17.6322 70.8413C17.8347 71.0554 18.1645 71.0554 18.37 70.8413L21.5208 67.537C22.4351 66.5764 22.3831 64.9851 21.3588 64.0997C20.4677 63.3272 19.1396 63.4661 18.3237 64.3225L17.9996 64.661L17.6785 64.3254C16.8625 63.4661 15.5345 63.3272 14.6433 64.0997C13.622 64.9851 13.567 66.5764 14.4813 67.537L17.6322 70.8413ZM26.0229 73.0865C25.6815 72.7769 25.1491 72.7972 24.7903 73.0865L22.1169 75.2247C21.7899 75.488 21.382 75.6298 20.9595 75.6298H17.5367C17.2821 75.6298 17.0737 75.4214 17.0737 75.1668C17.0737 74.9122 17.2821 74.7039 17.5367 74.7039H19.8022C20.2622 74.7039 20.6904 74.3885 20.7657 73.9343C20.8612 73.3556 20.4156 72.8521 19.8514 72.8521H15.222C14.4408 72.8521 13.6856 73.1212 13.078 73.6131L11.7326 74.7039H10.1297C9.87507 74.7039 9.66675 74.9122 9.66675 75.1668V77.9445C9.66675 78.1991 9.87507 78.4074 10.1297 78.4074H20.4532C20.8727 78.4074 21.2807 78.2656 21.6105 78.0023L25.9853 74.5014C26.4251 74.1513 26.4598 73.48 26.0229 73.0865Z" fill="#6E7280"/>
<path d="M42.6989 72.2408V72.4581C42.6989 73.1996 42.6328 73.794 42.5007 74.2415C42.3686 74.6847 42.1768 75.0426 41.9254 75.3153C41.6783 75.5838 41.3757 75.831 41.0178 76.0568C40.7578 76.223 40.5213 76.3999 40.3082 76.5874C40.0994 76.7706 39.9332 76.973 39.8097 77.1946C39.6861 77.4162 39.6243 77.6676 39.6243 77.9489C39.6243 78.2429 39.6946 78.4986 39.8352 78.7159C39.9759 78.9375 40.1634 79.108 40.3977 79.2273C40.6364 79.3509 40.8984 79.4126 41.1839 79.4126C41.4609 79.4126 41.723 79.3509 41.9702 79.2273C42.2173 79.108 42.4197 78.929 42.5774 78.6903C42.7351 78.4517 42.8203 78.1577 42.8331 77.8082H45.4411C45.424 78.6605 45.2195 79.3658 44.8274 79.924C44.4396 80.4822 43.9261 80.8977 43.2869 81.1705C42.652 81.4474 41.9467 81.5859 41.1712 81.5859C40.3274 81.5859 39.5774 81.4453 38.9212 81.1641C38.2692 80.8871 37.7578 80.4844 37.3871 79.956C37.0163 79.4276 36.831 78.7884 36.831 78.0384C36.831 77.5398 36.9119 77.0987 37.0739 76.7152C37.2401 76.3274 37.4702 75.9865 37.7642 75.6925C38.0625 75.3942 38.4098 75.1278 38.8061 74.8935C39.1428 74.6889 39.4176 74.4801 39.6307 74.267C39.848 74.0497 40.0078 73.7983 40.1101 73.5128C40.2166 73.223 40.272 72.8714 40.2763 72.4581V72.2408H42.6989ZM41.4332 68.1499C41.8594 68.1499 42.2237 68.299 42.5263 68.5973C42.8288 68.8956 42.9759 69.2578 42.9673 69.6839C42.9759 70.1016 42.8288 70.4595 42.5263 70.7578C42.2237 71.0561 41.8594 71.2053 41.4332 71.2053C41.0284 71.2053 40.6726 71.0561 40.3658 70.7578C40.0632 70.4595 39.9077 70.1016 39.8991 69.6839C39.9034 69.3984 39.9759 69.1406 40.1165 68.9105C40.2614 68.6804 40.4489 68.4972 40.679 68.3608C40.9134 68.2202 41.1648 68.1499 41.4332 68.1499ZM58.8132 69.4922H56.0135C55.9624 69.13 55.858 68.8082 55.7003 68.527C55.5426 68.2415 55.3402 67.9986 55.093 67.7983C54.8459 67.598 54.5604 67.4446 54.2365 67.3381C53.9169 67.2315 53.5696 67.1783 53.1946 67.1783C52.517 67.1783 51.9268 67.3466 51.424 67.6832C50.9212 68.0156 50.5313 68.5014 50.2543 69.1406C49.9773 69.7756 49.8388 70.5469 49.8388 71.4545C49.8388 72.3878 49.9773 73.1719 50.2543 73.8068C50.5355 74.4418 50.9276 74.9212 51.4304 75.245C51.9332 75.5689 52.5149 75.7308 53.1754 75.7308C53.5462 75.7308 53.8892 75.6818 54.2045 75.5838C54.5241 75.4858 54.8075 75.343 55.0547 75.1555C55.3018 74.9638 55.5064 74.7315 55.6683 74.4588C55.8345 74.1861 55.9496 73.875 56.0135 73.5256L58.8132 73.5384C58.7408 74.1392 58.5597 74.7188 58.2699 75.277C57.9844 75.831 57.5987 76.3274 57.1129 76.7663C56.6314 77.201 56.0561 77.5462 55.3871 77.8018C54.7223 78.0533 53.9702 78.179 53.1307 78.179C51.9631 78.179 50.919 77.9148 49.9986 77.3864C49.0824 76.858 48.358 76.093 47.8253 75.0916C47.2969 74.0902 47.0327 72.8778 47.0327 71.4545C47.0327 70.027 47.3011 68.8125 47.8381 67.8111C48.375 66.8097 49.1037 66.0469 50.0241 65.5227C50.9446 64.9943 51.9801 64.7301 53.1307 64.7301C53.8892 64.7301 54.5923 64.8366 55.2401 65.0497C55.892 65.2628 56.4695 65.5739 56.9723 65.983C57.4751 66.3878 57.8842 66.8842 58.1996 67.4723C58.5192 68.0604 58.7237 68.7337 58.8132 69.4922ZM65.1829 78.1918C64.19 78.1918 63.3313 77.9808 62.6069 77.5589C61.8867 77.1328 61.3306 76.5405 60.9386 75.782C60.5465 75.0192 60.3505 74.1349 60.3505 73.1293C60.3505 72.1151 60.5465 71.2287 60.9386 70.4702C61.3306 69.7074 61.8867 69.1151 62.6069 68.6932C63.3313 68.267 64.19 68.054 65.1829 68.054C66.1758 68.054 67.0323 68.267 67.7525 68.6932C68.4769 69.1151 69.0352 69.7074 69.4272 70.4702C69.8192 71.2287 70.0153 72.1151 70.0153 73.1293C70.0153 74.1349 69.8192 75.0192 69.4272 75.782C69.0352 76.5405 68.4769 77.1328 67.7525 77.5589C67.0323 77.9808 66.1758 78.1918 65.1829 78.1918ZM65.1957 76.0824C65.6474 76.0824 66.0245 75.9545 66.3271 75.6989C66.6296 75.4389 66.8576 75.0852 67.011 74.6378C67.1687 74.1903 67.2475 73.6811 67.2475 73.1101C67.2475 72.5391 67.1687 72.0298 67.011 71.5824C66.8576 71.1349 66.6296 70.7812 66.3271 70.5213C66.0245 70.2614 65.6474 70.1314 65.1957 70.1314C64.7397 70.1314 64.3562 70.2614 64.0451 70.5213C63.7383 70.7812 63.506 71.1349 63.3484 71.5824C63.195 72.0298 63.1183 72.5391 63.1183 73.1101C63.1183 73.6811 63.195 74.1903 63.3484 74.6378C63.506 75.0852 63.7383 75.4389 64.0451 75.6989C64.3562 75.9545 64.7397 76.0824 65.1957 76.0824ZM64.2049 66.9162L65.56 64.0078H68.0785L66.1289 66.9162H64.2049ZM71.7859 78V68.1818H74.381V69.9141H74.4961C74.7006 69.3388 75.0415 68.8849 75.5188 68.5526C75.9961 68.2202 76.5671 68.054 77.2319 68.054C77.9052 68.054 78.4783 68.2223 78.9513 68.5589C79.4244 68.8913 79.7397 69.343 79.8974 69.9141H79.9996C80.1999 69.3516 80.5621 68.902 81.0863 68.5653C81.6147 68.2244 82.239 68.054 82.9592 68.054C83.8754 68.054 84.619 68.3459 85.19 68.9297C85.7653 69.5092 86.0529 70.3317 86.0529 71.397V78H83.3363V71.9339C83.3363 71.3885 83.1914 70.9794 82.9016 70.7067C82.6119 70.4339 82.2496 70.2976 81.815 70.2976C81.3207 70.2976 80.935 70.4553 80.658 70.7706C80.381 71.0817 80.2425 71.4929 80.2425 72.0043V78H77.6026V71.8764C77.6026 71.3949 77.4641 71.0114 77.1871 70.7259C76.9144 70.4403 76.5543 70.2976 76.1069 70.2976C75.8043 70.2976 75.5316 70.3743 75.2887 70.5277C75.0501 70.6768 74.8604 70.8878 74.7198 71.1605C74.5792 71.429 74.5089 71.7443 74.5089 72.1065V78H71.7859ZM92.6399 78.1918C91.647 78.1918 90.7884 77.9808 90.0639 77.5589C89.3438 77.1328 88.7876 76.5405 88.3956 75.782C88.0036 75.0192 87.8075 74.1349 87.8075 73.1293C87.8075 72.1151 88.0036 71.2287 88.3956 70.4702C88.7876 69.7074 89.3438 69.1151 90.0639 68.6932C90.7884 68.267 91.647 68.054 92.6399 68.054C93.6328 68.054 94.4893 68.267 95.2095 68.6932C95.9339 69.1151 96.4922 69.7074 96.8842 70.4702C97.2763 71.2287 97.4723 72.1151 97.4723 73.1293C97.4723 74.1349 97.2763 75.0192 96.8842 75.782C96.4922 76.5405 95.9339 77.1328 95.2095 77.5589C94.4893 77.9808 93.6328 78.1918 92.6399 78.1918ZM92.6527 76.0824C93.1044 76.0824 93.4815 75.9545 93.7841 75.6989C94.0866 75.4389 94.3146 75.0852 94.468 74.6378C94.6257 74.1903 94.7045 73.6811 94.7045 73.1101C94.7045 72.5391 94.6257 72.0298 94.468 71.5824C94.3146 71.1349 94.0866 70.7812 93.7841 70.5213C93.4815 70.2614 93.1044 70.1314 92.6527 70.1314C92.1967 70.1314 91.8132 70.2614 91.5021 70.5213C91.1953 70.7812 90.9631 71.1349 90.8054 71.5824C90.652 72.0298 90.5753 72.5391 90.5753 73.1101C90.5753 73.6811 90.652 74.1903 90.8054 74.6378C90.9631 75.0852 91.1953 75.4389 91.5021 75.6989C91.8132 75.9545 92.1967 76.0824 92.6527 76.0824ZM108.631 68.1818V70.2273H102.719V68.1818H108.631ZM104.061 65.8295H106.784V74.983C106.784 75.2344 106.822 75.4304 106.899 75.571C106.976 75.7074 107.082 75.8033 107.219 75.8587C107.359 75.9141 107.521 75.9418 107.704 75.9418C107.832 75.9418 107.96 75.9311 108.088 75.9098C108.216 75.8842 108.314 75.8651 108.382 75.8523L108.81 77.8786C108.674 77.9212 108.482 77.9702 108.235 78.0256C107.988 78.0852 107.687 78.1214 107.334 78.1342C106.677 78.1598 106.102 78.0724 105.608 77.8722C105.118 77.6719 104.736 77.3608 104.464 76.9389C104.191 76.517 104.057 75.9844 104.061 75.3409V65.8295ZM114.774 78.1918C113.764 78.1918 112.895 77.9872 112.166 77.5781C111.442 77.1648 110.883 76.581 110.491 75.8267C110.099 75.0682 109.903 74.1712 109.903 73.1357C109.903 72.1257 110.099 71.2393 110.491 70.4766C110.883 69.7138 111.435 69.1193 112.147 68.6932C112.863 68.267 113.702 68.054 114.665 68.054C115.313 68.054 115.916 68.1584 116.474 68.3672C117.037 68.5717 117.527 68.8807 117.944 69.294C118.366 69.7074 118.694 70.2273 118.929 70.8537C119.163 71.4759 119.28 72.2045 119.28 73.0398V73.7876H110.99V72.1001H116.717C116.717 71.7081 116.632 71.3608 116.461 71.0582C116.291 70.7557 116.055 70.5192 115.752 70.3487C115.454 70.174 115.106 70.0866 114.71 70.0866C114.297 70.0866 113.93 70.1825 113.611 70.3743C113.295 70.5618 113.048 70.8153 112.869 71.1349C112.69 71.4503 112.599 71.8018 112.594 72.1896V73.794C112.594 74.2798 112.684 74.6996 112.863 75.0533C113.046 75.407 113.304 75.6797 113.636 75.8714C113.969 76.0632 114.363 76.1591 114.819 76.1591C115.121 76.1591 115.398 76.1165 115.65 76.0312C115.901 75.946 116.116 75.8182 116.295 75.6477C116.474 75.4773 116.611 75.2685 116.704 75.0213L119.223 75.1875C119.095 75.7926 118.833 76.321 118.437 76.7727C118.045 77.2202 117.537 77.5696 116.915 77.821C116.297 78.0682 115.584 78.1918 114.774 78.1918ZM133.392 70.9815L130.9 71.1349C130.857 70.9219 130.765 70.7301 130.625 70.5597C130.484 70.3849 130.299 70.2464 130.069 70.1442C129.843 70.0376 129.572 69.9844 129.257 69.9844C128.835 69.9844 128.479 70.0739 128.189 70.2528C127.9 70.4276 127.755 70.6619 127.755 70.956C127.755 71.1903 127.848 71.3885 128.036 71.5504C128.223 71.7124 128.545 71.8423 129.001 71.9403L130.778 72.2983C131.733 72.4943 132.444 72.8097 132.913 73.2443C133.382 73.679 133.616 74.25 133.616 74.9574C133.616 75.6009 133.426 76.1655 133.047 76.6513C132.672 77.1371 132.157 77.5163 131.5 77.7891C130.848 78.0575 130.096 78.1918 129.244 78.1918C127.944 78.1918 126.909 77.9212 126.137 77.38C125.37 76.8345 124.921 76.093 124.789 75.1555L127.467 75.0149C127.548 75.4112 127.744 75.7138 128.055 75.9226C128.366 76.1271 128.765 76.2294 129.25 76.2294C129.728 76.2294 130.111 76.1378 130.401 75.9545C130.695 75.767 130.844 75.5263 130.848 75.2322C130.844 74.9851 130.74 74.7827 130.535 74.625C130.331 74.4631 130.015 74.3395 129.589 74.2543L127.889 73.9155C126.93 73.7237 126.216 73.3913 125.748 72.9183C125.283 72.4453 125.051 71.8423 125.051 71.1094C125.051 70.4787 125.221 69.9354 125.562 69.4794C125.907 69.0234 126.391 68.6719 127.013 68.4247C127.64 68.1776 128.373 68.054 129.212 68.054C130.452 68.054 131.428 68.3161 132.14 68.8402C132.855 69.3643 133.273 70.0781 133.392 70.9815ZM135.331 78V68.1818H138.054V78H135.331ZM136.699 66.9162C136.294 66.9162 135.947 66.782 135.657 66.5135C135.371 66.2408 135.229 65.9148 135.229 65.5355C135.229 65.1605 135.371 64.8388 135.657 64.5703C135.947 64.2976 136.294 64.1612 136.699 64.1612C137.104 64.1612 137.449 64.2976 137.734 64.5703C138.024 64.8388 138.169 65.1605 138.169 65.5355C138.169 65.9148 138.024 66.2408 137.734 66.5135C137.449 66.782 137.104 66.9162 136.699 66.9162ZM144.71 78.1918C143.7 78.1918 142.83 77.9872 142.102 77.5781C141.377 77.1648 140.819 76.581 140.427 75.8267C140.035 75.0682 139.839 74.1712 139.839 73.1357C139.839 72.1257 140.035 71.2393 140.427 70.4766C140.819 69.7138 141.371 69.1193 142.082 68.6932C142.798 68.267 143.638 68.054 144.601 68.054C145.249 68.054 145.852 68.1584 146.41 68.3672C146.972 68.5717 147.462 68.8807 147.88 69.294C148.302 69.7074 148.63 70.2273 148.864 70.8537C149.099 71.4759 149.216 72.2045 149.216 73.0398V73.7876H140.925V72.1001H146.653C146.653 71.7081 146.567 71.3608 146.397 71.0582C146.227 70.7557 145.99 70.5192 145.688 70.3487C145.389 70.174 145.042 70.0866 144.646 70.0866C144.232 70.0866 143.866 70.1825 143.546 70.3743C143.231 70.5618 142.984 70.8153 142.805 71.1349C142.626 71.4503 142.534 71.8018 142.53 72.1896V73.794C142.53 74.2798 142.619 74.6996 142.798 75.0533C142.982 75.407 143.239 75.6797 143.572 75.8714C143.904 76.0632 144.298 76.1591 144.754 76.1591C145.057 76.1591 145.334 76.1165 145.585 76.0312C145.837 75.946 146.052 75.8182 146.231 75.6477C146.41 75.4773 146.546 75.2685 146.64 75.0213L149.158 75.1875C149.031 75.7926 148.768 76.321 148.372 76.7727C147.98 77.2202 147.473 77.5696 146.851 77.821C146.233 78.0682 145.519 78.1918 144.71 78.1918ZM153.716 72.3239V78H150.993V68.1818H153.588V69.9141H153.703C153.92 69.343 154.285 68.8913 154.796 68.5589C155.308 68.2223 155.928 68.054 156.656 68.054C157.338 68.054 157.933 68.2031 158.44 68.5014C158.947 68.7997 159.341 69.2259 159.622 69.7798C159.903 70.3295 160.044 70.9858 160.044 71.7486V78H157.321V72.2344C157.325 71.6335 157.172 71.1648 156.861 70.8281C156.55 70.4872 156.121 70.3168 155.576 70.3168C155.21 70.3168 154.886 70.3956 154.604 70.5533C154.327 70.7109 154.11 70.9411 153.952 71.2436C153.799 71.5419 153.72 71.902 153.716 72.3239ZM167.412 68.1818V70.2273H161.5V68.1818H167.412ZM162.842 65.8295H165.565V74.983C165.565 75.2344 165.604 75.4304 165.68 75.571C165.757 75.7074 165.863 75.8033 166 75.8587C166.14 75.9141 166.302 75.9418 166.486 75.9418C166.613 75.9418 166.741 75.9311 166.869 75.9098C166.997 75.8842 167.095 75.8651 167.163 75.8523L167.591 77.8786C167.455 77.9212 167.263 77.9702 167.016 78.0256C166.769 78.0852 166.469 78.1214 166.115 78.1342C165.459 78.1598 164.883 78.0724 164.389 77.8722C163.899 77.6719 163.518 77.3608 163.245 76.9389C162.972 76.517 162.838 75.9844 162.842 75.3409V65.8295ZM173.555 78.1918C172.545 78.1918 171.676 77.9872 170.947 77.5781C170.223 77.1648 169.665 76.581 169.273 75.8267C168.881 75.0682 168.684 74.1712 168.684 73.1357C168.684 72.1257 168.881 71.2393 169.273 70.4766C169.665 69.7138 170.216 69.1193 170.928 68.6932C171.644 68.267 172.483 68.054 173.447 68.054C174.094 68.054 174.697 68.1584 175.256 68.3672C175.818 68.5717 176.308 68.8807 176.726 69.294C177.148 69.7074 177.476 70.2273 177.71 70.8537C177.944 71.4759 178.062 72.2045 178.062 73.0398V73.7876H169.771V72.1001H175.498C175.498 71.7081 175.413 71.3608 175.243 71.0582C175.072 70.7557 174.836 70.5192 174.533 70.3487C174.235 70.174 173.888 70.0866 173.491 70.0866C173.078 70.0866 172.711 70.1825 172.392 70.3743C172.077 70.5618 171.829 70.8153 171.65 71.1349C171.471 71.4503 171.38 71.8018 171.376 72.1896V73.794C171.376 74.2798 171.465 74.6996 171.644 75.0533C171.827 75.407 172.085 75.6797 172.417 75.8714C172.75 76.0632 173.144 76.1591 173.6 76.1591C173.903 76.1591 174.18 76.1165 174.431 76.0312C174.682 75.946 174.898 75.8182 175.077 75.6477C175.256 75.4773 175.392 75.2685 175.486 75.0213L178.004 75.1875C177.876 75.7926 177.614 76.321 177.218 76.7727C176.826 77.2202 176.319 77.5696 175.697 77.821C175.079 78.0682 174.365 78.1918 173.555 78.1918ZM188.008 70.9815L185.515 71.1349C185.472 70.9219 185.381 70.7301 185.24 70.5597C185.099 70.3849 184.914 70.2464 184.684 70.1442C184.458 70.0376 184.187 69.9844 183.872 69.9844C183.45 69.9844 183.094 70.0739 182.805 70.2528C182.515 70.4276 182.37 70.6619 182.37 70.956C182.37 71.1903 182.464 71.3885 182.651 71.5504C182.839 71.7124 183.16 71.8423 183.616 71.9403L185.393 72.2983C186.348 72.4943 187.059 72.8097 187.528 73.2443C187.997 73.679 188.231 74.25 188.231 74.9574C188.231 75.6009 188.042 76.1655 187.662 76.6513C187.287 77.1371 186.772 77.5163 186.116 77.7891C185.464 78.0575 184.711 78.1918 183.859 78.1918C182.559 78.1918 181.524 77.9212 180.753 77.38C179.986 76.8345 179.536 76.093 179.404 75.1555L182.082 75.0149C182.163 75.4112 182.359 75.7138 182.67 75.9226C182.981 76.1271 183.38 76.2294 183.866 76.2294C184.343 76.2294 184.726 76.1378 185.016 75.9545C185.31 75.767 185.459 75.5263 185.464 75.2322C185.459 74.9851 185.355 74.7827 185.15 74.625C184.946 74.4631 184.631 74.3395 184.204 74.2543L182.504 73.9155C181.545 73.7237 180.831 73.3913 180.363 72.9183C179.898 72.4453 179.666 71.8423 179.666 71.1094C179.666 70.4787 179.836 69.9354 180.177 69.4794C180.523 69.0234 181.006 68.6719 181.628 68.4247C182.255 68.1776 182.988 68.054 183.827 68.054C185.067 68.054 186.043 68.3161 186.755 68.8402C187.471 69.3643 187.888 70.0781 188.008 70.9815ZM196.835 72.3239V78H194.112V64.9091H196.758V69.9141H196.873C197.095 69.3345 197.453 68.8807 197.947 68.5526C198.442 68.2202 199.062 68.054 199.807 68.054C200.489 68.054 201.084 68.2031 201.591 68.5014C202.102 68.7955 202.498 69.2195 202.78 69.7734C203.065 70.3232 203.206 70.9815 203.202 71.7486V78H200.479V72.2344C200.483 71.6293 200.329 71.1584 200.018 70.8217C199.711 70.4851 199.281 70.3168 198.727 70.3168C198.356 70.3168 198.028 70.3956 197.743 70.5533C197.461 70.7109 197.24 70.9411 197.078 71.2436C196.92 71.5419 196.839 71.902 196.835 72.3239ZM209.781 78.1918C208.788 78.1918 207.929 77.9808 207.205 77.5589C206.484 77.1328 205.928 76.5405 205.536 75.782C205.144 75.0192 204.948 74.1349 204.948 73.1293C204.948 72.1151 205.144 71.2287 205.536 70.4702C205.928 69.7074 206.484 69.1151 207.205 68.6932C207.929 68.267 208.788 68.054 209.781 68.054C210.773 68.054 211.63 68.267 212.35 68.6932C213.075 69.1151 213.633 69.7074 214.025 70.4702C214.417 71.2287 214.613 72.1151 214.613 73.1293C214.613 74.1349 214.417 75.0192 214.025 75.782C213.633 76.5405 213.075 77.1328 212.35 77.5589C211.63 77.9808 210.773 78.1918 209.781 78.1918ZM209.793 76.0824C210.245 76.0824 210.622 75.9545 210.925 75.6989C211.227 75.4389 211.455 75.0852 211.609 74.6378C211.766 74.1903 211.845 73.6811 211.845 73.1101C211.845 72.5391 211.766 72.0298 211.609 71.5824C211.455 71.1349 211.227 70.7812 210.925 70.5213C210.622 70.2614 210.245 70.1314 209.793 70.1314C209.337 70.1314 208.954 70.2614 208.643 70.5213C208.336 70.7812 208.104 71.1349 207.946 71.5824C207.793 72.0298 207.716 72.5391 207.716 73.1101C207.716 73.6811 207.793 74.1903 207.946 74.6378C208.104 75.0852 208.336 75.4389 208.643 75.6989C208.954 75.9545 209.337 76.0824 209.793 76.0824ZM217.748 81.6818C217.403 81.6818 217.079 81.6541 216.777 81.5987C216.478 81.5476 216.231 81.4815 216.035 81.4006L216.649 79.3679C216.968 79.4659 217.256 79.5192 217.512 79.5277C217.772 79.5362 217.995 79.4766 218.183 79.3487C218.375 79.2209 218.53 79.0036 218.65 78.6967L218.809 78.2812L215.287 68.1818H218.151L220.184 75.392H220.286L222.338 68.1818H225.221L221.404 79.0611C221.221 79.5895 220.972 80.0497 220.657 80.4418C220.346 80.8381 219.951 81.1428 219.474 81.3558C218.997 81.5732 218.422 81.6818 217.748 81.6818ZM228.953 74.0753V73.858C228.958 73.1122 229.024 72.5178 229.152 72.0746C229.284 71.6314 229.475 71.2734 229.727 71.0007C229.978 70.728 230.281 70.4808 230.635 70.2592C230.899 70.0888 231.135 69.9119 231.344 69.7287C231.553 69.5455 231.719 69.343 231.843 69.1214C231.966 68.8956 232.028 68.6442 232.028 68.3672C232.028 68.0732 231.958 67.8153 231.817 67.5938C231.676 67.3722 231.487 67.2017 231.248 67.0824C231.014 66.9631 230.754 66.9034 230.468 66.9034C230.191 66.9034 229.929 66.9652 229.682 67.0888C229.435 67.2081 229.233 67.3871 229.075 67.6257C228.917 67.8601 228.832 68.152 228.819 68.5014H226.211C226.233 67.6491 226.437 66.946 226.825 66.392C227.213 65.8338 227.726 65.4183 228.365 65.1456C229.005 64.8686 229.71 64.7301 230.481 64.7301C231.329 64.7301 232.079 64.8707 232.731 65.152C233.383 65.429 233.895 65.8317 234.265 66.3601C234.636 66.8885 234.821 67.5256 234.821 68.2713C234.821 68.7699 234.738 69.2131 234.572 69.6009C234.41 69.9844 234.182 70.3253 233.888 70.6236C233.594 70.9176 233.247 71.1839 232.846 71.4226C232.51 71.6229 232.233 71.8317 232.015 72.049C231.802 72.2663 231.642 72.5178 231.536 72.8033C231.434 73.0888 231.38 73.4403 231.376 73.858V74.0753H228.953ZM230.219 78.1662C229.793 78.1662 229.429 78.017 229.126 77.7188C228.828 77.4162 228.681 77.054 228.685 76.6321C228.681 76.2145 228.828 75.8565 229.126 75.5582C229.429 75.2599 229.793 75.1108 230.219 75.1108C230.624 75.1108 230.98 75.2599 231.287 75.5582C231.593 75.8565 231.749 76.2145 231.753 76.6321C231.749 76.9134 231.674 77.1712 231.529 77.4055C231.389 77.6357 231.203 77.821 230.973 77.9616C230.743 78.098 230.492 78.1662 230.219 78.1662Z" fill="#212533"/>
<path d="M323.75 63C319.469 63 316 66.5 316 70.75C316 75.0312 319.469 78.5 323.75 78.5C328 78.5 331.5 75.0312 331.5 70.75C331.5 66.5 328 63 323.75 63ZM323.75 66.4375C324.469 66.4375 325.062 67.0312 325.062 67.75C325.062 68.5 324.469 69.0625 323.75 69.0625C323 69.0625 322.438 68.5 322.438 67.75C322.438 67.0312 323 66.4375 323.75 66.4375ZM325.5 74.375C325.5 74.5938 325.312 74.75 325.125 74.75H322.375C322.156 74.75 322 74.5938 322 74.375V73.625C322 73.4375 322.156 73.25 322.375 73.25H322.75V71.25H322.375C322.156 71.25 322 71.0938 322 70.875V70.125C322 69.9375 322.156 69.75 322.375 69.75H324.375C324.562 69.75 324.75 69.9375 324.75 70.125V73.25H325.125C325.312 73.25 325.5 73.4375 325.5 73.625V74.375Z" fill="#525966"/>
<rect x="8" y="99" width="56" height="56" rx="28" fill="#A0DCCE"/>
<path d="M35.9999 110.333C26.7929 110.333 19.3333 117.793 19.3333 127C19.3333 136.207 26.7929 143.667 35.9999 143.667C45.2069 143.667 52.6666 136.207 52.6666 127C52.6666 117.793 45.2069 110.333 35.9999 110.333ZM35.9999 140.441C28.5873 140.441 22.5591 134.413 22.5591 127C22.5591 119.587 28.5873 113.559 35.9999 113.559C43.4126 113.559 49.4408 119.587 49.4408 127C49.4408 134.413 43.4126 140.441 35.9999 140.441ZM41.6451 130.804C40.2472 132.484 38.1841 133.452 35.9999 133.452C33.8158 133.452 31.7526 132.491 30.3548 130.804C29.7835 130.118 28.7687 130.031 28.0833 130.595C27.3978 131.167 27.3104 132.181 27.8749 132.867C29.891 135.286 32.8548 136.671 35.9999 136.671C39.1451 136.671 42.1088 135.286 44.1249 132.867C44.6962 132.181 44.6021 131.167 43.9166 130.595C43.2311 130.031 42.2163 130.118 41.6451 130.804V130.804ZM28.5066 123.976C29.0241 123.055 29.797 122.524 30.6236 122.524C31.4502 122.524 32.223 123.055 32.7405 123.976L33.379 125.118C33.5201 125.367 33.7956 125.434 34.004 125.367C34.2459 125.293 34.4072 125.064 34.387 124.809C34.1652 121.98 32.223 120.011 30.6236 120.011C29.0241 120.011 27.0819 121.98 26.8601 124.809C26.84 125.058 27.0013 125.293 27.2432 125.367C27.4717 125.441 27.7405 125.333 27.8682 125.118L28.5066 123.976ZM41.3763 120.011C39.7768 120.011 37.8346 121.98 37.6128 124.809C37.5927 125.058 37.754 125.293 37.9959 125.367C38.2311 125.441 38.4932 125.333 38.6209 125.118L39.2593 123.976C39.7768 123.055 40.5497 122.524 41.3763 122.524C42.2029 122.524 42.9757 123.055 43.4932 123.976L44.1316 125.118C44.2728 125.367 44.5483 125.434 44.7566 125.367C44.9986 125.293 45.1599 125.064 45.1397 124.809C44.9179 121.98 42.9757 120.011 41.3763 120.011Z" fill="#383E4C"/>
<rect x="76" y="99" width="56" height="56" rx="28" fill="#A5C9E7"/>
<path d="M104 110.333C94.7929 110.333 87.3333 117.793 87.3333 127C87.3333 136.207 94.7929 143.667 104 143.667C113.207 143.667 120.667 136.207 120.667 127C120.667 117.793 113.207 110.333 104 110.333ZM104 140.441C96.5873 140.441 90.5591 134.413 90.5591 127C90.5591 119.587 96.5873 113.559 104 113.559C111.413 113.559 117.441 119.587 117.441 127C117.441 134.413 111.413 140.441 104 140.441ZM98.6236 125.925C99.8131 125.925 100.774 124.964 100.774 123.774C100.774 122.585 99.8131 121.624 98.6236 121.624C97.4341 121.624 96.473 122.585 96.473 123.774C96.473 124.964 97.4341 125.925 98.6236 125.925ZM109.376 125.925C110.566 125.925 111.527 124.964 111.527 123.774C111.527 122.585 110.566 121.624 109.376 121.624C108.187 121.624 107.226 122.585 107.226 123.774C107.226 124.964 108.187 125.925 109.376 125.925ZM109.645 130.804C108.247 132.484 106.184 133.452 104 133.452C101.816 133.452 99.7526 132.491 98.3548 130.804C97.7835 130.118 96.762 130.031 96.0833 130.595C95.3978 131.167 95.3104 132.181 95.8749 132.867C97.891 135.286 100.855 136.671 104 136.671C107.145 136.671 110.109 135.286 112.125 132.867C112.696 132.181 112.602 131.167 111.917 130.595C111.238 130.031 110.216 130.118 109.645 130.804V130.804Z" fill="#383E4C"/>
<rect x="144" y="99" width="56" height="56" rx="28" fill="#C1C1CC"/>
<path d="M172 110.333C162.793 110.333 155.333 117.793 155.333 127C155.333 136.207 162.793 143.667 172 143.667C181.207 143.667 188.667 136.207 188.667 127C188.667 117.793 181.207 110.333 172 110.333ZM172 140.441C164.587 140.441 158.559 134.413 158.559 127C158.559 119.587 164.587 113.559 172 113.559C179.413 113.559 185.441 119.587 185.441 127C185.441 134.413 179.413 140.441 172 140.441ZM166.624 125.925C167.813 125.925 168.774 124.964 168.774 123.774C168.774 122.585 167.813 121.624 166.624 121.624C165.434 121.624 164.473 122.585 164.473 123.774C164.473 124.964 165.434 125.925 166.624 125.925ZM177.376 121.624C176.187 121.624 175.226 122.585 175.226 123.774C175.226 124.964 176.187 125.925 177.376 125.925C178.566 125.925 179.527 124.964 179.527 123.774C179.527 122.585 178.566 121.624 177.376 121.624ZM177.914 131.301H166.086C165.199 131.301 164.473 132.027 164.473 132.914C164.473 133.801 165.199 134.527 166.086 134.527H177.914C178.801 134.527 179.527 133.801 179.527 132.914C179.527 132.027 178.801 131.301 177.914 131.301Z" fill="#383E4C"/>
<rect x="212" y="99" width="56" height="56" rx="28" fill="#F9D2A5"/>
<path d="M240 110.333C230.793 110.333 223.333 117.793 223.333 127C223.333 136.207 230.793 143.667 240 143.667C249.207 143.667 256.667 136.207 256.667 127C256.667 117.793 249.207 110.333 240 110.333ZM240 140.441C232.587 140.441 226.559 134.413 226.559 127C226.559 119.587 232.587 113.559 240 113.559C247.413 113.559 253.441 119.587 253.441 127C253.441 134.413 247.413 140.441 240 140.441ZM234.624 125.925C235.813 125.925 236.774 124.964 236.774 123.774C236.774 122.585 235.813 121.624 234.624 121.624C233.434 121.624 232.473 122.585 232.473 123.774C232.473 124.964 233.434 125.925 234.624 125.925ZM245.376 121.624C244.187 121.624 243.226 122.585 243.226 123.774C243.226 124.964 244.187 125.925 245.376 125.925C246.566 125.925 247.527 124.964 247.527 123.774C247.527 122.585 246.566 121.624 245.376 121.624ZM240 130.226C237.298 130.226 234.758 131.415 233.024 133.492C232.453 134.177 232.547 135.192 233.232 135.763C233.918 136.328 234.933 136.241 235.504 135.555C236.62 134.218 238.259 133.445 240 133.445C241.741 133.445 243.38 134.211 244.496 135.555C245.04 136.207 246.048 136.355 246.767 135.763C247.453 135.192 247.54 134.177 246.976 133.492C245.242 131.415 242.702 130.226 240 130.226Z" fill="#383E4C"/>
<rect x="280" y="99" width="56" height="56" rx="28" fill="#EEB0B5"/>
<path d="M321.544 127C321.544 123.408 320.117 119.963 317.577 117.423C315.037 114.883 311.592 113.456 308 113.456C304.408 113.456 300.963 114.883 298.423 117.423C295.883 119.963 294.456 123.408 294.456 127C294.456 130.592 295.883 134.037 298.423 136.577C300.963 139.117 304.408 140.544 308 140.544C311.592 140.544 315.037 139.117 317.577 136.577C320.117 134.037 321.544 130.592 321.544 127ZM291.33 127C291.33 122.579 293.086 118.339 296.213 115.213C299.339 112.086 303.579 110.33 308 110.33C312.421 110.33 316.661 112.086 319.788 115.213C322.914 118.339 324.67 122.579 324.67 127C324.67 131.421 322.914 135.661 319.788 138.788C316.661 141.914 312.421 143.67 308 143.67C303.579 143.67 299.339 141.914 296.213 138.788C293.086 135.661 291.33 131.421 291.33 127ZM310.507 136.924C310.025 136.41 309.205 135.856 308 135.856C306.795 135.856 305.975 136.41 305.493 136.924C304.907 137.556 303.917 137.588 303.286 137.002C302.654 136.416 302.621 135.426 303.207 134.795C304.139 133.792 305.747 132.73 308 132.73C310.253 132.73 311.862 133.792 312.786 134.788C313.372 135.42 313.34 136.41 312.708 136.996C312.076 137.582 311.087 137.549 310.501 136.917L310.507 136.924ZM305.089 127.736L304.607 128.218C303.071 129.755 301.098 130.77 298.955 131.129L298.793 131.155C298.226 131.252 297.686 130.868 297.594 130.295C297.503 129.722 297.881 129.188 298.454 129.097L298.617 129.071C300.329 128.784 301.912 127.97 303.142 126.746L303.624 126.264C304.028 125.861 304.692 125.861 305.096 126.264C305.5 126.668 305.5 127.332 305.096 127.736H305.089ZM310.911 127.736C310.507 127.332 310.507 126.668 310.911 126.264C311.315 125.861 311.979 125.861 312.382 126.264L312.864 126.746C314.095 127.977 315.677 128.791 317.39 129.071L317.553 129.097C318.119 129.195 318.503 129.728 318.412 130.295C318.321 130.862 317.781 131.246 317.214 131.155L317.051 131.129C314.909 130.77 312.929 129.755 311.399 128.218L310.917 127.736H310.911Z" fill="#383E4C"/>
</svg>
