<svg width="328" height="216" viewBox="0 0 328 216" fill="none" xmlns="http://www.w3.org/2000/svg">
<path d="M125.823 182.988C175.686 182.988 216.108 159.651 216.108 130.863C216.108 102.075 175.686 78.7382 125.823 78.7382C75.9601 78.7382 35.5381 102.075 35.5381 130.863C35.5381 159.651 75.9601 182.988 125.823 182.988Z" fill="#F5F5F5"/>
<path opacity="0.3" d="M189.664 167.722C165.42 181.717 130.816 186.09 100.097 180.856C96.5879 180.259 93.1412 179.535 89.7572 178.683C86.1739 177.78 82.6696 176.743 79.2706 175.558L78.387 175.25C81.583 170.403 87.129 166.733 92.1185 164.286L92.3854 164.15L92.7389 163.985L93.0585 163.838L93.7202 163.549C95.7206 162.699 99.5746 160.146 109.61 159.037H109.655L110.385 158.958C111.937 158.8 113.505 158.71 115.073 158.646L115.449 158.619C120.273 158.398 125.135 158.386 129.88 157.691C132.599 157.288 136.332 156.42 138.096 155.641C141.608 154.092 143.95 151.475 145.262 147.569C146.575 143.662 147.142 139.432 148.488 135.488C149.192 133.483 150.196 131.596 151.466 129.893L151.496 129.855C154.027 126.453 157.512 123.704 161.272 121.674C166.912 118.62 173.218 117 179.429 115.357L180.181 115.161L180.655 115.037L180.828 114.996L181.768 114.751L181.926 114.706C187.942 113.176 194.812 111.398 199.41 107.54C200.728 106.429 201.973 105.236 203.14 103.968C203.358 104.171 203.565 104.378 203.775 104.581C205.83 106.594 207.703 108.785 209.374 111.127C209.504 111.312 209.63 111.497 209.75 111.68L210.213 112.368C212.016 115.082 213.452 118.022 214.484 121.113C214.51 121.192 214.537 121.268 214.559 121.343C219.823 137.635 211.51 155.108 189.664 167.722Z" fill="#92E3A9"/>
<path opacity="0.5" d="M189.664 167.722C165.42 181.717 130.817 186.09 100.097 180.856C96.588 180.259 93.1413 179.535 89.7573 178.683C90.601 176.922 91.7135 175.304 93.0548 173.885C94.2025 172.666 95.4825 171.579 96.8712 170.644C102.62 166.779 109.964 165.124 116.773 164.496L119.187 164.271H119.262H119.345L132.734 163.03C135.148 162.808 137.585 162.582 139.916 161.902C142.896 160.999 145.608 159.372 147.808 157.168C148.197 156.789 148.566 156.39 148.913 155.972C150.401 154.166 151.433 152.027 151.921 149.738C153.651 142.594 155.204 137.3 157.734 133.194L157.761 133.145C159.396 129.938 162.37 127.378 165.769 125.513L165.912 125.43C169.002 123.756 172.351 122.612 175.82 122.046C181.084 121.226 186.389 120.053 191.563 118.895C192.913 118.594 194.12 118.305 195.21 118.023C201.52 116.38 203.802 114.996 207.013 113.232C208.009 112.687 208.919 112.161 209.765 111.642L210.228 112.33C212.031 115.044 213.468 117.985 214.499 121.076C214.525 121.155 214.552 121.23 214.574 121.305C219.823 137.635 211.51 155.108 189.664 167.722Z" fill="#92E3A9"/>
<path d="M189.664 167.722C165.42 181.717 130.816 186.09 100.097 180.856C100.18 180.728 100.27 180.604 100.36 180.48C103.064 176.795 106.692 174.295 110.738 172.629C114.431 171.181 118.314 170.271 122.266 169.929C127.068 169.444 132.114 169.516 137.009 169.388C142.465 169.249 148.142 169.012 153.155 166.613C153.379 166.51 153.597 166.394 153.809 166.267C157.486 164.124 160.047 159.123 161.351 153.761C162.389 149.516 162.904 144.643 165.521 140.996C166.715 139.292 168.046 137.688 169.499 136.199C171.427 134.187 173.735 132.579 176.29 131.468L176.824 131.243C178.716 130.453 180.634 129.726 182.577 129.062L182.652 129.039C185.532 128.059 188.452 127.221 191.413 126.524C197.865 125.02 204.471 124.182 210.833 122.332C211.901 122.023 212.969 121.677 214.025 121.301L214.127 121.264L214.473 121.132C214.499 121.211 214.525 121.286 214.548 121.362C219.823 137.635 211.51 155.108 189.664 167.722Z" fill="#92E3A9"/>
<path d="M132.858 157.597C139.096 156.792 142.168 155.359 145.176 150.174C148.402 144.617 147.011 136.966 151.53 129.837C145.958 135.962 147.18 146.121 142.213 152.096C138.006 157.145 130.215 157.544 109.614 159.048C109.614 159.048 124.763 158.646 132.858 157.597Z" fill="#FAFAFA"/>
<path d="M152.203 146.907C151.376 151.569 148.902 155.987 148.902 155.987C148.902 155.987 151.508 153.652 152.831 148.279C154.155 142.906 154.948 139.353 157.61 134.059C160.272 128.765 163.95 126.618 165.984 125.411C162.246 127.111 159.81 128.844 157.05 133.142C154.29 137.439 153.027 142.245 152.203 146.907Z" fill="#FAFAFA"/>
<path d="M202.858 103.656C199.444 107.246 194.21 111.36 181.949 114.684L181.791 114.729L180.851 114.973L180.678 115.015L180.204 115.139C180.204 115.139 189.792 113.68 196.214 110.198C199.974 108.149 202.23 106.325 203.798 104.558C203.588 104.355 203.381 104.148 203.163 103.945L202.858 103.656Z" fill="#FAFAFA"/>
<path d="M119.273 164.241C113.566 164.732 107.962 166.052 102.635 168.159C97.2809 170.287 92.6824 174.141 91.9267 174.791L91.8364 174.874C91.8665 174.84 91.8891 174.806 91.9191 174.776C95.9123 170.193 100.191 167.963 105.696 166.162C111.05 164.41 117.412 164.365 119.205 164.237L119.273 164.241Z" fill="#FAFAFA"/>
<path d="M214.593 121.331C212.337 122.459 207.355 124.512 198.425 126.069C191.232 127.321 186.54 127.949 182.686 128.998L182.61 129.021C180.62 129.539 178.691 130.27 176.858 131.201C174.254 132.599 171.799 134.26 169.533 136.157C169.533 136.157 169.533 136.157 169.514 136.157C169.646 135.995 173.97 130.803 182.93 127.633C191.082 124.753 206.302 123.787 214.089 121.241L214.191 121.204C214.311 121.166 214.424 121.125 214.54 121.083C214.544 121.181 214.57 121.256 214.593 121.331Z" fill="#FAFAFA"/>
<path d="M209.78 111.672C209.657 111.489 209.532 111.305 209.404 111.119C205.044 114.11 200.27 116.446 195.233 118.053C195.533 118.015 200.147 117.38 207.659 113.732C208.584 113.285 209.445 112.826 210.25 112.36L209.78 111.672Z" fill="#FAFAFA"/>
<path d="M93.0585 163.819L92.7389 163.966L92.3855 164.132L92.1185 164.267C89.2346 165.771 82.3124 170.602 79.2706 175.547L78.387 175.239C78.2554 175.186 78.1238 175.141 77.9922 175.096C83.087 168.647 89.3963 165.064 93.0585 163.819Z" fill="#FAFAFA"/>
<path d="M142.472 169.535C151.643 168.557 153.82 166.248 153.82 166.248C147.293 169.459 131.982 168.504 123.947 169.17C115.912 169.835 110.479 171.178 107.305 174.024C107.305 174.024 109.561 172.441 117.273 171.11C122.834 170.151 134.133 170.422 142.472 169.535Z" fill="#FAFAFA"/>
<path d="M132.836 147.847C132.309 147.847 131.546 147.155 131.215 146.787C130.433 145.922 129.64 144.971 129.388 144.662C128.959 144.741 127.508 145.019 125.974 145.414L125.598 145.516C125.205 145.646 124.799 145.73 124.387 145.768C124.294 145.778 124.201 145.763 124.116 145.723C124.032 145.683 123.96 145.621 123.91 145.542C123.789 145.324 123.872 145.008 124.188 144.493C124.853 143.414 126.263 142.613 126.959 142.237C126.283 141.879 125.584 141.564 124.868 141.293C124.545 141.18 124.116 140.985 124.116 140.635C124.116 140.459 124.237 140.218 124.778 140.045C125.318 139.914 125.873 139.853 126.429 139.861C126.658 139.861 126.88 139.861 127.087 139.891C128.062 139.947 129.026 140.133 129.952 140.444C130.929 139.725 132.073 139.267 133.276 139.112C133.543 139.086 133.783 139.075 133.994 139.075C134.535 139.075 134.832 139.158 134.96 139.346C134.994 139.398 135.014 139.457 135.02 139.519C135.025 139.58 135.015 139.642 134.99 139.699C134.816 140.006 134.568 140.264 134.268 140.451C133.826 140.77 133.424 141.139 133.069 141.553L133.396 141.669C134.398 142.011 135.369 142.438 136.299 142.944C137.051 143.38 137.378 143.745 137.288 144.091C137.175 144.516 136.502 144.602 135.96 144.602H135.28C134.434 144.602 133.325 144.625 132.813 144.636C132.911 145.035 133.103 145.85 133.295 146.948C133.33 147.071 133.34 147.2 133.321 147.326C133.303 147.453 133.258 147.574 133.189 147.682C133.146 147.734 133.092 147.775 133.031 147.804C132.97 147.833 132.903 147.847 132.836 147.847Z" fill="#E6E6E6"/>
<path d="M59.5384 158.841L47.5214 151.904C46.6228 151.385 46.6228 150.543 47.5214 150.024L154.234 88.4126C154.738 88.1567 155.296 88.0233 155.862 88.0233C156.428 88.0233 156.986 88.1567 157.49 88.4126L169.522 95.3536C170.421 95.8725 170.421 96.7147 169.522 97.2336L62.7945 158.841C62.29 159.097 61.7322 159.231 61.1664 159.231C60.6007 159.231 60.0429 159.097 59.5384 158.841Z" fill="#E6E6E6"/>
<path d="M167.296 90.616C167.296 90.616 163.378 88.4164 166.379 78.1704C170.03 65.7135 181.881 62.6416 190.067 63.371C190.067 63.371 186.28 65.4541 183.75 68.7027L175.587 71.0151L182.667 70.7481C182.045 72.4075 181.067 73.9103 179.802 75.1511C179.802 75.1511 174.982 75.7715 172.015 77.1364L178.121 77.2567C177.944 78.42 177.463 79.516 176.726 80.4339C175.448 82.1259 172.301 87.4087 167.296 90.616Z" fill="#92E3A9"/>
<path opacity="0.25" d="M167.296 90.616C167.296 90.616 163.378 88.4164 166.379 78.1704C170.03 65.7135 181.881 62.6416 190.067 63.371C190.067 63.371 186.28 65.4541 183.75 68.7027L175.587 71.0151L182.667 70.7481C182.045 72.4075 181.067 73.9103 179.802 75.1511C179.802 75.1511 174.982 75.7715 172.015 77.1364L178.121 77.2567C177.944 78.42 177.463 79.516 176.726 80.4339C175.448 82.1259 172.301 87.4087 167.296 90.616Z" fill="black"/>
<path d="M166.146 94.5376C166.146 94.5376 165.991 87.7696 172.748 82.7613C179.505 77.753 191.702 80.009 196.436 82.5808C196.436 82.5808 191.905 83.2276 185.746 87.3297L179.264 85.8257L183.265 88.9052L178.933 91.4093L172.417 89.5293L176.617 92.6877C176.617 92.6877 171.308 96.2108 166.146 94.5376Z" fill="#92E3A9"/>
<path d="M166.146 94.5376C166.146 94.5376 165.991 87.7696 172.748 82.7613C179.505 77.753 191.702 80.009 196.436 82.5808C196.436 82.5808 192.473 84.1676 185.743 88.0065L179.264 85.8332L183.265 88.9127L178.933 91.4168L172.417 89.5368L176.617 92.6952C176.617 92.6952 171.308 96.2108 166.146 94.5376Z" fill="#92E3A9"/>
<path opacity="0.1" d="M172.748 82.7613C165.98 87.7847 166.146 94.5377 166.146 94.5377C166.146 94.5377 169.101 87.1417 174.94 84.0548C180.78 80.9678 189.664 80.3286 196.436 82.5809C191.702 80.009 179.501 77.7342 172.748 82.7613Z" fill="black"/>
<path d="M109.678 124.524L110.896 125.231L163.032 93.7217C163.4 93.4813 163.707 93.1576 163.927 92.7768C164.147 92.396 164.275 91.9688 164.299 91.5297L165.138 6.58L163.927 5.88064C163.783 5.81482 163.625 5.78816 163.468 5.80334C163.311 5.81853 163.16 5.87504 163.032 5.96712L109.678 36.7728V124.524Z" fill="#92E3A9"/>
<path opacity="0.1" d="M163.927 5.88064L165.138 6.58V7.61776L110.896 37.4759L109.678 36.7728L163.032 5.96712C163.16 5.87504 163.311 5.81853 163.468 5.80334C163.625 5.78816 163.783 5.81482 163.927 5.88064Z" fill="black"/>
<path d="M110.896 125.231L164.25 94.4249C164.619 94.1847 164.926 93.861 165.146 93.4802C165.366 93.0994 165.493 92.672 165.518 92.2328V7.40346C165.518 6.59506 164.95 6.27546 164.25 6.67402L110.896 37.4759V125.231Z" fill="#92E3A9"/>
<path opacity="0.2" d="M109.678 36.7728L110.896 37.4759V125.231L109.678 124.527V36.7728Z" fill="black"/>
<path d="M109.7 123.132L58.1395 155.664L56.0715 155.754L54.857 155.051C54.5486 154.859 54.2973 154.588 54.1293 154.266C53.9613 153.944 53.8828 153.583 53.902 153.22V71.1129C53.9253 70.4684 54.106 69.8395 54.4285 69.281C54.751 68.7226 55.2054 68.2517 55.7519 67.9094L108.486 37.4534L109.7 38.1527V123.132Z" fill="#92E3A9"/>
<path opacity="0.1" d="M109.7 123.132L58.1395 155.664L56.0715 155.754L54.857 155.051C54.5486 154.859 54.2973 154.588 54.1293 154.266C53.9613 153.944 53.8828 153.583 53.902 153.22V71.1129C53.9253 70.4684 54.106 69.8395 54.4285 69.281C54.751 68.7226 55.2054 68.2517 55.7519 67.9094L108.486 37.4534L109.7 38.1527V123.132Z" fill="black"/>
<path d="M55.643 69.9849C55.3132 70.5399 55.1319 71.1706 55.1166 71.816V153.901C55.0868 154.263 55.1605 154.627 55.3292 154.95C55.4978 155.272 55.7545 155.541 56.0694 155.723C56.3843 155.906 56.7445 155.995 57.1082 155.982C57.472 155.968 57.8244 155.851 58.1246 155.645L109.689 125.874V38.164L56.9552 68.62C56.409 68.9562 55.9575 69.4259 55.643 69.9849Z" fill="#92E3A9"/>
<path d="M115.348 125.892L109.982 122.798L111.404 38.5738L162.036 9.33607C162.236 9.23408 162.457 9.18091 162.681 9.18091C162.905 9.18091 163.126 9.23408 163.326 9.33607L165.401 10.528C165.59 10.6515 165.748 10.8181 165.86 11.0142C165.973 11.2103 166.037 11.4302 166.048 11.656L166.852 94.6918C166.852 95.1363 166.735 95.5729 166.513 95.9577C166.29 96.3426 165.97 96.662 165.585 96.8839L115.348 125.892Z" fill="#37474F"/>
<path d="M115.329 125.885L115.333 40.8336L111.404 38.5551L109.982 122.798L115.329 125.885Z" fill="#263238"/>
<path d="M166.852 11.9004V94.6956C166.852 95.1401 166.735 95.5767 166.513 95.9615C166.29 96.3463 165.97 96.6658 165.585 96.8877L115.528 125.791L115.329 125.885V40.8336L166.146 11.5056C166.216 11.4644 166.296 11.4423 166.378 11.4415C166.46 11.4407 166.54 11.4613 166.612 11.5011C166.683 11.541 166.743 11.5988 166.785 11.6688C166.827 11.7388 166.85 11.8187 166.852 11.9004Z" fill="#455A64"/>
<path d="M112.393 126.874L61.4145 156.307L60.5197 156.397L57.1545 154.446C57.0248 154.355 56.9217 154.231 56.8557 154.087C56.7896 153.943 56.763 153.784 56.7785 153.626V71.5378C56.8023 71.0989 56.9291 70.6718 57.1486 70.291C57.368 69.9102 57.674 69.5863 58.0418 69.3457L109.024 39.9124L112.389 41.8639L112.393 126.874Z" fill="#37474F"/>
<path d="M112.393 41.8601L111.753 42.2361L103.459 47.0263L101.914 47.9175L61.4146 71.2972C61.0463 71.5376 60.7397 71.8613 60.5196 72.2421C60.2995 72.6229 60.172 73.0501 60.1475 73.4892V155.581C60.1475 156.386 60.719 156.709 61.4146 156.311L62.0914 155.935L112.393 126.889V41.8601Z" fill="#455A64"/>
<path opacity="0.2" d="M112.393 41.8601L111.753 42.2361L103.459 47.0263L101.914 47.9175L61.4146 71.2972C61.0463 71.5376 60.7397 71.8613 60.5196 72.2421C60.2995 72.6229 60.172 73.0501 60.1475 73.4892V155.581C60.1475 156.386 60.719 156.709 61.4146 156.311L62.0914 155.935L112.393 126.889V41.8601Z" fill="black"/>
<path d="M60.5157 72.2447L57.1317 70.2932C56.9 70.6682 56.7704 71.0972 56.7557 71.5378V153.626C56.7393 153.783 56.7656 153.942 56.8317 154.086C56.8979 154.229 57.0015 154.352 57.1317 154.442L60.5157 156.397C60.3875 156.306 60.2854 156.182 60.2195 156.039C60.1536 155.896 60.1261 155.738 60.1397 155.581V73.4892C60.1562 73.049 60.2857 72.6204 60.5157 72.2447Z" fill="#263238"/>
<path d="M113.024 42.2286L103.85 47.5264L102.41 48.3574L62.0461 71.6694C61.6777 71.9094 61.3712 72.233 61.1516 72.614C60.9321 72.9949 60.8057 73.4224 60.7827 73.8615V147.366C60.7827 148.02 60.7827 148.633 60.7827 149.212C60.8542 152.246 61.2941 154.303 62.095 155.92C62.1326 155.987 62.1626 156.051 62.1965 156.119C62.2581 156.244 62.3437 156.355 62.4484 156.446C62.6742 156.63 62.9623 156.719 63.2524 156.695C63.5425 156.671 63.8122 156.536 64.005 156.318C65.263 155.117 66.6501 154.059 68.141 153.164L68.205 153.122L113.032 127.242L113.024 42.2286Z" fill="#455A64"/>
<path d="M81.0911 99.0347C80.8843 100.813 80.403 102.114 79.6848 102.832C78.9667 103.55 78.429 103.047 78.1808 101.328C77.9703 99.8243 78.0417 97.7676 78.3538 95.1694C77.9025 95.6798 77.3295 96.0678 76.6881 96.2974C77.2013 98.4877 77.3537 100.747 77.1393 102.986L76.9137 102.765C77.1034 100.619 76.9254 98.4578 76.3873 96.3726C76.3105 96.3893 76.231 96.3893 76.1542 96.3726L76.1016 95.7184C76.7896 95.7823 77.6056 95.286 78.6809 94.2144L78.7035 94.925C78.3781 96.9133 78.3098 98.9353 78.5004 100.941C78.6884 102.287 79.0494 102.697 79.6284 102.114C80.2075 101.531 80.6587 100.351 80.8504 98.7865L81.0911 99.0347Z" fill="white"/>
<path d="M79.0945 103.242C79.0372 103.241 78.9802 103.232 78.9253 103.216C78.523 103.077 78.2485 102.464 78.0906 101.336C77.895 99.8959 77.9402 97.952 78.2334 95.429C77.8341 95.8317 77.3516 96.1423 76.8197 96.339C77.3158 98.5127 77.4618 100.752 77.2521 102.972L77.2258 103.175L76.8234 102.799V102.75C77.0086 100.645 76.8396 98.5235 76.3234 96.4743C76.265 96.4858 76.205 96.4858 76.1466 96.4743H76.0714L76 95.6246H76.1203C76.7558 95.6885 77.5266 95.2486 78.6245 94.1619L78.7862 94.0002L78.8162 94.9402C78.4886 96.9284 78.4204 98.9506 78.6132 100.956C78.7523 101.964 78.9629 102.238 79.117 102.291C79.2712 102.344 79.3915 102.257 79.5758 102.073C80.1586 101.486 80.5834 100.328 80.7677 98.8055L80.794 98.6025L81.1963 99.001V99.0499C80.9858 100.843 80.4894 102.178 79.76 102.908C79.589 103.1 79.3509 103.22 79.0945 103.242ZM78.5004 94.8838L78.4628 95.1696C78.1432 97.8242 78.0868 99.832 78.2898 101.306C78.4778 102.66 78.8087 102.964 78.9892 103.024C79.1697 103.084 79.3652 102.99 79.6134 102.746C80.3052 102.058 80.779 100.78 80.9858 99.0537L80.9406 99.0123C80.7376 100.516 80.3165 101.595 79.7186 102.197C79.4742 102.438 79.2486 102.528 79.0531 102.464C78.7448 102.359 78.538 101.881 78.4139 100.96C78.2205 98.9406 78.2888 96.9046 78.617 94.9026V94.4364C77.6243 95.3764 76.8836 95.805 76.2482 95.805L76.2858 96.2638C76.3245 96.2686 76.3636 96.2686 76.4023 96.2638L76.4963 96.2412L76.5226 96.3352C77.061 98.4203 77.2415 100.582 77.0566 102.727L77.0979 102.769C77.2791 100.608 77.1205 98.4319 76.6279 96.3202L76.6054 96.2262L76.6994 96.1998C77.3216 95.9801 77.8788 95.6078 78.3199 95.117L78.5004 94.8838Z" fill="white"/>
<path d="M85.2671 77.2011C84.8047 73.8697 85.3085 70.8881 86.6696 69.5269C86.9625 69.2578 87.2713 69.0067 87.5946 68.7749L87.9104 68.3049L88.3391 74.836C88.4406 76.3776 88.5872 76.8288 88.8767 76.5356C89.2527 76.1596 89.5911 75.0729 89.7603 73.5952L89.9747 73.8246C89.7829 75.5016 89.358 76.8326 88.888 77.3026C88.512 77.6786 88.2413 77.3289 88.1022 76.1408C87.8427 77.7237 87.4517 78.7389 86.8952 79.2954C86.1056 80.0624 85.5755 79.3969 85.2671 77.2011ZM88.0232 75.2421L87.6472 69.4029C87.3177 69.6216 87.0116 69.8736 86.7335 70.1549C85.6055 71.2829 85.1882 73.9148 85.6055 76.8288C85.8537 78.6186 86.2635 79.2052 86.8727 78.596C87.3803 78.0809 87.7751 76.9567 88.0232 75.2421Z" fill="white"/>
<path d="M86.3125 79.6938C86.2563 79.6943 86.2004 79.6854 86.1471 79.6675C85.6921 79.5134 85.3951 78.735 85.1695 77.216C84.6919 73.7869 85.2409 70.824 86.5983 69.4554C86.8897 69.1861 87.1973 68.935 87.5195 68.7034L87.9932 68.0002L88.4407 74.8284C88.5309 76.2384 88.6587 76.4903 88.7264 76.5166C88.7264 76.5166 88.7565 76.5166 88.8054 76.4602C89.1814 76.0842 89.4972 74.9938 89.6627 73.5801L89.6852 73.3658L90.08 73.7831V73.832C89.8845 75.5202 89.4559 76.8776 88.952 77.3702C88.9026 77.4373 88.8346 77.4884 88.7564 77.5171C88.6781 77.5459 88.5932 77.551 88.5121 77.5318C88.3241 77.4679 88.1887 77.216 88.0872 76.7347C87.8278 78.0131 87.4668 78.8554 86.9592 79.3667C86.793 79.554 86.5618 79.6709 86.3125 79.6938ZM85.365 77.1859C85.6094 78.9268 85.9591 79.393 86.211 79.4795C86.3802 79.5322 86.587 79.4419 86.8239 79.205C87.3653 78.6636 87.7526 77.6484 88.0007 76.103L88.1173 75.3999L88.2 76.1068C88.3203 77.0957 88.4933 77.295 88.576 77.3288C88.6587 77.3626 88.7415 77.2799 88.8091 77.2122C89.2603 76.761 89.6739 75.4413 89.8619 73.8282L89.8281 73.7869C89.6476 75.163 89.3205 76.197 88.9407 76.5768C88.9078 76.6213 88.8622 76.6549 88.8098 76.673C88.7575 76.6911 88.7009 76.693 88.6475 76.6783C88.4557 76.6069 88.3279 76.276 88.2301 74.7983L87.824 68.5605L87.6473 68.8124C87.3279 69.0445 87.0228 69.2956 86.7336 69.5644C85.4176 70.8804 84.8912 73.7906 85.3575 77.1558L85.365 77.1859ZM86.4291 78.9381C86.3842 78.9385 86.3396 78.9308 86.2975 78.9155C85.9215 78.7914 85.6695 78.1334 85.4891 76.8475C85.0642 73.8395 85.5079 71.2338 86.6509 70.0795C86.9335 69.7973 87.2448 69.5453 87.5796 69.3275L87.7263 69.2298L88.1248 75.2458C87.8729 76.9716 87.4706 78.1222 86.9291 78.6636C86.805 78.8172 86.6253 78.9158 86.4291 78.9381ZM87.5571 69.5832C87.2901 69.779 87.0387 69.9953 86.8051 70.2299C85.7222 71.3128 85.3011 73.8997 85.6996 76.8212C85.9027 78.2763 86.1771 78.6598 86.3727 78.7238C86.4855 78.7614 86.6321 78.6974 86.7975 78.532C87.3089 78.0244 87.6887 76.9152 87.9255 75.2382L87.5571 69.5832Z" fill="white"/>
<path d="M84.2671 96.2011C83.8047 92.8697 84.3085 89.8881 85.6696 88.5269C85.9625 88.2578 86.2713 88.0067 86.5946 87.7749L86.9104 87.3049L87.3391 93.836C87.4406 95.3776 87.5872 95.8288 87.8767 95.5356C88.2527 95.1596 88.5911 94.0729 88.7603 92.5952L88.9747 92.8246C88.7829 94.5016 88.358 95.8326 87.888 96.3026C87.512 96.6786 87.2413 96.3289 87.1022 95.1408C86.8427 96.7237 86.4517 97.7389 85.8952 98.2954C85.1056 99.0624 84.5755 98.3969 84.2671 96.2011ZM87.0232 94.2421L86.6472 88.4029C86.3177 88.6216 86.0116 88.8736 85.7335 89.1549C84.6055 90.2829 84.1882 92.9148 84.6055 95.8288C84.8537 97.6186 85.2635 98.2052 85.8727 97.596C86.3803 97.0809 86.7751 95.9567 87.0232 94.2421Z" fill="white"/>
<path d="M85.3125 98.6938C85.2563 98.6943 85.2004 98.6854 85.1471 98.6675C84.6921 98.5134 84.3951 97.735 84.1695 96.216C83.6919 92.7869 84.2409 89.824 85.5983 88.4554C85.8897 88.1861 86.1973 87.935 86.5195 87.7034L86.9932 87.0002L87.4407 93.8284C87.5309 95.2384 87.6587 95.4903 87.7264 95.5166C87.7264 95.5166 87.7565 95.5166 87.8054 95.4602C88.1814 95.0842 88.4972 93.9938 88.6627 92.5801L88.6852 92.3658L89.08 92.7831V92.832C88.8845 94.5202 88.4559 95.8776 87.952 96.3702C87.9026 96.4373 87.8346 96.4884 87.7564 96.5171C87.6781 96.5459 87.5932 96.551 87.5121 96.5318C87.3241 96.4679 87.1887 96.216 87.0872 95.7347C86.8278 97.0131 86.4668 97.8554 85.9592 98.3667C85.793 98.554 85.5618 98.6709 85.3125 98.6938ZM84.365 96.1859C84.6094 97.9268 84.9591 98.393 85.211 98.4795C85.3802 98.5322 85.587 98.4419 85.8239 98.205C86.3653 97.6636 86.7526 96.6484 87.0007 95.103L87.1173 94.3999L87.2 95.1068C87.3203 96.0957 87.4933 96.295 87.576 96.3288C87.6587 96.3626 87.7415 96.2799 87.8091 96.2122C88.2603 95.761 88.6739 94.4413 88.8619 92.8282L88.8281 92.7869C88.6476 94.163 88.3205 95.197 87.9407 95.5768C87.9078 95.6213 87.8622 95.6549 87.8098 95.673C87.7575 95.6911 87.7009 95.693 87.6475 95.6783C87.4557 95.6069 87.3279 95.276 87.2301 93.7983L86.824 87.5605L86.6473 87.8124C86.3279 88.0445 86.0228 88.2956 85.7336 88.5644C84.4176 89.8804 83.8912 92.7906 84.3575 96.1558L84.365 96.1859ZM85.4291 97.9381C85.3842 97.9385 85.3396 97.9308 85.2975 97.9155C84.9215 97.7914 84.6695 97.1334 84.4891 95.8475C84.0642 92.8395 84.5079 90.2338 85.6509 89.0795C85.9335 88.7973 86.2448 88.5453 86.5796 88.3275L86.7263 88.2298L87.1248 94.2458C86.8729 95.9716 86.4706 97.1222 85.9291 97.6636C85.805 97.8172 85.6253 97.9158 85.4291 97.9381ZM86.5571 88.5832C86.2901 88.779 86.0387 88.9953 85.8051 89.2299C84.7222 90.3128 84.3011 92.8997 84.6996 95.8212C84.9027 97.2763 85.1771 97.6598 85.3727 97.7238C85.4855 97.7614 85.6321 97.6974 85.7975 97.532C86.3089 97.0244 86.6887 95.9152 86.9255 94.2382L86.5571 88.5832Z" fill="white"/>
<path d="M69.094 101.406C69.0363 101.414 68.9805 101.431 68.9294 101.457C68.5264 101.653 68.3439 102.397 68.4165 103.658L68.7075 109.239L67.6539 110.002L67.7004 110.895L68.7582 110.131L69 114.5L69.5 114L69.3077 109.873L70.4689 109.053L70.4181 108.161L69.2706 108.987L69.053 104.012C68.9878 102.708 69.2062 102.476 69.301 102.414C69.3959 102.353 69.525 102.351 69.623 102.414C70.1393 102.765 70.4013 103.211 70.7759 104.622L70.8271 104.82L71.2311 104.366L71.2234 104.306C70.7593 102.6 70.4658 102.099 69.7807 101.633C69.7032 101.569 69.5099 101.478 69.4095 101.446C69.309 101.414 69.2018 101.4 69.094 101.406Z" fill="white"/>
<path d="M81.1191 90.1727C81.0866 89.9952 81.0898 89.813 81.1286 89.6367C81.1673 89.4605 81.2408 89.2937 81.3447 89.1462C81.5064 88.9845 81.6493 89.1462 81.6869 89.4696C81.7472 89.8234 81.6691 90.1869 81.4688 90.4848C81.3034 90.654 81.1605 90.496 81.1191 90.1727ZM84.0745 97.437C83.8752 99.0764 83.4767 100.445 82.9239 100.979C82.3712 101.513 81.9576 100.949 81.8298 99.0989L81.4087 92.6731L81.717 92.2294L82.1531 98.6665C82.2659 100.37 82.5291 100.641 82.9051 100.257C83.3751 99.7908 83.6872 98.5913 83.8489 97.249L84.0745 97.437Z" fill="white"/>
<path d="M82.5442 101.287C82.4993 101.288 82.4547 101.28 82.4126 101.265C82.0366 101.126 81.826 100.415 81.732 99.0878L81.3071 92.6243L81.8035 91.9212L82.2471 98.6403C82.3374 99.9864 82.5141 100.25 82.6231 100.287C82.7322 100.325 82.7773 100.235 82.8412 100.171C83.2511 99.7646 83.5932 98.6667 83.7549 97.204L83.7775 97.001L84.1835 97.3995V97.4484C83.9692 99.2006 83.5406 100.513 83.0029 101.051C82.9461 101.119 82.8762 101.175 82.7974 101.215C82.7187 101.256 82.6326 101.28 82.5442 101.287ZM81.5139 92.6807L81.9351 99.0727C82.0441 100.678 82.3111 101.017 82.4803 101.077C82.6495 101.137 82.7096 101.077 82.8563 100.908C83.3601 100.408 83.7662 99.1555 83.9843 97.471L83.9391 97.4296C83.8226 98.3433 83.5631 99.7533 82.9954 100.31C82.939 100.37 82.7585 100.547 82.563 100.475C82.3675 100.404 82.1682 100.133 82.0667 98.6554L81.6531 92.5003L81.5139 92.6807ZM81.3372 90.6579C81.3136 90.6625 81.2894 90.6625 81.2658 90.6579C81.1379 90.6127 81.0515 90.4548 81.0251 90.1991C80.9885 90.0069 80.9919 89.8091 81.0353 89.6182C81.0786 89.4274 81.161 89.2475 81.2771 89.0899C81.3083 89.0523 81.3499 89.0248 81.3967 89.0107C81.4436 88.9967 81.4935 88.9968 81.5403 89.011C81.6719 89.0561 81.7621 89.2253 81.7884 89.4735C81.852 89.8573 81.7644 90.2508 81.544 90.5714C81.4893 90.6265 81.4149 90.6576 81.3372 90.6579ZM81.4726 89.1839C81.4514 89.1883 81.4326 89.2003 81.4199 89.2178C81.2319 89.4925 81.1603 89.8304 81.2207 90.1578C81.2395 90.3533 81.2996 90.4435 81.3297 90.4548C81.3598 90.4661 81.3673 90.4548 81.3974 90.4135C81.5745 90.1371 81.6415 89.8044 81.5854 89.481C81.5666 89.2855 81.5064 89.1952 81.4726 89.1839Z" fill="white"/>
<path d="M76.9674 87.612C76.7945 89.0897 76.4072 90.323 75.8395 90.8795C75.7498 91.0018 75.616 91.0844 75.4665 91.1096C75.3169 91.1349 75.1634 91.1009 75.0386 91.0148C74.8692 91.7104 74.5352 92.3552 74.0647 92.8948C73.1774 93.7784 72.5607 93.0001 72.2487 90.7667C71.82 87.7587 72.29 84.6905 73.512 83.4685C74.4069 82.5774 75.016 83.3068 75.3206 85.5215C75.5615 87.1265 75.5234 88.7611 75.2078 90.3531C75.4108 90.4884 75.5838 90.4358 75.7906 90.2403C76.2756 89.7515 76.5689 88.7739 76.7343 87.3902L76.9674 87.612ZM75.0047 85.7997C74.7528 83.9874 74.2527 83.4384 73.5985 84.0739C72.5946 85.0552 72.2111 87.7925 72.5795 90.4659C72.8352 92.297 73.3503 92.8647 73.982 92.2556C74.9709 91.3344 75.3883 88.5445 75.0047 85.7997Z" fill="white"/>
<path d="M73.4144 93.3534C73.3492 93.3548 73.2843 93.3446 73.2227 93.3233C72.7226 93.1541 72.3729 92.3232 72.1548 90.7816C71.7112 87.642 72.2451 84.6077 73.4483 83.4045C73.7904 83.0623 74.1063 82.9382 74.3883 83.0285C74.8771 83.1901 75.2155 84.0023 75.426 85.5063C75.665 87.0996 75.632 88.7218 75.3283 90.3041C75.4298 90.3492 75.5501 90.3454 75.7268 90.1687C76.1743 89.7213 76.4788 88.8076 76.6443 87.375L76.6668 87.1757L77.0729 87.5705V87.6194C76.8924 89.1873 76.4751 90.3981 75.9261 90.947C75.8329 91.0668 75.7027 91.1523 75.5558 91.1904C75.409 91.2285 75.2536 91.2169 75.114 91.1576C74.9383 91.8272 74.6087 92.4465 74.1514 92.9661C73.9661 93.187 73.7014 93.3261 73.4144 93.3534ZM74.2003 83.2014C73.9614 83.2348 73.7439 83.357 73.5912 83.5436C72.4293 84.7092 71.918 87.6796 72.3541 90.7553C72.606 92.5488 73.0008 93.0376 73.2866 93.1353C73.4896 93.203 73.7303 93.0977 74.001 92.827C74.461 92.2994 74.7873 91.6687 74.9523 90.9884L74.9899 90.8605L75.1027 90.932C75.2094 91.0037 75.3399 91.0309 75.4663 91.0077C75.5928 90.9845 75.7052 90.9128 75.7795 90.8079C76.2871 90.2965 76.6819 89.1497 76.8624 87.6495L76.8172 87.6044C76.6368 88.9693 76.3247 89.8604 75.8697 90.3153C75.7906 90.423 75.6732 90.4962 75.5417 90.52C75.4103 90.5437 75.2747 90.5163 75.1628 90.4432L75.1027 90.4056V90.3379C75.4162 88.757 75.4531 87.1337 75.2117 85.5401C74.9673 83.7917 74.5876 83.3142 74.3093 83.224C74.2745 83.2104 74.2376 83.2027 74.2003 83.2014ZM73.5235 92.6014C73.4685 92.6019 73.4138 92.593 73.3618 92.5751C72.9482 92.4322 72.6512 91.7329 72.4782 90.4921C72.1022 87.6984 72.5384 84.9686 73.5272 83.9985C73.6112 83.8922 73.7235 83.8117 73.8513 83.7664C73.979 83.7212 74.117 83.713 74.2492 83.7429C74.6515 83.882 74.9297 84.5513 75.1027 85.7808C75.5012 88.6196 75.0613 91.3757 74.0536 92.3382C73.9196 92.4956 73.7293 92.5941 73.5235 92.6127V92.6014ZM74.0875 83.9196C73.9247 83.9388 73.7754 84.0195 73.6701 84.1452C72.7188 85.0701 72.3052 87.7285 72.6775 90.4657C72.888 91.9697 73.2377 92.3194 73.4295 92.3833C73.6212 92.4473 73.734 92.3833 73.9183 92.1953C74.8658 91.2892 75.2944 88.5406 74.9072 85.8033C74.7004 84.2993 74.3657 83.991 74.1852 83.9233C74.1532 83.9159 74.12 83.9146 74.0875 83.9196Z" fill="white"/>
<path d="M72.159 91.8282C71.8749 94.2351 71.3281 96.0739 70.6634 96.7439C69.9987 97.414 69.5591 96.6099 69.3929 94.0636L69.0498 88.7029C68.9104 86.5586 68.4708 85.7116 67.6131 86.5586C67.0074 87.1643 66.1979 88.8851 65.5868 91.4261L66.2247 100.963L65.7583 101.429L64.8845 88.4938L65.3402 87.8451L65.5064 90.3057C66.1443 87.8022 66.868 86.3227 67.6131 85.5776C68.7228 84.4679 69.3232 85.6044 69.4679 87.9256L69.8271 93.2863C70.004 95.8273 70.2453 96.0631 70.658 95.645C71.1673 95.1411 71.6122 93.5275 71.8428 91.528L72.159 91.8282Z" fill="white"/>
<path d="M77.9814 87.7196L77.9438 87.0277C78.1334 87.0641 78.3294 87.0483 78.5108 86.9821C78.6923 86.9159 78.8523 86.8017 78.974 86.6517C79.5756 86.0501 79.9065 84.9898 79.7034 83.5761C79.4327 81.7149 78.1994 81.9705 77.7332 79.3385H77.7144C77.2895 81.869 77.6242 84.3957 77.3384 86.5728L77.1128 86.3547C77.376 84.298 77.0338 81.3125 77.5678 78.6956L77.8911 78.2632C78.3122 81.6058 79.6696 80.741 80.023 83.2038C80.1206 83.8263 80.127 84.4596 80.0418 85.0838C80.6547 84.6289 81.0909 83.7265 81.2751 82.2074L81.5007 82.4293C81.2751 84.3093 80.6773 85.3583 79.8388 85.9298C79.6865 86.4339 79.4158 86.8942 79.0492 87.2721C78.9188 87.4253 78.7542 87.5455 78.5687 87.6233C78.3832 87.701 78.182 87.734 77.9814 87.7196Z" fill="white"/>
<path d="M78.113 87.8249C78.0642 87.8286 78.0151 87.8286 77.9663 87.8249H77.8874L77.8347 86.9074L77.9738 86.9525C78.148 86.9759 78.3252 86.9536 78.488 86.8876C78.6509 86.8217 78.7938 86.7145 78.9026 86.5765C79.5305 85.9449 79.7862 84.8545 79.6057 83.5686C79.5194 82.9422 79.2394 82.3584 78.8048 81.8991C78.2832 81.3122 77.9173 80.6037 77.7407 79.8386C77.6066 81.0306 77.5501 82.2301 77.5715 83.4294C77.5924 84.4817 77.5447 85.5342 77.4286 86.5803L77.4023 86.7796L77 86.3848V86.3359C77.0941 85.3764 77.1331 84.4122 77.1166 83.4482C77.0775 81.8494 77.1908 80.2504 77.455 78.673V78.6317L77.925 78L77.955 78.2444C78.1806 80.0266 78.6657 80.5831 79.1319 81.1208C79.6787 81.6786 80.0172 82.4074 80.0907 83.185C80.1716 83.7264 80.188 84.2754 80.1396 84.8206C80.651 84.313 80.9894 83.4257 81.1435 82.1886L81.1698 81.9856L81.5722 82.3842V82.433C81.3654 84.1777 80.8202 85.3395 79.8952 85.9862C79.7388 86.4932 79.4643 86.9558 79.0943 87.3361C78.8404 87.6167 78.4899 87.7912 78.113 87.8249ZM78.0791 87.6256C78.2498 87.6167 78.4168 87.5732 78.57 87.4975C78.7233 87.4219 78.8595 87.3158 78.9702 87.1857C79.3211 86.8182 79.5789 86.3721 79.7222 85.8847V85.8509H79.7523C80.6322 85.2493 81.1586 84.1438 81.3654 82.4669L81.3202 82.4218C81.1247 83.7829 80.7149 84.6778 80.0719 85.1666L79.8726 85.3094L79.9102 85.0688C80.0002 84.4592 80.0002 83.8397 79.9102 83.2302C79.8419 82.4918 79.5205 81.7997 79.0003 81.2712C78.5566 80.7598 78.0566 80.1846 77.8084 78.5339L77.6467 78.752C77.3897 80.3112 77.2801 81.8911 77.3196 83.4708C77.332 84.426 77.2931 85.3811 77.203 86.3322L77.2482 86.3735C77.3418 85.4014 77.3807 84.4247 77.3647 83.4482C77.3316 82.0739 77.4133 80.6992 77.6091 79.3386V79.3047L77.767 79.1468L77.8197 79.3198C77.9429 80.2367 78.3355 81.0964 78.9477 81.7901C79.4064 82.278 79.701 82.8973 79.7899 83.561C79.9854 84.8958 79.7072 86.0502 79.0379 86.7232C78.917 86.8665 78.7653 86.9805 78.594 87.0567C78.4227 87.1329 78.2364 87.1692 78.049 87.1631L78.0791 87.6256Z" fill="white"/>
<path d="M81.9814 82.7198L81.9438 82.028C82.1334 82.0643 82.3294 82.0486 82.5108 81.9824C82.6923 81.9161 82.8523 81.802 82.974 81.652C83.5756 81.0504 83.9065 79.9901 83.7034 78.5763C83.4327 76.7151 82.1994 76.9708 81.7332 74.3388H81.7144C81.2895 76.8693 81.6242 79.396 81.3384 81.573L81.1128 81.3549C81.376 79.2982 81.0338 76.3128 81.5678 73.6958L81.8911 73.2634C82.3122 76.6061 83.6696 75.7413 84.023 78.2041C84.1206 78.8265 84.127 79.4598 84.0418 80.0841C84.6547 79.6291 85.0909 78.7267 85.2751 77.2077L85.5007 77.4295C85.2751 79.3095 84.6773 80.3586 83.8388 80.9301C83.6865 81.4341 83.4158 81.8944 83.0492 82.2724C82.9188 82.4255 82.7542 82.5458 82.5687 82.6235C82.3832 82.7012 82.182 82.7342 81.9814 82.7198Z" fill="white"/>
<path d="M82.113 82.8251C82.0642 82.8288 82.0151 82.8288 81.9663 82.8251H81.8874L81.8347 81.9077L81.9738 81.9528C82.148 81.9762 82.3252 81.9538 82.488 81.8879C82.6509 81.8219 82.7938 81.7147 82.9026 81.5768C83.5305 80.9451 83.7862 79.8547 83.6057 78.5688C83.5194 77.9424 83.2394 77.3587 82.8048 76.8994C82.2832 76.3125 81.9173 75.604 81.7407 74.8389C81.6066 76.0309 81.5501 77.2303 81.5715 78.4297C81.5924 79.482 81.5447 80.5345 81.4286 81.5806L81.4023 81.7798L81 81.385V81.3362C81.0941 80.3766 81.1331 79.4125 81.1166 78.4485C81.0775 76.8496 81.1908 75.2507 81.455 73.6733V73.6319L81.925 73.0002L81.955 73.2446C82.1806 75.0269 82.6657 75.5834 83.1319 76.121C83.6787 76.6788 84.0172 77.4076 84.0907 78.1853C84.1716 78.7266 84.188 79.2757 84.1396 79.8209C84.651 79.3133 84.9894 78.4259 85.1435 77.1889L85.1698 76.9858L85.5722 77.3844V77.4333C85.3654 79.1779 84.8202 80.3398 83.8952 80.9865C83.7388 81.4934 83.4643 81.956 83.0943 82.3363C82.8404 82.6169 82.4899 82.7915 82.113 82.8251ZM82.0791 82.6258C82.2498 82.617 82.4168 82.5734 82.57 82.4978C82.7233 82.4221 82.8595 82.316 82.9702 82.1859C83.3211 81.8185 83.5789 81.3724 83.7222 80.885V80.8511H83.7523C84.6322 80.2495 85.1586 79.1441 85.3654 77.4671L85.3202 77.422C85.1247 78.7831 84.7149 79.678 84.0719 80.1668L83.8726 80.3097L83.9102 80.069C84.0002 79.4595 84.0002 78.84 83.9102 78.2304C83.8419 77.492 83.5205 76.7999 83.0003 76.2714C82.5566 75.7601 82.0566 75.1848 81.8084 73.5342L81.6467 73.7522C81.3897 75.3114 81.2801 76.8913 81.3196 78.471C81.332 79.4262 81.2931 80.3814 81.203 81.3324L81.2482 81.3738C81.3418 80.4016 81.3807 79.425 81.3647 78.4485C81.3316 77.0742 81.4133 75.6995 81.6091 74.3388V74.305L81.767 74.147L81.8197 74.32C81.9429 75.2369 82.3355 76.0967 82.9477 76.7903C83.4064 77.2782 83.701 77.8975 83.7899 78.5613C83.9854 79.8961 83.7072 81.0504 83.0379 81.7234C82.917 81.8667 82.7653 81.9807 82.594 82.0569C82.4227 82.1331 82.2364 82.1695 82.049 82.1634L82.0791 82.6258Z" fill="white"/>
<path d="M90.9814 74.7198L90.9438 74.028C91.1334 74.0643 91.3294 74.0486 91.5108 73.9824C91.6923 73.9161 91.8523 73.802 91.974 73.652C92.5756 73.0504 92.9065 71.9901 92.7034 70.5763C92.4327 68.7151 91.1994 68.9708 90.7332 66.3388H90.7144C90.2895 68.8693 90.6242 71.396 90.3384 73.573L90.1128 73.3549C90.376 71.2982 90.0338 68.3128 90.5678 65.6958L90.8911 65.2634C91.3122 68.6061 92.6696 67.7413 93.023 70.2041C93.1206 70.8265 93.127 71.4598 93.0418 72.0841C93.6547 71.6291 94.0909 70.7267 94.2751 69.2077L94.5007 69.4295C94.2751 71.3095 93.6773 72.3586 92.8388 72.9301C92.6865 73.4341 92.4158 73.8944 92.0492 74.2724C91.9188 74.4255 91.7542 74.5458 91.5687 74.6235C91.3832 74.7012 91.182 74.7342 90.9814 74.7198Z" fill="white"/>
<path d="M91.113 74.8251C91.0642 74.8288 91.0151 74.8288 90.9663 74.8251H90.8874L90.8347 73.9077L90.9738 73.9528C91.148 73.9762 91.3252 73.9538 91.488 73.8879C91.6509 73.8219 91.7938 73.7147 91.9026 73.5768C92.5305 72.9451 92.7862 71.8547 92.6057 70.5688C92.5194 69.9424 92.2394 69.3587 91.8048 68.8994C91.2832 68.3125 90.9173 67.604 90.7407 66.8389C90.6066 68.0309 90.5501 69.2303 90.5715 70.4297C90.5924 71.482 90.5447 72.5345 90.4286 73.5806L90.4023 73.7798L90 73.385V73.3362C90.0941 72.3766 90.1331 71.4125 90.1166 70.4485C90.0775 68.8496 90.1908 67.2507 90.455 65.6733V65.6319L90.925 65.0002L90.955 65.2446C91.1806 67.0269 91.6657 67.5834 92.1319 68.121C92.6787 68.6788 93.0172 69.4076 93.0907 70.1853C93.1716 70.7266 93.188 71.2757 93.1396 71.8209C93.651 71.3133 93.9894 70.4259 94.1435 69.1889L94.1698 68.9858L94.5722 69.3844V69.4333C94.3654 71.1779 93.8202 72.3398 92.8952 72.9865C92.7388 73.4934 92.4643 73.956 92.0943 74.3363C91.8404 74.6169 91.4899 74.7915 91.113 74.8251ZM91.0791 74.6258C91.2498 74.617 91.4168 74.5734 91.57 74.4978C91.7233 74.4221 91.8595 74.316 91.9702 74.1859C92.3211 73.8185 92.5789 73.3724 92.7222 72.885V72.8511H92.7523C93.6322 72.2495 94.1586 71.1441 94.3654 69.4671L94.3202 69.422C94.1247 70.7831 93.7149 71.678 93.0719 72.1668L92.8726 72.3097L92.9102 72.069C93.0002 71.4595 93.0002 70.84 92.9102 70.2304C92.8419 69.492 92.5205 68.7999 92.0003 68.2714C91.5566 67.7601 91.0566 67.1848 90.8084 65.5342L90.6467 65.7522C90.3897 67.3114 90.2801 68.8913 90.3196 70.471C90.332 71.4262 90.2931 72.3814 90.203 73.3324L90.2482 73.3738C90.3418 72.4016 90.3807 71.425 90.3647 70.4485C90.3316 69.0742 90.4133 67.6995 90.6091 66.3388V66.305L90.767 66.147L90.8197 66.32C90.9429 67.2369 91.3355 68.0967 91.9477 68.7903C92.4064 69.2782 92.701 69.8975 92.7899 70.5613C92.9854 71.8961 92.7072 73.0504 92.0379 73.7234C91.917 73.8667 91.7653 73.9807 91.594 74.0569C91.4227 74.1331 91.2364 74.1695 91.049 74.1634L91.0791 74.6258Z" fill="white"/>
<path d="M89.9814 93.7198L89.9438 93.028C90.1334 93.0643 90.3294 93.0486 90.5108 92.9824C90.6923 92.9161 90.8523 92.802 90.974 92.652C91.5756 92.0504 91.9065 90.9901 91.7034 89.5763C91.4327 87.7151 90.1994 87.9708 89.7332 85.3388H89.7144C89.2895 87.8693 89.6242 90.396 89.3384 92.573L89.1128 92.3549C89.376 90.2982 89.0338 87.3128 89.5678 84.6958L89.8911 84.2634C90.3122 87.6061 91.6696 86.7413 92.023 89.2041C92.1206 89.8265 92.127 90.4598 92.0418 91.0841C92.6547 90.6291 93.0909 89.7267 93.2751 88.2077L93.5007 88.4295C93.2751 90.3095 92.6773 91.3586 91.8388 91.9301C91.6865 92.4341 91.4158 92.8944 91.0492 93.2724C90.9188 93.4255 90.7542 93.5458 90.5687 93.6235C90.3832 93.7012 90.182 93.7342 89.9814 93.7198Z" fill="white"/>
<path d="M90.113 93.8251C90.0642 93.8288 90.0151 93.8288 89.9663 93.8251H89.8874L89.8347 92.9077L89.9738 92.9528C90.148 92.9762 90.3252 92.9538 90.488 92.8879C90.6509 92.8219 90.7938 92.7147 90.9026 92.5768C91.5305 91.9451 91.7862 90.8547 91.6057 89.5688C91.5194 88.9424 91.2394 88.3587 90.8048 87.8994C90.2832 87.3125 89.9173 86.604 89.7407 85.8389C89.6066 87.0309 89.5501 88.2303 89.5715 89.4297C89.5924 90.482 89.5447 91.5345 89.4286 92.5806L89.4023 92.7798L89 92.385V92.3362C89.0941 91.3766 89.1331 90.4125 89.1166 89.4485C89.0775 87.8496 89.1908 86.2507 89.455 84.6733V84.6319L89.925 84.0002L89.955 84.2446C90.1806 86.0269 90.6657 86.5834 91.1319 87.121C91.6787 87.6788 92.0172 88.4076 92.0907 89.1853C92.1716 89.7266 92.188 90.2757 92.1396 90.8209C92.651 90.3133 92.9894 89.4259 93.1435 88.1889L93.1698 87.9858L93.5722 88.3844V88.4333C93.3654 90.1779 92.8202 91.3398 91.8952 91.9865C91.7388 92.4934 91.4643 92.956 91.0943 93.3363C90.8404 93.6169 90.4899 93.7915 90.113 93.8251ZM90.0791 93.6258C90.2498 93.617 90.4168 93.5734 90.57 93.4978C90.7233 93.4221 90.8595 93.316 90.9702 93.1859C91.3211 92.8185 91.5789 92.3724 91.7222 91.885V91.8511H91.7523C92.6322 91.2495 93.1586 90.1441 93.3654 88.4671L93.3202 88.422C93.1247 89.7831 92.7149 90.678 92.0719 91.1668L91.8726 91.3097L91.9102 91.069C92.0002 90.4595 92.0002 89.84 91.9102 89.2304C91.8419 88.492 91.5205 87.7999 91.0003 87.2714C90.5566 86.7601 90.0566 86.1848 89.8084 84.5342L89.6467 84.7522C89.3897 86.3114 89.2801 87.8913 89.3196 89.471C89.332 90.4262 89.2931 91.3814 89.203 92.3324L89.2482 92.3738C89.3418 91.4016 89.3807 90.425 89.3647 89.4485C89.3316 88.0742 89.4133 86.6995 89.6091 85.3388V85.305L89.767 85.147L89.8197 85.32C89.9429 86.2369 90.3355 87.0967 90.9477 87.7903C91.4064 88.2782 91.701 88.8975 91.7899 89.5613C91.9854 90.8961 91.7072 92.0504 91.0379 92.7234C90.917 92.8667 90.7653 92.9807 90.594 93.0569C90.4227 93.1331 90.2364 93.1695 90.049 93.1634L90.0791 93.6258Z" fill="white"/>
<path d="M76 103.379C75.7778 104.492 74.6667 108.386 73.3333 107.969C72.4187 107.683 72 106.537 72 104.451C72 103.567 72.2179 102.147 72.4559 101.559C72.6029 101.196 72.9042 100.772 73.0749 100.546C73.1566 100.438 73.2523 100.341 73.3671 100.269C73.6787 100.074 74.3567 99.754 74.8 100.316C75.6 101.33 74.7998 103.169 74.4 103.865C74.0242 104.519 73.6 104.879 72.8 105.386" stroke="white" stroke-width="0.6"/>
<path d="M73.5 99H73L74 96.5H75L73.5 99Z" fill="white"/>
<path d="M117.405 51.0458C117.289 51.0726 117.178 51.1183 117.077 51.1811C116.907 51.2807 116.755 51.4077 116.626 51.5571C116.162 52.0302 115.886 52.6554 115.848 53.3168C115.848 54.0989 116.408 54.4185 117.085 54.0312C117.215 53.956 117.335 53.8651 117.442 53.7605C117.84 53.391 118.122 52.9143 118.254 52.3881C118.3 52.2278 118.324 52.0622 118.326 51.8955C118.318 51.2375 117.931 50.9029 117.405 51.0458Z" fill="#37474F"/>
<path d="M117.405 59.6336C117.292 59.6655 117.183 59.7109 117.081 59.769C116.908 59.8708 116.751 59.9975 116.615 60.145C116.163 60.625 115.897 61.25 115.863 61.9084C115.863 62.6942 116.423 63.0364 117.104 62.6266C117.24 62.5496 117.366 62.4562 117.48 62.3483C117.88 61.9801 118.161 61.501 118.288 60.9722C118.334 60.8146 118.357 60.6512 118.356 60.4871C118.322 59.8254 117.931 59.4907 117.405 59.6336Z" fill="#37474F"/>
<path d="M117.401 76.8168C117.288 76.8468 117.181 76.8924 117.081 76.9522C116.91 77.0553 116.755 77.1819 116.619 77.3282C116.153 77.8021 115.878 78.4314 115.848 79.0954C115.848 79.8774 116.401 80.197 117.085 79.8098C117.22 79.7326 117.346 79.6406 117.461 79.5353C117.855 79.1609 118.136 78.6824 118.269 78.1554C118.313 77.9974 118.334 77.8342 118.333 77.6703C118.318 77.0048 117.931 76.6739 117.401 76.8168Z" fill="#37474F"/>
<path d="M117.401 85.4084C117.288 85.4403 117.179 85.4857 117.077 85.5438C116.909 85.6467 116.755 85.7733 116.622 85.9198C116.163 86.3968 115.888 87.022 115.848 87.6832C115.848 88.4691 116.408 88.7887 117.092 88.4014C117.22 88.3259 117.338 88.2363 117.446 88.1344C117.842 87.7593 118.124 87.2795 118.258 86.7507C118.301 86.5926 118.322 86.4295 118.322 86.2657C118.318 85.6002 117.931 85.2693 117.401 85.4084Z" fill="#37474F"/>
<path d="M117.397 102.592C117.285 102.623 117.178 102.669 117.078 102.727C116.908 102.828 116.754 102.955 116.623 103.103C116.156 103.577 115.879 104.206 115.844 104.87C115.844 105.652 116.401 105.976 117.081 105.585C117.217 105.509 117.344 105.417 117.457 105.31C117.856 104.939 118.137 104.459 118.266 103.93C118.309 103.773 118.33 103.611 118.33 103.449C118.318 102.783 117.927 102.449 117.397 102.592Z" fill="#37474F"/>
<path d="M117.401 111.179C117.288 111.211 117.181 111.258 117.081 111.319C116.91 111.422 116.755 111.548 116.619 111.695C116.158 112.172 115.884 112.799 115.848 113.462C115.848 114.248 116.404 114.567 117.085 114.176C117.213 114.102 117.332 114.012 117.438 113.909C117.839 113.541 118.122 113.064 118.254 112.537C118.297 112.38 118.319 112.218 118.318 112.056C118.322 111.375 117.931 111.037 117.401 111.179Z" fill="#37474F"/>
<path d="M110.449 57.8702C109.764 58.2462 109.212 57.9378 109.208 57.1558C109.23 56.7271 109.353 56.3098 109.567 55.9379C109.782 55.5661 110.081 55.2503 110.441 55.0163C111.125 54.6403 111.682 54.9411 111.682 55.7345C111.659 56.1625 111.536 56.5791 111.321 56.9502C111.107 57.3214 110.808 57.6366 110.449 57.8702Z" fill="#37474F"/>
<path d="M117.405 51.0458C117.289 51.0726 117.178 51.1183 117.078 51.1811C116.907 51.2807 116.755 51.4077 116.626 51.5571C117.142 52.0067 117.458 52.6421 117.506 53.3243C117.506 53.4745 117.484 53.6238 117.442 53.768C117.405 53.9241 117.344 54.0737 117.262 54.2117C116.977 54.6657 116.578 55.0366 116.104 55.2871C114.927 55.9676 113.299 56.2496 111.637 56.1519C110.961 56.1188 110.289 56.0193 109.633 55.8548C109.601 55.8958 109.573 55.9399 109.55 55.9864C109.501 56.0702 109.457 56.1568 109.419 56.2459C109.388 56.3248 109.355 56.4038 109.332 56.479C109.33 56.4902 109.33 56.5016 109.332 56.5128C109.316 56.5531 109.303 56.5946 109.294 56.6369C109.294 56.6369 109.294 56.6369 109.294 56.6369C109.294 56.6369 109.294 56.667 109.294 56.682C109.952 56.8528 110.624 56.9635 111.302 57.0129C113.25 57.1821 115.201 56.87 116.589 56.0729C117.785 55.3735 118.45 54.3959 118.469 53.3093C118.465 52.9921 118.407 52.6778 118.296 52.3806C118.095 51.8784 117.792 51.4237 117.405 51.0458Z" fill="#EBEBEB"/>
<path d="M110.449 66.4618C109.764 66.8378 109.212 66.5332 109.208 65.7474C109.23 65.3187 109.353 64.9014 109.567 64.5295C109.782 64.1577 110.081 63.8419 110.441 63.6079C111.125 63.2319 111.682 63.5327 111.682 64.3261C111.659 64.7541 111.536 65.1707 111.321 65.5418C111.107 65.913 110.808 66.2282 110.449 66.4618Z" fill="#37474F"/>
<path d="M117.405 59.6336C117.292 59.6655 117.183 59.7109 117.081 59.769C116.908 59.8708 116.751 59.9975 116.615 60.145C116.874 60.3646 117.086 60.6343 117.239 60.938C117.391 61.2417 117.481 61.573 117.502 61.9122C117.505 62.0598 117.485 62.207 117.442 62.3483C117.406 62.5062 117.345 62.6573 117.262 62.7958C116.976 63.25 116.577 63.6219 116.104 63.8749C114.723 64.5744 113.175 64.8739 111.633 64.7397C110.958 64.7025 110.288 64.6018 109.633 64.4389C109.572 64.5291 109.52 64.6231 109.471 64.7134L109.441 64.7698C109.441 64.7698 109.441 64.7698 109.441 64.7923C109.418 64.8325 109.4 64.8755 109.388 64.9202C109.342 65.0427 109.304 65.1684 109.275 65.2962C109.931 65.4654 110.601 65.5786 111.276 65.6346C113.227 65.7962 115.175 65.4842 116.566 64.6833C117.765 63.9877 118.446 63.0138 118.446 61.9234C118.441 61.6042 118.384 61.288 118.277 60.9872C118.086 60.479 117.788 60.0176 117.405 59.6336Z" fill="#EBEBEB"/>
<path d="M110.445 83.645C109.764 84.021 109.208 83.7127 109.208 82.9268C109.23 82.4987 109.353 82.0819 109.567 81.7106C109.782 81.3394 110.081 81.0243 110.441 80.7911C111.125 80.3963 111.682 80.7159 111.682 81.5055C111.659 81.9345 111.536 82.3521 111.32 82.724C111.105 83.0958 110.805 83.4115 110.445 83.645Z" fill="#37474F"/>
<path d="M117.401 76.8168C117.289 76.8468 117.181 76.8924 117.081 76.9521C116.91 77.0553 116.755 77.1818 116.619 77.3281C116.878 77.5478 117.09 77.8175 117.243 78.1212C117.395 78.4248 117.485 78.7562 117.506 79.0953C117.503 79.2438 117.483 79.3914 117.446 79.5352C117.406 79.6912 117.344 79.8406 117.262 79.9789C116.975 80.4324 116.576 80.8041 116.104 81.058C114.722 81.7582 113.172 82.0578 111.629 81.9228C110.954 81.8851 110.285 81.7832 109.629 81.6183L109.546 81.7499C109.496 81.8345 109.453 81.9224 109.415 82.0131C109.374 82.1005 109.34 82.191 109.313 82.2838L109.268 82.4643C109.925 82.6336 110.596 82.7468 111.272 82.8027C113.22 82.9644 115.171 82.6523 116.562 81.8514C117.762 81.1558 118.42 80.1782 118.424 79.0916C118.421 78.7721 118.364 78.4555 118.254 78.1553C118.067 77.6544 117.776 77.1984 117.401 76.8168Z" fill="#EBEBEB"/>
<path d="M110.445 92.2365C109.764 92.6125 109.208 92.3042 109.204 91.5184C109.228 91.0903 109.353 90.6738 109.567 90.3027C109.782 89.9317 110.082 89.6165 110.441 89.3827C111.125 88.9879 111.682 89.3075 111.682 90.0971C111.66 90.5262 111.536 90.9438 111.321 91.3157C111.106 91.6877 110.806 92.0033 110.445 92.2365Z" fill="#37474F"/>
<path d="M117.401 85.4084C117.288 85.4402 117.179 85.4857 117.078 85.5437C116.909 85.6466 116.755 85.7733 116.623 85.9197C117.141 86.3692 117.46 87.0062 117.51 87.6907C117.506 87.8433 117.483 87.9949 117.442 88.1419C117.402 88.2936 117.341 88.439 117.262 88.5743C116.976 89.0279 116.578 89.4007 116.107 89.6572C114.726 90.3561 113.175 90.6532 111.633 90.5145C110.957 90.4801 110.286 90.3806 109.629 90.2174C109.603 90.2663 109.576 90.3039 109.546 90.349C109.5 90.4316 109.458 90.517 109.422 90.6047C109.38 90.7036 109.345 90.8054 109.317 90.9093C109.317 90.9544 109.291 91.0033 109.279 91.0522C109.934 91.2202 110.602 91.3321 111.276 91.3868C113.227 91.5447 115.182 91.2326 116.57 90.4393C117.773 89.7437 118.45 88.7623 118.45 87.6794C118.448 87.3603 118.392 87.0438 118.284 86.7432C118.087 86.2411 117.786 85.7863 117.401 85.4084Z" fill="#EBEBEB"/>
<path d="M110.445 109.416C109.764 109.792 109.208 109.484 109.204 108.698C109.227 108.269 109.351 107.852 109.566 107.481C109.781 107.11 110.081 106.795 110.441 106.562C111.125 106.167 111.678 106.487 111.678 107.277C111.656 107.705 111.532 108.122 111.318 108.494C111.103 108.866 110.804 109.182 110.445 109.416Z" fill="#37474F"/>
<path d="M117.397 102.592C117.285 102.623 117.178 102.669 117.078 102.727C116.908 102.828 116.754 102.955 116.623 103.103C116.879 103.324 117.09 103.593 117.241 103.896C117.393 104.199 117.483 104.529 117.506 104.866C117.505 105.017 117.484 105.166 117.442 105.31C117.405 105.467 117.343 105.617 117.258 105.754C116.971 106.207 116.572 106.579 116.1 106.833C114.721 107.532 113.173 107.83 111.633 107.694C110.957 107.655 110.287 107.556 109.629 107.397C109.571 107.485 109.519 107.577 109.471 107.671L109.437 107.728C109.436 107.735 109.436 107.743 109.437 107.75C109.416 107.791 109.398 107.834 109.385 107.878L109.324 108.059C109.306 108.115 109.291 108.173 109.279 108.232C109.937 108.398 110.607 108.51 111.283 108.566C113.235 108.724 115.182 108.412 116.574 107.615C117.773 106.919 118.454 105.938 118.431 104.859C118.432 104.538 118.376 104.22 118.266 103.919C118.075 103.419 117.779 102.966 117.397 102.592Z" fill="#EBEBEB"/>
<path d="M110.449 118.008C109.764 118.384 109.212 118.079 109.208 117.293C109.23 116.865 109.354 116.447 109.568 116.076C109.782 115.704 110.081 115.388 110.441 115.154C111.125 114.759 111.682 115.082 111.682 115.872C111.66 116.3 111.537 116.717 111.322 117.088C111.108 117.459 110.808 117.774 110.449 118.008Z" fill="#37474F"/>
<path d="M117.401 111.179C117.288 111.211 117.181 111.258 117.081 111.319C116.91 111.422 116.755 111.548 116.619 111.695C116.878 111.914 117.09 112.184 117.242 112.488C117.395 112.792 117.484 113.123 117.506 113.462C117.506 113.611 117.484 113.759 117.442 113.902C117.407 114.057 117.347 114.205 117.265 114.342C116.977 114.793 116.578 115.164 116.107 115.421C114.725 116.123 113.173 116.421 111.629 116.282C110.957 116.247 110.29 116.147 109.636 115.985C109.605 116.026 109.577 116.07 109.554 116.116C109.505 116.2 109.461 116.287 109.422 116.376C109.382 116.464 109.348 116.554 109.321 116.646C109.321 116.707 109.287 116.767 109.272 116.827C109.929 116.996 110.599 117.107 111.276 117.158C113.227 117.32 115.179 117.011 116.562 116.214C117.762 115.515 118.442 114.541 118.442 113.454C118.446 113.136 118.392 112.82 118.281 112.522C118.084 112.018 117.784 111.561 117.401 111.179Z" fill="#EBEBEB"/>
<path d="M122.853 43.3867L162.897 20.2664V79.227L122.857 102.343L122.853 43.3867Z" fill="#F5F5F5"/>
<path d="M162.897 20.2664L161.228 19.3038L121.187 42.4241L122.853 43.3866L162.897 20.2664Z" fill="#FAFAFA"/>
<path d="M121.187 42.4241V101.381L122.857 102.343L122.853 43.3866L121.187 42.4241Z" fill="#E6E6E6"/>
<path d="M124.522 44.3492L161.228 23.1578V78.2606L124.522 99.452V44.3492Z" fill="#92E3A9"/>
<path opacity="0.8" d="M124.522 44.3492L161.228 23.1578V78.2606L124.522 99.452V44.3492Z" fill="white"/>
<path d="M124.522 84.0397L161.228 62.8484V78.2606L124.522 99.452V84.0397Z" fill="#FFBDA7"/>
<path opacity="0.5" d="M124.522 87.8938C125.077 87.1867 125.807 86.6371 126.639 86.2995C127.688 85.9047 128.895 85.8934 129.832 85.2317C130.293 84.8565 130.715 84.4357 131.091 83.9758C132.87 82.0958 135.468 81.325 137.957 80.6595C139.19 80.3286 140.45 79.9978 141.518 79.2984C143.774 77.8282 144.902 74.8879 147.425 73.9592C148.733 73.4742 150.2 73.6321 151.534 73.2335C153.501 72.647 154.888 71.0001 156.321 69.6352C157.016 68.9268 157.807 68.3193 158.671 67.8304C158.878 67.7214 161.228 67.007 161.228 67.2213V53.2153L124.522 74.4066V87.8938Z" fill="#92E3A9"/>
<path opacity="0.3" d="M124.522 89.5294C125.077 88.8213 125.806 88.2704 126.639 87.9314C127.688 87.5366 128.895 87.5253 129.832 86.8673C130.291 86.4901 130.713 86.0696 131.091 85.6114C132.87 83.7314 135.468 82.9606 137.957 82.2914C139.19 81.9605 140.45 81.6296 141.518 80.9302C143.774 79.4601 144.902 76.5198 147.425 75.591C148.733 75.1098 150.2 75.2677 151.534 74.8691C153.501 74.2788 154.888 72.6357 156.321 71.2708C157.014 70.5593 157.805 69.9503 158.671 69.4622C159.461 69.0559 160.339 68.8469 161.228 68.8531V53.2153L124.522 74.4066V89.5294Z" fill="#92E3A9"/>
<path opacity="0.4" d="M124.522 87.8938C125.077 87.1867 125.807 86.6371 126.639 86.2995C127.688 85.9047 128.895 85.8934 129.832 85.2317C130.293 84.8565 130.715 84.4357 131.091 83.9758C132.87 82.0958 135.468 81.325 137.957 80.6595C139.19 80.3286 140.45 79.9978 141.518 79.2984C143.774 77.8282 144.902 74.8879 147.425 73.9592C148.733 73.4742 150.2 73.6321 151.534 73.2335C153.501 72.647 154.888 71.0001 156.321 69.6352C157.016 68.9268 157.807 68.3193 158.671 67.8304C158.878 67.7214 161.228 67.007 161.228 67.2213V53.2153L124.522 74.4066V87.8938Z" fill="#92E3A9"/>
<path d="M124.522 85.9686C125.077 85.2606 125.806 84.7097 126.639 84.3706C127.688 83.9946 128.895 83.9646 129.832 83.3066C130.291 82.9294 130.713 82.5088 131.091 82.0507C132.87 80.1707 135.468 79.3999 137.957 78.7306C139.19 78.3998 140.45 78.0689 141.518 77.3695C143.774 75.8994 144.902 72.959 147.425 72.0303C148.733 71.549 150.2 71.707 151.534 71.3084C153.501 70.7181 154.888 69.075 156.321 67.7101C157.016 67.0017 157.807 66.3942 158.671 65.9053C159.461 65.4973 160.338 65.287 161.228 65.2924V53.2153L124.522 74.4066V85.9686Z" fill="#92E3A9"/>
<path opacity="0.03" d="M124.522 74.4066V80.1895L161.228 58.9982V53.2153L124.522 74.4066Z" fill="black"/>
<path opacity="0.03" d="M124.522 74.4066V78.2606L161.228 57.0693V53.2153L124.522 74.4066Z" fill="black"/>
<path d="M133.366 80.37C134.275 79.8437 135.244 79.4308 136.254 79.1405C137.517 78.7983 139.773 78.3659 141.142 77.5575C142.053 76.9776 142.874 76.2669 143.578 75.4482C142.945 76.3783 142.106 77.1503 141.127 77.7042C139.656 78.4562 138.228 78.7871 136.547 79.2082C135.446 79.4752 134.379 79.8649 133.366 80.37Z" fill="white"/>
<path d="M146.894 72.2672C147.395 71.9673 147.949 71.7669 148.526 71.6769C149.558 71.5957 150.582 71.4373 151.591 71.2031C152.659 70.7996 153.648 70.2102 154.512 69.4622C153.739 70.3371 152.744 70.9867 151.632 71.3422C150.595 71.574 149.544 71.7323 148.485 71.816C147.934 71.8798 147.397 72.0322 146.894 72.2672Z" fill="white"/>
<path d="M126.557 86.3296C127.197 86.0486 127.867 85.8405 128.553 85.7092C129.154 85.581 129.705 85.282 130.14 84.8481C130.663 84.2612 131.245 83.7295 131.877 83.2614C131.343 83.7092 130.871 84.225 130.471 84.7955C129.967 85.5061 129.32 85.7317 128.508 85.8972C127.849 85.9985 127.197 86.1429 126.557 86.3296Z" fill="white"/>
<path opacity="0.6" d="M132.866 84.224C133.724 83.6369 134.659 83.1713 135.644 82.8403C136.363 82.6335 138.596 82.0883 139.449 81.8026C140.303 81.5168 142.348 80.5919 143.379 79.2345C142.604 80.6896 140.517 81.7048 139.427 82.0056C138.337 82.3064 136.152 82.8742 135.4 83.1449C134.524 83.4252 133.675 83.7865 132.866 84.224Z" fill="white"/>
<path d="M143.98 76.8882C144.531 76.0811 145.173 75.3404 145.894 74.6811C146.573 74.1406 147.375 73.7763 148.229 73.6208C149.06 73.5305 150.485 73.4591 150.703 73.4177C150 73.6508 148.605 73.711 148.15 73.7712C147.252 73.9805 146.419 74.4079 145.725 75.0157C145.085 75.5824 144.501 76.2095 143.98 76.8882Z" fill="white"/>
<path d="M153.392 73.9366C154.301 73.2504 155.128 72.4605 155.854 71.5829C156.467 70.8625 157.175 70.2299 157.96 69.7029C158.848 69.2059 159.839 68.919 160.855 68.8644C160.479 68.9283 158.885 69.1802 157.787 70.0375C156.856 70.7682 156.003 71.5935 155.242 72.5003C154.711 73.0805 154.085 73.5662 153.392 73.9366Z" fill="white"/>
<path opacity="0.03" d="M124.522 74.4066V76.3355L161.228 55.1442V53.2153L124.522 74.4066Z" fill="black"/>
<path d="M143.085 55.4863C142.815 56.4075 141.435 60.5811 141.363 60.897C141.258 61.3783 140.611 62.4386 140.969 62.604C141.581 62.901 142.074 62.7582 142.273 62.3935C142.544 61.8934 144.793 57.6634 145.018 56.6895C145.244 55.7157 145.669 52.3655 145.883 51.5496C146.172 50.4404 146.669 46.8496 146.669 46.8496C145.733 47.1542 144.495 47.4512 144.112 48.2558C143.668 49.1808 143.623 49.8839 143.39 52.3054C143.247 53.8432 143.085 55.4863 143.085 55.4863Z" fill="#F28F8F"/>
<path d="M145.413 54.3508L145.071 49.6846C144.929 50.4569 144.882 51.2435 144.932 52.0271C144.954 52.5197 145.225 55.5502 145.225 55.5502L145.413 54.3508Z" fill="#B16668"/>
<path d="M134.956 57.0091C134.956 57.0091 136.761 58.938 137.438 59.6862C137.84 60.1299 139.694 61.0097 140.092 61.4121C140.186 61.5429 140.238 61.6987 140.243 61.8595C140.292 62.2355 140.405 62.337 140.45 62.7205C140.483 63.0213 140.472 63.1304 140.536 63.1379C140.6 63.1454 140.792 63.0853 140.882 62.807C140.928 62.6105 140.959 62.4106 140.972 62.2092C141.128 62.4937 141.235 62.8026 141.288 63.1229C141.431 63.8749 141.886 63.6342 142.224 63.1642C142.6 62.619 142.559 62.0174 141.882 60.9082C141.61 60.5146 141.275 60.169 140.89 59.8855C140.05 59.2973 139.249 58.6542 138.494 57.9604C137.679 56.8324 136.408 54.8772 135.611 54.4373C135.047 54.1252 134.137 54.5125 133.437 54.9336C133.887 55.6649 134.395 56.359 134.956 57.0091Z" fill="#B16668"/>
<path d="M140.856 62.3483C140.972 62.0851 141.262 61.4948 141.476 61.5963C141.621 61.7276 141.735 61.8879 141.813 62.0668C141.891 62.2457 141.93 62.439 141.927 62.6341C141.901 62.9838 141.469 63.2846 141.551 63.5854C141.115 63.7433 140.615 62.9086 140.856 62.3483Z" fill="#F28F8F"/>
<path d="M139.006 67.0671C138.908 66.9167 138.773 66.7325 138.607 66.5182L135.313 62.2581L135.118 60.9082C135.278 60.3819 135.404 59.8456 135.494 59.3027C136.46 58.1296 136.22 57.1633 135.893 56.4865C135.238 55.1366 134.731 54.4034 134.107 54.5802L132.257 55.1667C131.32 55.5126 130.681 55.7796 130.456 55.8849C129.877 56.1594 129.884 56.5993 129.835 57.2573C129.779 57.8512 129.809 58.45 129.922 59.0358L130.598 60.8631L130.753 61.8219C130.753 61.8219 130.568 62.1265 130.301 62.6266C129.658 63.7546 128.827 65.2398 128.967 67.1386C129.099 68.4487 129.318 69.7487 129.621 71.0302C130.049 73.2486 130.474 75.309 130.474 75.309C130.19 76.1918 130.053 77.1153 130.068 78.0426C130.121 79.7759 130.234 81.6822 130.207 82.6937C130.207 82.9155 130.189 83.3742 130.189 83.3742V83.2201C130.162 83.645 130.136 83.8818 130.034 84.9346C129.95 85.5867 129.806 86.2297 129.606 86.856C129.518 87.1792 129.509 87.5189 129.581 87.8462C129.652 88.1734 129.801 88.4787 130.016 88.736C130.429 89.3301 131.042 89.0819 131.422 88.5593C132.072 87.6682 131.956 86.8222 131.847 86.0288C131.738 85.2354 131.64 84.6 131.64 84.0623C131.61 83.3103 131.64 83.1975 131.606 82.8629C131.644 82.6335 131.708 82.3139 131.741 82.1109C132.155 79.7722 132.493 78.9299 132.809 75.6211C132.921 75.0846 132.992 74.5403 133.02 73.993C133.02 73.5005 133.061 72.7748 133.114 71.737C133.2 70.0563 133.208 68.2177 133.193 66.74C134.129 67.8154 135.295 68.5298 136.37 69.5713C135.389 71.1467 135.37 73.4629 135.182 74.9894C135.077 75.8618 135.073 76.0535 135.001 76.6852C134.94 76.767 134.868 76.8403 134.787 76.9033C134.532 77.0585 134.312 77.2646 134.14 77.5086C133.892 77.9147 134.065 78.49 134.17 78.9074C134.274 79.347 134.259 79.806 134.129 80.2384C133.975 80.9152 133.975 81.4378 134.426 81.889C134.783 82.265 135.93 82.5094 136.355 82.1334C137.054 81.4942 136.069 80.7009 136.096 80.073C136.132 79.1306 136.235 78.1921 136.404 77.2642C136.802 75.9934 137.178 75.0646 137.682 73.5042C137.979 72.5642 138.487 71.0978 138.848 69.8307C139.104 68.8907 139.449 67.759 139.006 67.0671ZM131.576 82.9268C131.578 82.9105 131.578 82.8942 131.576 82.8779V82.9268ZM131.557 83.0772C131.557 83.0509 131.557 83.017 131.557 82.9794V83.0772Z" fill="#B16668"/>
<path d="M133.174 66.7701C133.174 66.7701 133.11 64.7472 129.414 64.4125C129.482 64.2075 129.568 64.0088 129.67 63.8185C130.568 63.8185 131.599 64.3449 133.633 63.7169C134.365 63.4667 134.972 62.9443 135.329 62.2581C135.43 62.3447 135.513 62.4508 135.573 62.5701C135.573 62.5701 135.325 63.2883 134.919 64.1794C134.616 64.8356 134.268 65.4701 133.877 66.0782C133.452 66.6911 133.174 66.7701 133.174 66.7701Z" fill="#263238"/>
<path d="M134.084 62.5551C134.082 62.5856 134.071 62.6147 134.052 62.6388C134.033 62.6629 134.008 62.6809 133.979 62.6905C133.966 62.6942 133.953 62.6949 133.941 62.6924C133.928 62.6899 133.916 62.6843 133.906 62.6761C133.896 62.6679 133.888 62.6574 133.883 62.6455C133.878 62.6336 133.876 62.6206 133.877 62.6077C133.879 62.5773 133.891 62.5482 133.909 62.5241C133.928 62.5 133.954 62.482 133.983 62.4724C133.995 62.4686 134.008 62.468 134.021 62.4705C134.033 62.473 134.045 62.4786 134.055 62.4867C134.065 62.4949 134.073 62.5054 134.078 62.5173C134.083 62.5293 134.085 62.5422 134.084 62.5551Z" fill="#9A4A4D"/>
<path d="M135.851 56.4188L135.099 55.4938C135.099 55.4938 135.908 56.1706 136.002 56.2458C136.096 56.321 136.021 56.9978 136.021 56.9978L135.851 56.4188Z" fill="#9A4A4D"/>
<path d="M130.083 59.4945C130.083 59.4945 130.508 59.0132 131.17 58.4116C132.061 57.6032 133.712 57.0655 134.611 57.9792C134.611 57.9792 135.205 56.6557 135.851 56.4188C135.923 56.4188 137.355 57.513 135.475 59.3027C135.33 59.3671 135.17 59.3933 135.012 59.3789C134.853 59.3644 134.701 59.3097 134.569 59.22C134.256 59.7337 133.806 60.1492 133.268 60.4195C132.71 60.7117 132.085 60.8518 131.456 60.8255C131.134 60.8182 130.813 60.7741 130.501 60.6939C130.307 60.3155 130.166 59.9118 130.083 59.4945Z" fill="#263238"/>
<path d="M131.52 54.4486C131.287 54.505 131.125 54.1891 130.948 53.9034C130.667 53.3088 130.435 52.6927 130.253 52.061C130.098 51.5834 130.072 50.4404 130.817 50.1434C130.818 49.9016 130.867 49.6626 130.962 49.44C131.056 49.2174 131.193 49.0156 131.366 48.8462C131.948 48.2671 132.655 48.3198 133.246 47.8949C133.836 47.47 133.956 47.203 134.49 47.1617C134.583 47.1636 134.674 47.1878 134.756 47.2322C134.838 47.2766 134.908 47.3399 134.96 47.4168C135.012 47.4937 135.045 47.5821 135.056 47.6744C135.068 47.7667 135.056 47.8604 135.024 47.9475C135.024 47.9475 135.678 47.4174 136.088 47.9475C136.154 48.0603 136.197 48.1852 136.214 48.3149C136.231 48.4445 136.222 48.5763 136.187 48.7023C136.152 48.8282 136.091 48.9459 136.01 49.0481C135.928 49.1503 135.827 49.2351 135.712 49.2974C135.791 49.4046 135.839 49.5316 135.85 49.6643C135.861 49.7971 135.836 49.9303 135.776 50.0494C135.705 50.211 135.588 50.348 135.44 50.443C135.291 50.5381 135.118 50.5869 134.941 50.5833L131.52 54.4486Z" fill="#263238"/>
<path d="M130.67 49.7861C130.556 49.7842 130.444 49.82 130.352 49.888C130.261 49.956 130.194 50.0523 130.162 50.1621L130.892 50.2599C130.971 50.0268 130.888 49.8125 130.67 49.7861Z" fill="#263238"/>
<path d="M134.592 48.9627C134.907 49.0793 135.302 49.8237 135.265 51.6135C135.231 53.1175 134.768 53.6326 134.535 53.8018C134.185 53.9757 133.799 54.0671 133.407 54.0688V54.9749C133.407 54.9749 134.61 56.0428 133.61 56.4489C133.351 56.5256 133.079 56.5469 132.812 56.5113C132.544 56.4756 132.287 56.3839 132.057 56.2421C131.778 56.0555 131.58 55.769 131.505 55.4412V53.4634C131.463 53.5121 131.412 53.5521 131.355 53.5809C131.297 53.6098 131.235 53.627 131.171 53.6315C131.107 53.6361 131.043 53.6279 130.982 53.6074C130.921 53.5869 130.865 53.5546 130.817 53.5123C130.729 53.4521 130.653 53.375 130.595 53.2854C130.538 53.1959 130.498 53.0957 130.479 52.9908C130.46 52.8858 130.462 52.7782 130.485 52.674C130.508 52.5699 130.552 52.4714 130.614 52.3843C130.896 52.0083 131.411 51.9519 131.61 52.3279C131.61 52.3279 131.866 52.279 132.121 51.7113C132.584 51.6341 133.011 51.4177 133.347 51.0909C133.977 50.5313 134.413 49.7861 134.592 48.9627Z" fill="#B16668"/>
<path d="M133.422 51.6361C133.423 51.6907 133.406 51.7442 133.375 51.7892C133.344 51.8343 133.3 51.8687 133.249 51.888C133.228 51.8952 133.204 51.8971 133.182 51.8935C133.159 51.8899 133.138 51.8809 133.119 51.8673C133.101 51.8536 133.086 51.8357 133.076 51.8151C133.066 51.7945 133.061 51.7718 133.061 51.7489C133.061 51.6948 133.077 51.6419 133.107 51.597C133.137 51.5521 133.18 51.5172 133.231 51.4969C133.252 51.4889 133.276 51.4864 133.299 51.4897C133.322 51.4929 133.344 51.5018 133.363 51.5155C133.382 51.5292 133.398 51.5474 133.408 51.5684C133.418 51.5895 133.423 51.6127 133.422 51.6361Z" fill="#263238"/>
<path d="M133.644 52.8393L134.204 52.8807C134.188 52.9682 134.142 53.0473 134.073 53.1038C134.004 53.1602 133.918 53.1904 133.828 53.189C133.686 53.1777 133.595 53.016 133.644 52.8393Z" fill="#9A4A4D"/>
<path d="M135.043 50.6096L134.667 50.4404C134.69 50.382 134.734 50.3344 134.79 50.3072C134.847 50.28 134.911 50.2752 134.971 50.2938C134.997 50.3095 135.019 50.3303 135.037 50.3548C135.055 50.3793 135.067 50.4071 135.074 50.4366C135.081 50.466 135.081 50.4965 135.076 50.5263C135.07 50.556 135.059 50.5843 135.043 50.6096Z" fill="#263238"/>
<path d="M133.17 51.0345L132.757 51.3127C132.738 51.252 132.739 51.1867 132.761 51.1269C132.783 51.0671 132.823 51.0161 132.877 50.9818C132.899 50.9632 132.924 50.9496 132.952 50.9421C132.979 50.9345 133.008 50.9332 133.036 50.9383C133.064 50.9433 133.091 50.9546 133.114 50.9712C133.137 50.9879 133.157 51.0095 133.17 51.0345Z" fill="#263238"/>
<path d="M134.945 51.1849C134.945 51.2395 134.929 51.293 134.898 51.338C134.867 51.3831 134.823 51.4176 134.772 51.4368C134.75 51.4441 134.727 51.446 134.704 51.4424C134.682 51.4388 134.66 51.4297 134.642 51.4161C134.623 51.4025 134.609 51.3846 134.598 51.364C134.588 51.3433 134.583 51.3206 134.584 51.2977C134.584 51.2436 134.6 51.1907 134.63 51.1458C134.66 51.1009 134.703 51.066 134.753 51.0458C134.775 51.0377 134.799 51.0352 134.822 51.0385C134.845 51.0417 134.867 51.0506 134.886 51.0643C134.905 51.0781 134.92 51.0963 134.931 51.1173C134.941 51.1383 134.946 51.1615 134.945 51.1849Z" fill="#263238"/>
<path d="M134.084 51.309L134.11 52.4445L134.678 52.1023L134.084 51.309Z" fill="#9A4A4D"/>
<path d="M133.419 54.0688C132.96 54.129 132.016 54.0951 131.869 53.7379C131.923 53.9139 132.041 54.0631 132.2 54.1553C132.593 54.2902 133.004 54.3625 133.419 54.3696V54.0688Z" fill="#9A4A4D"/>
<path d="M126.752 53.8357C127.748 56.3285 129.094 57.4829 129.91 59.0357C131.366 58.7725 131.486 56.5466 130.85 55.7081C130.85 55.7081 128.391 53.0761 128.192 51.9181C128.019 50.9029 127.617 49.3161 127.673 48.4137C127.688 48.2541 127.749 48.1023 127.85 47.9776C128.052 47.6558 128.214 47.3112 128.335 46.9511C128.482 46.6465 128.636 46.5074 128.594 46.4585C128.553 46.4097 128.373 46.3269 128.147 46.5262C128.017 46.6559 127.899 46.7982 127.797 46.9511C127.857 46.5971 127.958 46.2513 128.098 45.9209C128.429 45.1125 128.369 44.7515 127.429 45.2328C126.839 45.5298 126.451 46.1352 126.301 47.658C126.241 48.2828 126.217 48.9105 126.229 49.538C126.29 50.666 126.365 51.7489 126.463 52.6776C126.507 53.0748 126.604 53.4642 126.752 53.8357Z" fill="#B16668"/>
<path d="M143.777 65.9692C143.702 66.2437 143.71 66.9919 145.368 67.304C147.026 67.6161 147.428 67.2251 147.519 66.8791C147.563 66.5171 147.493 66.1502 147.318 65.8299C147.144 65.5097 146.873 65.2521 146.545 65.0931C145.669 64.7209 143.932 65.048 143.777 65.9692Z" fill="#263238"/>
<path d="M160.314 65.8489C160.077 65.4979 159.82 65.1615 159.543 64.8412C159.493 64.7708 159.449 64.6966 159.411 64.6193C159.337 64.492 159.284 64.3537 159.254 64.2095C159.242 64.0269 159.214 63.8457 159.171 63.6681C159.126 63.4647 159.015 63.282 158.855 63.1492C158.745 63.0626 158.61 63.0121 158.471 63.0047C158.331 62.9973 158.192 63.0333 158.073 63.1078C157.905 63.2121 157.752 63.3386 157.618 63.4838C157.498 63.6079 157.404 63.7658 157.283 63.8824C156.89 64.2275 156.427 64.484 155.926 64.6344L154.772 65.048L152.745 65.8L152.621 65.8451C152.621 65.8451 152.737 61.4722 152.448 58.0093C152.305 56.1631 151.726 52.1361 151.726 52.1361L152.143 47.5301C152.117 46.9661 151.805 44.8117 151.391 45.1463C150.832 45.4779 150.241 45.7537 149.628 45.9697C149.628 45.9697 148.248 46.3119 147.18 46.6729C146.173 47.0113 145.541 47.3158 145.123 49.4703C144.789 51.1849 145.906 55.7984 145.499 57.8589C145.498 57.8814 145.498 57.904 145.499 57.9265C144.693 61.6443 144.083 65.402 143.672 69.184C143.571 70.2142 143.695 70.4398 144.507 71.5979C145.635 73.2222 147.601 75.2526 148.955 76.8318L149.087 77.0161C149.183 77.1666 149.235 77.3412 149.237 77.5199C149.268 77.836 149.275 78.1541 149.256 78.4712C149.238 78.7233 149.206 78.9743 149.162 79.2232C148.997 80.0015 148.702 80.7464 148.289 81.4265C148.169 81.6409 148.041 81.9078 148.135 82.0883C148.18 82.1426 148.239 82.1833 148.305 82.2059C148.371 82.2285 148.443 82.232 148.511 82.2161C148.977 82.158 149.413 81.954 149.756 81.6333C150.142 81.2872 150.435 80.8504 150.609 80.3625C150.861 79.6443 150.839 78.881 151.173 78.1929C151.316 77.8921 151.519 77.6289 151.662 77.3281C151.742 77.1953 151.791 77.0457 151.803 76.891C151.815 76.7363 151.792 76.5809 151.734 76.437C151.68 76.3604 151.611 76.2962 151.531 76.249C151.155 76.0009 150.662 75.8993 150.403 75.3466L150.342 75.2113C148.699 72.6206 148.861 69.6615 146.703 68.6049C147.455 66.4843 148.105 64.123 148.786 61.8369C148.929 63.0777 149.436 67.1348 149.985 68.6764C150.331 69.6465 150.925 70.0826 151.978 69.4961C152.764 69.0599 153.542 68.5673 154.317 68.0823C155.091 67.5973 155.918 67.0709 156.716 66.5595C156.97 66.382 157.238 66.2237 157.516 66.0857C157.582 66.0502 157.657 66.037 157.731 66.0481C157.776 66.0637 157.816 66.091 157.847 66.1271C158.019 66.2862 158.17 66.4669 158.295 66.6648C158.566 67.0888 158.793 67.5399 158.972 68.0109C159.062 68.2402 159.122 68.4884 159.208 68.7177C159.223 68.7599 159.246 68.7984 159.277 68.8308C159.308 68.8633 159.345 68.8888 159.386 68.9059C159.427 68.9229 159.472 68.9311 159.516 68.9297C159.561 68.9284 159.604 68.9177 159.645 68.8982C159.784 68.8204 159.901 68.7093 159.987 68.5749C160.283 68.1648 160.474 67.6884 160.543 67.1874C160.608 66.7282 160.527 66.2604 160.314 65.8489Z" fill="#F28F8F"/>
<path d="M147.808 55.7683C147.811 55.809 147.802 55.8497 147.781 55.8848C147.76 55.9198 147.729 55.9475 147.692 55.9638C147.676 55.9716 147.658 55.9752 147.641 55.9743C147.623 55.9733 147.606 55.9678 147.592 55.9584C147.577 55.9489 147.565 55.9358 147.557 55.9202C147.548 55.9047 147.544 55.8873 147.545 55.8698C147.541 55.8291 147.551 55.7884 147.572 55.7533C147.593 55.7183 147.624 55.6906 147.661 55.6743C147.677 55.6665 147.695 55.6629 147.712 55.6638C147.73 55.6648 147.747 55.6703 147.761 55.6798C147.776 55.6892 147.788 55.7023 147.796 55.7179C147.805 55.7334 147.809 55.7508 147.808 55.7683Z" fill="#B16668"/>
<path d="M145.518 57.607C145.518 57.607 144.127 63.2469 143.777 65.9692C144.128 65.6971 144.543 65.5197 144.982 65.4539C145.421 65.388 145.87 65.436 146.285 65.5932C147.248 65.9692 147.462 66.2625 147.519 66.8866L148.613 62.8409L149.233 66.8189C149.233 66.8189 151.666 66.6309 152.895 64.9089C152.895 64.7697 152.752 60.1863 152.613 58.4642C152.563 57.5914 152.438 56.7246 152.237 55.8736C152.237 55.8736 150.12 57.0016 148.496 57.2986C147.512 57.4737 146.517 57.5767 145.518 57.607Z" fill="#37474F"/>
<path d="M145.552 56.8361C145.518 57.0917 145.502 57.3492 145.503 57.6069C145.503 57.6069 146.383 58.0957 148.015 57.7573C149.647 57.4189 152.207 55.8773 152.207 55.8773C152.189 55.6104 152.151 55.3246 152.102 55.0276C152.102 55.0276 149.696 56.4789 148.105 56.8512C147.269 57.0844 146.385 57.0792 145.552 56.8361Z" fill="#263238"/>
<path d="M148.613 62.8334L148.286 60.9534C147.982 60.9183 147.69 60.8135 147.433 60.6472C147.176 60.4809 146.961 60.2576 146.804 59.9946C146.883 60.2933 147.024 60.5719 147.218 60.8118C147.413 61.0517 147.656 61.2473 147.932 61.3858L148.248 62.8634L147.699 66.1722L148.613 62.8334Z" fill="#263238"/>
<path d="M156.456 43.1385C156.054 43.6799 152.219 48.0265 151.989 49.0229C150.376 48.3122 150.827 45.5035 151.376 45.1388C152.585 44.1261 153.717 43.0238 154.76 41.8413C154.857 41.7017 154.932 41.5483 154.982 41.3863C155.076 41.0968 155.911 37.5662 155.964 36.4983C155.97 36.4136 155.958 36.3286 155.929 36.2489C155.9 36.1691 155.854 36.0965 155.794 36.0358C155.548 35.7536 155.356 35.4286 155.227 35.077C155.08 34.7875 154.903 34.701 154.96 34.6221C155.02 34.5383 155.108 34.4778 155.208 34.4504C155.307 34.4231 155.414 34.4306 155.509 34.4717C155.678 34.5734 155.832 34.7001 155.964 34.8477C155.953 34.4609 155.874 34.079 155.73 33.7197C155.415 32.9263 155.535 32.4676 156.652 32.5466C157.351 32.5992 157.934 33.1557 157.926 34.8928C157.886 35.5345 157.809 36.1735 157.697 36.8066C157.479 38.2918 157.291 40.608 157.114 41.7586C157.025 42.27 156.797 42.7472 156.456 43.1385Z" fill="#F28F8F"/>
<path d="M148.808 41.1081C148.83 41.6719 148.676 42.2284 148.366 42.7002C148.057 43.172 147.608 43.5355 147.082 43.7401C146.071 44.0597 145.202 43.413 145.15 42.2887C145.126 41.7247 145.28 41.1674 145.59 40.6952C145.899 40.2231 146.349 39.8599 146.876 39.6567C147.883 39.3371 148.748 39.9876 148.808 41.1081Z" fill="#263238"/>
<path d="M150.211 42.1308C150.211 42.1308 149.993 43.7702 149.887 44.0634C149.82 44.2432 149.699 44.398 149.541 44.5071L149.508 43.413L150.211 42.1308Z" fill="#263238"/>
<path d="M149.726 40.0327C149.817 39.9876 149.919 39.9677 150.021 39.975C150.123 39.9822 150.221 40.0164 150.305 40.074C150.564 40.2733 150.474 41.202 150.211 42.1308L149.658 42.3789L149.726 40.0327Z" fill="#263238"/>
<path d="M149.489 42.4316C149.605 42.473 149.752 42.1834 149.865 41.9766C149.978 41.7698 150.433 41.4089 150.684 41.8638C150.936 42.3188 150.549 43.1723 150.203 43.4092C149.602 43.819 149.489 43.4092 149.489 43.4092L149.571 45.9472C148.865 47.2745 146.748 47.9325 147.567 46.5225L147.537 45.6953C147.275 45.8279 146.999 45.9313 146.714 46.0036C146.263 46.0713 145.962 45.7667 145.796 45.2516C145.533 44.4507 145.42 43.7777 145.514 42.0067C145.535 41.6368 145.641 41.2766 145.822 40.9536C146.004 40.6307 146.257 40.3535 146.562 40.1434C146.867 39.9333 147.216 39.7958 147.583 39.7415C147.949 39.6871 148.324 39.7173 148.677 39.8297C149.79 40.2583 149.489 42.4316 149.489 42.4316Z" fill="#F28F8F"/>
<path d="M149.5 42.6422C149.556 42.6422 149.752 42.1609 149.876 41.9767C150.06 41.721 149.718 40.0327 149.718 40.0327C149.777 39.8789 149.791 39.7115 149.759 39.5499C149.727 39.3883 149.65 39.239 149.538 39.1191C149.259 38.8822 148.868 38.6039 147.676 39.1416C146.827 39.5176 145.913 40.1192 145.138 39.95C145.052 40.5065 145.172 41.0555 145.661 41.3187C145.993 41.3925 146.337 41.3848 146.665 41.2961C147.345 41.1348 148.009 40.9095 148.646 40.6231C148.853 40.5253 148.906 40.7359 149.049 41.3111C149.184 41.815 149.312 42.6986 149.5 42.6422Z" fill="#263238"/>
<path d="M149.733 40.1681L150.388 39.5514C150.36 39.5087 150.323 39.4731 150.279 39.4477C150.235 39.4222 150.186 39.4076 150.135 39.405C150.084 39.4024 150.034 39.412 149.987 39.4329C149.941 39.4538 149.9 39.4854 149.869 39.5251C149.781 39.6044 149.721 39.7092 149.697 39.8247C149.673 39.9401 149.685 40.0603 149.733 40.1681Z" fill="#263238"/>
<path d="M147.556 45.699C148.023 45.448 148.468 45.1588 148.887 44.8342C149.091 44.6451 149.249 44.4107 149.346 44.1499C149.303 44.3995 149.22 44.6406 149.102 44.8643C148.865 45.3117 147.567 45.9923 147.567 45.9923L147.556 45.699Z" fill="#B16668"/>
<path d="M147.65 42.7361C147.648 42.7629 147.653 42.7898 147.664 42.8144C147.674 42.839 147.691 42.8604 147.713 42.8769C147.734 42.8933 147.759 42.9041 147.785 42.9085C147.812 42.9128 147.839 42.9104 147.864 42.9016C147.923 42.878 147.973 42.8367 148.006 42.7834C148.04 42.7301 148.056 42.6675 148.052 42.6045C148.055 42.5777 148.05 42.5508 148.039 42.5263C148.028 42.5017 148.011 42.4802 147.99 42.4638C147.969 42.4474 147.944 42.4365 147.917 42.4322C147.891 42.4279 147.864 42.4303 147.838 42.4391C147.78 42.4631 147.731 42.5046 147.697 42.5578C147.663 42.6109 147.647 42.6733 147.65 42.7361Z" fill="#263238"/>
<path d="M147.808 41.8225L148.252 41.9503C148.268 41.9198 148.277 41.8865 148.28 41.8521C148.283 41.8178 148.279 41.7833 148.268 41.7507C148.257 41.718 148.24 41.6879 148.217 41.6621C148.194 41.6363 148.166 41.6154 148.135 41.6006C148.063 41.5919 147.99 41.6095 147.93 41.6503C147.87 41.6911 147.827 41.7522 147.808 41.8225Z" fill="#263238"/>
<path d="M147.579 44.3267L147.127 44.6651C147.14 44.6949 147.16 44.7213 147.185 44.7421C147.209 44.7628 147.239 44.7773 147.271 44.7843C147.302 44.7913 147.335 44.7906 147.367 44.7823C147.398 44.774 147.427 44.7583 147.451 44.7365C147.511 44.6894 147.556 44.6249 147.579 44.5516C147.602 44.4784 147.602 44.3999 147.579 44.3267Z" fill="#B16668"/>
<path d="M145.823 42.6497L146.199 42.1872C146.174 42.1647 146.145 42.148 146.113 42.1384C146.081 42.1287 146.048 42.1263 146.015 42.1314C145.982 42.1364 145.951 42.1488 145.923 42.1676C145.896 42.1863 145.873 42.211 145.857 42.2398C145.805 42.2943 145.774 42.3644 145.768 42.4388C145.762 42.5132 145.781 42.5875 145.823 42.6497Z" fill="#263238"/>
<path d="M145.973 43.2062C145.971 43.233 145.976 43.2599 145.987 43.2844C145.997 43.309 146.014 43.3305 146.036 43.3469C146.057 43.3633 146.082 43.3742 146.108 43.3785C146.135 43.3828 146.162 43.3804 146.187 43.3716C146.246 43.3481 146.296 43.3067 146.329 43.2534C146.363 43.2001 146.379 43.1375 146.375 43.0746C146.378 43.048 146.374 43.021 146.364 42.9964C146.354 42.9717 146.337 42.9501 146.316 42.9335C146.295 42.917 146.27 42.9061 146.244 42.9018C146.217 42.8975 146.19 42.9001 146.165 42.9091C146.106 42.9325 146.056 42.9737 146.022 43.027C145.987 43.0802 145.97 43.1429 145.973 43.2062Z" fill="#263238"/>
<path d="M146.988 42.6647L146.992 44.0334L146.349 43.992L146.988 42.6647Z" fill="#B16668"/>
<path d="M120.492 95.9815V102.749C120.491 102.944 120.542 103.134 120.639 103.303C120.736 103.471 120.876 103.611 121.044 103.708C121.212 103.805 121.403 103.856 121.597 103.856C121.791 103.856 121.982 103.805 122.15 103.708L128 100.324C128 100.324 124.436 97.0832 120.492 95.9815Z" fill="#263238"/>
<path d="M162.31 17.7247L155.599 21.6313C158.456 24.1091 160.618 25.6207 163.871 26.5795V18.6233C163.871 18.4406 163.823 18.261 163.732 18.1027C163.641 17.9445 163.509 17.8131 163.351 17.7219C163.192 17.6307 163.013 17.583 162.83 17.5834C162.647 17.5839 162.468 17.6326 162.31 17.7247Z" fill="#263238"/>
<path opacity="0.2" d="M129.516 109.66C129.352 108.947 129.375 108.204 129.583 107.502V107.483C129.811 106.601 130.26 105.792 130.888 105.133C131.926 104.096 133.163 104.626 133.625 105.716C133.422 104.366 133.907 102.125 134.949 101.091C135.554 100.486 136.186 100.264 136.701 100.399C136.947 100.485 137.167 100.634 137.336 100.832C137.505 101.031 137.618 101.271 137.664 101.527C138.197 103.49 136.994 106.066 136.088 108.604L135.054 111.134L133.441 111.243C131.843 111.217 130.05 111.623 129.516 109.66Z" fill="black"/>
<path d="M130.136 109.416C129.972 108.702 129.995 107.957 130.204 107.254C130.43 106.372 130.879 105.563 131.508 104.904C132.546 103.866 133.783 104.393 134.246 105.483C134.043 104.133 134.528 101.892 135.569 100.858C136.175 100.257 136.806 100.031 137.321 100.166C137.568 100.252 137.787 100.401 137.956 100.599C138.125 100.798 138.239 101.038 138.284 101.294C138.818 103.257 137.615 105.836 136.709 108.374L135.675 110.901L134.062 111.01C132.471 110.95 130.678 111.36 130.136 109.416Z" fill="#92E3A9"/>
<path d="M155.655 91.5409C155.593 91.4713 155.519 91.4128 155.437 91.368C154.851 91.0158 154.297 90.6146 153.779 90.1685C153.279 89.7399 152.858 89.2248 152.358 88.7961C152.162 88.6307 151.756 88.6721 151.722 88.9729C151.604 90.3313 151.116 91.6314 150.312 92.7329C150.241 92.8306 150.165 92.9697 150.244 93.06C150.273 93.0887 150.31 93.1083 150.35 93.1164C151.027 93.3269 151.44 92.3343 151.669 91.8605C151.882 91.4241 152.067 90.9745 152.222 90.5145C152.254 90.8896 152.261 91.2664 152.245 91.6425C152.218 92.4368 152.128 93.2277 151.974 94.0075C151.588 95.7874 150.831 97.4658 149.752 98.9331C148.715 100.293 147.441 101.454 145.992 102.362C144.42 103.381 142.634 103.866 140.871 104.193C140.465 104.272 140.871 104.844 141.187 104.814C142.723 104.65 144.218 104.209 145.597 103.513C146.875 102.845 148.033 101.968 149.022 100.918C151.087 98.7827 152.688 96.0304 152.959 93.0224C153.079 92.1806 153.064 91.3251 152.914 90.4881C153.037 90.6387 153.17 90.7806 153.313 90.913C153.616 91.1771 153.949 91.4054 154.305 91.5936C154.614 91.759 155.057 92.0749 155.433 92.0072C155.515 91.9953 155.589 91.9539 155.643 91.8909C155.696 91.8279 155.725 91.7475 155.723 91.665C155.712 91.6183 155.688 91.5755 155.655 91.5409Z" fill="#FAFAFA"/>
<path opacity="0.2" d="M80.88 119.786L85.1513 115.744C85.2817 115.626 85.387 115.483 85.4613 115.323C85.5356 115.164 85.5772 114.991 85.5837 114.815L85.6251 109.638C85.6251 108.814 86.5764 108.107 87.2193 108.438L91.2876 110.521C91.4333 110.585 91.5925 110.611 91.7507 110.597C91.9089 110.583 92.0612 110.53 92.1938 110.442L97.1081 107.566C97.8864 107.107 98.6121 107.671 98.3339 108.517L96.578 113.845C96.5206 113.99 96.5019 114.147 96.5236 114.302C96.5454 114.456 96.6069 114.602 96.702 114.725L99.71 118.109C100.188 118.651 99.71 119.707 98.8753 119.899L93.7241 121.11C93.3767 121.2 93.0793 121.424 92.8969 121.734L89.825 126.712C89.34 127.505 88.321 127.596 88.0804 126.866L86.6516 122.286C86.6108 122.148 86.5276 122.025 86.4136 121.936C86.2996 121.847 86.1606 121.796 86.0161 121.79L81.1281 121.467C80.3498 121.448 80.2069 120.425 80.88 119.786Z" fill="black"/>
<path d="M81.6809 119.512L85.9523 115.47C86.083 115.352 86.1886 115.209 86.2629 115.049C86.3372 114.89 86.3786 114.717 86.3847 114.541L86.4261 109.367C86.4261 108.544 87.3773 107.833 88.0203 108.164L92.0886 110.247C92.2343 110.31 92.3935 110.336 92.5517 110.322C92.7099 110.308 92.8622 110.255 92.9948 110.168L97.9091 107.292C98.6874 106.837 99.4131 107.397 99.1349 108.243L97.3789 113.575C97.3219 113.719 97.3034 113.875 97.3251 114.029C97.3469 114.183 97.4082 114.328 97.503 114.451L100.511 117.853C100.989 118.391 100.511 119.451 99.6763 119.643L94.5251 120.85C94.1791 120.944 93.8827 121.167 93.6979 121.474L90.6335 126.453C90.1485 127.242 89.1295 127.332 88.8889 126.607L87.4601 122.023C87.4197 121.885 87.3364 121.762 87.2223 121.674C87.1082 121.585 86.969 121.535 86.8246 121.531L81.9366 121.207C81.147 121.155 81.0041 120.155 81.6809 119.512Z" fill="#92E3A9"/>
<path d="M127.463 141.609C126.655 141.163 125.817 140.773 124.955 140.444C124.041 140.12 124.293 139.793 124.861 139.616C125.589 139.447 126.339 139.397 127.083 139.47C129.215 139.661 130.001 140.056 130.001 140.056C130.967 139.32 132.109 138.85 133.313 138.691C134.02 138.624 134.945 138.612 134.798 138.973C134.614 139.436 133.588 139.823 132.73 140.989C133.922 141.405 135.082 141.908 136.201 142.493C137.761 143.38 137.032 143.76 135.878 143.737C134.814 143.715 132.542 143.775 132.542 143.775C132.542 143.775 132.813 144.749 133.091 146.339C133.31 147.595 132.042 146.715 131.381 145.99C130.433 144.937 129.474 143.775 129.474 143.775C129.474 143.775 127.76 144.068 125.917 144.564C124.594 144.922 123.552 145.316 124.387 143.974C125.222 142.632 127.463 141.609 127.463 141.609Z" fill="#F28F8F"/>
<path d="M131.445 145.384C130.952 144.82 129.707 143.019 129.707 143.019C129.707 143.019 126.173 144.004 125.289 144.264C124.406 144.523 124.161 144.418 124.248 144.204C123.695 145.26 124.684 144.884 125.917 144.549C127.76 144.053 129.474 143.76 129.474 143.76C129.474 143.76 130.433 144.922 131.381 145.974C131.873 146.523 132.697 147.14 132.997 146.907C132.479 146.877 131.937 145.948 131.445 145.384Z" fill="#B16668"/>
<path d="M137.073 143.399C136.78 143.587 136.359 143.515 135.257 143.399C134.156 143.282 132.373 143.023 132.373 143.023L132.542 143.775C132.542 143.775 134.798 143.715 135.878 143.737C136.49 143.734 136.983 143.632 137.073 143.399Z" fill="#B16668"/>
<path d="M124.628 139.703C124.252 139.876 124.18 140.169 124.955 140.455C125.817 140.784 126.655 141.174 127.463 141.62L128.189 141.244C128.189 141.244 127.162 140.801 126.139 140.492C125.199 140.184 124.316 139.974 124.628 139.703Z" fill="#B16668"/>
<path d="M132.73 141C133.588 139.834 134.61 139.447 134.798 138.985C134.807 138.967 134.813 138.949 134.815 138.929C134.816 138.91 134.814 138.89 134.808 138.872C134.802 138.853 134.793 138.836 134.78 138.821C134.767 138.806 134.752 138.794 134.734 138.785C134.734 138.785 134.885 138.973 134.058 139.331C133.431 139.655 132.862 140.08 132.373 140.59C132.17 140.835 132.73 141 132.73 141Z" fill="#B16668"/>
<path d="M104.448 147.813C103.842 147.477 103.214 147.183 102.568 146.933C101.88 146.689 102.071 146.444 102.496 146.309C103.046 146.184 103.612 146.148 104.173 146.2C105.779 146.347 106.373 146.644 106.373 146.644C107.102 146.088 107.964 145.733 108.873 145.614C109.403 145.561 110.103 145.553 110.001 145.828C109.862 146.174 109.087 146.467 108.441 147.332C109.344 147.644 110.224 148.021 111.073 148.46C112.25 149.129 111.701 149.419 110.828 149.4C110.027 149.4 108.317 149.426 108.317 149.426C108.317 149.426 108.516 150.178 108.727 151.363C108.892 152.31 107.937 151.652 107.437 151.096C106.722 150.302 106.001 149.426 106.001 149.426C106.001 149.426 104.707 149.648 103.316 150.024C102.319 150.291 101.534 150.599 102.165 149.577C102.797 148.554 104.448 147.813 104.448 147.813Z" fill="#F28F8F"/>
<path d="M107.452 150.659C107.076 150.235 106.14 148.877 106.14 148.877C106.14 148.877 103.478 149.629 102.812 149.813C102.147 149.998 101.951 149.934 102.026 149.768C101.605 150.565 102.353 150.28 103.282 150.032C104.673 149.656 105.967 149.434 105.967 149.434C105.967 149.434 106.689 150.31 107.403 151.103C107.779 151.517 108.396 151.987 108.625 151.81C108.23 151.787 107.824 151.088 107.452 150.659Z" fill="#B16668"/>
<path d="M111.712 149.163C111.49 149.306 111.171 149.253 110.344 149.163C109.516 149.073 108.167 148.885 108.167 148.885L108.298 149.441C108.298 149.441 110.009 149.4 110.81 149.415C111.257 149.415 111.629 149.34 111.712 149.163Z" fill="#B16668"/>
<path d="M102.312 146.377C102.034 146.508 101.974 146.727 102.557 146.933C103.203 147.183 103.831 147.477 104.437 147.813L104.985 147.539C104.985 147.539 104.211 147.204 103.44 146.96C102.745 146.738 102.075 146.58 102.312 146.377Z" fill="#B16668"/>
<path d="M108.422 147.343C109.069 146.467 109.843 146.174 109.982 145.839C109.995 145.812 109.997 145.781 109.988 145.753C109.979 145.724 109.959 145.7 109.934 145.685C109.934 145.685 110.046 145.828 109.422 146.095C108.95 146.342 108.521 146.665 108.151 147.05C108.001 147.23 108.422 147.343 108.422 147.343Z" fill="#B16668"/>
<path d="M88.024 27.9067L85.768 29.2114C85.7798 29.1116 85.7861 29.0112 85.7868 28.9106V28.2602C85.7868 27.0946 84.9708 26.6245 83.9632 27.2036C83.5299 27.4713 83.1593 27.829 82.8765 28.2526C82.7111 26.7862 81.5643 26.2448 80.1693 27.0494C79.3739 27.5662 78.712 28.2638 78.2376 29.0852C77.7632 29.9066 77.4898 30.8285 77.4396 31.7758V32.7533C77.4293 33.1423 77.509 33.5284 77.6727 33.8814L75.7927 34.9642C75.4993 35.1574 75.2551 35.4164 75.0795 35.7206C74.904 36.0248 74.8018 36.3658 74.7812 36.7164C74.7812 37.3631 75.2362 37.6263 75.7927 37.3029L88.024 30.2454C88.3173 30.0523 88.5615 29.7933 88.7371 29.4891C88.9127 29.1849 89.0149 28.8439 89.0354 28.4933C89.0166 27.8465 88.5617 27.5871 88.024 27.9067Z" fill="#EBEBEB"/>
<path d="M73.0854 21.9133L71.8559 22.3946V19.6498C71.8559 17.4765 70.1226 16.9538 68.2388 18.0405C66.3588 19.1309 64.8322 21.7742 64.8322 23.9474V24.346C64.5673 24.263 64.2868 24.2419 64.0124 24.2843C63.738 24.3266 63.4769 24.4314 63.2493 24.5904C62.5346 25.0554 61.9397 25.6826 61.5131 26.4209C61.0864 27.1592 60.8401 27.9877 60.794 28.8392V29.0197L59.0606 30.0198C58.5899 30.3258 58.198 30.7387 57.9171 31.2248C57.6361 31.711 57.474 32.2566 57.4438 32.8173C57.4438 33.8475 58.1658 34.2649 59.0606 33.7498L73.0854 25.6432C73.5558 25.3368 73.9473 24.9238 74.2282 24.4377C74.5091 23.9517 74.6715 23.4063 74.7022 22.8458C74.7022 21.808 73.9766 21.3982 73.0854 21.9133Z" fill="#EBEBEB"/>
<g filter="url(#filter0_ddd_5313_42978)">
<path d="M196 100C196 96.6863 198.686 94 202 94H290C293.314 94 296 96.6863 296 100V184C296 187.314 293.314 190 290 190H202C198.686 190 196 187.314 196 184V100Z" fill="#7E8A92"/>
<path d="M256 128.167H250.047L244.573 118.586C244.5 118.459 244.395 118.353 244.268 118.279C244.141 118.205 243.996 118.167 243.849 118.167H240.438C239.884 118.167 239.485 118.696 239.637 119.229L242.191 128.167H236.833L234.583 125.167C234.426 124.957 234.179 124.833 233.917 124.833H231.834C231.292 124.833 230.894 125.343 231.025 125.869L232.667 131.5L231.025 137.131C230.894 137.657 231.292 138.167 231.834 138.167H233.917C234.179 138.167 234.426 138.043 234.583 137.833L236.833 134.833H242.191L239.637 143.771C239.485 144.303 239.884 144.833 240.438 144.833H243.849C244.148 144.833 244.424 144.673 244.573 144.414L250.047 134.833H256C257.841 134.833 261 133.341 261 131.5C261 129.659 257.841 128.167 256 128.167Z" fill="white"/>
<path d="M231.533 167.5H230.537V158.934H235.307V159.812H231.533V162.953H235.078V163.826H231.533V167.5ZM239.062 160.961C239.609 160.961 240.078 161.082 240.469 161.324C240.859 161.566 241.158 161.906 241.365 162.344C241.572 162.777 241.676 163.285 241.676 163.867V164.471H237.24C237.252 165.225 237.439 165.799 237.803 166.193C238.166 166.588 238.678 166.785 239.338 166.785C239.744 166.785 240.104 166.748 240.416 166.674C240.729 166.6 241.053 166.49 241.389 166.346V167.201C241.064 167.346 240.742 167.451 240.422 167.518C240.105 167.584 239.73 167.617 239.297 167.617C238.68 167.617 238.141 167.492 237.68 167.242C237.223 166.988 236.867 166.617 236.613 166.129C236.359 165.641 236.232 165.043 236.232 164.336C236.232 163.645 236.348 163.047 236.578 162.543C236.812 162.035 237.141 161.645 237.562 161.371C237.988 161.098 238.488 160.961 239.062 160.961ZM239.051 161.758C238.531 161.758 238.117 161.928 237.809 162.268C237.5 162.607 237.316 163.082 237.258 163.691H240.656C240.652 163.309 240.592 162.973 240.475 162.684C240.361 162.391 240.188 162.164 239.953 162.004C239.719 161.84 239.418 161.758 239.051 161.758ZM240.674 158.307V158.424C240.596 158.537 240.488 158.674 240.352 158.834C240.219 158.99 240.07 159.156 239.906 159.332C239.742 159.504 239.576 159.668 239.408 159.824C239.244 159.98 239.092 160.115 238.951 160.229H238.301V160.088C238.426 159.939 238.562 159.762 238.711 159.555C238.859 159.344 239.004 159.129 239.145 158.91C239.285 158.688 239.402 158.486 239.496 158.307H240.674ZM246.246 160.961C246.375 160.961 246.51 160.969 246.65 160.984C246.791 160.996 246.916 161.014 247.025 161.037L246.902 161.939C246.797 161.912 246.68 161.891 246.551 161.875C246.422 161.859 246.301 161.852 246.188 161.852C245.93 161.852 245.686 161.904 245.455 162.01C245.229 162.111 245.029 162.26 244.857 162.455C244.686 162.646 244.551 162.879 244.453 163.152C244.355 163.422 244.307 163.723 244.307 164.055V167.5H243.328V161.078H244.137L244.242 162.262H244.283C244.416 162.023 244.576 161.807 244.764 161.611C244.951 161.412 245.168 161.254 245.414 161.137C245.664 161.02 245.941 160.961 246.246 160.961ZM249.211 161.078V167.5H248.238V161.078H249.211ZM248.736 158.676C248.896 158.676 249.033 158.729 249.146 158.834C249.264 158.936 249.322 159.096 249.322 159.314C249.322 159.529 249.264 159.689 249.146 159.795C249.033 159.9 248.896 159.953 248.736 159.953C248.568 159.953 248.428 159.9 248.314 159.795C248.205 159.689 248.15 159.529 248.15 159.314C248.15 159.096 248.205 158.936 248.314 158.834C248.428 158.729 248.568 158.676 248.736 158.676ZM253.676 160.973C254.441 160.973 255.01 161.145 255.381 161.488C255.752 161.832 255.938 162.381 255.938 163.135V167.5H255.229L255.041 166.551H254.994C254.814 166.785 254.627 166.982 254.432 167.143C254.236 167.299 254.01 167.418 253.752 167.5C253.498 167.578 253.186 167.617 252.814 167.617C252.424 167.617 252.076 167.549 251.771 167.412C251.471 167.275 251.232 167.068 251.057 166.791C250.885 166.514 250.799 166.162 250.799 165.736C250.799 165.096 251.053 164.604 251.561 164.26C252.068 163.916 252.842 163.729 253.881 163.697L254.988 163.65V163.258C254.988 162.703 254.869 162.314 254.631 162.092C254.393 161.869 254.057 161.758 253.623 161.758C253.287 161.758 252.967 161.807 252.662 161.904C252.357 162.002 252.068 162.117 251.795 162.25L251.496 161.512C251.785 161.363 252.117 161.236 252.492 161.131C252.867 161.025 253.262 160.973 253.676 160.973ZM254.977 164.336L253.998 164.377C253.197 164.408 252.633 164.539 252.305 164.77C251.977 165 251.812 165.326 251.812 165.748C251.812 166.115 251.924 166.387 252.146 166.562C252.369 166.738 252.664 166.826 253.031 166.826C253.602 166.826 254.068 166.668 254.432 166.352C254.795 166.035 254.977 165.561 254.977 164.928V164.336ZM262.096 165.742C262.096 166.152 261.992 166.498 261.785 166.779C261.582 167.057 261.289 167.266 260.906 167.406C260.527 167.547 260.074 167.617 259.547 167.617C259.098 167.617 258.709 167.582 258.381 167.512C258.053 167.441 257.766 167.342 257.52 167.213V166.316C257.781 166.445 258.094 166.562 258.457 166.668C258.82 166.773 259.191 166.826 259.57 166.826C260.125 166.826 260.527 166.736 260.777 166.557C261.027 166.377 261.152 166.133 261.152 165.824C261.152 165.648 261.102 165.494 261 165.361C260.902 165.225 260.736 165.094 260.502 164.969C260.268 164.84 259.943 164.699 259.529 164.547C259.119 164.391 258.764 164.236 258.463 164.084C258.166 163.928 257.936 163.738 257.771 163.516C257.611 163.293 257.531 163.004 257.531 162.648C257.531 162.105 257.75 161.689 258.188 161.4C258.629 161.107 259.207 160.961 259.922 160.961C260.309 160.961 260.67 161 261.006 161.078C261.346 161.152 261.662 161.254 261.955 161.383L261.627 162.162C261.361 162.049 261.078 161.953 260.777 161.875C260.477 161.797 260.17 161.758 259.857 161.758C259.408 161.758 259.062 161.832 258.82 161.98C258.582 162.129 258.463 162.332 258.463 162.59C258.463 162.789 258.518 162.953 258.627 163.082C258.74 163.211 258.92 163.332 259.166 163.445C259.412 163.559 259.736 163.691 260.139 163.844C260.541 163.992 260.889 164.146 261.182 164.307C261.475 164.463 261.699 164.654 261.855 164.881C262.016 165.104 262.096 165.391 262.096 165.742Z" fill="white"/>
</g>
<defs>
<filter id="filter0_ddd_5313_42978" x="193" y="92" width="106" height="102" filterUnits="userSpaceOnUse" color-interpolation-filters="sRGB">
<feFlood flood-opacity="0" result="BackgroundImageFix"/>
<feColorMatrix in="SourceAlpha" type="matrix" values="0 0 0 0 0 0 0 0 0 0 0 0 0 0 0 0 0 0 127 0" result="hardAlpha"/>
<feOffset dy="1"/>
<feGaussianBlur stdDeviation="1.5"/>
<feColorMatrix type="matrix" values="0 0 0 0 0 0 0 0 0 0 0 0 0 0 0 0 0 0 0.2 0"/>
<feBlend mode="normal" in2="BackgroundImageFix" result="effect1_dropShadow_5313_42978"/>
<feColorMatrix in="SourceAlpha" type="matrix" values="0 0 0 0 0 0 0 0 0 0 0 0 0 0 0 0 0 0 127 0" result="hardAlpha"/>
<feOffset dy="2"/>
<feGaussianBlur stdDeviation="0.5"/>
<feColorMatrix type="matrix" values="0 0 0 0 0 0 0 0 0 0 0 0 0 0 0 0 0 0 0.12 0"/>
<feBlend mode="normal" in2="effect1_dropShadow_5313_42978" result="effect2_dropShadow_5313_42978"/>
<feColorMatrix in="SourceAlpha" type="matrix" values="0 0 0 0 0 0 0 0 0 0 0 0 0 0 0 0 0 0 127 0" result="hardAlpha"/>
<feOffset dy="1"/>
<feGaussianBlur stdDeviation="0.5"/>
<feColorMatrix type="matrix" values="0 0 0 0 0 0 0 0 0 0 0 0 0 0 0 0 0 0 0.14 0"/>
<feBlend mode="normal" in2="effect2_dropShadow_5313_42978" result="effect3_dropShadow_5313_42978"/>
<feBlend mode="normal" in="SourceGraphic" in2="effect3_dropShadow_5313_42978" result="shape"/>
</filter>
</defs>
</svg>
