<svg width="328" height="216" viewBox="0 0 328 216" fill="none" xmlns="http://www.w3.org/2000/svg">
<path d="M125.823 182.988C175.686 182.988 216.108 159.651 216.108 130.863C216.108 102.075 175.686 78.7382 125.823 78.7382C75.9601 78.7382 35.5381 102.075 35.5381 130.863C35.5381 159.651 75.9601 182.988 125.823 182.988Z" fill="#F5F5F5"/>
<path opacity="0.3" d="M189.664 167.722C165.42 181.717 130.816 186.09 100.097 180.856C96.5879 180.259 93.1412 179.535 89.7572 178.683C86.1739 177.78 82.6696 176.743 79.2706 175.558L78.387 175.25C81.583 170.403 87.129 166.733 92.1185 164.286L92.3854 164.15L92.7389 163.985L93.0585 163.838L93.7202 163.549C95.7206 162.699 99.5746 160.146 109.61 159.037H109.655L110.385 158.958C111.937 158.8 113.505 158.71 115.073 158.646L115.449 158.619C120.273 158.398 125.135 158.386 129.88 157.691C132.599 157.288 136.332 156.42 138.096 155.641C141.608 154.092 143.95 151.475 145.262 147.569C146.575 143.662 147.142 139.432 148.488 135.488C149.192 133.483 150.196 131.596 151.466 129.893L151.496 129.855C154.027 126.453 157.512 123.704 161.272 121.674C166.912 118.62 173.218 117 179.429 115.357L180.181 115.161L180.655 115.037L180.828 114.996L181.768 114.751L181.926 114.706C187.942 113.176 194.812 111.398 199.41 107.54C200.728 106.429 201.973 105.236 203.14 103.968C203.358 104.171 203.565 104.378 203.775 104.581C205.83 106.594 207.703 108.785 209.374 111.127C209.504 111.312 209.63 111.497 209.75 111.68L210.213 112.368C212.016 115.082 213.452 118.022 214.484 121.113C214.51 121.192 214.537 121.268 214.559 121.343C219.823 137.635 211.51 155.108 189.664 167.722Z" fill="#92E3A9"/>
<path opacity="0.5" d="M189.664 167.722C165.42 181.717 130.817 186.09 100.097 180.856C96.588 180.259 93.1413 179.535 89.7573 178.683C90.601 176.922 91.7135 175.303 93.0548 173.885C94.2025 172.666 95.4825 171.579 96.8712 170.644C102.62 166.778 109.964 165.124 116.773 164.496L119.187 164.271H119.262H119.345L132.734 163.03C135.148 162.808 137.585 162.582 139.916 161.902C142.896 160.998 145.608 159.372 147.808 157.168C148.197 156.789 148.566 156.39 148.913 155.972C150.401 154.165 151.433 152.027 151.921 149.738C153.651 142.594 155.204 137.3 157.734 133.194L157.761 133.145C159.396 129.938 162.37 127.377 165.769 125.512L165.912 125.43C169.002 123.756 172.351 122.612 175.82 122.046C181.084 121.226 186.389 120.053 191.563 118.895C192.913 118.594 194.12 118.305 195.21 118.023C201.52 116.379 203.802 114.996 207.013 113.232C208.009 112.687 208.919 112.161 209.765 111.642L210.228 112.33C212.031 115.044 213.468 117.985 214.499 121.076C214.525 121.155 214.552 121.23 214.574 121.305C219.823 137.635 211.51 155.107 189.664 167.722Z" fill="#92E3A9"/>
<path d="M189.664 167.722C165.42 181.717 130.816 186.09 100.097 180.856C100.18 180.728 100.27 180.604 100.36 180.48C103.064 176.795 106.692 174.295 110.738 172.629C114.431 171.18 118.314 170.271 122.266 169.929C127.068 169.444 132.114 169.516 137.009 169.388C142.465 169.249 148.142 169.012 153.155 166.613C153.379 166.51 153.597 166.394 153.809 166.267C157.486 164.124 160.047 159.123 161.351 153.761C162.389 149.516 162.904 144.643 165.521 140.996C166.715 139.292 168.046 137.688 169.499 136.198C171.427 134.187 173.735 132.579 176.29 131.468L176.824 131.243C178.716 130.453 180.634 129.726 182.577 129.062L182.652 129.039C185.532 128.059 188.452 127.221 191.413 126.524C197.865 125.02 204.471 124.181 210.833 122.332C211.901 122.023 212.969 121.677 214.025 121.301L214.127 121.264L214.473 121.132C214.499 121.211 214.525 121.286 214.548 121.361C219.823 137.635 211.51 155.107 189.664 167.722Z" fill="#92E3A9"/>
<path d="M132.858 157.597C139.096 156.792 142.168 155.359 145.176 150.174C148.402 144.617 147.011 136.966 151.53 129.837C145.958 135.962 147.18 146.121 142.213 152.096C138.006 157.145 130.215 157.544 109.614 159.048C109.614 159.048 124.763 158.646 132.858 157.597Z" fill="#FAFAFA"/>
<path d="M152.203 146.907C151.376 151.569 148.902 155.987 148.902 155.987C148.902 155.987 151.508 153.652 152.831 148.279C154.155 142.906 154.948 139.353 157.61 134.059C160.272 128.765 163.95 126.618 165.984 125.411C162.246 127.111 159.81 128.844 157.05 133.142C154.29 137.439 153.027 142.245 152.203 146.907Z" fill="#FAFAFA"/>
<path d="M202.858 103.656C199.444 107.246 194.21 111.36 181.949 114.684L181.791 114.729L180.851 114.973L180.678 115.015L180.204 115.139C180.204 115.139 189.792 113.68 196.214 110.198C199.974 108.149 202.23 106.325 203.798 104.558C203.588 104.355 203.381 104.148 203.163 103.945L202.858 103.656Z" fill="#FAFAFA"/>
<path d="M119.273 164.24C113.566 164.732 107.962 166.052 102.635 168.158C97.2809 170.287 92.6824 174.141 91.9267 174.791L91.8364 174.874C91.8665 174.84 91.8891 174.806 91.9191 174.776C95.9123 170.193 100.191 167.963 105.696 166.162C111.05 164.41 117.412 164.365 119.205 164.237L119.273 164.24Z" fill="#FAFAFA"/>
<path d="M214.593 121.331C212.337 122.459 207.355 124.512 198.425 126.069C191.232 127.321 186.54 127.949 182.686 128.998L182.61 129.021C180.62 129.539 178.691 130.27 176.858 131.201C174.254 132.599 171.799 134.26 169.533 136.157C169.533 136.157 169.533 136.157 169.514 136.157C169.646 135.995 173.97 130.803 182.93 127.633C191.082 124.753 206.302 123.787 214.089 121.241L214.191 121.204C214.311 121.166 214.424 121.125 214.54 121.083C214.544 121.181 214.57 121.256 214.593 121.331Z" fill="#FAFAFA"/>
<path d="M209.78 111.672C209.657 111.489 209.532 111.305 209.404 111.119C205.044 114.11 200.27 116.446 195.233 118.053C195.533 118.015 200.147 117.38 207.659 113.732C208.584 113.285 209.445 112.826 210.25 112.36L209.78 111.672Z" fill="#FAFAFA"/>
<path d="M93.0585 163.819L92.7389 163.966L92.3855 164.131L92.1185 164.267C89.2346 165.771 82.3124 170.602 79.2706 175.547L78.387 175.238C78.2554 175.186 78.1238 175.141 77.9922 175.096C83.087 168.647 89.3963 165.064 93.0585 163.819Z" fill="#FAFAFA"/>
<path d="M142.472 169.535C151.643 168.557 153.82 166.248 153.82 166.248C147.293 169.459 131.982 168.504 123.947 169.17C115.912 169.835 110.479 171.178 107.305 174.024C107.305 174.024 109.561 172.441 117.273 171.11C122.834 170.151 134.133 170.422 142.472 169.535Z" fill="#FAFAFA"/>
<path d="M132.836 147.847C132.309 147.847 131.546 147.155 131.215 146.787C130.433 145.922 129.64 144.971 129.388 144.662C128.959 144.741 127.508 145.019 125.974 145.414L125.598 145.516C125.205 145.646 124.799 145.73 124.387 145.768C124.294 145.778 124.201 145.763 124.116 145.723C124.032 145.683 123.96 145.62 123.91 145.542C123.789 145.324 123.872 145.008 124.188 144.493C124.853 143.414 126.263 142.613 126.959 142.237C126.283 141.879 125.584 141.564 124.868 141.293C124.545 141.18 124.116 140.985 124.116 140.635C124.116 140.459 124.237 140.218 124.778 140.045C125.318 139.914 125.873 139.852 126.429 139.861C126.658 139.861 126.88 139.861 127.087 139.891C128.062 139.947 129.026 140.133 129.952 140.443C130.929 139.725 132.073 139.267 133.276 139.112C133.543 139.086 133.783 139.075 133.994 139.075C134.535 139.075 134.832 139.158 134.96 139.346C134.994 139.397 135.014 139.457 135.02 139.518C135.025 139.58 135.015 139.642 134.99 139.699C134.816 140.006 134.568 140.264 134.268 140.451C133.826 140.77 133.424 141.139 133.069 141.553L133.396 141.669C134.398 142.011 135.369 142.438 136.299 142.944C137.051 143.38 137.378 143.745 137.288 144.091C137.175 144.516 136.502 144.602 135.96 144.602H135.28C134.434 144.602 133.325 144.625 132.813 144.636C132.911 145.034 133.103 145.85 133.295 146.948C133.33 147.071 133.34 147.2 133.321 147.326C133.303 147.453 133.258 147.574 133.189 147.681C133.146 147.734 133.092 147.775 133.031 147.804C132.97 147.833 132.903 147.847 132.836 147.847Z" fill="#E6E6E6"/>
<path d="M59.5384 158.841L47.5214 151.904C46.6228 151.385 46.6228 150.543 47.5214 150.024L154.234 88.4126C154.738 88.1566 155.296 88.0232 155.862 88.0232C156.428 88.0232 156.986 88.1566 157.49 88.4126L169.522 95.3535C170.421 95.8724 170.421 96.7147 169.522 97.2335L62.7945 158.841C62.29 159.097 61.7322 159.231 61.1664 159.231C60.6007 159.231 60.0429 159.097 59.5384 158.841Z" fill="#E6E6E6"/>
<path d="M167.296 90.616C167.296 90.616 163.378 88.4164 166.379 78.1704C170.03 65.7135 181.881 62.6416 190.067 63.371C190.067 63.371 186.28 65.4541 183.75 68.7027L175.587 71.0151L182.667 70.7481C182.045 72.4075 181.067 73.9103 179.802 75.1511C179.802 75.1511 174.982 75.7715 172.015 77.1364L178.121 77.2567C177.944 78.42 177.463 79.516 176.726 80.4339C175.448 82.1259 172.301 87.4087 167.296 90.616Z" fill="#92E3A9"/>
<path opacity="0.25" d="M167.296 90.616C167.296 90.616 163.378 88.4164 166.379 78.1704C170.03 65.7135 181.881 62.6416 190.067 63.371C190.067 63.371 186.28 65.4541 183.75 68.7027L175.587 71.0151L182.667 70.7481C182.045 72.4075 181.067 73.9103 179.802 75.1511C179.802 75.1511 174.982 75.7715 172.015 77.1364L178.121 77.2567C177.944 78.42 177.463 79.516 176.726 80.4339C175.448 82.1259 172.301 87.4087 167.296 90.616Z" fill="black"/>
<path d="M166.146 94.5377C166.146 94.5377 165.991 87.7697 172.748 82.7614C179.505 77.7531 191.702 80.0091 196.436 82.5809C196.436 82.5809 191.905 83.2276 185.746 87.3298L179.264 85.8258L183.265 88.9052L178.933 91.4094L172.417 89.5294L176.617 92.6878C176.617 92.6878 171.308 96.2109 166.146 94.5377Z" fill="#92E3A9"/>
<path d="M166.146 94.5377C166.146 94.5377 165.991 87.7697 172.748 82.7614C179.505 77.7531 191.702 80.0091 196.436 82.5809C196.436 82.5809 192.473 84.1676 185.743 88.0066L179.264 85.8333L183.265 88.9127L178.933 91.4169L172.417 89.5369L176.617 92.6953C176.617 92.6953 171.308 96.2109 166.146 94.5377Z" fill="#92E3A9"/>
<path opacity="0.1" d="M172.748 82.7614C165.98 87.7848 166.146 94.5377 166.146 94.5377C166.146 94.5377 169.101 87.1418 174.94 84.0548C180.78 80.9679 189.664 80.3287 196.436 82.5809C191.702 80.0091 179.501 77.7343 172.748 82.7614Z" fill="black"/>
<path d="M109.678 124.524L110.896 125.231L163.032 93.7217C163.4 93.4813 163.707 93.1576 163.927 92.7768C164.147 92.396 164.275 91.9688 164.299 91.5297L165.138 6.58L163.927 5.88064C163.783 5.81482 163.625 5.78816 163.468 5.80334C163.311 5.81853 163.16 5.87504 163.032 5.96712L109.678 36.7728V124.524Z" fill="#92E3A9"/>
<path opacity="0.1" d="M163.927 5.88064L165.138 6.58V7.61776L110.896 37.4759L109.678 36.7728L163.032 5.96712C163.16 5.87504 163.311 5.81853 163.468 5.80334C163.625 5.78816 163.783 5.81482 163.927 5.88064Z" fill="black"/>
<path d="M110.896 125.231L164.25 94.4248C164.619 94.1846 164.926 93.861 165.146 93.4801C165.366 93.0993 165.493 92.672 165.518 92.2328V7.4034C165.518 6.595 164.95 6.2754 164.25 6.67396L110.896 37.4759V125.231Z" fill="#92E3A9"/>
<path opacity="0.2" d="M109.678 36.7728L110.896 37.4759V125.231L109.678 124.527V36.7728Z" fill="black"/>
<path d="M109.7 123.132L58.1395 155.664L56.0715 155.754L54.857 155.051C54.5486 154.859 54.2973 154.588 54.1293 154.266C53.9613 153.944 53.8828 153.583 53.902 153.22V71.1129C53.9253 70.4684 54.106 69.8395 54.4285 69.281C54.751 68.7226 55.2054 68.2517 55.7519 67.9094L108.486 37.4534L109.7 38.1527V123.132Z" fill="#92E3A9"/>
<path opacity="0.1" d="M109.7 123.132L58.1395 155.664L56.0715 155.754L54.857 155.051C54.5486 154.859 54.2973 154.588 54.1293 154.266C53.9613 153.944 53.8828 153.583 53.902 153.22V71.1129C53.9253 70.4684 54.106 69.8395 54.4285 69.281C54.751 68.7226 55.2054 68.2517 55.7519 67.9094L108.486 37.4534L109.7 38.1527V123.132Z" fill="black"/>
<path d="M55.643 69.9848C55.3132 70.5399 55.1319 71.1705 55.1166 71.8159V153.9C55.0868 154.263 55.1605 154.627 55.3292 154.95C55.4978 155.272 55.7545 155.54 56.0694 155.723C56.3843 155.906 56.7445 155.995 57.1082 155.982C57.472 155.968 57.8244 155.851 58.1246 155.645L109.689 125.873V38.1639L56.9552 68.6199C56.409 68.9562 55.9575 69.4259 55.643 69.9848Z" fill="#92E3A9"/>
<path d="M115.348 125.892L109.982 122.798L111.404 38.5738L162.036 9.33607C162.236 9.23408 162.457 9.18091 162.681 9.18091C162.905 9.18091 163.126 9.23408 163.326 9.33607L165.401 10.528C165.59 10.6515 165.748 10.8181 165.86 11.0142C165.973 11.2103 166.037 11.4302 166.048 11.656L166.852 94.6918C166.852 95.1363 166.735 95.5729 166.513 95.9577C166.29 96.3426 165.97 96.662 165.585 96.8839L115.348 125.892Z" fill="#37474F"/>
<path d="M115.329 125.885L115.333 40.8336L111.404 38.5551L109.982 122.798L115.329 125.885Z" fill="#263238"/>
<path d="M166.852 11.9003V94.6955C166.852 95.14 166.735 95.5766 166.513 95.9614C166.29 96.3463 165.97 96.6657 165.585 96.8876L115.528 125.791L115.329 125.885V40.8335L166.146 11.5055C166.216 11.4643 166.296 11.4422 166.378 11.4414C166.46 11.4406 166.54 11.4612 166.612 11.5011C166.683 11.5409 166.743 11.5987 166.785 11.6688C166.827 11.7388 166.85 11.8186 166.852 11.9003Z" fill="#455A64"/>
<path d="M112.393 126.874L61.4145 156.307L60.5197 156.397L57.1545 154.446C57.0248 154.355 56.9217 154.231 56.8557 154.087C56.7896 153.943 56.763 153.784 56.7785 153.626V71.5377C56.8023 71.0988 56.9291 70.6717 57.1486 70.2909C57.368 69.9101 57.674 69.5863 58.0418 69.3456L109.024 39.9124L112.389 41.8638L112.393 126.874Z" fill="#37474F"/>
<path d="M112.393 41.8601L111.753 42.2361L103.459 47.0263L101.914 47.9175L61.4146 71.2972C61.0463 71.5376 60.7397 71.8613 60.5196 72.2421C60.2995 72.6229 60.172 73.0501 60.1475 73.4892V155.581C60.1475 156.386 60.719 156.709 61.4146 156.311L62.0914 155.935L112.393 126.889V41.8601Z" fill="#455A64"/>
<path opacity="0.2" d="M112.393 41.8601L111.753 42.2361L103.459 47.0263L101.914 47.9175L61.4146 71.2972C61.0463 71.5376 60.7397 71.8613 60.5196 72.2421C60.2995 72.6229 60.172 73.0501 60.1475 73.4892V155.581C60.1475 156.386 60.719 156.709 61.4146 156.311L62.0914 155.935L112.393 126.889V41.8601Z" fill="black"/>
<path d="M60.5157 72.2447L57.1317 70.2932C56.9 70.6682 56.7704 71.0972 56.7557 71.5378V153.626C56.7393 153.783 56.7656 153.942 56.8317 154.086C56.8979 154.229 57.0015 154.352 57.1317 154.442L60.5157 156.397C60.3875 156.306 60.2854 156.182 60.2195 156.039C60.1536 155.896 60.1261 155.738 60.1397 155.581V73.4892C60.1562 73.049 60.2857 72.6204 60.5157 72.2447Z" fill="#263238"/>
<path d="M113.024 42.2285L103.85 47.5264L102.41 48.3573L62.0461 71.6693C61.6777 71.9093 61.3712 72.233 61.1516 72.6139C60.9321 72.9949 60.8057 73.4223 60.7827 73.8614V147.366C60.7827 148.02 60.7827 148.633 60.7827 149.212C60.8542 152.246 61.2941 154.303 62.095 155.92C62.1326 155.987 62.1626 156.051 62.1965 156.119C62.2581 156.243 62.3437 156.355 62.4484 156.446C62.6742 156.63 62.9623 156.719 63.2524 156.695C63.5425 156.671 63.8122 156.536 64.005 156.318C65.263 155.117 66.6501 154.059 68.141 153.164L68.205 153.122L113.032 127.242L113.024 42.2285Z" fill="#455A64"/>
<path d="M117.405 51.0458C117.289 51.0726 117.178 51.1183 117.077 51.1811C116.907 51.2807 116.755 51.4077 116.626 51.5571C116.162 52.0302 115.886 52.6554 115.848 53.3168C115.848 54.0989 116.408 54.4185 117.085 54.0312C117.215 53.956 117.335 53.8651 117.442 53.7605C117.84 53.391 118.122 52.9143 118.254 52.3881C118.3 52.2278 118.324 52.0622 118.326 51.8955C118.318 51.2375 117.931 50.9029 117.405 51.0458Z" fill="#37474F"/>
<path d="M117.405 59.6337C117.292 59.6655 117.183 59.711 117.081 59.769C116.908 59.8708 116.751 59.9975 116.615 60.145C116.163 60.625 115.897 61.25 115.863 61.9085C115.863 62.6943 116.423 63.0365 117.104 62.6266C117.24 62.5497 117.366 62.4562 117.48 62.3484C117.88 61.9802 118.161 61.5011 118.288 60.9722C118.334 60.8147 118.357 60.6513 118.356 60.4872C118.322 59.8254 117.931 59.4908 117.405 59.6337Z" fill="#37474F"/>
<path d="M117.401 76.8167C117.288 76.8468 117.181 76.8923 117.081 76.9521C116.91 77.0552 116.755 77.1818 116.619 77.3281C116.153 77.802 115.878 78.4314 115.848 79.0953C115.848 79.8774 116.401 80.197 117.085 79.8097C117.22 79.7326 117.346 79.6405 117.461 79.5352C117.855 79.1608 118.136 78.6824 118.269 78.1553C118.313 77.9973 118.334 77.8341 118.333 77.6703C118.318 77.0047 117.931 76.6739 117.401 76.8167Z" fill="#37474F"/>
<path d="M117.401 85.4084C117.288 85.4403 117.179 85.4857 117.077 85.5438C116.909 85.6467 116.755 85.7733 116.622 85.9198C116.163 86.3968 115.888 87.022 115.848 87.6832C115.848 88.4691 116.408 88.7887 117.092 88.4014C117.22 88.3259 117.338 88.2363 117.446 88.1344C117.842 87.7593 118.124 87.2795 118.258 86.7507C118.301 86.5926 118.322 86.4295 118.322 86.2657C118.318 85.6002 117.931 85.2693 117.401 85.4084Z" fill="#37474F"/>
<path d="M117.397 102.592C117.285 102.623 117.178 102.669 117.078 102.727C116.908 102.828 116.754 102.955 116.623 103.103C116.156 103.577 115.879 104.206 115.844 104.87C115.844 105.652 116.401 105.976 117.081 105.585C117.217 105.509 117.344 105.417 117.457 105.31C117.856 104.939 118.137 104.459 118.266 103.93C118.309 103.773 118.33 103.612 118.33 103.449C118.318 102.783 117.927 102.449 117.397 102.592Z" fill="#37474F"/>
<path d="M117.401 111.18C117.288 111.211 117.181 111.258 117.081 111.319C116.91 111.422 116.755 111.548 116.619 111.695C116.158 112.172 115.884 112.799 115.848 113.462C115.848 114.248 116.404 114.567 117.085 114.176C117.213 114.102 117.332 114.012 117.438 113.909C117.839 113.541 118.122 113.064 118.254 112.537C118.297 112.38 118.319 112.218 118.318 112.056C118.322 111.375 117.931 111.037 117.401 111.18Z" fill="#37474F"/>
<path d="M110.449 57.8702C109.764 58.2462 109.212 57.9378 109.208 57.1558C109.23 56.7271 109.353 56.3098 109.567 55.9379C109.782 55.5661 110.081 55.2503 110.441 55.0163C111.125 54.6403 111.682 54.9411 111.682 55.7345C111.659 56.1625 111.536 56.5791 111.321 56.9502C111.107 57.3214 110.808 57.6366 110.449 57.8702Z" fill="#37474F"/>
<path d="M117.405 51.0458C117.289 51.0726 117.178 51.1183 117.078 51.1811C116.907 51.2807 116.755 51.4077 116.626 51.5571C117.142 52.0067 117.458 52.6421 117.506 53.3243C117.506 53.4745 117.484 53.6238 117.442 53.768C117.405 53.9241 117.344 54.0737 117.262 54.2117C116.977 54.6657 116.578 55.0366 116.104 55.2871C114.927 55.9676 113.299 56.2496 111.637 56.1519C110.961 56.1188 110.289 56.0193 109.633 55.8548C109.601 55.8958 109.573 55.9399 109.55 55.9864C109.501 56.0702 109.457 56.1568 109.419 56.2459C109.388 56.3248 109.355 56.4038 109.332 56.479C109.33 56.4902 109.33 56.5016 109.332 56.5128C109.316 56.5531 109.303 56.5946 109.294 56.6369C109.294 56.6369 109.294 56.6369 109.294 56.6369C109.294 56.6369 109.294 56.667 109.294 56.682C109.952 56.8528 110.624 56.9635 111.302 57.0129C113.25 57.1821 115.201 56.87 116.589 56.0729C117.785 55.3735 118.45 54.3959 118.469 53.3093C118.465 52.9921 118.407 52.6778 118.296 52.3806C118.095 51.8784 117.792 51.4237 117.405 51.0458Z" fill="#EBEBEB"/>
<path d="M110.449 66.4617C109.764 66.8377 109.212 66.5331 109.208 65.7473C109.23 65.3187 109.353 64.9013 109.567 64.5295C109.782 64.1576 110.081 63.8418 110.441 63.6079C111.125 63.2319 111.682 63.5327 111.682 64.326C111.659 64.754 111.536 65.1706 111.321 65.5418C111.107 65.9129 110.808 66.2281 110.449 66.4617Z" fill="#37474F"/>
<path d="M117.405 59.6335C117.292 59.6654 117.183 59.7109 117.081 59.7689C116.908 59.8707 116.751 59.9974 116.615 60.1449C116.874 60.3645 117.086 60.6343 117.239 60.9379C117.391 61.2416 117.481 61.573 117.502 61.9121C117.505 62.0597 117.485 62.2069 117.442 62.3483C117.406 62.5061 117.345 62.6572 117.262 62.7957C116.976 63.2499 116.577 63.6219 116.104 63.8748C114.723 64.5743 113.175 64.8738 111.633 64.7396C110.958 64.7024 110.288 64.6017 109.633 64.4388C109.572 64.5291 109.52 64.6231 109.471 64.7133L109.441 64.7697C109.441 64.7697 109.441 64.7697 109.441 64.7923C109.418 64.8324 109.4 64.8754 109.388 64.9201C109.342 65.0427 109.304 65.1683 109.275 65.2961C109.931 65.4654 110.601 65.5786 111.276 65.6345C113.227 65.7962 115.175 65.4841 116.566 64.6832C117.765 63.9876 118.446 63.0138 118.446 61.9234C118.441 61.6042 118.384 61.2879 118.277 60.9871C118.086 60.479 117.788 60.0175 117.405 59.6335Z" fill="#EBEBEB"/>
<path d="M110.445 83.645C109.764 84.021 109.208 83.7127 109.208 82.9268C109.23 82.4987 109.353 82.0819 109.567 81.7106C109.782 81.3394 110.081 81.0243 110.441 80.7911C111.125 80.3963 111.682 80.7159 111.682 81.5055C111.659 81.9345 111.536 82.3521 111.32 82.724C111.105 83.0958 110.805 83.4115 110.445 83.645Z" fill="#37474F"/>
<path d="M117.401 76.8168C117.289 76.8468 117.181 76.8924 117.081 76.9521C116.91 77.0553 116.755 77.1818 116.619 77.3281C116.878 77.5478 117.09 77.8175 117.243 78.1212C117.395 78.4248 117.485 78.7562 117.506 79.0953C117.503 79.2438 117.483 79.3914 117.446 79.5352C117.406 79.6912 117.344 79.8406 117.262 79.9789C116.975 80.4324 116.576 80.8041 116.104 81.058C114.722 81.7582 113.172 82.0578 111.629 81.9228C110.954 81.8851 110.285 81.7832 109.629 81.6183L109.546 81.7499C109.496 81.8345 109.453 81.9224 109.415 82.0131C109.374 82.1005 109.34 82.191 109.313 82.2838L109.268 82.4643C109.925 82.6336 110.596 82.7468 111.272 82.8027C113.22 82.9644 115.171 82.6523 116.562 81.8514C117.762 81.1558 118.42 80.1782 118.424 79.0916C118.421 78.7721 118.364 78.4555 118.254 78.1553C118.067 77.6544 117.776 77.1984 117.401 76.8168Z" fill="#EBEBEB"/>
<path d="M110.445 92.2365C109.764 92.6125 109.208 92.3042 109.204 91.5184C109.228 91.0903 109.353 90.6738 109.567 90.3027C109.782 89.9317 110.082 89.6165 110.441 89.3827C111.125 88.9879 111.682 89.3075 111.682 90.0971C111.66 90.5262 111.536 90.9438 111.321 91.3157C111.106 91.6877 110.806 92.0033 110.445 92.2365Z" fill="#37474F"/>
<path d="M117.401 85.4084C117.288 85.4403 117.179 85.4858 117.078 85.5438C116.909 85.6467 116.755 85.7733 116.623 85.9198C117.141 86.3693 117.46 87.0062 117.51 87.6908C117.506 87.8434 117.483 87.9949 117.442 88.142C117.402 88.2936 117.341 88.4391 117.262 88.5744C116.976 89.028 116.578 89.4008 116.107 89.6573C114.726 90.3562 113.175 90.6532 111.633 90.5145C110.957 90.4802 110.286 90.3807 109.629 90.2175C109.603 90.2664 109.576 90.304 109.546 90.3491C109.5 90.4317 109.458 90.5171 109.422 90.6048C109.38 90.7037 109.345 90.8054 109.317 90.9093C109.317 90.9545 109.291 91.0033 109.279 91.0522C109.934 91.2203 110.602 91.3322 111.276 91.3869C113.227 91.5448 115.182 91.2327 116.57 90.4393C117.773 89.7437 118.45 88.7624 118.45 87.6795C118.448 87.3603 118.392 87.0438 118.284 86.7432C118.087 86.2412 117.786 85.7863 117.401 85.4084Z" fill="#EBEBEB"/>
<path d="M110.445 109.416C109.764 109.792 109.208 109.484 109.204 108.698C109.227 108.269 109.351 107.852 109.566 107.481C109.781 107.11 110.081 106.795 110.441 106.562C111.125 106.167 111.678 106.487 111.678 107.277C111.656 107.705 111.532 108.122 111.318 108.494C111.103 108.866 110.804 109.182 110.445 109.416Z" fill="#37474F"/>
<path d="M117.397 102.592C117.285 102.623 117.178 102.669 117.078 102.727C116.908 102.828 116.754 102.955 116.623 103.103C116.879 103.324 117.09 103.593 117.241 103.896C117.393 104.199 117.483 104.529 117.506 104.866C117.505 105.016 117.484 105.166 117.442 105.31C117.405 105.467 117.343 105.617 117.258 105.754C116.971 106.207 116.572 106.579 116.1 106.833C114.721 107.532 113.173 107.83 111.633 107.694C110.957 107.655 110.287 107.556 109.629 107.397C109.571 107.485 109.519 107.577 109.471 107.671L109.437 107.728C109.436 107.735 109.436 107.743 109.437 107.75C109.416 107.791 109.398 107.834 109.385 107.878L109.324 108.059C109.306 108.115 109.291 108.173 109.279 108.232C109.937 108.398 110.607 108.51 111.283 108.566C113.235 108.724 115.182 108.412 116.574 107.615C117.773 106.919 118.454 105.938 118.431 104.859C118.432 104.538 118.376 104.22 118.266 103.919C118.075 103.419 117.779 102.966 117.397 102.592Z" fill="#EBEBEB"/>
<path d="M110.449 118.008C109.764 118.384 109.212 118.079 109.208 117.293C109.23 116.865 109.354 116.447 109.568 116.076C109.782 115.704 110.081 115.388 110.441 115.154C111.125 114.759 111.682 115.082 111.682 115.872C111.66 116.3 111.537 116.717 111.322 117.088C111.108 117.459 110.808 117.775 110.449 118.008Z" fill="#37474F"/>
<path d="M117.401 111.179C117.288 111.211 117.181 111.258 117.081 111.319C116.91 111.422 116.755 111.548 116.619 111.695C116.878 111.914 117.09 112.184 117.242 112.488C117.395 112.792 117.484 113.123 117.506 113.462C117.506 113.611 117.484 113.759 117.442 113.902C117.407 114.057 117.347 114.205 117.265 114.342C116.977 114.793 116.578 115.164 116.107 115.421C114.725 116.123 113.173 116.421 111.629 116.282C110.957 116.247 110.29 116.147 109.636 115.985C109.605 116.026 109.577 116.07 109.554 116.116C109.505 116.2 109.461 116.287 109.422 116.376C109.382 116.464 109.348 116.554 109.321 116.646C109.321 116.707 109.287 116.767 109.272 116.827C109.929 116.996 110.599 117.107 111.276 117.158C113.227 117.32 115.179 117.011 116.562 116.214C117.762 115.515 118.442 114.541 118.442 113.454C118.446 113.136 118.392 112.82 118.281 112.522C118.084 112.018 117.784 111.561 117.401 111.179Z" fill="#EBEBEB"/>
<path d="M122.853 43.3866L162.897 20.2664V79.2269L122.857 102.343L122.853 43.3866Z" fill="#F5F5F5"/>
<path d="M162.897 20.2664L161.228 19.3038L121.187 42.4241L122.853 43.3866L162.897 20.2664Z" fill="#FAFAFA"/>
<path d="M121.187 42.4241V101.381L122.857 102.343L122.853 43.3866L121.187 42.4241Z" fill="#E6E6E6"/>
<path d="M124.522 44.3492L161.228 23.1578V78.2606L124.522 99.452V44.3492Z" fill="#92E3A9"/>
<path opacity="0.8" d="M124.522 44.3492L161.228 23.1578V78.2606L124.522 99.452V44.3492Z" fill="white"/>
<path d="M124.522 84.0397L161.228 62.8484V78.2606L124.522 99.452V84.0397Z" fill="#FFBDA7"/>
<path opacity="0.5" d="M124.522 87.8938C125.077 87.1868 125.807 86.6371 126.639 86.2996C127.688 85.9048 128.895 85.8935 129.832 85.2317C130.293 84.8566 130.715 84.4358 131.091 83.9759C132.87 82.0959 135.468 81.3251 137.957 80.6596C139.19 80.3287 140.45 79.9978 141.518 79.2985C143.774 77.8283 144.902 74.888 147.425 73.9593C148.733 73.4742 150.2 73.6321 151.534 73.2336C153.501 72.647 154.888 71.0001 156.321 69.6353C157.016 68.9269 157.807 68.3194 158.671 67.8305C158.878 67.7214 161.228 67.007 161.228 67.2213V53.2153L124.522 74.4067V87.8938Z" fill="#92E3A9"/>
<path opacity="0.3" d="M124.522 89.5294C125.077 88.8214 125.806 88.2705 126.639 87.9314C127.688 87.5366 128.895 87.5253 129.832 86.8673C130.291 86.4902 130.713 86.0696 131.091 85.6115C132.87 83.7315 135.468 82.9607 137.957 82.2914C139.19 81.9605 140.45 81.6297 141.518 80.9303C143.774 79.4601 144.902 76.5198 147.425 75.5911C148.733 75.1098 150.2 75.2677 151.534 74.8692C153.501 74.2789 154.888 72.6357 156.321 71.2709C157.014 70.5594 157.805 69.9504 158.671 69.4623C159.461 69.0559 160.339 68.8469 161.228 68.8532V53.2153L124.522 74.4067V89.5294Z" fill="#92E3A9"/>
<path opacity="0.4" d="M124.522 87.8938C125.077 87.1868 125.807 86.6371 126.639 86.2996C127.688 85.9048 128.895 85.8935 129.832 85.2317C130.293 84.8566 130.715 84.4358 131.091 83.9759C132.87 82.0959 135.468 81.3251 137.957 80.6596C139.19 80.3287 140.45 79.9978 141.518 79.2985C143.774 77.8283 144.902 74.888 147.425 73.9593C148.733 73.4742 150.2 73.6321 151.534 73.2336C153.501 72.647 154.888 71.0001 156.321 69.6353C157.016 68.9269 157.807 68.3194 158.671 67.8305C158.878 67.7214 161.228 67.007 161.228 67.2213V53.2153L124.522 74.4067V87.8938Z" fill="#92E3A9"/>
<path d="M124.522 85.9687C125.077 85.2606 125.806 84.7098 126.639 84.3707C127.688 83.9947 128.895 83.9646 129.832 83.3066C130.291 82.9295 130.713 82.5089 131.091 82.0508C132.87 80.1708 135.468 79.4 137.957 78.7307C139.19 78.3998 140.45 78.0689 141.518 77.3696C143.774 75.8994 144.902 72.9591 147.425 72.0304C148.733 71.5491 150.2 71.707 151.534 71.3085C153.501 70.7181 154.888 69.075 156.321 67.7101C157.016 67.0018 157.807 66.3943 158.671 65.9053C159.461 65.4974 160.338 65.2871 161.228 65.2925V53.2153L124.522 74.4067V85.9687Z" fill="#92E3A9"/>
<path opacity="0.03" d="M124.522 74.4067V80.1896L161.228 58.9982V53.2153L124.522 74.4067Z" fill="black"/>
<path opacity="0.03" d="M124.522 74.4067V78.2607L161.228 57.0693V53.2153L124.522 74.4067Z" fill="black"/>
<path d="M133.366 80.37C134.275 79.8436 135.244 79.4307 136.254 79.1404C137.517 78.7983 139.773 78.3659 141.142 77.5575C142.053 76.9775 142.874 76.2668 143.578 75.4481C142.945 76.3783 142.106 77.1502 141.127 77.7041C139.656 78.4561 138.228 78.787 136.547 79.2081C135.446 79.4751 134.379 79.8648 133.366 80.37Z" fill="white"/>
<path d="M146.894 72.2672C147.395 71.9674 147.949 71.767 148.526 71.6769C149.558 71.5958 150.582 71.4374 151.591 71.2032C152.659 70.7996 153.648 70.2103 154.512 69.4623C153.739 70.3371 152.744 70.9867 151.632 71.3423C150.595 71.5741 149.544 71.7324 148.485 71.816C147.934 71.8799 147.397 72.0322 146.894 72.2672Z" fill="white"/>
<path d="M126.557 86.3296C127.197 86.0486 127.867 85.8405 128.553 85.7092C129.154 85.5811 129.705 85.2821 130.14 84.8482C130.663 84.2612 131.245 83.7295 131.877 83.2615C131.343 83.7093 130.871 84.225 130.471 84.7956C129.967 85.5062 129.32 85.7318 128.508 85.8972C127.849 85.9985 127.197 86.143 126.557 86.3296Z" fill="white"/>
<path opacity="0.6" d="M132.866 84.224C133.724 83.6369 134.659 83.1713 135.644 82.8403C136.363 82.6335 138.596 82.0883 139.449 81.8026C140.303 81.5168 142.348 80.5919 143.379 79.2345C142.604 80.6896 140.517 81.7048 139.427 82.0056C138.337 82.3064 136.152 82.8742 135.4 83.1449C134.524 83.4252 133.675 83.7865 132.866 84.224Z" fill="white"/>
<path d="M143.98 76.8882C144.531 76.0811 145.173 75.3404 145.894 74.6811C146.573 74.1406 147.375 73.7763 148.229 73.6208C149.06 73.5305 150.485 73.4591 150.703 73.4177C150 73.6508 148.605 73.711 148.15 73.7712C147.252 73.9805 146.419 74.4079 145.725 75.0157C145.085 75.5824 144.501 76.2095 143.98 76.8882Z" fill="white"/>
<path d="M153.392 73.9366C154.301 73.2504 155.128 72.4605 155.854 71.5829C156.467 70.8625 157.175 70.2299 157.96 69.7029C158.848 69.2059 159.839 68.919 160.855 68.8644C160.479 68.9283 158.885 69.1802 157.787 70.0375C156.856 70.7682 156.003 71.5935 155.242 72.5003C154.711 73.0805 154.085 73.5662 153.392 73.9366Z" fill="white"/>
<path opacity="0.03" d="M124.522 74.4067V76.3356L161.228 55.1442V53.2153L124.522 74.4067Z" fill="black"/>
<path d="M143.085 55.4863C142.815 56.4075 141.435 60.5811 141.363 60.897C141.258 61.3783 140.611 62.4386 140.969 62.604C141.581 62.901 142.074 62.7582 142.273 62.3935C142.544 61.8934 144.793 57.6634 145.018 56.6895C145.244 55.7157 145.669 52.3655 145.883 51.5496C146.172 50.4404 146.669 46.8496 146.669 46.8496C145.733 47.1542 144.495 47.4512 144.112 48.2558C143.668 49.1808 143.623 49.8839 143.39 52.3054C143.247 53.8432 143.085 55.4863 143.085 55.4863Z" fill="#F28F8F"/>
<path d="M145.413 54.3509L145.071 49.6847C144.929 50.4569 144.882 51.2436 144.932 52.0272C144.954 52.5197 145.225 55.5503 145.225 55.5503L145.413 54.3509Z" fill="#B16668"/>
<path d="M134.956 57.0092C134.956 57.0092 136.761 58.938 137.438 59.6863C137.84 60.13 139.694 61.0098 140.092 61.4121C140.186 61.543 140.238 61.6988 140.243 61.8596C140.292 62.2356 140.405 62.3371 140.45 62.7206C140.483 63.0214 140.472 63.1304 140.536 63.138C140.6 63.1455 140.792 63.0853 140.882 62.8071C140.928 62.6106 140.959 62.4106 140.972 62.2092C141.128 62.4938 141.235 62.8027 141.288 63.1229C141.431 63.8749 141.886 63.6343 142.224 63.1643C142.6 62.6191 142.559 62.0175 141.882 60.9083C141.61 60.5147 141.275 60.1691 140.89 59.8856C140.05 59.2974 139.249 58.6543 138.494 57.9604C137.679 56.8324 136.408 54.8772 135.611 54.4373C135.047 54.1252 134.137 54.5125 133.437 54.9336C133.887 55.665 134.395 56.3591 134.956 57.0092Z" fill="#B16668"/>
<path d="M140.856 62.3483C140.972 62.0851 141.262 61.4948 141.476 61.5963C141.621 61.7276 141.735 61.8879 141.813 62.0668C141.891 62.2457 141.93 62.439 141.927 62.6341C141.901 62.9838 141.469 63.2846 141.551 63.5854C141.115 63.7433 140.615 62.9086 140.856 62.3483Z" fill="#F28F8F"/>
<path d="M139.006 67.0671C138.908 66.9167 138.773 66.7324 138.607 66.5181L135.313 62.258L135.118 60.9082C135.278 60.3818 135.404 59.8455 135.494 59.3027C136.46 58.1295 136.22 57.1632 135.893 56.4864C135.238 55.1366 134.731 54.4034 134.107 54.5801L132.257 55.1667C131.32 55.5126 130.681 55.7795 130.456 55.8848C129.877 56.1593 129.884 56.5992 129.835 57.2572C129.779 57.8511 129.809 58.45 129.922 59.0357L130.598 60.8631L130.753 61.8219C130.753 61.8219 130.568 62.1264 130.301 62.6265C129.658 63.7545 128.827 65.2397 128.967 67.1385C129.099 68.4486 129.318 69.7487 129.621 71.0301C130.049 73.2485 130.474 75.309 130.474 75.309C130.19 76.1917 130.053 77.1152 130.068 78.0425C130.121 79.7759 130.234 81.6822 130.207 82.6936C130.207 82.9155 130.189 83.3742 130.189 83.3742V83.22C130.162 83.6449 130.136 83.8818 130.034 84.9346C129.95 85.5866 129.806 86.2297 129.606 86.8559C129.518 87.1792 129.509 87.5188 129.581 87.8461C129.652 88.1734 129.801 88.4786 130.016 88.7359C130.429 89.33 131.042 89.0819 131.422 88.5592C132.072 87.6681 131.956 86.8221 131.847 86.0287C131.738 85.2354 131.64 84.5999 131.64 84.0623C131.61 83.3103 131.64 83.1975 131.606 82.8628C131.644 82.6335 131.708 82.3139 131.741 82.1108C132.155 79.7721 132.493 78.9299 132.809 75.6211C132.921 75.0846 132.992 74.5403 133.02 73.993C133.02 73.5004 133.061 72.7747 133.114 71.737C133.2 70.0563 133.208 68.2176 133.193 66.7399C134.129 67.8153 135.295 68.5297 136.37 69.5712C135.389 71.1467 135.37 73.4628 135.182 74.9894C135.077 75.8617 135.073 76.0535 135.001 76.6851C134.94 76.767 134.868 76.8403 134.787 76.9032C134.532 77.0585 134.312 77.2645 134.14 77.5086C133.892 77.9147 134.065 78.4899 134.17 78.9073C134.274 79.3469 134.259 79.806 134.129 80.2383C133.975 80.9151 133.975 81.4378 134.426 81.889C134.783 82.265 135.93 82.5094 136.355 82.1334C137.054 81.4942 136.069 80.7008 136.096 80.0729C136.132 79.1306 136.235 78.192 136.404 77.2642C136.802 75.9933 137.178 75.0646 137.682 73.5042C137.979 72.5642 138.487 71.0978 138.848 69.8307C139.104 68.8907 139.449 67.7589 139.006 67.0671ZM131.576 82.9267C131.578 82.9105 131.578 82.8941 131.576 82.8779V82.9267ZM131.557 83.0771C131.557 83.0508 131.557 83.017 131.557 82.9794V83.0771Z" fill="#B16668"/>
<path d="M133.174 66.7701C133.174 66.7701 133.11 64.7472 129.414 64.4125C129.482 64.2075 129.568 64.0088 129.67 63.8185C130.568 63.8185 131.599 64.3449 133.633 63.7169C134.365 63.4667 134.972 62.9443 135.329 62.2581C135.43 62.3447 135.513 62.4508 135.573 62.5701C135.573 62.5701 135.325 63.2883 134.919 64.1794C134.616 64.8356 134.268 65.4701 133.877 66.0782C133.452 66.6911 133.174 66.7701 133.174 66.7701Z" fill="#263238"/>
<path d="M134.084 62.5551C134.082 62.5856 134.071 62.6147 134.052 62.6388C134.033 62.6629 134.008 62.6809 133.979 62.6905C133.966 62.6942 133.953 62.6949 133.941 62.6924C133.928 62.6899 133.916 62.6843 133.906 62.6761C133.896 62.6679 133.888 62.6574 133.883 62.6455C133.878 62.6336 133.876 62.6206 133.877 62.6077C133.879 62.5773 133.891 62.5482 133.909 62.5241C133.928 62.5 133.954 62.482 133.983 62.4724C133.995 62.4686 134.008 62.468 134.021 62.4705C134.033 62.473 134.045 62.4786 134.055 62.4867C134.065 62.4949 134.073 62.5054 134.078 62.5173C134.083 62.5293 134.085 62.5422 134.084 62.5551Z" fill="#9A4A4D"/>
<path d="M135.851 56.4189L135.099 55.4939C135.099 55.4939 135.908 56.1707 136.002 56.2459C136.096 56.3211 136.021 56.9979 136.021 56.9979L135.851 56.4189Z" fill="#9A4A4D"/>
<path d="M130.083 59.4945C130.083 59.4945 130.508 59.0132 131.17 58.4116C132.061 57.6032 133.712 57.0655 134.611 57.9792C134.611 57.9792 135.205 56.6557 135.851 56.4188C135.923 56.4188 137.355 57.513 135.475 59.3027C135.33 59.3671 135.17 59.3933 135.012 59.3789C134.853 59.3644 134.701 59.3097 134.569 59.22C134.256 59.7337 133.806 60.1492 133.268 60.4195C132.71 60.7117 132.085 60.8518 131.456 60.8255C131.134 60.8182 130.813 60.7741 130.501 60.6939C130.307 60.3155 130.166 59.9118 130.083 59.4945Z" fill="#263238"/>
<path d="M131.52 54.4485C131.287 54.5049 131.125 54.1891 130.948 53.9033C130.667 53.3088 130.435 52.6927 130.253 52.0609C130.098 51.5834 130.072 50.4403 130.817 50.1433C130.818 49.9016 130.867 49.6625 130.962 49.4399C131.056 49.2173 131.193 49.0155 131.366 48.8461C131.948 48.2671 132.655 48.3197 133.246 47.8948C133.836 47.4699 133.956 47.203 134.49 47.1616C134.583 47.1636 134.674 47.1878 134.756 47.2322C134.838 47.2765 134.908 47.3398 134.96 47.4168C135.012 47.4937 135.045 47.582 135.056 47.6743C135.068 47.7666 135.056 47.8603 135.024 47.9475C135.024 47.9475 135.678 47.4173 136.088 47.9475C136.154 48.0602 136.197 48.1851 136.214 48.3148C136.231 48.4445 136.222 48.5762 136.187 48.7022C136.152 48.8282 136.091 48.9458 136.01 49.048C135.928 49.1503 135.827 49.2351 135.712 49.2973C135.791 49.4046 135.839 49.5316 135.85 49.6643C135.861 49.797 135.836 49.9303 135.776 50.0493C135.705 50.2109 135.588 50.3479 135.44 50.443C135.291 50.538 135.118 50.5868 134.941 50.5832L131.52 54.4485Z" fill="#263238"/>
<path d="M130.67 49.7862C130.556 49.7843 130.444 49.8201 130.352 49.8881C130.261 49.956 130.194 50.0524 130.162 50.1622L130.892 50.26C130.971 50.0268 130.888 49.8125 130.67 49.7862Z" fill="#263238"/>
<path d="M134.592 48.9628C134.907 49.0793 135.302 49.8238 135.265 51.6136C135.231 53.1176 134.768 53.6327 134.535 53.8019C134.185 53.9758 133.799 54.0671 133.407 54.0688V54.975C133.407 54.975 134.61 56.0428 133.61 56.4489C133.351 56.5257 133.079 56.547 132.812 56.5113C132.544 56.4757 132.287 56.384 132.057 56.2421C131.778 56.0556 131.58 55.769 131.505 55.4412V53.4635C131.463 53.5122 131.412 53.5521 131.355 53.581C131.297 53.6098 131.235 53.627 131.171 53.6316C131.107 53.6361 131.043 53.6279 130.982 53.6075C130.921 53.587 130.865 53.5547 130.817 53.5124C130.729 53.4521 130.653 53.375 130.595 53.2855C130.538 53.196 130.498 53.0958 130.479 52.9908C130.46 52.8859 130.462 52.7782 130.485 52.6741C130.508 52.57 130.552 52.4715 130.614 52.3844C130.896 52.0084 131.411 51.952 131.61 52.328C131.61 52.328 131.866 52.2791 132.121 51.7113C132.584 51.6342 133.011 51.4177 133.347 51.0909C133.977 50.5314 134.413 49.7861 134.592 48.9628Z" fill="#B16668"/>
<path d="M133.422 51.6361C133.423 51.6907 133.406 51.7442 133.375 51.7892C133.344 51.8343 133.3 51.8687 133.249 51.888C133.228 51.8952 133.204 51.8971 133.182 51.8935C133.159 51.8899 133.138 51.8809 133.119 51.8673C133.101 51.8536 133.086 51.8357 133.076 51.8151C133.066 51.7945 133.061 51.7718 133.061 51.7489C133.061 51.6948 133.077 51.6419 133.107 51.597C133.137 51.5521 133.18 51.5172 133.231 51.4969C133.252 51.4889 133.276 51.4864 133.299 51.4897C133.322 51.4929 133.344 51.5018 133.363 51.5155C133.382 51.5292 133.398 51.5474 133.408 51.5684C133.418 51.5895 133.423 51.6127 133.422 51.6361Z" fill="#263238"/>
<path d="M133.644 52.8392L134.204 52.8806C134.188 52.9682 134.142 53.0473 134.073 53.1037C134.004 53.1602 133.918 53.1904 133.828 53.1889C133.686 53.1776 133.595 53.016 133.644 52.8392Z" fill="#9A4A4D"/>
<path d="M135.043 50.6096L134.667 50.4404C134.69 50.382 134.734 50.3344 134.79 50.3072C134.847 50.28 134.911 50.2752 134.971 50.2937C134.997 50.3094 135.019 50.3302 135.037 50.3547C135.055 50.3793 135.067 50.4071 135.074 50.4365C135.081 50.466 135.081 50.4965 135.076 50.5262C135.07 50.5559 135.059 50.5843 135.043 50.6096Z" fill="#263238"/>
<path d="M133.17 51.0344L132.757 51.3127C132.738 51.252 132.739 51.1866 132.761 51.1268C132.783 51.067 132.823 51.016 132.877 50.9818C132.899 50.9631 132.924 50.9495 132.952 50.942C132.979 50.9344 133.008 50.9332 133.036 50.9382C133.064 50.9432 133.091 50.9545 133.114 50.9712C133.137 50.9878 133.157 51.0094 133.17 51.0344Z" fill="#263238"/>
<path d="M134.945 51.1849C134.945 51.2395 134.929 51.293 134.898 51.338C134.867 51.3831 134.823 51.4176 134.772 51.4368C134.75 51.4441 134.727 51.446 134.704 51.4424C134.682 51.4388 134.66 51.4297 134.642 51.4161C134.623 51.4025 134.609 51.3846 134.598 51.364C134.588 51.3433 134.583 51.3206 134.584 51.2977C134.584 51.2436 134.6 51.1907 134.63 51.1458C134.66 51.1009 134.703 51.066 134.753 51.0458C134.775 51.0377 134.799 51.0352 134.822 51.0385C134.845 51.0417 134.867 51.0506 134.886 51.0643C134.905 51.0781 134.92 51.0963 134.931 51.1173C134.941 51.1383 134.946 51.1615 134.945 51.1849Z" fill="#263238"/>
<path d="M134.084 51.309L134.11 52.4445L134.678 52.1023L134.084 51.309Z" fill="#9A4A4D"/>
<path d="M133.419 54.0688C132.96 54.129 132.016 54.0951 131.869 53.7379C131.923 53.9139 132.041 54.0631 132.2 54.1553C132.593 54.2902 133.004 54.3625 133.419 54.3696V54.0688Z" fill="#9A4A4D"/>
<path d="M126.752 53.8357C127.748 56.3285 129.094 57.4829 129.91 59.0357C131.366 58.7725 131.486 56.5466 130.85 55.7081C130.85 55.7081 128.391 53.0761 128.192 51.9181C128.019 50.9029 127.617 49.3161 127.673 48.4137C127.688 48.2541 127.749 48.1023 127.85 47.9776C128.052 47.6558 128.214 47.3112 128.335 46.9511C128.482 46.6465 128.636 46.5074 128.594 46.4585C128.553 46.4097 128.373 46.3269 128.147 46.5262C128.017 46.6559 127.899 46.7982 127.797 46.9511C127.857 46.5971 127.958 46.2513 128.098 45.9209C128.429 45.1125 128.369 44.7515 127.429 45.2328C126.839 45.5298 126.451 46.1352 126.301 47.658C126.241 48.2828 126.217 48.9105 126.229 49.538C126.29 50.666 126.365 51.7489 126.463 52.6776C126.507 53.0748 126.604 53.4642 126.752 53.8357Z" fill="#B16668"/>
<path d="M143.777 65.9692C143.702 66.2437 143.71 66.9919 145.368 67.304C147.026 67.6161 147.428 67.2251 147.519 66.8791C147.563 66.5171 147.493 66.1502 147.318 65.8299C147.144 65.5097 146.873 65.2521 146.545 65.0931C145.669 64.7209 143.932 65.048 143.777 65.9692Z" fill="#263238"/>
<path d="M160.314 65.8489C160.077 65.4979 159.82 65.1615 159.543 64.8412C159.493 64.7708 159.449 64.6966 159.411 64.6193C159.337 64.492 159.284 64.3537 159.254 64.2095C159.242 64.0269 159.214 63.8457 159.171 63.6681C159.126 63.4647 159.015 63.282 158.855 63.1492C158.745 63.0626 158.61 63.0121 158.471 63.0047C158.331 62.9973 158.192 63.0333 158.073 63.1078C157.905 63.2121 157.752 63.3386 157.618 63.4838C157.498 63.6079 157.404 63.7658 157.283 63.8824C156.89 64.2275 156.427 64.484 155.926 64.6344L154.772 65.048L152.745 65.8L152.621 65.8451C152.621 65.8451 152.737 61.4722 152.448 58.0093C152.305 56.1631 151.726 52.1361 151.726 52.1361L152.143 47.5301C152.117 46.9661 151.805 44.8117 151.391 45.1463C150.832 45.4779 150.241 45.7537 149.628 45.9697C149.628 45.9697 148.248 46.3119 147.18 46.6729C146.173 47.0113 145.541 47.3158 145.123 49.4703C144.789 51.1849 145.906 55.7984 145.499 57.8589C145.498 57.8814 145.498 57.904 145.499 57.9265C144.693 61.6443 144.083 65.402 143.672 69.184C143.571 70.2142 143.695 70.4398 144.507 71.5979C145.635 73.2222 147.601 75.2526 148.955 76.8318L149.087 77.0161C149.183 77.1666 149.235 77.3412 149.237 77.5199C149.268 77.836 149.275 78.1541 149.256 78.4712C149.238 78.7233 149.206 78.9743 149.162 79.2232C148.997 80.0015 148.702 80.7464 148.289 81.4265C148.169 81.6409 148.041 81.9078 148.135 82.0883C148.18 82.1426 148.239 82.1833 148.305 82.2059C148.371 82.2285 148.443 82.232 148.511 82.2161C148.977 82.158 149.413 81.954 149.756 81.6333C150.142 81.2872 150.435 80.8504 150.609 80.3625C150.861 79.6443 150.839 78.881 151.173 78.1929C151.316 77.8921 151.519 77.6289 151.662 77.3281C151.742 77.1953 151.791 77.0457 151.803 76.891C151.815 76.7363 151.792 76.5809 151.734 76.437C151.68 76.3604 151.611 76.2962 151.531 76.249C151.155 76.0009 150.662 75.8993 150.403 75.3466L150.342 75.2113C148.699 72.6206 148.861 69.6615 146.703 68.6049C147.455 66.4843 148.105 64.123 148.786 61.8369C148.929 63.0777 149.436 67.1348 149.985 68.6764C150.331 69.6465 150.925 70.0826 151.978 69.4961C152.764 69.0599 153.542 68.5673 154.317 68.0823C155.091 67.5973 155.918 67.0709 156.716 66.5595C156.97 66.382 157.238 66.2237 157.516 66.0857C157.582 66.0502 157.657 66.037 157.731 66.0481C157.776 66.0637 157.816 66.091 157.847 66.1271C158.019 66.2862 158.17 66.4669 158.295 66.6648C158.566 67.0888 158.793 67.5399 158.972 68.0109C159.062 68.2402 159.122 68.4884 159.208 68.7177C159.223 68.7599 159.246 68.7984 159.277 68.8308C159.308 68.8633 159.345 68.8888 159.386 68.9059C159.427 68.9229 159.472 68.9311 159.516 68.9297C159.561 68.9284 159.604 68.9177 159.645 68.8982C159.784 68.8204 159.901 68.7093 159.987 68.5749C160.283 68.1648 160.474 67.6884 160.543 67.1874C160.608 66.7282 160.527 66.2604 160.314 65.8489Z" fill="#F28F8F"/>
<path d="M147.808 55.7683C147.811 55.809 147.802 55.8497 147.781 55.8848C147.76 55.9198 147.729 55.9475 147.692 55.9638C147.676 55.9716 147.658 55.9752 147.641 55.9743C147.623 55.9733 147.606 55.9678 147.592 55.9584C147.577 55.9489 147.565 55.9358 147.557 55.9202C147.548 55.9047 147.544 55.8873 147.545 55.8698C147.541 55.8291 147.551 55.7884 147.572 55.7533C147.593 55.7183 147.624 55.6906 147.661 55.6743C147.677 55.6665 147.695 55.6629 147.712 55.6638C147.73 55.6648 147.747 55.6703 147.761 55.6798C147.776 55.6892 147.788 55.7023 147.796 55.7179C147.805 55.7334 147.809 55.7508 147.808 55.7683Z" fill="#B16668"/>
<path d="M145.518 57.607C145.518 57.607 144.127 63.247 143.777 65.9692C144.128 65.6972 144.543 65.5198 144.982 65.4539C145.421 65.3881 145.87 65.4361 146.285 65.5932C147.248 65.9692 147.462 66.2625 147.519 66.8867L148.613 62.8409L149.233 66.819C149.233 66.819 151.666 66.631 152.895 64.9089C152.895 64.7698 152.752 60.1864 152.613 58.4643C152.563 57.5915 152.438 56.7247 152.237 55.8737C152.237 55.8737 150.12 57.0017 148.496 57.2987C147.512 57.4737 146.517 57.5768 145.518 57.607Z" fill="#37474F"/>
<path d="M145.552 56.8361C145.518 57.0917 145.502 57.3492 145.503 57.6069C145.503 57.6069 146.383 58.0957 148.015 57.7573C149.647 57.4189 152.207 55.8773 152.207 55.8773C152.189 55.6104 152.151 55.3246 152.102 55.0276C152.102 55.0276 149.696 56.4789 148.105 56.8512C147.269 57.0844 146.385 57.0792 145.552 56.8361Z" fill="#263238"/>
<path d="M148.613 62.8333L148.286 60.9533C147.982 60.9182 147.69 60.8135 147.433 60.6472C147.176 60.4809 146.961 60.2575 146.804 59.9945C146.883 60.2932 147.024 60.5718 147.218 60.8117C147.413 61.0516 147.656 61.2473 147.932 61.3857L148.248 62.8634L147.699 66.1722L148.613 62.8333Z" fill="#263238"/>
<path d="M156.456 43.1384C156.054 43.6799 152.219 48.0264 151.989 49.0228C150.376 48.3122 150.827 45.5035 151.376 45.1387C152.585 44.1261 153.717 43.0238 154.76 41.8412C154.857 41.7016 154.932 41.5482 154.982 41.3863C155.076 41.0967 155.911 37.5661 155.964 36.4983C155.97 36.4136 155.958 36.3285 155.929 36.2488C155.9 36.169 155.854 36.0964 155.794 36.0358C155.548 35.7535 155.356 35.4286 155.227 35.077C155.08 34.7875 154.903 34.701 154.96 34.622C155.02 34.5383 155.108 34.4777 155.208 34.4504C155.307 34.423 155.414 34.4305 155.509 34.4716C155.678 34.5733 155.832 34.7001 155.964 34.8476C155.953 34.4608 155.874 34.0789 155.73 33.7196C155.415 32.9263 155.535 32.4675 156.652 32.5465C157.351 32.5991 157.934 33.1556 157.926 34.8927C157.886 35.5345 157.809 36.1734 157.697 36.8066C157.479 38.2918 157.291 40.6079 157.114 41.7585C157.025 42.2699 156.797 42.7472 156.456 43.1384Z" fill="#F28F8F"/>
<path d="M148.808 41.108C148.83 41.6718 148.676 42.2283 148.366 42.7001C148.057 43.1719 147.608 43.5355 147.082 43.74C146.071 44.0596 145.202 43.4129 145.15 42.2887C145.126 41.7246 145.28 41.1673 145.59 40.6952C145.899 40.223 146.349 39.8598 146.876 39.6567C147.883 39.3371 148.748 39.9876 148.808 41.108Z" fill="#263238"/>
<path d="M150.211 42.1309C150.211 42.1309 149.993 43.7702 149.887 44.0635C149.82 44.2432 149.699 44.3981 149.541 44.5072L149.508 43.413L150.211 42.1309Z" fill="#263238"/>
<path d="M149.726 40.0327C149.817 39.9876 149.919 39.9677 150.021 39.975C150.123 39.9822 150.221 40.0164 150.305 40.074C150.564 40.2733 150.474 41.202 150.211 42.1308L149.658 42.3789L149.726 40.0327Z" fill="#263238"/>
<path d="M149.489 42.4315C149.605 42.4729 149.752 42.1834 149.865 41.9766C149.978 41.7698 150.433 41.4088 150.684 41.8638C150.936 42.3187 150.549 43.1723 150.203 43.4091C149.602 43.819 149.489 43.4091 149.489 43.4091L149.571 45.9471C148.865 47.2744 146.748 47.9324 147.567 46.5224L147.537 45.6952C147.275 45.8279 146.999 45.9312 146.714 46.0035C146.263 46.0712 145.962 45.7667 145.796 45.2515C145.533 44.4507 145.42 43.7776 145.514 42.0067C145.535 41.6368 145.641 41.2765 145.822 40.9536C146.004 40.6306 146.257 40.3535 146.562 40.1434C146.867 39.9333 147.216 39.7958 147.583 39.7414C147.949 39.687 148.324 39.7172 148.677 39.8296C149.79 40.2583 149.489 42.4315 149.489 42.4315Z" fill="#F28F8F"/>
<path d="M149.5 42.6422C149.556 42.6422 149.752 42.1609 149.876 41.9767C150.06 41.721 149.718 40.0327 149.718 40.0327C149.777 39.8789 149.791 39.7115 149.759 39.5499C149.727 39.3883 149.65 39.239 149.538 39.1191C149.259 38.8822 148.868 38.6039 147.676 39.1416C146.827 39.5176 145.913 40.1192 145.138 39.95C145.052 40.5065 145.172 41.0555 145.661 41.3187C145.993 41.3925 146.337 41.3848 146.665 41.2961C147.345 41.1348 148.009 40.9095 148.646 40.6231C148.853 40.5253 148.906 40.7359 149.049 41.3111C149.184 41.815 149.312 42.6986 149.5 42.6422Z" fill="#263238"/>
<path d="M149.733 40.1681L150.388 39.5515C150.36 39.5088 150.323 39.4732 150.279 39.4477C150.235 39.4223 150.186 39.4076 150.135 39.4051C150.084 39.4025 150.034 39.4121 149.987 39.4329C149.941 39.4538 149.9 39.4854 149.869 39.5252C149.781 39.6044 149.721 39.7093 149.697 39.8247C149.673 39.9402 149.685 40.0604 149.733 40.1681Z" fill="#263238"/>
<path d="M147.556 45.699C148.023 45.448 148.468 45.1588 148.887 44.8342C149.091 44.6451 149.249 44.4107 149.346 44.1499C149.303 44.3995 149.22 44.6406 149.102 44.8643C148.865 45.3117 147.567 45.9923 147.567 45.9923L147.556 45.699Z" fill="#B16668"/>
<path d="M147.65 42.7362C147.648 42.763 147.653 42.7899 147.664 42.8145C147.674 42.839 147.691 42.8605 147.713 42.8769C147.734 42.8934 147.759 42.9042 147.785 42.9085C147.812 42.9128 147.839 42.9105 147.864 42.9016C147.923 42.8781 147.973 42.8367 148.006 42.7834C148.04 42.7301 148.056 42.6676 148.052 42.6046C148.055 42.5778 148.05 42.5509 148.039 42.5263C148.028 42.5018 148.011 42.4803 147.99 42.4639C147.969 42.4474 147.944 42.4366 147.917 42.4323C147.891 42.428 147.864 42.4303 147.838 42.4392C147.78 42.4632 147.731 42.5046 147.697 42.5578C147.663 42.611 147.647 42.6733 147.65 42.7362Z" fill="#263238"/>
<path d="M147.808 41.8224L148.252 41.9503C148.268 41.9198 148.277 41.8864 148.28 41.8521C148.283 41.8178 148.279 41.7833 148.268 41.7506C148.257 41.718 148.24 41.6878 148.217 41.6621C148.194 41.6363 148.166 41.6154 148.135 41.6006C148.063 41.5918 147.99 41.6095 147.93 41.6502C147.87 41.691 147.827 41.7522 147.808 41.8224Z" fill="#263238"/>
<path d="M147.579 44.3267L147.127 44.6651C147.14 44.6949 147.16 44.7213 147.185 44.7421C147.209 44.7628 147.239 44.7773 147.271 44.7843C147.302 44.7913 147.335 44.7906 147.367 44.7823C147.398 44.774 147.427 44.7583 147.451 44.7365C147.511 44.6894 147.556 44.6249 147.579 44.5516C147.602 44.4784 147.602 44.3999 147.579 44.3267Z" fill="#B16668"/>
<path d="M145.823 42.6497L146.199 42.1872C146.174 42.1647 146.145 42.148 146.113 42.1384C146.081 42.1287 146.048 42.1263 146.015 42.1314C145.982 42.1364 145.951 42.1488 145.923 42.1676C145.896 42.1863 145.873 42.211 145.857 42.2398C145.805 42.2943 145.774 42.3644 145.768 42.4388C145.762 42.5132 145.781 42.5875 145.823 42.6497Z" fill="#263238"/>
<path d="M145.973 43.2062C145.971 43.233 145.976 43.2599 145.987 43.2844C145.997 43.309 146.014 43.3305 146.036 43.3469C146.057 43.3633 146.082 43.3742 146.108 43.3785C146.135 43.3828 146.162 43.3804 146.187 43.3716C146.246 43.3481 146.296 43.3067 146.329 43.2534C146.363 43.2001 146.379 43.1375 146.375 43.0746C146.378 43.048 146.374 43.021 146.364 42.9964C146.354 42.9717 146.337 42.9501 146.316 42.9335C146.295 42.917 146.27 42.9061 146.244 42.9018C146.217 42.8975 146.19 42.9001 146.165 42.9091C146.106 42.9325 146.056 42.9737 146.022 43.027C145.987 43.0802 145.97 43.1429 145.973 43.2062Z" fill="#263238"/>
<path d="M146.988 42.6647L146.992 44.0333L146.349 43.9919L146.988 42.6647Z" fill="#B16668"/>
<path d="M120.492 95.9816V102.75C120.491 102.944 120.542 103.135 120.639 103.303C120.736 103.471 120.876 103.611 121.044 103.708C121.212 103.805 121.403 103.856 121.597 103.856C121.791 103.857 121.982 103.805 122.15 103.708L128 100.324C128 100.324 124.436 97.0832 120.492 95.9816Z" fill="#263238"/>
<path d="M162.31 17.7246L155.599 21.6312C158.456 24.1091 160.618 25.6206 163.871 26.5794V18.6232C163.871 18.4405 163.823 18.2609 163.732 18.1027C163.641 17.9444 163.509 17.813 163.351 17.7218C163.192 17.6307 163.013 17.5829 162.83 17.5834C162.647 17.5839 162.468 17.6326 162.31 17.7246Z" fill="#263238"/>
<path opacity="0.2" d="M129.516 109.66C129.352 108.947 129.375 108.204 129.583 107.502V107.483C129.811 106.601 130.26 105.792 130.888 105.133C131.926 104.096 133.163 104.626 133.625 105.716C133.422 104.366 133.907 102.125 134.949 101.091C135.554 100.486 136.186 100.264 136.701 100.399C136.947 100.485 137.167 100.634 137.336 100.832C137.505 101.031 137.618 101.271 137.664 101.527C138.197 103.49 136.994 106.066 136.088 108.604L135.054 111.134L133.441 111.243C131.843 111.217 130.05 111.623 129.516 109.66Z" fill="black"/>
<path d="M130.136 109.416C129.972 108.702 129.995 107.957 130.204 107.254C130.43 106.372 130.879 105.563 131.508 104.904C132.546 103.866 133.783 104.393 134.246 105.483C134.043 104.133 134.528 101.892 135.569 100.858C136.175 100.257 136.806 100.031 137.321 100.166C137.568 100.252 137.787 100.401 137.956 100.599C138.125 100.798 138.239 101.038 138.284 101.294C138.818 103.257 137.615 105.836 136.709 108.374L135.675 110.901L134.062 111.01C132.471 110.95 130.678 111.36 130.136 109.416Z" fill="#92E3A9"/>
<path d="M155.655 91.541C155.593 91.4713 155.519 91.4128 155.437 91.368C154.851 91.0159 154.297 90.6146 153.779 90.1686C153.279 89.74 152.858 89.2248 152.358 88.7962C152.162 88.6308 151.756 88.6721 151.722 88.9729C151.604 90.3313 151.116 91.6315 150.312 92.7329C150.241 92.8307 150.165 92.9698 150.244 93.06C150.273 93.0888 150.31 93.1084 150.35 93.1164C151.027 93.327 151.44 92.3344 151.669 91.8606C151.882 91.4241 152.067 90.9745 152.222 90.5145C152.254 90.8897 152.261 91.2664 152.245 91.6425C152.218 92.4369 152.128 93.2278 151.974 94.0076C151.588 95.7875 150.831 97.4659 149.752 98.9332C148.715 100.293 147.441 101.454 145.992 102.362C144.42 103.381 142.634 103.866 140.871 104.193C140.465 104.272 140.871 104.844 141.187 104.814C142.723 104.65 144.218 104.209 145.597 103.513C146.875 102.845 148.033 101.968 149.022 100.918C151.087 98.7828 152.688 96.0304 152.959 93.0224C153.079 92.1807 153.064 91.3252 152.914 90.4882C153.037 90.6387 153.17 90.7807 153.313 90.9131C153.616 91.1771 153.949 91.4055 154.305 91.5936C154.614 91.7591 155.057 92.0749 155.433 92.0072C155.515 91.9953 155.589 91.954 155.643 91.891C155.696 91.8279 155.725 91.7476 155.723 91.6651C155.712 91.6184 155.688 91.5755 155.655 91.541Z" fill="#FAFAFA"/>
<path d="M65.7609 93.4548C65.0879 88.8075 65.7008 84.2955 67.3928 82.6035C68.6411 81.3551 69.5097 82.5734 69.9947 85.9423C70.6677 90.5935 70.0361 95.1243 68.3516 96.8087C67.1033 98.0533 66.246 96.8275 65.7609 93.4548ZM69.645 86.3108C69.2164 83.3479 68.517 82.2575 67.4642 83.3028C66.0053 84.7655 65.5015 88.8563 66.1181 93.1202C66.543 96.0605 67.2236 97.1321 68.2689 96.0868C69.7315 94.6317 70.2541 90.5408 69.645 86.3183V86.3108Z" fill="white"/>
<path d="M67.468 97.3841C67.3851 97.3848 67.3025 97.3721 67.2236 97.3465C66.5167 97.1096 66.0054 95.8425 65.6595 93.4699C64.9714 88.6985 65.6595 84.2015 67.3214 82.532C67.7538 82.0996 68.1599 81.9417 68.5283 82.0658C69.239 82.3027 69.7541 83.5698 70.0963 85.9311C70.7843 90.7025 70.0963 95.207 68.4231 96.8765C68.1843 97.1652 67.8409 97.3477 67.468 97.3841ZM65.8587 93.4436C66.2648 96.2523 66.8589 97.0118 67.2875 97.1547C67.5733 97.2487 67.9079 97.1096 68.2839 96.7373C69.9158 95.1055 70.5775 90.6725 69.897 85.9574C69.4909 83.1562 68.8931 82.3967 68.4644 82.2538C68.1749 82.1598 67.8403 82.2989 67.4643 82.6749C65.8399 84.2993 65.1782 88.7361 65.8587 93.4436ZM67.5507 96.5832C67.4817 96.5829 67.4131 96.5715 67.3477 96.5493C66.7499 96.3501 66.325 95.2672 66.0167 93.1353C65.385 88.7511 65.949 84.679 67.3928 83.2352C67.7688 82.8817 68.0847 82.7539 68.3855 82.8592C68.9946 83.0584 69.4383 84.1864 69.7428 86.3071C70.3707 90.6574 69.7955 94.7145 68.3403 96.1658C68.1417 96.4026 67.8583 96.5524 67.5507 96.5832ZM68.1824 83.0209C67.9289 83.0523 67.6973 83.1802 67.5357 83.378C66.1332 84.7805 65.5918 88.7812 66.2159 93.1089C66.5055 95.098 66.9078 96.1921 67.4116 96.3576C67.6335 96.4328 67.9004 96.32 68.1975 96.0192C69.6112 94.6092 70.1639 90.6236 69.5435 86.3334C69.254 84.3218 68.8442 83.2164 68.3253 83.0434C68.2792 83.0283 68.231 83.0207 68.1824 83.0209Z" fill="white"/>
<path d="M76.4996 86.2732C76.3004 87.9126 75.9056 89.2587 75.428 89.7362C75.0107 90.1535 74.7663 89.7775 74.6309 88.6495C74.2286 90.2701 73.7548 91.4094 73.1871 91.9771C72.3824 92.7818 71.9538 91.9245 71.8372 90.2212L71.4124 83.9082L71.7244 83.4645L72.1456 89.7362C72.2471 91.2966 72.5479 91.9057 73.1758 91.2778C73.6308 90.8266 74.1797 89.5219 74.5595 87.9239L74.112 81.216L74.4204 80.7723L74.864 87.2884C74.9768 88.9729 75.1385 89.2549 75.4318 88.9616C75.8078 88.5856 76.1199 87.4087 76.2778 86.0551L76.4996 86.2732Z" fill="white"/>
<path d="M72.6381 92.3833C72.5804 92.3827 72.5232 92.3726 72.4689 92.3532C72.0703 92.2028 71.8222 91.4846 71.7394 90.225L71.3108 83.8781L71.8033 83.175L72.232 89.7325C72.3185 91.0109 72.5215 91.353 72.6794 91.4094C72.8373 91.4658 72.9765 91.3267 73.0968 91.2064C73.5405 90.759 74.0857 89.4392 74.4466 87.9164L73.9992 81.1785L74.4955 80.4753L74.9505 87.2809C75.0445 88.6834 75.1723 88.9354 75.24 88.9617C75.24 88.9617 75.2776 88.9617 75.3453 88.8902C75.6837 88.5518 75.9957 87.4614 76.1649 86.0439L76.1875 85.8409L76.5936 86.2169V86.2657C76.3868 87.9953 75.9732 89.3113 75.4957 89.7889C75.3265 89.9581 75.1723 90.0145 75.0294 89.9656C74.8865 89.9167 74.6985 89.6347 74.6008 89.1271C74.2248 90.5672 73.7661 91.5185 73.2547 92.0298C73.1033 92.2238 72.882 92.3507 72.6381 92.3833ZM71.5101 83.9345L71.9349 90.2137C72.0402 91.7516 72.3561 92.0937 72.5365 92.1652C72.717 92.2366 72.8825 92.1351 73.1118 91.9057C73.6457 91.3756 74.1233 90.2701 74.5293 88.6233L74.6647 88.0893L74.7286 88.6383C74.8377 89.5746 75.0069 89.7663 75.1046 89.7964C75.2024 89.8265 75.2889 89.74 75.3641 89.6648C75.8002 89.2286 76.1988 87.9465 76.4018 86.3109L76.3567 86.2695C76.1762 87.6494 75.8641 88.6759 75.5069 89.0331C75.4618 89.0745 75.334 89.2061 75.1873 89.1497C75.0407 89.0933 74.864 88.7511 74.77 87.296L74.3526 81.0544L74.2248 81.2386L74.6647 87.9314C74.2887 89.5181 73.736 90.853 73.2547 91.3154C73.0178 91.5561 72.811 91.6388 72.6268 91.5674C72.3072 91.447 72.1305 90.8755 72.0515 89.7137L71.6492 83.724L71.5101 83.9345Z" fill="white"/>
<path d="M80.8799 81.8966C80.6731 83.6751 80.1918 84.9761 79.4737 85.6942C78.7555 86.4124 78.2178 85.9085 77.9697 84.1902C77.7591 82.6862 77.8305 80.6295 78.1426 78.0313C77.6913 78.5417 77.1184 78.9297 76.4769 79.1593C76.9902 81.3496 77.1426 83.609 76.9281 85.8484L76.7025 85.6265C76.8923 83.4814 76.7142 81.3197 76.1761 79.2345C76.0993 79.2512 76.0198 79.2512 75.943 79.2345L75.8904 78.5803C76.5785 78.6442 77.3944 78.1479 78.4697 77.0763L78.4923 77.7869C78.1669 79.7753 78.0986 81.7972 78.2893 83.8029C78.4773 85.149 78.8382 85.5589 79.4173 84.9761C79.9963 84.3933 80.4475 83.2126 80.6393 81.6485L80.8799 81.8966Z" fill="white"/>
<path d="M78.8833 86.104C78.826 86.1029 78.7691 86.0941 78.7141 86.0777C78.3118 85.9386 78.0373 85.3257 77.8794 84.1977C77.6839 82.7576 77.729 80.8137 78.0223 78.2907C77.6229 78.6934 77.1404 79.004 76.6085 79.2007C77.1047 81.3744 77.2506 83.6135 77.0409 85.8333L77.0146 86.0363L76.6123 85.6603V85.6115C76.7975 83.5064 76.6284 81.3852 76.1122 79.336C76.0538 79.3475 75.9938 79.3475 75.9355 79.336H75.8603L75.7888 78.4863H75.9091C76.5446 78.5502 77.3154 78.1103 78.4133 77.0236L78.575 76.8619L78.6051 77.8019C78.2774 79.79 78.2092 81.8123 78.402 83.8179C78.5411 84.8256 78.7517 85.1001 78.9059 85.1527C79.06 85.2054 79.1803 85.1189 79.3646 84.9347C79.9474 84.3481 80.3723 83.19 80.5565 81.6672L80.5828 81.4642L80.9851 81.8627V81.9116C80.7746 83.7051 80.2783 85.0399 79.5488 85.7694C79.3779 85.9618 79.1397 86.0816 78.8833 86.104ZM78.2892 77.7455L78.2516 78.0313C77.932 80.6859 77.8756 82.6937 78.0787 84.1676C78.2667 85.5212 78.5975 85.8258 78.778 85.8859C78.9585 85.9461 79.154 85.8521 79.4022 85.6077C80.094 84.9196 80.5678 83.6412 80.7746 81.9154L80.7295 81.874C80.5264 83.378 80.1053 84.4571 79.5075 85.0587C79.2631 85.2994 79.0375 85.3896 78.8419 85.3257C78.5336 85.2204 78.3268 84.7429 78.2027 83.8217C78.0093 81.8023 78.0776 79.7663 78.4058 77.7643V77.2981C77.4131 78.2381 76.6724 78.6667 76.037 78.6667L76.0746 79.1255C76.1133 79.1303 76.1524 79.1303 76.1911 79.1255L76.2851 79.1029L76.3115 79.1969C76.8498 81.282 77.0304 83.4434 76.8454 85.5889L76.8867 85.6303C77.0679 83.4694 76.9094 81.2936 76.4167 79.1819L76.3942 79.0879L76.4882 79.0615C77.1104 78.8418 77.6676 78.4695 78.1087 77.9787L78.2892 77.7455Z" fill="white"/>
<path d="M68.0959 111.195C67.7763 109.405 67.5357 106.897 67.374 105.066L67.7011 104.739C67.8478 106.521 68.0771 109.089 68.408 110.819C68.6111 111.947 68.784 112.774 69.16 112.409C69.536 112.044 69.803 110.747 69.9534 109.555C70.3185 107.15 70.3842 104.709 70.1489 102.287L70.461 101.843C70.7206 104.353 70.6675 106.885 70.3031 109.382C70.0963 111.014 69.7391 112.544 69.1976 113.082C68.6562 113.62 68.3253 112.589 68.0959 111.195Z" fill="white"/>
<path d="M68.9007 113.334C68.8658 113.34 68.8303 113.34 68.7954 113.334C68.4608 113.229 68.2239 112.616 67.9832 111.225C67.6712 109.472 67.4305 107.028 67.2576 105.092V105.043L67.7689 104.528L67.7877 104.742C67.908 106.216 68.1637 108.961 68.4908 110.811C68.5811 111.307 68.7691 112.341 68.9759 112.405C69.006 112.405 69.0473 112.379 69.0812 112.349C69.3669 112.059 69.6602 110.988 69.8332 109.555C70.1965 107.157 70.2622 104.724 70.0287 102.31V102.272L70.5137 101.58L70.5438 101.843C70.8013 104.362 70.7483 106.903 70.3859 109.409C70.2092 110.781 69.867 112.548 69.2579 113.169C69.1652 113.268 69.0369 113.328 68.9007 113.334ZM67.4606 105.107C67.6336 107.028 67.8705 109.446 68.1825 111.176C68.2615 111.631 68.5021 113.014 68.8556 113.127C68.927 113.15 69.0172 113.127 69.115 113.011C69.5662 112.563 69.9497 111.27 70.1941 109.371C70.5396 106.97 70.6015 104.537 70.3784 102.122L70.243 102.317C70.4735 104.734 70.4066 107.17 70.0437 109.57C69.9535 110.288 69.6677 112.014 69.2203 112.48C69.185 112.525 69.1375 112.559 69.0835 112.578C69.0295 112.597 68.9712 112.599 68.9157 112.586C68.6412 112.499 68.4946 111.95 68.2953 110.834C67.9757 109.063 67.7313 106.479 67.6035 104.964L67.4606 105.107Z" fill="white"/>
<path d="M71.9236 106.645C71.4612 103.314 71.965 100.332 73.3261 98.9708C73.6189 98.7015 73.9277 98.4504 74.2511 98.2188L74.5669 97.745L74.9956 104.28C75.0971 105.818 75.2437 106.269 75.5332 105.979C75.9092 105.603 76.2476 104.513 76.4168 103.035L76.6312 103.265C76.4394 104.942 76.0145 106.273 75.5445 106.743C75.1685 107.119 74.8978 106.769 74.7587 105.581C74.4992 107.168 74.112 108.179 73.5517 108.735C72.7621 109.506 72.232 108.845 71.9236 106.645ZM74.6797 104.69L74.3037 98.8467C73.9742 99.0654 73.6681 99.3174 73.39 99.5987C72.262 100.727 71.8447 103.359 72.262 106.273C72.5102 108.062 72.92 108.653 73.5292 108.04C74.0368 107.536 74.4316 106.408 74.6797 104.69Z" fill="white"/>
<path d="M72.9838 109.138C72.9276 109.138 72.8717 109.129 72.8184 109.112C72.3634 108.961 72.0664 108.179 71.8408 106.66C71.3633 103.231 71.9122 100.268 73.2734 98.8993C73.5631 98.6297 73.8695 98.3785 74.1908 98.1473L74.6646 97.4442L75.112 104.272C75.2022 105.682 75.3301 105.934 75.3978 105.961C75.3978 105.961 75.4278 105.961 75.4805 105.908C75.8565 105.532 76.1686 104.442 76.334 103.024L76.3566 102.81L76.7326 103.227V103.276C76.537 104.964 76.1084 106.322 75.6046 106.814C75.5553 106.882 75.4874 106.933 75.4093 106.963C75.3311 106.992 75.2461 106.998 75.1646 106.98C74.9766 106.912 74.8413 106.66 74.7398 106.182C74.4803 107.457 74.1194 108.299 73.6118 108.814C73.4496 108.996 73.2259 109.111 72.9838 109.138ZM72.0401 106.63C72.2807 108.371 72.6342 108.837 72.8823 108.924C73.0515 108.98 73.2583 108.886 73.4952 108.649C74.0366 108.108 74.4239 107.092 74.6721 105.547L74.7886 104.844L74.8714 105.555C74.9917 106.54 75.1646 106.743 75.2474 106.773C75.3301 106.803 75.4166 106.724 75.4805 106.66C75.9317 106.209 76.3453 104.885 76.5333 103.276L76.4994 103.235C76.3114 104.618 75.9918 105.656 75.6158 106.032C75.5829 106.077 75.5373 106.11 75.4849 106.128C75.4326 106.146 75.376 106.148 75.3226 106.134C75.1308 106.062 75.003 105.731 74.9052 104.254L74.4878 98.0308L74.3111 98.2827C73.9921 98.5152 73.687 98.7663 73.3974 99.0347C72.0852 100.347 71.555 103.253 72.025 106.622L72.0401 106.63ZM73.1004 108.382C73.0556 108.382 73.0111 108.374 72.9688 108.36C72.5928 108.235 72.3409 107.577 72.1604 106.295C71.7355 103.268 72.1604 100.678 73.3222 99.5273C73.6048 99.2394 73.9159 98.9811 74.251 98.7565L74.3976 98.6625L74.7962 104.678C74.5442 106.404 74.1419 107.555 73.6005 108.096C73.5383 108.176 73.4606 108.243 73.3721 108.292C73.2835 108.341 73.186 108.372 73.0854 108.382H73.1004ZM74.2284 99.0272C73.9596 99.2221 73.708 99.4398 73.4764 99.6777C72.3935 100.757 71.9724 103.344 72.371 106.265C72.574 107.72 72.8485 108.104 73.044 108.168C73.1618 108.21 73.3047 108.146 73.4726 107.976C73.9802 107.468 74.3638 106.359 74.6006 104.686L74.2284 99.0272Z" fill="white"/>
<path d="M76.5634 101.167C76.1874 98.3616 76.6725 95.6243 77.7629 94.5377C78.5788 93.7217 79.0826 94.4813 78.9924 96.5229L78.6653 96.6508C78.7442 95.1468 78.3795 94.5865 77.7967 95.1919C76.9319 96.0755 76.5446 98.5045 76.8868 100.888C77.1989 103.035 77.8193 103.75 78.8194 102.749C79.5714 101.997 80.0151 100.911 80.2332 99.2076L80.4588 99.4257C80.2219 101.306 79.7256 102.554 78.8721 103.404C77.6501 104.626 76.9169 103.742 76.5634 101.167Z" fill="white"/>
<path d="M77.9021 104.047C77.8226 104.046 77.7438 104.032 77.669 104.005C77.0899 103.814 76.6989 102.877 76.4658 101.182C76.0898 98.339 76.5786 95.5792 77.6915 94.4662C78.0074 94.1542 78.2856 94.0489 78.53 94.1542C79.0715 94.3948 79.1354 95.5754 79.094 96.5267V96.5944L78.5639 96.7974V96.6433C78.6165 95.598 78.4473 95.1393 78.2706 95.0641C78.0939 94.9889 77.9811 95.1393 77.8645 95.2596C77.026 96.1206 76.6463 98.5346 76.9847 100.873C77.1764 102.197 77.4772 102.938 77.8795 103.073C78.1127 103.148 78.4059 103.016 78.7443 102.678C79.4963 101.926 79.9137 100.858 80.128 99.1926L80.1543 98.9933L80.5604 99.3881V99.4407C80.3235 101.321 79.8084 102.61 78.9474 103.475C78.6861 103.794 78.3114 103.999 77.9021 104.047ZM78.342 94.3158C78.143 94.3493 77.9628 94.4535 77.8344 94.6091C76.7628 95.6807 76.2815 98.3691 76.6613 101.155C76.8831 102.757 77.2403 103.652 77.7329 103.817C78.0224 103.915 78.3834 103.75 78.8007 103.332C79.6242 102.513 80.1167 101.279 80.3536 99.4633L80.3047 99.4182C80.0754 101.02 79.6354 102.073 78.891 102.802C78.4924 103.201 78.139 103.351 77.8194 103.246C77.3306 103.084 76.9959 102.313 76.7891 100.888C76.4357 98.4518 76.8305 96.0229 77.7254 95.1054C78.0111 94.8084 78.2255 94.8122 78.3533 94.8648C78.7293 95.0302 78.797 95.8048 78.7744 96.4854L78.8947 96.4365C78.9399 95.2558 78.7744 94.4662 78.4511 94.3234C78.4156 94.3135 78.3785 94.3109 78.342 94.3158Z" fill="white"/>
<path d="M80.5303 98.0458C80.0678 94.7145 80.5717 91.7328 81.9328 90.3717C82.2256 90.1025 82.5345 89.8514 82.8578 89.6197L83.1736 89.1497L83.6022 95.6808C83.7038 97.2224 83.8504 97.6736 84.1399 97.3803C84.5159 97.0043 84.8543 95.9177 85.0235 94.44L85.2378 94.6693C85.0461 96.3463 84.6212 97.6773 84.1512 98.1473C83.7752 98.5233 83.5045 98.1737 83.3654 96.9855C83.1059 98.5685 82.7149 99.5836 82.1584 100.14C81.3688 100.907 80.8386 100.242 80.5303 98.0458ZM83.2864 96.0869L82.9104 90.2476C82.5809 90.4663 82.2748 90.7183 81.9967 90.9996C80.8687 92.1276 80.4514 94.7596 80.8687 97.6736C81.1169 99.4633 81.5267 100.05 82.1358 99.4408C82.6434 98.9257 83.0382 97.8014 83.2864 96.0869Z" fill="white"/>
<path d="M81.5754 100.539C81.5192 100.539 81.4633 100.53 81.41 100.512C80.955 100.358 80.658 99.5799 80.4324 98.0608C79.9549 94.6317 80.5038 91.6689 81.8612 90.3002C82.1526 90.031 82.4603 89.7799 82.7824 89.5482L83.2562 88.8451L83.7036 95.6732C83.7938 97.0832 83.9217 97.3352 83.9894 97.3615C83.9894 97.3615 84.0194 97.3615 84.0683 97.3051C84.4443 96.9291 84.7602 95.8387 84.9256 94.4249L84.9482 94.2106L85.343 94.628V94.6768C85.1474 96.3651 84.7188 97.7224 84.215 98.215C84.1656 98.2821 84.0975 98.3332 84.0193 98.362C83.9411 98.3907 83.8561 98.3959 83.775 98.3767C83.587 98.3128 83.4517 98.0608 83.3502 97.5796C83.0907 98.858 82.7298 99.7002 82.2222 100.212C82.056 100.399 81.8247 100.516 81.5754 100.539ZM80.6279 98.0308C80.8723 99.7716 81.222 100.238 81.4739 100.324C81.6431 100.377 81.8499 100.287 82.0868 100.05C82.6282 99.5084 83.0155 98.4932 83.2637 96.9479L83.3802 96.2448L83.463 96.9516C83.5833 97.9405 83.7562 98.1398 83.839 98.1736C83.9217 98.2075 84.0044 98.1248 84.0721 98.0571C84.5233 97.6059 84.9369 96.2861 85.1249 94.6731L85.091 94.6317C84.9106 96.0079 84.5834 97.0419 84.2037 97.4216C84.1707 97.4662 84.1251 97.4997 84.0728 97.5178C84.0204 97.536 83.9638 97.5378 83.9104 97.5232C83.7186 97.4517 83.5908 97.1208 83.493 95.6432L83.087 89.4053L82.9102 89.6573C82.5908 89.8893 82.2857 90.1405 81.9966 90.4093C80.6806 91.7253 80.1542 94.6355 80.6204 98.0007L80.6279 98.0308ZM81.692 99.7829C81.6471 99.7833 81.6026 99.7757 81.5604 99.7604C81.1844 99.6363 80.9325 98.9783 80.752 97.6924C80.3271 94.6844 80.7708 92.0787 81.9138 90.9244C82.1965 90.6422 82.5077 90.3901 82.8426 90.1724L82.9892 90.0746L83.3878 96.0906C83.1358 97.8164 82.7335 98.967 82.1921 99.5084C82.0679 99.6621 81.8883 99.7607 81.692 99.7829ZM82.82 90.4281C82.553 90.6239 82.3016 90.8401 82.068 91.0748C80.9851 92.1577 80.564 94.7445 80.9626 97.666C81.1656 99.1212 81.4401 99.5047 81.6356 99.5686C81.7484 99.6062 81.895 99.5423 82.0605 99.3768C82.5718 98.8692 82.9516 97.76 83.1885 96.0831L82.82 90.4281Z" fill="white"/>
<path d="M87.7796 92.12C87.5803 93.7594 87.1704 95.128 86.6102 95.6807C86.05 96.2334 85.5687 95.7522 85.4446 93.8534L85.0686 88.063L84.4031 88.7247L84.3655 88.1006L85.031 87.4388L84.8167 84.4308L85.1363 83.9758L85.3468 87.1154L86.3658 86.0965L86.4072 86.7206L85.392 87.7246L85.768 93.4398C85.8883 95.1618 86.2417 95.2934 86.614 94.9438C87.0727 94.4813 87.4073 93.2856 87.5615 91.9094L87.7796 92.12Z" fill="white"/>
<path d="M86.1967 95.9966C86.1451 95.9961 86.0941 95.9859 86.0463 95.9665C85.6703 95.8237 85.4259 95.1093 85.3469 93.8497L84.9709 88.2773L84.3092 88.9429L84.249 88.0517L84.9145 87.3862L84.704 84.3782L85.2078 83.6638L85.4221 86.8636L86.4411 85.8484L86.4975 86.7395L85.4898 87.7472L85.8658 93.4173C85.9561 94.7182 86.1741 94.9213 86.2644 94.9701C86.3546 95.019 86.4599 94.9137 86.5389 94.8385C86.9525 94.4249 87.2909 93.312 87.4601 91.8644L87.4826 91.6613L87.8887 92.0599V92.1201C87.6744 93.8722 87.2382 95.1882 86.6893 95.7372C86.6286 95.811 86.5537 95.872 86.4691 95.9166C86.3846 95.9611 86.2919 95.9883 86.1967 95.9966ZM85.1401 87.8224L85.5462 93.8384C85.6477 95.4364 85.9786 95.7184 86.1177 95.7785C86.2569 95.8387 86.3772 95.7785 86.5426 95.5981C87.054 95.0867 87.4638 93.8309 87.6706 92.1464L87.6481 92.1201C87.4713 93.5338 87.1254 94.5791 86.6968 95.0077C86.5201 95.1845 86.3546 95.2446 86.208 95.1882C86.0613 95.1318 85.7756 94.8686 85.6816 93.4586L85.3056 87.6983L86.3133 86.6906L86.2907 86.3146L85.2755 87.3298L85.0687 84.2541L84.9333 84.4459L85.1439 87.4539L84.4784 88.1157L84.5009 88.4917L85.1401 87.8224Z" fill="white"/>
<path d="M87.272 82.3967C87.2395 82.2192 87.2427 82.037 87.2814 81.8607C87.3201 81.6845 87.3936 81.5177 87.4976 81.3702C87.6593 81.2085 87.8021 81.3702 87.8397 81.6936C87.9 82.0474 87.8219 82.4109 87.6217 82.7088C87.4562 82.8779 87.3133 82.72 87.272 82.3967ZM90.2273 89.661C90.0281 91.3004 89.6295 92.669 89.0768 93.2029C88.5241 93.7368 88.1105 93.1728 87.9826 91.3229L87.5615 84.8971L87.8698 84.4534L88.306 90.8905C88.4188 92.5938 88.682 92.8645 89.058 92.481C89.528 92.0148 89.8401 90.8153 90.0017 89.473L90.2273 89.661Z" fill="white"/>
<path d="M88.697 93.5113C88.6521 93.5117 88.6076 93.504 88.5654 93.4887C88.1894 93.3496 87.9788 92.6389 87.8848 91.3117L87.46 84.8482L87.9563 84.1451L88.4 90.8642C88.4902 92.2103 88.6669 92.4735 88.776 92.5111C88.885 92.5487 88.9301 92.4585 88.994 92.3945C89.4039 91.9885 89.746 90.8905 89.9077 89.4279L89.9303 89.2249L90.3364 89.6234V89.6723C90.122 91.4245 89.6934 92.7367 89.1557 93.2744C89.0989 93.3424 89.029 93.3984 88.9503 93.4391C88.8715 93.4798 88.7854 93.5043 88.697 93.5113ZM87.6668 84.9046L88.0879 91.2966C88.1969 92.9021 88.4639 93.2405 88.6331 93.3007C88.8023 93.3609 88.8624 93.3007 89.0091 93.1315C89.5129 92.6314 89.919 91.3793 90.1371 89.6949L90.092 89.6535C89.9754 90.5672 89.716 91.9772 89.1482 92.5337C89.0918 92.5938 88.9113 92.7705 88.7158 92.6991C88.5203 92.6277 88.321 92.3569 88.2195 90.8793L87.8059 84.7241L87.6668 84.9046ZM87.49 82.8817C87.4665 82.8864 87.4422 82.8864 87.4186 82.8817C87.2908 82.8366 87.2043 82.6787 87.178 82.423C87.1413 82.2308 87.1448 82.033 87.1881 81.8421C87.2315 81.6513 87.3138 81.4714 87.4299 81.3138C87.4611 81.2762 87.5027 81.2486 87.5496 81.2346C87.5964 81.2205 87.6463 81.2206 87.6931 81.2349C87.8247 81.28 87.9149 81.4492 87.9412 81.6973C88.0048 82.0811 87.9173 82.4747 87.6968 82.7953C87.6421 82.8503 87.5677 82.8814 87.49 82.8817ZM87.6254 81.4078C87.6043 81.4121 87.5855 81.4242 87.5728 81.4417C87.3847 81.7164 87.3131 82.0543 87.3735 82.3817C87.3923 82.5772 87.4524 82.6674 87.4825 82.6787C87.5126 82.69 87.5201 82.6787 87.5502 82.6373C87.7273 82.361 87.7944 82.0283 87.7382 81.7049C87.7194 81.5093 87.6592 81.4191 87.6254 81.4078Z" fill="white"/>
<path d="M94.9875 84.9083C94.8145 86.386 94.4272 87.6193 93.8595 88.1757C93.7698 88.2981 93.636 88.3806 93.4865 88.4059C93.337 88.4312 93.1835 88.3972 93.0586 88.3111C92.8892 89.0067 92.5552 89.6514 92.0848 90.1911C91.1974 91.0747 90.5808 90.2964 90.2687 88.0629C89.84 85.0549 90.31 81.9868 91.532 80.7648C92.4269 79.8737 93.036 80.6031 93.3406 82.8177C93.5816 84.4227 93.5434 86.0573 93.2278 87.6493C93.4308 87.7847 93.6038 87.7321 93.8106 87.5365C94.2956 87.0477 94.5889 86.0701 94.7543 84.6865L94.9875 84.9083ZM93.0248 83.096C92.7728 81.2837 92.2727 80.7347 91.6185 81.3701C90.6146 82.3515 90.2311 85.0888 90.5996 87.7621C90.8552 89.5933 91.3704 90.161 92.002 89.5519C92.9909 88.6307 93.4083 85.8408 93.0248 83.096Z" fill="white"/>
<path d="M91.4342 90.6498C91.369 90.6512 91.3041 90.641 91.2424 90.6197C90.7424 90.4505 90.3927 89.6196 90.1746 88.078C89.7309 84.9384 90.2648 81.904 91.468 80.7008C91.8102 80.3587 92.126 80.2346 92.408 80.3248C92.8968 80.4865 93.2352 81.2987 93.4458 82.8027C93.6848 84.396 93.6518 86.0182 93.348 87.6004C93.4496 87.6456 93.5699 87.6418 93.7466 87.4651C94.194 87.0176 94.4986 86.104 94.6641 84.6714L94.6866 84.4721L95.0927 84.8669V84.9158C94.9122 86.4837 94.4948 87.6944 93.9459 88.2434C93.8527 88.3631 93.7225 88.4487 93.5756 88.4868C93.4287 88.5249 93.2734 88.5133 93.1337 88.454C92.9581 89.1236 92.6285 89.7429 92.1712 90.2625C91.9859 90.4834 91.7212 90.6225 91.4342 90.6498ZM92.22 80.4978C91.9812 80.5312 91.7637 80.6534 91.6109 80.84C90.4491 82.0056 89.9377 84.976 90.3739 88.0516C90.6258 89.8452 91.0206 90.334 91.3064 90.4317C91.5094 90.4994 91.75 90.3941 92.0208 90.1234C92.4808 89.5957 92.8071 88.9651 92.972 88.2848L93.0096 88.1569L93.1224 88.2284C93.2291 88.3001 93.3596 88.3273 93.4861 88.3041C93.6126 88.2809 93.7249 88.2092 93.7992 88.1043C94.3068 87.5929 94.7017 86.4461 94.8821 84.9459L94.837 84.9008C94.6565 86.2656 94.3445 87.1568 93.8895 87.6117C93.8103 87.7193 93.693 87.7926 93.5615 87.8163C93.43 87.8401 93.2944 87.8126 93.1826 87.7396L93.1224 87.702V87.6343C93.436 86.0534 93.4729 84.4301 93.2315 82.8365C92.9871 81.0881 92.6073 80.6106 92.3291 80.5204C92.2943 80.5067 92.2574 80.4991 92.22 80.4978ZM91.5432 89.8978C91.4883 89.8983 91.4336 89.8894 91.3816 89.8715C90.968 89.7286 90.6709 89.0292 90.498 87.7884C90.122 84.9948 90.5581 82.265 91.547 81.2949C91.631 81.1885 91.7433 81.1081 91.871 81.0628C91.9988 81.0176 92.1367 81.0094 92.2689 81.0392C92.6712 81.1784 92.9495 81.8476 93.1224 83.0772C93.521 85.916 93.0811 88.672 92.0734 89.6346C91.9394 89.792 91.7491 89.8905 91.5432 89.9091V89.8978ZM92.1072 81.216C91.9445 81.2352 91.7952 81.3159 91.6899 81.4416C90.7386 82.3665 90.325 85.0248 90.6972 87.7621C90.9078 89.2661 91.2575 89.6158 91.4492 89.6797C91.641 89.7436 91.7538 89.6797 91.938 89.4917C92.8856 88.5856 93.3142 85.837 92.9269 83.0997C92.7201 81.5957 92.3855 81.2874 92.205 81.2197C92.173 81.2123 92.1398 81.211 92.1072 81.216Z" fill="white"/>
<path d="M99.8643 80.0317C99.665 81.7199 99.2815 83.0096 98.8152 83.4796C98.349 83.9496 98.0407 83.3856 97.9241 81.5996L97.6835 77.8396C97.5857 76.3356 97.2774 75.7415 96.6758 76.3356C96.2509 76.7605 95.6832 77.9674 95.2545 79.7497L95.702 86.4387L95.3748 86.7658L94.762 77.693L95.0816 77.238L95.1981 78.9638C95.6456 77.2079 96.1532 76.1702 96.6758 75.6475C97.4541 74.8692 97.8752 75.6663 97.9768 77.2944L98.2287 81.0544C98.3528 82.8366 98.522 83.0021 98.8115 82.7088C99.1687 82.3554 99.4808 81.2236 99.6424 79.8211L99.8643 80.0317Z" fill="white"/>
<path d="M95.2883 86.9876L94.6604 77.6553L95.1642 76.9447L95.2582 78.3509C95.6342 77.0086 96.1005 76.0724 96.6043 75.5685C96.8901 75.2828 97.1533 75.1925 97.3826 75.2677C97.7586 75.4144 98.003 76.0912 98.0782 77.2793L98.3302 81.0393C98.4279 82.4418 98.552 82.6937 98.6197 82.7163C98.6197 82.7163 98.6498 82.7163 98.7438 82.6336C99.0671 82.3064 99.383 81.1972 99.5409 79.8023L99.5672 79.5992L99.9695 79.9978V80.0467C99.759 81.7951 99.3679 83.0735 98.8904 83.551C98.7174 83.7202 98.5558 83.7804 98.4091 83.724C98.1986 83.645 97.9391 83.348 97.8263 81.6033L97.5857 77.8433C97.503 76.5424 97.2736 76.2679 97.1458 76.219C97.0179 76.1701 96.8638 76.298 96.751 76.4108C96.3975 76.7604 95.8222 77.8508 95.356 79.7647L95.8072 86.48L95.2883 86.9876ZM94.8634 77.7155L95.4613 86.5327L95.6004 86.3936L95.168 79.7346C95.5628 78.0952 96.1193 76.768 96.6156 76.2717C96.8412 76.0461 97.0442 75.9671 97.2247 76.0348C97.5406 76.1551 97.721 76.7266 97.7925 77.8358L98.0331 81.5958C98.1384 83.1788 98.364 83.4946 98.4881 83.5397C98.6122 83.5848 98.6798 83.4871 98.755 83.4119C99.1912 82.9757 99.571 81.7312 99.7702 80.073L99.7289 80.0316C99.5522 81.4078 99.2438 82.4268 98.8942 82.7764C98.8453 82.8291 98.7099 82.9644 98.5595 82.908C98.4091 82.8516 98.2437 82.532 98.1422 81.0581L97.8902 77.2981C97.8226 76.2416 97.6158 75.5723 97.3225 75.4632C97.1721 75.4068 96.9841 75.4933 96.7585 75.7189C96.2095 76.2679 95.7207 77.3658 95.3071 78.9864L95.153 79.5955L95.0138 77.5275L94.8634 77.7155Z" fill="white"/>
<path d="M100.958 80.7347L100.921 80.0429C101.11 80.0792 101.306 80.0635 101.488 79.9972C101.669 79.931 101.829 79.8169 101.951 79.6669C102.553 79.0653 102.884 78.005 102.68 76.5912C102.41 74.73 101.176 74.9857 100.71 72.3537H100.691C100.267 74.8842 100.601 77.4109 100.315 79.5879L100.09 79.3698C100.353 77.3131 100.011 74.3277 100.545 71.7107L100.868 71.2783C101.289 74.621 102.647 73.7562 103 76.219C103.098 76.8414 103.104 77.4747 103.019 78.099C103.632 77.644 104.068 76.7416 104.252 75.2226L104.478 75.4444C104.252 77.3244 103.654 78.3734 102.816 78.945C102.664 79.449 102.393 79.9093 102.026 80.2873C101.896 80.4404 101.731 80.5607 101.546 80.6384C101.36 80.7161 101.159 80.7491 100.958 80.7347Z" fill="white"/>
<path d="M101.09 80.84C101.041 80.8437 100.992 80.8437 100.943 80.84H100.864L100.812 79.9226L100.951 79.9677C101.125 79.9911 101.302 79.9687 101.465 79.9028C101.628 79.8368 101.771 79.7296 101.88 79.5917C102.508 78.96 102.763 77.8696 102.583 76.5837C102.496 75.9573 102.216 75.3736 101.782 74.9143C101.26 74.3274 100.894 73.6189 100.718 72.8538C100.584 74.0458 100.527 75.2452 100.549 76.4446C100.569 77.4969 100.522 78.5494 100.406 79.5955L100.379 79.7947L99.9771 79.3999V79.351C100.071 78.3915 100.11 77.4274 100.094 76.4634C100.055 74.8645 100.168 73.2656 100.432 71.6882V71.6468L100.902 71.0151L100.932 71.2595C101.158 73.0418 101.643 73.5983 102.109 74.1359C102.656 74.6937 102.994 75.4225 103.068 76.2002C103.149 76.7415 103.165 77.2906 103.117 77.8358C103.628 77.3282 103.966 76.4408 104.121 75.2038L104.147 75.0007L104.549 75.3993V75.4482C104.342 77.1928 103.797 78.3547 102.872 79.0014C102.716 79.5083 102.441 79.9709 102.071 80.3512C101.817 80.6318 101.467 80.8064 101.09 80.84ZM101.056 80.6407C101.227 80.6319 101.394 80.5883 101.547 80.5127C101.7 80.437 101.837 80.3309 101.947 80.2008C102.298 79.8333 102.556 79.3873 102.699 78.8998V78.866H102.729C103.609 78.2644 104.136 77.159 104.342 75.482L104.297 75.4369C104.102 76.798 103.692 77.6929 103.049 78.1817L102.85 78.3246L102.887 78.0839C102.977 77.4744 102.977 76.8549 102.887 76.2453C102.819 75.5069 102.498 74.8148 101.977 74.2863C101.534 73.775 101.034 73.1997 100.785 71.5491L100.624 71.7671C100.367 73.3263 100.257 74.9062 100.297 76.4859C100.309 77.4411 100.27 78.3963 100.18 79.3473L100.225 79.3886C100.319 78.4165 100.358 77.4399 100.342 76.4634C100.309 75.0891 100.39 73.7144 100.586 72.3537V72.3199L100.744 72.1619L100.797 72.3349C100.92 73.2518 101.313 74.1116 101.925 74.8052C102.383 75.2931 102.678 75.9124 102.767 76.5762C102.962 77.911 102.684 79.0653 102.015 79.7383C101.894 79.8816 101.742 79.9956 101.571 80.0718C101.4 80.148 101.213 80.1844 101.026 80.1783L101.056 80.6407Z" fill="white"/>
<path opacity="0.2" d="M80.88 119.786L85.1513 115.744C85.2817 115.626 85.387 115.483 85.4613 115.323C85.5356 115.164 85.5772 114.991 85.5837 114.815L85.6251 109.638C85.6251 108.814 86.5764 108.108 87.2193 108.438L91.2876 110.521C91.4333 110.585 91.5925 110.611 91.7507 110.597C91.9089 110.583 92.0612 110.53 92.1938 110.443L97.1081 107.566C97.8864 107.107 98.6121 107.671 98.3339 108.517L96.578 113.845C96.5206 113.99 96.5019 114.147 96.5236 114.302C96.5454 114.456 96.6069 114.602 96.702 114.725L99.71 118.109C100.188 118.651 99.71 119.707 98.8753 119.899L93.7241 121.11C93.3767 121.2 93.0793 121.425 92.8969 121.734L89.825 126.712C89.34 127.505 88.321 127.596 88.0804 126.866L86.6516 122.287C86.6108 122.148 86.5276 122.025 86.4136 121.936C86.2996 121.847 86.1606 121.796 86.0161 121.79L81.1281 121.467C80.3498 121.448 80.2069 120.425 80.88 119.786Z" fill="black"/>
<path d="M81.6809 119.512L85.9523 115.47C86.083 115.352 86.1886 115.209 86.2629 115.049C86.3372 114.89 86.3786 114.717 86.3847 114.541L86.4261 109.367C86.4261 108.544 87.3773 107.833 88.0203 108.164L92.0886 110.247C92.2343 110.31 92.3935 110.336 92.5517 110.322C92.7099 110.308 92.8622 110.255 92.9948 110.168L97.9091 107.292C98.6874 106.837 99.4131 107.397 99.1349 108.243L97.3789 113.575C97.3219 113.719 97.3034 113.875 97.3251 114.029C97.3469 114.183 97.4082 114.328 97.503 114.451L100.511 117.853C100.989 118.391 100.511 119.451 99.6763 119.643L94.5251 120.85C94.1791 120.944 93.8827 121.167 93.6979 121.474L90.6335 126.453C90.1485 127.242 89.1295 127.332 88.8889 126.607L87.4601 122.023C87.4197 121.885 87.3364 121.762 87.2223 121.674C87.1082 121.585 86.969 121.535 86.8246 121.531L81.9366 121.207C81.147 121.155 81.0041 120.155 81.6809 119.512Z" fill="#92E3A9"/>
<path d="M127.463 141.609C126.655 141.163 125.817 140.773 124.955 140.444C124.041 140.12 124.293 139.793 124.861 139.616C125.589 139.447 126.339 139.397 127.083 139.47C129.215 139.661 130.001 140.056 130.001 140.056C130.967 139.32 132.109 138.85 133.313 138.691C134.02 138.624 134.945 138.612 134.798 138.973C134.614 139.436 133.588 139.823 132.73 140.989C133.922 141.405 135.082 141.908 136.201 142.493C137.761 143.38 137.032 143.76 135.878 143.737C134.814 143.715 132.542 143.775 132.542 143.775C132.542 143.775 132.813 144.749 133.091 146.339C133.31 147.595 132.042 146.715 131.381 145.99C130.433 144.937 129.474 143.775 129.474 143.775C129.474 143.775 127.76 144.068 125.917 144.564C124.594 144.922 123.552 145.316 124.387 143.974C125.222 142.632 127.463 141.609 127.463 141.609Z" fill="#F28F8F"/>
<path d="M131.445 145.384C130.952 144.82 129.707 143.019 129.707 143.019C129.707 143.019 126.173 144.004 125.289 144.264C124.406 144.523 124.161 144.418 124.248 144.204C123.695 145.26 124.684 144.884 125.917 144.549C127.76 144.053 129.474 143.76 129.474 143.76C129.474 143.76 130.433 144.922 131.381 145.975C131.873 146.524 132.697 147.14 132.997 146.907C132.479 146.877 131.937 145.948 131.445 145.384Z" fill="#B16668"/>
<path d="M137.073 143.399C136.78 143.587 136.359 143.516 135.257 143.399C134.156 143.282 132.373 143.023 132.373 143.023L132.542 143.775C132.542 143.775 134.798 143.715 135.878 143.737C136.49 143.734 136.983 143.632 137.073 143.399Z" fill="#B16668"/>
<path d="M124.628 139.703C124.252 139.876 124.18 140.169 124.955 140.455C125.817 140.784 126.655 141.174 127.463 141.62L128.189 141.244C128.189 141.244 127.162 140.801 126.139 140.492C125.199 140.184 124.316 139.973 124.628 139.703Z" fill="#B16668"/>
<path d="M132.73 141C133.588 139.834 134.61 139.447 134.798 138.985C134.807 138.967 134.813 138.949 134.815 138.929C134.816 138.91 134.814 138.89 134.808 138.872C134.802 138.853 134.793 138.836 134.78 138.821C134.767 138.806 134.752 138.794 134.734 138.785C134.734 138.785 134.885 138.973 134.058 139.331C133.431 139.655 132.862 140.081 132.373 140.59C132.17 140.835 132.73 141 132.73 141Z" fill="#B16668"/>
<path d="M104.448 147.813C103.842 147.477 103.214 147.183 102.568 146.933C101.88 146.689 102.071 146.444 102.496 146.309C103.046 146.184 103.612 146.148 104.173 146.2C105.779 146.347 106.373 146.644 106.373 146.644C107.102 146.088 107.964 145.733 108.873 145.614C109.403 145.561 110.103 145.553 110.001 145.828C109.862 146.174 109.087 146.467 108.441 147.332C109.344 147.644 110.224 148.021 111.073 148.46C112.25 149.129 111.701 149.419 110.828 149.4C110.027 149.4 108.317 149.426 108.317 149.426C108.317 149.426 108.516 150.178 108.727 151.363C108.892 152.31 107.937 151.652 107.437 151.096C106.722 150.302 106.001 149.426 106.001 149.426C106.001 149.426 104.707 149.648 103.316 150.024C102.319 150.291 101.534 150.599 102.165 149.577C102.797 148.554 104.448 147.813 104.448 147.813Z" fill="#F28F8F"/>
<path d="M107.452 150.659C107.076 150.235 106.14 148.877 106.14 148.877C106.14 148.877 103.478 149.629 102.812 149.813C102.147 149.998 101.951 149.934 102.026 149.768C101.605 150.565 102.353 150.28 103.282 150.032C104.673 149.656 105.967 149.434 105.967 149.434C105.967 149.434 106.689 150.31 107.403 151.103C107.779 151.517 108.396 151.987 108.625 151.81C108.23 151.787 107.824 151.088 107.452 150.659Z" fill="#B16668"/>
<path d="M111.712 149.163C111.49 149.306 111.171 149.253 110.344 149.163C109.516 149.073 108.167 148.885 108.167 148.885L108.298 149.441C108.298 149.441 110.009 149.4 110.81 149.415C111.257 149.415 111.629 149.34 111.712 149.163Z" fill="#B16668"/>
<path d="M102.312 146.377C102.034 146.508 101.974 146.727 102.557 146.933C103.203 147.183 103.831 147.477 104.437 147.813L104.985 147.539C104.985 147.539 104.211 147.204 103.44 146.96C102.745 146.738 102.075 146.58 102.312 146.377Z" fill="#B16668"/>
<path d="M108.422 147.343C109.069 146.467 109.843 146.174 109.982 145.839C109.995 145.812 109.997 145.781 109.988 145.753C109.979 145.724 109.959 145.7 109.934 145.685C109.934 145.685 110.046 145.828 109.422 146.095C108.95 146.342 108.521 146.665 108.151 147.05C108.001 147.23 108.422 147.343 108.422 147.343Z" fill="#B16668"/>
<path d="M88.024 27.9068L85.768 29.2115C85.7798 29.1117 85.7861 29.0112 85.7868 28.9107V28.2602C85.7868 27.0946 84.9708 26.6246 83.9632 27.2036C83.5299 27.4713 83.1593 27.8291 82.8765 28.2527C82.7111 26.7863 81.5643 26.2449 80.1693 27.0495C79.3739 27.5663 78.712 28.2639 78.2376 29.0853C77.7632 29.9067 77.4898 30.8286 77.4396 31.7758V32.7534C77.4293 33.1424 77.509 33.5284 77.6727 33.8814L75.7927 34.9643C75.4993 35.1575 75.2551 35.4164 75.0795 35.7206C74.904 36.0248 74.8018 36.3658 74.7812 36.7165C74.7812 37.3632 75.2362 37.6264 75.7927 37.303L88.024 30.2455C88.3173 30.0523 88.5615 29.7933 88.7371 29.4891C88.9127 29.185 89.0149 28.844 89.0354 28.4933C89.0166 27.8466 88.5617 27.5872 88.024 27.9068Z" fill="#EBEBEB"/>
<path d="M73.0854 21.9133L71.8559 22.3946V19.6498C71.8559 17.4765 70.1226 16.9539 68.2388 18.0405C66.3588 19.1309 64.8322 21.7742 64.8322 23.9475V24.3461C64.5673 24.2631 64.2868 24.242 64.0124 24.2843C63.738 24.3267 63.4769 24.4314 63.2493 24.5905C62.5346 25.0555 61.9397 25.6827 61.5131 26.421C61.0864 27.1593 60.8401 27.9878 60.794 28.8393V29.0197L59.0606 30.0199C58.5899 30.3259 58.198 30.7388 57.9171 31.2249C57.6361 31.711 57.474 32.2567 57.4438 32.8173C57.4438 33.8476 58.1658 34.2649 59.0606 33.7498L73.0854 25.6433C73.5558 25.3368 73.9473 24.9238 74.2282 24.4378C74.5091 23.9518 74.6715 23.4064 74.7022 22.8458C74.7022 21.8081 73.9766 21.3982 73.0854 21.9133Z" fill="#EBEBEB"/>
<g filter="url(#filter0_ddd_5315_45028)">
<path d="M196 100C196 96.6863 198.686 94 202 94H290C293.314 94 296 96.6863 296 100V184C296 187.314 293.314 190 290 190H202C198.686 190 196 187.314 196 184V100Z" fill="#7E8A92"/>
<path d="M256 128.167H250.047L244.573 118.586C244.5 118.459 244.395 118.353 244.268 118.279C244.141 118.205 243.996 118.167 243.849 118.167H240.438C239.884 118.167 239.485 118.696 239.637 119.229L242.191 128.167H236.833L234.583 125.167C234.426 124.957 234.179 124.833 233.917 124.833H231.834C231.292 124.833 230.894 125.343 231.025 125.869L232.667 131.5L231.025 137.131C230.894 137.657 231.292 138.167 231.834 138.167H233.917C234.179 138.167 234.426 138.043 234.583 137.833L236.833 134.833H242.191L239.637 143.771C239.485 144.303 239.884 144.833 240.438 144.833H243.849C244.148 144.833 244.424 144.673 244.573 144.414L250.047 134.833H256C257.841 134.833 261 133.341 261 131.5C261 129.659 257.841 128.167 256 128.167Z" fill="white"/>
<path d="M229.084 158.934L226.008 167.5H225.006L221.93 158.934H222.973L224.977 164.576C225.059 164.803 225.131 165.02 225.193 165.227C225.26 165.434 225.318 165.633 225.369 165.824C225.42 166.016 225.465 166.201 225.504 166.381C225.543 166.201 225.588 166.016 225.639 165.824C225.689 165.629 225.748 165.428 225.814 165.221C225.881 165.01 225.955 164.789 226.037 164.559L228.029 158.934H229.084ZM232.518 160.973C233.283 160.973 233.852 161.145 234.223 161.488C234.594 161.832 234.779 162.381 234.779 163.135V167.5H234.07L233.883 166.551H233.836C233.656 166.785 233.469 166.982 233.273 167.143C233.078 167.299 232.852 167.418 232.594 167.5C232.34 167.578 232.027 167.617 231.656 167.617C231.266 167.617 230.918 167.549 230.613 167.412C230.312 167.275 230.074 167.068 229.898 166.791C229.727 166.514 229.641 166.162 229.641 165.736C229.641 165.096 229.895 164.604 230.402 164.26C230.91 163.916 231.684 163.729 232.723 163.697L233.83 163.65V163.258C233.83 162.703 233.711 162.314 233.473 162.092C233.234 161.869 232.898 161.758 232.465 161.758C232.129 161.758 231.809 161.807 231.504 161.904C231.199 162.002 230.91 162.117 230.637 162.25L230.338 161.512C230.627 161.363 230.959 161.236 231.334 161.131C231.709 161.025 232.104 160.973 232.518 160.973ZM233.818 164.336L232.84 164.377C232.039 164.408 231.475 164.539 231.146 164.77C230.818 165 230.654 165.326 230.654 165.748C230.654 166.115 230.766 166.387 230.988 166.562C231.211 166.738 231.506 166.826 231.873 166.826C232.443 166.826 232.91 166.668 233.273 166.352C233.637 166.035 233.818 165.561 233.818 164.928V164.336ZM239.355 167.617C238.777 167.617 238.268 167.498 237.826 167.26C237.385 167.021 237.041 166.658 236.795 166.17C236.549 165.682 236.426 165.066 236.426 164.324C236.426 163.547 236.555 162.912 236.812 162.42C237.074 161.924 237.434 161.557 237.891 161.318C238.348 161.08 238.867 160.961 239.449 160.961C239.77 160.961 240.078 160.994 240.375 161.061C240.676 161.123 240.922 161.203 241.113 161.301L240.82 162.115C240.625 162.037 240.398 161.967 240.141 161.904C239.887 161.842 239.648 161.811 239.426 161.811C238.98 161.811 238.609 161.906 238.312 162.098C238.02 162.289 237.799 162.57 237.65 162.941C237.506 163.312 237.434 163.77 237.434 164.312C237.434 164.832 237.504 165.275 237.645 165.643C237.789 166.01 238.002 166.291 238.283 166.486C238.568 166.678 238.924 166.773 239.35 166.773C239.689 166.773 239.996 166.738 240.27 166.668C240.543 166.594 240.791 166.508 241.014 166.41V167.277C240.799 167.387 240.559 167.471 240.293 167.529C240.031 167.588 239.719 167.617 239.355 167.617ZM244.939 160.973C245.705 160.973 246.273 161.145 246.645 161.488C247.016 161.832 247.201 162.381 247.201 163.135V167.5H246.492L246.305 166.551H246.258C246.078 166.785 245.891 166.982 245.695 167.143C245.5 167.299 245.273 167.418 245.016 167.5C244.762 167.578 244.449 167.617 244.078 167.617C243.688 167.617 243.34 167.549 243.035 167.412C242.734 167.275 242.496 167.068 242.32 166.791C242.148 166.514 242.062 166.162 242.062 165.736C242.062 165.096 242.316 164.604 242.824 164.26C243.332 163.916 244.105 163.729 245.145 163.697L246.252 163.65V163.258C246.252 162.703 246.133 162.314 245.895 162.092C245.656 161.869 245.32 161.758 244.887 161.758C244.551 161.758 244.23 161.807 243.926 161.904C243.621 162.002 243.332 162.117 243.059 162.25L242.76 161.512C243.049 161.363 243.381 161.236 243.756 161.131C244.131 161.025 244.525 160.973 244.939 160.973ZM246.24 164.336L245.262 164.377C244.461 164.408 243.896 164.539 243.568 164.77C243.24 165 243.076 165.326 243.076 165.748C243.076 166.115 243.188 166.387 243.41 166.562C243.633 166.738 243.928 166.826 244.295 166.826C244.865 166.826 245.332 166.668 245.695 166.352C246.059 166.035 246.24 165.561 246.24 164.928V164.336ZM251.279 166.82C251.439 166.82 251.604 166.807 251.771 166.779C251.939 166.752 252.076 166.719 252.182 166.68V167.436C252.068 167.486 251.91 167.529 251.707 167.564C251.508 167.6 251.312 167.617 251.121 167.617C250.781 167.617 250.473 167.559 250.195 167.441C249.918 167.32 249.695 167.117 249.527 166.832C249.363 166.547 249.281 166.152 249.281 165.648V161.84H248.367V161.365L249.287 160.984L249.674 159.59H250.26V161.078H252.141V161.84H250.26V165.619C250.26 166.021 250.352 166.322 250.535 166.521C250.723 166.721 250.971 166.82 251.279 166.82ZM254.455 161.078V167.5H253.482V161.078H254.455ZM253.98 158.676C254.141 158.676 254.277 158.729 254.391 158.834C254.508 158.936 254.566 159.096 254.566 159.314C254.566 159.529 254.508 159.689 254.391 159.795C254.277 159.9 254.141 159.953 253.98 159.953C253.812 159.953 253.672 159.9 253.559 159.795C253.449 159.689 253.395 159.529 253.395 159.314C253.395 159.096 253.449 158.936 253.559 158.834C253.672 158.729 253.812 158.676 253.98 158.676ZM262.055 164.277C262.055 164.805 261.986 165.275 261.85 165.689C261.713 166.104 261.516 166.453 261.258 166.738C261 167.023 260.688 167.242 260.32 167.395C259.957 167.543 259.545 167.617 259.084 167.617C258.654 167.617 258.26 167.543 257.9 167.395C257.545 167.242 257.236 167.023 256.975 166.738C256.717 166.453 256.516 166.104 256.371 165.689C256.23 165.275 256.16 164.805 256.16 164.277C256.16 163.574 256.279 162.977 256.518 162.484C256.756 161.988 257.096 161.611 257.537 161.354C257.982 161.092 258.512 160.961 259.125 160.961C259.711 160.961 260.223 161.092 260.66 161.354C261.102 161.615 261.443 161.994 261.686 162.49C261.932 162.982 262.055 163.578 262.055 164.277ZM257.168 164.277C257.168 164.793 257.236 165.24 257.373 165.619C257.51 165.998 257.721 166.291 258.006 166.498C258.291 166.705 258.658 166.809 259.107 166.809C259.553 166.809 259.918 166.705 260.203 166.498C260.492 166.291 260.705 165.998 260.842 165.619C260.979 165.24 261.047 164.793 261.047 164.277C261.047 163.766 260.979 163.324 260.842 162.953C260.705 162.578 260.494 162.289 260.209 162.086C259.924 161.883 259.555 161.781 259.102 161.781C258.434 161.781 257.943 162.002 257.631 162.443C257.322 162.885 257.168 163.496 257.168 164.277ZM266.777 160.961C267.539 160.961 268.115 161.148 268.506 161.523C268.896 161.895 269.092 162.492 269.092 163.316V167.5H268.131V163.381C268.131 162.846 268.008 162.445 267.762 162.18C267.52 161.914 267.146 161.781 266.643 161.781C265.932 161.781 265.432 161.982 265.143 162.385C264.854 162.787 264.709 163.371 264.709 164.137V167.5H263.736V161.078H264.521L264.668 162.004H264.721C264.857 161.777 265.031 161.588 265.242 161.436C265.453 161.279 265.689 161.162 265.951 161.084C266.213 161.002 266.488 160.961 266.777 160.961Z" fill="white"/>
</g>
<defs>
<filter id="filter0_ddd_5315_45028" x="193" y="92" width="106" height="102" filterUnits="userSpaceOnUse" color-interpolation-filters="sRGB">
<feFlood flood-opacity="0" result="BackgroundImageFix"/>
<feColorMatrix in="SourceAlpha" type="matrix" values="0 0 0 0 0 0 0 0 0 0 0 0 0 0 0 0 0 0 127 0" result="hardAlpha"/>
<feOffset dy="1"/>
<feGaussianBlur stdDeviation="1.5"/>
<feColorMatrix type="matrix" values="0 0 0 0 0 0 0 0 0 0 0 0 0 0 0 0 0 0 0.2 0"/>
<feBlend mode="normal" in2="BackgroundImageFix" result="effect1_dropShadow_5315_45028"/>
<feColorMatrix in="SourceAlpha" type="matrix" values="0 0 0 0 0 0 0 0 0 0 0 0 0 0 0 0 0 0 127 0" result="hardAlpha"/>
<feOffset dy="2"/>
<feGaussianBlur stdDeviation="0.5"/>
<feColorMatrix type="matrix" values="0 0 0 0 0 0 0 0 0 0 0 0 0 0 0 0 0 0 0.12 0"/>
<feBlend mode="normal" in2="effect1_dropShadow_5315_45028" result="effect2_dropShadow_5315_45028"/>
<feColorMatrix in="SourceAlpha" type="matrix" values="0 0 0 0 0 0 0 0 0 0 0 0 0 0 0 0 0 0 127 0" result="hardAlpha"/>
<feOffset dy="1"/>
<feGaussianBlur stdDeviation="0.5"/>
<feColorMatrix type="matrix" values="0 0 0 0 0 0 0 0 0 0 0 0 0 0 0 0 0 0 0.14 0"/>
<feBlend mode="normal" in2="effect2_dropShadow_5315_45028" result="effect3_dropShadow_5315_45028"/>
<feBlend mode="normal" in="SourceGraphic" in2="effect3_dropShadow_5315_45028" result="shape"/>
</filter>
</defs>
</svg>
