<svg width="328" height="217" viewBox="0 0 328 217" fill="none" xmlns="http://www.w3.org/2000/svg">
    <defs>
        <filter id="filter0_ddd_5446_46595" x="193" y="93" width="106" height="102" filterUnits="userSpaceOnUse" color-interpolation-filters="sRGB">
            <feFlood flood-opacity="0" result="BackgroundImageFix" />
            <feColorMatrix in="SourceAlpha" type="matrix" values="0 0 0 0 0 0 0 0 0 0 0 0 0 0 0 0 0 0 127 0" result="hardAlpha" />
            <feOffset dy="1" />
            <feGaussianBlur stdDeviation="1.5" />
            <feColorMatrix type="matrix" values="0 0 0 0 0 0 0 0 0 0 0 0 0 0 0 0 0 0 0.2 0" />
            <feBlend mode="normal" in2="BackgroundImageFix" result="effect1_dropShadow_5446_46595" />
            <feColorMatrix in="SourceAlpha" type="matrix" values="0 0 0 0 0 0 0 0 0 0 0 0 0 0 0 0 0 0 127 0" result="hardAlpha" />
            <feOffset dy="2" />
            <feGaussianBlur stdDeviation="0.5" />
            <feColorMatrix type="matrix" values="0 0 0 0 0 0 0 0 0 0 0 0 0 0 0 0 0 0 0.12 0" />
            <feBlend mode="normal" in2="effect1_dropShadow_5446_46595" result="effect2_dropShadow_5446_46595" />
            <feColorMatrix in="SourceAlpha" type="matrix" values="0 0 0 0 0 0 0 0 0 0 0 0 0 0 0 0 0 0 127 0" result="hardAlpha" />
            <feOffset dy="1" />
            <feGaussianBlur stdDeviation="0.5" />
            <feColorMatrix type="matrix" values="0 0 0 0 0 0 0 0 0 0 0 0 0 0 0 0 0 0 0.14 0" />
            <feBlend mode="normal" in2="effect2_dropShadow_5446_46595" result="effect3_dropShadow_5446_46595" />
            <feBlend mode="normal" in="SourceGraphic" in2="effect3_dropShadow_5446_46595" result="shape" />
        </filter>
    </defs>
    <path d="M125.823 183.988C175.686 183.988 216.108 160.651 216.108 131.863C216.108 103.075 175.686 79.7382 125.823 79.7382C75.9601 79.7382 35.5381 103.075 35.5381 131.863C35.5381 160.651 75.9601 183.988 125.823 183.988Z" fill="#F5F5F5" />
    <path opacity="0.3" d="M189.664 168.722C165.42 182.717 130.816 187.09 100.097 181.856C96.5879 181.259 93.1412 180.535 89.7572 179.683C86.1739 178.78 82.6696 177.743 79.2706 176.558L78.387 176.25C81.583 171.403 87.129 167.733 92.1185 165.286L92.3854 165.15L92.7389 164.985L93.0585 164.838L93.7202 164.549C95.7206 163.699 99.5746 161.146 109.61 160.037H109.655L110.385 159.958C111.937 159.8 113.505 159.71 115.073 159.646L115.449 159.619C120.273 159.398 125.135 159.386 129.88 158.691C132.599 158.288 136.332 157.42 138.096 156.641C141.608 155.092 143.95 152.475 145.262 148.569C146.575 144.662 147.142 140.432 148.488 136.488C149.192 134.483 150.196 132.596 151.466 130.893L151.496 130.855C154.027 127.453 157.512 124.704 161.272 122.674C166.912 119.62 173.218 118 179.429 116.357L180.181 116.161L180.655 116.037L180.828 115.996L181.768 115.751L181.926 115.706C187.942 114.176 194.812 112.398 199.41 108.54C200.728 107.429 201.973 106.236 203.14 104.968C203.358 105.171 203.565 105.378 203.775 105.581C205.83 107.594 207.703 109.785 209.374 112.127C209.504 112.312 209.63 112.497 209.75 112.68L210.213 113.368C212.016 116.082 213.452 119.022 214.484 122.113C214.51 122.192 214.537 122.268 214.559 122.343C219.823 138.635 211.51 156.108 189.664 168.722Z" fill="#92E3A9" />
    <path opacity="0.5" d="M189.664 168.722C165.42 182.717 130.817 187.09 100.097 181.856C96.588 181.259 93.1413 180.535 89.7573 179.683C90.601 177.922 91.7135 176.303 93.0548 174.885C94.2025 173.666 95.4825 172.579 96.8712 171.644C102.62 167.778 109.964 166.124 116.773 165.496L119.187 165.271H119.262H119.345L132.734 164.03C135.148 163.808 137.585 163.582 139.916 162.902C142.896 161.998 145.608 160.372 147.808 158.168C148.197 157.789 148.566 157.39 148.913 156.972C150.401 155.165 151.433 153.027 151.921 150.738C153.651 143.594 155.204 138.3 157.734 134.194L157.761 134.145C159.396 130.938 162.37 128.377 165.769 126.512L165.912 126.43C169.002 124.756 172.351 123.612 175.82 123.046C181.084 122.226 186.389 121.053 191.563 119.895C192.913 119.594 194.12 119.305 195.21 119.023C201.52 117.379 203.802 115.996 207.013 114.232C208.009 113.687 208.919 113.161 209.765 112.642L210.228 113.33C212.031 116.044 213.468 118.985 214.499 122.076C214.525 122.155 214.552 122.23 214.574 122.305C219.823 138.635 211.51 156.107 189.664 168.722Z" fill="#92E3A9" />
    <path d="M189.664 168.722C165.42 182.717 130.816 187.09 100.097 181.856C100.18 181.728 100.27 181.604 100.36 181.48C103.064 177.795 106.692 175.295 110.738 173.629C114.431 172.18 118.314 171.271 122.266 170.929C127.068 170.444 132.114 170.516 137.009 170.388C142.465 170.249 148.142 170.012 153.155 167.613C153.379 167.51 153.597 167.394 153.809 167.267C157.486 165.124 160.047 160.123 161.351 154.761C162.389 150.516 162.904 145.643 165.521 141.996C166.715 140.292 168.046 138.688 169.499 137.198C171.427 135.187 173.735 133.579 176.29 132.468L176.824 132.243C178.716 131.453 180.634 130.726 182.577 130.062L182.652 130.039C185.532 129.059 188.452 128.221 191.413 127.524C197.865 126.02 204.471 125.181 210.833 123.332C211.901 123.023 212.969 122.677 214.025 122.301L214.127 122.264L214.473 122.132C214.499 122.211 214.525 122.286 214.548 122.361C219.823 138.635 211.51 156.107 189.664 168.722Z" fill="#92E3A9" />
    <path d="M132.858 158.597C139.096 157.792 142.168 156.359 145.176 151.174C148.402 145.617 147.011 137.966 151.53 130.837C145.958 136.962 147.18 147.121 142.213 153.096C138.006 158.145 130.215 158.544 109.614 160.048C109.614 160.048 124.763 159.646 132.858 158.597Z" fill="#FAFAFA" />
    <path d="M152.203 147.907C151.376 152.569 148.902 156.987 148.902 156.987C148.902 156.987 151.508 154.652 152.831 149.279C154.155 143.906 154.948 140.353 157.61 135.059C160.272 129.765 163.95 127.618 165.984 126.411C162.246 128.111 159.81 129.844 157.05 134.142C154.29 138.439 153.027 143.245 152.203 147.907Z" fill="#FAFAFA" />
    <path d="M202.858 104.656C199.444 108.246 194.21 112.36 181.949 115.684L181.791 115.729L180.851 115.973L180.678 116.015L180.204 116.139C180.204 116.139 189.792 114.68 196.214 111.198C199.974 109.149 202.23 107.325 203.798 105.558C203.588 105.355 203.381 105.148 203.163 104.945L202.858 104.656Z" fill="#FAFAFA" />
    <path d="M119.273 165.24C113.566 165.732 107.962 167.052 102.635 169.158C97.2809 171.287 92.6824 175.141 91.9267 175.791L91.8364 175.874C91.8665 175.84 91.8891 175.806 91.9191 175.776C95.9123 171.193 100.191 168.963 105.696 167.162C111.05 165.41 117.412 165.365 119.205 165.237L119.273 165.24Z" fill="#FAFAFA" />
    <path d="M214.593 122.331C212.337 123.459 207.355 125.512 198.425 127.069C191.232 128.321 186.54 128.949 182.686 129.998L182.61 130.021C180.62 130.539 178.691 131.27 176.858 132.201C174.254 133.599 171.799 135.26 169.533 137.157C169.533 137.157 169.533 137.157 169.514 137.157C169.646 136.995 173.97 131.803 182.93 128.633C191.082 125.753 206.302 124.787 214.089 122.241L214.191 122.204C214.311 122.166 214.424 122.125 214.54 122.083C214.544 122.181 214.57 122.256 214.593 122.331Z" fill="#FAFAFA" />
    <path d="M209.78 112.672C209.657 112.489 209.532 112.305 209.404 112.119C205.044 115.11 200.27 117.446 195.233 119.053C195.533 119.015 200.147 118.38 207.659 114.732C208.584 114.285 209.445 113.826 210.25 113.36L209.78 112.672Z" fill="#FAFAFA" />
    <path d="M93.0585 164.819L92.7389 164.966L92.3855 165.131L92.1185 165.267C89.2346 166.771 82.3124 171.602 79.2706 176.547L78.387 176.238C78.2554 176.186 78.1238 176.141 77.9922 176.096C83.087 169.647 89.3963 166.064 93.0585 164.819Z" fill="#FAFAFA" />
    <path d="M142.472 170.535C151.643 169.557 153.82 167.248 153.82 167.248C147.293 170.459 131.982 169.504 123.947 170.17C115.912 170.835 110.479 172.178 107.305 175.024C107.305 175.024 109.561 173.441 117.273 172.11C122.834 171.151 134.133 171.422 142.472 170.535Z" fill="#FAFAFA" />
    <path d="M132.836 148.847C132.309 148.847 131.546 148.155 131.215 147.787C130.433 146.922 129.64 145.971 129.388 145.662C128.959 145.741 127.508 146.019 125.974 146.414L125.598 146.516C125.205 146.646 124.799 146.73 124.387 146.768C124.294 146.778 124.201 146.763 124.116 146.723C124.032 146.683 123.96 146.62 123.91 146.542C123.789 146.324 123.872 146.008 124.188 145.493C124.853 144.414 126.263 143.613 126.959 143.237C126.283 142.879 125.584 142.564 124.868 142.293C124.545 142.18 124.116 141.985 124.116 141.635C124.116 141.459 124.237 141.218 124.778 141.045C125.318 140.914 125.873 140.852 126.429 140.861C126.658 140.861 126.88 140.861 127.087 140.891C128.062 140.947 129.026 141.133 129.952 141.443C130.929 140.725 132.073 140.267 133.276 140.112C133.543 140.086 133.783 140.075 133.994 140.075C134.535 140.075 134.832 140.158 134.96 140.346C134.994 140.397 135.014 140.457 135.02 140.518C135.025 140.58 135.015 140.642 134.99 140.699C134.816 141.006 134.568 141.264 134.268 141.451C133.826 141.77 133.424 142.139 133.069 142.553L133.396 142.669C134.398 143.011 135.369 143.438 136.299 143.944C137.051 144.38 137.378 144.745 137.288 145.091C137.175 145.516 136.502 145.602 135.96 145.602H135.28C134.434 145.602 133.325 145.625 132.813 145.636C132.911 146.034 133.103 146.85 133.295 147.948C133.33 148.071 133.34 148.2 133.321 148.326C133.303 148.453 133.258 148.574 133.189 148.681C133.146 148.734 133.092 148.775 133.031 148.804C132.97 148.833 132.903 148.847 132.836 148.847Z" fill="#E6E6E6" />
    <path d="M59.5384 159.841L47.5214 152.904C46.6228 152.385 46.6228 151.543 47.5214 151.024L154.234 89.4126C154.738 89.1566 155.296 89.0232 155.862 89.0232C156.428 89.0232 156.986 89.1566 157.49 89.4126L169.522 96.3535C170.421 96.8724 170.421 97.7147 169.522 98.2335L62.7945 159.841C62.29 160.097 61.7322 160.231 61.1664 160.231C60.6007 160.231 60.0429 160.097 59.5384 159.841Z" fill="#E6E6E6" />
    <path d="M167.296 91.616C167.296 91.616 163.378 89.4164 166.379 79.1704C170.03 66.7135 181.881 63.6416 190.067 64.371C190.067 64.371 186.28 66.4541 183.75 69.7027L175.587 72.0151L182.667 71.7481C182.045 73.4075 181.067 74.9103 179.802 76.1511C179.802 76.1511 174.982 76.7715 172.015 78.1364L178.121 78.2567C177.944 79.42 177.463 80.516 176.726 81.4339C175.448 83.1259 172.301 88.4087 167.296 91.616Z" fill="#92E3A9" />
    <path opacity="0.25" d="M167.296 91.616C167.296 91.616 163.378 89.4164 166.379 79.1704C170.03 66.7135 181.881 63.6416 190.067 64.371C190.067 64.371 186.28 66.4541 183.75 69.7027L175.587 72.0151L182.667 71.7481C182.045 73.4075 181.067 74.9103 179.802 76.1511C179.802 76.1511 174.982 76.7715 172.015 78.1364L178.121 78.2567C177.944 79.42 177.463 80.516 176.726 81.4339C175.448 83.1259 172.301 88.4087 167.296 91.616Z" fill="black" />
    <path d="M166.146 95.5377C166.146 95.5377 165.991 88.7697 172.748 83.7614C179.505 78.7531 191.702 81.0091 196.436 83.5809C196.436 83.5809 191.905 84.2276 185.746 88.3298L179.264 86.8258L183.265 89.9052L178.933 92.4094L172.417 90.5294L176.617 93.6878C176.617 93.6878 171.308 97.2109 166.146 95.5377Z" fill="#92E3A9" />
    <path d="M166.146 95.5377C166.146 95.5377 165.991 88.7697 172.748 83.7614C179.505 78.7531 191.702 81.0091 196.436 83.5809C196.436 83.5809 192.473 85.1676 185.743 89.0066L179.264 86.8333L183.265 89.9127L178.933 92.4169L172.417 90.5369L176.617 93.6953C176.617 93.6953 171.308 97.2109 166.146 95.5377Z" fill="#92E3A9" />
    <path opacity="0.1" d="M172.748 83.7614C165.98 88.7848 166.146 95.5377 166.146 95.5377C166.146 95.5377 169.101 88.1418 174.94 85.0548C180.78 81.9679 189.664 81.3287 196.436 83.5809C191.702 81.0091 179.501 78.7343 172.748 83.7614Z" fill="black" />
    <path d="M109.678 125.524L110.896 126.231L163.032 94.7217C163.4 94.4813 163.707 94.1576 163.927 93.7768C164.147 93.396 164.275 92.9688 164.299 92.5297L165.138 7.58L163.927 6.88064C163.783 6.81482 163.625 6.78816 163.468 6.80334C163.311 6.81853 163.16 6.87504 163.032 6.96712L109.678 37.7728V125.524Z" fill="#92E3A9" />
    <path opacity="0.1" d="M163.927 6.88064L165.138 7.58V8.61776L110.896 38.4759L109.678 37.7728L163.032 6.96712C163.16 6.87504 163.311 6.81853 163.468 6.80334C163.625 6.78816 163.783 6.81482 163.927 6.88064Z" fill="black" />
    <path d="M110.896 126.231L164.25 95.4248C164.619 95.1846 164.926 94.861 165.146 94.4801C165.366 94.0993 165.493 93.672 165.518 93.2328V8.4034C165.518 7.595 164.95 7.2754 164.25 7.67396L110.896 38.4759V126.231Z" fill="#92E3A9" />
    <path opacity="0.2" d="M109.678 37.7728L110.896 38.4759V126.231L109.678 125.527V37.7728Z" fill="black" />
    <path d="M109.7 124.132L58.1395 156.664L56.0715 156.754L54.857 156.051C54.5486 155.859 54.2973 155.588 54.1293 155.266C53.9613 154.944 53.8828 154.583 53.902 154.22V72.1129C53.9253 71.4684 54.106 70.8395 54.4285 70.281C54.751 69.7226 55.2054 69.2517 55.7519 68.9094L108.486 38.4534L109.7 39.1527V124.132Z" fill="#92E3A9" />
    <path opacity="0.1" d="M109.7 124.132L58.1395 156.664L56.0715 156.754L54.857 156.051C54.5486 155.859 54.2973 155.588 54.1293 155.266C53.9613 154.944 53.8828 154.583 53.902 154.22V72.1129C53.9253 71.4684 54.106 70.8395 54.4285 70.281C54.751 69.7226 55.2054 69.2517 55.7519 68.9094L108.486 38.4534L109.7 39.1527V124.132Z" fill="black" />
    <path d="M55.643 70.9848C55.3132 71.5399 55.1319 72.1705 55.1166 72.8159V154.9C55.0868 155.263 55.1605 155.627 55.3292 155.95C55.4978 156.272 55.7545 156.54 56.0694 156.723C56.3843 156.906 56.7445 156.995 57.1082 156.982C57.472 156.968 57.8244 156.851 58.1246 156.645L109.689 126.873V39.1639L56.9552 69.6199C56.409 69.9562 55.9575 70.4259 55.643 70.9848Z" fill="#92E3A9" />
    <path d="M115.348 126.892L109.982 123.798L111.404 39.5738L162.036 10.3361C162.236 10.2341 162.457 10.1809 162.681 10.1809C162.905 10.1809 163.126 10.2341 163.326 10.3361L165.401 11.528C165.59 11.6515 165.748 11.8181 165.86 12.0142C165.973 12.2103 166.037 12.4302 166.048 12.656L166.852 95.6918C166.852 96.1363 166.735 96.5729 166.513 96.9577C166.29 97.3426 165.97 97.662 165.585 97.8839L115.348 126.892Z" fill="#37474F" />
    <path d="M115.329 126.885L115.333 41.8336L111.404 39.5551L109.982 123.798L115.329 126.885Z" fill="#263238" />
    <path d="M166.852 12.9003V95.6955C166.852 96.14 166.735 96.5766 166.513 96.9614C166.29 97.3463 165.97 97.6657 165.585 97.8876L115.528 126.791L115.329 126.885V41.8335L166.146 12.5055C166.216 12.4643 166.296 12.4422 166.378 12.4414C166.46 12.4406 166.54 12.4612 166.612 12.5011C166.683 12.5409 166.743 12.5987 166.785 12.6688C166.827 12.7388 166.85 12.8186 166.852 12.9003Z" fill="#455A64" />
    <path d="M112.393 127.874L61.4145 157.307L60.5197 157.397L57.1545 155.446C57.0248 155.355 56.9217 155.231 56.8557 155.087C56.7896 154.943 56.763 154.784 56.7785 154.626V72.5377C56.8023 72.0988 56.9291 71.6717 57.1486 71.2909C57.368 70.9101 57.674 70.5863 58.0418 70.3456L109.024 40.9124L112.389 42.8638L112.393 127.874Z" fill="#37474F" />
    <path d="M112.393 42.8601L111.753 43.2361L103.459 48.0263L101.914 48.9175L61.4146 72.2972C61.0463 72.5376 60.7397 72.8613 60.5196 73.2421C60.2995 73.6229 60.172 74.0501 60.1475 74.4892V156.581C60.1475 157.386 60.719 157.709 61.4146 157.311L62.0914 156.935L112.393 127.889V42.8601Z" fill="#455A64" />
    <path opacity="0.2" d="M112.393 42.8601L111.753 43.2361L103.459 48.0263L101.914 48.9175L61.4146 72.2972C61.0463 72.5376 60.7397 72.8613 60.5196 73.2421C60.2995 73.6229 60.172 74.0501 60.1475 74.4892V156.581C60.1475 157.386 60.719 157.709 61.4146 157.311L62.0914 156.935L112.393 127.889V42.8601Z" fill="black" />
    <path d="M60.5157 73.2447L57.1317 71.2932C56.9 71.6682 56.7704 72.0972 56.7557 72.5378V154.626C56.7393 154.783 56.7656 154.942 56.8317 155.086C56.8979 155.229 57.0015 155.352 57.1317 155.442L60.5157 157.397C60.3875 157.306 60.2854 157.182 60.2195 157.039C60.1536 156.896 60.1261 156.738 60.1397 156.581V74.4892C60.1562 74.049 60.2857 73.6204 60.5157 73.2447Z" fill="#263238" />
    <path d="M113.024 43.2285L103.85 48.5264L102.41 49.3573L62.0461 72.6693C61.6777 72.9093 61.3712 73.233 61.1516 73.6139C60.9321 73.9949 60.8057 74.4223 60.7827 74.8614V148.366C60.7827 149.02 60.7827 149.633 60.7827 150.212C60.8542 153.246 61.2941 155.303 62.095 156.92C62.1326 156.987 62.1626 157.051 62.1965 157.119C62.2581 157.243 62.3437 157.355 62.4484 157.446C62.6742 157.63 62.9623 157.719 63.2524 157.695C63.5425 157.671 63.8122 157.536 64.005 157.318C65.263 156.117 66.6501 155.059 68.141 154.164L68.205 154.122L113.032 128.242L113.024 43.2285Z" fill="#455A64" />
    <path d="M81.0911 100.035C80.8843 101.813 80.403 103.114 79.6848 103.832C78.9667 104.55 78.429 104.047 78.1808 102.328C77.9703 100.824 78.0417 98.7676 78.3538 96.1694C77.9025 96.6798 77.3295 97.0678 76.6881 97.2974C77.2013 99.4877 77.3537 101.747 77.1393 103.986L76.9137 103.765C77.1034 101.619 76.9254 99.4578 76.3873 97.3726C76.3105 97.3893 76.231 97.3893 76.1542 97.3726L76.1016 96.7184C76.7896 96.7823 77.6056 96.286 78.6809 95.2144L78.7035 95.925C78.3781 97.9133 78.3098 99.9353 78.5004 101.941C78.6884 103.287 79.0494 103.697 79.6284 103.114C80.2075 102.531 80.6587 101.351 80.8504 99.7865L81.0911 100.035Z" fill="white" />
    <path d="M79.0945 104.242C79.0372 104.241 78.9802 104.232 78.9253 104.216C78.523 104.077 78.2485 103.464 78.0906 102.336C77.895 100.896 77.9402 98.952 78.2334 96.429C77.8341 96.8317 77.3516 97.1423 76.8197 97.339C77.3158 99.5127 77.4618 101.752 77.2521 103.972L77.2258 104.175L76.8234 103.799V103.75C77.0086 101.645 76.8396 99.5235 76.3234 97.4743C76.265 97.4858 76.205 97.4858 76.1466 97.4743H76.0714L76 96.6246H76.1203C76.7558 96.6885 77.5266 96.2486 78.6245 95.1619L78.7862 95.0002L78.8162 95.9402C78.4886 97.9284 78.4204 99.9506 78.6132 101.956C78.7523 102.964 78.9629 103.238 79.117 103.291C79.2712 103.344 79.3915 103.257 79.5758 103.073C80.1586 102.486 80.5834 101.328 80.7677 99.8055L80.794 99.6025L81.1963 100.001V100.05C80.9858 101.843 80.4894 103.178 79.76 103.908C79.589 104.1 79.3509 104.22 79.0945 104.242ZM78.5004 95.8838L78.4628 96.1696C78.1432 98.8242 78.0868 100.832 78.2898 102.306C78.4778 103.66 78.8087 103.964 78.9892 104.024C79.1697 104.084 79.3652 103.99 79.6134 103.746C80.3052 103.058 80.779 101.78 80.9858 100.054L80.9406 100.012C80.7376 101.516 80.3165 102.595 79.7186 103.197C79.4742 103.438 79.2486 103.528 79.0531 103.464C78.7448 103.359 78.538 102.881 78.4139 101.96C78.2205 99.9406 78.2888 97.9046 78.617 95.9026V95.4364C77.6243 96.3764 76.8836 96.805 76.2482 96.805L76.2858 97.2638C76.3245 97.2686 76.3636 97.2686 76.4023 97.2638L76.4963 97.2412L76.5226 97.3352C77.061 99.4203 77.2415 101.582 77.0566 103.727L77.0979 103.769C77.2791 101.608 77.1205 99.4319 76.6279 97.3202L76.6054 97.2262L76.6994 97.1998C77.3216 96.9801 77.8788 96.6078 78.3199 96.117L78.5004 95.8838Z" fill="white" />
    <path d="M85.2671 78.2011C84.8047 74.8697 85.3085 71.8881 86.6696 70.5269C86.9625 70.2578 87.2713 70.0067 87.5946 69.7749L87.9104 69.3049L88.3391 75.836C88.4406 77.3776 88.5872 77.8288 88.8767 77.5356C89.2527 77.1596 89.5911 76.0729 89.7603 74.5952L89.9747 74.8246C89.7829 76.5016 89.358 77.8326 88.888 78.3026C88.512 78.6786 88.2413 78.3289 88.1022 77.1408C87.8427 78.7237 87.4517 79.7389 86.8952 80.2954C86.1056 81.0624 85.5755 80.3969 85.2671 78.2011ZM88.0232 76.2421L87.6472 70.4029C87.3177 70.6216 87.0116 70.8736 86.7335 71.1549C85.6055 72.2829 85.1882 74.9148 85.6055 77.8288C85.8537 79.6186 86.2635 80.2052 86.8727 79.596C87.3803 79.0809 87.7751 77.9567 88.0232 76.2421Z" fill="white" />
    <path d="M86.3125 80.6938C86.2563 80.6943 86.2004 80.6854 86.1471 80.6675C85.6921 80.5134 85.3951 79.735 85.1695 78.216C84.6919 74.7869 85.2409 71.824 86.5983 70.4554C86.8897 70.1861 87.1973 69.935 87.5195 69.7034L87.9932 69.0002L88.4407 75.8284C88.5309 77.2384 88.6587 77.4903 88.7264 77.5166C88.7264 77.5166 88.7565 77.5166 88.8054 77.4602C89.1814 77.0842 89.4972 75.9938 89.6627 74.5801L89.6852 74.3658L90.08 74.7831V74.832C89.8845 76.5202 89.4559 77.8776 88.952 78.3702C88.9026 78.4373 88.8346 78.4884 88.7564 78.5171C88.6781 78.5459 88.5932 78.551 88.5121 78.5318C88.3241 78.4679 88.1887 78.216 88.0872 77.7347C87.8278 79.0131 87.4668 79.8554 86.9592 80.3667C86.793 80.554 86.5618 80.6709 86.3125 80.6938ZM85.365 78.1859C85.6094 79.9268 85.9591 80.393 86.211 80.4795C86.3802 80.5322 86.587 80.4419 86.8239 80.205C87.3653 79.6636 87.7526 78.6484 88.0007 77.103L88.1173 76.3999L88.2 77.1068C88.3203 78.0957 88.4933 78.295 88.576 78.3288C88.6587 78.3626 88.7415 78.2799 88.8091 78.2122C89.2603 77.761 89.6739 76.4413 89.8619 74.8282L89.8281 74.7869C89.6476 76.163 89.3205 77.197 88.9407 77.5768C88.9078 77.6213 88.8622 77.6549 88.8098 77.673C88.7575 77.6911 88.7009 77.693 88.6475 77.6783C88.4557 77.6069 88.3279 77.276 88.2301 75.7983L87.824 69.5605L87.6473 69.8124C87.3279 70.0445 87.0228 70.2956 86.7336 70.5644C85.4176 71.8804 84.8912 74.7906 85.3575 78.1558L85.365 78.1859ZM86.4291 79.9381C86.3842 79.9385 86.3396 79.9308 86.2975 79.9155C85.9215 79.7914 85.6695 79.1334 85.4891 77.8475C85.0642 74.8395 85.5079 72.2338 86.6509 71.0795C86.9335 70.7973 87.2448 70.5453 87.5796 70.3275L87.7263 70.2298L88.1248 76.2458C87.8729 77.9716 87.4706 79.1222 86.9291 79.6636C86.805 79.8172 86.6253 79.9158 86.4291 79.9381ZM87.5571 70.5832C87.2901 70.779 87.0387 70.9953 86.8051 71.2299C85.7222 72.3128 85.3011 74.8997 85.6996 77.8212C85.9027 79.2763 86.1771 79.6598 86.3727 79.7238C86.4855 79.7614 86.6321 79.6974 86.7975 79.532C87.3089 79.0244 87.6887 77.9152 87.9255 76.2382L87.5571 70.5832Z" fill="white" />
    <path d="M84.2671 97.2011C83.8047 93.8697 84.3085 90.8881 85.6696 89.5269C85.9625 89.2578 86.2713 89.0067 86.5946 88.7749L86.9104 88.3049L87.3391 94.836C87.4406 96.3776 87.5872 96.8288 87.8767 96.5356C88.2527 96.1596 88.5911 95.0729 88.7603 93.5952L88.9747 93.8246C88.7829 95.5016 88.358 96.8326 87.888 97.3026C87.512 97.6786 87.2413 97.3289 87.1022 96.1408C86.8427 97.7237 86.4517 98.7389 85.8952 99.2954C85.1056 100.062 84.5755 99.3969 84.2671 97.2011ZM87.0232 95.2421L86.6472 89.4029C86.3177 89.6216 86.0116 89.8736 85.7335 90.1549C84.6055 91.2829 84.1882 93.9148 84.6055 96.8288C84.8537 98.6186 85.2635 99.2052 85.8727 98.596C86.3803 98.0809 86.7751 96.9567 87.0232 95.2421Z" fill="white" />
    <path d="M85.3125 99.6938C85.2563 99.6943 85.2004 99.6854 85.1471 99.6675C84.6921 99.5134 84.3951 98.735 84.1695 97.216C83.6919 93.7869 84.2409 90.824 85.5983 89.4554C85.8897 89.1861 86.1973 88.935 86.5195 88.7034L86.9932 88.0002L87.4407 94.8284C87.5309 96.2384 87.6587 96.4903 87.7264 96.5166C87.7264 96.5166 87.7565 96.5166 87.8054 96.4602C88.1814 96.0842 88.4972 94.9938 88.6627 93.5801L88.6852 93.3658L89.08 93.7831V93.832C88.8845 95.5202 88.4559 96.8776 87.952 97.3702C87.9026 97.4373 87.8346 97.4884 87.7564 97.5171C87.6781 97.5459 87.5932 97.551 87.5121 97.5318C87.3241 97.4679 87.1887 97.216 87.0872 96.7347C86.8278 98.0131 86.4668 98.8554 85.9592 99.3667C85.793 99.554 85.5618 99.6709 85.3125 99.6938ZM84.365 97.1859C84.6094 98.9268 84.9591 99.393 85.211 99.4795C85.3802 99.5322 85.587 99.4419 85.8239 99.205C86.3653 98.6636 86.7526 97.6484 87.0007 96.103L87.1173 95.3999L87.2 96.1068C87.3203 97.0957 87.4933 97.295 87.576 97.3288C87.6587 97.3626 87.7415 97.2799 87.8091 97.2122C88.2603 96.761 88.6739 95.4413 88.8619 93.8282L88.8281 93.7869C88.6476 95.163 88.3205 96.197 87.9407 96.5768C87.9078 96.6213 87.8622 96.6549 87.8098 96.673C87.7575 96.6911 87.7009 96.693 87.6475 96.6783C87.4557 96.6069 87.3279 96.276 87.2301 94.7983L86.824 88.5605L86.6473 88.8124C86.3279 89.0445 86.0228 89.2956 85.7336 89.5644C84.4176 90.8804 83.8912 93.7906 84.3575 97.1558L84.365 97.1859ZM85.4291 98.9381C85.3842 98.9385 85.3396 98.9308 85.2975 98.9155C84.9215 98.7914 84.6695 98.1334 84.4891 96.8475C84.0642 93.8395 84.5079 91.2338 85.6509 90.0795C85.9335 89.7973 86.2448 89.5453 86.5796 89.3275L86.7263 89.2298L87.1248 95.2458C86.8729 96.9716 86.4706 98.1222 85.9291 98.6636C85.805 98.8172 85.6253 98.9158 85.4291 98.9381ZM86.5571 89.5832C86.2901 89.779 86.0387 89.9953 85.8051 90.2299C84.7222 91.3128 84.3011 93.8997 84.6996 96.8212C84.9027 98.2763 85.1771 98.6598 85.3727 98.7238C85.4855 98.7614 85.6321 98.6974 85.7975 98.532C86.3089 98.0244 86.6887 96.9152 86.9255 95.2382L86.5571 89.5832Z" fill="white" />
    <path d="M69.094 102.406C69.0363 102.414 68.9805 102.431 68.9294 102.457C68.5264 102.653 68.3439 103.397 68.4165 104.658L68.7075 110.239L67.6539 111.003L67.7004 111.895L68.7582 111.131L69 115.5L69.5 115L69.3077 110.873L70.4689 110.053L70.4181 109.161L69.2706 109.987L69.053 105.012C68.9878 103.709 69.2062 103.476 69.301 103.414C69.3959 103.353 69.525 103.351 69.623 103.414C70.1393 103.765 70.4013 104.211 70.7759 105.622L70.8271 105.82L71.2311 105.366L71.2234 105.306C70.7593 103.6 70.4658 103.099 69.7807 102.634C69.7032 102.569 69.5099 102.478 69.4095 102.446C69.309 102.414 69.2018 102.4 69.094 102.406Z" fill="white" />
    <path d="M81.1191 91.1727C81.0866 90.9952 81.0898 90.813 81.1286 90.6367C81.1673 90.4605 81.2408 90.2937 81.3447 90.1462C81.5064 89.9845 81.6493 90.1462 81.6869 90.4696C81.7472 90.8234 81.6691 91.1869 81.4688 91.4848C81.3034 91.654 81.1605 91.496 81.1191 91.1727ZM84.0745 98.437C83.8752 100.076 83.4767 101.445 82.9239 101.979C82.3712 102.513 81.9576 101.949 81.8298 100.099L81.4087 93.6731L81.717 93.2294L82.1531 99.6665C82.2659 101.37 82.5291 101.641 82.9051 101.257C83.3751 100.791 83.6872 99.5913 83.8489 98.249L84.0745 98.437Z" fill="white" />
    <path d="M82.5442 102.287C82.4993 102.288 82.4547 102.28 82.4126 102.265C82.0366 102.126 81.826 101.415 81.732 100.088L81.3071 93.6243L81.8035 92.9212L82.2471 99.6403C82.3374 100.986 82.5141 101.25 82.6231 101.287C82.7322 101.325 82.7773 101.235 82.8412 101.171C83.2511 100.765 83.5932 99.6667 83.7549 98.204L83.7775 98.001L84.1835 98.3995V98.4484C83.9692 100.201 83.5406 101.513 83.0029 102.051C82.9461 102.119 82.8762 102.175 82.7974 102.215C82.7187 102.256 82.6326 102.28 82.5442 102.287ZM81.5139 93.6807L81.9351 100.073C82.0441 101.678 82.3111 102.017 82.4803 102.077C82.6495 102.137 82.7096 102.077 82.8563 101.908C83.3601 101.408 83.7662 100.155 83.9843 98.471L83.9391 98.4296C83.8226 99.3433 83.5631 100.753 82.9954 101.31C82.939 101.37 82.7585 101.547 82.563 101.475C82.3675 101.404 82.1682 101.133 82.0667 99.6554L81.6531 93.5003L81.5139 93.6807ZM81.3372 91.6579C81.3136 91.6625 81.2894 91.6625 81.2658 91.6579C81.1379 91.6127 81.0515 91.4548 81.0251 91.1991C80.9885 91.0069 80.9919 90.8091 81.0353 90.6182C81.0786 90.4274 81.161 90.2475 81.2771 90.0899C81.3083 90.0523 81.3499 90.0248 81.3967 90.0107C81.4436 89.9967 81.4935 89.9968 81.5403 90.011C81.6719 90.0561 81.7621 90.2253 81.7884 90.4735C81.852 90.8573 81.7644 91.2508 81.544 91.5714C81.4893 91.6265 81.4149 91.6576 81.3372 91.6579ZM81.4726 90.1839C81.4514 90.1883 81.4326 90.2003 81.4199 90.2178C81.2319 90.4925 81.1603 90.8304 81.2207 91.1578C81.2395 91.3533 81.2996 91.4435 81.3297 91.4548C81.3598 91.4661 81.3673 91.4548 81.3974 91.4135C81.5745 91.1371 81.6415 90.8044 81.5854 90.481C81.5666 90.2855 81.5064 90.1952 81.4726 90.1839Z" fill="white" />
    <path d="M76.9674 88.612C76.7945 90.0897 76.4072 91.323 75.8395 91.8795C75.7498 92.0018 75.616 92.0844 75.4665 92.1096C75.3169 92.1349 75.1634 92.1009 75.0386 92.0148C74.8692 92.7104 74.5352 93.3552 74.0647 93.8948C73.1774 94.7784 72.5607 94.0001 72.2487 91.7667C71.82 88.7587 72.29 85.6905 73.512 84.4685C74.4069 83.5774 75.016 84.3068 75.3206 86.5215C75.5615 88.1265 75.5234 89.7611 75.2078 91.3531C75.4108 91.4884 75.5838 91.4358 75.7906 91.2403C76.2756 90.7515 76.5689 89.7739 76.7343 88.3902L76.9674 88.612ZM75.0047 86.7997C74.7528 84.9874 74.2527 84.4384 73.5985 85.0739C72.5946 86.0552 72.2111 88.7925 72.5795 91.4659C72.8352 93.297 73.3503 93.8647 73.982 93.2556C74.9709 92.3344 75.3883 89.5445 75.0047 86.7997Z" fill="white" />
    <path d="M73.4144 94.3534C73.3492 94.3548 73.2843 94.3446 73.2227 94.3233C72.7226 94.1541 72.3729 93.3232 72.1548 91.7816C71.7112 88.642 72.2451 85.6077 73.4483 84.4045C73.7904 84.0623 74.1063 83.9382 74.3883 84.0285C74.8771 84.1901 75.2155 85.0023 75.426 86.5063C75.665 88.0996 75.632 89.7218 75.3283 91.3041C75.4298 91.3492 75.5501 91.3454 75.7268 91.1687C76.1743 90.7213 76.4788 89.8076 76.6443 88.375L76.6668 88.1757L77.0729 88.5705V88.6194C76.8924 90.1873 76.4751 91.3981 75.9261 91.947C75.8329 92.0668 75.7027 92.1523 75.5558 92.1904C75.409 92.2285 75.2536 92.2169 75.114 92.1576C74.9383 92.8272 74.6087 93.4465 74.1514 93.9661C73.9661 94.187 73.7014 94.3261 73.4144 94.3534ZM74.2003 84.2014C73.9614 84.2348 73.7439 84.357 73.5912 84.5436C72.4293 85.7092 71.918 88.6796 72.3541 91.7553C72.606 93.5488 73.0008 94.0376 73.2866 94.1353C73.4896 94.203 73.7303 94.0977 74.001 93.827C74.461 93.2994 74.7873 92.6687 74.9523 91.9884L74.9899 91.8605L75.1027 91.932C75.2094 92.0037 75.3399 92.0309 75.4663 92.0077C75.5928 91.9845 75.7052 91.9128 75.7795 91.8079C76.2871 91.2965 76.6819 90.1497 76.8624 88.6495L76.8172 88.6044C76.6368 89.9693 76.3247 90.8604 75.8697 91.3153C75.7906 91.423 75.6732 91.4962 75.5417 91.52C75.4103 91.5437 75.2747 91.5163 75.1628 91.4432L75.1027 91.4056V91.3379C75.4162 89.757 75.4531 88.1337 75.2117 86.5401C74.9673 84.7917 74.5876 84.3142 74.3093 84.224C74.2745 84.2104 74.2376 84.2027 74.2003 84.2014ZM73.5235 93.6014C73.4685 93.6019 73.4138 93.593 73.3618 93.5751C72.9482 93.4322 72.6512 92.7329 72.4782 91.4921C72.1022 88.6984 72.5384 85.9686 73.5272 84.9985C73.6112 84.8922 73.7235 84.8117 73.8513 84.7664C73.979 84.7212 74.117 84.713 74.2492 84.7429C74.6515 84.882 74.9297 85.5513 75.1027 86.7808C75.5012 89.6196 75.0613 92.3757 74.0536 93.3382C73.9196 93.4956 73.7293 93.5941 73.5235 93.6127V93.6014ZM74.0875 84.9196C73.9247 84.9388 73.7754 85.0195 73.6701 85.1452C72.7188 86.0701 72.3052 88.7285 72.6775 91.4657C72.888 92.9697 73.2377 93.3194 73.4295 93.3833C73.6212 93.4473 73.734 93.3833 73.9183 93.1953C74.8658 92.2892 75.2944 89.5406 74.9072 86.8033C74.7004 85.2993 74.3657 84.991 74.1852 84.9233C74.1532 84.9159 74.12 84.9146 74.0875 84.9196Z" fill="white" />
    <path d="M72.159 92.8282C71.8749 95.2351 71.3281 97.0739 70.6634 97.7439C69.9987 98.414 69.5591 97.6099 69.3929 95.0636L69.0498 89.7029C68.9104 87.5586 68.4708 86.7116 67.6131 87.5586C67.0074 88.1643 66.1979 89.8851 65.5868 92.4261L66.2247 101.963L65.7583 102.429L64.8845 89.4938L65.3402 88.8451L65.5064 91.3057C66.1443 88.8022 66.868 87.3227 67.6131 86.5776C68.7228 85.4679 69.3232 86.6044 69.4679 88.9256L69.8271 94.2863C70.004 96.8273 70.2453 97.0631 70.658 96.645C71.1673 96.1411 71.6122 94.5275 71.8428 92.528L72.159 92.8282Z" fill="white" />
    <path d="M77.9814 88.7196L77.9438 88.0277C78.1334 88.0641 78.3294 88.0483 78.5108 87.9821C78.6923 87.9159 78.8523 87.8017 78.974 87.6517C79.5756 87.0501 79.9065 85.9898 79.7034 84.5761C79.4327 82.7149 78.1994 82.9705 77.7332 80.3385H77.7144C77.2895 82.869 77.6242 85.3957 77.3384 87.5728L77.1128 87.3547C77.376 85.298 77.0338 82.3125 77.5678 79.6956L77.8911 79.2632C78.3122 82.6058 79.6696 81.741 80.023 84.2038C80.1206 84.8263 80.127 85.4596 80.0418 86.0838C80.6547 85.6289 81.0909 84.7265 81.2751 83.2074L81.5007 83.4293C81.2751 85.3093 80.6773 86.3583 79.8388 86.9298C79.6865 87.4339 79.4158 87.8942 79.0492 88.2721C78.9188 88.4253 78.7542 88.5455 78.5687 88.6233C78.3832 88.701 78.182 88.734 77.9814 88.7196Z" fill="white" />
    <path d="M78.113 88.8249C78.0642 88.8286 78.0151 88.8286 77.9663 88.8249H77.8874L77.8347 87.9074L77.9738 87.9525C78.148 87.9759 78.3252 87.9536 78.488 87.8876C78.6509 87.8217 78.7938 87.7145 78.9026 87.5765C79.5305 86.9449 79.7862 85.8545 79.6057 84.5686C79.5194 83.9422 79.2394 83.3584 78.8048 82.8991C78.2832 82.3122 77.9173 81.6037 77.7407 80.8386C77.6066 82.0306 77.5501 83.2301 77.5715 84.4294C77.5924 85.4817 77.5447 86.5342 77.4286 87.5803L77.4023 87.7796L77 87.3848V87.3359C77.0941 86.3764 77.1331 85.4122 77.1166 84.4482C77.0775 82.8494 77.1908 81.2504 77.455 79.673V79.6317L77.925 79L77.955 79.2444C78.1806 81.0266 78.6657 81.5831 79.1319 82.1208C79.6787 82.6786 80.0172 83.4074 80.0907 84.185C80.1716 84.7264 80.188 85.2754 80.1396 85.8206C80.651 85.313 80.9894 84.4257 81.1435 83.1886L81.1698 82.9856L81.5722 83.3842V83.433C81.3654 85.1777 80.8202 86.3395 79.8952 86.9862C79.7388 87.4932 79.4643 87.9558 79.0943 88.3361C78.8404 88.6167 78.4899 88.7912 78.113 88.8249ZM78.0791 88.6256C78.2498 88.6167 78.4168 88.5732 78.57 88.4975C78.7233 88.4219 78.8595 88.3158 78.9702 88.1857C79.3211 87.8182 79.5789 87.3721 79.7222 86.8847V86.8509H79.7523C80.6322 86.2493 81.1586 85.1438 81.3654 83.4669L81.3202 83.4218C81.1247 84.7829 80.7149 85.6778 80.0719 86.1666L79.8726 86.3094L79.9102 86.0688C80.0002 85.4592 80.0002 84.8397 79.9102 84.2302C79.8419 83.4918 79.5205 82.7997 79.0003 82.2712C78.5566 81.7598 78.0566 81.1846 77.8084 79.5339L77.6467 79.752C77.3897 81.3112 77.2801 82.8911 77.3196 84.4708C77.332 85.426 77.2931 86.3811 77.203 87.3322L77.2482 87.3735C77.3418 86.4014 77.3807 85.4247 77.3647 84.4482C77.3316 83.0739 77.4133 81.6992 77.6091 80.3386V80.3047L77.767 80.1468L77.8197 80.3198C77.9429 81.2367 78.3355 82.0964 78.9477 82.7901C79.4064 83.278 79.701 83.8973 79.7899 84.561C79.9854 85.8958 79.7072 87.0502 79.0379 87.7232C78.917 87.8665 78.7653 87.9805 78.594 88.0567C78.4227 88.1329 78.2364 88.1692 78.049 88.1631L78.0791 88.6256Z" fill="white" />
    <path d="M81.9814 83.7198L81.9438 83.028C82.1334 83.0643 82.3294 83.0486 82.5108 82.9824C82.6923 82.9161 82.8523 82.802 82.974 82.652C83.5756 82.0504 83.9065 80.9901 83.7034 79.5763C83.4327 77.7151 82.1994 77.9708 81.7332 75.3388H81.7144C81.2895 77.8693 81.6242 80.396 81.3384 82.573L81.1128 82.3549C81.376 80.2982 81.0338 77.3128 81.5678 74.6958L81.8911 74.2634C82.3122 77.6061 83.6696 76.7413 84.023 79.2041C84.1206 79.8265 84.127 80.4598 84.0418 81.0841C84.6547 80.6291 85.0909 79.7267 85.2751 78.2077L85.5007 78.4295C85.2751 80.3095 84.6773 81.3586 83.8388 81.9301C83.6865 82.4341 83.4158 82.8944 83.0492 83.2724C82.9188 83.4255 82.7542 83.5458 82.5687 83.6235C82.3832 83.7012 82.182 83.7342 81.9814 83.7198Z" fill="white" />
    <path d="M82.113 83.8251C82.0642 83.8288 82.0151 83.8288 81.9663 83.8251H81.8874L81.8347 82.9077L81.9738 82.9528C82.148 82.9762 82.3252 82.9538 82.488 82.8879C82.6509 82.8219 82.7938 82.7147 82.9026 82.5768C83.5305 81.9451 83.7862 80.8547 83.6057 79.5688C83.5194 78.9424 83.2394 78.3587 82.8048 77.8994C82.2832 77.3125 81.9173 76.604 81.7407 75.8389C81.6066 77.0309 81.5501 78.2303 81.5715 79.4297C81.5924 80.482 81.5447 81.5345 81.4286 82.5806L81.4023 82.7798L81 82.385V82.3362C81.0941 81.3766 81.1331 80.4125 81.1166 79.4485C81.0775 77.8496 81.1908 76.2507 81.455 74.6733V74.6319L81.925 74.0002L81.955 74.2446C82.1806 76.0269 82.6657 76.5834 83.1319 77.121C83.6787 77.6788 84.0172 78.4076 84.0907 79.1853C84.1716 79.7266 84.188 80.2757 84.1396 80.8209C84.651 80.3133 84.9894 79.4259 85.1435 78.1889L85.1698 77.9858L85.5722 78.3844V78.4333C85.3654 80.1779 84.8202 81.3398 83.8952 81.9865C83.7388 82.4934 83.4643 82.956 83.0943 83.3363C82.8404 83.6169 82.4899 83.7915 82.113 83.8251ZM82.0791 83.6258C82.2498 83.617 82.4168 83.5734 82.57 83.4978C82.7233 83.4221 82.8595 83.316 82.9702 83.1859C83.3211 82.8185 83.5789 82.3724 83.7222 81.885V81.8511H83.7523C84.6322 81.2495 85.1586 80.1441 85.3654 78.4671L85.3202 78.422C85.1247 79.7831 84.7149 80.678 84.0719 81.1668L83.8726 81.3097L83.9102 81.069C84.0002 80.4595 84.0002 79.84 83.9102 79.2304C83.8419 78.492 83.5205 77.7999 83.0003 77.2714C82.5566 76.7601 82.0566 76.1848 81.8084 74.5342L81.6467 74.7522C81.3897 76.3114 81.2801 77.8913 81.3196 79.471C81.332 80.4262 81.2931 81.3814 81.203 82.3324L81.2482 82.3738C81.3418 81.4016 81.3807 80.425 81.3647 79.4485C81.3316 78.0742 81.4133 76.6995 81.6091 75.3388V75.305L81.767 75.147L81.8197 75.32C81.9429 76.2369 82.3355 77.0967 82.9477 77.7903C83.4064 78.2782 83.701 78.8975 83.7899 79.5613C83.9854 80.8961 83.7072 82.0504 83.0379 82.7234C82.917 82.8667 82.7653 82.9807 82.594 83.0569C82.4227 83.1331 82.2364 83.1695 82.049 83.1634L82.0791 83.6258Z" fill="white" />
    <path d="M90.9814 75.7198L90.9438 75.028C91.1334 75.0643 91.3294 75.0486 91.5108 74.9824C91.6923 74.9161 91.8523 74.802 91.974 74.652C92.5756 74.0504 92.9065 72.9901 92.7034 71.5763C92.4327 69.7151 91.1994 69.9708 90.7332 67.3388H90.7144C90.2895 69.8693 90.6242 72.396 90.3384 74.573L90.1128 74.3549C90.376 72.2982 90.0338 69.3128 90.5678 66.6958L90.8911 66.2634C91.3122 69.6061 92.6696 68.7413 93.023 71.2041C93.1206 71.8265 93.127 72.4598 93.0418 73.0841C93.6547 72.6291 94.0909 71.7267 94.2751 70.2077L94.5007 70.4295C94.2751 72.3095 93.6773 73.3586 92.8388 73.9301C92.6865 74.4341 92.4158 74.8944 92.0492 75.2724C91.9188 75.4255 91.7542 75.5458 91.5687 75.6235C91.3832 75.7012 91.182 75.7342 90.9814 75.7198Z" fill="white" />
    <path d="M91.113 75.8251C91.0642 75.8288 91.0151 75.8288 90.9663 75.8251H90.8874L90.8347 74.9077L90.9738 74.9528C91.148 74.9762 91.3252 74.9538 91.488 74.8879C91.6509 74.8219 91.7938 74.7147 91.9026 74.5768C92.5305 73.9451 92.7862 72.8547 92.6057 71.5688C92.5194 70.9424 92.2394 70.3587 91.8048 69.8994C91.2832 69.3125 90.9173 68.604 90.7407 67.8389C90.6066 69.0309 90.5501 70.2303 90.5715 71.4297C90.5924 72.482 90.5447 73.5345 90.4286 74.5806L90.4023 74.7798L90 74.385V74.3362C90.0941 73.3766 90.1331 72.4125 90.1166 71.4485C90.0775 69.8496 90.1908 68.2507 90.455 66.6733V66.6319L90.925 66.0002L90.955 66.2446C91.1806 68.0269 91.6657 68.5834 92.1319 69.121C92.6787 69.6788 93.0172 70.4076 93.0907 71.1853C93.1716 71.7266 93.188 72.2757 93.1396 72.8209C93.651 72.3133 93.9894 71.4259 94.1435 70.1889L94.1698 69.9858L94.5722 70.3844V70.4333C94.3654 72.1779 93.8202 73.3398 92.8952 73.9865C92.7388 74.4934 92.4643 74.956 92.0943 75.3363C91.8404 75.6169 91.4899 75.7915 91.113 75.8251ZM91.0791 75.6258C91.2498 75.617 91.4168 75.5734 91.57 75.4978C91.7233 75.4221 91.8595 75.316 91.9702 75.1859C92.3211 74.8185 92.5789 74.3724 92.7222 73.885V73.8511H92.7523C93.6322 73.2495 94.1586 72.1441 94.3654 70.4671L94.3202 70.422C94.1247 71.7831 93.7149 72.678 93.0719 73.1668L92.8726 73.3097L92.9102 73.069C93.0002 72.4595 93.0002 71.84 92.9102 71.2304C92.8419 70.492 92.5205 69.7999 92.0003 69.2714C91.5566 68.7601 91.0566 68.1848 90.8084 66.5342L90.6467 66.7522C90.3897 68.3114 90.2801 69.8913 90.3196 71.471C90.332 72.4262 90.2931 73.3814 90.203 74.3324L90.2482 74.3738C90.3418 73.4016 90.3807 72.425 90.3647 71.4485C90.3316 70.0742 90.4133 68.6995 90.6091 67.3388V67.305L90.767 67.147L90.8197 67.32C90.9429 68.2369 91.3355 69.0967 91.9477 69.7903C92.4064 70.2782 92.701 70.8975 92.7899 71.5613C92.9854 72.8961 92.7072 74.0504 92.0379 74.7234C91.917 74.8667 91.7653 74.9807 91.594 75.0569C91.4227 75.1331 91.2364 75.1695 91.049 75.1634L91.0791 75.6258Z" fill="white" />
    <path d="M89.9814 94.7198L89.9438 94.028C90.1334 94.0643 90.3294 94.0486 90.5108 93.9824C90.6923 93.9161 90.8523 93.802 90.974 93.652C91.5756 93.0504 91.9065 91.9901 91.7034 90.5763C91.4327 88.7151 90.1994 88.9708 89.7332 86.3388H89.7144C89.2895 88.8693 89.6242 91.396 89.3384 93.573L89.1128 93.3549C89.376 91.2982 89.0338 88.3128 89.5678 85.6958L89.8911 85.2634C90.3122 88.6061 91.6696 87.7413 92.023 90.2041C92.1206 90.8265 92.127 91.4598 92.0418 92.0841C92.6547 91.6291 93.0909 90.7267 93.2751 89.2077L93.5007 89.4295C93.2751 91.3095 92.6773 92.3586 91.8388 92.9301C91.6865 93.4341 91.4158 93.8944 91.0492 94.2724C90.9188 94.4255 90.7542 94.5458 90.5687 94.6235C90.3832 94.7012 90.182 94.7342 89.9814 94.7198Z" fill="white" />
    <path d="M90.113 94.8251C90.0642 94.8288 90.0151 94.8288 89.9663 94.8251H89.8874L89.8347 93.9077L89.9738 93.9528C90.148 93.9762 90.3252 93.9538 90.488 93.8879C90.6509 93.8219 90.7938 93.7147 90.9026 93.5768C91.5305 92.9451 91.7862 91.8547 91.6057 90.5688C91.5194 89.9424 91.2394 89.3587 90.8048 88.8994C90.2832 88.3125 89.9173 87.604 89.7407 86.8389C89.6066 88.0309 89.5501 89.2303 89.5715 90.4297C89.5924 91.482 89.5447 92.5345 89.4286 93.5806L89.4023 93.7798L89 93.385V93.3362C89.0941 92.3766 89.1331 91.4125 89.1166 90.4485C89.0775 88.8496 89.1908 87.2507 89.455 85.6733V85.6319L89.925 85.0002L89.955 85.2446C90.1806 87.0269 90.6657 87.5834 91.1319 88.121C91.6787 88.6788 92.0172 89.4076 92.0907 90.1853C92.1716 90.7266 92.188 91.2757 92.1396 91.8209C92.651 91.3133 92.9894 90.4259 93.1435 89.1889L93.1698 88.9858L93.5722 89.3844V89.4333C93.3654 91.1779 92.8202 92.3398 91.8952 92.9865C91.7388 93.4934 91.4643 93.956 91.0943 94.3363C90.8404 94.6169 90.4899 94.7915 90.113 94.8251ZM90.0791 94.6258C90.2498 94.617 90.4168 94.5734 90.57 94.4978C90.7233 94.4221 90.8595 94.316 90.9702 94.1859C91.3211 93.8185 91.5789 93.3724 91.7222 92.885V92.8511H91.7523C92.6322 92.2495 93.1586 91.1441 93.3654 89.4671L93.3202 89.422C93.1247 90.7831 92.7149 91.678 92.0719 92.1668L91.8726 92.3097L91.9102 92.069C92.0002 91.4595 92.0002 90.84 91.9102 90.2304C91.8419 89.492 91.5205 88.7999 91.0003 88.2714C90.5566 87.7601 90.0566 87.1848 89.8084 85.5342L89.6467 85.7522C89.3897 87.3114 89.2801 88.8913 89.3196 90.471C89.332 91.4262 89.2931 92.3814 89.203 93.3324L89.2482 93.3738C89.3418 92.4016 89.3807 91.425 89.3647 90.4485C89.3316 89.0742 89.4133 87.6995 89.6091 86.3388V86.305L89.767 86.147L89.8197 86.32C89.9429 87.2369 90.3355 88.0967 90.9477 88.7903C91.4064 89.2782 91.701 89.8975 91.7899 90.5613C91.9854 91.8961 91.7072 93.0504 91.0379 93.7234C90.917 93.8667 90.7653 93.9807 90.594 94.0569C90.4227 94.1331 90.2364 94.1695 90.049 94.1634L90.0791 94.6258Z" fill="white" />
    <path d="M76 104.379C75.7778 105.492 74.6667 109.386 73.3333 108.969C72.4187 108.683 72 107.537 72 105.451C72 104.567 72.2179 103.147 72.4559 102.559C72.6029 102.196 72.9042 101.772 73.0749 101.546C73.1566 101.438 73.2523 101.341 73.3671 101.269C73.6787 101.074 74.3567 100.754 74.8 101.316C75.6 102.33 74.7998 104.169 74.4 104.865C74.0242 105.519 73.6 105.879 72.8 106.386" stroke="white" stroke-width="0.6" />
    <path d="M73.5 100H73L74 97.5H75L73.5 100Z" fill="white" />
    <path d="M117.405 52.0458C117.289 52.0726 117.178 52.1183 117.077 52.1811C116.907 52.2807 116.755 52.4077 116.626 52.5571C116.162 53.0302 115.886 53.6554 115.848 54.3168C115.848 55.0989 116.408 55.4185 117.085 55.0312C117.215 54.956 117.335 54.8651 117.442 54.7605C117.84 54.391 118.122 53.9143 118.254 53.3881C118.3 53.2278 118.324 53.0622 118.326 52.8955C118.318 52.2375 117.931 51.9029 117.405 52.0458Z" fill="#37474F" />
    <path d="M117.405 60.6337C117.292 60.6655 117.183 60.711 117.081 60.769C116.908 60.8708 116.751 60.9975 116.615 61.145C116.163 61.625 115.897 62.25 115.863 62.9085C115.863 63.6943 116.423 64.0365 117.104 63.6266C117.24 63.5497 117.366 63.4562 117.48 63.3484C117.88 62.9802 118.161 62.5011 118.288 61.9722C118.334 61.8147 118.357 61.6513 118.356 61.4872C118.322 60.8254 117.931 60.4908 117.405 60.6337Z" fill="#37474F" />
    <path d="M117.401 77.8167C117.288 77.8468 117.181 77.8923 117.081 77.9521C116.91 78.0552 116.755 78.1818 116.619 78.3281C116.153 78.802 115.878 79.4314 115.848 80.0953C115.848 80.8774 116.401 81.197 117.085 80.8097C117.22 80.7326 117.346 80.6405 117.461 80.5352C117.855 80.1608 118.136 79.6824 118.269 79.1553C118.313 78.9973 118.334 78.8341 118.333 78.6703C118.318 78.0047 117.931 77.6739 117.401 77.8167Z" fill="#37474F" />
    <path d="M117.401 86.4084C117.288 86.4403 117.179 86.4857 117.077 86.5438C116.909 86.6467 116.755 86.7733 116.622 86.9198C116.163 87.3968 115.888 88.022 115.848 88.6832C115.848 89.4691 116.408 89.7887 117.092 89.4014C117.22 89.3259 117.338 89.2363 117.446 89.1344C117.842 88.7593 118.124 88.2795 118.258 87.7507C118.301 87.5926 118.322 87.4295 118.322 87.2657C118.318 86.6002 117.931 86.2693 117.401 86.4084Z" fill="#37474F" />
    <path d="M117.397 103.592C117.285 103.623 117.178 103.669 117.078 103.727C116.908 103.828 116.754 103.955 116.623 104.103C116.156 104.577 115.879 105.206 115.844 105.87C115.844 106.652 116.401 106.976 117.081 106.585C117.217 106.509 117.344 106.417 117.457 106.31C117.856 105.939 118.137 105.459 118.266 104.93C118.309 104.773 118.33 104.612 118.33 104.449C118.318 103.783 117.927 103.449 117.397 103.592Z" fill="#37474F" />
    <path d="M117.401 112.18C117.288 112.211 117.181 112.258 117.081 112.319C116.91 112.422 116.755 112.548 116.619 112.695C116.158 113.172 115.884 113.799 115.848 114.462C115.848 115.248 116.404 115.567 117.085 115.176C117.213 115.102 117.332 115.012 117.438 114.909C117.839 114.541 118.122 114.064 118.254 113.537C118.297 113.38 118.319 113.218 118.318 113.056C118.322 112.375 117.931 112.037 117.401 112.18Z" fill="#37474F" />
    <path d="M110.449 58.8702C109.764 59.2462 109.212 58.9378 109.208 58.1558C109.23 57.7271 109.353 57.3098 109.567 56.9379C109.782 56.5661 110.081 56.2503 110.441 56.0163C111.125 55.6403 111.682 55.9411 111.682 56.7345C111.659 57.1625 111.536 57.5791 111.321 57.9502C111.107 58.3214 110.808 58.6366 110.449 58.8702Z" fill="#37474F" />
    <path d="M117.405 52.0458C117.289 52.0726 117.178 52.1183 117.078 52.1811C116.907 52.2807 116.755 52.4077 116.626 52.5571C117.142 53.0067 117.458 53.6421 117.506 54.3243C117.506 54.4745 117.484 54.6238 117.442 54.768C117.405 54.9241 117.344 55.0737 117.262 55.2117C116.977 55.6657 116.578 56.0366 116.104 56.2871C114.927 56.9676 113.299 57.2496 111.637 57.1519C110.961 57.1188 110.289 57.0193 109.633 56.8548C109.601 56.8958 109.573 56.9399 109.55 56.9864C109.501 57.0702 109.457 57.1568 109.419 57.2459C109.388 57.3248 109.355 57.4038 109.332 57.479C109.33 57.4902 109.33 57.5016 109.332 57.5128C109.316 57.5531 109.303 57.5946 109.294 57.6369C109.294 57.6369 109.294 57.6369 109.294 57.6369C109.294 57.6369 109.294 57.667 109.294 57.682C109.952 57.8528 110.624 57.9635 111.302 58.0129C113.25 58.1821 115.201 57.87 116.589 57.0729C117.785 56.3735 118.45 55.3959 118.469 54.3093C118.465 53.9921 118.407 53.6778 118.296 53.3806C118.095 52.8784 117.792 52.4237 117.405 52.0458Z" fill="#EBEBEB" />
    <path d="M110.449 67.4617C109.764 67.8377 109.212 67.5331 109.208 66.7473C109.23 66.3187 109.353 65.9013 109.567 65.5295C109.782 65.1576 110.081 64.8418 110.441 64.6079C111.125 64.2319 111.682 64.5327 111.682 65.326C111.659 65.754 111.536 66.1706 111.321 66.5418C111.107 66.9129 110.808 67.2281 110.449 67.4617Z" fill="#37474F" />
    <path d="M117.405 60.6335C117.292 60.6654 117.183 60.7109 117.081 60.7689C116.908 60.8707 116.751 60.9974 116.615 61.1449C116.874 61.3645 117.086 61.6343 117.239 61.9379C117.391 62.2416 117.481 62.573 117.502 62.9121C117.505 63.0597 117.485 63.2069 117.442 63.3483C117.406 63.5061 117.345 63.6572 117.262 63.7957C116.976 64.2499 116.577 64.6219 116.104 64.8748C114.723 65.5743 113.175 65.8738 111.633 65.7396C110.958 65.7024 110.288 65.6017 109.633 65.4388C109.572 65.5291 109.52 65.6231 109.471 65.7133L109.441 65.7697C109.441 65.7697 109.441 65.7697 109.441 65.7923C109.418 65.8324 109.4 65.8754 109.388 65.9201C109.342 66.0427 109.304 66.1683 109.275 66.2961C109.931 66.4654 110.601 66.5786 111.276 66.6345C113.227 66.7962 115.175 66.4841 116.566 65.6832C117.765 64.9876 118.446 64.0138 118.446 62.9234C118.441 62.6042 118.384 62.2879 118.277 61.9871C118.086 61.479 117.788 61.0175 117.405 60.6335Z" fill="#EBEBEB" />
    <path d="M110.445 84.645C109.764 85.021 109.208 84.7127 109.208 83.9268C109.23 83.4987 109.353 83.0819 109.567 82.7106C109.782 82.3394 110.081 82.0243 110.441 81.7911C111.125 81.3963 111.682 81.7159 111.682 82.5055C111.659 82.9345 111.536 83.3521 111.32 83.724C111.105 84.0958 110.805 84.4115 110.445 84.645Z" fill="#37474F" />
    <path d="M117.401 77.8168C117.289 77.8468 117.181 77.8924 117.081 77.9521C116.91 78.0553 116.755 78.1818 116.619 78.3281C116.878 78.5478 117.09 78.8175 117.243 79.1212C117.395 79.4248 117.485 79.7562 117.506 80.0953C117.503 80.2438 117.483 80.3914 117.446 80.5352C117.406 80.6912 117.344 80.8406 117.262 80.9789C116.975 81.4324 116.576 81.8041 116.104 82.058C114.722 82.7582 113.172 83.0578 111.629 82.9228C110.954 82.8851 110.285 82.7832 109.629 82.6183L109.546 82.7499C109.496 82.8345 109.453 82.9224 109.415 83.0131C109.374 83.1005 109.34 83.191 109.313 83.2838L109.268 83.4643C109.925 83.6336 110.596 83.7468 111.272 83.8027C113.22 83.9644 115.171 83.6523 116.562 82.8514C117.762 82.1558 118.42 81.1782 118.424 80.0916C118.421 79.7721 118.364 79.4555 118.254 79.1553C118.067 78.6544 117.776 78.1984 117.401 77.8168Z" fill="#EBEBEB" />
    <path d="M110.445 93.2365C109.764 93.6125 109.208 93.3042 109.204 92.5184C109.228 92.0903 109.353 91.6738 109.567 91.3027C109.782 90.9317 110.082 90.6165 110.441 90.3827C111.125 89.9879 111.682 90.3075 111.682 91.0971C111.66 91.5262 111.536 91.9438 111.321 92.3157C111.106 92.6877 110.806 93.0033 110.445 93.2365Z" fill="#37474F" />
    <path d="M117.401 86.4084C117.288 86.4403 117.179 86.4858 117.078 86.5438C116.909 86.6467 116.755 86.7733 116.623 86.9198C117.141 87.3693 117.46 88.0062 117.51 88.6908C117.506 88.8434 117.483 88.9949 117.442 89.142C117.402 89.2936 117.341 89.4391 117.262 89.5744C116.976 90.028 116.578 90.4008 116.107 90.6573C114.726 91.3562 113.175 91.6532 111.633 91.5145C110.957 91.4802 110.286 91.3807 109.629 91.2175C109.603 91.2664 109.576 91.304 109.546 91.3491C109.5 91.4317 109.458 91.5171 109.422 91.6048C109.38 91.7037 109.345 91.8054 109.317 91.9093C109.317 91.9545 109.291 92.0033 109.279 92.0522C109.934 92.2203 110.602 92.3322 111.276 92.3869C113.227 92.5448 115.182 92.2327 116.57 91.4393C117.773 90.7437 118.45 89.7624 118.45 88.6795C118.448 88.3603 118.392 88.0438 118.284 87.7432C118.087 87.2412 117.786 86.7863 117.401 86.4084Z" fill="#EBEBEB" />
    <path d="M110.445 110.416C109.764 110.792 109.208 110.484 109.204 109.698C109.227 109.269 109.351 108.852 109.566 108.481C109.781 108.11 110.081 107.795 110.441 107.562C111.125 107.167 111.678 107.487 111.678 108.277C111.656 108.705 111.532 109.122 111.318 109.494C111.103 109.866 110.804 110.182 110.445 110.416Z" fill="#37474F" />
    <path d="M117.397 103.592C117.285 103.623 117.178 103.669 117.078 103.727C116.908 103.828 116.754 103.955 116.623 104.103C116.879 104.324 117.09 104.593 117.241 104.896C117.393 105.199 117.483 105.529 117.506 105.866C117.505 106.016 117.484 106.166 117.442 106.31C117.405 106.467 117.343 106.617 117.258 106.754C116.971 107.207 116.572 107.579 116.1 107.833C114.721 108.532 113.173 108.83 111.633 108.694C110.957 108.655 110.287 108.556 109.629 108.397C109.571 108.485 109.519 108.577 109.471 108.671L109.437 108.728C109.436 108.735 109.436 108.743 109.437 108.75C109.416 108.791 109.398 108.834 109.385 108.878L109.324 109.059C109.306 109.115 109.291 109.173 109.279 109.232C109.937 109.398 110.607 109.51 111.283 109.566C113.235 109.724 115.182 109.412 116.574 108.615C117.773 107.919 118.454 106.938 118.431 105.859C118.432 105.538 118.376 105.22 118.266 104.919C118.075 104.419 117.779 103.966 117.397 103.592Z" fill="#EBEBEB" />
    <path d="M110.449 119.008C109.764 119.384 109.212 119.079 109.208 118.293C109.23 117.865 109.354 117.447 109.568 117.076C109.782 116.704 110.081 116.388 110.441 116.154C111.125 115.759 111.682 116.082 111.682 116.872C111.66 117.3 111.537 117.717 111.322 118.088C111.108 118.459 110.808 118.775 110.449 119.008Z" fill="#37474F" />
    <path d="M117.401 112.179C117.288 112.211 117.181 112.258 117.081 112.319C116.91 112.422 116.755 112.548 116.619 112.695C116.878 112.914 117.09 113.184 117.242 113.488C117.395 113.792 117.484 114.123 117.506 114.462C117.506 114.611 117.484 114.759 117.442 114.902C117.407 115.057 117.347 115.205 117.265 115.342C116.977 115.793 116.578 116.164 116.107 116.421C114.725 117.123 113.173 117.421 111.629 117.282C110.957 117.247 110.29 117.147 109.636 116.985C109.605 117.026 109.577 117.07 109.554 117.116C109.505 117.2 109.461 117.287 109.422 117.376C109.382 117.464 109.348 117.554 109.321 117.646C109.321 117.707 109.287 117.767 109.272 117.827C109.929 117.996 110.599 118.107 111.276 118.158C113.227 118.32 115.179 118.011 116.562 117.214C117.762 116.515 118.442 115.541 118.442 114.454C118.446 114.136 118.392 113.82 118.281 113.522C118.084 113.018 117.784 112.561 117.401 112.179Z" fill="#EBEBEB" />
    <path d="M122.853 44.3866L162.897 21.2664V80.2269L122.857 103.343L122.853 44.3866Z" fill="#F5F5F5" />
    <path d="M162.897 21.2664L161.228 20.3038L121.187 43.4241L122.853 44.3866L162.897 21.2664Z" fill="#FAFAFA" />
    <path d="M121.187 43.4241V102.381L122.857 103.343L122.853 44.3866L121.187 43.4241Z" fill="#E6E6E6" />
    <path d="M124.522 45.3492L161.228 24.1578V79.2606L124.522 100.452V45.3492Z" fill="#92E3A9" />
    <path opacity="0.8" d="M124.522 45.3492L161.228 24.1578V79.2606L124.522 100.452V45.3492Z" fill="white" />
    <path d="M124.522 85.0397L161.228 63.8484V79.2606L124.522 100.452V85.0397Z" fill="#FFBDA7" />
    <path opacity="0.5" d="M124.522 88.8938C125.077 88.1868 125.807 87.6371 126.639 87.2996C127.688 86.9048 128.895 86.8935 129.832 86.2317C130.293 85.8566 130.715 85.4358 131.091 84.9759C132.87 83.0959 135.468 82.3251 137.957 81.6596C139.19 81.3287 140.45 80.9978 141.518 80.2985C143.774 78.8283 144.902 75.888 147.425 74.9593C148.733 74.4742 150.2 74.6321 151.534 74.2336C153.501 73.647 154.888 72.0001 156.321 70.6353C157.016 69.9269 157.807 69.3194 158.671 68.8305C158.878 68.7214 161.228 68.007 161.228 68.2213V54.2153L124.522 75.4067V88.8938Z" fill="#92E3A9" />
    <path opacity="0.3" d="M124.522 90.5294C125.077 89.8214 125.806 89.2705 126.639 88.9314C127.688 88.5366 128.895 88.5253 129.832 87.8673C130.291 87.4902 130.713 87.0696 131.091 86.6115C132.87 84.7315 135.468 83.9607 137.957 83.2914C139.19 82.9605 140.45 82.6297 141.518 81.9303C143.774 80.4601 144.902 77.5198 147.425 76.5911C148.733 76.1098 150.2 76.2677 151.534 75.8692C153.501 75.2789 154.888 73.6357 156.321 72.2709C157.014 71.5594 157.805 70.9504 158.671 70.4623C159.461 70.0559 160.339 69.8469 161.228 69.8532V54.2153L124.522 75.4067V90.5294Z" fill="#92E3A9" />
    <path opacity="0.4" d="M124.522 88.8938C125.077 88.1868 125.807 87.6371 126.639 87.2996C127.688 86.9048 128.895 86.8935 129.832 86.2317C130.293 85.8566 130.715 85.4358 131.091 84.9759C132.87 83.0959 135.468 82.3251 137.957 81.6596C139.19 81.3287 140.45 80.9978 141.518 80.2985C143.774 78.8283 144.902 75.888 147.425 74.9593C148.733 74.4742 150.2 74.6321 151.534 74.2336C153.501 73.647 154.888 72.0001 156.321 70.6353C157.016 69.9269 157.807 69.3194 158.671 68.8305C158.878 68.7214 161.228 68.007 161.228 68.2213V54.2153L124.522 75.4067V88.8938Z" fill="#92E3A9" />
    <path d="M124.522 86.9687C125.077 86.2606 125.806 85.7098 126.639 85.3707C127.688 84.9947 128.895 84.9646 129.832 84.3066C130.291 83.9295 130.713 83.5089 131.091 83.0508C132.87 81.1708 135.468 80.4 137.957 79.7307C139.19 79.3998 140.45 79.0689 141.518 78.3696C143.774 76.8994 144.902 73.9591 147.425 73.0304C148.733 72.5491 150.2 72.707 151.534 72.3085C153.501 71.7181 154.888 70.075 156.321 68.7101C157.016 68.0018 157.807 67.3943 158.671 66.9053C159.461 66.4974 160.338 66.2871 161.228 66.2925V54.2153L124.522 75.4067V86.9687Z" fill="#92E3A9" />
    <path opacity="0.03" d="M124.522 75.4067V81.1896L161.228 59.9982V54.2153L124.522 75.4067Z" fill="black" />
    <path opacity="0.03" d="M124.522 75.4067V79.2607L161.228 58.0693V54.2153L124.522 75.4067Z" fill="black" />
    <path d="M133.366 81.37C134.275 80.8436 135.244 80.4307 136.254 80.1404C137.517 79.7983 139.773 79.3659 141.142 78.5575C142.053 77.9775 142.874 77.2668 143.578 76.4481C142.945 77.3783 142.106 78.1502 141.127 78.7041C139.656 79.4561 138.228 79.787 136.547 80.2081C135.446 80.4751 134.379 80.8648 133.366 81.37Z" fill="white" />
    <path d="M146.894 73.2672C147.395 72.9674 147.949 72.767 148.526 72.6769C149.558 72.5958 150.582 72.4374 151.591 72.2032C152.659 71.7996 153.648 71.2103 154.512 70.4623C153.739 71.3371 152.744 71.9867 151.632 72.3423C150.595 72.5741 149.544 72.7324 148.485 72.816C147.934 72.8799 147.397 73.0322 146.894 73.2672Z" fill="white" />
    <path d="M126.557 87.3296C127.197 87.0486 127.867 86.8405 128.553 86.7092C129.154 86.5811 129.705 86.2821 130.14 85.8482C130.663 85.2612 131.245 84.7295 131.877 84.2615C131.343 84.7093 130.871 85.225 130.471 85.7956C129.967 86.5062 129.32 86.7318 128.508 86.8972C127.849 86.9985 127.197 87.143 126.557 87.3296Z" fill="white" />
    <path opacity="0.6" d="M132.866 85.224C133.724 84.6369 134.659 84.1713 135.644 83.8403C136.363 83.6335 138.596 83.0883 139.449 82.8026C140.303 82.5168 142.348 81.5919 143.379 80.2345C142.604 81.6896 140.517 82.7048 139.427 83.0056C138.337 83.3064 136.152 83.8742 135.4 84.1449C134.524 84.4252 133.675 84.7865 132.866 85.224Z" fill="white" />
    <path d="M143.98 77.8882C144.531 77.0811 145.173 76.3404 145.894 75.6811C146.573 75.1406 147.375 74.7763 148.229 74.6208C149.06 74.5305 150.485 74.4591 150.703 74.4177C150 74.6508 148.605 74.711 148.15 74.7712C147.252 74.9805 146.419 75.4079 145.725 76.0157C145.085 76.5824 144.501 77.2095 143.98 77.8882Z" fill="white" />
    <path d="M153.392 74.9366C154.301 74.2504 155.128 73.4605 155.854 72.5829C156.467 71.8625 157.175 71.2299 157.96 70.7029C158.848 70.2059 159.839 69.919 160.855 69.8644C160.479 69.9283 158.885 70.1802 157.787 71.0375C156.856 71.7682 156.003 72.5935 155.242 73.5003C154.711 74.0805 154.085 74.5662 153.392 74.9366Z" fill="white" />
    <path opacity="0.03" d="M124.522 75.4067V77.3356L161.228 56.1442V54.2153L124.522 75.4067Z" fill="black" />
    <path d="M143.085 56.4863C142.815 57.4075 141.435 61.5811 141.363 61.897C141.258 62.3783 140.611 63.4386 140.969 63.604C141.581 63.901 142.074 63.7582 142.273 63.3935C142.544 62.8934 144.793 58.6634 145.018 57.6895C145.244 56.7157 145.669 53.3655 145.883 52.5496C146.172 51.4404 146.669 47.8496 146.669 47.8496C145.733 48.1542 144.495 48.4512 144.112 49.2558C143.668 50.1808 143.623 50.8839 143.39 53.3054C143.247 54.8432 143.085 56.4863 143.085 56.4863Z" fill="#F28F8F" />
    <path d="M145.413 55.3509L145.071 50.6847C144.929 51.4569 144.882 52.2436 144.932 53.0272C144.954 53.5197 145.225 56.5503 145.225 56.5503L145.413 55.3509Z" fill="#B16668" />
    <path d="M134.956 58.0092C134.956 58.0092 136.761 59.938 137.438 60.6863C137.84 61.13 139.694 62.0098 140.092 62.4121C140.186 62.543 140.238 62.6988 140.243 62.8596C140.292 63.2356 140.405 63.3371 140.45 63.7206C140.483 64.0214 140.472 64.1304 140.536 64.138C140.6 64.1455 140.792 64.0853 140.882 63.8071C140.928 63.6106 140.959 63.4106 140.972 63.2092C141.128 63.4938 141.235 63.8027 141.288 64.1229C141.431 64.8749 141.886 64.6343 142.224 64.1643C142.6 63.6191 142.559 63.0175 141.882 61.9083C141.61 61.5147 141.275 61.1691 140.89 60.8856C140.05 60.2974 139.249 59.6543 138.494 58.9604C137.679 57.8324 136.408 55.8772 135.611 55.4373C135.047 55.1252 134.137 55.5125 133.437 55.9336C133.887 56.665 134.395 57.3591 134.956 58.0092Z" fill="#B16668" />
    <path d="M140.856 63.3483C140.972 63.0851 141.262 62.4948 141.476 62.5963C141.621 62.7276 141.735 62.8879 141.813 63.0668C141.891 63.2457 141.93 63.439 141.927 63.6341C141.901 63.9838 141.469 64.2846 141.551 64.5854C141.115 64.7433 140.615 63.9086 140.856 63.3483Z" fill="#F28F8F" />
    <path d="M139.006 68.0671C138.908 67.9167 138.773 67.7324 138.607 67.5181L135.313 63.258L135.118 61.9082C135.278 61.3818 135.404 60.8455 135.494 60.3027C136.46 59.1295 136.22 58.1632 135.893 57.4864C135.238 56.1366 134.731 55.4034 134.107 55.5801L132.257 56.1667C131.32 56.5126 130.681 56.7795 130.456 56.8848C129.877 57.1593 129.884 57.5992 129.835 58.2572C129.779 58.8511 129.809 59.45 129.922 60.0357L130.598 61.8631L130.753 62.8219C130.753 62.8219 130.568 63.1264 130.301 63.6265C129.658 64.7545 128.827 66.2397 128.967 68.1385C129.099 69.4486 129.318 70.7487 129.621 72.0301C130.049 74.2485 130.474 76.309 130.474 76.309C130.19 77.1917 130.053 78.1152 130.068 79.0425C130.121 80.7759 130.234 82.6822 130.207 83.6936C130.207 83.9155 130.189 84.3742 130.189 84.3742V84.22C130.162 84.6449 130.136 84.8818 130.034 85.9346C129.95 86.5866 129.806 87.2297 129.606 87.8559C129.518 88.1792 129.509 88.5188 129.581 88.8461C129.652 89.1734 129.801 89.4786 130.016 89.7359C130.429 90.33 131.042 90.0819 131.422 89.5592C132.072 88.6681 131.956 87.8221 131.847 87.0287C131.738 86.2354 131.64 85.5999 131.64 85.0623C131.61 84.3103 131.64 84.1975 131.606 83.8628C131.644 83.6335 131.708 83.3139 131.741 83.1108C132.155 80.7721 132.493 79.9299 132.809 76.6211C132.921 76.0846 132.992 75.5403 133.02 74.993C133.02 74.5004 133.061 73.7747 133.114 72.737C133.2 71.0563 133.208 69.2176 133.193 67.7399C134.129 68.8153 135.295 69.5297 136.37 70.5712C135.389 72.1467 135.37 74.4628 135.182 75.9894C135.077 76.8617 135.073 77.0535 135.001 77.6851C134.94 77.767 134.868 77.8403 134.787 77.9032C134.532 78.0585 134.312 78.2645 134.14 78.5086C133.892 78.9147 134.065 79.4899 134.17 79.9073C134.274 80.3469 134.259 80.806 134.129 81.2383C133.975 81.9151 133.975 82.4378 134.426 82.889C134.783 83.265 135.93 83.5094 136.355 83.1334C137.054 82.4942 136.069 81.7008 136.096 81.0729C136.132 80.1306 136.235 79.192 136.404 78.2642C136.802 76.9933 137.178 76.0646 137.682 74.5042C137.979 73.5642 138.487 72.0978 138.848 70.8307C139.104 69.8907 139.449 68.7589 139.006 68.0671ZM131.576 83.9267C131.578 83.9105 131.578 83.8941 131.576 83.8779V83.9267ZM131.557 84.0771C131.557 84.0508 131.557 84.017 131.557 83.9794V84.0771Z" fill="#B16668" />
    <path d="M133.174 67.7701C133.174 67.7701 133.11 65.7472 129.414 65.4125C129.482 65.2075 129.568 65.0088 129.67 64.8185C130.568 64.8185 131.599 65.3449 133.633 64.7169C134.365 64.4667 134.972 63.9443 135.329 63.2581C135.43 63.3447 135.513 63.4508 135.573 63.5701C135.573 63.5701 135.325 64.2883 134.919 65.1794C134.616 65.8356 134.268 66.4701 133.877 67.0782C133.452 67.6911 133.174 67.7701 133.174 67.7701Z" fill="#263238" />
    <path d="M134.084 63.5551C134.082 63.5856 134.071 63.6147 134.052 63.6388C134.033 63.6629 134.008 63.6809 133.979 63.6905C133.966 63.6942 133.953 63.6949 133.941 63.6924C133.928 63.6899 133.916 63.6843 133.906 63.6761C133.896 63.6679 133.888 63.6574 133.883 63.6455C133.878 63.6336 133.876 63.6206 133.877 63.6077C133.879 63.5773 133.891 63.5482 133.909 63.5241C133.928 63.5 133.954 63.482 133.983 63.4724C133.995 63.4686 134.008 63.468 134.021 63.4705C134.033 63.473 134.045 63.4786 134.055 63.4867C134.065 63.4949 134.073 63.5054 134.078 63.5173C134.083 63.5293 134.085 63.5422 134.084 63.5551Z" fill="#9A4A4D" />
    <path d="M135.851 57.4189L135.099 56.4939C135.099 56.4939 135.908 57.1707 136.002 57.2459C136.096 57.3211 136.021 57.9979 136.021 57.9979L135.851 57.4189Z" fill="#9A4A4D" />
    <path d="M130.083 60.4945C130.083 60.4945 130.508 60.0132 131.17 59.4116C132.061 58.6032 133.712 58.0655 134.611 58.9792C134.611 58.9792 135.205 57.6557 135.851 57.4188C135.923 57.4188 137.355 58.513 135.475 60.3027C135.33 60.3671 135.17 60.3933 135.012 60.3789C134.853 60.3644 134.701 60.3097 134.569 60.22C134.256 60.7337 133.806 61.1492 133.268 61.4195C132.71 61.7117 132.085 61.8518 131.456 61.8255C131.134 61.8182 130.813 61.7741 130.501 61.6939C130.307 61.3155 130.166 60.9118 130.083 60.4945Z" fill="#263238" />
    <path d="M131.52 55.4485C131.287 55.5049 131.125 55.1891 130.948 54.9033C130.667 54.3088 130.435 53.6927 130.253 53.0609C130.098 52.5834 130.072 51.4403 130.817 51.1433C130.818 50.9016 130.867 50.6625 130.962 50.4399C131.056 50.2173 131.193 50.0155 131.366 49.8461C131.948 49.2671 132.655 49.3197 133.246 48.8948C133.836 48.4699 133.956 48.203 134.49 48.1616C134.583 48.1636 134.674 48.1878 134.756 48.2322C134.838 48.2765 134.908 48.3398 134.96 48.4168C135.012 48.4937 135.045 48.582 135.056 48.6743C135.068 48.7666 135.056 48.8603 135.024 48.9475C135.024 48.9475 135.678 48.4173 136.088 48.9475C136.154 49.0602 136.197 49.1851 136.214 49.3148C136.231 49.4445 136.222 49.5762 136.187 49.7022C136.152 49.8282 136.091 49.9458 136.01 50.048C135.928 50.1503 135.827 50.2351 135.712 50.2973C135.791 50.4046 135.839 50.5316 135.85 50.6643C135.861 50.797 135.836 50.9303 135.776 51.0493C135.705 51.2109 135.588 51.3479 135.44 51.443C135.291 51.538 135.118 51.5868 134.941 51.5832L131.52 55.4485Z" fill="#263238" />
    <path d="M130.67 50.7862C130.556 50.7843 130.444 50.8201 130.352 50.8881C130.261 50.956 130.194 51.0524 130.162 51.1622L130.892 51.26C130.971 51.0268 130.888 50.8125 130.67 50.7862Z" fill="#263238" />
    <path d="M134.592 49.9628C134.907 50.0793 135.302 50.8238 135.265 52.6136C135.231 54.1176 134.768 54.6327 134.535 54.8019C134.185 54.9758 133.799 55.0671 133.407 55.0688V55.975C133.407 55.975 134.61 57.0428 133.61 57.4489C133.351 57.5257 133.079 57.547 132.812 57.5113C132.544 57.4757 132.287 57.384 132.057 57.2421C131.778 57.0556 131.58 56.769 131.505 56.4412V54.4635C131.463 54.5122 131.412 54.5521 131.355 54.581C131.297 54.6098 131.235 54.627 131.171 54.6316C131.107 54.6361 131.043 54.6279 130.982 54.6075C130.921 54.587 130.865 54.5547 130.817 54.5124C130.729 54.4521 130.653 54.375 130.595 54.2855C130.538 54.196 130.498 54.0958 130.479 53.9908C130.46 53.8859 130.462 53.7782 130.485 53.6741C130.508 53.57 130.552 53.4715 130.614 53.3844C130.896 53.0084 131.411 52.952 131.61 53.328C131.61 53.328 131.866 53.2791 132.121 52.7113C132.584 52.6342 133.011 52.4177 133.347 52.0909C133.977 51.5314 134.413 50.7861 134.592 49.9628Z" fill="#B16668" />
    <path d="M133.422 52.6361C133.423 52.6907 133.406 52.7442 133.375 52.7892C133.344 52.8343 133.3 52.8687 133.249 52.888C133.228 52.8952 133.204 52.8971 133.182 52.8935C133.159 52.8899 133.138 52.8809 133.119 52.8673C133.101 52.8536 133.086 52.8357 133.076 52.8151C133.066 52.7945 133.061 52.7718 133.061 52.7489C133.061 52.6948 133.077 52.6419 133.107 52.597C133.137 52.5521 133.18 52.5172 133.231 52.4969C133.252 52.4889 133.276 52.4864 133.299 52.4897C133.322 52.4929 133.344 52.5018 133.363 52.5155C133.382 52.5292 133.398 52.5474 133.408 52.5684C133.418 52.5895 133.423 52.6127 133.422 52.6361Z" fill="#263238" />
    <path d="M133.644 53.8392L134.204 53.8806C134.188 53.9682 134.142 54.0473 134.073 54.1037C134.004 54.1602 133.918 54.1904 133.828 54.1889C133.686 54.1776 133.595 54.016 133.644 53.8392Z" fill="#9A4A4D" />
    <path d="M135.043 51.6096L134.667 51.4404C134.69 51.382 134.734 51.3344 134.79 51.3072C134.847 51.28 134.911 51.2752 134.971 51.2937C134.997 51.3094 135.019 51.3302 135.037 51.3547C135.055 51.3793 135.067 51.4071 135.074 51.4365C135.081 51.466 135.081 51.4965 135.076 51.5262C135.07 51.5559 135.059 51.5843 135.043 51.6096Z" fill="#263238" />
    <path d="M133.17 52.0344L132.757 52.3127C132.738 52.252 132.739 52.1866 132.761 52.1268C132.783 52.067 132.823 52.016 132.877 51.9818C132.899 51.9631 132.924 51.9495 132.952 51.942C132.979 51.9344 133.008 51.9332 133.036 51.9382C133.064 51.9432 133.091 51.9545 133.114 51.9712C133.137 51.9878 133.157 52.0094 133.17 52.0344Z" fill="#263238" />
    <path d="M134.945 52.1849C134.945 52.2395 134.929 52.293 134.898 52.338C134.867 52.3831 134.823 52.4176 134.772 52.4368C134.75 52.4441 134.727 52.446 134.704 52.4424C134.682 52.4388 134.66 52.4297 134.642 52.4161C134.623 52.4025 134.609 52.3846 134.598 52.364C134.588 52.3433 134.583 52.3206 134.584 52.2977C134.584 52.2436 134.6 52.1907 134.63 52.1458C134.66 52.1009 134.703 52.066 134.753 52.0458C134.775 52.0377 134.799 52.0352 134.822 52.0385C134.845 52.0417 134.867 52.0506 134.886 52.0643C134.905 52.0781 134.92 52.0963 134.931 52.1173C134.941 52.1383 134.946 52.1615 134.945 52.1849Z" fill="#263238" />
    <path d="M134.084 52.309L134.11 53.4445L134.678 53.1023L134.084 52.309Z" fill="#9A4A4D" />
    <path d="M133.419 55.0688C132.96 55.129 132.016 55.0951 131.869 54.7379C131.923 54.9139 132.041 55.0631 132.2 55.1553C132.593 55.2902 133.004 55.3625 133.419 55.3696V55.0688Z" fill="#9A4A4D" />
    <path d="M126.752 54.8357C127.748 57.3285 129.094 58.4829 129.91 60.0357C131.366 59.7725 131.486 57.5466 130.85 56.7081C130.85 56.7081 128.391 54.0761 128.192 52.9181C128.019 51.9029 127.617 50.3161 127.673 49.4137C127.688 49.2541 127.749 49.1023 127.85 48.9776C128.052 48.6558 128.214 48.3112 128.335 47.9511C128.482 47.6465 128.636 47.5074 128.594 47.4585C128.553 47.4097 128.373 47.3269 128.147 47.5262C128.017 47.6559 127.899 47.7982 127.797 47.9511C127.857 47.5971 127.958 47.2513 128.098 46.9209C128.429 46.1125 128.369 45.7515 127.429 46.2328C126.839 46.5298 126.451 47.1352 126.301 48.658C126.241 49.2828 126.217 49.9105 126.229 50.538C126.29 51.666 126.365 52.7489 126.463 53.6776C126.507 54.0748 126.604 54.4642 126.752 54.8357Z" fill="#B16668" />
    <path d="M143.777 66.9692C143.702 67.2437 143.71 67.9919 145.368 68.304C147.026 68.6161 147.428 68.2251 147.519 67.8791C147.563 67.5171 147.493 67.1502 147.318 66.8299C147.144 66.5097 146.873 66.2521 146.545 66.0931C145.669 65.7209 143.932 66.048 143.777 66.9692Z" fill="#263238" />
    <path d="M160.314 66.8489C160.077 66.4979 159.82 66.1615 159.543 65.8412C159.493 65.7708 159.449 65.6966 159.411 65.6193C159.337 65.492 159.284 65.3537 159.254 65.2095C159.242 65.0269 159.214 64.8457 159.171 64.6681C159.126 64.4647 159.015 64.282 158.855 64.1492C158.745 64.0626 158.61 64.0121 158.471 64.0047C158.331 63.9973 158.192 64.0333 158.073 64.1078C157.905 64.2121 157.752 64.3386 157.618 64.4838C157.498 64.6079 157.404 64.7658 157.283 64.8824C156.89 65.2275 156.427 65.484 155.926 65.6344L154.772 66.048L152.745 66.8L152.621 66.8451C152.621 66.8451 152.737 62.4722 152.448 59.0093C152.305 57.1631 151.726 53.1361 151.726 53.1361L152.143 48.5301C152.117 47.9661 151.805 45.8117 151.391 46.1463C150.832 46.4779 150.241 46.7537 149.628 46.9697C149.628 46.9697 148.248 47.3119 147.18 47.6729C146.173 48.0113 145.541 48.3158 145.123 50.4703C144.789 52.1849 145.906 56.7984 145.499 58.8589C145.498 58.8814 145.498 58.904 145.499 58.9265C144.693 62.6443 144.083 66.402 143.672 70.184C143.571 71.2142 143.695 71.4398 144.507 72.5979C145.635 74.2222 147.601 76.2526 148.955 77.8318L149.087 78.0161C149.183 78.1666 149.235 78.3412 149.237 78.5199C149.268 78.836 149.275 79.1541 149.256 79.4712C149.238 79.7233 149.206 79.9743 149.162 80.2232C148.997 81.0015 148.702 81.7464 148.289 82.4265C148.169 82.6409 148.041 82.9078 148.135 83.0883C148.18 83.1426 148.239 83.1833 148.305 83.2059C148.371 83.2285 148.443 83.232 148.511 83.2161C148.977 83.158 149.413 82.954 149.756 82.6333C150.142 82.2872 150.435 81.8504 150.609 81.3625C150.861 80.6443 150.839 79.881 151.173 79.1929C151.316 78.8921 151.519 78.6289 151.662 78.3281C151.742 78.1953 151.791 78.0457 151.803 77.891C151.815 77.7363 151.792 77.5809 151.734 77.437C151.68 77.3604 151.611 77.2962 151.531 77.249C151.155 77.0009 150.662 76.8993 150.403 76.3466L150.342 76.2113C148.699 73.6206 148.861 70.6615 146.703 69.6049C147.455 67.4843 148.105 65.123 148.786 62.8369C148.929 64.0777 149.436 68.1348 149.985 69.6764C150.331 70.6465 150.925 71.0826 151.978 70.4961C152.764 70.0599 153.542 69.5673 154.317 69.0823C155.091 68.5973 155.918 68.0709 156.716 67.5595C156.97 67.382 157.238 67.2237 157.516 67.0857C157.582 67.0502 157.657 67.037 157.731 67.0481C157.776 67.0637 157.816 67.091 157.847 67.1271C158.019 67.2862 158.17 67.4669 158.295 67.6648C158.566 68.0888 158.793 68.5399 158.972 69.0109C159.062 69.2402 159.122 69.4884 159.208 69.7177C159.223 69.7599 159.246 69.7984 159.277 69.8308C159.308 69.8633 159.345 69.8888 159.386 69.9059C159.427 69.9229 159.472 69.9311 159.516 69.9297C159.561 69.9284 159.604 69.9177 159.645 69.8982C159.784 69.8204 159.901 69.7093 159.987 69.5749C160.283 69.1648 160.474 68.6884 160.543 68.1874C160.608 67.7282 160.527 67.2604 160.314 66.8489Z" fill="#F28F8F" />
    <path d="M147.808 56.7683C147.811 56.809 147.802 56.8497 147.781 56.8848C147.76 56.9198 147.729 56.9475 147.692 56.9638C147.676 56.9716 147.658 56.9752 147.641 56.9743C147.623 56.9733 147.606 56.9678 147.592 56.9584C147.577 56.9489 147.565 56.9358 147.557 56.9202C147.548 56.9047 147.544 56.8873 147.545 56.8698C147.541 56.8291 147.551 56.7884 147.572 56.7533C147.593 56.7183 147.624 56.6906 147.661 56.6743C147.677 56.6665 147.695 56.6629 147.712 56.6638C147.73 56.6648 147.747 56.6703 147.761 56.6798C147.776 56.6892 147.788 56.7023 147.796 56.7179C147.805 56.7334 147.809 56.7508 147.808 56.7683Z" fill="#B16668" />
    <path d="M145.518 58.607C145.518 58.607 144.127 64.247 143.777 66.9692C144.128 66.6972 144.543 66.5198 144.982 66.4539C145.421 66.3881 145.87 66.4361 146.285 66.5932C147.248 66.9692 147.462 67.2625 147.519 67.8867L148.613 63.8409L149.233 67.819C149.233 67.819 151.666 67.631 152.895 65.9089C152.895 65.7698 152.752 61.1864 152.613 59.4643C152.563 58.5915 152.438 57.7247 152.237 56.8737C152.237 56.8737 150.12 58.0017 148.496 58.2987C147.512 58.4737 146.517 58.5768 145.518 58.607Z" fill="#37474F" />
    <path d="M145.552 57.8361C145.518 58.0917 145.502 58.3492 145.503 58.6069C145.503 58.6069 146.383 59.0957 148.015 58.7573C149.647 58.4189 152.207 56.8773 152.207 56.8773C152.189 56.6104 152.151 56.3246 152.102 56.0276C152.102 56.0276 149.696 57.4789 148.105 57.8512C147.269 58.0844 146.385 58.0792 145.552 57.8361Z" fill="#263238" />
    <path d="M148.613 63.8333L148.286 61.9533C147.982 61.9182 147.69 61.8135 147.433 61.6472C147.176 61.4809 146.961 61.2575 146.804 60.9945C146.883 61.2932 147.024 61.5718 147.218 61.8117C147.413 62.0516 147.656 62.2473 147.932 62.3857L148.248 63.8634L147.699 67.1722L148.613 63.8333Z" fill="#263238" />
    <path d="M156.456 44.1384C156.054 44.6799 152.219 49.0264 151.989 50.0228C150.376 49.3122 150.827 46.5035 151.376 46.1387C152.585 45.1261 153.717 44.0238 154.76 42.8412C154.857 42.7016 154.932 42.5482 154.982 42.3863C155.076 42.0967 155.911 38.5661 155.964 37.4983C155.97 37.4136 155.958 37.3285 155.929 37.2488C155.9 37.169 155.854 37.0964 155.794 37.0358C155.548 36.7535 155.356 36.4286 155.227 36.077C155.08 35.7875 154.903 35.701 154.96 35.622C155.02 35.5383 155.108 35.4777 155.208 35.4504C155.307 35.423 155.414 35.4305 155.509 35.4716C155.678 35.5733 155.832 35.7001 155.964 35.8476C155.953 35.4608 155.874 35.0789 155.73 34.7196C155.415 33.9263 155.535 33.4675 156.652 33.5465C157.351 33.5991 157.934 34.1556 157.926 35.8927C157.886 36.5345 157.809 37.1734 157.697 37.8066C157.479 39.2918 157.291 41.6079 157.114 42.7585C157.025 43.2699 156.797 43.7472 156.456 44.1384Z" fill="#F28F8F" />
    <path d="M148.808 42.108C148.83 42.6718 148.676 43.2283 148.366 43.7001C148.057 44.1719 147.608 44.5355 147.082 44.74C146.071 45.0596 145.202 44.4129 145.15 43.2887C145.126 42.7246 145.28 42.1673 145.59 41.6952C145.899 41.223 146.349 40.8598 146.876 40.6567C147.883 40.3371 148.748 40.9876 148.808 42.108Z" fill="#263238" />
    <path d="M150.211 43.1309C150.211 43.1309 149.993 44.7702 149.887 45.0635C149.82 45.2432 149.699 45.3981 149.541 45.5072L149.508 44.413L150.211 43.1309Z" fill="#263238" />
    <path d="M149.726 41.0327C149.817 40.9876 149.919 40.9677 150.021 40.975C150.123 40.9822 150.221 41.0164 150.305 41.074C150.564 41.2733 150.474 42.202 150.211 43.1308L149.658 43.3789L149.726 41.0327Z" fill="#263238" />
    <path d="M149.489 43.4315C149.605 43.4729 149.752 43.1834 149.865 42.9766C149.978 42.7698 150.433 42.4088 150.684 42.8638C150.936 43.3187 150.549 44.1723 150.203 44.4091C149.602 44.819 149.489 44.4091 149.489 44.4091L149.571 46.9471C148.865 48.2744 146.748 48.9324 147.567 47.5224L147.537 46.6952C147.275 46.8279 146.999 46.9312 146.714 47.0035C146.263 47.0712 145.962 46.7667 145.796 46.2515C145.533 45.4507 145.42 44.7776 145.514 43.0067C145.535 42.6368 145.641 42.2765 145.822 41.9536C146.004 41.6306 146.257 41.3535 146.562 41.1434C146.867 40.9333 147.216 40.7958 147.583 40.7414C147.949 40.687 148.324 40.7172 148.677 40.8296C149.79 41.2583 149.489 43.4315 149.489 43.4315Z" fill="#F28F8F" />
    <path d="M149.5 43.6422C149.556 43.6422 149.752 43.1609 149.876 42.9767C150.06 42.721 149.718 41.0327 149.718 41.0327C149.777 40.8789 149.791 40.7115 149.759 40.5499C149.727 40.3883 149.65 40.239 149.538 40.1191C149.259 39.8822 148.868 39.6039 147.676 40.1416C146.827 40.5176 145.913 41.1192 145.138 40.95C145.052 41.5065 145.172 42.0555 145.661 42.3187C145.993 42.3925 146.337 42.3848 146.665 42.2961C147.345 42.1348 148.009 41.9095 148.646 41.6231C148.853 41.5253 148.906 41.7359 149.049 42.3111C149.184 42.815 149.312 43.6986 149.5 43.6422Z" fill="#263238" />
    <path d="M149.733 41.1681L150.388 40.5515C150.36 40.5088 150.323 40.4732 150.279 40.4477C150.235 40.4223 150.186 40.4076 150.135 40.4051C150.084 40.4025 150.034 40.4121 149.987 40.4329C149.941 40.4538 149.9 40.4854 149.869 40.5252C149.781 40.6044 149.721 40.7093 149.697 40.8247C149.673 40.9402 149.685 41.0604 149.733 41.1681Z" fill="#263238" />
    <path d="M147.556 46.699C148.023 46.448 148.468 46.1588 148.887 45.8342C149.091 45.6451 149.249 45.4107 149.346 45.1499C149.303 45.3995 149.22 45.6406 149.102 45.8643C148.865 46.3117 147.567 46.9923 147.567 46.9923L147.556 46.699Z" fill="#B16668" />
    <path d="M147.65 43.7362C147.648 43.763 147.653 43.7899 147.664 43.8145C147.674 43.839 147.691 43.8605 147.713 43.8769C147.734 43.8934 147.759 43.9042 147.785 43.9085C147.812 43.9128 147.839 43.9105 147.864 43.9016C147.923 43.8781 147.973 43.8367 148.006 43.7834C148.04 43.7301 148.056 43.6676 148.052 43.6046C148.055 43.5778 148.05 43.5509 148.039 43.5263C148.028 43.5018 148.011 43.4803 147.99 43.4639C147.969 43.4474 147.944 43.4366 147.917 43.4323C147.891 43.428 147.864 43.4303 147.838 43.4392C147.78 43.4632 147.731 43.5046 147.697 43.5578C147.663 43.611 147.647 43.6733 147.65 43.7362Z" fill="#263238" />
    <path d="M147.808 42.8224L148.252 42.9503C148.268 42.9198 148.277 42.8864 148.28 42.8521C148.283 42.8178 148.279 42.7833 148.268 42.7506C148.257 42.718 148.24 42.6878 148.217 42.6621C148.194 42.6363 148.166 42.6154 148.135 42.6006C148.063 42.5918 147.99 42.6095 147.93 42.6502C147.87 42.691 147.827 42.7522 147.808 42.8224Z" fill="#263238" />
    <path d="M147.579 45.3267L147.127 45.6651C147.14 45.6949 147.16 45.7213 147.185 45.7421C147.209 45.7628 147.239 45.7773 147.271 45.7843C147.302 45.7913 147.335 45.7906 147.367 45.7823C147.398 45.774 147.427 45.7583 147.451 45.7365C147.511 45.6894 147.556 45.6249 147.579 45.5516C147.602 45.4784 147.602 45.3999 147.579 45.3267Z" fill="#B16668" />
    <path d="M145.823 43.6497L146.199 43.1872C146.174 43.1647 146.145 43.148 146.113 43.1384C146.081 43.1287 146.048 43.1263 146.015 43.1314C145.982 43.1364 145.951 43.1488 145.923 43.1676C145.896 43.1863 145.873 43.211 145.857 43.2398C145.805 43.2943 145.774 43.3644 145.768 43.4388C145.762 43.5132 145.781 43.5875 145.823 43.6497Z" fill="#263238" />
    <path d="M145.973 44.2062C145.971 44.233 145.976 44.2599 145.987 44.2844C145.997 44.309 146.014 44.3305 146.036 44.3469C146.057 44.3633 146.082 44.3742 146.108 44.3785C146.135 44.3828 146.162 44.3804 146.187 44.3716C146.246 44.3481 146.296 44.3067 146.329 44.2534C146.363 44.2001 146.379 44.1375 146.375 44.0746C146.378 44.048 146.374 44.021 146.364 43.9964C146.354 43.9717 146.337 43.9501 146.316 43.9335C146.295 43.917 146.27 43.9061 146.244 43.9018C146.217 43.8975 146.19 43.9001 146.165 43.9091C146.106 43.9325 146.056 43.9737 146.022 44.027C145.987 44.0802 145.97 44.1429 145.973 44.2062Z" fill="#263238" />
    <path d="M146.988 43.6647L146.992 45.0333L146.349 44.9919L146.988 43.6647Z" fill="#B16668" />
    <path d="M120.492 96.9816V103.75C120.491 103.944 120.542 104.135 120.639 104.303C120.736 104.471 120.876 104.611 121.044 104.708C121.212 104.805 121.403 104.856 121.597 104.856C121.791 104.857 121.982 104.805 122.15 104.708L128 101.324C128 101.324 124.436 98.0832 120.492 96.9816Z" fill="#263238" />
    <path d="M162.31 18.7246L155.599 22.6312C158.456 25.1091 160.618 26.6206 163.871 27.5794V19.6232C163.871 19.4405 163.823 19.2609 163.732 19.1027C163.641 18.9444 163.509 18.813 163.351 18.7218C163.192 18.6307 163.013 18.5829 162.83 18.5834C162.647 18.5839 162.468 18.6326 162.31 18.7246Z" fill="#263238" />
    <path opacity="0.2" d="M129.516 110.66C129.352 109.947 129.375 109.204 129.583 108.502V108.483C129.811 107.601 130.26 106.792 130.888 106.133C131.926 105.096 133.163 105.626 133.625 106.716C133.422 105.366 133.907 103.125 134.949 102.091C135.554 101.486 136.186 101.264 136.701 101.399C136.947 101.485 137.167 101.634 137.336 101.832C137.505 102.031 137.618 102.271 137.664 102.527C138.197 104.49 136.994 107.066 136.088 109.604L135.054 112.134L133.441 112.243C131.843 112.217 130.05 112.623 129.516 110.66Z" fill="black" />
    <path d="M130.136 110.416C129.972 109.702 129.995 108.957 130.204 108.254C130.43 107.372 130.879 106.563 131.508 105.904C132.546 104.866 133.783 105.393 134.246 106.483C134.043 105.133 134.528 102.892 135.569 101.858C136.175 101.257 136.806 101.031 137.321 101.166C137.568 101.252 137.787 101.401 137.956 101.599C138.125 101.798 138.239 102.038 138.284 102.294C138.818 104.257 137.615 106.836 136.709 109.374L135.675 111.901L134.062 112.01C132.471 111.95 130.678 112.36 130.136 110.416Z" fill="#92E3A9" />
    <path d="M155.655 92.541C155.593 92.4713 155.519 92.4128 155.437 92.368C154.851 92.0159 154.297 91.6146 153.779 91.1686C153.279 90.74 152.858 90.2248 152.358 89.7962C152.162 89.6308 151.756 89.6721 151.722 89.9729C151.604 91.3313 151.116 92.6315 150.312 93.7329C150.241 93.8307 150.165 93.9698 150.244 94.06C150.273 94.0888 150.31 94.1084 150.35 94.1164C151.027 94.327 151.44 93.3344 151.669 92.8606C151.882 92.4241 152.067 91.9745 152.222 91.5145C152.254 91.8897 152.261 92.2664 152.245 92.6425C152.218 93.4369 152.128 94.2278 151.974 95.0076C151.588 96.7875 150.831 98.4659 149.752 99.9332C148.715 101.293 147.441 102.454 145.992 103.362C144.42 104.381 142.634 104.866 140.871 105.193C140.465 105.272 140.871 105.844 141.187 105.814C142.723 105.65 144.218 105.209 145.597 104.513C146.875 103.845 148.033 102.968 149.022 101.918C151.087 99.7828 152.688 97.0304 152.959 94.0224C153.079 93.1807 153.064 92.3252 152.914 91.4882C153.037 91.6387 153.17 91.7807 153.313 91.9131C153.616 92.1771 153.949 92.4055 154.305 92.5936C154.614 92.7591 155.057 93.0749 155.433 93.0072C155.515 92.9953 155.589 92.954 155.643 92.891C155.696 92.8279 155.725 92.7476 155.723 92.6651C155.712 92.6184 155.688 92.5755 155.655 92.541Z" fill="#FAFAFA" />
    <path opacity="0.2" d="M80.88 120.786L85.1513 116.744C85.2817 116.626 85.387 116.483 85.4613 116.323C85.5356 116.164 85.5772 115.991 85.5837 115.815L85.6251 110.638C85.6251 109.814 86.5764 109.108 87.2193 109.438L91.2876 111.521C91.4333 111.585 91.5925 111.611 91.7507 111.597C91.9089 111.583 92.0612 111.53 92.1938 111.443L97.1081 108.566C97.8864 108.107 98.6121 108.671 98.3339 109.517L96.578 114.845C96.5206 114.99 96.5019 115.147 96.5236 115.302C96.5454 115.456 96.6069 115.602 96.702 115.725L99.71 119.109C100.188 119.651 99.71 120.707 98.8753 120.899L93.7241 122.11C93.3767 122.2 93.0793 122.425 92.8969 122.734L89.825 127.712C89.34 128.505 88.321 128.596 88.0804 127.866L86.6516 123.287C86.6108 123.148 86.5276 123.025 86.4136 122.936C86.2996 122.847 86.1606 122.796 86.0161 122.79L81.1281 122.467C80.3498 122.448 80.2069 121.425 80.88 120.786Z" fill="black" />
    <path d="M81.6809 120.512L85.9523 116.47C86.083 116.352 86.1886 116.209 86.2629 116.049C86.3372 115.89 86.3786 115.717 86.3847 115.541L86.4261 110.367C86.4261 109.544 87.3773 108.833 88.0203 109.164L92.0886 111.247C92.2343 111.31 92.3935 111.336 92.5517 111.322C92.7099 111.308 92.8622 111.255 92.9948 111.168L97.9091 108.292C98.6874 107.837 99.4131 108.397 99.1349 109.243L97.3789 114.575C97.3219 114.719 97.3034 114.875 97.3251 115.029C97.3469 115.183 97.4082 115.328 97.503 115.451L100.511 118.853C100.989 119.391 100.511 120.451 99.6763 120.643L94.5251 121.85C94.1791 121.944 93.8827 122.167 93.6979 122.474L90.6335 127.453C90.1485 128.242 89.1295 128.332 88.8889 127.607L87.4601 123.023C87.4197 122.885 87.3364 122.762 87.2223 122.674C87.1082 122.585 86.969 122.535 86.8246 122.531L81.9366 122.207C81.147 122.155 81.0041 121.155 81.6809 120.512Z" fill="#92E3A9" />
    <path d="M127.463 142.609C126.655 142.163 125.817 141.773 124.955 141.444C124.041 141.12 124.293 140.793 124.861 140.616C125.589 140.447 126.339 140.397 127.083 140.47C129.215 140.661 130.001 141.056 130.001 141.056C130.967 140.32 132.109 139.85 133.313 139.691C134.02 139.624 134.945 139.612 134.798 139.973C134.614 140.436 133.588 140.823 132.73 141.989C133.922 142.405 135.082 142.908 136.201 143.493C137.761 144.38 137.032 144.76 135.878 144.737C134.814 144.715 132.542 144.775 132.542 144.775C132.542 144.775 132.813 145.749 133.091 147.339C133.31 148.595 132.042 147.715 131.381 146.99C130.433 145.937 129.474 144.775 129.474 144.775C129.474 144.775 127.76 145.068 125.917 145.564C124.594 145.922 123.552 146.316 124.387 144.974C125.222 143.632 127.463 142.609 127.463 142.609Z" fill="#F28F8F" />
    <path d="M131.445 146.384C130.952 145.82 129.707 144.019 129.707 144.019C129.707 144.019 126.173 145.004 125.289 145.264C124.406 145.523 124.161 145.418 124.248 145.204C123.695 146.26 124.684 145.884 125.917 145.549C127.76 145.053 129.474 144.76 129.474 144.76C129.474 144.76 130.433 145.922 131.381 146.975C131.873 147.524 132.697 148.14 132.997 147.907C132.479 147.877 131.937 146.948 131.445 146.384Z" fill="#B16668" />
    <path d="M137.073 144.399C136.78 144.587 136.359 144.516 135.257 144.399C134.156 144.282 132.373 144.023 132.373 144.023L132.542 144.775C132.542 144.775 134.798 144.715 135.878 144.737C136.49 144.734 136.983 144.632 137.073 144.399Z" fill="#B16668" />
    <path d="M124.628 140.703C124.252 140.876 124.18 141.169 124.955 141.455C125.817 141.784 126.655 142.174 127.463 142.62L128.189 142.244C128.189 142.244 127.162 141.801 126.139 141.492C125.199 141.184 124.316 140.973 124.628 140.703Z" fill="#B16668" />
    <path d="M132.73 142C133.588 140.834 134.61 140.447 134.798 139.985C134.807 139.967 134.813 139.949 134.815 139.929C134.816 139.91 134.814 139.89 134.808 139.872C134.802 139.853 134.793 139.836 134.78 139.821C134.767 139.806 134.752 139.794 134.734 139.785C134.734 139.785 134.885 139.973 134.058 140.331C133.431 140.655 132.862 141.081 132.373 141.59C132.17 141.835 132.73 142 132.73 142Z" fill="#B16668" />
    <path d="M104.448 148.813C103.842 148.477 103.214 148.183 102.568 147.933C101.88 147.689 102.071 147.444 102.496 147.309C103.046 147.184 103.612 147.148 104.173 147.2C105.779 147.347 106.373 147.644 106.373 147.644C107.102 147.088 107.964 146.733 108.873 146.614C109.403 146.561 110.103 146.553 110.001 146.828C109.862 147.174 109.087 147.467 108.441 148.332C109.344 148.644 110.224 149.021 111.073 149.46C112.25 150.129 111.701 150.419 110.828 150.4C110.027 150.4 108.317 150.426 108.317 150.426C108.317 150.426 108.516 151.178 108.727 152.363C108.892 153.31 107.937 152.652 107.437 152.096C106.722 151.302 106.001 150.426 106.001 150.426C106.001 150.426 104.707 150.648 103.316 151.024C102.319 151.291 101.534 151.599 102.165 150.577C102.797 149.554 104.448 148.813 104.448 148.813Z" fill="#F28F8F" />
    <path d="M107.452 151.659C107.076 151.235 106.14 149.877 106.14 149.877C106.14 149.877 103.478 150.629 102.812 150.813C102.147 150.998 101.951 150.934 102.026 150.768C101.605 151.565 102.353 151.28 103.282 151.032C104.673 150.656 105.967 150.434 105.967 150.434C105.967 150.434 106.689 151.31 107.403 152.103C107.779 152.517 108.396 152.987 108.625 152.81C108.23 152.787 107.824 152.088 107.452 151.659Z" fill="#B16668" />
    <path d="M111.712 150.163C111.49 150.306 111.171 150.253 110.344 150.163C109.516 150.073 108.167 149.885 108.167 149.885L108.298 150.441C108.298 150.441 110.009 150.4 110.81 150.415C111.257 150.415 111.629 150.34 111.712 150.163Z" fill="#B16668" />
    <path d="M102.312 147.377C102.034 147.508 101.974 147.727 102.557 147.933C103.203 148.183 103.831 148.477 104.437 148.813L104.985 148.539C104.985 148.539 104.211 148.204 103.44 147.96C102.745 147.738 102.075 147.58 102.312 147.377Z" fill="#B16668" />
    <path d="M108.422 148.343C109.069 147.467 109.843 147.174 109.982 146.839C109.995 146.812 109.997 146.781 109.988 146.753C109.979 146.724 109.959 146.7 109.934 146.685C109.934 146.685 110.046 146.828 109.422 147.095C108.95 147.342 108.521 147.665 108.151 148.05C108.001 148.23 108.422 148.343 108.422 148.343Z" fill="#B16668" />
    <g filter="url(#filter0_ddd_5446_46595)">
        <path d="M196 101C196 97.6863 198.686 95 202 95H290C293.314 95 296 97.6863 296 101V185C296 188.314 293.314 191 290 191H202C198.686 191 196 188.314 196 185V101Z" fill="#7E8A92" />
        <path d="M256 129.167H250.047L244.573 119.586C244.5 119.459 244.395 119.353 244.268 119.279C244.141 119.205 243.996 119.167 243.849 119.167H240.438C239.884 119.167 239.485 119.696 239.637 120.229L242.191 129.167H236.833L234.583 126.167C234.426 125.957 234.179 125.833 233.917 125.833H231.834C231.292 125.833 230.894 126.343 231.025 126.869L232.667 132.5L231.025 138.131C230.894 138.657 231.292 139.167 231.834 139.167H233.917C234.179 139.167 234.426 139.043 234.583 138.833L236.833 135.833H242.191L239.637 144.771C239.485 145.303 239.884 145.833 240.438 145.833H243.849C244.148 145.833 244.424 145.673 244.573 145.414L250.047 135.833H256C257.841 135.833 261 134.341 261 132.5C261 130.659 257.841 129.167 256 129.167Z" fill="white" />
        <path d="M222.117 159.934L219.041 168.5H218.039L214.963 159.934H216.006L218.01 165.576C218.092 165.803 218.164 166.02 218.227 166.227C218.293 166.434 218.352 166.633 218.402 166.824C218.453 167.016 218.498 167.201 218.537 167.381C218.576 167.201 218.621 167.016 218.672 166.824C218.723 166.629 218.781 166.428 218.848 166.221C218.914 166.01 218.988 165.789 219.07 165.559L221.062 159.934H222.117ZM225.551 161.973C226.316 161.973 226.885 162.145 227.256 162.488C227.627 162.832 227.812 163.381 227.812 164.135V168.5H227.104L226.916 167.551H226.869C226.689 167.785 226.502 167.982 226.307 168.143C226.111 168.299 225.885 168.418 225.627 168.5C225.373 168.578 225.061 168.617 224.689 168.617C224.299 168.617 223.951 168.549 223.646 168.412C223.346 168.275 223.107 168.068 222.932 167.791C222.76 167.514 222.674 167.162 222.674 166.736C222.674 166.096 222.928 165.604 223.436 165.26C223.943 164.916 224.717 164.729 225.756 164.697L226.863 164.65V164.258C226.863 163.703 226.744 163.314 226.506 163.092C226.268 162.869 225.932 162.758 225.498 162.758C225.162 162.758 224.842 162.807 224.537 162.904C224.232 163.002 223.943 163.117 223.67 163.25L223.371 162.512C223.66 162.363 223.992 162.236 224.367 162.131C224.742 162.025 225.137 161.973 225.551 161.973ZM226.852 165.336L225.873 165.377C225.072 165.408 224.508 165.539 224.18 165.77C223.852 166 223.688 166.326 223.688 166.748C223.688 167.115 223.799 167.387 224.021 167.562C224.244 167.738 224.539 167.826 224.906 167.826C225.477 167.826 225.943 167.668 226.307 167.352C226.67 167.035 226.852 166.561 226.852 165.928V165.336ZM232.389 168.617C231.811 168.617 231.301 168.498 230.859 168.26C230.418 168.021 230.074 167.658 229.828 167.17C229.582 166.682 229.459 166.066 229.459 165.324C229.459 164.547 229.588 163.912 229.846 163.42C230.107 162.924 230.467 162.557 230.924 162.318C231.381 162.08 231.9 161.961 232.482 161.961C232.803 161.961 233.111 161.994 233.408 162.061C233.709 162.123 233.955 162.203 234.146 162.301L233.854 163.115C233.658 163.037 233.432 162.967 233.174 162.904C232.92 162.842 232.682 162.811 232.459 162.811C232.014 162.811 231.643 162.906 231.346 163.098C231.053 163.289 230.832 163.57 230.684 163.941C230.539 164.312 230.467 164.77 230.467 165.312C230.467 165.832 230.537 166.275 230.678 166.643C230.822 167.01 231.035 167.291 231.316 167.486C231.602 167.678 231.957 167.773 232.383 167.773C232.723 167.773 233.029 167.738 233.303 167.668C233.576 167.594 233.824 167.508 234.047 167.41V168.277C233.832 168.387 233.592 168.471 233.326 168.529C233.064 168.588 232.752 168.617 232.389 168.617ZM237.973 161.973C238.738 161.973 239.307 162.145 239.678 162.488C240.049 162.832 240.234 163.381 240.234 164.135V168.5H239.525L239.338 167.551H239.291C239.111 167.785 238.924 167.982 238.729 168.143C238.533 168.299 238.307 168.418 238.049 168.5C237.795 168.578 237.482 168.617 237.111 168.617C236.721 168.617 236.373 168.549 236.068 168.412C235.768 168.275 235.529 168.068 235.354 167.791C235.182 167.514 235.096 167.162 235.096 166.736C235.096 166.096 235.35 165.604 235.857 165.26C236.365 164.916 237.139 164.729 238.178 164.697L239.285 164.65V164.258C239.285 163.703 239.166 163.314 238.928 163.092C238.689 162.869 238.354 162.758 237.92 162.758C237.584 162.758 237.264 162.807 236.959 162.904C236.654 163.002 236.365 163.117 236.092 163.25L235.793 162.512C236.082 162.363 236.414 162.236 236.789 162.131C237.164 162.025 237.559 161.973 237.973 161.973ZM239.273 165.336L238.295 165.377C237.494 165.408 236.93 165.539 236.602 165.77C236.273 166 236.109 166.326 236.109 166.748C236.109 167.115 236.221 167.387 236.443 167.562C236.666 167.738 236.961 167.826 237.328 167.826C237.898 167.826 238.365 167.668 238.729 167.352C239.092 167.035 239.273 166.561 239.273 165.928V165.336ZM244.811 168.617C244.232 168.617 243.723 168.498 243.281 168.26C242.84 168.021 242.496 167.658 242.25 167.17C242.004 166.682 241.881 166.066 241.881 165.324C241.881 164.547 242.01 163.912 242.268 163.42C242.529 162.924 242.889 162.557 243.346 162.318C243.803 162.08 244.322 161.961 244.904 161.961C245.225 161.961 245.533 161.994 245.83 162.061C246.131 162.123 246.377 162.203 246.568 162.301L246.275 163.115C246.08 163.037 245.854 162.967 245.596 162.904C245.342 162.842 245.104 162.811 244.881 162.811C244.436 162.811 244.064 162.906 243.768 163.098C243.475 163.289 243.254 163.57 243.105 163.941C242.961 164.312 242.889 164.77 242.889 165.312C242.889 165.832 242.959 166.275 243.1 166.643C243.244 167.01 243.457 167.291 243.738 167.486C244.023 167.678 244.379 167.773 244.805 167.773C245.145 167.773 245.451 167.738 245.725 167.668C245.998 167.594 246.246 167.508 246.469 167.41V168.277C246.254 168.387 246.014 168.471 245.748 168.529C245.486 168.588 245.174 168.617 244.811 168.617ZM248.965 162.078V168.5H247.992V162.078H248.965ZM248.49 159.676C248.65 159.676 248.787 159.729 248.9 159.834C249.018 159.936 249.076 160.096 249.076 160.314C249.076 160.529 249.018 160.689 248.9 160.795C248.787 160.9 248.65 160.953 248.49 160.953C248.322 160.953 248.182 160.9 248.068 160.795C247.959 160.689 247.904 160.529 247.904 160.314C247.904 160.096 247.959 159.936 248.068 159.834C248.182 159.729 248.322 159.676 248.49 159.676ZM256.564 165.277C256.564 165.805 256.496 166.275 256.359 166.689C256.223 167.104 256.025 167.453 255.768 167.738C255.51 168.023 255.197 168.242 254.83 168.395C254.467 168.543 254.055 168.617 253.594 168.617C253.164 168.617 252.77 168.543 252.41 168.395C252.055 168.242 251.746 168.023 251.484 167.738C251.227 167.453 251.025 167.104 250.881 166.689C250.74 166.275 250.67 165.805 250.67 165.277C250.67 164.574 250.789 163.977 251.027 163.484C251.266 162.988 251.605 162.611 252.047 162.354C252.492 162.092 253.021 161.961 253.635 161.961C254.221 161.961 254.732 162.092 255.17 162.354C255.611 162.615 255.953 162.994 256.195 163.49C256.441 163.982 256.564 164.578 256.564 165.277ZM251.678 165.277C251.678 165.793 251.746 166.24 251.883 166.619C252.02 166.998 252.23 167.291 252.516 167.498C252.801 167.705 253.168 167.809 253.617 167.809C254.062 167.809 254.428 167.705 254.713 167.498C255.002 167.291 255.215 166.998 255.352 166.619C255.488 166.24 255.557 165.793 255.557 165.277C255.557 164.766 255.488 164.324 255.352 163.953C255.215 163.578 255.004 163.289 254.719 163.086C254.434 162.883 254.064 162.781 253.611 162.781C252.943 162.781 252.453 163.002 252.141 163.443C251.832 163.885 251.678 164.496 251.678 165.277ZM261.287 161.961C262.049 161.961 262.625 162.148 263.016 162.523C263.406 162.895 263.602 163.492 263.602 164.316V168.5H262.641V164.381C262.641 163.846 262.518 163.445 262.271 163.18C262.029 162.914 261.656 162.781 261.152 162.781C260.441 162.781 259.941 162.982 259.652 163.385C259.363 163.787 259.219 164.371 259.219 165.137V168.5H258.246V162.078H259.031L259.178 163.004H259.23C259.367 162.777 259.541 162.588 259.752 162.436C259.963 162.279 260.199 162.162 260.461 162.084C260.723 162.002 260.998 161.961 261.287 161.961ZM268.078 161.961C268.625 161.961 269.094 162.082 269.484 162.324C269.875 162.566 270.174 162.906 270.381 163.344C270.588 163.777 270.691 164.285 270.691 164.867V165.471H266.256C266.268 166.225 266.455 166.799 266.818 167.193C267.182 167.588 267.693 167.785 268.354 167.785C268.76 167.785 269.119 167.748 269.432 167.674C269.744 167.6 270.068 167.49 270.404 167.346V168.201C270.08 168.346 269.758 168.451 269.438 168.518C269.121 168.584 268.746 168.617 268.312 168.617C267.695 168.617 267.156 168.492 266.695 168.242C266.238 167.988 265.883 167.617 265.629 167.129C265.375 166.641 265.248 166.043 265.248 165.336C265.248 164.645 265.363 164.047 265.594 163.543C265.828 163.035 266.156 162.645 266.578 162.371C267.004 162.098 267.504 161.961 268.078 161.961ZM268.066 162.758C267.547 162.758 267.133 162.928 266.824 163.268C266.516 163.607 266.332 164.082 266.273 164.691H269.672C269.668 164.309 269.607 163.973 269.49 163.684C269.377 163.391 269.203 163.164 268.969 163.004C268.734 162.84 268.434 162.758 268.066 162.758ZM276.498 166.742C276.498 167.152 276.395 167.498 276.188 167.779C275.984 168.057 275.691 168.266 275.309 168.406C274.93 168.547 274.477 168.617 273.949 168.617C273.5 168.617 273.111 168.582 272.783 168.512C272.455 168.441 272.168 168.342 271.922 168.213V167.316C272.184 167.445 272.496 167.562 272.859 167.668C273.223 167.773 273.594 167.826 273.973 167.826C274.527 167.826 274.93 167.736 275.18 167.557C275.43 167.377 275.555 167.133 275.555 166.824C275.555 166.648 275.504 166.494 275.402 166.361C275.305 166.225 275.139 166.094 274.904 165.969C274.67 165.84 274.346 165.699 273.932 165.547C273.521 165.391 273.166 165.236 272.865 165.084C272.568 164.928 272.338 164.738 272.174 164.516C272.014 164.293 271.934 164.004 271.934 163.648C271.934 163.105 272.152 162.689 272.59 162.4C273.031 162.107 273.609 161.961 274.324 161.961C274.711 161.961 275.072 162 275.408 162.078C275.748 162.152 276.064 162.254 276.357 162.383L276.029 163.162C275.764 163.049 275.48 162.953 275.18 162.875C274.879 162.797 274.572 162.758 274.26 162.758C273.811 162.758 273.465 162.832 273.223 162.98C272.984 163.129 272.865 163.332 272.865 163.59C272.865 163.789 272.92 163.953 273.029 164.082C273.143 164.211 273.322 164.332 273.568 164.445C273.814 164.559 274.139 164.691 274.541 164.844C274.943 164.992 275.291 165.146 275.584 165.307C275.877 165.463 276.102 165.654 276.258 165.881C276.418 166.104 276.498 166.391 276.498 166.742Z" fill="white" />
    </g>
    <path d="M115.729 23.5892L110.663 26.5191C110.689 26.2949 110.703 26.0694 110.705 25.8436V24.3829C110.705 21.7654 108.873 20.71 106.61 22.0103C105.637 22.6113 104.805 23.4148 104.17 24.366C103.798 21.073 101.223 19.8572 98.0903 21.6641C96.3041 22.8246 94.8177 24.3911 93.7524 26.2356C92.6871 28.0802 92.073 30.1505 91.9603 32.2776V34.4729C91.9371 35.3463 92.1163 36.2132 92.4838 37.0059L88.262 39.4377C87.6033 39.8714 87.0549 40.453 86.6606 41.1361C86.2663 41.8192 86.0369 42.5849 85.9907 43.3723C85.9907 44.8246 87.0124 45.4157 88.262 44.6895L115.729 28.8411C116.388 28.4073 116.936 27.8257 117.33 27.1426C117.725 26.4595 117.954 25.6938 118 24.9064C117.958 23.4541 116.936 22.8715 115.729 23.5892Z" fill="#EBEBEB" />
    <path d="M82.1826 10.1302L79.4216 11.211V5.04721C79.4216 0.166859 75.5291 -1.00679 71.2989 1.43339C67.0772 3.882 63.6491 9.81779 63.6491 14.6981V15.5931C63.0541 15.4068 62.4242 15.3594 61.808 15.4545C61.1917 15.5496 60.6055 15.7848 60.0944 16.142C58.4894 17.1863 57.1536 18.5947 56.1955 20.2526C55.2374 21.9105 54.6842 23.7711 54.5808 25.6831V26.0884L50.6883 28.3344C49.6311 29.0215 48.7512 29.9487 48.1203 31.0404C47.4894 32.132 47.1253 33.3573 47.0576 34.6164C47.0576 36.9299 48.6788 37.8671 50.6883 36.7104L82.1826 18.5062C83.2388 17.818 84.118 16.8906 84.7488 15.7992C85.3797 14.7077 85.7443 13.4829 85.8133 12.2242C85.8133 9.89378 84.1837 8.97344 82.1826 10.1302Z" fill="#EBEBEB" />
</svg>