<svg width="344" height="216" viewBox="0 0 344 216" fill="none" xmlns="http://www.w3.org/2000/svg">
<path d="M17.6322 70.8413C17.8347 71.0554 18.1645 71.0554 18.37 70.8413L21.5208 67.537C22.4351 66.5764 22.3831 64.9851 21.3588 64.0997C20.4677 63.3272 19.1396 63.4661 18.3237 64.3225L17.9996 64.661L17.6785 64.3254C16.8625 63.4661 15.5345 63.3272 14.6433 64.0997C13.622 64.9851 13.567 66.5764 14.4813 67.537L17.6322 70.8413ZM26.0229 73.0865C25.6815 72.7769 25.1491 72.7972 24.7903 73.0865L22.1169 75.2247C21.7899 75.488 21.382 75.6298 20.9595 75.6298H17.5367C17.2821 75.6298 17.0737 75.4214 17.0737 75.1668C17.0737 74.9122 17.2821 74.7039 17.5367 74.7039H19.8022C20.2622 74.7039 20.6904 74.3885 20.7657 73.9343C20.8612 73.3556 20.4156 72.8521 19.8514 72.8521H15.222C14.4408 72.8521 13.6856 73.1212 13.078 73.6131L11.7326 74.7039H10.1297C9.87507 74.7039 9.66675 74.9122 9.66675 75.1668V77.9445C9.66675 78.1991 9.87507 78.4074 10.1297 78.4074H20.4532C20.8727 78.4074 21.2807 78.2656 21.6105 78.0023L25.9853 74.5014C26.4251 74.1513 26.4598 73.48 26.0229 73.0865Z" fill="#FBFAFC"/>
<path d="M37.1378 78V64.9091H39.9055V70.3104H45.5241V64.9091H48.2855V78H45.5241V72.5923H39.9055V78H37.1378ZM54.9524 78.1918C53.9595 78.1918 53.1009 77.9808 52.3764 77.5589C51.6563 77.1328 51.1001 76.5405 50.7081 75.782C50.3161 75.0192 50.12 74.1349 50.12 73.1293C50.12 72.1151 50.3161 71.2287 50.7081 70.4702C51.1001 69.7074 51.6563 69.1151 52.3764 68.6932C53.1009 68.267 53.9595 68.054 54.9524 68.054C55.9453 68.054 56.8018 68.267 57.522 68.6932C58.2464 69.1151 58.8047 69.7074 59.1967 70.4702C59.5888 71.2287 59.7848 72.1151 59.7848 73.1293C59.7848 74.1349 59.5888 75.0192 59.1967 75.782C58.8047 76.5405 58.2464 77.1328 57.522 77.5589C56.8018 77.9808 55.9453 78.1918 54.9524 78.1918ZM54.9652 76.0824C55.4169 76.0824 55.794 75.9545 56.0966 75.6989C56.3991 75.4389 56.6271 75.0852 56.7805 74.6378C56.9382 74.1903 57.017 73.6811 57.017 73.1101C57.017 72.5391 56.9382 72.0298 56.7805 71.5824C56.6271 71.1349 56.3991 70.7812 56.0966 70.5213C55.794 70.2614 55.4169 70.1314 54.9652 70.1314C54.5092 70.1314 54.1257 70.2614 53.8146 70.5213C53.5078 70.7812 53.2756 71.1349 53.1179 71.5824C52.9645 72.0298 52.8878 72.5391 52.8878 73.1101C52.8878 73.6811 52.9645 74.1903 53.1179 74.6378C53.2756 75.0852 53.5078 75.4389 53.8146 75.6989C54.1257 75.9545 54.5092 76.0824 54.9652 76.0824ZM63.2461 78L60.5742 68.1818H63.3292L64.8505 74.7784H64.94L66.5252 68.1818H69.229L70.8398 74.7401H70.9229L72.4187 68.1818H75.1673L72.5018 78H69.619L67.9315 71.8253H67.81L66.1225 78H63.2461ZM83.5856 78.1854C82.9592 78.1854 82.4009 78.0767 81.9109 77.8594C81.4208 77.6378 81.033 77.3118 80.7475 76.8814C80.4663 76.4467 80.3256 75.9055 80.3256 75.2578C80.3256 74.7124 80.4258 74.2543 80.6261 73.8835C80.8263 73.5128 81.0991 73.2145 81.4442 72.9886C81.7894 72.7628 82.1815 72.5923 82.6204 72.4773C83.0636 72.3622 83.5281 72.2812 84.0138 72.2344C84.5849 72.1747 85.0451 72.1193 85.3945 72.0682C85.744 72.0128 85.9975 71.9318 86.1552 71.8253C86.3129 71.7187 86.3917 71.5611 86.3917 71.3523V71.3139C86.3917 70.9091 86.2638 70.5959 86.0082 70.3743C85.7567 70.1527 85.3988 70.0419 84.9343 70.0419C84.4442 70.0419 84.0543 70.1506 83.7646 70.3679C83.4748 70.581 83.283 70.8494 83.1893 71.1733L80.6708 70.9688C80.7987 70.3722 81.0501 69.8565 81.4251 69.4219C81.8001 68.983 82.2837 68.6463 82.8761 68.4119C83.4727 68.1733 84.163 68.054 84.9471 68.054C85.4925 68.054 86.0146 68.1179 86.5131 68.2457C87.016 68.3736 87.4613 68.5717 87.8491 68.8402C88.2411 69.1087 88.5501 69.4538 88.7759 69.8757C89.0018 70.2933 89.1147 70.794 89.1147 71.3778V78H86.5323V76.6385H86.4556C86.2979 76.9453 86.087 77.2159 85.8228 77.4503C85.5586 77.6804 85.2411 77.8615 84.8704 77.9936C84.4996 78.1214 84.0714 78.1854 83.5856 78.1854ZM84.3654 76.3061C84.766 76.3061 85.1197 76.2273 85.4265 76.0696C85.7333 75.9077 85.9741 75.6903 86.1488 75.4176C86.3235 75.1449 86.4109 74.8359 86.4109 74.4908V73.4489C86.3256 73.5043 86.2085 73.5554 86.0593 73.6023C85.9144 73.6449 85.7504 73.6854 85.5671 73.7237C85.3839 73.7578 85.2006 73.7898 85.0174 73.8196C84.8342 73.8452 84.668 73.8686 84.5188 73.8899C84.1992 73.9368 83.9201 74.0114 83.6815 74.1136C83.4428 74.2159 83.2575 74.3544 83.1254 74.5291C82.9933 74.6996 82.9272 74.9126 82.9272 75.1683C82.9272 75.5391 83.0614 75.8224 83.3299 76.0185C83.6026 76.2102 83.9478 76.3061 84.3654 76.3061ZM91.2273 78V68.1818H93.8672V69.8949H93.9695C94.1484 69.2855 94.4489 68.8253 94.8707 68.5142C95.2926 68.1989 95.7784 68.0412 96.3281 68.0412C96.4645 68.0412 96.6115 68.0497 96.7692 68.0668C96.9268 68.0838 97.0653 68.1072 97.1847 68.1371V70.5533C97.0568 70.5149 96.88 70.4808 96.6541 70.451C96.4283 70.4212 96.2216 70.4062 96.0341 70.4062C95.6335 70.4062 95.2756 70.4936 94.9602 70.6683C94.6491 70.8388 94.402 71.0774 94.2188 71.3842C94.0398 71.6911 93.9503 72.0447 93.9503 72.4453V78H91.2273ZM102.61 78.1918C101.6 78.1918 100.731 77.9872 100.002 77.5781C99.2775 77.1648 98.7193 76.581 98.3272 75.8267C97.9352 75.0682 97.7392 74.1712 97.7392 73.1357C97.7392 72.1257 97.9352 71.2393 98.3272 70.4766C98.7193 69.7138 99.2711 69.1193 99.9828 68.6932C100.699 68.267 101.538 68.054 102.501 68.054C103.149 68.054 103.752 68.1584 104.31 68.3672C104.873 68.5717 105.363 68.8807 105.78 69.294C106.202 69.7074 106.53 70.2273 106.765 70.8537C106.999 71.4759 107.116 72.2045 107.116 73.0398V73.7876H98.8258V72.1001H104.553C104.553 71.7081 104.468 71.3608 104.297 71.0582C104.127 70.7557 103.89 70.5192 103.588 70.3487C103.29 70.174 102.942 70.0866 102.546 70.0866C102.133 70.0866 101.766 70.1825 101.447 70.3743C101.131 70.5618 100.884 70.8153 100.705 71.1349C100.526 71.4503 100.434 71.8018 100.43 72.1896V73.794C100.43 74.2798 100.52 74.6996 100.699 75.0533C100.882 75.407 101.14 75.6797 101.472 75.8714C101.805 76.0632 102.199 76.1591 102.655 76.1591C102.957 76.1591 103.234 76.1165 103.486 76.0312C103.737 75.946 103.952 75.8182 104.131 75.6477C104.31 75.4773 104.447 75.2685 104.54 75.0213L107.059 75.1875C106.931 75.7926 106.669 76.321 106.273 76.7727C105.881 77.2202 105.373 77.5696 104.751 77.821C104.133 78.0682 103.42 78.1918 102.61 78.1918ZM114.74 81.6818C114.395 81.6818 114.071 81.6541 113.769 81.5987C113.471 81.5476 113.223 81.4815 113.027 81.4006L113.641 79.3679C113.961 79.4659 114.248 79.5192 114.504 79.5277C114.764 79.5362 114.988 79.4766 115.175 79.3487C115.367 79.2209 115.522 79.0036 115.642 78.6967L115.801 78.2812L112.279 68.1818H115.143L117.176 75.392H117.278L119.33 68.1818H122.213L118.397 79.0611C118.213 79.5895 117.964 80.0497 117.649 80.4418C117.338 80.8381 116.944 81.1428 116.466 81.3558C115.989 81.5732 115.414 81.6818 114.74 81.6818ZM127.726 78.1918C126.733 78.1918 125.874 77.9808 125.15 77.5589C124.43 77.1328 123.874 76.5405 123.482 75.782C123.089 75.0192 122.893 74.1349 122.893 73.1293C122.893 72.1151 123.089 71.2287 123.482 70.4702C123.874 69.7074 124.43 69.1151 125.15 68.6932C125.874 68.267 126.733 68.054 127.726 68.054C128.719 68.054 129.575 68.267 130.295 68.6932C131.02 69.1151 131.578 69.7074 131.97 70.4702C132.362 71.2287 132.558 72.1151 132.558 73.1293C132.558 74.1349 132.362 75.0192 131.97 75.782C131.578 76.5405 131.02 77.1328 130.295 77.5589C129.575 77.9808 128.719 78.1918 127.726 78.1918ZM127.739 76.0824C128.19 76.0824 128.567 75.9545 128.87 75.6989C129.173 75.4389 129.401 75.0852 129.554 74.6378C129.712 74.1903 129.79 73.6811 129.79 73.1101C129.79 72.5391 129.712 72.0298 129.554 71.5824C129.401 71.1349 129.173 70.7812 128.87 70.5213C128.567 70.2614 128.19 70.1314 127.739 70.1314C127.283 70.1314 126.899 70.2614 126.588 70.5213C126.281 70.7812 126.049 71.1349 125.891 71.5824C125.738 72.0298 125.661 72.5391 125.661 73.1101C125.661 73.6811 125.738 74.1903 125.891 74.6378C126.049 75.0852 126.281 75.4389 126.588 75.6989C126.899 75.9545 127.283 76.0824 127.739 76.0824ZM140.625 73.8196V68.1818H143.348V78H140.734V76.2166H140.631C140.41 76.7919 140.041 77.2543 139.526 77.6037C139.014 77.9531 138.39 78.1278 137.653 78.1278C136.996 78.1278 136.419 77.9787 135.92 77.6804C135.422 77.3821 135.032 76.9581 134.751 76.4084C134.474 75.8587 134.333 75.2003 134.329 74.4332V68.1818H137.052V73.9474C137.056 74.527 137.212 74.9851 137.518 75.3217C137.825 75.6584 138.237 75.8267 138.752 75.8267C139.08 75.8267 139.387 75.7521 139.673 75.603C139.958 75.4496 140.188 75.2237 140.363 74.9254C140.542 74.6271 140.629 74.2585 140.625 73.8196ZM154.972 68.1818V70.2273H148.912V68.1818H154.972ZM150.299 78V67.4723C150.299 66.7607 150.438 66.1705 150.715 65.7017C150.996 65.233 151.38 64.8814 151.865 64.647C152.351 64.4126 152.903 64.2955 153.521 64.2955C153.939 64.2955 154.32 64.3274 154.665 64.3913C155.015 64.4553 155.275 64.5128 155.445 64.5639L154.959 66.6094C154.853 66.5753 154.721 66.5433 154.563 66.5135C154.409 66.4837 154.252 66.4688 154.09 66.4688C153.689 66.4688 153.41 66.5625 153.252 66.75C153.095 66.9332 153.016 67.1911 153.016 67.5234V78H150.299ZM160.758 78.1918C159.748 78.1918 158.879 77.9872 158.15 77.5781C157.426 77.1648 156.868 76.581 156.476 75.8267C156.084 75.0682 155.888 74.1712 155.888 73.1357C155.888 72.1257 156.084 71.2393 156.476 70.4766C156.868 69.7138 157.42 69.1193 158.131 68.6932C158.847 68.267 159.687 68.054 160.65 68.054C161.297 68.054 161.9 68.1584 162.459 68.3672C163.021 68.5717 163.511 68.8807 163.929 69.294C164.351 69.7074 164.679 70.2273 164.913 70.8537C165.148 71.4759 165.265 72.2045 165.265 73.0398V73.7876H156.974V72.1001H162.702C162.702 71.7081 162.616 71.3608 162.446 71.0582C162.275 70.7557 162.039 70.5192 161.736 70.3487C161.438 70.174 161.091 70.0866 160.694 70.0866C160.281 70.0866 159.915 70.1825 159.595 70.3743C159.28 70.5618 159.032 70.8153 158.854 71.1349C158.675 71.4503 158.583 71.8018 158.579 72.1896V73.794C158.579 74.2798 158.668 74.6996 158.847 75.0533C159.03 75.407 159.288 75.6797 159.621 75.8714C159.953 76.0632 160.347 76.1591 160.803 76.1591C161.106 76.1591 161.383 76.1165 161.634 76.0312C161.885 75.946 162.101 75.8182 162.28 75.6477C162.459 75.4773 162.595 75.2685 162.689 75.0213L165.207 75.1875C165.079 75.7926 164.817 76.321 164.421 76.7727C164.029 77.2202 163.522 77.5696 162.9 77.821C162.282 78.0682 161.568 78.1918 160.758 78.1918ZM171.516 78.1918C170.506 78.1918 169.637 77.9872 168.908 77.5781C168.184 77.1648 167.626 76.581 167.233 75.8267C166.841 75.0682 166.645 74.1712 166.645 73.1357C166.645 72.1257 166.841 71.2393 167.233 70.4766C167.626 69.7138 168.177 69.1193 168.889 68.6932C169.605 68.267 170.444 68.054 171.407 68.054C172.055 68.054 172.658 68.1584 173.216 68.3672C173.779 68.5717 174.269 68.8807 174.687 69.294C175.108 69.7074 175.437 70.2273 175.671 70.8537C175.905 71.4759 176.023 72.2045 176.023 73.0398V73.7876H167.732V72.1001H173.459C173.459 71.7081 173.374 71.3608 173.204 71.0582C173.033 70.7557 172.797 70.5192 172.494 70.3487C172.196 70.174 171.849 70.0866 171.452 70.0866C171.039 70.0866 170.672 70.1825 170.353 70.3743C170.037 70.5618 169.79 70.8153 169.611 71.1349C169.432 71.4503 169.341 71.8018 169.336 72.1896V73.794C169.336 74.2798 169.426 74.6996 169.605 75.0533C169.788 75.407 170.046 75.6797 170.378 75.8714C170.711 76.0632 171.105 76.1591 171.561 76.1591C171.863 76.1591 172.14 76.1165 172.392 76.0312C172.643 75.946 172.858 75.8182 173.037 75.6477C173.216 75.4773 173.353 75.2685 173.447 75.0213L175.965 75.1875C175.837 75.7926 175.575 76.321 175.179 76.7727C174.787 77.2202 174.28 77.5696 173.657 77.821C173.04 78.0682 172.326 78.1918 171.516 78.1918ZM180.523 64.9091V78H177.8V64.9091H180.523ZM182.704 78V68.1818H185.427V78H182.704ZM184.072 66.9162C183.667 66.9162 183.32 66.782 183.03 66.5135C182.744 66.2408 182.602 65.9148 182.602 65.5355C182.602 65.1605 182.744 64.8388 183.03 64.5703C183.32 64.2976 183.667 64.1612 184.072 64.1612C184.477 64.1612 184.822 64.2976 185.107 64.5703C185.397 64.8388 185.542 65.1605 185.542 65.5355C185.542 65.9148 185.397 66.2408 185.107 66.5135C184.822 66.782 184.477 66.9162 184.072 66.9162ZM190.331 72.3239V78H187.608V68.1818H190.203V69.9141H190.318C190.536 69.343 190.9 68.8913 191.411 68.5589C191.923 68.2223 192.543 68.054 193.271 68.054C193.953 68.054 194.548 68.2031 195.055 68.5014C195.562 68.7997 195.956 69.2259 196.237 69.7798C196.519 70.3295 196.659 70.9858 196.659 71.7486V78H193.936V72.2344C193.941 71.6335 193.787 71.1648 193.476 70.8281C193.165 70.4872 192.737 70.3168 192.191 70.3168C191.825 70.3168 191.501 70.3956 191.22 70.5533C190.943 70.7109 190.725 70.9411 190.568 71.2436C190.414 71.5419 190.335 71.902 190.331 72.3239ZM203.229 81.8864C202.347 81.8864 201.59 81.7649 200.96 81.522C200.333 81.2834 199.835 80.9574 199.464 80.544C199.093 80.1307 198.852 79.6662 198.741 79.1506L201.26 78.8118C201.337 79.0078 201.458 79.1911 201.624 79.3615C201.79 79.532 202.01 79.6683 202.283 79.7706C202.56 79.8771 202.896 79.9304 203.293 79.9304C203.885 79.9304 204.373 79.7855 204.756 79.4957C205.144 79.2102 205.338 78.7308 205.338 78.0575V76.2614H205.223C205.104 76.5341 204.925 76.7919 204.686 77.0348C204.447 77.2777 204.141 77.4759 203.766 77.6293C203.391 77.7827 202.943 77.8594 202.423 77.8594C201.686 77.8594 201.015 77.6889 200.41 77.348C199.809 77.0028 199.33 76.4766 198.972 75.7692C198.618 75.0575 198.441 74.1584 198.441 73.0717C198.441 71.9595 198.622 71.0305 198.984 70.2848C199.347 69.5391 199.828 68.9808 200.429 68.6101C201.034 68.2393 201.697 68.054 202.417 68.054C202.967 68.054 203.427 68.1477 203.798 68.3352C204.168 68.5185 204.467 68.7486 204.692 69.0256C204.923 69.2983 205.099 69.5668 205.223 69.831H205.325V68.1818H208.029V78.0959C208.029 78.9311 207.825 79.63 207.415 80.1925C207.006 80.755 206.44 81.1768 205.715 81.4581C204.995 81.7436 204.166 81.8864 203.229 81.8864ZM203.286 75.8139C203.725 75.8139 204.096 75.7053 204.398 75.4879C204.705 75.2663 204.94 74.951 205.102 74.5419C205.268 74.1286 205.351 73.6342 205.351 73.0589C205.351 72.4837 205.27 71.9851 205.108 71.5632C204.946 71.1371 204.712 70.8068 204.405 70.5724C204.098 70.3381 203.725 70.2209 203.286 70.2209C202.839 70.2209 202.462 70.3423 202.155 70.5852C201.848 70.8239 201.616 71.1562 201.458 71.5824C201.3 72.0085 201.222 72.5007 201.222 73.0589C201.222 73.6257 201.3 74.1158 201.458 74.5291C201.62 74.9382 201.852 75.2557 202.155 75.4815C202.462 75.7031 202.839 75.8139 203.286 75.8139ZM219.584 68.1818V70.2273H213.672V68.1818H219.584ZM215.014 65.8295H217.737V74.983C217.737 75.2344 217.775 75.4304 217.852 75.571C217.929 75.7074 218.035 75.8033 218.172 75.8587C218.312 75.9141 218.474 75.9418 218.657 75.9418C218.785 75.9418 218.913 75.9311 219.041 75.9098C219.169 75.8842 219.267 75.8651 219.335 75.8523L219.763 77.8786C219.627 77.9212 219.435 77.9702 219.188 78.0256C218.941 78.0852 218.64 78.1214 218.287 78.1342C217.631 78.1598 217.055 78.0724 216.561 77.8722C216.071 77.6719 215.689 77.3608 215.417 76.9389C215.144 76.517 215.01 75.9844 215.014 75.3409V65.8295ZM225.689 78.1918C224.696 78.1918 223.837 77.9808 223.113 77.5589C222.393 77.1328 221.836 76.5405 221.444 75.782C221.052 75.0192 220.856 74.1349 220.856 73.1293C220.856 72.1151 221.052 71.2287 221.444 70.4702C221.836 69.7074 222.393 69.1151 223.113 68.6932C223.837 68.267 224.696 68.054 225.689 68.054C226.682 68.054 227.538 68.267 228.258 68.6932C228.983 69.1151 229.541 69.7074 229.933 70.4702C230.325 71.2287 230.521 72.1151 230.521 73.1293C230.521 74.1349 230.325 75.0192 229.933 75.782C229.541 76.5405 228.983 77.1328 228.258 77.5589C227.538 77.9808 226.682 78.1918 225.689 78.1918ZM225.702 76.0824C226.153 76.0824 226.53 75.9545 226.833 75.6989C227.135 75.4389 227.363 75.0852 227.517 74.6378C227.675 74.1903 227.753 73.6811 227.753 73.1101C227.753 72.5391 227.675 72.0298 227.517 71.5824C227.363 71.1349 227.135 70.7812 226.833 70.5213C226.53 70.2614 226.153 70.1314 225.702 70.1314C225.246 70.1314 224.862 70.2614 224.551 70.5213C224.244 70.7812 224.012 71.1349 223.854 71.5824C223.701 72.0298 223.624 72.5391 223.624 73.1101C223.624 73.6811 223.701 74.1903 223.854 74.6378C224.012 75.0852 224.244 75.4389 224.551 75.6989C224.862 75.9545 225.246 76.0824 225.702 76.0824ZM235.91 78.1598C235.164 78.1598 234.488 77.968 233.883 77.5845C233.282 77.1967 232.805 76.6278 232.452 75.8778C232.102 75.1236 231.927 74.1989 231.927 73.1037C231.927 71.9787 232.108 71.0433 232.471 70.2976C232.833 69.5476 233.314 68.9872 233.915 68.6165C234.52 68.2415 235.183 68.054 235.903 68.054C236.453 68.054 236.911 68.1477 237.278 68.3352C237.648 68.5185 237.947 68.7486 238.172 69.0256C238.403 69.2983 238.577 69.5668 238.697 69.831H238.78V64.9091H241.496V78H238.812V76.4276H238.697C238.569 76.7003 238.388 76.9709 238.153 77.2393C237.923 77.5036 237.623 77.723 237.252 77.8977C236.885 78.0724 236.438 78.1598 235.91 78.1598ZM236.773 75.9929C237.211 75.9929 237.582 75.8736 237.885 75.6349C238.192 75.392 238.426 75.0533 238.588 74.6186C238.754 74.1839 238.837 73.6747 238.837 73.0909C238.837 72.5071 238.756 72 238.594 71.5696C238.432 71.1392 238.198 70.8068 237.891 70.5724C237.584 70.3381 237.211 70.2209 236.773 70.2209C236.325 70.2209 235.948 70.3423 235.641 70.5852C235.334 70.8281 235.102 71.1648 234.944 71.5952C234.787 72.0256 234.708 72.5241 234.708 73.0909C234.708 73.6619 234.787 74.1669 234.944 74.6058C235.106 75.0405 235.339 75.3814 235.641 75.6286C235.948 75.8714 236.325 75.9929 236.773 75.9929ZM246.535 78.1854C245.908 78.1854 245.35 78.0767 244.86 77.8594C244.37 77.6378 243.982 77.3118 243.697 76.8814C243.415 76.4467 243.275 75.9055 243.275 75.2578C243.275 74.7124 243.375 74.2543 243.575 73.8835C243.776 73.5128 244.048 73.2145 244.393 72.9886C244.739 72.7628 245.131 72.5923 245.57 72.4773C246.013 72.3622 246.477 72.2812 246.963 72.2344C247.534 72.1747 247.994 72.1193 248.344 72.0682C248.693 72.0128 248.947 71.9318 249.104 71.8253C249.262 71.7187 249.341 71.5611 249.341 71.3523V71.3139C249.341 70.9091 249.213 70.5959 248.957 70.3743C248.706 70.1527 248.348 70.0419 247.884 70.0419C247.393 70.0419 247.004 70.1506 246.714 70.3679C246.424 70.581 246.232 70.8494 246.138 71.1733L243.62 70.9688C243.748 70.3722 243.999 69.8565 244.374 69.4219C244.749 68.983 245.233 68.6463 245.825 68.4119C246.422 68.1733 247.112 68.054 247.896 68.054C248.442 68.054 248.964 68.1179 249.462 68.2457C249.965 68.3736 250.411 68.5717 250.798 68.8402C251.19 69.1087 251.499 69.4538 251.725 69.8757C251.951 70.2933 252.064 70.794 252.064 71.3778V78H249.482V76.6385H249.405C249.247 76.9453 249.036 77.2159 248.772 77.4503C248.508 77.6804 248.19 77.8615 247.82 77.9936C247.449 78.1214 247.021 78.1854 246.535 78.1854ZM247.315 76.3061C247.715 76.3061 248.069 76.2273 248.376 76.0696C248.683 75.9077 248.923 75.6903 249.098 75.4176C249.273 75.1449 249.36 74.8359 249.36 74.4908V73.4489C249.275 73.5043 249.158 73.5554 249.009 73.6023C248.864 73.6449 248.7 73.6854 248.516 73.7237C248.333 73.7578 248.15 73.7898 247.967 73.8196C247.783 73.8452 247.617 73.8686 247.468 73.8899C247.148 73.9368 246.869 74.0114 246.631 74.1136C246.392 74.2159 246.207 74.3544 246.075 74.5291C245.942 74.6996 245.876 74.9126 245.876 75.1683C245.876 75.5391 246.011 75.8224 246.279 76.0185C246.552 76.2102 246.897 76.3061 247.315 76.3061ZM255.506 81.6818C255.161 81.6818 254.837 81.6541 254.534 81.5987C254.236 81.5476 253.989 81.4815 253.793 81.4006L254.407 79.3679C254.726 79.4659 255.014 79.5192 255.27 79.5277C255.529 79.5362 255.753 79.4766 255.941 79.3487C256.132 79.2209 256.288 79.0036 256.407 78.6967L256.567 78.2812L253.045 68.1818H255.909L257.941 75.392H258.044L260.096 68.1818H262.978L259.162 79.0611C258.979 79.5895 258.73 80.0497 258.414 80.4418C258.103 80.8381 257.709 81.1428 257.232 81.3558C256.755 81.5732 256.179 81.6818 255.506 81.6818ZM266.711 74.0753V73.858C266.716 73.1122 266.782 72.5178 266.909 72.0746C267.042 71.6314 267.233 71.2734 267.485 71.0007C267.736 70.728 268.039 70.4808 268.392 70.2592C268.657 70.0888 268.893 69.9119 269.102 69.7287C269.311 69.5455 269.477 69.343 269.6 69.1214C269.724 68.8956 269.786 68.6442 269.786 68.3672C269.786 68.0732 269.716 67.8153 269.575 67.5938C269.434 67.3722 269.245 67.2017 269.006 67.0824C268.772 66.9631 268.512 66.9034 268.226 66.9034C267.949 66.9034 267.687 66.9652 267.44 67.0888C267.193 67.2081 266.99 67.3871 266.833 67.6257C266.675 67.8601 266.59 68.152 266.577 68.5014H263.969C263.99 67.6491 264.195 66.946 264.583 66.392C264.971 65.8338 265.484 65.4183 266.123 65.1456C266.762 64.8686 267.468 64.7301 268.239 64.7301C269.087 64.7301 269.837 64.8707 270.489 65.152C271.141 65.429 271.652 65.8317 272.023 66.3601C272.394 66.8885 272.579 67.5256 272.579 68.2713C272.579 68.7699 272.496 69.2131 272.33 69.6009C272.168 69.9844 271.94 70.3253 271.646 70.6236C271.352 70.9176 271.005 71.1839 270.604 71.4226C270.267 71.6229 269.99 71.8317 269.773 72.049C269.56 72.2663 269.4 72.5178 269.294 72.8033C269.191 73.0888 269.138 73.4403 269.134 73.858V74.0753H266.711ZM267.977 78.1662C267.551 78.1662 267.186 78.017 266.884 77.7188C266.586 77.4162 266.439 77.054 266.443 76.6321C266.439 76.2145 266.586 75.8565 266.884 75.5582C267.186 75.2599 267.551 75.1108 267.977 75.1108C268.382 75.1108 268.738 75.2599 269.044 75.5582C269.351 75.8565 269.507 76.2145 269.511 76.6321C269.507 76.9134 269.432 77.1712 269.287 77.4055C269.147 77.6357 268.961 77.821 268.731 77.9616C268.501 78.098 268.25 78.1662 267.977 78.1662Z" fill="#EEEBF2"/>
<path d="M323.75 63C319.469 63 316 66.5 316 70.75C316 75.0312 319.469 78.5 323.75 78.5C328 78.5 331.5 75.0312 331.5 70.75C331.5 66.5 328 63 323.75 63ZM323.75 66.4375C324.469 66.4375 325.062 67.0312 325.062 67.75C325.062 68.5 324.469 69.0625 323.75 69.0625C323 69.0625 322.438 68.5 322.438 67.75C322.438 67.0312 323 66.4375 323.75 66.4375ZM325.5 74.375C325.5 74.5938 325.312 74.75 325.125 74.75H322.375C322.156 74.75 322 74.5938 322 74.375V73.625C322 73.4375 322.156 73.25 322.375 73.25H322.75V71.25H322.375C322.156 71.25 322 71.0938 322 70.875V70.125C322 69.9375 322.156 69.75 322.375 69.75H324.375C324.562 69.75 324.75 69.9375 324.75 70.125V73.25H325.125C325.312 73.25 325.5 73.4375 325.5 73.625V74.375Z" fill="#EEEBF2"/>
<rect x="8" y="99" width="56" height="56" rx="28" fill="#A0DCCE"/>
<path d="M35.9999 110.333C26.7929 110.333 19.3333 117.793 19.3333 127C19.3333 136.207 26.7929 143.667 35.9999 143.667C45.2069 143.667 52.6666 136.207 52.6666 127C52.6666 117.793 45.2069 110.333 35.9999 110.333ZM35.9999 140.441C28.5873 140.441 22.5591 134.413 22.5591 127C22.5591 119.587 28.5873 113.559 35.9999 113.559C43.4126 113.559 49.4408 119.587 49.4408 127C49.4408 134.413 43.4126 140.441 35.9999 140.441ZM41.6451 130.804C40.2472 132.484 38.1841 133.452 35.9999 133.452C33.8158 133.452 31.7526 132.491 30.3548 130.804C29.7835 130.118 28.7687 130.031 28.0833 130.595C27.3978 131.167 27.3104 132.181 27.8749 132.867C29.891 135.286 32.8548 136.671 35.9999 136.671C39.1451 136.671 42.1088 135.286 44.1249 132.867C44.6962 132.181 44.6021 131.167 43.9166 130.595C43.2311 130.031 42.2163 130.118 41.6451 130.804ZM28.5066 123.976C29.0241 123.055 29.797 122.524 30.6236 122.524C31.4502 122.524 32.223 123.055 32.7405 123.976L33.379 125.118C33.5201 125.367 33.7956 125.434 34.004 125.367C34.2459 125.293 34.4072 125.064 34.387 124.809C34.1652 121.98 32.223 120.011 30.6236 120.011C29.0241 120.011 27.0819 121.98 26.8601 124.809C26.84 125.058 27.0013 125.293 27.2432 125.367C27.4717 125.441 27.7405 125.333 27.8682 125.118L28.5066 123.976ZM41.3763 120.011C39.7768 120.011 37.8346 121.98 37.6128 124.809C37.5927 125.058 37.754 125.293 37.9959 125.367C38.2311 125.441 38.4932 125.333 38.6209 125.118L39.2593 123.976C39.7768 123.055 40.5497 122.524 41.3763 122.524C42.2029 122.524 42.9757 123.055 43.4932 123.976L44.1316 125.118C44.2728 125.367 44.5483 125.434 44.7566 125.367C44.9986 125.293 45.1599 125.064 45.1397 124.809C44.9179 121.98 42.9757 120.011 41.3763 120.011Z" fill="#383E4C"/>
<rect x="76" y="99" width="56" height="56" rx="28" fill="#A5C9E7"/>
<path d="M104 110.333C94.7929 110.333 87.3333 117.793 87.3333 127C87.3333 136.207 94.7929 143.667 104 143.667C113.207 143.667 120.667 136.207 120.667 127C120.667 117.793 113.207 110.333 104 110.333ZM104 140.441C96.5873 140.441 90.5591 134.413 90.5591 127C90.5591 119.587 96.5873 113.559 104 113.559C111.413 113.559 117.441 119.587 117.441 127C117.441 134.413 111.413 140.441 104 140.441ZM98.6236 125.925C99.8131 125.925 100.774 124.964 100.774 123.774C100.774 122.585 99.8131 121.624 98.6236 121.624C97.4341 121.624 96.473 122.585 96.473 123.774C96.473 124.964 97.4341 125.925 98.6236 125.925ZM109.376 125.925C110.566 125.925 111.527 124.964 111.527 123.774C111.527 122.585 110.566 121.624 109.376 121.624C108.187 121.624 107.226 122.585 107.226 123.774C107.226 124.964 108.187 125.925 109.376 125.925ZM109.645 130.804C108.247 132.484 106.184 133.452 104 133.452C101.816 133.452 99.7526 132.491 98.3548 130.804C97.7835 130.118 96.762 130.031 96.0833 130.595C95.3978 131.167 95.3104 132.181 95.8749 132.867C97.891 135.286 100.855 136.671 104 136.671C107.145 136.671 110.109 135.286 112.125 132.867C112.696 132.181 112.602 131.167 111.917 130.595C111.238 130.031 110.216 130.118 109.645 130.804Z" fill="#383E4C"/>
<rect x="144" y="99" width="56" height="56" rx="28" fill="#C1C1CC"/>
<path d="M172 110.333C162.793 110.333 155.333 117.793 155.333 127C155.333 136.207 162.793 143.667 172 143.667C181.207 143.667 188.667 136.207 188.667 127C188.667 117.793 181.207 110.333 172 110.333ZM172 140.441C164.587 140.441 158.559 134.413 158.559 127C158.559 119.587 164.587 113.559 172 113.559C179.413 113.559 185.441 119.587 185.441 127C185.441 134.413 179.413 140.441 172 140.441ZM166.624 125.925C167.813 125.925 168.774 124.964 168.774 123.774C168.774 122.585 167.813 121.624 166.624 121.624C165.434 121.624 164.473 122.585 164.473 123.774C164.473 124.964 165.434 125.925 166.624 125.925ZM177.376 121.624C176.187 121.624 175.226 122.585 175.226 123.774C175.226 124.964 176.187 125.925 177.376 125.925C178.566 125.925 179.527 124.964 179.527 123.774C179.527 122.585 178.566 121.624 177.376 121.624ZM177.914 131.301H166.086C165.199 131.301 164.473 132.027 164.473 132.914C164.473 133.801 165.199 134.527 166.086 134.527H177.914C178.801 134.527 179.527 133.801 179.527 132.914C179.527 132.027 178.801 131.301 177.914 131.301Z" fill="#383E4C"/>
<rect x="212" y="99" width="56" height="56" rx="28" fill="#F9D2A5"/>
<path d="M240 110.333C230.793 110.333 223.333 117.793 223.333 127C223.333 136.207 230.793 143.667 240 143.667C249.207 143.667 256.667 136.207 256.667 127C256.667 117.793 249.207 110.333 240 110.333ZM240 140.441C232.587 140.441 226.559 134.413 226.559 127C226.559 119.587 232.587 113.559 240 113.559C247.413 113.559 253.441 119.587 253.441 127C253.441 134.413 247.413 140.441 240 140.441ZM234.624 125.925C235.813 125.925 236.774 124.964 236.774 123.774C236.774 122.585 235.813 121.624 234.624 121.624C233.434 121.624 232.473 122.585 232.473 123.774C232.473 124.964 233.434 125.925 234.624 125.925ZM245.376 121.624C244.187 121.624 243.226 122.585 243.226 123.774C243.226 124.964 244.187 125.925 245.376 125.925C246.566 125.925 247.527 124.964 247.527 123.774C247.527 122.585 246.566 121.624 245.376 121.624ZM240 130.226C237.298 130.226 234.758 131.415 233.024 133.492C232.453 134.177 232.547 135.192 233.232 135.763C233.918 136.328 234.933 136.241 235.504 135.555C236.62 134.218 238.259 133.445 240 133.445C241.741 133.445 243.38 134.211 244.496 135.555C245.04 136.207 246.048 136.355 246.767 135.763C247.453 135.192 247.54 134.177 246.976 133.492C245.242 131.415 242.702 130.226 240 130.226Z" fill="#383E4C"/>
<rect x="280" y="99" width="56" height="56" rx="28" fill="#EEB0B5"/>
<path d="M321.544 127C321.544 123.408 320.117 119.963 317.577 117.423C315.037 114.883 311.592 113.456 308 113.456C304.408 113.456 300.963 114.883 298.423 117.423C295.883 119.963 294.456 123.408 294.456 127C294.456 130.592 295.883 134.037 298.423 136.577C300.963 139.117 304.408 140.544 308 140.544C311.592 140.544 315.037 139.117 317.577 136.577C320.117 134.037 321.544 130.592 321.544 127ZM291.33 127C291.33 122.579 293.086 118.339 296.213 115.213C299.339 112.086 303.579 110.33 308 110.33C312.421 110.33 316.661 112.086 319.788 115.213C322.914 118.339 324.67 122.579 324.67 127C324.67 131.421 322.914 135.661 319.788 138.788C316.661 141.914 312.421 143.67 308 143.67C303.579 143.67 299.339 141.914 296.213 138.788C293.086 135.661 291.33 131.421 291.33 127ZM310.507 136.924C310.025 136.41 309.205 135.856 308 135.856C306.795 135.856 305.975 136.41 305.493 136.924C304.907 137.556 303.917 137.588 303.286 137.002C302.654 136.416 302.621 135.426 303.207 134.795C304.139 133.792 305.747 132.73 308 132.73C310.253 132.73 311.862 133.792 312.786 134.788C313.372 135.42 313.34 136.41 312.708 136.996C312.076 137.582 311.087 137.549 310.501 136.917L310.507 136.924ZM305.089 127.736L304.607 128.218C303.071 129.755 301.098 130.77 298.955 131.129L298.793 131.155C298.226 131.252 297.686 130.868 297.594 130.295C297.503 129.722 297.881 129.188 298.454 129.097L298.617 129.071C300.329 128.784 301.912 127.97 303.142 126.746L303.624 126.264C304.028 125.861 304.692 125.861 305.096 126.264C305.5 126.668 305.5 127.332 305.096 127.736H305.089ZM310.911 127.736C310.507 127.332 310.507 126.668 310.911 126.264C311.315 125.861 311.979 125.861 312.382 126.264L312.864 126.746C314.095 127.977 315.677 128.791 317.39 129.071L317.553 129.097C318.119 129.195 318.503 129.728 318.412 130.295C318.321 130.862 317.781 131.246 317.214 131.155L317.051 131.129C314.909 130.77 312.929 129.755 311.399 128.218L310.917 127.736H310.911Z" fill="#383E4C"/>
</svg>
