<svg width="344" height="216" viewBox="0 0 344 216" fill="none" xmlns="http://www.w3.org/2000/svg">
<path d="M17.6322 70.8413C17.8347 71.0554 18.1645 71.0554 18.37 70.8413L21.5208 67.537C22.4351 66.5764 22.3831 64.9851 21.3588 64.0997C20.4677 63.3272 19.1396 63.4661 18.3237 64.3225L17.9996 64.661L17.6785 64.3254C16.8625 63.4661 15.5345 63.3272 14.6433 64.0997C13.622 64.9851 13.567 66.5764 14.4813 67.537L17.6322 70.8413ZM26.0229 73.0865C25.6815 72.7769 25.1491 72.7972 24.7903 73.0865L22.1169 75.2247C21.7899 75.488 21.382 75.6298 20.9595 75.6298H17.5367C17.2821 75.6298 17.0737 75.4214 17.0737 75.1668C17.0737 74.9122 17.2821 74.7039 17.5367 74.7039H19.8022C20.2622 74.7039 20.6904 74.3885 20.7657 73.9343C20.8612 73.3556 20.4156 72.8521 19.8514 72.8521H15.222C14.4408 72.8521 13.6856 73.1212 13.078 73.6131L11.7326 74.7039H10.1297C9.87507 74.7039 9.66675 74.9122 9.66675 75.1668V77.9445C9.66675 78.1991 9.87507 78.4074 10.1297 78.4074H20.4532C20.8727 78.4074 21.2807 78.2656 21.6105 78.0023L25.9853 74.5014C26.4251 74.1513 26.4598 73.48 26.0229 73.0865Z" fill="#FBFAFC"/>
<path d="M48.6882 69.4922H45.8885C45.8374 69.13 45.733 68.8082 45.5753 68.527C45.4176 68.2415 45.2152 67.9986 44.968 67.7983C44.7209 67.598 44.4354 67.4446 44.1115 67.3381C43.7919 67.2315 43.4446 67.1783 43.0696 67.1783C42.392 67.1783 41.8018 67.3466 41.299 67.6832C40.7962 68.0156 40.4063 68.5014 40.1293 69.1406C39.8523 69.7756 39.7138 70.5469 39.7138 71.4545C39.7138 72.3878 39.8523 73.1719 40.1293 73.8068C40.4105 74.4418 40.8026 74.9212 41.3054 75.245C41.8082 75.5689 42.3899 75.7308 43.0504 75.7308C43.4212 75.7308 43.7642 75.6818 44.0795 75.5838C44.3991 75.4858 44.6825 75.343 44.9297 75.1555C45.1768 74.9638 45.3814 74.7315 45.5433 74.4588C45.7095 74.1861 45.8246 73.875 45.8885 73.5256L48.6882 73.5384C48.6158 74.1392 48.4347 74.7188 48.1449 75.277C47.8594 75.831 47.4737 76.3274 46.9879 76.7663C46.5064 77.201 45.9311 77.5462 45.2621 77.8018C44.5973 78.0533 43.8452 78.179 43.0057 78.179C41.8381 78.179 40.794 77.9148 39.8736 77.3864C38.9574 76.858 38.233 76.093 37.7003 75.0916C37.1719 74.0902 36.9077 72.8778 36.9077 71.4545C36.9077 70.027 37.1761 68.8125 37.7131 67.8111C38.25 66.8097 38.9787 66.0469 39.8991 65.5227C40.8196 64.9943 41.8551 64.7301 43.0057 64.7301C43.7642 64.7301 44.4673 64.8366 45.1151 65.0497C45.767 65.2628 46.3445 65.5739 46.8473 65.983C47.3501 66.3878 47.7592 66.8842 48.0746 67.4723C48.3942 68.0604 48.5987 68.7337 48.6882 69.4922ZM55.0579 78.1918C54.065 78.1918 53.2063 77.9808 52.4819 77.5589C51.7617 77.1328 51.2056 76.5405 50.8136 75.782C50.4215 75.0192 50.2255 74.1349 50.2255 73.1293C50.2255 72.1151 50.4215 71.2287 50.8136 70.4702C51.2056 69.7074 51.7617 69.1151 52.4819 68.6932C53.2063 68.267 54.065 68.054 55.0579 68.054C56.0508 68.054 56.9073 68.267 57.6275 68.6932C58.3519 69.1151 58.9102 69.7074 59.3022 70.4702C59.6942 71.2287 59.8903 72.1151 59.8903 73.1293C59.8903 74.1349 59.6942 75.0192 59.3022 75.782C58.9102 76.5405 58.3519 77.1328 57.6275 77.5589C56.9073 77.9808 56.0508 78.1918 55.0579 78.1918ZM55.0707 76.0824C55.5224 76.0824 55.8995 75.9545 56.2021 75.6989C56.5046 75.4389 56.7326 75.0852 56.886 74.6378C57.0437 74.1903 57.1225 73.6811 57.1225 73.1101C57.1225 72.5391 57.0437 72.0298 56.886 71.5824C56.7326 71.1349 56.5046 70.7812 56.2021 70.5213C55.8995 70.2614 55.5224 70.1314 55.0707 70.1314C54.6147 70.1314 54.2312 70.2614 53.9201 70.5213C53.6133 70.7812 53.381 71.1349 53.2234 71.5824C53.07 72.0298 52.9933 72.5391 52.9933 73.1101C52.9933 73.6811 53.07 74.1903 53.2234 74.6378C53.381 75.0852 53.6133 75.4389 53.9201 75.6989C54.2312 75.9545 54.6147 76.0824 55.0707 76.0824ZM61.6609 78V68.1818H64.256V69.9141H64.3711C64.5756 69.3388 64.9165 68.8849 65.3938 68.5526C65.8711 68.2202 66.4421 68.054 67.1069 68.054C67.7802 68.054 68.3533 68.2223 68.8263 68.5589C69.2994 68.8913 69.6147 69.343 69.7724 69.9141H69.8746C70.0749 69.3516 70.4371 68.902 70.9613 68.5653C71.4897 68.2244 72.114 68.054 72.8342 68.054C73.7504 68.054 74.494 68.3459 75.065 68.9297C75.6403 69.5092 75.9279 70.3317 75.9279 71.397V78H73.2113V71.9339C73.2113 71.3885 73.0664 70.9794 72.7766 70.7067C72.4869 70.4339 72.1246 70.2976 71.69 70.2976C71.1957 70.2976 70.81 70.4553 70.533 70.7706C70.256 71.0817 70.1175 71.4929 70.1175 72.0043V78H67.4776V71.8764C67.4776 71.3949 67.3391 71.0114 67.0621 70.7259C66.7894 70.4403 66.4293 70.2976 65.9819 70.2976C65.6793 70.2976 65.4066 70.3743 65.1637 70.5277C64.9251 70.6768 64.7354 70.8878 64.5948 71.1605C64.4542 71.429 64.3839 71.7443 64.3839 72.1065V78H61.6609ZM82.5149 78.1918C81.522 78.1918 80.6634 77.9808 79.9389 77.5589C79.2188 77.1328 78.6626 76.5405 78.2706 75.782C77.8786 75.0192 77.6825 74.1349 77.6825 73.1293C77.6825 72.1151 77.8786 71.2287 78.2706 70.4702C78.6626 69.7074 79.2188 69.1151 79.9389 68.6932C80.6634 68.267 81.522 68.054 82.5149 68.054C83.5078 68.054 84.3643 68.267 85.0845 68.6932C85.8089 69.1151 86.3672 69.7074 86.7592 70.4702C87.1513 71.2287 87.3473 72.1151 87.3473 73.1293C87.3473 74.1349 87.1513 75.0192 86.7592 75.782C86.3672 76.5405 85.8089 77.1328 85.0845 77.5589C84.3643 77.9808 83.5078 78.1918 82.5149 78.1918ZM82.5277 76.0824C82.9794 76.0824 83.3565 75.9545 83.6591 75.6989C83.9616 75.4389 84.1896 75.0852 84.343 74.6378C84.5007 74.1903 84.5795 73.6811 84.5795 73.1101C84.5795 72.5391 84.5007 72.0298 84.343 71.5824C84.1896 71.1349 83.9616 70.7812 83.6591 70.5213C83.3565 70.2614 82.9794 70.1314 82.5277 70.1314C82.0717 70.1314 81.6882 70.2614 81.3771 70.5213C81.0703 70.7812 80.8381 71.1349 80.6804 71.5824C80.527 72.0298 80.4503 72.5391 80.4503 73.1101C80.4503 73.6811 80.527 74.1903 80.6804 74.6378C80.8381 75.0852 81.0703 75.4389 81.3771 75.6989C81.6882 75.9545 82.0717 76.0824 82.5277 76.0824ZM97.7583 78.1918C96.7484 78.1918 95.8791 77.9872 95.1504 77.5781C94.426 77.1648 93.8677 76.581 93.4757 75.8267C93.0836 75.0682 92.8876 74.1712 92.8876 73.1357C92.8876 72.1257 93.0836 71.2393 93.4757 70.4766C93.8677 69.7138 94.4196 69.1193 95.1312 68.6932C95.8471 68.267 96.6866 68.054 97.6497 68.054C98.2974 68.054 98.9004 68.1584 99.4586 68.3672C100.021 68.5717 100.511 68.8807 100.929 69.294C101.351 69.7074 101.679 70.2273 101.913 70.8537C102.148 71.4759 102.265 72.2045 102.265 73.0398V73.7876H93.9743V72.1001H99.7015C99.7015 71.7081 99.6163 71.3608 99.4458 71.0582C99.2754 70.7557 99.0389 70.5192 98.7363 70.3487C98.438 70.174 98.0907 70.0866 97.6944 70.0866C97.2811 70.0866 96.9146 70.1825 96.595 70.3743C96.2797 70.5618 96.0325 70.8153 95.8535 71.1349C95.6745 71.4503 95.5829 71.8018 95.5787 72.1896V73.794C95.5787 74.2798 95.6681 74.6996 95.8471 75.0533C96.0304 75.407 96.2882 75.6797 96.6206 75.8714C96.9529 76.0632 97.3471 76.1591 97.8031 76.1591C98.1056 76.1591 98.3826 76.1165 98.6341 76.0312C98.8855 75.946 99.1007 75.8182 99.2797 75.6477C99.4586 75.4773 99.595 75.2685 99.6887 75.0213L102.207 75.1875C102.079 75.7926 101.817 76.321 101.421 76.7727C101.029 77.2202 100.522 77.5696 99.8997 77.821C99.2818 78.0682 98.568 78.1918 97.7583 78.1918ZM112.211 70.9815L109.718 71.1349C109.675 70.9219 109.584 70.7301 109.443 70.5597C109.302 70.3849 109.117 70.2464 108.887 70.1442C108.661 70.0376 108.39 69.9844 108.075 69.9844C107.653 69.9844 107.297 70.0739 107.008 70.2528C106.718 70.4276 106.573 70.6619 106.573 70.956C106.573 71.1903 106.667 71.3885 106.854 71.5504C107.042 71.7124 107.363 71.8423 107.819 71.9403L109.596 72.2983C110.551 72.4943 111.263 72.8097 111.731 73.2443C112.2 73.679 112.434 74.25 112.434 74.9574C112.434 75.6009 112.245 76.1655 111.866 76.6513C111.491 77.1371 110.975 77.5163 110.319 77.7891C109.667 78.0575 108.915 78.1918 108.062 78.1918C106.763 78.1918 105.727 77.9212 104.956 77.38C104.189 76.8345 103.739 76.093 103.607 75.1555L106.285 75.0149C106.366 75.4112 106.562 75.7138 106.873 75.9226C107.184 76.1271 107.583 76.2294 108.069 76.2294C108.546 76.2294 108.93 76.1378 109.219 75.9545C109.513 75.767 109.662 75.5263 109.667 75.2322C109.662 74.9851 109.558 74.7827 109.354 74.625C109.149 74.4631 108.834 74.3395 108.407 74.2543L106.707 73.9155C105.748 73.7237 105.035 73.3913 104.566 72.9183C104.101 72.4453 103.869 71.8423 103.869 71.1094C103.869 70.4787 104.04 69.9354 104.381 69.4794C104.726 69.0234 105.209 68.6719 105.831 68.4247C106.458 68.1776 107.191 68.054 108.03 68.054C109.27 68.054 110.246 68.3161 110.958 68.8402C111.674 69.3643 112.091 70.0781 112.211 70.9815ZM119.371 68.1818V70.2273H113.459V68.1818H119.371ZM114.801 65.8295H117.524V74.983C117.524 75.2344 117.563 75.4304 117.639 75.571C117.716 75.7074 117.822 75.8033 117.959 75.8587C118.099 75.9141 118.261 75.9418 118.445 75.9418C118.572 75.9418 118.7 75.9311 118.828 75.9098C118.956 75.8842 119.054 75.8651 119.122 75.8523L119.55 77.8786C119.414 77.9212 119.222 77.9702 118.975 78.0256C118.728 78.0852 118.428 78.1214 118.074 78.1342C117.418 78.1598 116.842 78.0724 116.348 77.8722C115.858 77.6719 115.477 77.3608 115.204 76.9389C114.931 76.517 114.797 75.9844 114.801 75.3409V65.8295ZM123.945 78.1854C123.319 78.1854 122.76 78.0767 122.27 77.8594C121.78 77.6378 121.392 77.3118 121.107 76.8814C120.826 76.4467 120.685 75.9055 120.685 75.2578C120.685 74.7124 120.785 74.2543 120.985 73.8835C121.186 73.5128 121.458 73.2145 121.804 72.9886C122.149 72.7628 122.541 72.5923 122.98 72.4773C123.423 72.3622 123.887 72.2812 124.373 72.2344C124.944 72.1747 125.404 72.1193 125.754 72.0682C126.103 72.0128 126.357 71.9318 126.515 71.8253C126.672 71.7187 126.751 71.5611 126.751 71.3523V71.3139C126.751 70.9091 126.623 70.5959 126.368 70.3743C126.116 70.1527 125.758 70.0419 125.294 70.0419C124.804 70.0419 124.414 70.1506 124.124 70.3679C123.834 70.581 123.642 70.8494 123.549 71.1733L121.03 70.9688C121.158 70.3722 121.409 69.8565 121.784 69.4219C122.159 68.983 122.643 68.6463 123.235 68.4119C123.832 68.1733 124.522 68.054 125.306 68.054C125.852 68.054 126.374 68.1179 126.873 68.2457C127.375 68.3736 127.821 68.5717 128.208 68.8402C128.6 69.1087 128.909 69.4538 129.135 69.8757C129.361 70.2933 129.474 70.794 129.474 71.3778V78H126.892V76.6385H126.815C126.657 76.9453 126.446 77.2159 126.182 77.4503C125.918 77.6804 125.6 77.8615 125.23 77.9936C124.859 78.1214 124.431 78.1854 123.945 78.1854ZM124.725 76.3061C125.125 76.3061 125.479 76.2273 125.786 76.0696C126.093 75.9077 126.333 75.6903 126.508 75.4176C126.683 75.1449 126.77 74.8359 126.77 74.4908V73.4489C126.685 73.5043 126.568 73.5554 126.419 73.6023C126.274 73.6449 126.11 73.6854 125.926 73.7237C125.743 73.7578 125.56 73.7898 125.377 73.8196C125.194 73.8452 125.027 73.8686 124.878 73.8899C124.559 73.9368 124.279 74.0114 124.041 74.1136C123.802 74.2159 123.617 74.3544 123.485 74.5291C123.353 74.6996 123.287 74.9126 123.287 75.1683C123.287 75.5391 123.421 75.8224 123.689 76.0185C123.962 76.2102 124.307 76.3061 124.725 76.3061ZM124.431 66.9162L125.786 64.0078H128.304L126.355 66.9162H124.431ZM143.922 70.9815L141.429 71.1349C141.386 70.9219 141.295 70.7301 141.154 70.5597C141.013 70.3849 140.828 70.2464 140.598 70.1442C140.372 70.0376 140.101 69.9844 139.786 69.9844C139.364 69.9844 139.008 70.0739 138.719 70.2528C138.429 70.4276 138.284 70.6619 138.284 70.956C138.284 71.1903 138.378 71.3885 138.565 71.5504C138.753 71.7124 139.074 71.8423 139.53 71.9403L141.307 72.2983C142.262 72.4943 142.974 72.8097 143.442 73.2443C143.911 73.679 144.145 74.25 144.145 74.9574C144.145 75.6009 143.956 76.1655 143.577 76.6513C143.202 77.1371 142.686 77.5163 142.03 77.7891C141.378 78.0575 140.626 78.1918 139.773 78.1918C138.474 78.1918 137.438 77.9212 136.667 77.38C135.9 76.8345 135.45 76.093 135.318 75.1555L137.996 75.0149C138.077 75.4112 138.273 75.7138 138.584 75.9226C138.895 76.1271 139.294 76.2294 139.78 76.2294C140.257 76.2294 140.64 76.1378 140.93 75.9545C141.224 75.767 141.373 75.5263 141.378 75.2322C141.373 74.9851 141.269 74.7827 141.064 74.625C140.86 74.4631 140.545 74.3395 140.118 74.2543L138.418 73.9155C137.459 73.7237 136.746 73.3913 136.277 72.9183C135.812 72.4453 135.58 71.8423 135.58 71.1094C135.58 70.4787 135.751 69.9354 136.091 69.4794C136.437 69.0234 136.92 68.6719 137.542 68.4247C138.169 68.1776 138.902 68.054 139.741 68.054C140.981 68.054 141.957 68.3161 142.669 68.8402C143.385 69.3643 143.802 70.0781 143.922 70.9815ZM150.335 78.1918C149.325 78.1918 148.455 77.9872 147.727 77.5781C147.002 77.1648 146.444 76.581 146.052 75.8267C145.66 75.0682 145.464 74.1712 145.464 73.1357C145.464 72.1257 145.66 71.2393 146.052 70.4766C146.444 69.7138 146.996 69.1193 147.707 68.6932C148.423 68.267 149.263 68.054 150.226 68.054C150.874 68.054 151.477 68.1584 152.035 68.3672C152.597 68.5717 153.087 68.8807 153.505 69.294C153.927 69.7074 154.255 70.2273 154.489 70.8537C154.724 71.4759 154.841 72.2045 154.841 73.0398V73.7876H146.55V72.1001H152.278C152.278 71.7081 152.192 71.3608 152.022 71.0582C151.852 70.7557 151.615 70.5192 151.312 70.3487C151.014 70.174 150.667 70.0866 150.271 70.0866C149.857 70.0866 149.491 70.1825 149.171 70.3743C148.856 70.5618 148.609 70.8153 148.43 71.1349C148.251 71.4503 148.159 71.8018 148.155 72.1896V73.794C148.155 74.2798 148.244 74.6996 148.423 75.0533C148.607 75.407 148.864 75.6797 149.197 75.8714C149.529 76.0632 149.923 76.1591 150.379 76.1591C150.682 76.1591 150.959 76.1165 151.21 76.0312C151.462 75.946 151.677 75.8182 151.856 75.6477C152.035 75.4773 152.171 75.2685 152.265 75.0213L154.783 75.1875C154.656 75.7926 154.393 76.321 153.997 76.7727C153.605 77.2202 153.098 77.5696 152.476 77.821C151.858 78.0682 151.144 78.1918 150.335 78.1918ZM162.914 73.8196V68.1818H165.637V78H163.023V76.2166H162.92C162.699 76.7919 162.33 77.2543 161.815 77.6037C161.303 77.9531 160.679 78.1278 159.942 78.1278C159.286 78.1278 158.708 77.9787 158.21 77.6804C157.711 77.3821 157.321 76.9581 157.04 76.4084C156.763 75.8587 156.622 75.2003 156.618 74.4332V68.1818H159.341V73.9474C159.345 74.527 159.501 74.9851 159.808 75.3217C160.114 75.6584 160.526 75.8267 161.041 75.8267C161.369 75.8267 161.676 75.7521 161.962 75.603C162.247 75.4496 162.477 75.2237 162.652 74.9254C162.831 74.6271 162.918 74.2585 162.914 73.8196ZM174.704 72.3239V78H171.981V64.9091H174.627V69.9141H174.743C174.964 69.3345 175.322 68.8807 175.816 68.5526C176.311 68.2202 176.931 68.054 177.676 68.054C178.358 68.054 178.953 68.2031 179.46 68.5014C179.971 68.7955 180.368 69.2195 180.649 69.7734C180.934 70.3232 181.075 70.9815 181.071 71.7486V78H178.348V72.2344C178.352 71.6293 178.199 71.1584 177.887 70.8217C177.581 70.4851 177.15 70.3168 176.596 70.3168C176.225 70.3168 175.897 70.3956 175.612 70.5533C175.331 70.7109 175.109 70.9411 174.947 71.2436C174.789 71.5419 174.708 71.902 174.704 72.3239ZM189.51 73.8196V68.1818H192.233V78H189.618V76.2166H189.516C189.295 76.7919 188.926 77.2543 188.41 77.6037C187.899 77.9531 187.275 78.1278 186.537 78.1278C185.881 78.1278 185.304 77.9787 184.805 77.6804C184.307 77.3821 183.917 76.9581 183.635 76.4084C183.358 75.8587 183.218 75.2003 183.214 74.4332V68.1818H185.937V73.9474C185.941 74.527 186.096 74.9851 186.403 75.3217C186.71 75.6584 187.121 75.8267 187.637 75.8267C187.965 75.8267 188.272 75.7521 188.557 75.603C188.843 75.4496 189.073 75.2237 189.248 74.9254C189.427 74.6271 189.514 74.2585 189.51 73.8196ZM194.411 78V68.1818H197.006V69.9141H197.121C197.326 69.3388 197.667 68.8849 198.144 68.5526C198.621 68.2202 199.192 68.054 199.857 68.054C200.53 68.054 201.103 68.2223 201.576 68.5589C202.049 68.8913 202.365 69.343 202.522 69.9141H202.625C202.825 69.3516 203.187 68.902 203.711 68.5653C204.24 68.2244 204.864 68.054 205.584 68.054C206.5 68.054 207.244 68.3459 207.815 68.9297C208.39 69.5092 208.678 70.3317 208.678 71.397V78H205.961V71.9339C205.961 71.3885 205.816 70.9794 205.527 70.7067C205.237 70.4339 204.875 70.2976 204.44 70.2976C203.946 70.2976 203.56 70.4553 203.283 70.7706C203.006 71.0817 202.868 71.4929 202.868 72.0043V78H200.228V71.8764C200.228 71.3949 200.089 71.0114 199.812 70.7259C199.539 70.4403 199.179 70.2976 198.732 70.2976C198.429 70.2976 198.157 70.3743 197.914 70.5277C197.675 70.6768 197.485 70.8878 197.345 71.1605C197.204 71.429 197.134 71.7443 197.134 72.1065V78H194.411ZM215.265 78.1918C214.272 78.1918 213.413 77.9808 212.689 77.5589C211.969 77.1328 211.413 76.5405 211.021 75.782C210.629 75.0192 210.433 74.1349 210.433 73.1293C210.433 72.1151 210.629 71.2287 211.021 70.4702C211.413 69.7074 211.969 69.1151 212.689 68.6932C213.413 68.267 214.272 68.054 215.265 68.054C216.258 68.054 217.114 68.267 217.835 68.6932C218.559 69.1151 219.117 69.7074 219.509 70.4702C219.901 71.2287 220.097 72.1151 220.097 73.1293C220.097 74.1349 219.901 75.0192 219.509 75.782C219.117 76.5405 218.559 77.1328 217.835 77.5589C217.114 77.9808 216.258 78.1918 215.265 78.1918ZM215.278 76.0824C215.729 76.0824 216.107 75.9545 216.409 75.6989C216.712 75.4389 216.94 75.0852 217.093 74.6378C217.251 74.1903 217.33 73.6811 217.33 73.1101C217.33 72.5391 217.251 72.0298 217.093 71.5824C216.94 71.1349 216.712 70.7812 216.409 70.5213C216.107 70.2614 215.729 70.1314 215.278 70.1314C214.822 70.1314 214.438 70.2614 214.127 70.5213C213.82 70.7812 213.588 71.1349 213.43 71.5824C213.277 72.0298 213.2 72.5391 213.2 73.1101C213.2 73.6811 213.277 74.1903 213.43 74.6378C213.588 75.0852 213.82 75.4389 214.127 75.6989C214.438 75.9545 214.822 76.0824 215.278 76.0824ZM221.868 78V68.1818H224.508V69.8949H224.61C224.789 69.2855 225.089 68.8253 225.511 68.5142C225.933 68.1989 226.419 68.0412 226.969 68.0412C227.105 68.0412 227.252 68.0497 227.41 68.0668C227.567 68.0838 227.706 68.1072 227.825 68.1371V70.5533C227.697 70.5149 227.521 70.4808 227.295 70.451C227.069 70.4212 226.862 70.4062 226.675 70.4062C226.274 70.4062 225.916 70.4936 225.601 70.6683C225.29 70.8388 225.043 71.0774 224.859 71.3842C224.68 71.6911 224.591 72.0447 224.591 72.4453V78H221.868ZM236.122 72.3239V78H233.399V64.9091H236.045V69.9141H236.161C236.382 69.3345 236.74 68.8807 237.234 68.5526C237.729 68.2202 238.349 68.054 239.094 68.054C239.776 68.054 240.371 68.2031 240.878 68.5014C241.389 68.7955 241.786 69.2195 242.067 69.7734C242.352 70.3232 242.493 70.9815 242.489 71.7486V78H239.766V72.2344C239.77 71.6293 239.616 71.1584 239.305 70.8217C238.999 70.4851 238.568 70.3168 238.014 70.3168C237.643 70.3168 237.315 70.3956 237.03 70.5533C236.749 70.7109 236.527 70.9411 236.365 71.2436C236.207 71.5419 236.126 71.902 236.122 72.3239ZM249.068 78.1918C248.075 78.1918 247.216 77.9808 246.492 77.5589C245.771 77.1328 245.215 76.5405 244.823 75.782C244.431 75.0192 244.235 74.1349 244.235 73.1293C244.235 72.1151 244.431 71.2287 244.823 70.4702C245.215 69.7074 245.771 69.1151 246.492 68.6932C247.216 68.267 248.075 68.054 249.068 68.054C250.061 68.054 250.917 68.267 251.637 68.6932C252.362 69.1151 252.92 69.7074 253.312 70.4702C253.704 71.2287 253.9 72.1151 253.9 73.1293C253.9 74.1349 253.704 75.0192 253.312 75.782C252.92 76.5405 252.362 77.1328 251.637 77.5589C250.917 77.9808 250.061 78.1918 249.068 78.1918ZM249.08 76.0824C249.532 76.0824 249.909 75.9545 250.212 75.6989C250.514 75.4389 250.742 75.0852 250.896 74.6378C251.053 74.1903 251.132 73.6811 251.132 73.1101C251.132 72.5391 251.053 72.0298 250.896 71.5824C250.742 71.1349 250.514 70.7812 250.212 70.5213C249.909 70.2614 249.532 70.1314 249.08 70.1314C248.624 70.1314 248.241 70.2614 247.93 70.5213C247.623 70.7812 247.391 71.1349 247.233 71.5824C247.08 72.0298 247.003 72.5391 247.003 73.1101C247.003 73.6811 247.08 74.1903 247.233 74.6378C247.391 75.0852 247.623 75.4389 247.93 75.6989C248.241 75.9545 248.624 76.0824 249.08 76.0824ZM255.671 68.1818H258.394V78.4858C258.394 79.2443 258.244 79.858 257.946 80.3267C257.648 80.7955 257.22 81.1385 256.661 81.3558C256.107 81.5732 255.445 81.6818 254.673 81.6818C254.58 81.6818 254.49 81.6797 254.405 81.6754C254.316 81.6754 254.222 81.6733 254.124 81.669V79.5405C254.196 79.5447 254.26 79.5469 254.316 79.5469C254.367 79.5511 254.422 79.5533 254.482 79.5533C254.921 79.5533 255.227 79.4595 255.402 79.272C255.581 79.0888 255.671 78.8118 255.671 78.4411V68.1818ZM257.026 66.9162C256.625 66.9162 256.28 66.782 255.99 66.5135C255.7 66.2408 255.556 65.9148 255.556 65.5355C255.556 65.1605 255.7 64.8388 255.99 64.5703C256.28 64.2976 256.625 64.1612 257.026 64.1612C257.435 64.1612 257.782 64.2976 258.068 64.5703C258.357 64.8388 258.502 65.1605 258.502 65.5355C258.502 65.9148 258.357 66.2408 258.068 66.5135C257.782 66.782 257.435 66.9162 257.026 66.9162ZM265.049 78.1918C264.039 78.1918 263.17 77.9872 262.441 77.5781C261.717 77.1648 261.159 76.581 260.767 75.8267C260.375 75.0682 260.179 74.1712 260.179 73.1357C260.179 72.1257 260.375 71.2393 260.767 70.4766C261.159 69.7138 261.711 69.1193 262.422 68.6932C263.138 68.267 263.978 68.054 264.941 68.054C265.588 68.054 266.191 68.1584 266.75 68.3672C267.312 68.5717 267.802 68.8807 268.22 69.294C268.642 69.7074 268.97 70.2273 269.204 70.8537C269.439 71.4759 269.556 72.2045 269.556 73.0398V73.7876H261.265V72.1001H266.993C266.993 71.7081 266.907 71.3608 266.737 71.0582C266.566 70.7557 266.33 70.5192 266.027 70.3487C265.729 70.174 265.382 70.0866 264.985 70.0866C264.572 70.0866 264.206 70.1825 263.886 70.3743C263.571 70.5618 263.324 70.8153 263.145 71.1349C262.966 71.4503 262.874 71.8018 262.87 72.1896V73.794C262.87 74.2798 262.959 74.6996 263.138 75.0533C263.321 75.407 263.579 75.6797 263.912 75.8714C264.244 76.0632 264.638 76.1591 265.094 76.1591C265.397 76.1591 265.674 76.1165 265.925 76.0312C266.176 75.946 266.392 75.8182 266.571 75.6477C266.75 75.4773 266.886 75.2685 266.98 75.0213L269.498 75.1875C269.37 75.7926 269.108 76.321 268.712 76.7727C268.32 77.2202 267.813 77.5696 267.191 77.821C266.573 78.0682 265.859 78.1918 265.049 78.1918ZM273.672 74.0753V73.858C273.676 73.1122 273.743 72.5178 273.87 72.0746C274.002 71.6314 274.194 71.2734 274.446 71.0007C274.697 70.728 275 70.4808 275.353 70.2592C275.618 70.0888 275.854 69.9119 276.063 69.7287C276.272 69.5455 276.438 69.343 276.561 69.1214C276.685 68.8956 276.747 68.6442 276.747 68.3672C276.747 68.0732 276.676 67.8153 276.536 67.5938C276.395 67.3722 276.206 67.2017 275.967 67.0824C275.733 66.9631 275.473 66.9034 275.187 66.9034C274.91 66.9034 274.648 66.9652 274.401 67.0888C274.154 67.2081 273.951 67.3871 273.794 67.6257C273.636 67.8601 273.551 68.152 273.538 68.5014H270.93C270.951 67.6491 271.156 66.946 271.544 66.392C271.931 65.8338 272.445 65.4183 273.084 65.1456C273.723 64.8686 274.429 64.7301 275.2 64.7301C276.048 64.7301 276.798 64.8707 277.45 65.152C278.102 65.429 278.613 65.8317 278.984 66.3601C279.355 66.8885 279.54 67.5256 279.54 68.2713C279.54 68.7699 279.457 69.2131 279.291 69.6009C279.129 69.9844 278.901 70.3253 278.607 70.6236C278.313 70.9176 277.966 71.1839 277.565 71.4226C277.228 71.6229 276.951 71.8317 276.734 72.049C276.521 72.2663 276.361 72.5178 276.255 72.8033C276.152 73.0888 276.099 73.4403 276.095 73.858V74.0753H273.672ZM274.938 78.1662C274.512 78.1662 274.147 78.017 273.845 77.7188C273.547 77.4162 273.4 77.054 273.404 76.6321C273.4 76.2145 273.547 75.8565 273.845 75.5582C274.147 75.2599 274.512 75.1108 274.938 75.1108C275.343 75.1108 275.699 75.2599 276.005 75.5582C276.312 75.8565 276.468 76.2145 276.472 76.6321C276.468 76.9134 276.393 77.1712 276.248 77.4055C276.108 77.6357 275.922 77.821 275.692 77.9616C275.462 78.098 275.211 78.1662 274.938 78.1662Z" fill="#EEEBF2"/>
<path d="M323.75 63C319.469 63 316 66.5 316 70.75C316 75.0312 319.469 78.5 323.75 78.5C328 78.5 331.5 75.0312 331.5 70.75C331.5 66.5 328 63 323.75 63ZM323.75 66.4375C324.469 66.4375 325.062 67.0312 325.062 67.75C325.062 68.5 324.469 69.0625 323.75 69.0625C323 69.0625 322.438 68.5 322.438 67.75C322.438 67.0312 323 66.4375 323.75 66.4375ZM325.5 74.375C325.5 74.5938 325.312 74.75 325.125 74.75H322.375C322.156 74.75 322 74.5938 322 74.375V73.625C322 73.4375 322.156 73.25 322.375 73.25H322.75V71.25H322.375C322.156 71.25 322 71.0938 322 70.875V70.125C322 69.9375 322.156 69.75 322.375 69.75H324.375C324.562 69.75 324.75 69.9375 324.75 70.125V73.25H325.125C325.312 73.25 325.5 73.4375 325.5 73.625V74.375Z" fill="#DEDCE5"/>
<rect x="8" y="99" width="56" height="56" rx="28" fill="#A0DCCE"/>
<path d="M35.9999 110.333C26.7929 110.333 19.3333 117.793 19.3333 127C19.3333 136.207 26.7929 143.667 35.9999 143.667C45.2069 143.667 52.6666 136.207 52.6666 127C52.6666 117.793 45.2069 110.333 35.9999 110.333ZM35.9999 140.441C28.5873 140.441 22.5591 134.413 22.5591 127C22.5591 119.587 28.5873 113.559 35.9999 113.559C43.4126 113.559 49.4408 119.587 49.4408 127C49.4408 134.413 43.4126 140.441 35.9999 140.441ZM41.6451 130.804C40.2472 132.484 38.1841 133.452 35.9999 133.452C33.8158 133.452 31.7526 132.491 30.3548 130.804C29.7835 130.118 28.7687 130.031 28.0833 130.595C27.3978 131.167 27.3104 132.181 27.8749 132.867C29.891 135.286 32.8548 136.671 35.9999 136.671C39.1451 136.671 42.1088 135.286 44.1249 132.867C44.6962 132.181 44.6021 131.167 43.9166 130.595C43.2311 130.031 42.2163 130.118 41.6451 130.804ZM28.5066 123.976C29.0241 123.055 29.797 122.524 30.6236 122.524C31.4502 122.524 32.223 123.055 32.7405 123.976L33.379 125.118C33.5201 125.367 33.7956 125.434 34.004 125.367C34.2459 125.293 34.4072 125.064 34.387 124.809C34.1652 121.98 32.223 120.011 30.6236 120.011C29.0241 120.011 27.0819 121.98 26.8601 124.809C26.84 125.058 27.0013 125.293 27.2432 125.367C27.4717 125.441 27.7405 125.333 27.8682 125.118L28.5066 123.976ZM41.3763 120.011C39.7768 120.011 37.8346 121.98 37.6128 124.809C37.5927 125.058 37.754 125.293 37.9959 125.367C38.2311 125.441 38.4932 125.333 38.6209 125.118L39.2593 123.976C39.7768 123.055 40.5497 122.524 41.3763 122.524C42.2029 122.524 42.9757 123.055 43.4932 123.976L44.1316 125.118C44.2728 125.367 44.5483 125.434 44.7566 125.367C44.9986 125.293 45.1599 125.064 45.1397 124.809C44.9179 121.98 42.9757 120.011 41.3763 120.011Z" fill="#383E4C"/>
<rect x="76" y="99" width="56" height="56" rx="28" fill="#A5C9E7"/>
<path d="M104 110.333C94.7929 110.333 87.3333 117.793 87.3333 127C87.3333 136.207 94.7929 143.667 104 143.667C113.207 143.667 120.667 136.207 120.667 127C120.667 117.793 113.207 110.333 104 110.333ZM104 140.441C96.5873 140.441 90.5591 134.413 90.5591 127C90.5591 119.587 96.5873 113.559 104 113.559C111.413 113.559 117.441 119.587 117.441 127C117.441 134.413 111.413 140.441 104 140.441ZM98.6236 125.925C99.8131 125.925 100.774 124.964 100.774 123.774C100.774 122.585 99.8131 121.624 98.6236 121.624C97.4341 121.624 96.473 122.585 96.473 123.774C96.473 124.964 97.4341 125.925 98.6236 125.925ZM109.376 125.925C110.566 125.925 111.527 124.964 111.527 123.774C111.527 122.585 110.566 121.624 109.376 121.624C108.187 121.624 107.226 122.585 107.226 123.774C107.226 124.964 108.187 125.925 109.376 125.925ZM109.645 130.804C108.247 132.484 106.184 133.452 104 133.452C101.816 133.452 99.7526 132.491 98.3548 130.804C97.7835 130.118 96.762 130.031 96.0833 130.595C95.3978 131.167 95.3104 132.181 95.8749 132.867C97.891 135.286 100.855 136.671 104 136.671C107.145 136.671 110.109 135.286 112.125 132.867C112.696 132.181 112.602 131.167 111.917 130.595C111.238 130.031 110.216 130.118 109.645 130.804Z" fill="#383E4C"/>
<rect x="144" y="99" width="56" height="56" rx="28" fill="#C1C1CC"/>
<path d="M172 110.333C162.793 110.333 155.333 117.793 155.333 127C155.333 136.207 162.793 143.667 172 143.667C181.207 143.667 188.667 136.207 188.667 127C188.667 117.793 181.207 110.333 172 110.333ZM172 140.441C164.587 140.441 158.559 134.413 158.559 127C158.559 119.587 164.587 113.559 172 113.559C179.413 113.559 185.441 119.587 185.441 127C185.441 134.413 179.413 140.441 172 140.441ZM166.624 125.925C167.813 125.925 168.774 124.964 168.774 123.774C168.774 122.585 167.813 121.624 166.624 121.624C165.434 121.624 164.473 122.585 164.473 123.774C164.473 124.964 165.434 125.925 166.624 125.925ZM177.376 121.624C176.187 121.624 175.226 122.585 175.226 123.774C175.226 124.964 176.187 125.925 177.376 125.925C178.566 125.925 179.527 124.964 179.527 123.774C179.527 122.585 178.566 121.624 177.376 121.624ZM177.914 131.301H166.086C165.199 131.301 164.473 132.027 164.473 132.914C164.473 133.801 165.199 134.527 166.086 134.527H177.914C178.801 134.527 179.527 133.801 179.527 132.914C179.527 132.027 178.801 131.301 177.914 131.301Z" fill="#383E4C"/>
<rect x="212" y="99" width="56" height="56" rx="28" fill="#F9D2A5"/>
<path d="M240 110.333C230.793 110.333 223.333 117.793 223.333 127C223.333 136.207 230.793 143.667 240 143.667C249.207 143.667 256.667 136.207 256.667 127C256.667 117.793 249.207 110.333 240 110.333ZM240 140.441C232.587 140.441 226.559 134.413 226.559 127C226.559 119.587 232.587 113.559 240 113.559C247.413 113.559 253.441 119.587 253.441 127C253.441 134.413 247.413 140.441 240 140.441ZM234.624 125.925C235.813 125.925 236.774 124.964 236.774 123.774C236.774 122.585 235.813 121.624 234.624 121.624C233.434 121.624 232.473 122.585 232.473 123.774C232.473 124.964 233.434 125.925 234.624 125.925ZM245.376 121.624C244.187 121.624 243.226 122.585 243.226 123.774C243.226 124.964 244.187 125.925 245.376 125.925C246.566 125.925 247.527 124.964 247.527 123.774C247.527 122.585 246.566 121.624 245.376 121.624ZM240 130.226C237.298 130.226 234.758 131.415 233.024 133.492C232.453 134.177 232.547 135.192 233.232 135.763C233.918 136.328 234.933 136.241 235.504 135.555C236.62 134.218 238.259 133.445 240 133.445C241.741 133.445 243.38 134.211 244.496 135.555C245.04 136.207 246.048 136.355 246.767 135.763C247.453 135.192 247.54 134.177 246.976 133.492C245.242 131.415 242.702 130.226 240 130.226Z" fill="#383E4C"/>
<rect x="280" y="99" width="56" height="56" rx="28" fill="#EEB0B5"/>
<path d="M321.544 127C321.544 123.408 320.117 119.963 317.577 117.423C315.037 114.883 311.592 113.456 308 113.456C304.408 113.456 300.963 114.883 298.423 117.423C295.883 119.963 294.456 123.408 294.456 127C294.456 130.592 295.883 134.037 298.423 136.577C300.963 139.117 304.408 140.544 308 140.544C311.592 140.544 315.037 139.117 317.577 136.577C320.117 134.037 321.544 130.592 321.544 127ZM291.33 127C291.33 122.579 293.086 118.339 296.213 115.213C299.339 112.086 303.579 110.33 308 110.33C312.421 110.33 316.661 112.086 319.788 115.213C322.914 118.339 324.67 122.579 324.67 127C324.67 131.421 322.914 135.661 319.788 138.788C316.661 141.914 312.421 143.67 308 143.67C303.579 143.67 299.339 141.914 296.213 138.788C293.086 135.661 291.33 131.421 291.33 127ZM310.507 136.924C310.025 136.41 309.205 135.856 308 135.856C306.795 135.856 305.975 136.41 305.493 136.924C304.907 137.556 303.917 137.588 303.286 137.002C302.654 136.416 302.621 135.426 303.207 134.795C304.139 133.792 305.747 132.73 308 132.73C310.253 132.73 311.862 133.792 312.786 134.788C313.372 135.42 313.34 136.41 312.708 136.996C312.076 137.582 311.087 137.549 310.501 136.917L310.507 136.924ZM305.089 127.736L304.607 128.218C303.071 129.755 301.098 130.77 298.955 131.129L298.793 131.155C298.226 131.252 297.686 130.868 297.594 130.295C297.503 129.722 297.881 129.188 298.454 129.097L298.617 129.071C300.329 128.784 301.912 127.97 303.142 126.746L303.624 126.264C304.028 125.861 304.692 125.861 305.096 126.264C305.5 126.668 305.5 127.332 305.096 127.736H305.089ZM310.911 127.736C310.507 127.332 310.507 126.668 310.911 126.264C311.315 125.861 311.979 125.861 312.382 126.264L312.864 126.746C314.095 127.977 315.677 128.791 317.39 129.071L317.553 129.097C318.119 129.195 318.503 129.728 318.412 130.295C318.321 130.862 317.781 131.246 317.214 131.155L317.051 131.129C314.909 130.77 312.929 129.755 311.399 128.218L310.917 127.736H310.911Z" fill="#383E4C"/>
</svg>
