<svg width="1024" height="1024" viewBox="0 0 1024 1024" fill="none" xmlns="http://www.w3.org/2000/svg">
<rect width="1024" height="1024" fill="#E5E5E5"/>
<g clip-path="url(#clip0_1349_434)">
<rect width="1024" height="1024" rx="83" fill="url(#paint0_linear_1349_434)"/>
<path d="M424 689H602" stroke="white" stroke-width="20" stroke-linecap="round"/>
<path d="M561 651L602 651" stroke="white" stroke-width="20" stroke-linecap="round"/>
<path d="M426 651H429" stroke="white" stroke-width="20" stroke-linecap="round"/>
<path d="M456 651H460" stroke="white" stroke-width="20" stroke-linecap="round"/>
<path d="M435 594C443.462 563.087 468.286 515 509.462 515C563.615 515 589 583.696 589 594" stroke="white" stroke-width="20" stroke-linecap="round"/>
<path d="M569 457.5C569 489.187 543.102 515 511 515C478.898 515 453 489.187 453 457.5C453 425.813 478.898 400 511 400C543.102 400 569 425.813 569 457.5Z" stroke="white" stroke-width="20"/>
<path d="M569 457.5C569 489.187 543.102 515 511 515C478.898 515 453 489.187 453 457.5C453 425.813 478.898 400 511 400C543.102 400 569 425.813 569 457.5Z" stroke="white" stroke-width="20"/>
<path d="M569 457.5C569 489.187 543.102 515 511 515C478.898 515 453 489.187 453 457.5C453 425.813 478.898 400 511 400C543.102 400 569 425.813 569 457.5Z" stroke="white" stroke-width="20"/>
<path fill-rule="evenodd" clip-rule="evenodd" d="M552.53 247.194C556.871 242.147 560.294 236.29 562.543 229.88L730.411 326.799C725.984 331.951 722.623 337.845 720.423 344.127L552.53 247.194ZM761.381 415.067C767.921 416.302 774.705 416.339 781.381 415.081V608.919C774.705 607.661 767.921 607.697 761.381 608.933V415.067ZM552.53 776.806C556.871 781.853 560.294 787.71 562.543 794.12L730.411 697.201C725.984 692.049 722.623 686.155 720.423 679.873L552.53 776.806ZM241.766 608.919C248.441 607.661 255.225 607.698 261.766 608.933V415.067C255.225 416.302 248.441 416.339 241.766 415.081V608.919ZM460.604 794.12L292.735 697.201C297.162 692.048 300.523 686.155 302.723 679.873L470.616 776.806C466.276 781.852 462.852 787.71 460.604 794.12ZM460.604 229.88L292.735 326.799C297.162 331.952 300.523 337.845 302.723 344.127L470.616 247.194C466.276 242.148 462.852 236.29 460.604 229.88Z" fill="white"/>
<circle cx="511.573" cy="212" r="44" stroke="white" stroke-width="20"/>
<circle cx="771.381" cy="662" r="44" transform="rotate(120 771.381 662)" stroke="white" stroke-width="20"/>
<circle cx="771.381" cy="362" r="44" transform="rotate(60 771.381 362)" stroke="white" stroke-width="20"/>
<circle cx="511.573" cy="812" r="44" stroke="white" stroke-width="20"/>
<circle cx="251.765" cy="362" r="44" transform="rotate(90 251.765 362)" stroke="white" stroke-width="20"/>
<circle cx="251.765" cy="662" r="44" transform="rotate(60 251.765 662)" stroke="white" stroke-width="20"/>
<path d="M357 550C365.523 519.478 390.527 472 432 472" stroke="white" stroke-width="20" stroke-linecap="round"/>
<path d="M656 550C648.727 519.478 627.391 472 592 472" stroke="white" stroke-width="20" stroke-linecap="round"/>
<path fill-rule="evenodd" clip-rule="evenodd" d="M443.077 460.732C439.524 461.561 435.817 462 432 462C405.351 462 384 440.595 384 414.5C384 388.405 405.351 367 432 367C453.056 367 470.804 380.363 477.327 398.844C483.079 395.583 489.357 393.132 496.004 391.647C486.569 365.615 461.475 347 432 347C394.445 347 364 377.221 364 414.5C364 451.779 394.445 482 432 482C437.153 482 442.172 481.431 446.996 480.353C444.759 474.18 443.402 467.59 443.077 460.732Z" fill="white"/>
<path fill-rule="evenodd" clip-rule="evenodd" d="M639 414.5C639 440.734 617.734 462 591.5 462C586.793 462 582.246 461.315 577.953 460.04C577.698 466.932 576.41 473.56 574.239 479.773C579.749 481.226 585.534 482 591.5 482C628.779 482 659 451.779 659 414.5C659 377.221 628.779 347 591.5 347C562.025 347 536.963 365.892 527.761 392.227C534.354 393.966 540.551 396.677 546.191 400.197C552.26 380.953 570.251 367 591.5 367C617.734 367 639 388.266 639 414.5Z" fill="white"/>
</g>
<rect x="-15.5" y="-15.5" width="4486" height="1055" rx="4.5" stroke="#9747FF" stroke-dasharray="10 5"/>
<defs>
<linearGradient id="paint0_linear_1349_434" x1="1067.53" y1="6.42088e-06" x2="-61.1498" y2="1024" gradientUnits="userSpaceOnUse">
<stop offset="0.0667144" stop-color="#00C89A"/>
<stop offset="1" stop-color="#5288B6"/>
</linearGradient>
<clipPath id="clip0_1349_434">
<rect width="1024" height="1024" rx="83" fill="white"/>
</clipPath>
</defs>
</svg>
