<svg width="17" height="16" viewBox="0 0 17 16" fill="none" xmlns="http://www.w3.org/2000/svg">
<g clip-path="url(#clip0_6458_26163)">
<path d="M9.5 1C9.5 0.446875 9.05313 0 8.5 0C7.94688 0 7.5 0.446875 7.5 1V8.58438L5.20625 6.29063C4.81563 5.9 4.18125 5.9 3.79063 6.29063C3.4 6.68125 3.4 7.31563 3.79063 7.70625L7.79063 11.7063C8.18125 12.0969 8.81563 12.0969 9.20625 11.7063L13.2063 7.70625C13.5969 7.31563 13.5969 6.68125 13.2063 6.29063C12.8156 5.9 12.1812 5.9 11.7906 6.29063L9.5 8.58438V1ZM2.5 11C1.39688 11 0.5 11.8969 0.5 13V14C0.5 15.1031 1.39688 16 2.5 16H14.5C15.6031 16 16.5 15.1031 16.5 14V13C16.5 11.8969 15.6031 11 14.5 11H11.3281L9.9125 12.4156C9.13125 13.1969 7.86562 13.1969 7.08437 12.4156L5.67188 11H2.5ZM14 12.75C14.1989 12.75 14.3897 12.829 14.5303 12.9697C14.671 13.1103 14.75 13.3011 14.75 13.5C14.75 13.6989 14.671 13.8897 14.5303 14.0303C14.3897 14.171 14.1989 14.25 14 14.25C13.8011 14.25 13.6103 14.171 13.4697 14.0303C13.329 13.8897 13.25 13.6989 13.25 13.5C13.25 13.3011 13.329 13.1103 13.4697 12.9697C13.6103 12.829 13.8011 12.75 14 12.75Z" fill="#6E7280"/>
</g>
<defs>
<clipPath id="clip0_6458_26163">
<rect width="16" height="16" fill="white" transform="translate(0.5)"/>
</clipPath>
</defs>
</svg>
