<svg width="130" height="42" viewBox="0 0 130 42" fill="none" xmlns="http://www.w3.org/2000/svg">
<g clip-path="url(#clip0_4332_16577)">
<path d="M11.3376 35.7474L16.879 30.2526C17.3031 29.8347 17.6396 29.3378 17.8692 28.7904C18.0989 28.243 18.2171 27.656 18.2171 27.0632C18.2171 26.4703 18.0989 25.8833 17.8692 25.3359C17.6396 24.7886 17.3031 24.2916 16.879 23.8737L11.3376 18.4105C10.9212 18.0013 10.5908 17.5143 10.3652 16.9777C10.1397 16.4411 10.0236 15.8655 10.0236 15.2842C10.0236 14.7029 10.1397 14.1273 10.3652 13.5907C10.5908 13.0541 10.9212 12.5672 11.3376 12.1579L19.9045 20.6526C21.6178 22.3599 22.5797 24.6704 22.5797 27.0789C22.5797 29.4875 21.6178 31.798 19.9045 33.5053L11.3376 42C10.9212 41.5907 10.5908 41.1038 10.3652 40.5672C10.1397 40.0306 10.0236 39.455 10.0236 38.8737C10.0236 38.2924 10.1397 37.7168 10.3652 37.1802C10.5908 36.6436 10.9212 36.1566 11.3376 35.7474ZM79.586 15.7579C74.3949 15.7579 70.9873 19.2947 70.9554 24.7263V32.0211C70.9554 32.7474 71.3057 33.6 72.9299 33.6C74.4905 33.6 74.8089 32.7474 74.8089 32.0211V24.7263C74.8089 21.0947 76.6242 18.8526 79.5542 18.8526H79.586C82.5159 18.8526 84.3312 21.0947 84.3312 24.7263V32.0211C84.3312 32.7474 84.6497 33.6 86.2102 33.6C87.8344 33.6 88.1847 32.7474 88.1847 32.0211V24.7263C88.1847 19.2947 84.7771 15.7579 79.586 15.7579ZM128.471 15.7579H128.376C123.185 15.7579 119.777 19.2947 119.745 24.7263V32.0211C119.745 32.7474 120.096 33.6 121.72 33.6C123.28 33.6 123.599 32.7474 123.599 32.0211V24.7263C123.599 21.0947 125.414 18.8526 128.344 18.8526H128.408C128.621 18.8525 128.832 18.8105 129.029 18.7292C129.225 18.6479 129.404 18.5289 129.554 18.3789C129.697 18.2382 129.809 18.0708 129.886 17.8865C129.962 17.7022 130.001 17.5046 130 17.3053C130.001 16.9 129.841 16.5107 129.555 16.2212C129.269 15.9318 128.88 15.7654 128.471 15.7579ZM41.9427 18.7263C39.2357 17.5895 36.879 16.5789 36.879 14.4316C36.879 12.4421 38.6306 11.1789 41.3694 11.1789C42.8344 11.1789 44.1083 11.5579 45.637 12.4421C45.7962 12.5368 45.9554 12.6316 46.0828 12.6947C46.5605 12.9789 46.8471 13.1684 47.1975 13.1684C48.121 13.1684 48.8854 12.1263 48.8854 11.2737C48.8854 10.5158 48.2166 9.97895 47.4522 9.50526C45.6258 8.38649 43.5161 7.806 41.3694 7.83158C36.4331 7.83158 33.121 10.5789 33.121 14.6526C33.121 18.9474 36.879 20.5579 40.1911 21.9474C43.0892 23.1789 45.6051 24.2526 45.6051 26.7474C45.6051 29.0211 43.5987 30.5368 40.637 30.5368C39.0128 30.5368 37.6115 30.0632 36.051 28.9895L35.6688 28.7368C35.0956 28.3579 34.7771 28.1368 34.2994 28.1368C33.4077 28.1368 32.6115 29.1474 32.6115 30C32.6115 30.6316 33.0255 31.2 33.9809 31.8947C35.9059 33.2461 38.215 33.954 40.5733 33.9158C45.828 33.9158 49.3631 30.9474 49.3631 26.5579C49.3631 21.8526 45.4459 20.1789 41.9427 18.7263ZM56.4968 25.9579H65.0637C66.4331 25.9579 67.8663 25.6737 67.8663 23.4632C67.8663 18.9474 64.7771 15.7579 60.3822 15.7579C55.5414 15.7579 52.4204 19.3263 52.4204 24.8211C52.4204 30.3158 55.6688 33.7263 60.8599 33.7263C62.9936 33.7263 64.8089 33.2211 66.2739 32.2421C67.1338 31.7053 67.5159 31.1684 67.5159 30.5368C67.516 30.0984 67.3426 29.6774 67.0329 29.3644C66.7232 29.0514 66.302 28.8714 65.8599 28.8632C65.414 28.8632 65 29.1158 64.4586 29.4947L64.3949 29.5579C63.3863 30.1887 62.2111 30.5075 61.0191 30.4737C58.3121 30.4737 56.6879 29.0842 56.2102 26.3053C56.196 26.2615 56.1944 26.2146 56.2056 26.1699C56.2169 26.1253 56.2405 26.0846 56.2739 26.0526C56.302 26.0218 56.3364 25.9974 56.3749 25.981C56.4134 25.9647 56.455 25.9568 56.4968 25.9579ZM56.2421 22.6737C56.6879 20.1789 58.121 18.8211 60.2866 18.8211C62.5159 18.8211 63.9491 20.2737 64.172 22.7053C64.169 22.7976 64.1354 22.8864 64.0764 22.9579C64.0484 22.9887 64.0139 23.0131 63.9755 23.0295C63.937 23.0459 63.8954 23.0537 63.8535 23.0526H56.5287C56.4865 23.057 56.4438 23.0507 56.4048 23.0341C56.3657 23.0175 56.3316 22.9913 56.3057 22.9579C56.2729 22.9191 56.25 22.873 56.2389 22.8235C56.2278 22.774 56.2289 22.7226 56.2421 22.6737ZM93.9172 8.30526C93.6071 8.29306 93.2978 8.34409 93.0084 8.45521C92.7191 8.56633 92.4558 8.73516 92.2348 8.95126C92.0139 9.16736 91.8401 9.42612 91.7241 9.71153C91.6081 9.99694 91.5524 10.3029 91.5605 10.6105C91.5605 11.2303 91.8088 11.8247 92.2508 12.2629C92.6927 12.7012 93.2922 12.9474 93.9172 12.9474C94.5422 12.9474 95.1417 12.7012 95.5836 12.2629C96.0256 11.8247 96.2739 11.2303 96.2739 10.6105C96.282 10.3029 96.2263 9.99694 96.1103 9.71153C95.9943 9.42612 95.8205 9.16736 95.5996 8.95126C95.3787 8.73516 95.1154 8.56633 94.826 8.45521C94.5366 8.34409 94.2273 8.29306 93.9172 8.30526ZM93.8854 15.9474C92.3567 15.9474 92.0701 16.8 92.0701 17.5263V32.0211C92.0701 32.7474 92.3885 33.6 93.9809 33.6C95.5096 33.6 95.7962 32.7474 95.7962 32.0211V17.5263C95.7962 16.8 95.4459 15.9474 93.8854 15.9474ZM107.803 15.7579C102.548 15.7579 99.172 19.3263 99.172 24.8211C99.172 30.3158 102.548 33.8211 107.739 33.8211C113.025 33.8211 116.401 30.2526 116.401 24.7579C116.401 19.2632 113.025 15.7579 107.803 15.7579ZM107.803 30.6632C104.904 30.6632 103.025 28.3263 103.025 24.7579C103.025 21.1263 104.841 18.8842 107.771 18.8842C110.701 18.8842 112.516 21.1579 112.516 24.8526C112.516 28.4211 110.701 30.6632 107.803 30.6632ZM11.2739 6.25263L5.7325 11.7474C5.30844 12.1653 4.9719 12.6622 4.74226 13.2096C4.51261 13.757 4.39438 14.344 4.39438 14.9368C4.39438 15.5297 4.51261 16.1167 4.74226 16.6641C4.9719 17.2114 5.30844 17.7084 5.7325 18.1263L11.2739 23.6211C11.6903 24.0303 12.0207 24.5173 12.2463 25.0539C12.4718 25.5905 12.5879 26.166 12.5879 26.7474C12.5879 27.3287 12.4718 27.9043 12.2463 28.4409C12.0207 28.9774 11.6903 29.4644 11.2739 29.8737L2.67518 21.3474C0.961839 19.6401 0 17.3296 0 14.9211C0 12.5125 0.961839 10.202 2.67518 8.49474L11.2739 0C12.1009 0.833955 12.5644 1.95672 12.5644 3.12632C12.5644 4.29591 12.1009 5.41868 11.2739 6.25263Z" fill="#12A885"/>
</g>
<defs>
<clipPath id="clip0_4332_16577">
<rect width="130" height="42" fill="white"/>
</clipPath>
</defs>
</svg>
