<svg width="16" height="16" viewBox="0 0 16 16" fill="none" xmlns="http://www.w3.org/2000/svg">
<g clip-path="url(#clip0_881_4712)">
<path d="M6.69794 7.41162L3.88544 6.58871C3.55992 6.49496 3.33336 6.19027 3.33336 5.85173C3.33336 5.42725 3.67711 5.0835 4.10159 5.0835H5.82815C6.14586 5.0835 6.45836 5.17985 6.71878 5.35693C6.87763 5.4637 7.09117 5.43766 7.22659 5.30485L8.13284 4.41943C8.31774 4.23975 8.29169 3.94027 8.08597 3.78141C7.44794 3.28141 6.65107 3.00277 5.83336 3.00016V1.75016C5.83336 1.521 5.64586 1.3335 5.41669 1.3335H4.58336C4.35419 1.3335 4.16669 1.521 4.16669 1.75016V3.00016H4.10159C2.44274 3.00016 1.1094 4.42464 1.26305 6.11475C1.37242 7.31527 2.28909 8.29183 3.44534 8.63037L6.11461 9.41162C6.44013 9.50798 6.66669 9.81006 6.66669 10.1486C6.66669 10.5731 6.32294 10.9168 5.89847 10.9168H4.1719C3.85419 10.9168 3.54169 10.8205 3.28128 10.6434C3.12242 10.5366 2.90888 10.5627 2.77347 10.6955L1.86722 11.5809C1.68232 11.7606 1.70836 12.0601 1.91409 12.2189C2.55211 12.7189 3.34899 12.9976 4.16669 13.0002V14.2502C4.16669 14.4793 4.35419 14.6668 4.58336 14.6668H5.41669C5.64586 14.6668 5.83336 14.4793 5.83336 14.2502V12.995C7.0469 12.9715 8.18492 12.2502 8.58597 11.1017C9.14586 9.49756 8.20576 7.85173 6.69794 7.41162V7.41162Z" fill="#1D79C3"/>
</g>
<g clip-path="url(#clip1_881_4712)">
<path d="M14.8575 6.28555H12.7146V4.14269C12.7146 3.87975 12.5014 3.6665 12.2384 3.6665H11.7622C11.4993 3.6665 11.286 3.87975 11.286 4.14269V6.28555H9.14318C8.88024 6.28555 8.66699 6.4988 8.66699 6.76174V7.23793C8.66699 7.50088 8.88024 7.71412 9.14318 7.71412H11.286V9.85698C11.286 10.1199 11.4993 10.3332 11.7622 10.3332H12.2384C12.5014 10.3332 12.7146 10.1199 12.7146 9.85698V7.71412H14.8575C15.1204 7.71412 15.3337 7.50088 15.3337 7.23793V6.76174C15.3337 6.4988 15.1204 6.28555 14.8575 6.28555Z" fill="#1D79C3"/>
</g>
<defs>
<clipPath id="clip0_881_4712">
<rect width="8" height="14" fill="white" transform="translate(1 1)"/>
</clipPath>
<clipPath id="clip1_881_4712">
<rect width="8" height="8" fill="white" transform="translate(8 3)"/>
</clipPath>
</defs>
</svg>
