<svg width="8" height="14" viewBox="0 0 8 14" fill="none" xmlns="http://www.w3.org/2000/svg">
<path d="M5.69794 6.41162L2.88544 5.58871C2.55992 5.49496 2.33336 5.19027 2.33336 4.85173C2.33336 4.42725 2.67711 4.0835 3.10159 4.0835H4.82815C5.14586 4.0835 5.45836 4.17985 5.71878 4.35693C5.87763 4.46371 6.09117 4.43766 6.22659 4.30485L7.13284 3.41943C7.31774 3.23975 7.29169 2.94027 7.08597 2.78141C6.44794 2.28141 5.65107 2.00277 4.83336 2.00016V0.750163C4.83336 0.520996 4.64586 0.333496 4.41669 0.333496H3.58336C3.35419 0.333496 3.16669 0.520996 3.16669 0.750163V2.00016H3.10159C1.44274 2.00016 0.109403 3.42464 0.263049 5.11475C0.372424 6.31527 1.28909 7.29183 2.44534 7.63037L5.11461 8.41162C5.44013 8.50798 5.66669 8.81006 5.66669 9.1486C5.66669 9.57308 5.32294 9.91683 4.89847 9.91683H3.1719C2.85419 9.91683 2.54169 9.82048 2.28128 9.64339C2.12242 9.53662 1.90888 9.56266 1.77347 9.69548L0.867215 10.5809C0.68232 10.7606 0.708361 11.0601 0.91409 11.2189C1.55211 11.7189 2.34899 11.9976 3.16669 12.0002V13.2502C3.16669 13.4793 3.35419 13.6668 3.58336 13.6668H4.41669C4.64586 13.6668 4.83336 13.4793 4.83336 13.2502V11.995C6.0469 11.9715 7.18492 11.2502 7.58597 10.1017C8.14586 8.49756 7.20576 6.85173 5.69794 6.41162Z" fill="#7E8A92"/>
</svg>
