<svg width="404" height="751" viewBox="0 0 404 751" fill="none" xmlns="http://www.w3.org/2000/svg">
<g opacity="0.2">
<path d="M203.852 327.186L203.846 327.18C196.606 320.06 190.86 311.589 186.94 302.256C183.019 292.923 181 282.913 181 272.803C181 262.693 183.019 252.683 186.94 243.35C190.606 234.623 195.868 226.649 202.456 219.829L354.44 370.606C384.632 400.706 401.579 441.439 401.579 483.896C401.579 526.352 384.634 567.083 354.444 597.182C354.442 597.184 354.441 597.185 354.44 597.186L202.476 747.385C188.962 733.033 181.421 714.109 181.421 694.426C181.421 674.082 189.477 654.549 203.858 640.037C203.86 640.035 203.862 640.033 203.864 640.031L302.711 541.969C302.712 541.968 302.713 541.967 302.714 541.966C310.466 534.322 316.619 525.232 320.818 515.218C325.018 505.203 327.18 494.462 327.18 483.614C327.18 472.766 325.018 462.026 320.818 452.011C316.619 441.997 310.466 432.907 302.714 425.263C302.713 425.262 302.712 425.261 302.711 425.26L203.852 327.186Z" stroke="#0E866A" stroke-width="4"/>
<path d="M199.727 423.043L199.733 423.049C206.973 430.169 212.719 438.64 216.639 447.973C220.56 457.306 222.579 467.316 222.579 477.426C222.579 487.536 220.56 497.546 216.639 506.879C212.973 515.606 207.711 523.58 201.124 530.4L49.1393 379.623C18.9467 349.523 2 308.79 2 266.333C2 223.877 18.9453 183.146 49.1355 153.047C49.1368 153.045 49.1381 153.044 49.1393 153.043L201.103 2.84437C214.617 17.1963 222.158 36.12 222.158 55.803C222.158 76.1469 214.102 95.6795 199.721 110.192C199.719 110.194 199.717 110.196 199.715 110.198L100.868 208.26C100.867 208.261 100.866 208.262 100.865 208.263C93.1132 215.907 86.9603 224.997 82.7612 235.011C78.5616 245.026 76.3993 255.767 76.3993 266.615C76.3993 277.463 78.5616 288.203 82.7612 298.218C86.9603 308.232 93.1132 317.322 100.865 324.966C100.866 324.967 100.867 324.968 100.868 324.969L199.727 423.043Z" stroke="#0E866A" stroke-width="4"/>
</g>
</svg>
