<svg width="118" height="62" viewBox="0 0 118 62" fill="none" xmlns="http://www.w3.org/2000/svg">
<g clip-path="url(#clip0_2427:9505)">
<path d="M21.7619 57.6827L25.5556 53.8887C25.8459 53.6002 26.0763 53.257 26.2336 52.8791C26.3908 52.5011 26.4717 52.0958 26.4717 51.6865C26.4717 51.2771 26.3908 50.8718 26.2336 50.4939C26.0763 50.1159 25.8459 49.7728 25.5556 49.4842L21.7619 45.712C21.4768 45.4294 21.2506 45.0932 21.0962 44.7227C20.9418 44.3522 20.8623 43.9548 20.8623 43.5534C20.8623 43.152 20.9418 42.7546 21.0962 42.3841C21.2506 42.0136 21.4768 41.6773 21.7619 41.3947L27.6269 47.2602C28.7999 48.439 29.4584 50.0343 29.4584 51.6974C29.4584 53.3604 28.7999 54.9558 27.6269 56.1346L21.7619 62C21.4768 61.7174 21.2506 61.3812 21.0962 61.0107C20.9418 60.6402 20.8623 60.2427 20.8623 59.8414C20.8623 59.44 20.9418 59.0425 21.0962 58.672C21.2506 58.3015 21.4768 57.9653 21.7619 57.6827V57.6827ZM68.4858 43.8805C64.9319 43.8805 62.599 46.3226 62.5772 50.0729V55.1098C62.5772 55.6113 62.817 56.2 63.929 56.2C64.9973 56.2 65.2153 55.6113 65.2153 55.1098V50.0729C65.2153 47.5654 66.4581 46.0173 68.464 46.0173H68.4858C70.4917 46.0173 71.7345 47.5654 71.7345 50.0729V55.1098C71.7345 55.6113 71.9525 56.2 73.0208 56.2C74.1328 56.2 74.3726 55.6113 74.3726 55.1098V50.0729C74.3726 46.3226 72.0397 43.8805 68.4858 43.8805ZM101.953 43.8805H101.888C98.3342 43.8805 96.0012 46.3226 95.9794 50.0729V55.1098C95.9794 55.6113 96.2193 56.2 97.3312 56.2C98.3996 56.2 98.6176 55.6113 98.6176 55.1098V50.0729C98.6176 47.5654 99.8604 46.0173 101.866 46.0173H101.91C102.056 46.0172 102.2 45.9882 102.335 45.9321C102.47 45.876 102.592 45.7938 102.695 45.6902C102.792 45.5931 102.869 45.4775 102.922 45.3502C102.974 45.2229 103.001 45.0865 103 44.9489C103.001 44.6691 102.891 44.4003 102.695 44.2004C102.5 44.0005 102.233 43.8856 101.953 43.8805V43.8805ZM42.7146 45.9301C40.8614 45.1451 39.2479 44.4474 39.2479 42.9647C39.2479 41.591 40.4471 40.7188 42.3222 40.7188C43.3251 40.7188 44.1972 40.9805 45.2438 41.591C45.3528 41.6564 45.4618 41.7218 45.549 41.7654C45.8761 41.9617 46.0723 42.0925 46.3121 42.0925C46.9444 42.0925 47.4677 41.3729 47.4677 40.7842C47.4677 40.2609 47.0098 39.8902 46.4865 39.5632C45.2361 38.7907 43.7918 38.3899 42.3222 38.4075C38.9427 38.4075 36.6752 40.3045 36.6752 43.1173C36.6752 46.0827 39.2479 47.1947 41.5154 48.1541C43.4995 49.0045 45.222 49.7459 45.222 51.4684C45.222 53.0383 43.8484 54.085 41.8207 54.085C40.7087 54.085 39.7494 53.7579 38.681 53.0165L38.4194 52.8421C38.027 52.5805 37.8089 52.4278 37.4819 52.4278C36.8714 52.4278 36.3263 53.1256 36.3263 53.7143C36.3263 54.1504 36.6098 54.5429 37.2639 55.0226C38.5817 55.9556 40.1626 56.4444 41.7771 56.418C45.3746 56.418 47.7947 54.3684 47.7947 51.3376C47.7947 48.0887 45.1129 46.9331 42.7146 45.9301ZM52.6786 50.9233H58.5436C59.4811 50.9233 60.4623 50.7271 60.4623 49.2008C60.4623 46.0827 58.3474 43.8805 55.3386 43.8805C52.0245 43.8805 49.8878 46.3444 49.8878 50.1383C49.8878 53.9323 52.1117 56.2872 55.6656 56.2872C57.1264 56.2872 58.3692 55.9383 59.3721 55.2624C59.9608 54.8917 60.2225 54.5211 60.2225 54.085C60.2225 53.7822 60.1038 53.4915 59.8917 53.2754C59.6797 53.0593 59.3914 52.935 59.0887 52.9293C58.7835 52.9293 58.5 53.1038 58.1294 53.3654L58.0858 53.409C57.3952 53.8446 56.5907 54.0647 55.7746 54.0414C53.9214 54.0414 52.8094 53.082 52.4824 51.1632C52.4726 51.1329 52.4715 51.1005 52.4792 51.0697C52.4869 51.0389 52.5031 51.0108 52.526 50.9887C52.5452 50.9674 52.5688 50.9506 52.5951 50.9393C52.6215 50.928 52.6499 50.9225 52.6786 50.9233V50.9233ZM52.5042 48.6556C52.8094 46.9331 53.7906 45.9955 55.2732 45.9955C56.7994 45.9955 57.7805 46.9985 57.9331 48.6774C57.9311 48.7412 57.9081 48.8025 57.8677 48.8519C57.8485 48.8732 57.8249 48.89 57.7986 48.9013C57.7722 48.9126 57.7438 48.9181 57.7151 48.9173H52.7004C52.6715 48.9203 52.6423 48.9159 52.6156 48.9045C52.5888 48.893 52.5655 48.8749 52.5478 48.8519C52.5253 48.8251 52.5096 48.7932 52.502 48.7591C52.4944 48.7249 52.4952 48.6894 52.5042 48.6556V48.6556ZM78.2972 38.7346C78.0849 38.7262 77.8731 38.7614 77.675 38.8381C77.4769 38.9148 77.2966 39.0314 77.1454 39.1806C76.9941 39.3298 76.8751 39.5085 76.7957 39.7056C76.7163 39.9027 76.6782 40.1139 76.6837 40.3263C76.6837 40.7543 76.8537 41.1647 77.1563 41.4673C77.4589 41.7699 77.8693 41.9398 78.2972 41.9398C78.7251 41.9398 79.1355 41.7699 79.438 41.4673C79.7406 41.1647 79.9106 40.7543 79.9106 40.3263C79.9161 40.1139 79.878 39.9027 79.7986 39.7056C79.7192 39.5085 79.6002 39.3298 79.4489 39.1806C79.2977 39.0314 79.1174 38.9148 78.9193 38.8381C78.7212 38.7614 78.5095 38.7262 78.2972 38.7346V38.7346ZM78.2754 44.0113C77.2288 44.0113 77.0326 44.6 77.0326 45.1015V55.1098C77.0326 55.6113 77.2506 56.2 78.3408 56.2C79.3873 56.2 79.5835 55.6113 79.5835 55.1098V45.1015C79.5835 44.6 79.3437 44.0113 78.2754 44.0113V44.0113ZM87.8033 43.8805C84.2058 43.8805 81.8947 46.3444 81.8947 50.1383C81.8947 53.9323 84.2058 56.3526 87.7597 56.3526C91.379 56.3526 93.6901 53.8887 93.6901 50.0947C93.6901 46.3008 91.379 43.8805 87.8033 43.8805V43.8805ZM87.8033 54.1722C85.8192 54.1722 84.5328 52.5586 84.5328 50.0947C84.5328 47.5872 85.7756 46.0391 87.7815 46.0391C89.7874 46.0391 91.0301 47.609 91.0301 50.1601C91.0301 52.6241 89.7874 54.1722 87.8033 54.1722V54.1722ZM21.7183 37.3173L17.9246 41.1113C17.6342 41.3998 17.4038 41.743 17.2466 42.1209C17.0894 42.4989 17.0085 42.9042 17.0085 43.3135C17.0085 43.7229 17.0894 44.1282 17.2466 44.5061C17.4038 44.8841 17.6342 45.2272 17.9246 45.5158L21.7183 49.3098C22.0033 49.5924 22.2296 49.9286 22.384 50.2991C22.5384 50.6696 22.6179 51.067 22.6179 51.4684C22.6179 51.8698 22.5384 52.2672 22.384 52.6377C22.2296 53.0082 22.0033 53.3445 21.7183 53.6271L15.8315 47.7398C14.6585 46.561 14 44.9657 14 43.3026C14 41.6396 14.6585 40.0442 15.8315 38.8654L21.7183 33C22.2845 33.5758 22.6017 34.3511 22.6017 35.1586C22.6017 35.9662 22.2845 36.7415 21.7183 37.3173V37.3173Z" fill="#12A885"/>
</g>
<path d="M1.43821 21H3.41335V16.3977H6.09801C9.13423 16.3977 10.6364 14.5632 10.6364 12.147C10.6364 9.73722 9.14702 7.90909 6.1044 7.90909H1.43821V21ZM3.41335 14.723V9.60298H5.89347C7.84943 9.60298 8.64844 10.6641 8.64844 12.147C8.64844 13.63 7.84943 14.723 5.91903 14.723H3.41335ZM24.3233 14.4545C24.3233 10.2678 21.8176 7.73011 18.4299 7.73011C15.0293 7.73011 12.53 10.2678 12.53 14.4545C12.53 18.6349 15.0293 21.179 18.4299 21.179C21.8176 21.179 24.3233 18.6413 24.3233 14.4545ZM22.3674 14.4545C22.3674 17.6442 20.6799 19.3764 18.4299 19.3764C16.1735 19.3764 14.4924 17.6442 14.4924 14.4545C14.4924 11.2649 16.1735 9.53267 18.4299 9.53267C20.6799 9.53267 22.3674 11.2649 22.3674 14.4545ZM29.1909 21H31.1852L33.9402 11.1946H34.0424L36.7974 21H38.7853L42.4224 7.90909H40.3386L37.7946 18.0533H37.6731L35.0204 7.90909H32.9622L30.3095 18.0469H30.188L27.6376 7.90909H25.5602L29.1909 21ZM44.2234 21H52.5075V19.2997H46.1985V15.2919H52.0025V13.598H46.1985V9.60938H52.4308V7.90909H44.2234V21ZM55.0691 21H57.0442V16.0462H59.7289C59.7736 16.0462 59.812 16.0462 59.8567 16.0462L62.5158 21H64.7658L61.8638 15.701C63.4682 15.1065 64.2672 13.7706 64.2672 12.0128C64.2672 9.60298 62.7715 7.90909 59.7353 7.90909H55.0691V21ZM57.0442 14.3459V9.60298H59.5243C61.4739 9.60298 62.2793 10.5298 62.2793 12.0128C62.2793 13.4893 61.4739 14.3459 59.5499 14.3459H57.0442ZM66.6706 21H74.9547V19.2997H68.6458V15.2919H74.4498V13.598H68.6458V9.60938H74.878V7.90909H66.6706V21ZM81.7543 21C85.7429 21 88.0504 18.5263 88.0504 14.4354C88.0504 10.3636 85.7429 7.90909 81.8885 7.90909H77.5163V21H81.7543ZM79.4915 19.2741V9.63494H81.767C84.6307 9.63494 86.1072 11.348 86.1072 14.4354C86.1072 17.5355 84.6307 19.2741 81.6456 19.2741H79.4915ZM95.2702 21H100.288C103.331 21 104.705 19.4851 104.705 17.478C104.705 15.4517 103.286 14.3075 101.988 14.2372V14.1094C103.19 13.8026 104.194 12.9844 104.194 11.348C104.194 9.41122 102.851 7.90909 100.064 7.90909H95.2702V21ZM97.2454 19.3061V15.1129H100.167C101.752 15.1129 102.743 16.1357 102.743 17.3821C102.743 18.4815 101.995 19.3061 100.096 19.3061H97.2454ZM97.2454 13.5724V9.5902H99.9428C101.509 9.5902 102.257 10.4148 102.257 11.5014C102.257 12.767 101.221 13.5724 99.8917 13.5724H97.2454ZM106.038 7.90909L110.787 15.8608V21H112.756V15.8608L117.505 7.90909H115.261L111.842 13.8601H111.701L108.281 7.90909H106.038Z" fill="#5F676E"/>
<defs>
<clipPath id="clip0_2427:9505">
<rect width="89" height="29" fill="white" transform="translate(14 33)"/>
</clipPath>
</defs>
</svg>
